<svg width="16" height="19" viewBox="0 0 16 19" fill="none" xmlns="http://www.w3.org/2000/svg">
<path d="M7.96141 4.11989C7.95792 4.12438 7.93004 4.13234 7.89918 4.13583C7.86831 4.13931 7.80458 4.15624 7.75579 4.17217C7.38936 4.29265 7.13644 4.54557 7.02343 4.90204C6.92087 5.22566 6.97165 5.53832 7.17677 5.84501C7.2624 5.97246 7.24996 6.04017 7.12947 6.10091C6.96269 6.18654 6.73217 6.36627 6.61069 6.50717C6.30849 6.85817 6.13125 7.28235 6.10735 7.7145C6.10187 7.82751 6.10287 7.84544 6.12527 7.89522C6.15813 7.96841 6.17705 7.98882 6.24476 8.02069L6.30102 8.04757H8.06646H9.8319L9.88816 8.02069C9.95587 7.98932 9.97478 7.96891 10.0076 7.89522C10.03 7.84444 10.0315 7.82751 10.0246 7.7145C9.99968 7.28235 9.82592 6.86165 9.5272 6.51314C9.41219 6.37772 9.24989 6.24579 9.06468 6.13526C8.87848 6.02474 8.86255 5.98391 8.95615 5.8455C9.12542 5.59159 9.19064 5.32673 9.14932 5.06236C9.10302 4.77111 8.93175 4.49379 8.69676 4.328C8.56582 4.2354 8.31091 4.13284 8.21184 4.13284C8.19491 4.13284 8.17699 4.12736 8.1735 4.12139C8.16553 4.10745 7.96937 4.10645 7.96141 4.11989ZM8.23573 4.60083C8.34626 4.63021 8.41845 4.67303 8.51554 4.77011C8.65195 4.90653 8.69925 5.02054 8.69925 5.21819C8.69925 5.41784 8.64847 5.53633 8.50309 5.67523C8.36319 5.80966 8.2671 5.84799 8.06745 5.84799C7.8698 5.84799 7.76376 5.80518 7.62535 5.67075C7.48644 5.53533 7.43566 5.41485 7.43566 5.21968C7.43566 5.02004 7.48196 4.90852 7.62087 4.76961C7.71447 4.67601 7.78915 4.63071 7.89519 4.60133C7.96838 4.58042 8.16006 4.58042 8.23573 4.60083ZM8.34278 6.33939C8.65394 6.39366 8.88445 6.51663 9.12343 6.75461C9.27229 6.90347 9.35345 7.01499 9.42813 7.17182C9.52421 7.37694 9.54761 7.50589 9.49783 7.55866L9.47393 7.58455H8.06795H6.66347L6.63758 7.55966C6.58331 7.50888 6.6092 7.37346 6.71873 7.14992C6.79441 6.99309 6.88253 6.87559 7.0299 6.7327C7.24747 6.52161 7.45757 6.41009 7.74533 6.34935C7.90166 6.31549 8.18495 6.31101 8.34278 6.33939Z" fill="#0D152C"/>
<path d="M4.23739 4.58959C4.13482 4.612 4.06463 4.63789 3.97352 4.68668C3.7206 4.8221 3.57522 5.02971 3.51448 5.33988C3.50204 5.40659 3.49855 5.54201 3.49855 5.98512C3.49855 6.52331 3.49955 6.5492 3.52095 6.60795C3.54933 6.68263 3.59862 6.72843 3.67778 6.75582C3.72608 6.77175 3.74101 6.77274 3.77686 6.7593C3.8605 6.73092 3.90083 6.69856 3.93468 6.62936L3.96605 6.56414L3.97152 5.93782C3.97849 5.2194 3.96904 5.27765 4.09201 5.15716C4.21598 5.03519 4.17416 5.04216 4.89756 5.03519L5.52487 5.02971L5.57914 4.99585C5.64436 4.95503 5.69215 4.87537 5.69215 4.80417C5.69116 4.70809 5.62245 4.62146 5.5184 4.58661C5.46114 4.5657 4.3285 4.56918 4.23739 4.58959Z" fill="#0D152C"/>
<path d="M10.6116 4.58608C10.509 4.62342 10.4433 4.70906 10.4423 4.80365C10.4423 4.87485 10.4896 4.955 10.5553 4.99533L10.6096 5.02918L11.2369 5.03466C11.9603 5.04163 11.9185 5.03466 12.0424 5.15664C12.1654 5.27712 12.1564 5.21887 12.1629 5.93729L12.1684 6.56411L12.1988 6.62834C12.2301 6.69704 12.2744 6.73339 12.3601 6.76027C12.3994 6.77272 12.4119 6.77172 12.4686 6.75131C12.5453 6.72193 12.5861 6.68161 12.614 6.60245C12.6354 6.54469 12.6364 6.51084 12.6364 5.9831C12.6364 5.39313 12.6329 5.34682 12.5811 5.18452C12.4821 4.87783 12.2326 4.66226 11.8886 4.59007C11.8264 4.57662 11.6979 4.57314 11.2284 4.57413C10.8416 4.57364 10.634 4.57812 10.6116 4.58608Z" fill="#0D152C"/>
<path d="M4.38722 7.62988C3.94362 7.72348 3.62698 8.02469 3.51496 8.45933C3.48011 8.59823 3.47115 8.69631 3.48558 8.79987C3.51844 9.01993 3.57122 9.16331 3.68324 9.32562C3.72854 9.39233 3.73502 9.40926 3.73502 9.46104C3.73502 9.52974 3.71908 9.55016 3.63345 9.59297C3.47214 9.67413 3.23068 9.8658 3.11019 10.0102C2.86176 10.3059 2.70493 10.6375 2.6422 10.9975C2.63523 11.0348 2.62776 11.0831 2.62278 11.1045C2.60934 11.1802 2.60486 11.3111 2.61481 11.3345C2.65415 11.4226 2.68003 11.463 2.71289 11.4859C2.80102 11.5466 2.73779 11.5446 4.58239 11.5446C6.43246 11.5446 6.35131 11.5471 6.44292 11.4859C6.49121 11.453 6.53552 11.3684 6.54199 11.2962C6.55195 11.1822 6.49669 10.8595 6.43595 10.6848C6.27563 10.2292 5.96895 9.84987 5.57165 9.62085C5.43872 9.54319 5.41582 9.52028 5.41582 9.46054C5.41582 9.41972 5.42577 9.39632 5.47456 9.32413C5.62791 9.0961 5.70259 8.80385 5.66425 8.56936C5.62592 8.3269 5.4905 8.06054 5.33018 7.91068C5.22762 7.81459 5.04142 7.70755 4.90251 7.66473C4.70884 7.60399 4.5565 7.59404 4.38722 7.62988ZM4.73125 8.08692C4.84974 8.11182 4.92442 8.15463 5.02698 8.2562C5.1624 8.39261 5.21219 8.51111 5.21318 8.70428C5.21318 8.88351 5.16489 9.00798 5.04192 9.13643C4.89505 9.29077 4.79597 9.33408 4.58288 9.33408C4.38423 9.33408 4.27918 9.29674 4.15173 9.17974C4.00486 9.04432 3.9496 8.91587 3.9496 8.70926C3.9496 8.56587 3.96553 8.49816 4.01731 8.39909C4.0646 8.31096 4.2045 8.17554 4.29263 8.13273C4.4156 8.07199 4.58139 8.05506 4.73125 8.08692ZM4.83281 9.82448C5.02698 9.85585 5.19626 9.91808 5.36205 10.0187C5.52435 10.1167 5.71852 10.3029 5.83154 10.4697C5.87883 10.5394 5.95998 10.6898 5.97144 10.7271C5.97592 10.7396 5.99185 10.7869 6.00778 10.8322C6.04512 10.9372 6.04612 11.0094 6.01226 11.0453L5.98836 11.0711H4.58239H3.1779L3.15201 11.0462C3.08331 10.982 3.15749 10.7256 3.31432 10.4876C3.39647 10.3622 3.62897 10.1267 3.74647 10.05C3.93964 9.92356 4.09846 9.86381 4.34988 9.82C4.44149 9.80407 4.72478 9.80606 4.83281 9.82448Z" fill="#0D152C"/>
<path d="M11.3842 7.62445C11.1034 7.68071 10.853 7.82858 10.7007 8.02822C10.5876 8.17509 10.5 8.38121 10.4706 8.5699C10.4323 8.80589 10.5055 9.09565 10.6603 9.32467C10.7086 9.39686 10.7191 9.42076 10.7191 9.46109C10.7191 9.52183 10.6952 9.54672 10.5613 9.62339C10.0997 9.88875 9.76119 10.3567 9.64419 10.8915C9.58196 11.1703 9.57748 11.3077 9.62627 11.4048C9.65664 11.467 9.70393 11.5028 9.78658 11.5277C9.86923 11.5526 13.2308 11.5526 13.3224 11.5287C13.432 11.4994 13.4613 11.471 13.5211 11.3346C13.53 11.3122 13.5266 11.1723 13.5141 11.1155C13.5106 11.0996 13.5017 11.0488 13.4937 11.0025C13.4394 10.6595 13.2717 10.302 13.0302 10.0152C12.9062 9.86834 12.6682 9.67666 12.5134 9.598C12.492 9.58804 12.4571 9.56315 12.4377 9.54373C12.4064 9.51336 12.4004 9.50092 12.4004 9.45461C12.4004 9.40831 12.4084 9.38939 12.4537 9.32467C12.5572 9.17232 12.6175 9.01201 12.6488 8.8034C12.6817 8.58683 12.5891 8.2662 12.4332 8.0566C12.1923 7.73398 11.7502 7.55127 11.3842 7.62445ZM11.7083 8.08598C11.8169 8.10987 11.899 8.15568 11.9936 8.24729C12.138 8.3847 12.1853 8.49771 12.1853 8.70881C12.1853 8.91542 12.13 9.04288 11.9812 9.18029C11.8572 9.2953 11.7497 9.33363 11.5525 9.33363C11.3414 9.33363 11.2389 9.29082 11.091 9.13946C10.975 9.02097 10.9217 8.88107 10.9217 8.69835C10.9227 8.51315 10.9725 8.39366 11.1034 8.26073C11.198 8.16364 11.2886 8.11087 11.4002 8.08697C11.4893 8.06756 11.6202 8.06656 11.7083 8.08598ZM11.8019 9.82304C12.146 9.8793 12.3606 9.99231 12.6145 10.2462C12.8076 10.4404 12.8953 10.5743 12.9799 10.8113C13.0182 10.9149 13.0192 11.0075 12.9844 11.0448L12.9605 11.0707H11.5545H10.15L10.1241 11.0458C10.0893 11.0129 10.0893 10.9388 10.1276 10.8312C10.1436 10.7859 10.159 10.7386 10.164 10.7262C10.1923 10.6301 10.3332 10.4135 10.4492 10.2885C10.6837 10.0336 10.9606 9.88228 11.3001 9.82353C11.4101 9.80511 11.6869 9.80412 11.8019 9.82304Z" fill="#0D152C"/>
<path d="M7.93753 11.1061C7.70602 11.1544 7.60694 11.1942 7.45559 11.2933C7.20069 11.4616 7.0334 11.7324 6.97814 12.0675C6.9408 12.2965 7.03241 12.6325 7.18774 12.8391C7.22259 12.8864 7.23155 12.9079 7.23155 12.9477C7.23155 12.9885 7.22458 13.002 7.19521 13.0313C7.1748 13.0507 7.13546 13.0776 7.10709 13.0911C7.02494 13.1319 6.84869 13.2569 6.7526 13.344C6.38269 13.6756 6.13525 14.1869 6.10637 14.6833C6.09642 14.8685 6.13127 14.9451 6.25324 15.0039L6.311 15.0323H8.06648H9.82196L9.87971 15.0039C10.0017 14.9451 10.0365 14.8685 10.0266 14.6833C9.9982 14.2093 9.78063 13.7368 9.43312 13.3958C9.31911 13.2842 9.14436 13.1533 9.02587 13.0901C8.99749 13.0756 8.95816 13.0483 8.93924 13.0303C8.90787 13.002 8.9019 12.9885 8.9019 12.9482C8.9019 12.9089 8.91086 12.8874 8.94571 12.8396C9.02587 12.7311 9.09457 12.5837 9.1339 12.4314C9.16328 12.3219 9.16328 12.068 9.1349 11.9574C9.08412 11.7633 8.97907 11.5706 8.85161 11.4352C8.63604 11.2042 8.20289 11.0483 7.93753 11.1061ZM8.27409 11.59C8.46129 11.6487 8.63156 11.827 8.68383 12.0221C8.69279 12.055 8.69976 12.1317 8.69976 12.1934C8.69976 12.3931 8.65247 12.5071 8.51456 12.6445C8.38909 12.7699 8.29799 12.8113 8.12423 12.8262C7.9221 12.8431 7.7588 12.7834 7.6164 12.641C7.48347 12.5066 7.43568 12.3906 7.43568 12.1929C7.43568 12.0112 7.4785 11.8937 7.58703 11.7742C7.66619 11.6876 7.75531 11.6253 7.8509 11.5925C7.95446 11.5586 8.16456 11.5561 8.27409 11.59ZM8.29301 13.3096C8.42743 13.33 8.44535 13.3335 8.56833 13.3739C8.97658 13.5103 9.34102 13.8727 9.4854 14.2855C9.53071 14.4164 9.53519 14.4921 9.49785 14.5314L9.47395 14.5573H8.06797H6.66349L6.6376 14.5324C6.61718 14.513 6.61171 14.4961 6.61171 14.4512C6.61171 14.3925 6.61868 14.3646 6.66498 14.2416C6.76654 13.9698 7.00453 13.6855 7.27437 13.5128C7.55318 13.334 7.93554 13.2589 8.29301 13.3096Z" fill="#0D152C"/>
<path d="M3.63494 12.4105C3.5727 12.4409 3.54134 12.4802 3.51296 12.5604C3.49056 12.6226 3.49255 13.6985 3.51396 13.814C3.57718 14.1401 3.7609 14.3736 4.05215 14.4966C4.20549 14.5618 4.26972 14.5698 4.63565 14.5767C4.99013 14.5837 5.0688 14.5767 5.14895 14.5314C5.22214 14.4906 5.28089 14.3666 5.25749 14.3034C5.21666 14.1949 5.1853 14.159 5.10414 14.1287C5.04789 14.1072 5.01602 14.1062 4.66652 14.1062C4.31801 14.1062 4.28515 14.1053 4.22889 14.0838C4.14525 14.0525 4.05066 13.9644 4.00784 13.8787L3.97299 13.81V13.222C3.97299 12.5972 3.9705 12.5634 3.91773 12.4772C3.88835 12.4299 3.79475 12.3801 3.736 12.3801C3.71261 12.3796 3.6673 12.3936 3.63494 12.4105Z" fill="#0D152C"/>
<path d="M12.3003 12.4089C12.2371 12.4402 12.2057 12.4811 12.1799 12.5667C12.1664 12.613 12.1629 12.726 12.1629 13.2154V13.8089L12.1281 13.8776C12.0853 13.9657 11.9927 14.0503 11.909 14.0817C11.8503 14.1041 11.8234 14.1056 11.4689 14.1056C11.1194 14.1056 11.0875 14.1066 11.0313 14.128C10.9705 14.1504 10.9252 14.1902 10.9028 14.241C10.8665 14.3247 10.8645 14.3371 10.8824 14.3864C10.9217 14.5004 10.974 14.5442 11.099 14.5681C11.2025 14.5885 11.802 14.5761 11.9115 14.5522C12.2904 14.4666 12.5468 14.1992 12.621 13.8133C12.6424 13.7003 12.6449 12.6399 12.6235 12.5667C12.6011 12.4875 12.5637 12.4412 12.5005 12.4089C12.4248 12.3715 12.375 12.3715 12.3003 12.4089Z" fill="#0D152C"/>
</svg>
