<svg width="91" height="67" viewBox="0 0 91 67" fill="none" xmlns="http://www.w3.org/2000/svg">
<path d="M35.0861 0.0662801C35.2359 0.068568 35.3858 0.0708559 35.5402 0.0732132C38.478 0.169401 41.236 0.978992 43.4235 3.01923C46.3809 6.19159 46.7381 10.6056 46.6257 14.7287C46.576 15.8084 46.4726 16.882 46.3624 17.957C46.3314 18.2608 46.3314 18.2608 46.2998 18.5707C46.0228 21.0895 45.6325 23.5876 45.2738 26.0978C50.6155 26.0041 50.6155 26.0041 56.0651 25.9085C55.7527 25.0963 55.4403 24.2841 55.1185 23.4473C53.7629 18.6725 54.5571 13.8219 56.7987 9.47311C59.0936 5.4629 62.9655 2.39495 67.4158 1.14845C72.056 -0.0888894 76.8654 0.368738 81.1389 2.58069C85.0135 4.85601 87.9296 8.16148 89.4564 12.4076C89.5016 12.5333 89.5468 12.659 89.5934 12.7886C91.0931 17.2317 90.645 22.3262 88.6229 26.5245C86.4845 30.7102 82.807 33.9973 78.3264 35.4698C74.1573 36.7616 69.8294 36.699 65.7204 35.1851C65.6967 35.2984 65.6731 35.4116 65.6487 35.5283C65.4787 36.1268 65.1245 36.5683 64.7738 37.0783C64.6424 37.3281 64.5134 37.5794 64.3952 37.8356C64.5592 38.0172 64.5592 38.0172 64.7265 38.2024C65.8942 39.7918 66.2284 41.4595 66.0576 43.4235C65.6837 45.4804 64.4003 47.0582 62.7268 48.2482C62.3126 48.4375 62.3126 48.4375 61.7447 48.4375C61.8267 48.6473 61.8267 48.6473 61.9103 48.8613C62.646 50.8715 62.8201 52.6897 61.934 54.6851C61.1968 56.0014 60.1866 57.3958 58.6705 57.8377C58.5604 57.8594 58.4503 57.8811 58.3369 57.9035C58.4284 58.1477 58.4284 58.1477 58.5218 58.3968C58.97 59.8833 58.9107 61.4596 58.1824 62.8406C57.0942 64.6076 55.5824 65.3972 53.6098 65.9224C52.7087 66.1138 51.8343 66.122 50.9162 66.1148C50.6151 66.1158 50.6151 66.1158 50.3079 66.1169C49.6499 66.1184 48.992 66.1158 48.334 66.1131C47.8711 66.113 47.4082 66.1131 46.9453 66.1133C45.9762 66.1133 45.0071 66.1114 44.038 66.1079C42.8069 66.1036 41.5758 66.1035 40.3447 66.1048C39.3883 66.1054 38.4319 66.1042 37.4755 66.1023C37.0222 66.1016 36.569 66.1014 36.1157 66.1017C30.8928 66.1023 26.3163 65.7941 21.6089 63.3938C21.6284 63.6242 21.6479 63.8546 21.668 64.0919C21.7201 64.7061 21.6202 64.8929 21.2474 65.4007C20.4258 66.0386 19.7931 65.9871 18.7798 65.9744C18.4966 65.9765 18.4966 65.9765 18.2076 65.9785C17.5842 65.9817 16.9609 65.9781 16.3375 65.974C15.9039 65.9742 15.4703 65.9746 15.0368 65.9754C14.1283 65.9759 13.22 65.9732 12.3116 65.968C11.1471 65.9615 9.98287 65.9627 8.81844 65.9662C7.92321 65.9682 7.02802 65.9665 6.13279 65.9637C5.70345 65.9627 5.27411 65.9628 4.84477 65.964C4.24469 65.965 3.64483 65.9611 3.04478 65.9559C2.77861 65.9578 2.77861 65.9578 2.50706 65.9597C2.34305 65.9573 2.17904 65.9549 2.01006 65.9524C1.86836 65.9519 1.72667 65.9513 1.58068 65.9508C0.947592 65.8058 0.65349 65.5772 0.215705 65.0977C0.120641 64.5484 0.087561 64.1092 0.095502 63.5599C0.0940253 63.4036 0.0925487 63.2473 0.0910273 63.0863C0.0872469 62.5618 0.090244 62.0376 0.0932199 61.5132C0.0919374 61.1375 0.0902521 60.7619 0.0881934 60.3862C0.083872 59.3653 0.085553 58.3445 0.0885516 57.3235C0.090945 56.2561 0.0887271 55.1887 0.0872401 54.1212C0.085517 52.3285 0.08779 50.5358 0.0922955 48.7431C0.0974473 46.6693 0.09578 44.5955 0.090568 42.5217C0.086275 40.7425 0.0856628 38.9633 0.0881414 37.184C0.0896186 36.1208 0.0898112 35.0576 0.0866883 33.9944C0.0839578 32.9948 0.0858442 31.9954 0.0913219 30.9959C0.0925757 30.6287 0.0922098 30.2614 0.090126 29.8942C0.0875471 29.3936 0.0907723 28.8934 0.095502 28.3929C0.0923346 28.1737 0.0923347 28.1737 0.0891033 27.9502C0.102331 27.2308 0.156015 26.9185 0.65648 26.3861C1.3187 26.0086 1.78301 26.0041 2.54379 26.0058C2.67936 26.0051 2.81493 26.0044 2.9546 26.0036C3.40073 26.0022 3.84663 26.0063 4.29274 26.0105C4.60367 26.011 4.91461 26.0111 5.22554 26.011C5.87629 26.0116 6.52696 26.0148 7.1777 26.0198C8.01146 26.0263 8.84514 26.0277 9.67893 26.0274C10.3206 26.0275 10.9623 26.0296 11.604 26.0324C11.9114 26.0336 12.2189 26.0343 12.5263 26.0346C12.9559 26.0354 13.3854 26.0387 13.815 26.0428C14.0593 26.0442 14.3037 26.0457 14.5554 26.0471C15.1318 26.0945 15.456 26.1545 15.9293 26.4764C16.1141 26.8262 16.1141 26.8262 16.2369 27.2455C16.2784 27.3805 16.3199 27.5154 16.3626 27.6545C16.5519 28.3937 16.7142 29.1385 16.8759 29.8842C18.9916 28.6125 20.9972 27.2502 22.9341 25.7191C23.0518 25.6269 23.1695 25.5346 23.2908 25.4396C29.018 20.9075 31.2185 14.3115 32.1312 7.28253C32.2177 6.5386 32.2896 5.7944 32.3565 5.0485C32.3683 4.91898 32.3801 4.78946 32.3923 4.65601C32.4498 4.02223 32.5027 3.3889 32.5489 2.75415C32.5777 2.41131 32.5777 2.41131 32.6072 2.06153C32.6222 1.85889 32.6372 1.65624 32.6526 1.44745C32.9678 0.12454 33.8845 0.0369335 35.0861 0.0662801ZM35.8079 3.37938C35.7809 3.62609 35.7809 3.62609 35.7534 3.87778C34.7101 13.2794 32.899 21.9086 25.2059 28.1803C22.9744 29.9428 20.6415 31.4766 18.1774 32.8931C17.8633 33.0785 17.558 33.2789 17.2545 33.4812C17.361 36.0769 17.7783 38.6355 18.153 41.2027C18.2241 41.6932 18.295 42.1838 18.366 42.6744C18.5141 43.6975 18.663 44.7205 18.8124 45.7434C18.9848 46.924 19.1556 48.1049 19.3256 49.2859C19.4901 50.4273 19.6558 51.5685 19.8221 52.7096C19.8924 53.1933 19.9624 53.6771 20.032 54.1609C20.1291 54.8353 20.2278 55.5094 20.3268 56.1834C20.3553 56.383 20.3837 56.5825 20.413 56.7881C20.454 57.0639 20.454 57.0639 20.4958 57.3452C20.519 57.5043 20.5421 57.6633 20.5659 57.8272C20.7063 58.4901 20.8481 59.0636 21.372 59.5124C21.5039 59.5886 21.6357 59.6649 21.7716 59.7435C21.9191 59.8296 22.0666 59.9158 22.2186 60.0046C22.3766 60.0922 22.5346 60.1798 22.6974 60.27C22.9405 60.4071 22.9405 60.4071 23.1885 60.5469C25.2165 61.6643 27.2486 62.3775 29.5603 62.6365C29.6938 62.652 29.8272 62.6675 29.9648 62.6834C31.7305 62.8678 33.5018 62.8943 35.2754 62.9323C35.4513 62.9362 35.6272 62.9401 35.8084 62.9441C38.8441 63.0093 41.88 63.04 44.9164 63.0485C45.3791 63.0499 45.8418 63.0519 46.3045 63.0546C51.1371 63.3122 51.1371 63.3122 55.3078 61.3349C55.6412 60.6264 55.5825 59.9393 55.3906 59.1933C54.9635 58.6547 54.3943 58.4207 53.7932 58.0928C53.5006 57.5075 53.5483 57.0337 53.6039 56.389C54.0027 55.8676 54.2523 55.6598 54.8922 55.4949C55.084 55.4736 55.2758 55.4524 55.4735 55.4305C56.9219 55.2231 57.7518 54.8375 58.6668 53.6926C59.2722 52.8466 59.3904 52.1209 59.2835 51.088C58.8198 49.8864 58.1601 49.4648 57.039 48.8657C56.633 48.6268 56.633 48.6268 56.4437 48.2482C56.3925 47.6596 56.3761 47.2496 56.6397 46.7144C57.1752 46.197 57.7575 46.166 58.4671 46.071C60.0022 45.8193 61.1631 45.5627 62.2062 44.3316C62.7556 43.524 62.9561 42.7859 62.8806 41.8113C62.5827 40.8184 62.1803 40.1805 61.366 39.5395C60.8796 39.3323 60.3935 39.1521 59.8907 38.9885C59.3809 38.7368 59.2745 38.5568 59.0942 38.0249C59.0587 37.3623 59.0587 37.3623 59.2835 36.6997C59.6798 36.4507 60.0773 36.3 60.5156 36.1369C61.3774 35.7816 62.2406 35.234 62.7334 34.4278C62.9149 34.0287 62.9149 34.0287 62.8806 33.4812C62.4916 33.1527 62.4916 33.1527 61.9813 32.8305C61.0864 32.2063 60.3112 31.5349 59.5438 30.7598C59.4453 30.6606 59.3468 30.5614 59.2453 30.4592C58.5544 29.7512 58.5544 29.7512 58.3369 29.3162C58.0477 29.3145 58.0477 29.3145 57.7527 29.3128C55.9364 29.302 54.1201 29.2882 52.3038 29.2716C51.3701 29.2631 50.4363 29.2557 49.5025 29.2506C48.6015 29.2457 47.7005 29.2381 46.7995 29.2285C46.4556 29.2254 46.1117 29.2232 45.7678 29.222C45.2864 29.2202 44.8051 29.2149 44.3237 29.2087C44.1813 29.209 44.0389 29.2093 43.8921 29.2096C43.2958 29.1988 42.8731 29.1599 42.3455 28.8711C41.7712 28.2531 41.9672 27.3827 41.9941 26.5884C42.094 24.9187 42.3623 23.2656 42.6115 21.6133C42.7168 20.9027 42.821 20.192 42.9244 19.4812C42.9489 19.3122 42.9735 19.1433 42.9989 18.9692C43.625 14.5956 44.0073 9.83169 41.4039 6.00767C40.1897 4.46591 38.4251 3.70008 36.5119 3.45925C36.2796 3.43289 36.0472 3.40653 35.8079 3.37938ZM62.502 7.54442C62.3729 7.65619 62.2438 7.76796 62.1108 7.88312C59.4884 10.2951 57.8982 13.9362 57.715 17.4645C57.5873 21.7388 58.9523 25.5546 61.872 28.6948C64.4967 31.4084 68.1544 33.0729 71.9349 33.1581C75.744 33.1873 79.3245 32.1244 82.1912 29.5055C82.427 29.2925 82.427 29.2925 82.6675 29.0751C85.5044 26.3826 87.081 22.8488 87.1898 18.9585C87.2367 14.7016 85.9693 11.3219 83.055 8.18337C82.8949 8.03499 82.7348 7.88661 82.5699 7.73374C82.4033 7.56571 82.4033 7.56571 82.2334 7.39429C79.2536 4.52548 75.3952 3.6517 71.3771 3.70699C68.0793 3.81374 64.918 5.33373 62.502 7.54442ZM3.24482 29.3162C3.24482 40.3119 3.24482 51.3076 3.24482 62.6365C8.18039 62.6365 13.116 62.6365 18.2011 62.6365C17.5513 58.1165 17.5513 58.1165 16.9014 53.5965C16.6355 51.7476 16.3696 49.8987 16.1038 48.0498C15.9101 46.702 15.7163 45.3542 15.5224 44.0064C15.4202 43.296 15.3181 42.5856 15.216 41.8751C14.9698 40.1615 14.7227 38.4481 14.4746 36.7348C14.4115 36.2991 14.3486 35.8633 14.2858 35.4276C14.1773 34.6758 14.0682 33.9242 13.9587 33.1726C13.917 32.8858 13.8755 32.599 13.8342 32.3122C13.777 31.9158 13.7192 31.5195 13.6613 31.1232C13.6121 30.7841 13.6121 30.7841 13.5619 30.4382C13.4811 29.8746 13.4811 29.8746 13.2788 29.3162C9.96758 29.3162 6.65637 29.3162 3.24482 29.3162Z" fill="white"/>
</svg>
