<svg width="67" height="67" viewBox="0 0 67 67" fill="none" xmlns="http://www.w3.org/2000/svg">
<g clip-path="url(#clip0_12665_9409)">
<path fill-rule="evenodd" clip-rule="evenodd" d="M33.4494 2.13616C34.1788 2.21432 34.3872 2.44877 35.6116 4.8194C36.3671 6.25219 36.9923 7.52868 37.0444 7.63288C37.0965 7.73708 38.399 8.02364 39.9881 8.2581C41.7856 8.51861 43.0361 8.83122 43.3226 9.09172C43.5832 9.32618 43.7916 9.79509 43.7655 10.1598C43.7655 10.6287 43.1663 11.3842 39.389 14.9792L39.91 18.1053C40.405 21.1272 40.405 21.2574 39.936 21.7003C39.6755 21.9608 39.2587 22.1692 38.9982 22.1432C38.7638 22.1432 37.357 21.544 33.2149 19.4339L30.662 20.7885C29.0989 21.6222 27.8745 22.1171 27.4577 22.065C27.067 22.039 26.6241 21.8045 26.4678 21.57C26.2594 21.2314 26.3115 20.3196 27.1451 14.9792L24.9047 12.7649C23.6804 11.5405 22.6904 10.3422 22.6644 10.0817C22.6644 9.8472 22.8728 9.43038 23.1072 9.16988C23.4459 8.85727 24.3577 8.59676 26.051 8.3623C27.4056 8.17995 28.7603 7.97154 29.0468 7.91944C29.4115 7.84129 29.9065 7.05976 30.7141 5.39251C31.3393 4.08997 32.0166 2.78743 32.2511 2.52693C32.5116 2.21432 32.9544 2.08406 33.4494 2.13616ZM31.1309 10.2901C30.8443 10.4724 29.8544 10.7069 28.9166 10.8111L27.2233 10.9674C30.0367 13.8851 30.193 14.1716 30.0888 14.901C30.0367 15.37 29.8804 16.2557 29.7762 16.8809C29.646 17.5843 29.672 17.975 29.8283 17.975C29.9586 17.975 30.7141 17.6103 31.4435 17.1935C32.199 16.7507 33.0065 16.412 33.2149 16.412C33.4233 16.412 34.3091 16.7507 35.1687 17.1935C36.0284 17.6364 36.7839 17.949 36.836 17.8969C36.9141 17.8708 36.8099 16.9851 36.6536 15.9691L36.341 14.0674L39.4671 10.9934C37.0444 10.7069 36.0805 10.6027 35.7419 10.5245C35.3251 10.4464 34.9082 9.8993 34.257 8.59676C33.762 7.58078 33.2931 6.7732 33.241 6.7732C33.2149 6.7732 32.8242 7.50263 32.4074 8.3623C31.9906 9.24803 31.4174 10.1077 31.1309 10.2901ZM33.267 25.5558C34.8822 25.5298 35.82 25.6861 36.9141 26.0768C37.7478 26.3894 38.9461 27.0147 39.5974 27.4836C40.2487 27.9525 41.0823 28.734 41.447 29.2029C41.8117 29.6979 42.463 30.7399 42.8798 31.5214C43.5832 32.85 43.6353 33.1626 43.6353 35.8198C43.6353 38.4249 43.5571 38.8157 42.9058 40.2485C42.489 41.1081 41.8377 42.2283 41.4209 42.7233C41.0302 43.2182 40.2486 43.9477 39.7016 44.3384C39.1285 44.7292 37.9822 45.3544 37.1226 45.6931C36.2629 46.0317 35.6637 46.3704 35.82 46.4225C35.9763 46.5006 36.5494 46.6569 37.1226 46.7351C37.6957 46.8393 39.1285 47.3864 40.3008 47.9595C41.8117 48.6629 42.9579 49.4704 45.8235 52.2318L47.3866 51.1116C48.3244 50.4864 49.7572 49.783 52.753 48.8973L51.711 48.5587C51.1379 48.3763 50.0958 47.699 49.4185 47.0998C48.6631 46.4485 47.8555 45.3805 47.4647 44.5468C46.8916 43.4006 46.7613 42.7493 46.7613 41.1602C46.7613 39.5711 46.8916 38.9199 47.4647 37.7736C47.8555 36.94 48.6631 35.8719 49.4185 35.2207C50.0958 34.6215 51.19 33.9442 51.8412 33.7358C52.4925 33.5013 53.7169 33.345 54.5766 33.345C55.4363 33.345 56.6606 33.5013 57.3119 33.7358C57.9632 33.9442 59.0573 34.6215 59.7346 35.2207C60.4901 35.8719 61.2977 36.94 61.6884 37.7736C62.2616 38.9199 62.3918 39.5711 62.3918 41.1602C62.3918 42.7493 62.2616 43.4006 61.6884 44.5468C61.2977 45.3805 60.4901 46.4485 59.7346 47.0998C59.0573 47.699 58.0153 48.3503 56.4001 48.8713L58.1455 49.4444C59.1355 49.757 60.5422 50.4083 61.2716 50.8772C62.0271 51.3461 63.1733 52.336 63.7986 53.0394C64.4238 53.7428 65.3095 55.0714 65.7524 56.0092C66.4818 57.5722 66.5599 57.963 66.6381 60.8286C66.6902 63.121 66.612 64.0328 66.3776 64.2933C66.091 64.5538 59.7607 64.632 33.3452 64.632C6.9297 64.632 0.59936 64.5538 0.312801 64.2933C0.0783441 64.0328 0.000191744 63.121 0.0522933 60.8286C0.130446 57.963 0.208598 57.5722 0.93802 56.0092C1.38088 55.0714 2.31871 53.6646 3.04813 52.8831C3.85571 51.9974 5.02799 51.0856 6.14818 50.4864C7.13811 49.9654 8.4667 49.3923 10.2903 48.8973L9.24822 48.5587C8.6751 48.3763 7.63307 47.699 6.95575 47.0998C6.20028 46.4485 5.3927 45.3805 5.00194 44.5468C4.42882 43.4006 4.29857 42.7493 4.29857 41.1602C4.29857 39.5711 4.42882 38.9199 5.00194 37.7736C5.3927 36.94 6.20028 35.8719 6.95575 35.2207C7.63307 34.6215 8.7272 33.9442 9.37847 33.7358C10.0297 33.5013 11.2541 33.345 12.1138 33.345C12.9735 33.345 14.1979 33.5013 14.8491 33.7358C15.5004 33.9442 16.5945 34.6215 17.2719 35.2207C18.0273 35.8719 18.8349 36.94 19.2257 37.7736C19.7988 38.9199 19.929 39.5711 19.929 41.1602C19.929 42.7493 19.7988 43.4006 19.2257 44.5468C18.8349 45.3805 18.0273 46.4485 17.2719 47.0998C16.5945 47.699 15.5525 48.3763 13.9374 48.8973L15.813 49.4444C16.9332 49.783 18.366 50.4864 20.8669 52.2318L22.482 50.6688C23.5501 49.6267 24.8526 48.715 26.3115 47.9855C27.5359 47.3864 28.63 46.8914 28.7863 46.8914C28.9166 46.8914 29.5157 46.7612 31.1309 46.3183L29.5678 45.6931C28.7082 45.3544 27.5359 44.7292 26.9888 44.3384C26.4157 43.9477 25.53 43.0359 25.0089 42.3325C24.4619 41.6031 23.7846 40.3527 23.4719 39.519C23.0812 38.477 22.9249 37.435 22.9249 35.9501C22.9249 34.4652 23.0812 33.4492 23.4719 32.3551C23.7846 31.5475 24.4098 30.3492 24.8787 29.6979C25.3476 29.0466 26.2854 28.1088 26.9888 27.5878C27.6922 27.0928 28.7342 26.4936 29.3073 26.2592C29.8804 26.0247 30.5317 25.7642 30.7401 25.6861C30.9485 25.634 32.0948 25.5558 33.267 25.5558ZM29.5678 29.2811C28.9947 29.6197 28.135 30.3492 27.6401 30.8962C27.1451 31.4693 26.5199 32.4332 26.2333 33.0845C25.8947 33.84 25.7384 34.8559 25.7384 35.9501C25.7384 37.0442 25.8947 38.0602 26.2333 38.8157C26.5199 39.4669 27.1972 40.509 27.7703 41.1081C28.3174 41.7334 29.3594 42.5409 30.0888 42.8796C31.1309 43.4006 31.8082 43.5309 33.3452 43.5309C34.8822 43.5309 35.5595 43.4006 36.6015 42.8796C37.3049 42.5409 38.373 41.7334 38.9201 41.1081C39.4932 40.509 40.1705 39.4669 40.4571 38.8157C40.7957 38.0602 40.952 37.0442 40.952 35.9501C40.952 34.8559 40.7957 33.84 40.4571 33.0845C40.1705 32.4332 39.4932 31.3912 38.9201 30.792C38.373 30.1668 37.3049 29.3853 36.6015 29.0466C35.8721 28.708 34.8301 28.3954 34.257 28.3433C33.6839 28.2912 32.6158 28.3172 31.9124 28.4475C31.183 28.5517 30.1409 28.9424 29.5678 29.2811ZM9.32637 36.9921C8.80536 37.3568 8.10198 38.0341 7.76332 38.5291C7.29441 39.2585 7.16416 39.7795 7.16416 41.1602C7.16416 42.5409 7.29441 43.0619 7.76332 43.7914C8.10198 44.2863 8.80536 44.9636 9.32637 45.3284C9.84739 45.6931 10.681 46.0317 11.202 46.1099C11.697 46.188 12.5306 46.188 13.0256 46.1099C13.5205 46.0317 14.3802 45.667 14.9012 45.3284C15.4223 44.9636 16.1256 44.2863 16.4643 43.7914C16.9332 43.0619 17.0635 42.5409 17.0635 41.1602C17.0635 39.7795 16.9332 39.2585 16.4643 38.5291C16.1256 38.0341 15.4223 37.3568 14.9012 36.9921C14.3802 36.6534 13.5205 36.2887 12.9995 36.2106C12.4785 36.1324 11.6449 36.1324 11.1499 36.2106C10.681 36.2887 9.84739 36.6274 9.32637 36.9921ZM51.7891 36.9921C51.2681 37.3568 50.5648 38.0341 50.2261 38.5291C49.7572 39.2585 49.6269 39.7795 49.6269 41.1602C49.6269 42.5409 49.7572 43.0619 50.2261 43.7914C50.5648 44.2863 51.2681 44.9636 51.7891 45.3284C52.3102 45.6931 53.1438 46.0317 53.6648 46.1099C54.1598 46.188 54.9934 46.188 55.4884 46.1099C55.9833 46.0317 56.843 45.667 57.364 45.3284C57.885 44.9636 58.5884 44.2863 58.9271 43.7914C59.396 43.0619 59.5262 42.5409 59.5262 41.1602C59.5262 39.7795 59.396 39.2585 58.9271 38.5291C58.5884 38.0341 57.885 37.3568 57.364 36.9921C56.843 36.6534 55.9833 36.2887 55.4623 36.2106C54.9413 36.1324 54.1077 36.1324 53.6127 36.2106C53.1438 36.2887 52.3102 36.6274 51.7891 36.9921ZM29.3073 49.757C28.7342 49.9393 27.7443 50.3822 27.093 50.7469C26.4417 51.1116 25.2955 51.9974 24.54 52.7268C23.7585 53.4562 22.8207 54.5764 22.4039 55.2277C21.9871 55.8789 21.466 56.921 21.2316 57.5722C20.9971 58.2235 20.7366 59.4739 20.6324 60.3597L20.4501 62.0009H46.2403C45.9538 59.4739 45.6933 58.2235 45.4588 57.5722C45.2243 56.921 44.7033 55.8789 44.2865 55.2277C43.8697 54.5764 42.9319 53.4562 42.1504 52.7268C41.3949 51.9974 40.2487 51.1116 39.5974 50.7469C38.9461 50.3562 37.7738 49.8872 36.9923 49.6788C36.2108 49.4444 35.0385 49.236 34.3872 49.1839C33.736 49.1318 32.5637 49.1578 31.7821 49.236C31.0006 49.3402 29.8804 49.5746 29.3073 49.757ZM8.25829 52.5965C7.58097 52.8831 6.40868 53.7167 5.65321 54.4201C4.92379 55.1235 4.03806 56.1915 3.72545 56.8168C3.38679 57.442 3.02208 58.6664 2.86578 59.526C2.73552 60.3857 2.60527 61.2975 2.60527 61.5319C2.60527 61.9748 3.12629 62.0009 10.0818 62.0009H17.5845C17.845 59.2655 18.1576 57.7806 18.4702 56.921C18.7828 56.0613 19.0694 55.2016 19.0954 54.9932C19.1215 54.7848 18.6786 54.2638 18.1055 53.7949C17.5324 53.352 16.4122 52.7528 15.6307 52.4402C14.8491 52.1537 13.729 51.8671 13.1558 51.789C12.5827 51.7369 11.5146 51.7629 10.8113 51.8411C10.0818 51.9453 8.96166 52.2839 8.25829 52.5965ZM50.1479 52.857C49.2883 53.2738 48.3244 53.8991 47.9857 54.2377C47.4126 54.8108 47.4126 54.889 47.7513 55.6184C47.9597 56.0613 48.3244 57.1033 48.5588 57.963C48.7933 58.8227 48.9757 60.0731 48.9757 60.7504V62.0009C63.5641 62.0009 64.0851 61.9748 64.0851 61.5319C64.0851 61.2975 63.9549 60.3857 63.8246 59.526C63.6683 58.6664 63.3036 57.442 62.9649 56.8168C62.6523 56.1915 61.7405 55.0714 60.959 54.3419C60.0733 53.5083 58.9792 52.7789 58.0934 52.4402C57.3119 52.1537 56.1396 51.8671 55.4884 51.789C54.8371 51.7369 53.7169 51.7629 53.0135 51.8932C52.2841 51.9974 51.0076 52.4402 50.1479 52.857ZM11.1499 13.859C12.0617 13.9372 12.1659 14.0414 14.0155 17.8448L16.1777 18.1834C17.6887 18.3919 18.4702 18.6524 18.7047 18.965C18.887 19.1994 19.0173 19.6162 19.0173 19.8507C19.0173 20.1112 18.3139 21.049 15.8912 23.576L16.1517 25.0088C16.308 25.7903 16.4122 26.8844 16.4122 27.4054C16.4122 28.213 16.2819 28.4475 15.7349 28.708C15.1357 29.0206 14.8491 28.9424 11.0718 27.0147L9.17007 27.9525C8.15409 28.4996 7.13811 28.9164 6.95575 28.9164C6.79945 28.9424 6.40868 28.6819 6.12213 28.3954C5.62716 27.8743 5.62716 27.718 6.25238 23.4457L4.68933 21.9348C3.82966 21.1272 3.12629 20.2675 3.12629 20.0591C3.10023 19.8507 3.30864 19.4078 3.5952 19.0692C3.95991 18.6003 4.50698 18.3919 8.15409 17.8448L9.17007 15.8128C10.186 13.7809 10.2121 13.7809 11.1499 13.859ZM9.69108 20.4238C9.45663 20.4759 8.93561 20.6062 8.5188 20.6843L7.81543 20.8406C9.30032 22.56 9.35242 22.7684 9.17007 23.7323L8.98771 24.8003C10.7852 23.9146 11.0978 23.8886 11.6709 24.123C12.0617 24.2793 12.5567 24.4877 12.7651 24.5919C13.0777 24.7222 13.1298 24.5398 13.0777 23.5239C12.9995 22.4297 13.1037 22.1692 13.729 21.57L14.4584 20.8667C13.234 20.6062 12.713 20.502 12.5046 20.4499C12.2962 20.3978 11.9314 19.981 11.723 19.512C11.5146 19.0692 11.2541 18.6524 11.176 18.6003C11.0718 18.5482 10.8113 18.9129 10.5768 19.4078C10.3424 19.9028 9.95159 20.3717 9.69108 20.4238ZM55.4363 13.859C56.348 13.9372 56.4522 14.0414 58.3018 17.8448L60.4641 18.1834C61.975 18.3919 62.7565 18.6524 62.991 18.965C63.1733 19.1994 63.3036 19.6162 63.3036 19.8507C63.3036 20.1112 62.6002 21.049 60.1775 23.576L60.438 25.0088C60.5943 25.7903 60.6985 26.8844 60.6985 27.4054C60.6985 28.213 60.5683 28.4475 60.0212 28.708C59.422 29.0206 59.1355 28.9424 55.3581 27.0147L53.4564 27.9525C52.4404 28.4996 51.4244 28.9164 51.2421 28.9164C51.0858 28.9424 50.695 28.6819 50.4085 28.3954C49.9135 27.8743 49.9135 27.718 50.5387 23.4457L48.9757 21.9348C48.116 21.1272 47.4126 20.2675 47.4126 20.0591C47.3866 19.8507 47.595 19.4078 47.8815 19.0692C48.2462 18.6003 48.7933 18.3919 52.4404 17.8448L53.4564 15.8128C54.4724 13.7809 54.4984 13.7809 55.4363 13.859ZM53.9774 20.4238C53.743 20.4759 53.2219 20.6062 52.8051 20.6843L52.1018 20.8406C53.5867 22.56 53.6388 22.7684 53.4564 23.7323L53.274 24.8003C55.0715 23.9146 55.3842 23.8886 55.9573 24.123C56.348 24.2793 56.843 24.4877 57.0514 24.5919C57.364 24.7222 57.4161 24.5398 57.364 23.5239C57.2859 22.4297 57.3901 22.1692 58.0153 21.57L58.7447 20.8667C57.5203 20.6062 56.9993 20.502 56.7909 20.4499C56.5825 20.3978 56.2178 19.981 56.0094 19.512C55.801 19.0692 55.5405 18.6524 55.4623 18.6003C55.3581 18.5482 55.0976 18.9129 54.8631 19.4078C54.6287 19.9028 54.2379 20.3717 53.9774 20.4238ZM33.3191 51.5805C33.7099 51.5805 34.1528 51.7108 34.3351 51.8932C34.5175 52.0755 34.6477 52.5184 34.6477 52.8831C34.6477 53.2478 34.5175 53.6907 34.3351 53.847C34.1528 54.0293 33.736 54.1856 33.3452 54.1856C32.9805 54.1856 32.5376 54.0554 32.3553 53.873C32.1729 53.6907 32.0166 53.2478 31.9906 52.857C31.9645 52.4923 32.0948 52.0755 32.3032 51.8932C32.5116 51.7108 32.9544 51.5805 33.3191 51.5805ZM38.4251 52.8831C38.5553 52.857 39.2066 53.2478 39.8579 53.7428C40.5092 54.2117 41.473 55.2798 41.9941 56.0873C42.5411 56.8949 42.984 57.7546 42.984 57.963C42.984 58.1714 42.8537 58.5882 42.7235 58.8748C42.5411 59.2395 42.2025 59.3958 41.5512 59.3958C40.7436 59.3958 40.5613 59.2655 39.9881 58.2235C39.6234 57.5722 38.8159 56.6083 38.1646 56.0613C37.331 55.384 36.9662 54.889 36.9662 54.394C36.9402 53.9251 37.1226 53.5604 37.5394 53.2738C37.878 53.0654 38.2688 52.8831 38.4251 52.8831Z" fill="white"/>
</g>
<defs>
<clipPath id="clip0_12665_9409">
<rect width="66.69" height="66.69" fill="white"/>
</clipPath>
</defs>
</svg>
