<svg width="53" height="53" viewBox="0 0 53 53" fill="none" xmlns="http://www.w3.org/2000/svg">
<g clip-path="url(#clip0_10642_5021)">
<path d="M26.8658 0.112673C26.9684 0.112896 27.0709 0.113118 27.1765 0.113347C28.6681 0.118536 30.1309 0.148323 31.5961 0.454234C31.6985 0.475269 31.8008 0.496303 31.9062 0.517975C35.4868 1.2751 38.9197 2.6508 41.9074 4.78497C41.974 4.83199 42.0405 4.87901 42.1091 4.92745C43.1144 5.64217 44.0321 6.42152 44.9153 7.28213C45.1031 7.46508 45.2924 7.64633 45.4817 7.8276C46.2391 8.56042 46.9165 9.32542 47.5454 10.1709C47.6816 10.3529 47.8207 10.5323 47.9605 10.7115C50.662 14.2235 52.2766 18.5615 52.8374 22.9328C52.8464 23.0019 52.8554 23.0709 52.8647 23.1421C52.9353 23.7238 52.9585 24.2974 52.9614 24.8831C52.9622 24.9784 52.9629 25.0737 52.9636 25.1718C52.987 29.129 52.987 29.129 52.6311 30.8725C52.6107 30.9771 52.5902 31.0816 52.5691 31.1893C51.656 35.7545 49.6196 40.0895 46.4528 43.528C46.2563 43.7419 46.0662 43.9598 45.8773 44.1805C45.223 44.9278 44.5191 45.5909 43.7433 46.2109C43.5549 46.3618 43.3685 46.515 43.1842 46.6709C41.9363 47.7245 40.5605 48.5615 39.1234 49.3297C39.0579 49.365 38.9925 49.4004 38.925 49.4368C32.7971 52.7191 25.5648 53.105 18.9648 51.1664C18.0062 50.8756 17.0939 50.5001 16.1844 50.0812C16.0916 50.0387 15.9989 49.9962 15.9033 49.9524C15.7817 49.8953 15.7817 49.8953 15.6577 49.837C14.9996 49.5875 14.5273 49.6706 13.8713 49.8525C13.781 49.8765 13.6907 49.9004 13.5976 49.9251C13.2989 50.0047 13.0006 50.0861 12.7023 50.1675C12.4924 50.2238 12.2824 50.28 12.0723 50.3361C11.5177 50.4846 10.9635 50.6346 10.4094 50.7848C9.85552 50.9348 9.30124 51.0834 8.74699 51.232C8.3168 51.3476 7.88664 51.4632 7.45647 51.5788C7.29878 51.6212 7.29878 51.6212 7.1379 51.6644C6.16746 51.9254 5.19723 52.1864 4.23077 52.4617C4.10784 52.4963 3.9849 52.5309 3.85824 52.5665C3.64637 52.6264 3.43484 52.6875 3.22382 52.7502C2.44172 52.97 1.5737 53.1224 0.816975 52.7711C0.362105 52.3389 0.122775 52.0317 0.104248 51.3939C0.119084 50.4401 0.407133 49.5411 0.659083 48.628C0.712727 48.4292 0.766232 48.2303 0.819606 48.0314C0.960321 47.5084 1.10287 46.9859 1.24584 46.4636C1.38806 45.9428 1.5286 45.4215 1.66927 44.9003C2.51858 41.7569 2.51858 41.7569 2.82597 40.6539C2.90665 40.3639 2.98643 40.0736 3.06604 39.7833C3.11902 39.5915 3.17335 39.4001 3.22773 39.2087C3.27404 39.0393 3.27404 39.0393 3.32129 38.8665C3.34818 38.7704 3.37508 38.6743 3.40279 38.5753C3.48185 38.0695 3.35168 37.6475 3.13661 37.193C3.09463 37.1018 3.05265 37.0107 3.00941 36.9167C2.96432 36.8192 2.91924 36.7216 2.87279 36.621C1.91741 34.4786 1.33167 32.259 0.971644 29.9445C0.951332 29.8144 0.951332 29.8144 0.93061 29.6817C-0.0496771 23.0094 1.85888 16.0644 5.81795 10.6624C6.08309 10.3097 6.35872 9.9688 6.64285 9.63127C6.68704 9.57792 6.73124 9.52457 6.77677 9.4696C7.86117 8.16162 9.01 6.96276 10.3549 5.91921C10.4866 5.81425 10.6184 5.70926 10.75 5.60423C11.7732 4.79638 12.8329 4.0919 13.9639 3.4445C14.0334 3.40415 14.1029 3.36379 14.1746 3.32221C16.4779 1.9969 19.0231 1.13732 21.6135 0.583125C21.7089 0.562614 21.8043 0.542103 21.9026 0.520971C23.5563 0.185154 25.1827 0.106106 26.8658 0.112673ZM16.0261 6.22855C15.9644 6.26148 15.9027 6.29441 15.8391 6.32834C14.4206 7.08998 13.1584 8.02719 11.9497 9.0865C11.8116 9.20735 11.6722 9.32675 11.5326 9.44599C9.68413 11.056 8.27942 12.9862 7.0553 15.0962C7.01813 15.1587 6.98096 15.2212 6.94267 15.2855C4.04958 20.1682 3.48369 26.4514 4.8347 31.891C5.17734 33.1937 5.60267 34.4715 6.20301 35.6793C6.25036 35.7746 6.29771 35.8699 6.3465 35.968C6.43755 36.1475 6.53101 36.3257 6.62744 36.5023C7.3392 37.8817 6.78215 39.2967 6.39191 40.696C6.33422 40.9075 6.27667 41.119 6.21927 41.3305C6.0686 41.8844 5.91614 42.4378 5.76322 42.9911C5.51839 43.8781 5.27641 44.7659 5.03423 45.6537C4.94969 45.9627 4.86445 46.2715 4.77908 46.5802C4.72694 46.7701 4.67482 46.9599 4.62271 47.1497C4.59897 47.2349 4.57524 47.32 4.55079 47.4077C4.42279 47.8761 4.3288 48.3318 4.27125 48.8141C5.35013 48.6533 6.39389 48.3563 7.44519 48.0726C7.64164 48.0199 7.83809 47.9673 8.03456 47.9147C8.44403 47.805 8.85343 47.695 9.26276 47.5847C9.78772 47.4434 10.3128 47.3025 10.8379 47.1617C11.3397 47.0273 11.8414 46.8926 12.3431 46.7579C12.4387 46.7322 12.5343 46.7066 12.6329 46.6801C12.9026 46.6077 13.1724 46.5351 13.442 46.4624C13.5621 46.4302 13.5621 46.4302 13.6845 46.3973C13.9867 46.3158 14.2856 46.2322 14.5825 46.1332C15.5591 45.9319 16.2723 46.3126 17.1193 46.7386C22.4632 49.418 28.6848 49.5216 34.3093 47.6992C38.7066 46.1968 42.5835 43.2873 45.3101 39.534C45.3903 39.4248 45.4704 39.3157 45.553 39.2033C47.3981 36.6094 48.6282 33.5772 49.2284 30.46C49.2452 30.3773 49.2619 30.2946 49.2791 30.2093C49.957 26.7313 49.6616 22.8966 48.6098 19.5301C48.5844 19.4482 48.559 19.3664 48.5329 19.282C47.7043 16.6572 46.4141 14.2533 44.6915 12.106C44.6085 12.002 44.5256 11.8981 44.4401 11.791C43.2736 10.3578 41.9591 9.0679 40.4638 7.98147C40.3562 7.90251 40.2485 7.82356 40.1376 7.74221C36.6478 5.25696 32.3399 3.56697 28.0166 3.52305C27.8921 3.52153 27.8921 3.52153 27.7651 3.51999C23.595 3.47973 19.7246 4.22909 16.0261 6.22855Z" fill="white"/>
<path d="M17.5197 16.4795C17.665 16.4789 17.8103 16.4782 17.9557 16.4773C18.3462 16.4754 18.7367 16.4761 19.1272 16.4774C19.5384 16.4785 19.9497 16.4775 20.3609 16.4769C21.0512 16.4761 21.7414 16.4771 22.4317 16.4791C23.2265 16.4813 24.0212 16.4806 24.816 16.4783C25.5019 16.4764 26.1877 16.4762 26.8736 16.4772C27.2817 16.4779 27.6898 16.478 28.098 16.4766C28.4819 16.4754 28.8658 16.4763 29.2497 16.4786C29.4554 16.4794 29.6612 16.4782 29.8669 16.4769C31.3421 16.4906 32.5253 16.899 33.6163 17.8926C34.1202 18.4201 34.5766 19.093 34.5766 19.8324C34.6535 19.7872 34.7304 19.742 34.8096 19.6954C35.0983 19.5259 35.3874 19.3571 35.6767 19.1886C35.8012 19.1159 35.9256 19.043 36.0499 18.9699C38.0806 17.7752 38.0806 17.7752 39.1208 18.0284C39.7792 18.2474 40.2653 18.5954 40.5893 19.2202C40.8024 19.6742 40.8793 20.0691 40.8809 20.5706C40.8815 20.6782 40.8821 20.7857 40.8827 20.8965C40.8828 21.0139 40.883 21.1313 40.8831 21.2523C40.8836 21.3764 40.8841 21.5005 40.8846 21.6284C40.8859 21.9687 40.8866 22.3089 40.8871 22.6492C40.8874 22.8622 40.8878 23.0751 40.8883 23.288C40.8897 23.9553 40.8907 24.6226 40.8911 25.2899C40.8916 26.0582 40.8934 26.8265 40.8964 27.5948C40.8986 28.1898 40.8996 28.7849 40.8998 29.3799C40.8999 29.7347 40.9005 30.0895 40.9023 30.4443C40.9041 30.8409 40.9039 31.2375 40.9032 31.6341C40.9042 31.7502 40.9051 31.8664 40.9061 31.9861C40.9018 32.8 40.8339 33.6368 40.3251 34.3069C39.7349 34.8703 39.1346 35.1363 38.3135 35.1213C37.3864 35.0081 36.5321 34.4009 35.7495 33.9331C35.6361 33.8661 35.5227 33.7991 35.4059 33.7301C35.1291 33.5664 34.8527 33.4021 34.5766 33.2371C34.562 33.3339 34.5474 33.4307 34.5323 33.5304C34.3752 34.3992 33.7124 35.18 33.0299 35.7118C31.8661 36.4176 30.8672 36.5676 29.529 36.565C29.3844 36.5655 29.2398 36.566 29.0953 36.5666C28.7045 36.568 28.3138 36.5681 27.9231 36.5678C27.5959 36.5677 27.2687 36.5682 26.9415 36.5687C26.1689 36.5698 25.3964 36.5699 24.6239 36.5693C23.8293 36.5686 23.0347 36.5699 22.2401 36.5721C21.5558 36.5739 20.8715 36.5745 20.1872 36.5742C19.7795 36.574 19.3717 36.5743 18.9639 36.5757C18.5801 36.577 18.1963 36.5768 17.8125 36.5755C17.6062 36.5751 17.3999 36.5763 17.1937 36.5775C15.7305 36.569 14.5128 36.1981 13.4232 35.1974C12.3697 34.0529 12.1855 32.6729 12.1861 31.185C12.1858 31.0741 12.1854 30.9632 12.1851 30.8489C12.1841 30.4833 12.1839 30.1178 12.1838 29.7522C12.1835 29.497 12.1831 29.2419 12.1828 28.9867C12.1821 28.4521 12.182 27.9174 12.182 27.3828C12.182 26.6997 12.1806 26.0166 12.1788 25.3335C12.1777 24.8064 12.1775 24.2794 12.1775 23.7523C12.1774 23.5006 12.177 23.2488 12.1762 22.9971C12.1751 22.644 12.1755 22.291 12.1761 21.9379C12.1755 21.8351 12.1749 21.7323 12.1743 21.6264C12.1808 20.1593 12.5152 18.8329 13.5525 17.7436C14.6894 16.6981 16.0152 16.47 17.5197 16.4795ZM15.9132 20.2449C15.5298 20.7857 15.5593 21.3264 15.5622 21.9635C15.5615 22.0731 15.5608 22.1827 15.56 22.2955C15.5581 22.657 15.5585 23.0183 15.5591 23.3798C15.5587 23.6314 15.5581 23.8831 15.5575 24.1348C15.5566 24.6621 15.5568 25.1893 15.5578 25.7166C15.559 26.3918 15.5569 27.0669 15.5539 27.7421C15.552 28.2618 15.5521 28.7815 15.5527 29.3012C15.5527 29.5501 15.5521 29.7991 15.5508 30.048C15.5492 30.3962 15.5503 30.7444 15.5521 31.0926C15.5511 31.1951 15.5501 31.2976 15.5491 31.4032C15.5558 32.0326 15.6341 32.4196 16.0163 32.9278C16.348 33.1448 16.6196 33.1601 17.0112 33.1609C17.1892 33.162 17.1892 33.162 17.3708 33.1631C17.5655 33.1627 17.5655 33.1627 17.7641 33.1623C17.9025 33.1628 18.0409 33.1633 18.1793 33.1639C18.5549 33.1653 18.9305 33.1653 19.3061 33.1651C19.6198 33.165 19.9334 33.1655 20.2471 33.166C20.987 33.1671 21.727 33.1672 22.467 33.1665C23.2302 33.1659 23.9934 33.1672 24.7566 33.1694C25.412 33.1712 26.0675 33.1718 26.723 33.1715C27.1144 33.1713 27.5057 33.1716 27.8971 33.173C28.2652 33.1743 28.6333 33.1741 29.0013 33.1727C29.2006 33.1724 29.3999 33.1735 29.5991 33.1748C29.7776 33.1737 29.7776 33.1737 29.9597 33.1726C30.0628 33.1726 30.166 33.1726 30.2723 33.1726C30.7008 33.1141 30.9607 32.941 31.2551 32.6298C31.4028 32.3726 31.4194 32.2159 31.4208 31.9205C31.4225 31.7726 31.4225 31.7726 31.4243 31.6218C31.424 31.5143 31.4237 31.4068 31.4234 31.2961C31.4243 31.1824 31.4251 31.0687 31.426 30.9515C31.4284 30.5751 31.4286 30.1987 31.4284 29.8223C31.4292 29.5608 31.4299 29.2993 31.4308 29.0379C31.4322 28.4895 31.4324 27.9412 31.4317 27.3928C31.4311 26.7598 31.4334 26.1268 31.4372 25.4937C31.4408 24.8839 31.4415 24.2741 31.441 23.6643C31.4412 23.4053 31.4422 23.1462 31.4441 22.8871C31.4463 22.5247 31.4453 22.1625 31.4435 21.8001C31.4449 21.693 31.4463 21.586 31.4477 21.4757C31.4422 21.006 31.436 20.6608 31.1377 20.283C30.7526 19.9386 30.4836 19.9226 29.9852 19.9211C29.8666 19.9205 29.7481 19.9199 29.6259 19.9193C29.4958 19.9192 29.3656 19.9191 29.2315 19.9189C29.0931 19.9185 28.9547 19.9179 28.8163 19.9174C28.4403 19.916 28.0643 19.9154 27.6883 19.9149C27.4533 19.9146 27.2184 19.9142 26.9835 19.9137C26.2484 19.9123 25.5134 19.9113 24.7783 19.9109C23.9298 19.9105 23.0814 19.9086 22.2329 19.9057C21.577 19.9034 20.9211 19.9024 20.2652 19.9023C19.8734 19.9021 19.4817 19.9015 19.09 19.8997C18.7215 19.898 18.353 19.8978 17.9845 19.8987C17.785 19.8988 17.5854 19.8974 17.3859 19.8959C17.2668 19.8965 17.1477 19.8971 17.025 19.8977C16.9217 19.8975 16.8184 19.8974 16.7119 19.8972C16.377 19.9426 16.1852 20.0473 15.9132 20.2449ZM36.7867 22.5198C36.63 22.6077 36.63 22.6077 36.4702 22.6974C36.2698 22.8105 36.2698 22.8105 36.0653 22.9258C35.4305 23.2831 35.4305 23.2831 34.7828 23.6476C34.7828 25.5531 34.7828 27.4587 34.7828 29.4219C36.113 30.1632 36.113 30.1632 37.4637 30.8655C37.4637 28.0072 37.4637 25.1489 37.4637 22.204C37.235 22.204 36.9761 22.4132 36.7867 22.5198Z" fill="white"/>
</g>
<defs>
<clipPath id="clip0_10642_5021">
<rect width="52.7937" height="52.7937" fill="white" transform="translate(0.136963 0.137207)"/>
</clipPath>
</defs>
</svg>
