<svg width="21" height="21" viewBox="0 0 21 21" fill="none" xmlns="http://www.w3.org/2000/svg">
<rect x="0.641296" y="0.486938" width="19.8178" height="19.573" rx="5.15899" fill="white"/>
<path d="M8.63729 5.76636C7.38519 6.11706 6.28762 6.44357 6.20045 6.48791C5.95875 6.6169 5.70912 6.89504 5.57044 7.18527L5.4476 7.44728L5.43572 10.7124C5.41987 14.2032 5.42383 14.2476 5.61799 14.6144C5.75667 14.8804 6.0895 15.1787 6.37083 15.2956L6.59668 15.3883L10.4402 15.4004C13.2534 15.4085 14.3431 15.4004 14.5016 15.3682C14.985 15.2634 15.3574 14.9651 15.5674 14.5217L15.6705 14.3V12.1434V9.9868L15.5595 9.74091C15.4961 9.60386 15.3654 9.41037 15.2623 9.3096C15.0484 9.09595 14.8819 9.01533 13.1663 8.2696L12.0092 7.76976L11.9974 6.75395L11.9855 5.74218L11.8666 5.56884C11.6724 5.29071 11.4664 5.16575 11.1692 5.14559C10.9394 5.12947 10.6977 5.18993 8.63729 5.76636ZM11.2049 10.2811L11.2128 14.6063L10.8285 14.5942L10.4402 14.5821L10.4203 13.5462L10.4005 12.5142L10.2817 12.3409C10.2143 12.2442 10.0717 12.1111 9.96468 12.0426L9.77449 11.9217H8.74031C7.75369 11.9217 7.69822 11.9257 7.54765 12.0104C7.46048 12.0587 7.33368 12.1555 7.26236 12.2321C7.03651 12.4699 7.01273 12.611 7.01273 13.659V14.6023H6.91367C6.6482 14.6023 6.32725 14.3644 6.25989 14.1226C6.23611 14.0339 6.22026 12.7762 6.22026 10.8212C6.22026 7.37876 6.21234 7.51984 6.45008 7.29007C6.55706 7.1893 6.83839 7.10062 8.7839 6.55643C10.0003 6.21783 11.0385 5.94373 11.0939 5.94776L11.193 5.95582L11.2049 10.2811ZM13.4317 9.26122C14.0736 9.53936 14.6442 9.80944 14.6957 9.85781C14.8978 10.0473 14.8978 10.0674 14.8978 12.1434C14.8978 13.9936 14.8938 14.0903 14.8186 14.2355C14.775 14.3241 14.6759 14.437 14.5927 14.4854C14.4461 14.5821 14.4223 14.5821 13.2257 14.5942L12.0053 14.6063V11.6234V8.64045L12.136 8.69689C12.2034 8.7251 12.7898 8.97906 13.4317 9.26122ZM9.57637 12.74C9.61203 12.7641 9.62788 13.0141 9.62788 13.6752L9.63184 14.5821L8.7205 14.5942L7.8052 14.6023V13.7034C7.8052 13.0584 7.81709 12.7924 7.85275 12.7561C7.90822 12.6997 9.49316 12.6876 9.57637 12.74Z" fill="#0D152C"/>
<path d="M7.7735 8.21313C7.62293 8.28166 7.51199 8.49933 7.55161 8.65654C7.5635 8.70894 7.61897 8.80165 7.67444 8.85809L7.77747 8.95886H8.72447H9.67543L9.79034 8.84196C9.94883 8.68072 9.94883 8.48321 9.79034 8.30584L9.67543 8.17282L8.78786 8.16476C8.08653 8.1567 7.87652 8.16476 7.7735 8.21313Z" fill="#0D152C"/>
<path d="M7.77747 9.80528C7.72596 9.82543 7.65068 9.90202 7.60709 9.97458C7.50011 10.1479 7.52784 10.3132 7.68634 10.4583L7.80521 10.5712H8.73636C9.63977 10.5712 9.66751 10.5671 9.76657 10.4785C9.83393 10.422 9.87751 10.3333 9.89336 10.2245C9.91317 10.0794 9.89733 10.0391 9.7943 9.92218L9.67543 9.78513L8.76806 9.77706C8.27276 9.77303 7.82502 9.78513 7.77747 9.80528Z" fill="#0D152C"/>
<path d="M12.984 10.8978C12.8968 10.9502 12.7978 11.1437 12.7978 11.2727C12.7978 11.3291 12.8493 11.4339 12.9127 11.5065C13.0197 11.6274 13.0474 11.6395 13.3287 11.6516C13.4952 11.6597 13.6933 11.6556 13.7725 11.6395C14.0974 11.5791 14.2203 11.2042 13.9905 10.9704C13.8755 10.8575 13.8637 10.8535 13.4635 10.8535C13.2376 10.8535 13.0236 10.8736 12.984 10.8978Z" fill="#0D152C"/>
<path d="M12.9365 12.5625C12.7502 12.752 12.7661 13.014 12.9721 13.1672C13.0632 13.2397 13.1385 13.2518 13.4793 13.2518H13.8755L13.9904 13.1188C14.1489 12.9414 14.1489 12.7439 13.9904 12.5827C13.8755 12.4698 13.8636 12.4658 13.4516 12.4658C13.0593 12.4658 13.0236 12.4739 12.9365 12.5625Z" fill="#0D152C"/>
</svg>
