<svg width="67" height="71" viewBox="0 0 67 71" fill="none" xmlns="http://www.w3.org/2000/svg">
<path fill-rule="evenodd" clip-rule="evenodd" d="M19.4677 2C21.2217 2 22.6436 3.42192 22.6436 5.17594V8.35188H44.8752V5.17594C44.8752 3.42192 46.2971 2 48.0511 2C49.8052 2 51.2271 3.42192 51.2271 5.17594V8.43029C59.2516 9.22701 65.5188 15.9974 65.5188 24.2316V52.815C65.5188 61.5852 58.4092 68.6947 49.6391 68.6947H17.8797C9.10958 68.6947 2 61.5852 2 52.815V24.2316C2 15.9974 8.26721 9.22701 16.2917 8.43029V5.17594C16.2917 3.42192 17.7136 2 19.4677 2ZM8.89403 21.0556H58.6248C57.3168 17.3551 53.7876 14.7038 49.6391 14.7038H17.8797C13.7312 14.7038 10.202 17.3551 8.89403 21.0556ZM59.1669 27.4075H8.35188V52.815C8.35188 58.0771 12.6176 62.3429 17.8797 62.3429H49.6391C54.9012 62.3429 59.1669 58.0771 59.1669 52.815V27.4075Z" fill="white" stroke="#0D1329" stroke-width="2.69672" stroke-linecap="round" stroke-linejoin="round"/>
</svg>
