<svg width="21" height="20" viewBox="0 0 21 20" fill="none" xmlns="http://www.w3.org/2000/svg">
<g clip-path="url(#clip0_12424_7938)">
<rect x="0.523499" y="0.308594" width="19.8178" height="19.573" rx="5.24163" fill="white"/>
<g clip-path="url(#clip1_12424_7938)">
<path d="M10.868 4.21237C10.8918 4.21242 10.9155 4.21247 10.94 4.21252C11.2855 4.21372 11.6243 4.22062 11.9636 4.29148C11.9873 4.29635 12.011 4.30122 12.0355 4.30624C12.8648 4.4816 13.6599 4.80024 14.3519 5.29454C14.3673 5.30544 14.3827 5.31633 14.3986 5.32755C14.6315 5.49309 14.844 5.6736 15.0486 5.87293C15.0921 5.9153 15.1359 5.95728 15.1798 5.99927C15.3552 6.169 15.5121 6.34619 15.6577 6.54201C15.6893 6.58416 15.7215 6.62571 15.7539 6.66723C16.3796 7.48066 16.7536 8.48541 16.8835 9.49788C16.8855 9.51387 16.8876 9.52987 16.8898 9.54635C16.9061 9.68108 16.9115 9.81394 16.9122 9.94959C16.9124 9.97166 16.9125 9.99373 16.9127 10.0165C16.9181 10.933 16.9181 10.933 16.8357 11.3368C16.8309 11.3611 16.8262 11.3853 16.8213 11.4102C16.6098 12.4676 16.1382 13.4716 15.4047 14.268C15.3592 14.3176 15.3151 14.3681 15.2714 14.4192C15.1198 14.5923 14.9568 14.7459 14.7771 14.8895C14.7335 14.9244 14.6903 14.9599 14.6476 14.996C14.3586 15.24 14.0399 15.4339 13.7071 15.6118C13.6919 15.62 13.6767 15.6282 13.6611 15.6366C12.2418 16.3969 10.5667 16.4862 9.03803 16.0372C8.81598 15.9699 8.60469 15.8829 8.39404 15.7859C8.37255 15.776 8.35106 15.7662 8.32892 15.756C8.30077 15.7428 8.30077 15.7428 8.27205 15.7293C8.11962 15.6715 8.01024 15.6908 7.85829 15.7329C7.83737 15.7385 7.81645 15.744 7.7949 15.7497C7.7257 15.7682 7.65662 15.787 7.58754 15.8059C7.5389 15.8189 7.49026 15.8319 7.44161 15.8449C7.31316 15.8793 7.1848 15.914 7.05646 15.9489C6.92817 15.9836 6.79979 16.018 6.67141 16.0524C6.57178 16.0792 6.47214 16.106 6.37251 16.1328C6.33598 16.1426 6.33598 16.1426 6.29872 16.1526C6.07395 16.213 5.84923 16.2735 5.62539 16.3372C5.59691 16.3453 5.56844 16.3533 5.5391 16.3615C5.49003 16.3754 5.44104 16.3895 5.39216 16.4041C5.21101 16.455 5.00997 16.4903 4.8347 16.4089C4.72934 16.3088 4.67391 16.2376 4.66962 16.0899C4.67305 15.869 4.73977 15.6608 4.79813 15.4493C4.81055 15.4032 4.82294 15.3572 4.8353 15.3111C4.8679 15.19 4.90091 15.069 4.93403 14.948C4.96697 14.8273 4.99952 14.7066 5.0321 14.5859C5.22881 13.8578 5.22881 13.8578 5.30001 13.6024C5.3187 13.5352 5.33718 13.468 5.35561 13.4007C5.36789 13.3563 5.38047 13.312 5.39306 13.2676C5.40379 13.2284 5.40379 13.2284 5.41473 13.1884C5.42096 13.1661 5.42719 13.1439 5.43361 13.1209C5.45192 13.0038 5.42177 12.906 5.37196 12.8008C5.36224 12.7796 5.35251 12.7585 5.3425 12.7368C5.33206 12.7142 5.32161 12.6916 5.31085 12.6683C5.08957 12.1721 4.95391 11.658 4.87052 11.1219C4.86581 11.0918 4.86581 11.0918 4.86102 11.061C4.63397 9.51562 5.07602 7.90704 5.993 6.65585C6.05441 6.57416 6.11825 6.4952 6.18406 6.41703C6.1943 6.40467 6.20453 6.39231 6.21508 6.37958C6.46624 6.07663 6.73233 5.79896 7.04383 5.55725C7.07435 5.53294 7.10485 5.50862 7.13535 5.4843C7.37233 5.29719 7.61777 5.13402 7.87972 4.98407C7.89583 4.97472 7.91193 4.96538 7.92853 4.95575C8.46202 4.64878 9.05153 4.44969 9.65151 4.32133C9.6736 4.31658 9.69569 4.31183 9.71845 4.30693C10.1015 4.22915 10.4782 4.21084 10.868 4.21237ZM8.35737 5.6289C8.34308 5.63653 8.32878 5.64416 8.31405 5.65201C7.9855 5.82842 7.69317 6.04549 7.41322 6.29085C7.38122 6.31884 7.34894 6.34649 7.31662 6.37411C6.88847 6.74701 6.56312 7.19408 6.27959 7.6828C6.27098 7.69727 6.26237 7.71173 6.2535 7.72664C5.58342 8.85755 5.45235 10.3128 5.76526 11.5727C5.84463 11.8745 5.94314 12.1704 6.08219 12.4502C6.09315 12.4722 6.10412 12.4943 6.11542 12.517C6.13651 12.5586 6.15816 12.5999 6.18049 12.6408C6.34535 12.9603 6.21633 13.288 6.12594 13.6121C6.11258 13.6611 6.09925 13.7101 6.08595 13.7591C6.05106 13.8874 6.01574 14.0155 5.98032 14.1437C5.92362 14.3491 5.86757 14.5548 5.81148 14.7604C5.7919 14.832 5.77215 14.9035 5.75238 14.975C5.74031 15.019 5.72823 15.0629 5.71616 15.1069C5.71067 15.1266 5.70517 15.1463 5.69951 15.1667C5.66986 15.2751 5.64809 15.3807 5.63476 15.4924C5.88465 15.4552 6.1264 15.3864 6.3699 15.3207C6.4154 15.3085 6.4609 15.2963 6.5064 15.2841C6.60124 15.2587 6.69607 15.2332 6.79087 15.2077C6.91246 15.1749 7.03408 15.1423 7.15571 15.1097C7.27192 15.0785 7.38812 15.0473 7.50432 15.0161C7.52647 15.0102 7.54863 15.0043 7.57145 14.9981C7.63393 14.9814 7.6964 14.9645 7.75886 14.9477C7.78667 14.9403 7.78667 14.9403 7.81503 14.9326C7.88501 14.9138 7.95424 14.8944 8.02302 14.8715C8.2492 14.8248 8.41439 14.913 8.61058 15.0117C9.84831 15.6323 11.2893 15.6563 12.5921 15.2342C13.6105 14.8862 14.5085 14.2123 15.14 13.343C15.1586 13.3177 15.1772 13.2924 15.1963 13.2664C15.6236 12.6656 15.9085 11.9633 16.0476 11.2413C16.0514 11.2221 16.0553 11.203 16.0593 11.1832C16.2163 10.3777 16.1479 9.48948 15.9043 8.70975C15.8984 8.69079 15.8925 8.67183 15.8865 8.6523C15.6945 8.04435 15.3957 7.48755 14.9967 6.99021C14.9775 6.96613 14.9583 6.94206 14.9385 6.91725C14.6683 6.58529 14.3639 6.28654 14.0175 6.0349C13.9926 6.01662 13.9677 5.99833 13.942 5.97949C13.1337 5.40387 12.1359 5.01244 11.1346 5.00226C11.1057 5.00191 11.1057 5.00191 11.0763 5.00155C10.1104 4.99223 9.21401 5.16579 8.35737 5.6289Z" fill="#0D152C"/>
<path d="M8.70545 8.00481C8.73911 8.00468 8.77277 8.00451 8.80643 8.00431C8.89688 8.00387 8.98732 8.00404 9.07777 8.00434C9.17302 8.00459 9.26828 8.00436 9.36353 8.00421C9.5234 8.00404 9.68327 8.00426 9.84315 8.00472C10.0272 8.00524 10.2113 8.00507 10.3954 8.00455C10.5543 8.00411 10.7131 8.00405 10.872 8.0043C10.9665 8.00445 11.061 8.00447 11.1555 8.00415C11.2445 8.00387 11.3334 8.00407 11.4223 8.00462C11.47 8.00481 11.5176 8.00453 11.5653 8.00423C11.9069 8.00739 12.181 8.10199 12.4337 8.33213C12.5504 8.45429 12.6561 8.61015 12.6561 8.78142C12.6739 8.77094 12.6917 8.76046 12.7101 8.74967C12.7769 8.71042 12.8439 8.67132 12.9109 8.6323C12.9397 8.61546 12.9686 8.59858 12.9973 8.58164C13.4677 8.30493 13.4677 8.30493 13.7086 8.36356C13.8611 8.4143 13.9737 8.4949 14.0488 8.63961C14.0981 8.74476 14.1159 8.83623 14.1163 8.9524C14.1164 8.9773 14.1166 9.00221 14.1167 9.02787C14.1167 9.05506 14.1168 9.08226 14.1168 9.11028C14.1169 9.13903 14.117 9.16778 14.1171 9.19739C14.1174 9.27621 14.1176 9.35501 14.1177 9.43383C14.1178 9.48315 14.1179 9.53247 14.118 9.58179C14.1183 9.73634 14.1186 9.89089 14.1186 10.0454C14.1188 10.2234 14.1192 10.4013 14.1199 10.5793C14.1204 10.7171 14.1206 10.8549 14.1207 10.9928C14.1207 11.0749 14.1208 11.1571 14.1212 11.2393C14.1217 11.3312 14.1216 11.423 14.1215 11.5149C14.1217 11.5418 14.1219 11.5687 14.1221 11.5964C14.1211 11.7849 14.1054 11.9787 13.9876 12.1339C13.8508 12.2644 13.7118 12.326 13.5216 12.3226C13.3069 12.2964 13.109 12.1557 12.9278 12.0474C12.9015 12.0318 12.8752 12.0163 12.8482 12.0003C12.7841 11.9624 12.72 11.9244 12.6561 11.8862C12.6527 11.9086 12.6493 11.931 12.6458 11.9541C12.6095 12.1553 12.4559 12.3362 12.2979 12.4593C12.0283 12.6228 11.797 12.6575 11.487 12.657C11.4535 12.6571 11.42 12.6572 11.3865 12.6573C11.296 12.6576 11.2055 12.6577 11.115 12.6576C11.0393 12.6576 10.9635 12.6577 10.8877 12.6578C10.7088 12.6581 10.5298 12.6581 10.3509 12.6579C10.1669 12.6578 9.98282 12.6581 9.79878 12.6586C9.64029 12.659 9.48179 12.6592 9.3233 12.6591C9.22885 12.659 9.13441 12.6591 9.03996 12.6594C8.95106 12.6597 8.86217 12.6597 8.77327 12.6594C8.72549 12.6593 8.67771 12.6596 8.62994 12.6598C8.29105 12.6579 8.00901 12.572 7.75663 12.3402C7.51264 12.0751 7.46996 11.7555 7.47012 11.4109C7.47004 11.3852 7.46996 11.3595 7.46987 11.333C7.46965 11.2483 7.4696 11.1637 7.46957 11.079C7.4695 11.0199 7.46942 10.9608 7.46933 10.9017C7.46919 10.7779 7.46915 10.654 7.46916 10.5302C7.46916 10.372 7.46884 10.2138 7.46842 10.0555C7.46816 9.93347 7.46811 9.8114 7.46812 9.68932C7.4681 9.63101 7.46799 9.57271 7.4678 9.5144C7.46757 9.43262 7.46764 9.35085 7.46778 9.26907C7.46765 9.24527 7.46751 9.22146 7.46738 9.19694C7.46888 8.85713 7.54632 8.5499 7.78658 8.29761C8.04992 8.05545 8.35698 8.00262 8.70545 8.00481ZM8.33336 8.87695C8.24455 9.0022 8.25139 9.12744 8.25206 9.27501C8.2519 9.30039 8.25173 9.32577 8.25156 9.35191C8.25113 9.43562 8.25122 9.51932 8.25135 9.60303C8.25125 9.66133 8.25112 9.71962 8.25097 9.77792C8.25076 9.90004 8.25082 10.0222 8.25106 10.1443C8.25133 10.3007 8.25085 10.457 8.25015 10.6134C8.24971 10.7338 8.24972 10.8542 8.24986 10.9745C8.24986 11.0322 8.24972 11.0898 8.24942 11.1475C8.24906 11.2282 8.24932 11.3088 8.24973 11.3895C8.2495 11.4132 8.24927 11.4369 8.24903 11.4614C8.25058 11.6072 8.26873 11.6968 8.35724 11.8145C8.43407 11.8648 8.49697 11.8683 8.58767 11.8685C8.6289 11.8687 8.6289 11.8687 8.67097 11.869C8.71607 11.8689 8.71607 11.8689 8.76207 11.8688C8.79413 11.8689 8.82618 11.8691 8.85824 11.8692C8.94523 11.8695 9.03222 11.8695 9.11922 11.8695C9.19186 11.8694 9.26451 11.8696 9.33715 11.8697C9.50855 11.8699 9.67994 11.87 9.85133 11.8698C10.0281 11.8697 10.2049 11.87 10.3816 11.8705C10.5334 11.8709 10.6853 11.871 10.8371 11.871C10.9277 11.8709 11.0184 11.871 11.109 11.8713C11.1943 11.8716 11.2795 11.8716 11.3648 11.8712C11.4109 11.8712 11.4571 11.8714 11.5032 11.8717C11.5446 11.8715 11.5446 11.8715 11.5868 11.8712C11.6106 11.8712 11.6345 11.8712 11.6592 11.8712C11.7584 11.8577 11.8186 11.8176 11.8868 11.7455C11.921 11.6859 11.9249 11.6496 11.9252 11.5812C11.9256 11.547 11.9256 11.547 11.926 11.512C11.9259 11.4871 11.9258 11.4622 11.9258 11.4366C11.926 11.4103 11.9262 11.3839 11.9264 11.3568C11.9269 11.2696 11.927 11.1824 11.9269 11.0952C11.9271 11.0347 11.9273 10.9741 11.9275 10.9135C11.9278 10.7865 11.9279 10.6595 11.9277 10.5325C11.9275 10.3859 11.9281 10.2393 11.929 10.0927C11.9298 9.95142 11.93 9.81019 11.9299 9.66895C11.9299 9.60894 11.9301 9.54893 11.9306 9.48892C11.9311 9.40499 11.9309 9.32109 11.9304 9.23716C11.9308 9.21236 11.9311 9.18757 11.9314 9.16202C11.9301 9.05324 11.9287 8.97328 11.8596 8.88578C11.7704 8.80599 11.7081 8.80229 11.5927 8.80194C11.5652 8.80181 11.5377 8.80167 11.5095 8.80153C11.4793 8.8015 11.4492 8.80148 11.4181 8.80145C11.386 8.80134 11.354 8.80122 11.3219 8.80109C11.2348 8.80078 11.1477 8.80062 11.0607 8.80052C11.0062 8.80045 10.9518 8.80035 10.8974 8.80024C10.7272 8.79992 10.5569 8.79969 10.3867 8.79959C10.1901 8.79949 9.99362 8.79907 9.7971 8.79838C9.64518 8.79786 9.49326 8.79762 9.34134 8.79759C9.25061 8.79756 9.15988 8.79742 9.06915 8.79699C8.9838 8.7966 8.89845 8.79655 8.8131 8.79676C8.76689 8.79679 8.72068 8.79646 8.67447 8.79612C8.64688 8.79625 8.61929 8.79639 8.59086 8.79652C8.56694 8.79649 8.54301 8.79645 8.51836 8.79642C8.44079 8.80692 8.39637 8.83118 8.33336 8.87695ZM13.168 9.40386C13.1317 9.42422 13.1317 9.42422 13.0947 9.445C13.0483 9.47118 13.0483 9.47118 13.0009 9.49789C12.8539 9.58065 12.8539 9.58065 12.7039 9.66507C12.7039 10.1064 12.7039 10.5478 12.7039 11.0025C13.012 11.1742 13.012 11.1742 13.3248 11.3369C13.3248 10.6748 13.3248 10.0128 13.3248 9.33072C13.2718 9.33072 13.2119 9.37917 13.168 9.40386Z" fill="#0D152C"/>
</g>
</g>
<defs>
<clipPath id="clip0_12424_7938">
<rect x="0.523499" y="0.308594" width="19.8178" height="19.573" rx="5.24163" fill="white"/>
</clipPath>
<clipPath id="clip1_12424_7938">
<rect width="12.2279" height="12.2279" fill="white" transform="translate(4.67929 4.21973)"/>
</clipPath>
</defs>
</svg>
