<svg width="20" height="21" viewBox="0 0 20 21" fill="none" xmlns="http://www.w3.org/2000/svg">
<rect x="0.158813" y="0.486938" width="19.8178" height="19.573" rx="5.15899" fill="white"/>
<path d="M15.9778 10.2734C15.9778 10.3779 15.9363 10.4781 15.8624 10.552C15.7885 10.6259 15.6883 10.6674 15.5838 10.6674H14.7628C14.6689 11.2179 14.3835 11.7176 13.957 12.0781C13.5304 12.4385 12.9902 12.6367 12.4317 12.6374H10.4617V13.8195H11.6437C12.0617 13.8195 12.4626 13.9855 12.7581 14.2811C13.0537 14.5766 13.2197 14.9775 13.2197 15.3955C13.2197 15.5 13.1782 15.6002 13.1043 15.6741C13.0304 15.748 12.9302 15.7895 12.8257 15.7895C12.7212 15.7895 12.621 15.748 12.5471 15.6741C12.4732 15.6002 12.4317 15.5 12.4317 15.3955C12.4317 15.1865 12.3487 14.9861 12.2009 14.8383C12.0531 14.6905 11.8527 14.6075 11.6437 14.6075H10.4617V15.3955C10.4617 15.5 10.4202 15.6002 10.3463 15.6741C10.2724 15.748 10.1722 15.7895 10.0677 15.7895C9.96318 15.7895 9.86297 15.748 9.78908 15.6741C9.71519 15.6002 9.67367 15.5 9.67367 15.3955V14.6075H8.49166C8.28266 14.6075 8.08223 14.6905 7.93445 14.8383C7.78667 14.9861 7.70365 15.1865 7.70365 15.3955C7.70365 15.5 7.66213 15.6002 7.58824 15.6741C7.51435 15.748 7.41414 15.7895 7.30964 15.7895C7.20514 15.7895 7.10493 15.748 7.03104 15.6741C6.95714 15.6002 6.91563 15.5 6.91563 15.3955C6.91563 14.9775 7.08168 14.5766 7.37724 14.2811C7.6728 13.9855 8.07367 13.8195 8.49166 13.8195H9.67367V12.6374H7.70365C7.14518 12.6367 6.60495 12.4385 6.17841 12.0781C5.75187 11.7176 5.46646 11.2179 5.37261 10.6674H4.5516C4.4471 10.6674 4.34688 10.6259 4.27299 10.552C4.1991 10.4781 4.15759 10.3779 4.15759 10.2734C4.15759 10.1689 4.1991 10.0687 4.27299 9.9948C4.34688 9.92091 4.4471 9.8794 4.5516 9.8794H5.73362C5.83811 9.8794 5.93833 9.92091 6.01222 9.9948C6.08611 10.0687 6.12762 10.1689 6.12762 10.2734C6.12762 10.6914 6.29367 11.0923 6.58923 11.3878C6.88479 11.6834 7.28566 11.8494 7.70365 11.8494H12.4317C12.8497 11.8494 13.2506 11.6834 13.5461 11.3878C13.8417 11.0923 14.0077 10.6914 14.0077 10.2734C14.0077 10.1689 14.0492 10.0687 14.1231 9.9948C14.197 9.92091 14.2972 9.8794 14.4017 9.8794H15.5838C15.6883 9.8794 15.7885 9.92091 15.8624 9.9948C15.9363 10.0687 15.9778 10.1689 15.9778 10.2734ZM7.1082 10.7896C7.03429 10.7043 6.97955 10.6041 6.94768 10.4959C6.91582 10.3876 6.90758 10.2738 6.92351 10.1621L7.59923 5.43403C7.62681 5.24656 7.72068 5.07519 7.86382 4.95102C8.00696 4.82686 8.18988 4.75814 8.37937 4.75732H11.756C11.9455 4.75814 12.1284 4.82686 12.2715 4.95102C12.4147 5.07519 12.5086 5.24656 12.5361 5.43403L13.2118 10.1621C13.2278 10.2739 13.2195 10.3877 13.1876 10.496C13.1558 10.6043 13.101 10.7045 13.027 10.7898C12.953 10.875 12.8616 10.9434 12.7589 10.9903C12.6562 11.0372 12.5446 11.0614 12.4317 11.0614H7.70365C7.59071 11.0614 7.47909 11.0371 7.37636 10.9902C7.27363 10.9433 7.18218 10.8749 7.1082 10.7896ZM7.70365 10.2734H12.4317L11.756 5.54534H8.37887L7.70365 10.2734Z" fill="#0D152C"/>
</svg>
