<svg width="20" height="20" viewBox="0 0 20 20" fill="none" xmlns="http://www.w3.org/2000/svg">
<rect x="0.158813" y="0.308594" width="19.8178" height="19.573" rx="5.15899" fill="white"/>
<path d="M13.2569 9.65032C13.2568 8.90624 12.9611 8.19269 12.435 7.66655C11.9089 7.14041 11.1953 6.84476 10.4512 6.84461M15.1803 9.45399C15.1803 8.86445 15.0641 8.28069 14.8385 7.73603C14.6129 7.19138 14.2822 6.6965 13.8653 6.27966C13.4484 5.86282 12.9535 5.53218 12.4088 5.30663C11.8641 5.08107 11.2804 4.96502 10.6908 4.96509M10.3619 14.6522C10.1956 14.5762 10.0297 14.5003 9.86391 14.4099C9.0505 13.9503 8.30328 13.3824 7.64276 12.7217C6.78684 11.9156 6.08359 10.9615 5.5669 9.90543C5.2905 9.33815 5.10378 8.73141 5.01342 8.10688C4.8915 7.47583 4.96143 6.82272 5.21418 6.23179C5.37011 5.97777 5.5584 5.74511 5.77432 5.53965C5.86194 5.44162 5.96846 5.3623 6.08749 5.30645C6.20653 5.2506 6.33562 5.21938 6.46701 5.21466C6.74043 5.2557 6.98833 5.39878 7.15915 5.61563C7.53295 6.03102 7.93392 6.40482 8.32824 6.79914C8.48352 6.93224 8.58058 7.1208 8.59833 7.3249C8.59167 7.49682 8.52567 7.66043 8.41143 7.78854C8.27999 7.95492 8.12082 8.10688 7.96886 8.26549C7.87697 8.354 7.80667 8.46245 7.7634 8.58247C7.72012 8.70248 7.70503 8.83085 7.71929 8.95763C7.81468 9.25434 7.97829 9.52498 8.1968 9.74682C8.45896 10.1045 8.73365 10.4528 9.02037 10.7911C9.55513 11.408 10.1886 11.9318 10.8949 12.3412C10.9927 12.4151 11.1083 12.4617 11.23 12.4763C11.3517 12.4909 11.4751 12.473 11.5876 12.4244C11.8222 12.293 12.0313 12.1194 12.2032 11.9125C12.3522 11.7313 12.5654 11.6147 12.7983 11.587C13.0057 11.5981 13.2009 11.6868 13.3451 11.8365C13.5315 11.9952 13.6906 12.1821 13.8637 12.3551C14.0367 12.5281 14.1753 12.6529 14.3207 12.8115C14.4948 12.9653 14.6584 13.1291 14.8115 13.3029C14.9302 13.4565 14.9873 13.6495 14.9706 13.8425C14.9088 14.0736 14.7757 14.2793 14.5902 14.4304C14.3289 14.702 14.0116 14.9134 13.6602 15.0497C13.3089 15.186 12.932 15.244 12.5559 15.2196C11.7945 15.1773 11.0484 14.9845 10.3619 14.6522Z" stroke="#0D152C" stroke-width="0.932719" stroke-miterlimit="10" stroke-linecap="round"/>
</svg>
