<svg width="69" height="80" viewBox="0 0 69 80" fill="none" xmlns="http://www.w3.org/2000/svg">
<mask id="path-1-inside-1_11446_20299" fill="white">
<path d="M33.9168 2.82155C27.2642 3.22029 21.5769 6.58859 18.0407 12.2339C16.6136 14.5004 15.7532 16.9768 15.2915 20.1247C15.1446 21.1111 15.1971 24.4794 15.3859 25.5812C16.7815 33.9967 23.5916 40.7438 31.8602 41.898C32.2799 41.961 32.6786 42.0345 32.7311 42.0659C32.92 42.1919 32.5632 42.3178 32.0281 42.3178C31.5034 42.3178 31.2935 42.3492 29.1844 42.7165C27.1907 43.0733 24.7248 43.8603 22.6577 44.7941C22.3534 44.9306 22.0701 45.046 22.0386 45.046C21.9966 45.046 21.2516 45.4552 20.3702 45.9589C17.3586 47.6693 14.452 50.0827 12.6052 52.3702C10.1603 55.4237 7.60001 59.8308 6.89697 62.2023C6.79204 62.5486 6.58218 63.2306 6.42478 63.7238C6.27787 64.217 6.10998 64.8466 6.05752 65.1404C6.00505 65.4237 5.88963 66.0428 5.79519 66.5045C5.58533 67.5853 5.33349 70.24 5.323 71.3838C5.323 73.6398 6.02604 75.5391 7.16979 76.3156C7.4636 76.5202 7.81302 76.6304 8.17084 76.6304H34.8087H61.4467C61.8045 76.6304 62.1539 76.5202 62.4477 76.3156C63.5915 75.5391 64.2945 73.6398 64.2945 71.3838C64.284 70.24 64.0322 67.5853 63.8223 66.5045C63.7279 66.0428 63.6124 65.4237 63.56 65.1404C63.5075 64.8466 63.3396 64.217 63.1927 63.7238C63.0353 63.2306 62.8255 62.5486 62.7205 62.2023C61.9755 59.6734 59.5936 55.6126 56.8653 52.2023C55.1655 50.0722 52.1854 47.6273 49.2473 45.9589C48.3659 45.4552 47.6209 45.046 47.5789 45.046C47.5474 45.046 47.2641 44.9306 46.9598 44.7941C44.8927 43.8603 42.4268 43.0733 40.4331 42.7165C38.324 42.3492 38.1141 42.3178 37.5894 42.3178C37.0543 42.3178 36.6975 42.1919 36.8864 42.0659C36.9389 42.0345 37.3376 41.961 37.7573 41.898C40.2757 41.5518 43.0983 40.492 45.3019 39.0859C50.0448 36.0534 53.3187 31.1111 54.2316 25.5812C54.4204 24.4794 54.4729 21.1111 54.326 20.1247C54.0952 18.5298 53.6649 16.6515 53.3816 16.0324C53.3396 15.917 53.2032 15.5812 53.1088 15.2979C53.0039 15.0041 52.7206 14.364 52.4687 13.8603C49.9294 8.64524 45.0606 4.72081 39.4782 3.38817C37.7678 2.97894 35.3964 2.7376 33.9168 2.82155ZM37.2956 7.9527C39.069 8.26749 40.0238 8.60327 41.6398 9.43223C46.4981 11.9611 49.5306 16.9663 49.5306 22.4857C49.5306 24.4584 49.2473 25.9904 48.5443 27.7847C47.5894 30.2506 46.0679 32.3283 43.9903 33.9757C41.283 36.1373 38.303 37.1761 34.8087 37.1761C32.0595 37.1761 29.772 36.5675 27.4531 35.2349C24.5569 33.5665 22.2904 30.9117 21.0732 27.7847C20.3702 25.9904 20.0869 24.4584 20.0869 22.4857C20.0869 19.9988 20.5591 18.0681 21.7133 15.7701C23.1089 12.9894 25.4384 10.6914 28.282 9.27483C29.9924 8.41439 31.4404 8.01565 33.7594 7.75333C34.389 7.67987 36.4352 7.7953 37.2956 7.9527ZM36.6136 50.2926C36.9494 51.877 37.3166 53.6294 37.432 54.175C37.5475 54.7207 37.7783 55.8329 37.9567 56.6304C38.2505 58.026 38.261 58.11 38.0931 58.3618C37.7993 58.813 34.9032 62.1498 34.8087 62.1498C34.7143 62.1498 31.8182 58.813 31.5244 58.3723C31.3565 58.1205 31.367 58.026 31.6188 56.8508C32.1645 54.2905 32.3953 53.2202 32.9724 50.45C33.2977 48.8865 33.581 47.5538 33.602 47.4804C33.644 47.386 33.9378 47.3545 34.8297 47.3755L35.9945 47.4069L36.6136 50.2926ZM29.0375 47.9211C29.0375 48.0051 28.985 48.2044 28.9326 48.3618C28.8172 48.6661 28.6807 49.2432 27.6104 54.3324C26.8549 57.9106 26.834 58.2149 27.2537 59.5265C27.537 60.4394 27.7259 60.6913 30.7479 64.3009C33.602 67.7007 33.7384 67.8161 34.7563 67.8161C35.4908 67.8161 35.9105 67.6377 36.4037 67.1236C37.6104 65.8539 41.6713 60.8592 41.9861 60.2611C42.3533 59.558 42.5737 58.7395 42.5737 58.0995C42.5737 57.4594 41.0417 49.4846 40.6954 48.3094C40.6324 48.11 40.6115 47.9211 40.6324 47.8791C40.6639 47.8372 40.9997 47.8791 41.388 47.9841C44.2211 48.7396 47.3481 50.3031 49.8664 52.2338C51.1361 53.2097 53.3606 55.4552 54.3365 56.7458C55.3648 58.0995 56.2882 59.6525 57.0647 61.2894C57.411 62.0029 57.6838 62.622 57.6838 62.664C57.6838 62.706 57.7992 63.0417 57.9566 63.4195C58.7121 65.3188 59.4257 69.1802 59.3417 70.9116L59.3102 71.6461H34.8087H10.3072L10.2758 70.9116C10.1918 69.1802 10.9054 65.3188 11.6609 63.4195C11.8183 63.0417 11.9337 62.706 11.9337 62.6535C11.9337 62.6115 12.217 61.9819 12.5528 61.2684C13.8644 58.5192 15.3335 56.4311 17.4426 54.3324C19.9924 51.7721 22.6997 49.9988 25.9945 48.7291C26.9599 48.3513 27.2222 48.2674 28.3555 47.9421C29.027 47.7427 29.0375 47.7427 29.0375 47.9211Z"/>
</mask>
<path d="M33.9168 2.82155C27.2642 3.22029 21.5769 6.58859 18.0407 12.2339C16.6136 14.5004 15.7532 16.9768 15.2915 20.1247C15.1446 21.1111 15.1971 24.4794 15.3859 25.5812C16.7815 33.9967 23.5916 40.7438 31.8602 41.898C32.2799 41.961 32.6786 42.0345 32.7311 42.0659C32.92 42.1919 32.5632 42.3178 32.0281 42.3178C31.5034 42.3178 31.2935 42.3492 29.1844 42.7165C27.1907 43.0733 24.7248 43.8603 22.6577 44.7941C22.3534 44.9306 22.0701 45.046 22.0386 45.046C21.9966 45.046 21.2516 45.4552 20.3702 45.9589C17.3586 47.6693 14.452 50.0827 12.6052 52.3702C10.1603 55.4237 7.60001 59.8308 6.89697 62.2023C6.79204 62.5486 6.58218 63.2306 6.42478 63.7238C6.27787 64.217 6.10998 64.8466 6.05752 65.1404C6.00505 65.4237 5.88963 66.0428 5.79519 66.5045C5.58533 67.5853 5.33349 70.24 5.323 71.3838C5.323 73.6398 6.02604 75.5391 7.16979 76.3156C7.4636 76.5202 7.81302 76.6304 8.17084 76.6304H34.8087H61.4467C61.8045 76.6304 62.1539 76.5202 62.4477 76.3156C63.5915 75.5391 64.2945 73.6398 64.2945 71.3838C64.284 70.24 64.0322 67.5853 63.8223 66.5045C63.7279 66.0428 63.6124 65.4237 63.56 65.1404C63.5075 64.8466 63.3396 64.217 63.1927 63.7238C63.0353 63.2306 62.8255 62.5486 62.7205 62.2023C61.9755 59.6734 59.5936 55.6126 56.8653 52.2023C55.1655 50.0722 52.1854 47.6273 49.2473 45.9589C48.3659 45.4552 47.6209 45.046 47.5789 45.046C47.5474 45.046 47.2641 44.9306 46.9598 44.7941C44.8927 43.8603 42.4268 43.0733 40.4331 42.7165C38.324 42.3492 38.1141 42.3178 37.5894 42.3178C37.0543 42.3178 36.6975 42.1919 36.8864 42.0659C36.9389 42.0345 37.3376 41.961 37.7573 41.898C40.2757 41.5518 43.0983 40.492 45.3019 39.0859C50.0448 36.0534 53.3187 31.1111 54.2316 25.5812C54.4204 24.4794 54.4729 21.1111 54.326 20.1247C54.0952 18.5298 53.6649 16.6515 53.3816 16.0324C53.3396 15.917 53.2032 15.5812 53.1088 15.2979C53.0039 15.0041 52.7206 14.364 52.4687 13.8603C49.9294 8.64524 45.0606 4.72081 39.4782 3.38817C37.7678 2.97894 35.3964 2.7376 33.9168 2.82155ZM37.2956 7.9527C39.069 8.26749 40.0238 8.60327 41.6398 9.43223C46.4981 11.9611 49.5306 16.9663 49.5306 22.4857C49.5306 24.4584 49.2473 25.9904 48.5443 27.7847C47.5894 30.2506 46.0679 32.3283 43.9903 33.9757C41.283 36.1373 38.303 37.1761 34.8087 37.1761C32.0595 37.1761 29.772 36.5675 27.4531 35.2349C24.5569 33.5665 22.2904 30.9117 21.0732 27.7847C20.3702 25.9904 20.0869 24.4584 20.0869 22.4857C20.0869 19.9988 20.5591 18.0681 21.7133 15.7701C23.1089 12.9894 25.4384 10.6914 28.282 9.27483C29.9924 8.41439 31.4404 8.01565 33.7594 7.75333C34.389 7.67987 36.4352 7.7953 37.2956 7.9527ZM36.6136 50.2926C36.9494 51.877 37.3166 53.6294 37.432 54.175C37.5475 54.7207 37.7783 55.8329 37.9567 56.6304C38.2505 58.026 38.261 58.11 38.0931 58.3618C37.7993 58.813 34.9032 62.1498 34.8087 62.1498C34.7143 62.1498 31.8182 58.813 31.5244 58.3723C31.3565 58.1205 31.367 58.026 31.6188 56.8508C32.1645 54.2905 32.3953 53.2202 32.9724 50.45C33.2977 48.8865 33.581 47.5538 33.602 47.4804C33.644 47.386 33.9378 47.3545 34.8297 47.3755L35.9945 47.4069L36.6136 50.2926ZM29.0375 47.9211C29.0375 48.0051 28.985 48.2044 28.9326 48.3618C28.8172 48.6661 28.6807 49.2432 27.6104 54.3324C26.8549 57.9106 26.834 58.2149 27.2537 59.5265C27.537 60.4394 27.7259 60.6913 30.7479 64.3009C33.602 67.7007 33.7384 67.8161 34.7563 67.8161C35.4908 67.8161 35.9105 67.6377 36.4037 67.1236C37.6104 65.8539 41.6713 60.8592 41.9861 60.2611C42.3533 59.558 42.5737 58.7395 42.5737 58.0995C42.5737 57.4594 41.0417 49.4846 40.6954 48.3094C40.6324 48.11 40.6115 47.9211 40.6324 47.8791C40.6639 47.8372 40.9997 47.8791 41.388 47.9841C44.2211 48.7396 47.3481 50.3031 49.8664 52.2338C51.1361 53.2097 53.3606 55.4552 54.3365 56.7458C55.3648 58.0995 56.2882 59.6525 57.0647 61.2894C57.411 62.0029 57.6838 62.622 57.6838 62.664C57.6838 62.706 57.7992 63.0417 57.9566 63.4195C58.7121 65.3188 59.4257 69.1802 59.3417 70.9116L59.3102 71.6461H34.8087H10.3072L10.2758 70.9116C10.1918 69.1802 10.9054 65.3188 11.6609 63.4195C11.8183 63.0417 11.9337 62.706 11.9337 62.6535C11.9337 62.6115 12.217 61.9819 12.5528 61.2684C13.8644 58.5192 15.3335 56.4311 17.4426 54.3324C19.9924 51.7721 22.6997 49.9988 25.9945 48.7291C26.9599 48.3513 27.2222 48.2674 28.3555 47.9421C29.027 47.7427 29.0375 47.7427 29.0375 47.9211Z" fill="white"/>
<path d="M33.9168 2.82155L33.8869 2.32244L33.8885 2.32235L33.9168 2.82155ZM18.0407 12.2339L18.4644 12.4993L18.4638 12.5003L18.0407 12.2339ZM15.2915 20.1247L15.7862 20.1973L15.786 20.1984L15.2915 20.1247ZM15.3859 25.5812L15.8787 25.4967L15.8792 25.4994L15.3859 25.5812ZM31.8602 41.898L31.9293 41.4028L31.9343 41.4036L31.8602 41.898ZM32.7311 42.0659L32.9884 41.6372L32.9986 41.6433L33.0085 41.6499L32.7311 42.0659ZM29.1844 42.7165L29.0963 42.2243L29.0986 42.2239L29.1844 42.7165ZM22.6577 44.7941L22.8635 45.2498L22.8622 45.2504L22.6577 44.7941ZM20.3702 45.9589L20.6182 46.393L20.6171 46.3937L20.3702 45.9589ZM12.6052 52.3702L12.2149 52.0577L12.2162 52.0561L12.6052 52.3702ZM6.89697 62.2023L7.37636 62.3444L7.37548 62.3473L6.89697 62.2023ZM6.42478 63.7238L5.9455 63.581L5.94845 63.5718L6.42478 63.7238ZM6.05752 65.1404L6.54974 65.2283L6.54916 65.2314L6.05752 65.1404ZM5.79519 66.5045L5.30433 66.4092L5.30533 66.4043L5.79519 66.5045ZM5.323 71.3838H4.82298L4.82302 71.3792L5.323 71.3838ZM7.16979 76.3156L7.45066 75.9019L7.45554 75.9053L7.16979 76.3156ZM62.4477 76.3156L62.1619 75.9052L62.1669 75.9019L62.4477 76.3156ZM64.2945 71.3838L64.7945 71.3792V71.3838H64.2945ZM63.8223 66.5045L64.3122 66.4043L64.3131 66.4092L63.8223 66.5045ZM63.56 65.1404L63.0683 65.2314L63.0678 65.2283L63.56 65.1404ZM63.1927 63.7238L63.6691 63.5717L63.6719 63.5811L63.1927 63.7238ZM62.7205 62.2023L62.242 62.3473L62.2409 62.3436L62.7205 62.2023ZM56.8653 52.2023L56.4749 52.5147L56.4745 52.5142L56.8653 52.2023ZM49.2473 45.9589L49.0004 46.3937L48.9993 46.393L49.2473 45.9589ZM46.9598 44.7941L46.7553 45.2504L46.754 45.2498L46.9598 44.7941ZM40.4331 42.7165L40.5188 42.2239L40.5211 42.2243L40.4331 42.7165ZM36.8864 42.0659L36.609 41.6499L36.6189 41.6433L36.6291 41.6372L36.8864 42.0659ZM37.7573 41.898L37.6831 41.4035L37.6892 41.4027L37.7573 41.898ZM45.3019 39.0859L45.5712 39.5071L45.5709 39.5074L45.3019 39.0859ZM54.2316 25.5812L53.7382 25.4997L53.7388 25.4967L54.2316 25.5812ZM54.326 20.1247L53.8315 20.1984L53.8312 20.1964L54.326 20.1247ZM53.3816 16.0324L52.927 16.2405L52.9186 16.2222L52.9117 16.2033L53.3816 16.0324ZM53.1088 15.2979L53.5798 15.1297L53.5831 15.1398L53.1088 15.2979ZM52.4687 13.8603L52.0215 14.084L52.0192 14.0792L52.4687 13.8603ZM39.4782 3.38817L39.3621 3.87451L39.3619 3.87445L39.4782 3.38817ZM37.2956 7.9527L37.2082 8.44501L37.2057 8.44454L37.2956 7.9527ZM41.6398 9.43223L41.868 8.98734L41.8706 8.98871L41.6398 9.43223ZM48.5443 27.7847L48.078 27.6042L48.0787 27.6023L48.5443 27.7847ZM43.9903 33.9757L43.6783 33.585L43.6796 33.5839L43.9903 33.9757ZM27.4531 35.2349L27.2039 35.6684L27.2035 35.6681L27.4531 35.2349ZM21.0732 27.7847L21.5388 27.6023L21.5392 27.6034L21.0732 27.7847ZM21.7133 15.7701L22.1602 15.9944L22.1601 15.9945L21.7133 15.7701ZM28.282 9.27483L28.5067 9.7215L28.505 9.72238L28.282 9.27483ZM33.7594 7.75333L33.8174 8.24996L33.8156 8.25016L33.7594 7.75333ZM36.6136 50.2926L37.1024 50.1877L37.1027 50.1889L36.6136 50.2926ZM37.9567 56.6304L38.4447 56.5213L38.446 56.5274L37.9567 56.6304ZM38.0931 58.3618L37.6741 58.0889L37.6771 58.0844L38.0931 58.3618ZM31.5244 58.3723L31.1084 58.6496L31.5244 58.3723ZM31.6188 56.8508L32.1078 56.955L32.1077 56.9555L31.6188 56.8508ZM32.9724 50.45L33.462 50.5518L33.4619 50.5519L32.9724 50.45ZM33.602 47.4804L33.1213 47.343L33.1309 47.3093L33.1451 47.2773L33.602 47.4804ZM34.8297 47.3755L34.8415 46.8756L34.8432 46.8756L34.8297 47.3755ZM35.9945 47.4069L36.008 46.9071L36.4009 46.9177L36.4833 47.3021L35.9945 47.4069ZM28.9326 48.3618L29.4069 48.5199L29.4037 48.5296L29.4001 48.5391L28.9326 48.3618ZM27.6104 54.3324L28.0997 54.4353L28.0997 54.4357L27.6104 54.3324ZM27.2537 59.5265L27.7299 59.3741L27.7312 59.3783L27.2537 59.5265ZM30.7479 64.3009L30.365 64.6224L30.3645 64.6219L30.7479 64.3009ZM36.4037 67.1236L36.7661 67.468L36.7645 67.4697L36.4037 67.1236ZM41.9861 60.2611L42.4292 60.4926L42.4285 60.4939L41.9861 60.2611ZM40.6954 48.3094L41.1723 48.1588L41.175 48.168L40.6954 48.3094ZM40.6324 47.8791L40.1852 47.6555L40.2054 47.6152L40.2324 47.5791L40.6324 47.8791ZM41.388 47.9841L41.2591 48.4672L41.2575 48.4668L41.388 47.9841ZM49.8664 52.2338L50.1706 51.837L50.1711 51.8374L49.8664 52.2338ZM54.3365 56.7458L53.9384 57.0483L53.9377 57.0474L54.3365 56.7458ZM57.0647 61.2894L56.6149 61.5077L56.613 61.5037L57.0647 61.2894ZM57.9566 63.4195L58.4182 63.2272L58.4212 63.2347L57.9566 63.4195ZM59.3417 70.9116L58.8422 70.8902L58.8423 70.8874L59.3417 70.9116ZM59.3102 71.6461L59.8098 71.6675L59.7893 72.1461H59.3102V71.6461ZM10.3072 71.6461V72.1461H9.82821L9.8077 71.6675L10.3072 71.6461ZM10.2758 70.9116L10.7752 70.8874L10.7753 70.8902L10.2758 70.9116ZM11.6609 63.4195L11.1962 63.2347L11.1993 63.2272L11.6609 63.4195ZM12.5528 61.2684L12.1004 61.0555L12.1015 61.0531L12.5528 61.2684ZM17.4426 54.3324L17.7969 54.6853L17.7953 54.6869L17.4426 54.3324ZM25.9945 48.7291L26.1767 49.1947L26.1743 49.1956L25.9945 48.7291ZM28.3555 47.9421L28.4978 48.4214L28.4934 48.4227L28.3555 47.9421ZM33.9467 3.32065C27.455 3.70974 21.9146 6.99129 18.4644 12.4993L17.617 11.9685C21.2391 6.18589 27.0733 2.73083 33.8869 2.32244L33.9467 3.32065ZM18.4638 12.5003C17.0803 14.6976 16.2397 17.1051 15.7862 20.1973L14.7968 20.0522C15.2667 16.8485 16.1469 14.3033 17.6176 11.9675L18.4638 12.5003ZM15.786 20.1984C15.7195 20.6449 15.6943 21.6939 15.7127 22.8014C15.7311 23.906 15.7916 24.9881 15.8787 25.4967L14.8931 25.6657C14.7914 25.0725 14.7312 23.9196 14.7129 22.818C14.6946 21.7192 14.7165 20.5909 14.7969 20.0511L15.786 20.1984ZM15.8792 25.4994C17.2401 33.7058 23.8838 40.2797 31.9293 41.4028L31.791 42.3932C23.2993 41.2078 16.3229 34.2876 14.8927 25.663L15.8792 25.4994ZM31.9343 41.4036C32.1485 41.4357 32.3599 41.4709 32.5267 41.5026C32.6095 41.5183 32.6861 41.5341 32.7484 41.549C32.7792 41.5564 32.8119 41.5649 32.8427 41.5743C32.8591 41.5793 32.9241 41.5986 32.9884 41.6372L32.4739 42.4947C32.525 42.5254 32.5661 42.5355 32.549 42.5302C32.5463 42.5294 32.536 42.5264 32.5154 42.5215C32.4751 42.5118 32.4159 42.4994 32.34 42.485C32.1894 42.4564 31.9915 42.4233 31.786 42.3925L31.9343 41.4036ZM33.0085 41.6499C33.0689 41.6902 33.1676 41.7683 33.2297 41.9004C33.3043 42.0594 33.2979 42.238 33.2204 42.3879C33.156 42.5125 33.0601 42.585 33.0027 42.6218C32.9394 42.6625 32.8742 42.6903 32.819 42.71C32.6092 42.7848 32.3212 42.8178 32.0281 42.8178V41.8178C32.27 41.8178 32.428 41.7878 32.4832 41.7681C32.4942 41.7642 32.484 41.7665 32.4628 41.7801C32.4476 41.7899 32.3811 41.8338 32.332 41.9289C32.2698 42.0493 32.2644 42.1974 32.3245 42.3254C32.372 42.4265 32.4405 42.4731 32.4538 42.482L33.0085 41.6499ZM32.0281 42.8178C31.5569 42.8178 31.3974 42.8387 29.2702 43.2091L29.0986 42.2239C31.1896 41.8598 31.4499 41.8178 32.0281 41.8178V42.8178ZM29.2725 43.2087C27.3243 43.5573 24.8979 44.3307 22.8635 45.2498L22.4518 44.3385C24.5517 43.3898 27.0571 42.5892 29.0963 42.2243L29.2725 43.2087ZM22.8622 45.2504C22.7059 45.3205 22.5535 45.3858 22.4343 45.4343C22.3752 45.4584 22.3206 45.4798 22.2762 45.4959C22.2545 45.5037 22.23 45.5123 22.2061 45.5195C22.1943 45.523 22.1774 45.5279 22.1579 45.5323C22.1477 45.5346 22.0993 45.546 22.0386 45.546V44.546C21.9818 44.546 21.9393 44.5565 21.9369 44.557C21.9252 44.5597 21.9178 44.5619 21.9174 44.562C21.9162 44.5624 21.9214 44.5608 21.9355 44.5557C21.9625 44.5459 22.0036 44.53 22.0573 44.5081C22.1637 44.4648 22.3052 44.4042 22.4532 44.3379L22.8622 45.2504ZM22.0386 45.546C22.1144 45.546 22.1714 45.5275 22.1745 45.5266C22.1907 45.5218 22.2019 45.5175 22.2047 45.5164C22.2111 45.5139 22.2115 45.5134 22.2023 45.5177C22.1853 45.5256 22.1563 45.54 22.1136 45.562C22.0294 45.6055 21.909 45.6701 21.7594 45.7521C21.4612 45.9155 21.0573 46.1421 20.6182 46.393L20.1221 45.5248C20.5645 45.272 20.9738 45.0422 21.2789 44.8751C21.431 44.7917 21.5598 44.7226 21.6547 44.6736C21.7015 44.6494 21.7445 44.6278 21.7797 44.6114C21.7966 44.6035 21.8181 44.5938 21.8405 44.5851C21.8513 44.5808 21.8691 44.5741 21.8907 44.5677C21.8992 44.5652 21.9602 44.546 22.0386 44.546V45.546ZM20.6171 46.3937C17.6521 48.0776 14.7963 50.4522 12.9943 52.6843L12.2162 52.0561C14.1078 49.7132 17.0652 47.2609 20.1232 45.5241L20.6171 46.3937ZM12.9955 52.6827C11.791 54.187 10.5535 56.0311 9.53029 57.7931C8.50266 59.5628 7.71074 61.2164 7.37635 62.3444L6.41759 62.0602C6.78624 60.8167 7.626 59.0811 8.66552 57.2909C9.70947 55.4932 10.9745 53.6069 12.2149 52.0577L12.9955 52.6827ZM7.37548 62.3473C7.27014 62.6949 7.05951 63.3795 6.90111 63.8758L5.94845 63.5718C6.10484 63.0817 6.31394 62.4022 6.41846 62.0573L7.37548 62.3473ZM6.90397 63.8665C6.75724 64.3591 6.59676 64.9649 6.54973 65.2283L5.5653 65.0525C5.6232 64.7282 5.79851 64.0748 5.94559 63.5811L6.90397 63.8665ZM6.54916 65.2314C6.49676 65.5144 6.38054 66.1378 6.28505 66.6047L5.30533 66.4043C5.39871 65.9478 5.51335 65.333 5.56588 65.0493L6.54916 65.2314ZM6.28602 66.5998C6.08255 67.6477 5.83322 70.2719 5.82298 71.3884L4.82302 71.3792C4.83376 70.2082 5.08811 67.5229 5.30436 66.4092L6.28602 66.5998ZM5.823 71.3838C5.823 72.4627 5.99147 73.4408 6.28592 74.2297C6.58243 75.024 6.99266 75.591 7.45064 75.9019L6.88895 76.7293C6.20317 76.2637 5.69 75.4928 5.34906 74.5794C5.00604 73.6604 4.823 72.5609 4.823 71.3838H5.823ZM7.45554 75.9053C7.66591 76.0518 7.9157 76.1304 8.17084 76.1304V77.1304C7.71035 77.1304 7.26129 76.9886 6.88405 76.7259L7.45554 75.9053ZM8.17084 76.1304H34.8087V77.1304H8.17084V76.1304ZM34.8087 76.1304H61.4467V77.1304H34.8087V76.1304ZM61.4467 76.1304C61.7018 76.1304 61.9516 76.0518 62.162 75.9053L62.7335 76.7259C62.3562 76.9886 61.9071 77.1304 61.4467 77.1304V76.1304ZM62.1669 75.9019C62.6248 75.591 63.0351 75.024 63.3316 74.2297C63.626 73.4408 63.7945 72.4627 63.7945 71.3838H64.7945C64.7945 72.5609 64.6114 73.6604 64.2684 74.5794C63.9275 75.4928 63.4143 76.2637 62.7285 76.7293L62.1669 75.9019ZM63.7945 71.3884C63.7843 70.2719 63.5349 67.6477 63.3315 66.5998L64.3131 66.4092C64.5294 67.5229 64.7837 70.2082 64.7945 71.3792L63.7945 71.3884ZM63.3324 66.6047C63.2369 66.1378 63.1207 65.5144 63.0683 65.2314L64.0516 65.0493C64.1041 65.333 64.2188 65.9478 64.3122 66.4043L63.3324 66.6047ZM63.0678 65.2283C63.0207 64.9649 62.8603 64.3591 62.7135 63.8665L63.6719 63.5811C63.819 64.0748 63.9943 64.7282 64.0522 65.0525L63.0678 65.2283ZM62.7164 63.8758C62.558 63.3795 62.3474 62.6949 62.242 62.3473L63.199 62.0573C63.3036 62.4022 63.5127 63.0817 63.669 63.5718L62.7164 63.8758ZM62.2409 62.3436C61.5225 59.9051 59.1861 55.9037 56.4749 52.5147L57.2558 51.89C60.001 55.3215 62.4285 59.4418 63.2001 62.061L62.2409 62.3436ZM56.4745 52.5142C54.8224 50.444 51.8957 48.0378 49.0004 46.3937L49.4942 45.5241C52.4751 47.2168 55.5085 49.7004 57.2562 51.8904L56.4745 52.5142ZM48.9993 46.393C48.5602 46.1421 48.1563 45.9155 47.8581 45.7521C47.7085 45.6701 47.5881 45.6055 47.5039 45.562C47.4612 45.54 47.4322 45.5256 47.4152 45.5177C47.406 45.5134 47.4064 45.5139 47.4127 45.5164C47.4156 45.5175 47.4267 45.5218 47.443 45.5266C47.4461 45.5275 47.5031 45.546 47.5789 45.546V44.546C47.6573 44.546 47.7183 44.5652 47.7268 44.5677C47.7484 44.5741 47.7662 44.5808 47.777 44.5851C47.7994 44.5938 47.8209 44.6035 47.8378 44.6114C47.873 44.6278 47.916 44.6494 47.9628 44.6736C48.0577 44.7226 48.1865 44.7917 48.3385 44.8751C48.6437 45.0422 49.053 45.272 49.4954 45.5248L48.9993 46.393ZM47.5789 45.546C47.5182 45.546 47.4698 45.5346 47.4596 45.5323C47.4401 45.5279 47.4232 45.523 47.4114 45.5195C47.3875 45.5123 47.363 45.5037 47.3413 45.4959C47.2969 45.4798 47.2422 45.4584 47.1832 45.4343C47.064 45.3858 46.9116 45.3205 46.7553 45.2504L47.1643 44.3379C47.3123 44.4042 47.4538 44.4648 47.5602 44.5081C47.6139 44.53 47.655 44.5459 47.682 44.5557C47.6961 44.5608 47.7013 44.5624 47.7001 44.562C47.6997 44.5619 47.6923 44.5597 47.6806 44.557C47.6782 44.5565 47.6357 44.546 47.5789 44.546V45.546ZM46.754 45.2498C44.7196 44.3307 42.2932 43.5573 40.345 43.2087L40.5211 42.2243C42.5604 42.5892 45.0658 43.3898 47.1657 44.3385L46.754 45.2498ZM40.3473 43.2091C38.22 42.8387 38.0606 42.8178 37.5894 42.8178V41.8178C38.1676 41.8178 38.4279 41.8598 40.5188 42.2239L40.3473 43.2091ZM37.5894 42.8178C37.2963 42.8178 37.0083 42.7848 36.7985 42.71C36.7432 42.6903 36.6781 42.6624 36.6148 42.6218C36.5574 42.585 36.4615 42.5125 36.3971 42.3879C36.3196 42.238 36.3132 42.0594 36.3878 41.9004C36.4499 41.7683 36.5486 41.6902 36.609 41.6499L37.1637 42.482C37.177 42.4731 37.2455 42.4265 37.293 42.3254C37.3531 42.1974 37.3477 42.0493 37.2855 41.9289C37.2364 41.8338 37.1699 41.7899 37.1547 41.7801C37.1335 41.7665 37.1233 41.7642 37.1343 41.7681C37.1895 41.7878 37.3475 41.8178 37.5894 41.8178V42.8178ZM36.6291 41.6372C36.6934 41.5986 36.7584 41.5793 36.7748 41.5743C36.8056 41.5649 36.8383 41.5564 36.8691 41.549C36.9314 41.5341 37.008 41.5183 37.0908 41.5026C37.2576 41.4709 37.469 41.4357 37.6832 41.4036L37.8315 42.3925C37.626 42.4233 37.4281 42.4564 37.2775 42.485C37.2016 42.4994 37.1424 42.5118 37.1021 42.5215C37.0815 42.5264 37.0712 42.5294 37.0685 42.5302C37.0514 42.5355 37.0925 42.5254 37.1436 42.4947L36.6291 41.6372ZM37.6892 41.4027C40.1326 41.0667 42.8872 40.0335 45.0329 38.6644L45.5709 39.5074C43.3094 40.9504 40.4187 42.0368 37.8254 42.3934L37.6892 41.4027ZM45.0326 38.6646C49.657 35.7078 52.8486 30.8885 53.7382 25.4997L54.7249 25.6626C53.7887 31.3336 50.4326 36.3989 45.5712 39.5071L45.0326 38.6646ZM53.7388 25.4967C53.8259 24.9881 53.8864 23.906 53.9048 22.8014C53.9232 21.6939 53.898 20.6449 53.8315 20.1984L54.8205 20.0511C54.9009 20.5909 54.9229 21.7192 54.9046 22.818C54.8863 23.9196 54.8261 25.0725 54.7244 25.6657L53.7388 25.4967ZM53.8312 20.1964C53.7178 19.4132 53.5551 18.5585 53.3862 17.8248C53.2138 17.0759 53.0448 16.498 52.927 16.2405L53.8363 15.8244C54.0017 16.1859 54.1895 16.8567 54.3607 17.6005C54.5355 18.3594 54.7033 19.2413 54.8208 20.0531L53.8312 20.1964ZM52.9117 16.2033C52.8826 16.1232 52.7296 15.7416 52.6345 15.456L53.5831 15.1398C53.6768 15.4209 53.7967 15.7108 53.8515 15.8616L52.9117 16.2033ZM52.6379 15.4661C52.5427 15.1994 52.2693 14.5796 52.0215 14.0839L52.9159 13.6367C53.1718 14.1484 53.465 14.8088 53.5797 15.1297L52.6379 15.4661ZM52.0192 14.0792C49.5446 8.99706 44.7971 5.17197 39.3621 3.87451L39.5943 2.90184C45.324 4.26964 50.3142 8.29343 52.9183 13.6414L52.0192 14.0792ZM39.3619 3.87445C37.6903 3.47451 35.3681 3.24001 33.9452 3.32074L33.8885 2.32235C35.4246 2.23519 37.8453 2.48337 39.5945 2.9019L39.3619 3.87445ZM37.383 7.46039C39.2088 7.7845 40.2109 8.13729 41.868 8.98735L41.4116 9.87711C39.8368 9.06925 38.9291 8.75049 37.2082 8.445L37.383 7.46039ZM41.8706 8.98871C46.8954 11.6042 50.0306 16.781 50.0306 22.4857H49.0306C49.0306 17.1516 46.1009 12.318 41.4089 9.87574L41.8706 8.98871ZM50.0306 22.4857C50.0306 24.5188 49.7364 26.1129 49.0098 27.9672L48.0787 27.6023C48.7583 25.868 49.0306 24.398 49.0306 22.4857H50.0306ZM49.0105 27.9653C48.0238 30.5134 46.449 32.6642 44.3009 34.3675L43.6796 33.5839C45.6868 31.9923 47.155 29.9879 48.078 27.6042L49.0105 27.9653ZM44.3022 34.3664C41.5056 36.5994 38.4153 37.6761 34.8087 37.6761V36.6761C38.1906 36.6761 41.0605 35.6752 43.6783 33.585L44.3022 34.3664ZM34.8087 37.6761C31.9737 37.6761 29.6001 37.0454 27.2039 35.6684L27.7022 34.8014C29.944 36.0897 32.1454 36.6761 34.8087 36.6761V37.6761ZM27.2035 35.6681C24.2075 33.9422 21.8653 31.198 20.6073 27.9661L21.5392 27.6034C22.7155 30.6254 24.9064 33.1908 27.7026 34.8016L27.2035 35.6681ZM20.6077 27.9672C19.8811 26.1129 19.5869 24.5188 19.5869 22.4857H20.5869C20.5869 24.398 20.8592 25.868 21.5388 27.6023L20.6077 27.9672ZM19.5869 22.4857C19.5869 19.9173 20.0789 17.91 21.2665 15.5457L22.1601 15.9945C21.0392 18.2262 20.5869 20.0804 20.5869 22.4857H19.5869ZM21.2664 15.5458C22.7119 12.6657 25.1214 10.2907 28.0591 8.82729L28.505 9.72238C25.7553 11.0921 23.5058 13.3131 22.1602 15.9944L21.2664 15.5458ZM28.0573 8.82817C29.8313 7.93574 31.3389 7.52395 33.7032 7.25649L33.8156 8.25016C31.542 8.50736 30.1535 8.89305 28.5067 9.7215L28.0573 8.82817ZM33.7015 7.25669C34.0653 7.21425 34.7754 7.22812 35.4691 7.26724C36.1718 7.30686 36.9237 7.37637 37.3856 7.46086L37.2057 8.44454C36.8071 8.37162 36.1057 8.30472 35.4128 8.26565C34.7109 8.22607 34.0832 8.21895 33.8174 8.24996L33.7015 7.25669ZM37.1027 50.1889C37.4381 51.7715 37.8065 53.5294 37.9212 54.0715L36.9429 54.2785C36.8267 53.7293 36.4606 51.9826 36.1244 50.3962L37.1027 50.1889ZM37.9212 54.0715C38.0374 54.6207 38.2671 55.7276 38.4446 56.5213L37.4687 56.7396C37.2895 55.9383 37.0575 54.8206 36.9429 54.2785L37.9212 54.0715ZM38.446 56.5274C38.589 57.2068 38.6748 57.6175 38.6964 57.8847C38.7081 58.0291 38.7055 58.1716 38.6658 58.3148C38.6257 58.4594 38.5579 58.566 38.5091 58.6391L37.6771 58.0844C37.7123 58.0316 37.7061 58.0334 37.7021 58.0478C37.6985 58.0608 37.7063 58.0478 37.6997 57.9653C37.6846 57.7787 37.6182 57.4496 37.4674 56.7334L38.446 56.5274ZM38.5121 58.6346C38.4184 58.7785 38.1585 59.0988 37.853 59.4646C37.5362 59.8439 37.1415 60.3057 36.7539 60.7526C36.3663 61.1994 35.9838 61.6334 35.6912 61.9568C35.5455 62.118 35.4193 62.2547 35.3249 62.3526C35.2786 62.4006 35.2348 62.4447 35.198 62.4788C35.1806 62.4949 35.1565 62.5167 35.1297 62.5371C35.1172 62.5467 35.0934 62.5644 35.0624 62.582C35.0558 62.5858 34.9529 62.6498 34.8087 62.6498V61.6498C34.6675 61.6498 34.5689 61.7123 34.568 61.7128C34.5427 61.7272 34.5258 61.7401 34.5215 61.7433C34.5113 61.7512 34.5088 61.7541 34.518 61.7456C34.5341 61.7307 34.5625 61.7026 34.605 61.6586C34.6882 61.5722 34.8061 61.4447 34.9497 61.286C35.2359 60.9696 35.6134 60.5412 35.9985 60.0974C36.3833 59.6537 36.7737 59.1967 37.0855 58.8235C37.4086 58.4367 37.6209 58.1707 37.6741 58.089L38.5121 58.6346ZM34.8087 62.6498C34.6646 62.6498 34.5617 62.5858 34.5551 62.582C34.5241 62.5644 34.5003 62.5467 34.4878 62.5371C34.461 62.5167 34.4369 62.4949 34.4195 62.4789C34.3827 62.4447 34.3389 62.4007 34.2926 62.3526C34.1983 62.2548 34.0721 62.1181 33.9263 61.9571C33.6338 61.6339 33.2513 61.2002 32.8639 60.7542C32.4762 60.308 32.0818 59.8473 31.7651 59.4697C31.459 59.1047 31.2008 58.7884 31.1084 58.6496L31.9404 58.0949C31.9948 58.1766 32.2088 58.4426 32.5314 58.8272C32.8433 59.1992 33.2339 59.6553 33.6188 60.0984C34.0039 60.5417 34.3815 60.9698 34.6677 61.286C34.8114 61.4447 34.9292 61.5722 35.0125 61.6585C35.055 61.7026 35.0834 61.7307 35.0995 61.7456C35.1087 61.7541 35.1061 61.7512 35.0959 61.7433C35.0917 61.74 35.0748 61.7272 35.0495 61.7128C35.0486 61.7123 34.95 61.6498 34.8087 61.6498V62.6498ZM31.1084 58.6496C31.0589 58.5754 30.9943 58.4722 30.9538 58.3366C30.9127 58.1989 30.9063 58.063 30.9153 57.9254C30.9314 57.6772 31.0082 57.3142 31.1299 56.746L32.1077 56.9555C31.9777 57.5626 31.9233 57.8344 31.9132 57.9902C31.909 58.0546 31.9157 58.063 31.912 58.0506C31.9089 58.0402 31.906 58.0433 31.9404 58.0949L31.1084 58.6496ZM31.1298 56.7466C31.6755 54.1859 31.9061 53.1168 32.483 50.348L33.4619 50.5519C32.8845 53.3235 32.6534 54.395 32.1078 56.955L31.1298 56.7466ZM32.4829 50.3481C32.8043 48.8035 33.0936 47.4398 33.1213 47.343L34.0828 47.6178C34.0834 47.6157 34.0667 47.6884 34.0292 47.8614C33.9948 48.0201 33.9475 48.2416 33.8905 48.5102C33.7765 49.0472 33.6245 49.7706 33.462 50.5518L32.4829 50.3481ZM33.1451 47.2773C33.2426 47.058 33.4387 46.9768 33.527 46.9472C33.6301 46.9126 33.7446 46.8963 33.8525 46.8866C34.0738 46.8668 34.3955 46.8651 34.8415 46.8756L34.818 47.8753C34.372 47.8648 34.1009 47.8684 33.9418 47.8826C33.8595 47.89 33.837 47.898 33.8452 47.8952C33.851 47.8933 33.8818 47.8827 33.921 47.8547C33.9631 47.8246 34.0205 47.77 34.0589 47.6835L33.1451 47.2773ZM34.8432 46.8756L36.008 46.9071L35.981 47.9068L34.8162 47.8753L34.8432 46.8756ZM36.4833 47.3021L37.1024 50.1877L36.1247 50.3974L35.5056 47.5118L36.4833 47.3021ZM29.5375 47.9211C29.5375 48.0307 29.5095 48.1553 29.4903 48.2333C29.467 48.328 29.4369 48.4301 29.4069 48.5199L28.4582 48.2037C28.4808 48.1361 28.5031 48.0599 28.5192 47.9945C28.5272 47.9618 28.5327 47.9358 28.5359 47.9175C28.54 47.8942 28.5375 47.8991 28.5375 47.9211H29.5375ZM29.4001 48.5391C29.3574 48.6517 29.3015 48.8359 29.1176 49.6615C28.9361 50.4765 28.635 51.89 28.0997 54.4353L27.1212 54.2295C27.6561 51.6857 27.9585 50.266 28.1416 49.4441C28.3223 48.6328 28.3924 48.3762 28.4651 48.1845L29.4001 48.5391ZM28.0997 54.4357C27.7188 56.2396 27.5344 57.1696 27.4902 57.8137C27.4492 58.4104 27.5286 58.7451 27.7299 59.3741L26.7775 59.6789C26.559 58.9963 26.4391 58.523 26.4925 57.7452C26.5427 57.0146 26.7466 56.0035 27.1212 54.2291L28.0997 54.4357ZM27.7312 59.3783C27.8566 59.7824 27.9497 60.0237 28.3771 60.6069C28.8254 61.2187 29.6146 62.1684 31.1313 63.9799L30.3645 64.6219C28.8592 62.8238 28.0429 61.8427 27.5705 61.198C27.077 60.5246 26.9341 60.1835 26.7761 59.6747L27.7312 59.3783ZM31.1308 63.9794C32.5725 65.6967 33.2888 66.5356 33.7702 66.9573C33.9992 67.1579 34.1415 67.2328 34.2538 67.2686C34.373 67.3066 34.5025 67.3161 34.7563 67.3161V68.3161C34.5012 68.3161 34.2319 68.3112 33.95 68.2213C33.6613 68.1293 33.4004 67.9628 33.1112 67.7095C32.5564 67.2236 31.7774 66.3049 30.365 64.6224L31.1308 63.9794ZM34.7563 67.3161C35.0837 67.3161 35.3001 67.2762 35.4764 67.2019C35.6518 67.128 35.8255 67.0041 36.0429 66.7775L36.7645 67.4697C36.4887 67.7573 36.206 67.9796 35.8646 68.1234C35.5242 68.2669 35.1634 68.3161 34.7563 68.3161V67.3161ZM36.0413 66.7791C36.6292 66.1605 37.9342 64.6094 39.1414 63.125C39.7426 62.3858 40.3149 61.6688 40.7556 61.1007C40.9762 60.8163 41.1621 60.5714 41.3017 60.3805C41.4498 60.1779 41.5245 60.0645 41.5436 60.0282L42.4285 60.4939C42.3689 60.6071 42.2479 60.7807 42.1089 60.9707C41.9615 61.1724 41.7691 61.4257 41.5458 61.7135C41.0989 62.2898 40.5215 63.013 39.9173 63.756C38.7137 65.2358 37.3849 66.8169 36.7661 67.468L36.0413 66.7791ZM41.5429 60.0295C41.8808 59.3826 42.0737 58.6432 42.0737 58.0995H43.0737C43.0737 58.8359 42.8258 59.7334 42.4292 60.4926L41.5429 60.0295ZM42.0737 58.0995C42.0737 58.1005 42.0735 58.0896 42.0711 58.0612C42.0688 58.0348 42.0652 58.0002 42.06 57.9567C42.0495 57.8699 42.0337 57.7563 42.0128 57.618C41.971 57.3417 41.9105 56.9772 41.8363 56.5508C41.6879 55.6985 41.4862 54.6079 41.2734 53.4994C40.8446 51.266 40.3803 49.0089 40.2158 48.4507L41.175 48.168C41.3568 48.785 41.8316 51.103 42.2554 53.3108C42.4689 54.4229 42.6718 55.5195 42.8215 56.3792C42.8963 56.8088 42.9582 57.1816 43.0016 57.4685C43.042 57.7363 43.0737 57.9734 43.0737 58.0995H42.0737ZM40.2186 48.4599C40.179 48.3344 40.1515 48.2094 40.137 48.1024C40.1298 48.0496 40.1246 47.9922 40.1246 47.936C40.1246 47.9081 40.1258 47.8725 40.1312 47.8336C40.1355 47.802 40.1469 47.7321 40.1852 47.6555L41.0797 48.1027C41.0979 48.0662 41.1075 48.0351 41.1125 48.016C41.1178 47.9958 41.1205 47.9796 41.1219 47.9694C41.1246 47.9496 41.1246 47.9372 41.1246 47.936C41.1246 47.9333 41.1246 47.9434 41.1279 47.968C41.1344 48.0158 41.1489 48.085 41.1722 48.1588L40.2186 48.4599ZM40.2324 47.5791C40.3022 47.4862 40.3858 47.4397 40.4327 47.4181C40.4829 47.395 40.5279 47.3836 40.5573 47.3775C40.6156 47.3655 40.6693 47.3634 40.7053 47.3631C40.781 47.3625 40.8643 47.3704 40.9431 47.381C41.1051 47.4028 41.3077 47.4445 41.5184 47.5014L41.2575 48.4668C41.0799 48.4188 40.9205 48.387 40.8097 48.372C40.7521 48.3643 40.7213 48.363 40.7131 48.3631C40.7071 48.3631 40.7263 48.3637 40.7588 48.357C40.7752 48.3537 40.8094 48.3456 40.851 48.3264C40.8893 48.3088 40.9666 48.2669 41.0324 48.1791L40.2324 47.5791ZM41.5168 47.501C44.418 48.2746 47.6039 49.8692 50.1706 51.837L49.5622 52.6306C47.0922 50.7369 44.0242 49.2045 41.2591 48.4672L41.5168 47.501ZM50.1711 51.8374C51.4767 52.8408 53.7328 55.1183 54.7353 56.4443L53.9377 57.0474C52.9885 55.7921 50.7955 53.5785 49.5617 52.6302L50.1711 51.8374ZM54.7346 56.4434C55.7864 57.8279 56.7272 59.4111 57.5165 61.0751L56.613 61.5037C55.8493 59.8938 54.9432 58.371 53.9384 57.0483L54.7346 56.4434ZM57.5145 61.0711C57.6897 61.4321 57.8467 61.77 57.9605 62.0243C58.0172 62.1511 58.0644 62.2597 58.098 62.3411C58.1145 62.3812 58.1296 62.419 58.1412 62.451C58.1468 62.4665 58.1538 62.4863 58.16 62.5071C58.163 62.5174 58.1675 62.5333 58.1716 62.5522C58.1742 62.564 58.1838 62.608 58.1838 62.664H57.1838C57.1838 62.7174 57.1929 62.7576 57.1944 62.7646C57.1975 62.7786 57.2004 62.7885 57.2014 62.7918C57.2034 62.7986 57.2041 62.8002 57.2016 62.7933C57.197 62.7806 57.188 62.7576 57.1736 62.7226C57.1452 62.6538 57.1025 62.5552 57.0477 62.4327C56.9385 62.1886 56.786 61.8602 56.6149 61.5077L57.5145 61.0711ZM58.1838 62.664C58.1838 62.6206 58.1776 62.5888 58.1771 62.5857C58.1762 62.5807 58.1754 62.5771 58.175 62.5753C58.1748 62.5743 58.1746 62.5735 58.1745 62.5731C58.1744 62.5726 58.1743 62.5724 58.1743 62.5724C58.1743 62.5724 58.1744 62.5726 58.1745 62.573C58.1746 62.5733 58.1747 62.5739 58.1749 62.5745C58.1753 62.5759 58.1758 62.5779 58.1765 62.5803C58.1779 62.5853 58.1798 62.5918 58.1823 62.6C58.1927 62.6337 58.2094 62.6839 58.2323 62.7482C58.2777 62.876 58.3427 63.0461 58.4182 63.2272L57.4951 63.6118C57.4131 63.4151 57.3417 63.2285 57.2901 63.0834C57.2645 63.0113 57.2425 62.9461 57.2263 62.8933C57.2183 62.8673 57.2104 62.8398 57.2038 62.8136C57.2022 62.8071 57.1838 62.7397 57.1838 62.664H58.1838ZM58.4212 63.2347C58.8164 64.228 59.1907 65.7045 59.4556 67.1376C59.7196 68.5658 59.886 70.0104 59.8411 70.9358L58.8423 70.8874C58.8814 70.0814 58.733 68.7296 58.4723 67.3194C58.2125 65.9141 57.8524 64.5102 57.492 63.6043L58.4212 63.2347ZM59.8413 70.933L59.8098 71.6675L58.8107 71.6247L58.8422 70.8902L59.8413 70.933ZM59.3102 72.1461H34.8087V71.1461H59.3102V72.1461ZM34.8087 72.1461H10.3072V71.1461H34.8087V72.1461ZM9.8077 71.6675L9.77622 70.933L10.7753 70.8902L10.8068 71.6247L9.8077 71.6675ZM9.77635 70.9358C9.73148 70.0104 9.89786 68.5658 10.1618 67.1376C10.4267 65.7045 10.8011 64.228 11.1963 63.2347L12.1255 63.6043C11.7651 64.5102 11.4049 65.9141 11.1452 67.3194C10.8845 68.7296 10.7361 70.0814 10.7752 70.8874L9.77635 70.9358ZM11.1993 63.2272C11.2748 63.046 11.3396 62.8764 11.3847 62.7483C11.4075 62.6838 11.4238 62.6337 11.4338 62.6C11.4363 62.5918 11.4381 62.5854 11.4394 62.5805C11.44 62.5781 11.4405 62.5763 11.4409 62.575C11.4412 62.5736 11.4413 62.573 11.4413 62.5731C11.4413 62.5731 11.4411 62.5741 11.4407 62.5761C11.4403 62.578 11.4396 62.5815 11.4388 62.5863C11.438 62.5916 11.4337 62.6176 11.4337 62.6535H12.4337C12.4337 62.7232 12.4189 62.7843 12.4155 62.7989C12.4089 62.8274 12.4007 62.8569 12.3925 62.8844C12.376 62.9402 12.3537 63.0075 12.3279 63.0807C12.2759 63.2281 12.2043 63.4152 12.1224 63.6118L11.1993 63.2272ZM11.4337 62.6535C11.4337 62.5957 11.444 62.5504 11.4465 62.5388C11.4508 62.5197 11.4555 62.5036 11.4586 62.4933C11.465 62.4724 11.4721 62.4525 11.4778 62.4371C11.4897 62.4051 11.5051 62.3671 11.5219 62.3268C11.5561 62.245 11.604 62.1357 11.661 62.0084C11.7755 61.7528 11.9316 61.4141 12.1004 61.0555L13.0052 61.4813C12.8382 61.8362 12.6848 62.169 12.5736 62.4172C12.5178 62.5417 12.4739 62.6422 12.4445 62.7126C12.4295 62.7484 12.4202 62.772 12.4152 62.7853C12.4126 62.7925 12.4133 62.7911 12.4153 62.7844C12.4163 62.7812 12.4193 62.7712 12.4225 62.7569C12.424 62.7502 12.4337 62.7087 12.4337 62.6535H11.4337ZM12.1015 61.0531C13.437 58.2539 14.9389 56.1183 17.0899 53.978L17.7953 54.6869C15.728 56.7438 14.2918 58.7845 13.004 61.4837L12.1015 61.0531ZM17.0883 53.9796C19.6865 51.3707 22.4529 49.558 25.8147 48.2625L26.1743 49.1956C22.9464 50.4395 20.2983 52.1735 17.7969 54.6853L17.0883 53.9796ZM25.8123 48.2635C26.7955 47.8787 27.0732 47.79 28.2175 47.4615L28.4934 48.4227C27.3712 48.7448 27.1242 48.8239 26.1767 49.1947L25.8123 48.2635ZM28.2132 47.4628C28.3786 47.4137 28.5132 47.3738 28.6174 47.3463C28.7097 47.3218 28.8254 47.2934 28.9332 47.2902C28.9904 47.2884 29.0872 47.2917 29.1921 47.3357C29.3142 47.3869 29.41 47.4774 29.4686 47.5896C29.5181 47.6844 29.5295 47.773 29.5335 47.8149C29.5377 47.8591 29.5375 47.902 29.5375 47.9211H28.5375C28.5375 47.8956 28.537 47.8995 28.538 47.9103C28.5389 47.9189 28.5441 47.9797 28.5822 48.0526C28.6293 48.1428 28.7082 48.2171 28.8055 48.2579C28.8856 48.2915 28.9495 48.2901 28.9635 48.2897C28.9847 48.2891 28.9718 48.2869 28.8732 48.313C28.7866 48.3359 28.6681 48.3708 28.4978 48.4214L28.2132 47.4628Z" fill="#0D152C" mask="url(#path-1-inside-1_11446_20299)"/>
</svg>
