<svg width="53" height="52" viewBox="0 0 53 52" fill="none" xmlns="http://www.w3.org/2000/svg">
<rect x="0.561523" y="0.5" width="51" height="51" rx="25.5" stroke="white"/>
<g clip-path="url(#clip0_5770_11702)">
<path d="M38.0615 26C38.0615 19.3726 32.6889 14 26.0615 14C19.4341 14 14.0615 19.3726 14.0615 26C14.0615 31.9895 18.4497 36.954 24.1865 37.8542V29.4687H21.1396V26H24.1865V23.3562C24.1865 20.3488 25.9781 18.6875 28.7191 18.6875C30.0316 18.6875 31.4053 18.9219 31.4053 18.9219V21.875H29.8921C28.4015 21.875 27.9365 22.8001 27.9365 23.75V26H31.2646L30.7326 29.4687H27.9365V37.8542C33.6733 36.954 38.0615 31.9895 38.0615 26Z" fill="white"/>
</g>
<defs>
<clipPath id="clip0_5770_11702">
<rect width="24" height="24" fill="white" transform="translate(14.0615 14)"/>
</clipPath>
</defs>
</svg>
