<svg width="53" height="52" viewBox="0 0 53 52" fill="none" xmlns="http://www.w3.org/2000/svg">
<path d="M26.0383 52C11.7055 52 0.0458984 40.337 0.0458984 26C0.0458984 11.663 11.7055 0 26.0383 0C40.371 0 52.0306 11.663 52.0306 26C52.0306 40.337 40.371 52 26.0383 52ZM26.0383 1.76499C12.6795 1.76499 1.81036 12.6373 1.81036 26C1.81036 39.3627 12.6795 50.235 26.0383 50.235C39.397 50.235 50.2661 39.3627 50.2661 26C50.2661 12.6373 39.397 1.76499 26.0383 1.76499Z" fill="white"/>
<path d="M41.8498 20.7949C41.6522 18.887 41.2269 16.7778 39.6619 15.6694C38.4497 14.8098 36.8564 14.7781 35.3689 14.7798C32.2246 14.7816 29.0786 14.7851 25.9343 14.7869C22.91 14.7904 19.8857 14.7922 16.8614 14.7957C15.5981 14.7975 14.37 14.6986 13.1966 15.2458C12.1891 15.7153 11.4004 16.6084 10.9258 17.6021C10.2676 18.984 10.13 20.5496 10.0506 22.0781C9.90414 24.8614 9.92002 27.6519 10.0947 30.4335C10.2235 32.4632 10.5499 34.7065 12.1185 36.0003C13.5089 37.1457 15.471 37.2022 17.2743 37.204C22.9982 37.2093 28.7239 37.2146 34.4496 37.2181C35.1836 37.2199 35.9494 37.2057 36.6976 37.1246C38.1691 36.9657 39.5719 36.5439 40.5176 35.4531C41.4722 34.3535 41.7175 32.8233 41.8622 31.3742C42.215 27.8584 42.2115 24.309 41.8498 20.7949ZM22.6242 30.9277V21.0702L31.1572 25.9981L22.6242 30.9277Z" fill="white"/>
</svg>
