<svg width="53" height="52" viewBox="0 0 53 52" fill="none" xmlns="http://www.w3.org/2000/svg">
<path d="M26.0808 52H25.9664C11.6659 52 0.03125 40.3619 0.03125 26.0572V25.9428C0.03125 11.6381 11.6659 0 25.9664 0H26.0808C40.3813 0 52.016 11.6381 52.016 25.9428V26.0572C52.016 40.3619 40.3813 52 26.0808 52ZM25.9664 1.76015C12.6355 1.76015 1.79088 12.6079 1.79088 25.9428V26.0572C1.79088 39.3921 12.6355 50.2399 25.9664 50.2399H26.0808C39.4117 50.2399 50.2563 39.3921 50.2563 26.0572V25.9428C50.2563 12.6079 39.4117 1.76015 26.0808 1.76015H25.9664Z" fill="#ECF2FF"/>
<path d="M33.7952 11.1011H18.2541C13.9606 11.1011 10.4678 14.595 10.4678 18.8897V33.1117C10.4678 37.4064 13.9606 40.9003 18.2541 40.9003H33.7952C38.0887 40.9003 41.5815 37.4064 41.5815 33.1117V18.8897C41.5815 14.595 38.0887 11.1011 33.7952 11.1011ZM13.2146 18.8897C13.2146 16.1105 15.4757 13.8486 18.2541 13.8486H33.7952C36.5736 13.8486 38.8347 16.1105 38.8347 18.8897V33.1117C38.8347 35.8909 36.5736 38.1528 33.7952 38.1528H18.2541C15.4757 38.1528 13.2146 35.8909 13.2146 33.1117V18.8897Z" fill="#ECF2FF"/>
<path d="M26.0249 33.2434C30.0175 33.2434 33.2675 29.9942 33.2675 25.9987C33.2675 22.0031 30.0192 18.7539 26.0249 18.7539C22.0305 18.7539 18.7822 22.0031 18.7822 25.9987C18.7822 29.9942 22.0305 33.2434 26.0249 33.2434ZM26.0249 21.5032C28.5042 21.5032 30.5207 23.5204 30.5207 26.0004C30.5207 28.4805 28.5042 30.4976 26.0249 30.4976C23.5455 30.4976 21.529 28.4805 21.529 26.0004C21.529 23.5204 23.5455 21.5032 26.0249 21.5032Z" fill="#ECF2FF"/>
<path d="M33.9378 19.9245C35.0129 19.9245 35.8892 19.0497 35.8892 17.9725C35.8892 16.8953 35.0146 16.0205 33.9378 16.0205C32.8609 16.0205 31.9863 16.8953 31.9863 17.9725C31.9863 19.0497 32.8609 19.9245 33.9378 19.9245Z" fill="#ECF2FF"/>
</svg>
