<svg width="53" height="52" viewBox="0 0 53 52" fill="none" xmlns="http://www.w3.org/2000/svg">
<rect x="0.545898" y="0.5" width="51" height="51" rx="25.5" stroke="white"/>
<g clip-path="url(#clip0_5770_11709)">
<path d="M36.2693 14H15.8178C14.8381 14 14.0459 14.7734 14.0459 15.7297V36.2656C14.0459 37.2219 14.8381 38 15.8178 38H36.2693C37.249 38 38.0459 37.2219 38.0459 36.2703V15.7297C38.0459 14.7734 37.249 14 36.2693 14ZM21.1662 34.4516H17.6037V22.9953H21.1662V34.4516ZM19.385 21.4344C18.2412 21.4344 17.3178 20.5109 17.3178 19.3719C17.3178 18.2328 18.2412 17.3094 19.385 17.3094C20.524 17.3094 21.4475 18.2328 21.4475 19.3719C21.4475 20.5062 20.524 21.4344 19.385 21.4344ZM34.4975 34.4516H30.9396V28.8828C30.9396 27.5562 30.9162 25.8453 29.0881 25.8453C27.2365 25.8453 26.9553 27.2937 26.9553 28.7891V34.4516H23.4021V22.9953H26.8146V24.5609H26.8615C27.335 23.6609 28.4975 22.7094 30.2271 22.7094C33.8318 22.7094 34.4975 25.0813 34.4975 28.1656V34.4516Z" fill="white"/>
</g>
<defs>
<clipPath id="clip0_5770_11709">
<rect width="24" height="24" fill="white" transform="translate(14.0459 14)"/>
</clipPath>
</defs>
</svg>
