<svg width="53" height="52" viewBox="0 0 53 52" fill="none" xmlns="http://www.w3.org/2000/svg">
<path d="M26.1111 52H25.9967C11.6962 52 0.0615234 40.3619 0.0615234 26.0572V25.9428C0.0615234 11.6381 11.6962 0 25.9967 0H26.1111C40.4116 0 52.0462 11.6381 52.0462 25.9428V26.0572C52.0462 40.3619 40.4116 52 26.1111 52ZM25.9967 1.76015C12.6657 1.76015 1.82115 12.6079 1.82115 25.9428V26.0572C1.82115 39.3921 12.6657 50.2399 25.9967 50.2399H26.1111C39.442 50.2399 50.2866 39.3921 50.2866 26.0572V25.9428C50.2866 12.6079 39.442 1.76015 26.1111 1.76015H25.9967Z" fill="white"/>
<path d="M11.1278 12.2544L22.7097 27.7437L11.0557 40.3375H13.6793L23.8834 29.312L32.1272 40.3375H41.0538L28.8209 23.977L39.669 12.2544H37.0454L27.6489 22.4087L20.0562 12.2544H11.1296H11.1278ZM14.9849 14.187H19.0848L37.1932 38.4049H33.0933L14.9849 14.187Z" fill="white"/>
</svg>
