<svg width="52" height="52" viewBox="0 0 52 52" fill="none" xmlns="http://www.w3.org/2000/svg">
<path d="M26.0652 52H25.9508C11.6503 52 0.015625 40.3619 0.015625 26.0572V25.9428C0.015625 11.6381 11.6503 0 25.9508 0H26.0652C40.3657 0 52.0003 11.6381 52.0003 25.9428V26.0572C52.0003 40.3619 40.3657 52 26.0652 52ZM25.9508 1.76015C12.6198 1.76015 1.77525 12.6079 1.77525 25.9428V26.0572C1.77525 39.3921 12.6198 50.2399 25.9508 50.2399H26.0652C39.3961 50.2399 50.2407 39.3921 50.2407 26.0572V25.9428C50.2407 12.6079 39.3961 1.76015 26.0652 1.76015H25.9508Z" fill="#ECF2FF"/>
<path d="M28.3095 31.6515C28.2545 31.597 28.1803 31.5665 28.1029 31.5665C28.0255 31.5665 27.9513 31.597 27.8963 31.6515L23.6476 35.9002C21.6804 37.8674 18.3604 38.0758 16.1884 35.9002C14.0129 33.7247 14.2213 30.4083 16.1884 28.4411L20.4372 24.1924C20.5506 24.079 20.5506 23.8925 20.4372 23.7792L18.9819 22.3239C18.927 22.2695 18.8527 22.2389 18.7754 22.2389C18.698 22.2389 18.6238 22.2695 18.5688 22.3239L14.32 26.5727C11.2267 29.666 11.2267 34.6717 14.32 37.7614C17.4133 40.851 22.419 40.8547 25.5087 37.7614L29.7574 33.5126C29.8708 33.3992 29.8708 33.2128 29.7574 33.0994L28.3095 31.6515ZM37.765 14.32C34.6717 11.2267 29.666 11.2267 26.5764 14.32L22.3239 18.5688C22.2695 18.6238 22.2389 18.698 22.2389 18.7754C22.2389 18.8527 22.2695 18.927 22.3239 18.9819L23.7755 20.4336C23.8889 20.5469 24.0754 20.5469 24.1887 20.4336L28.4375 16.1848C30.4046 14.2176 33.7247 14.0092 35.8966 16.1848C38.0722 18.3604 37.8637 21.6767 35.8966 23.6439L31.6478 27.8927C31.5934 27.9476 31.5628 28.0219 31.5628 28.0993C31.5628 28.1766 31.5934 28.2509 31.6478 28.3058L33.1031 29.7611C33.2164 29.8745 33.4029 29.8745 33.5163 29.7611L37.765 25.5123C40.8547 22.419 40.8547 17.4133 37.765 14.32ZM29.6295 20.9345C29.5745 20.88 29.5003 20.8495 29.4229 20.8495C29.3455 20.8495 29.2713 20.88 29.2163 20.9345L20.9345 29.2126C20.88 29.2676 20.8495 29.3419 20.8495 29.4192C20.8495 29.4966 20.88 29.5708 20.9345 29.6258L22.3824 31.0738C22.4958 31.1871 22.6823 31.1871 22.7956 31.0738L31.0738 22.7956C31.1871 22.6823 31.1871 22.4958 31.0738 22.3824L29.6295 20.9345Z" fill="white"/>
</svg>
