<svg width="186" height="187" viewBox="0 0 186 187" fill="none" xmlns="http://www.w3.org/2000/svg">
<g filter="url(#filter0_d_6988_2334)">
<path fill-rule="evenodd" clip-rule="evenodd" d="M39.1495 175.116C38.5502 173.653 38.9362 171.053 38.9159 169.265C38.9159 166.471 38.2759 165.74 41.1711 165.74C46.0167 165.74 75.71 165.476 76.2382 166.045C76.7665 166.613 76.5227 170.697 76.5328 171.865C76.5328 174.913 77.3049 175.553 74.3691 175.543C68.6397 175.543 40.6225 175.99 39.1495 175.116ZM26.5428 109.909C25.5442 110.742 24.723 111.768 24.128 112.925C23.533 114.082 23.1762 115.347 23.0788 116.644C23.0788 125.045 27.4774 126.701 35.3299 132.257C37.3616 133.7 45.3462 139.988 47.3779 139.978C47.8016 139.989 48.2232 139.914 48.617 139.757C49.0109 139.6 49.3687 139.365 49.6689 139.066C49.9691 138.767 50.2054 138.41 50.3634 138.016C50.5214 137.623 50.5978 137.202 50.588 136.778C50.588 134.015 48.8407 133.436 46.9106 132.044L32.9427 121.977C26.2889 117.396 32.0081 113.312 34.5782 113.85C36.2544 114.175 42.2682 118.929 44.1069 120.26C51.2788 125.39 47.5913 123.186 54.6514 125.959C58.7148 127.564 61.3357 129.576 63.0017 133.517C64.1598 136.26 69.0968 155.713 69.5946 159.188L46.9208 158.984C44.6453 153.153 46.4941 151.355 39.048 146.053C35.0455 143.198 30.8094 140.323 26.6851 137.611C21.9614 134.492 20.8846 130.947 18.7411 124.75C17.004 119.722 15.3787 114.592 13.6619 109.37C11.9451 104.149 10.3502 99.0899 8.54199 93.7669C7.69883 91.2679 6.20553 88.1289 7.09948 85.4674C7.87152 83.1817 10.015 80.2256 12.9203 82.1964C16.8008 84.8376 21.1893 96.7941 23.6172 102.727C24.7187 105.067 25.6953 107.465 26.5428 109.909ZM39.7489 159.056C35.5839 159.543 32.5668 160.976 32.3027 165.344C31.104 185.143 33.664 182.126 57.4348 182.126H71.4028C76.6141 182.126 79.7226 182.745 82.2317 179.078C83.9282 176.609 83.4 169.834 83.3187 166.299C83.207 161.849 80.9416 159.685 76.7258 159.025C75.1106 152.564 73.4751 146.175 71.9717 139.724C70.1431 131.953 68.9241 127.879 64.1394 123.47C61.8706 121.572 59.2751 120.102 56.4799 119.133C54.9054 118.574 53.6457 118.462 52.2845 117.467L41.7196 109.848C38.1743 107.257 37.9915 107.237 32.8208 106.739C30.4132 101.101 28.1885 95.9103 25.8724 90.2927C23.3429 84.1976 20.9963 79.0168 16.3234 76.1216C9.67974 72.0582 3.31036 76.599 1.08565 81.6783C-1.75873 88.2407 1.67484 94.7726 3.53385 100.573C5.61634 107.054 13.2047 131.313 15.7952 135.732C19.2287 141.573 22.2153 142.904 28.2495 146.997C30.5555 148.562 32.8716 150.187 35.1877 151.762C37.8289 153.621 39.4441 154.962 39.8098 159.056H39.7489Z" fill="white"/>
</g>
<g filter="url(#filter1_d_6988_2334)">
<path fill-rule="evenodd" clip-rule="evenodd" d="M105.841 166.024C107.294 165.394 135.352 165.74 140.959 165.74C143.854 165.74 143.245 166.471 143.214 169.265C143.214 170.484 143.529 174.506 142.92 175.157C142.31 175.807 112.729 175.522 107.761 175.543C104.825 175.543 105.577 174.872 105.597 171.865C105.597 170.098 105.191 167.538 105.841 166.024ZM135.179 158.984L112.536 159.147L116.894 141.034C118.58 134.096 119.687 129.779 125.254 126.944C132.365 123.308 128.759 127.259 139.669 118.96C141.748 117.324 143.912 115.798 146.15 114.388C146.787 114.019 147.513 113.829 148.249 113.839C148.986 113.85 149.705 114.061 150.332 114.449C150.958 114.837 151.466 115.388 151.803 116.043C152.14 116.698 152.293 117.432 152.245 118.167C151.92 120.809 148.517 122.414 146.749 123.734C144.606 125.339 142.28 127.127 140.157 128.509C138.033 129.89 135.961 131.556 133.726 133.111C129.927 135.742 131.583 139.277 133.99 139.876C136.246 140.435 139.679 137.448 141.101 136.321L154.307 126.812C160.088 122.566 160.128 114.967 156.949 111.29C155.1 109.167 155.211 110.589 157.964 103.874C160.128 98.6631 165.075 84.2583 169.525 81.9422C172.572 80.3473 174.949 84.106 175.274 86.8081C175.518 88.9008 165.969 116.552 164.578 120.87C158.564 139.439 158.32 134.746 144.128 145.25C141.538 147.16 139.72 148.033 138.084 150.573C135.931 153.905 136.408 155.937 135.098 158.974L135.179 158.984ZM149.299 106.831C144.342 107.308 143.753 107.44 140.4 109.939L130.018 117.426C127.702 119.173 122.521 119.386 117.981 123.521C113.216 127.899 111.977 131.973 110.148 139.775C108.645 146.225 106.918 152.493 105.394 159.076C101.331 159.706 98.9638 161.707 98.8114 166.034C98.1003 184.939 99.5733 182.135 124.36 182.135H138.348C143.641 182.135 146.861 182.582 148.933 178.885C150.437 176.193 149.949 169.244 149.848 165.679C149.675 161.046 146.719 159.584 142.391 159.055C142.696 155.155 144.271 153.61 146.729 151.944C149.005 150.421 151.432 148.663 153.667 147.2C155.902 145.738 158.391 144 160.585 142.426C167.696 137.347 169.728 127.554 172.532 118.98C174.563 112.885 176.493 107.166 178.424 101.132C180.232 95.4632 183.808 88.4944 181.126 81.9727C179.094 76.8934 172.755 72.0885 166.02 76.0706C161.266 78.8845 158.909 84.0958 156.359 90.13C153.992 95.839 151.727 101.193 149.309 106.831H149.299Z" fill="white"/>
</g>
<g filter="url(#filter2_d_6988_2334)">
<path fill-rule="evenodd" clip-rule="evenodd" d="M75.6601 95.1991C75.6601 93.4315 75.8632 93.3299 77.6308 93.3299C83.1875 93.3299 102.204 92.9642 106.288 93.5229C106.525 96.5644 106.589 99.6168 106.481 102.666C106.481 104.758 105.638 104.504 103.596 104.474C94.9307 104.342 99.0246 107.745 97.4196 112.763C93.2012 113.256 88.9398 113.256 84.7214 112.763C83.025 107.521 87.4134 104.423 78.2098 104.514C74.8982 104.514 75.6601 104.464 75.6601 95.2194V95.1991ZM87.6775 86.544C85.6458 86.544 83.3703 86.666 81.4402 86.5948C79.2663 86.5136 79.9673 86.7167 79.7031 84.9695C77.1127 67.3648 69.7275 66.0747 68.5288 56.5257C67.908 51.789 68.7764 46.9765 71.0134 42.7554C73.2505 38.5344 76.7454 35.1139 81.0136 32.9681C96.871 24.9328 113.897 37.7223 113.876 53.2851C113.876 60.8227 110.717 64.0735 107.588 69.2645C105.211 73.2059 102.367 81.1804 102.357 86.5339H94.4634C94.4634 80.6115 94.2095 64.9877 94.5345 60.1218C96.5662 59.106 98.6995 57.7447 100.711 56.5562C103.058 55.1746 105.607 54.7378 105.607 51.6293C105.607 43.1977 92.4013 54.108 90.9791 53.9759C90.6134 53.9759 86.2757 51.3957 85.6357 51.0401C84.0307 50.1258 81.8161 48.3684 79.8657 48.3684C77.7324 48.3684 76.5337 49.4859 76.5337 51.6293C76.5337 54.7784 79.1139 55.1746 81.4504 56.5359C83.5431 57.7549 85.5138 59.0552 87.6166 60.1218C87.9214 66.8366 87.6775 79.1995 87.6775 86.5339V86.544ZM61.5601 51.6699C61.5601 61.0564 62.4946 63.342 67.5739 71.1031C70.7218 76.0065 72.629 81.6023 73.1306 87.4075C67.6552 89.6526 68.8742 96.5502 68.8742 103.001C68.8244 104.117 68.9992 105.231 69.3884 106.278C69.7775 107.325 70.373 108.283 71.1395 109.096C72.968 110.833 74.5325 110.894 77.6816 111.321C78.0168 114.368 77.6816 114.957 79.4289 117.05C80.0181 117.816 80.7704 118.442 81.6314 118.881C82.4924 119.32 83.4403 119.562 84.4065 119.59H97.7141C98.6769 119.559 99.6208 119.316 100.478 118.877C101.335 118.437 102.084 117.814 102.672 117.05C104.205 115.161 104.094 114.216 104.419 111.321C107.466 110.914 108.97 110.894 110.788 109.238C114.151 106.191 113.226 99.7603 113.226 94.1934C113.278 92.7621 112.901 91.3479 112.142 90.1331C111.384 88.9182 110.279 87.9583 108.97 87.3771C109.986 71.7533 120.54 67.9642 120.54 54.8699V51.6191C120.54 37.5293 106.979 23.8052 93.1124 23.8052H88.8864C75.1013 23.856 61.5601 37.5801 61.5601 51.6699Z" fill="white"/>
</g>
<g filter="url(#filter3_d_6988_2334)">
<path fill-rule="evenodd" clip-rule="evenodd" d="M118.031 7.49072C115.644 8.20181 110.351 16.481 111.306 19.2136C111.435 19.6179 111.643 19.9928 111.917 20.3169C112.191 20.6409 112.526 20.9077 112.904 21.1021C113.281 21.2964 113.693 21.4145 114.116 21.4495C114.539 21.4845 114.965 21.4359 115.369 21.3063C117.899 20.7272 119.605 16.0239 120.774 14.0125C121.596 12.6004 122.663 11.4017 121.84 9.34972C121.543 8.62707 120.991 8.0386 120.289 7.69593C119.587 7.35326 118.783 7.28024 118.031 7.49072Z" fill="white"/>
</g>
<g filter="url(#filter4_d_6988_2334)">
<path fill-rule="evenodd" clip-rule="evenodd" d="M62.7782 7.47033C57.5161 8.78078 61.0208 13.4943 62.1281 15.4651C63.9261 18.6447 64.9928 22.1494 68.599 21.2757C69.3754 21.0694 70.0475 20.582 70.4848 19.9081C70.9222 19.2343 71.0937 18.422 70.966 17.6288C70.9558 17.5374 66.8315 6.45448 62.7782 7.47033Z" fill="white"/>
</g>
<g filter="url(#filter5_d_6988_2334)">
<path fill-rule="evenodd" clip-rule="evenodd" d="M131.521 38.4843C133.807 38.4843 136.001 36.7472 137.911 35.6399C140.217 34.3092 142.35 33.7098 142.35 30.8756C142.35 28.5391 140.369 27.1474 137.87 27.828C136.519 28.1937 134.091 29.8597 132.852 30.6115C131.074 31.6273 129.022 32.1962 128.534 34.0349C127.884 36.4526 129.276 38.4843 131.521 38.4843Z" fill="white"/>
</g>
<g filter="url(#filter6_d_6988_2334)">
<path fill-rule="evenodd" clip-rule="evenodd" d="M87.6768 3.58978V12.0416C87.6768 16.105 94.4626 16.105 94.4626 12.0416C94.4626 8.14079 95.4785 0.00382737 91.8824 0.00382737C90.3586 -0.00633112 87.6768 -0.179023 87.6768 3.58978Z" fill="white"/>
</g>
<g filter="url(#filter7_d_6988_2334)">
<path fill-rule="evenodd" clip-rule="evenodd" d="M42.0765 27.7974C41.66 27.9131 41.2707 28.1106 40.9314 28.3785C40.5922 28.6464 40.3098 28.9793 40.1007 29.3577C39.8917 29.736 39.7602 30.1523 39.7139 30.5821C39.6677 31.0119 39.7077 31.4467 39.8315 31.8608C40.2683 34.1567 49.2281 39.3375 51.8185 38.3318C52.5536 37.9781 53.1413 37.3776 53.4792 36.6351C53.817 35.8925 53.8836 35.055 53.6674 34.2684C53.2407 32.064 49.8376 30.9669 46.6276 29.0165C45.2968 28.2139 43.9863 27.2997 42.0765 27.7974Z" fill="white"/>
</g>
<defs>
<filter id="filter0_d_6988_2334" x="0" y="74.5532" width="86.46" height="111.737" filterUnits="userSpaceOnUse" color-interpolation-filters="sRGB">
<feFlood flood-opacity="0" result="BackgroundImageFix"/>
<feColorMatrix in="SourceAlpha" type="matrix" values="0 0 0 0 0 0 0 0 0 0 0 0 0 0 0 0 0 0 127 0" result="hardAlpha"/>
<feOffset dx="3" dy="4"/>
<feComposite in2="hardAlpha" operator="out"/>
<feColorMatrix type="matrix" values="0 0 0 0 0.054902 0 0 0 0 0.0823529 0 0 0 0 0.172549 0 0 0 0.5 0"/>
<feBlend mode="normal" in2="BackgroundImageFix" result="effect1_dropShadow_6988_2334"/>
<feBlend mode="normal" in="SourceGraphic" in2="effect1_dropShadow_6988_2334" result="shape"/>
</filter>
<filter id="filter1_d_6988_2334" x="98.6841" y="74.5969" width="86.4058" height="111.685" filterUnits="userSpaceOnUse" color-interpolation-filters="sRGB">
<feFlood flood-opacity="0" result="BackgroundImageFix"/>
<feColorMatrix in="SourceAlpha" type="matrix" values="0 0 0 0 0 0 0 0 0 0 0 0 0 0 0 0 0 0 127 0" result="hardAlpha"/>
<feOffset dx="3" dy="4"/>
<feComposite in2="hardAlpha" operator="out"/>
<feColorMatrix type="matrix" values="0 0 0 0 0.054902 0 0 0 0 0.0823529 0 0 0 0 0.172549 0 0 0 0.5 0"/>
<feBlend mode="normal" in2="BackgroundImageFix" result="effect1_dropShadow_6988_2334"/>
<feBlend mode="normal" in="SourceGraphic" in2="effect1_dropShadow_6988_2334" result="shape"/>
</filter>
<filter id="filter2_d_6988_2334" x="61.5601" y="23.8052" width="61.9805" height="99.7844" filterUnits="userSpaceOnUse" color-interpolation-filters="sRGB">
<feFlood flood-opacity="0" result="BackgroundImageFix"/>
<feColorMatrix in="SourceAlpha" type="matrix" values="0 0 0 0 0 0 0 0 0 0 0 0 0 0 0 0 0 0 127 0" result="hardAlpha"/>
<feOffset dx="3" dy="4"/>
<feComposite in2="hardAlpha" operator="out"/>
<feColorMatrix type="matrix" values="0 0 0 0 0.054902 0 0 0 0 0.0823529 0 0 0 0 0.172549 0 0 0 0.5 0"/>
<feBlend mode="normal" in2="BackgroundImageFix" result="effect1_dropShadow_6988_2334"/>
<feBlend mode="normal" in="SourceGraphic" in2="effect1_dropShadow_6988_2334" result="shape"/>
</filter>
<filter id="filter3_d_6988_2334" x="111.192" y="7.3728" width="13.9443" height="18.0876" filterUnits="userSpaceOnUse" color-interpolation-filters="sRGB">
<feFlood flood-opacity="0" result="BackgroundImageFix"/>
<feColorMatrix in="SourceAlpha" type="matrix" values="0 0 0 0 0 0 0 0 0 0 0 0 0 0 0 0 0 0 127 0" result="hardAlpha"/>
<feOffset dx="3" dy="4"/>
<feComposite in2="hardAlpha" operator="out"/>
<feColorMatrix type="matrix" values="0 0 0 0 0.054902 0 0 0 0 0.0823529 0 0 0 0 0.172549 0 0 0 0.5 0"/>
<feBlend mode="normal" in2="BackgroundImageFix" result="effect1_dropShadow_6988_2334"/>
<feBlend mode="normal" in="SourceGraphic" in2="effect1_dropShadow_6988_2334" result="shape"/>
</filter>
<filter id="filter4_d_6988_2334" x="59.957" y="7.40454" width="14.0503" height="18.0071" filterUnits="userSpaceOnUse" color-interpolation-filters="sRGB">
<feFlood flood-opacity="0" result="BackgroundImageFix"/>
<feColorMatrix in="SourceAlpha" type="matrix" values="0 0 0 0 0 0 0 0 0 0 0 0 0 0 0 0 0 0 127 0" result="hardAlpha"/>
<feOffset dx="3" dy="4"/>
<feComposite in2="hardAlpha" operator="out"/>
<feColorMatrix type="matrix" values="0 0 0 0 0.054902 0 0 0 0 0.0823529 0 0 0 0 0.172549 0 0 0 0.5 0"/>
<feBlend mode="normal" in2="BackgroundImageFix" result="effect1_dropShadow_6988_2334"/>
<feBlend mode="normal" in="SourceGraphic" in2="effect1_dropShadow_6988_2334" result="shape"/>
</filter>
<filter id="filter5_d_6988_2334" x="128.374" y="27.655" width="16.9761" height="14.8293" filterUnits="userSpaceOnUse" color-interpolation-filters="sRGB">
<feFlood flood-opacity="0" result="BackgroundImageFix"/>
<feColorMatrix in="SourceAlpha" type="matrix" values="0 0 0 0 0 0 0 0 0 0 0 0 0 0 0 0 0 0 127 0" result="hardAlpha"/>
<feOffset dx="3" dy="4"/>
<feComposite in2="hardAlpha" operator="out"/>
<feColorMatrix type="matrix" values="0 0 0 0 0.054902 0 0 0 0 0.0823529 0 0 0 0 0.172549 0 0 0 0.5 0"/>
<feBlend mode="normal" in2="BackgroundImageFix" result="effect1_dropShadow_6988_2334"/>
<feBlend mode="normal" in="SourceGraphic" in2="effect1_dropShadow_6988_2334" result="shape"/>
</filter>
<filter id="filter6_d_6988_2334" x="87.6768" y="0" width="9.91846" height="19.0891" filterUnits="userSpaceOnUse" color-interpolation-filters="sRGB">
<feFlood flood-opacity="0" result="BackgroundImageFix"/>
<feColorMatrix in="SourceAlpha" type="matrix" values="0 0 0 0 0 0 0 0 0 0 0 0 0 0 0 0 0 0 127 0" result="hardAlpha"/>
<feOffset dx="3" dy="4"/>
<feComposite in2="hardAlpha" operator="out"/>
<feColorMatrix type="matrix" values="0 0 0 0 0.054902 0 0 0 0 0.0823529 0 0 0 0 0.172549 0 0 0 0.5 0"/>
<feBlend mode="normal" in2="BackgroundImageFix" result="effect1_dropShadow_6988_2334"/>
<feBlend mode="normal" in="SourceGraphic" in2="effect1_dropShadow_6988_2334" result="shape"/>
</filter>
<filter id="filter7_d_6988_2334" x="39.6953" y="27.656" width="17.0967" height="14.8037" filterUnits="userSpaceOnUse" color-interpolation-filters="sRGB">
<feFlood flood-opacity="0" result="BackgroundImageFix"/>
<feColorMatrix in="SourceAlpha" type="matrix" values="0 0 0 0 0 0 0 0 0 0 0 0 0 0 0 0 0 0 127 0" result="hardAlpha"/>
<feOffset dx="3" dy="4"/>
<feComposite in2="hardAlpha" operator="out"/>
<feColorMatrix type="matrix" values="0 0 0 0 0.054902 0 0 0 0 0.0823529 0 0 0 0 0.172549 0 0 0 0.5 0"/>
<feBlend mode="normal" in2="BackgroundImageFix" result="effect1_dropShadow_6988_2334"/>
<feBlend mode="normal" in="SourceGraphic" in2="effect1_dropShadow_6988_2334" result="shape"/>
</filter>
</defs>
</svg>
