<svg width="186" height="169" viewBox="0 0 186 169" fill="none" xmlns="http://www.w3.org/2000/svg">
<g filter="url(#filter0_d_6988_1745)">
<path fill-rule="evenodd" clip-rule="evenodd" d="M149.923 5.5544C152.284 5.24408 152.058 7.37871 152.443 9.65441L175.953 146.676C176.254 148.434 177.448 150.926 175.671 151.82C174.73 152.299 149.34 156.38 146.124 156.982C130.89 159.803 132.273 160.311 131.407 155.102L116.079 65.7663C113.399 49.7142 110.776 34.1417 107.898 18.0237C107.55 16.0583 106.431 13.2184 108.444 12.5884L149.97 5.53559L149.923 5.5544ZM105.519 7.50097C104.94 6.64833 104.158 5.95281 103.244 5.47683C102.33 5.00086 101.312 4.75932 100.281 4.77389H57.6635C56.5339 4.80276 55.4316 5.12698 54.4663 5.71426C53.178 6.36312 53.366 5.71426 51.7016 5.14063C49.4071 4.2849 46.1534 4.74568 43.5486 4.74568C40.0598 4.74568 28.86 4.26609 26.2551 4.8115C23.9324 5.29109 23.2272 8.69523 25.5499 9.82368C27.8726 10.9521 49.125 8.67643 50.639 10.9239C51.2502 11.8643 50.9775 112.794 50.9305 132.025C50.9305 134.451 50.5825 137.667 53.8174 137.376C56.7232 137.159 56.2906 134.366 56.2906 131.733V42.699C56.2906 36.8969 55.6323 14.1588 56.6573 10.5948C57.4469 10.2912 58.2846 10.1319 59.1305 10.1246H99.3313C102.425 10.1246 101.663 12.0053 101.663 17.1304V121.182C101.663 126.364 102.284 156.258 101.269 158.619C97.3189 159.314 65.2147 158.854 58.5381 158.844C53.0369 158.844 59.2245 145.858 54.4663 144.344C48.3727 142.416 52.4069 154.584 50.4603 158.6L50.3098 158.844H7.39131C5.94314 158.844 5.51057 158.177 5.51057 156.747V12.1276C5.51057 8.95854 9.55416 10.4725 14.4159 10.134C18.2338 9.86129 18.0739 4.77389 14.1056 4.77389H6.77067C4.99143 4.82591 3.29934 5.55594 2.0407 6.81458C0.782048 8.07323 0.052016 9.76532 0 11.5446V157.631C0 160.96 3.28189 164.364 6.46035 164.364H49.3507C50.8517 164.288 52.3028 163.8 53.5447 162.954C54.7484 163.358 55.8204 164.364 57.3626 164.364H100.281C101.267 164.35 102.238 164.119 103.125 163.688C104.012 163.258 104.794 162.638 105.416 161.872C107.033 160.189 107.193 158.722 107.174 155.863C107.174 145.811 106.883 50.7862 107.174 48.0968C108.114 49.8082 111.876 74.1826 112.581 78.2921L125.596 154.293C126.028 156.851 126.273 159.446 127.373 161.364C130.74 167.232 139.504 163.668 146.5 162.465L159.872 160.17C163.277 159.578 176.583 157.876 178.915 156.258C183.701 152.948 181.896 148.792 181.003 143.695L173.48 99.7701C170.809 83.0786 167.612 66.6691 164.913 49.8082C163.587 41.533 162.092 33.2483 160.644 24.9636C159.891 20.7602 159.242 16.6508 158.49 12.4473C157.794 8.51657 157.55 3.35393 154.804 1.43557C151.249 -1.08462 147.657 0.325936 143.331 1.07823L105.519 7.50097Z" fill="white"/>
</g>
<g filter="url(#filter1_d_6988_1745)">
<path fill-rule="evenodd" clip-rule="evenodd" d="M66.2394 29.6278L91.7328 29.7407L91.6294 100.833L66.2394 100.729V29.6278ZM64.7818 24.3806C59.8825 25.4996 60.8511 30.1168 60.8511 35.3171V94.6921C60.8511 99.8829 59.8543 104.604 64.5373 106.033C66.5403 106.654 91.2533 106.644 93.4443 106.033C98.0992 104.81 97.2058 100.325 97.2058 95.2375V35.9377C97.2058 31.0666 98.0803 25.9134 93.7452 24.5122C91.8551 23.8822 67.1328 23.8822 64.7818 24.4182V24.3806Z" fill="white"/>
</g>
<g filter="url(#filter2_d_6988_1745)">
<path fill-rule="evenodd" clip-rule="evenodd" d="M15.4791 29.6279H39.7313H40.982V30.8786V99.6573L40.8409 100.805H15.4509V99.6573V29.6279H15.4791ZM13.9087 24.3712C9.11283 25.7066 9.96857 30.0135 9.96857 35.3171V94.6921C9.96857 99.6761 9.10343 104.679 13.6736 106.042C15.5074 106.588 40.6246 106.597 42.5806 106.042C47.2825 104.745 46.3421 100.522 46.3421 95.247V35.9378C46.3421 30.8974 47.2825 25.9981 42.9192 24.5217C41.1513 23.9104 15.9117 23.8446 13.9087 24.4088V24.3712Z" fill="white"/>
</g>
<g filter="url(#filter3_d_6988_1745)">
<path fill-rule="evenodd" clip-rule="evenodd" d="M131.943 100.381L120.028 30.3144C124.345 29.6373 128.379 28.9697 132.535 28.2174C135.751 27.6249 142.127 26.205 145.296 26.1956L157.22 96.2438C154.568 96.6011 152.039 97.1089 149.556 97.5133C147.073 97.9176 143.782 98.4536 144.854 101.566C145.795 104.209 149.161 103.118 151.747 102.685C155.828 101.989 163.173 102.027 162.702 96.0463C162.458 92.9055 154.107 45.5484 153.44 41.8621C149.528 20.1772 151.822 19.3685 139.334 21.5031C134.209 22.3777 129.329 23.1864 123.978 24.1268C117.856 25.2082 113.408 25.1424 114.866 32.797C116.822 43.141 118.326 53.4851 120.151 63.6881C121.975 73.8912 123.912 84.3763 125.436 94.4853C126.178 99.2906 126.376 106.315 131.933 106.042C134.162 105.93 137.745 105.544 137.867 102.949C138.065 99.3 134.679 100.381 131.943 100.381Z" fill="white"/>
</g>
<g filter="url(#filter4_d_6988_1745)">
<path fill-rule="evenodd" clip-rule="evenodd" d="M154.023 124.286C161.245 123.054 163.427 130.257 160.709 133.689C159.026 135.824 157.644 135.993 154.446 136.51C151.757 136.962 149.293 137.394 146.632 137.865C140.2 138.984 136.335 132.73 139.852 128.461C141.629 126.289 142.805 126.195 146.162 125.64C148.785 125.217 151.277 124.775 154.023 124.314V124.286ZM154.155 118.766C145.748 119.951 136.711 120.054 133.881 128.019C132.479 131.968 133.41 137.075 135.827 139.435C138.789 142.313 141.469 144.137 146.66 143.385C154.776 142.209 163.86 141.993 166.634 134.028C167.321 132.16 167.509 130.144 167.179 128.181C166.849 126.218 166.013 124.374 164.753 122.833C163.493 121.292 161.852 120.106 159.994 119.393C158.135 118.68 156.123 118.463 154.155 118.766Z" fill="white"/>
</g>
<g filter="url(#filter5_d_6988_1745)">
<path fill-rule="evenodd" clip-rule="evenodd" d="M72.8039 128.066C75.3805 127.699 78.7 127.972 81.4741 127.972C84.4551 127.972 87.0129 127.755 88.6962 129.542C89.5937 130.37 90.2288 131.443 90.523 132.628C90.8171 133.813 90.7574 135.058 90.3512 136.209C88.4141 141.447 82.0948 140.093 76.4714 140.103C73.2741 140.103 71.1018 140.309 69.2023 138.438C68.3753 137.637 67.7946 136.616 67.5286 135.496C67.2626 134.376 67.3224 133.204 67.701 132.116C68.0795 131.029 68.761 130.073 69.6652 129.36C70.5693 128.647 71.6584 128.208 72.8039 128.094V128.066ZM73.2365 145.613H84.709C90.4735 145.613 96.1439 140.573 96.1439 134.996V133.228C96.1439 128.132 91.3574 123.505 86.9753 122.772C82.5932 122.038 72.0516 122.019 68.6099 123.599C57.1373 128.875 61.5007 145.613 73.2365 145.613Z" fill="white"/>
</g>
<g filter="url(#filter6_d_6988_1745)">
<path fill-rule="evenodd" clip-rule="evenodd" d="M22.3805 140.103C15.3466 140.103 13.9172 128.63 22.437 128C26.4017 127.76 30.3773 127.76 34.342 128C42.448 128.94 41.0563 140.074 34.1446 140.074L22.3805 140.103ZM11.0961 133.52C11.0961 140.78 16.4938 145.604 22.3805 145.604H33.8625C36.4275 145.559 38.9079 144.678 40.9262 143.094C42.9444 141.511 44.3902 139.311 45.0435 136.83C45.6674 134.248 45.3835 131.53 44.2396 129.132C43.0957 126.735 41.1614 124.804 38.7618 123.665C35.6304 122.113 24.3271 122.104 20.3869 122.809C15.6663 123.59 11.0679 128.103 11.0679 133.529L11.0961 133.52Z" fill="white"/>
</g>
<g filter="url(#filter7_d_6988_1745)">
<path fill-rule="evenodd" clip-rule="evenodd" d="M72.9352 45.8399C70.4902 47.053 71.2519 50.617 71.2519 55.0461V77.0884C71.2519 78.5554 70.3774 85.7116 75.0134 83.9061C77.6558 82.8905 76.7343 77.7185 76.7343 74.7375C76.7343 71.512 77.0352 48.8303 76.471 47.3539C76.3494 47.0139 76.1589 46.7028 75.9116 46.4398C75.6642 46.1768 75.3652 45.9677 75.0333 45.8256C74.7014 45.6835 74.3438 45.6114 73.9827 45.6139C73.6217 45.6163 73.2651 45.6933 72.9352 45.8399Z" fill="white"/>
</g>
<g filter="url(#filter8_d_6988_1745)">
<path fill-rule="evenodd" clip-rule="evenodd" d="M81.333 48.8773V80.9157C81.333 85.3731 86.853 85.1568 86.853 80.9157V48.8773C86.853 44.3353 81.333 44.5422 81.333 48.8773Z" fill="white"/>
</g>
<g filter="url(#filter9_d_6988_1745)">
<path fill-rule="evenodd" clip-rule="evenodd" d="M20.3687 48.5763V81.2072C20.3687 84.9028 25.8792 85.4012 25.8792 80.9156V48.8772C25.8792 44.4105 20.3687 44.7208 20.3687 48.5763Z" fill="white"/>
</g>
<g filter="url(#filter10_d_6988_1745)">
<path fill-rule="evenodd" clip-rule="evenodd" d="M139.936 43.1974C136.814 44.2318 138.309 47.7582 139.052 52.1216L142.654 73.2235C143.18 76.1104 143.096 82.1194 147.224 80.8593C150.318 79.9189 148.465 74.8127 147.967 71.7471L144.365 50.6452C143.886 47.8241 143.886 41.9091 139.936 43.1974Z" fill="white"/>
</g>
<g filter="url(#filter11_d_6988_1745)">
<path fill-rule="evenodd" clip-rule="evenodd" d="M129.836 44.8807C126.714 46.1878 128.67 51.0401 129.121 53.8424C129.676 57.3594 130.306 60.8388 130.927 64.3746C131.547 67.9103 132.093 71.2957 132.723 74.9255C133.231 77.7936 133.193 83.671 137.218 82.6083C140.396 81.7714 138.506 76.2044 138.017 73.4209C137.415 69.951 136.757 66.3117 136.212 62.9264C135.619 59.3248 135.036 55.8736 134.415 52.3754C133.917 49.639 133.804 43.2256 129.836 44.8807Z" fill="white"/>
</g>
<g filter="url(#filter12_d_6988_1745)">
<path fill-rule="evenodd" clip-rule="evenodd" d="M32.9217 54.3126C29.9407 54.9803 30.6366 57.8296 30.6366 60.8952C30.6366 63.5188 30.3075 81.5834 30.8999 82.693C31.1776 83.1913 31.6046 83.59 32.1208 83.8329C32.637 84.0759 33.2164 84.1508 33.7774 84.0471C36.5985 83.5111 35.9873 80.3421 35.9873 77.3517C35.9873 74.5306 36.4011 57.0303 35.5923 55.6574C35.3179 55.2055 34.922 54.8398 34.4498 54.6021C33.9776 54.3643 33.4481 54.264 32.9217 54.3126Z" fill="white"/>
</g>
<defs>
<filter id="filter0_d_6988_1745" x="0" y="0" width="185.09" height="168.64" filterUnits="userSpaceOnUse" color-interpolation-filters="sRGB">
<feFlood flood-opacity="0" result="BackgroundImageFix"/>
<feColorMatrix in="SourceAlpha" type="matrix" values="0 0 0 0 0 0 0 0 0 0 0 0 0 0 0 0 0 0 127 0" result="hardAlpha"/>
<feOffset dx="3" dy="4"/>
<feComposite in2="hardAlpha" operator="out"/>
<feColorMatrix type="matrix" values="0 0 0 0 0.054902 0 0 0 0 0.0823529 0 0 0 0 0.172549 0 0 0 0.5 0"/>
<feBlend mode="normal" in2="BackgroundImageFix" result="effect1_dropShadow_6988_1745"/>
<feBlend mode="normal" in="SourceGraphic" in2="effect1_dropShadow_6988_1745" result="shape"/>
</filter>
<filter id="filter1_d_6988_1745" x="60.7622" y="24.0272" width="39.5161" height="86.4677" filterUnits="userSpaceOnUse" color-interpolation-filters="sRGB">
<feFlood flood-opacity="0" result="BackgroundImageFix"/>
<feColorMatrix in="SourceAlpha" type="matrix" values="0 0 0 0 0 0 0 0 0 0 0 0 0 0 0 0 0 0 127 0" result="hardAlpha"/>
<feOffset dx="3" dy="4"/>
<feComposite in2="hardAlpha" operator="out"/>
<feColorMatrix type="matrix" values="0 0 0 0 0.054902 0 0 0 0 0.0823529 0 0 0 0 0.172549 0 0 0 0.5 0"/>
<feBlend mode="normal" in2="BackgroundImageFix" result="effect1_dropShadow_6988_1745"/>
<feBlend mode="normal" in="SourceGraphic" in2="effect1_dropShadow_6988_1745" result="shape"/>
</filter>
<filter id="filter2_d_6988_1745" x="9.90332" y="24.0219" width="39.5239" height="86.4331" filterUnits="userSpaceOnUse" color-interpolation-filters="sRGB">
<feFlood flood-opacity="0" result="BackgroundImageFix"/>
<feColorMatrix in="SourceAlpha" type="matrix" values="0 0 0 0 0 0 0 0 0 0 0 0 0 0 0 0 0 0 127 0" result="hardAlpha"/>
<feOffset dx="3" dy="4"/>
<feComposite in2="hardAlpha" operator="out"/>
<feColorMatrix type="matrix" values="0 0 0 0 0.054902 0 0 0 0 0.0823529 0 0 0 0 0.172549 0 0 0 0.5 0"/>
<feBlend mode="normal" in2="BackgroundImageFix" result="effect1_dropShadow_6988_1745"/>
<feBlend mode="normal" in="SourceGraphic" in2="effect1_dropShadow_6988_1745" result="shape"/>
</filter>
<filter id="filter3_d_6988_1745" x="114.587" y="20.7125" width="51.1367" height="89.3376" filterUnits="userSpaceOnUse" color-interpolation-filters="sRGB">
<feFlood flood-opacity="0" result="BackgroundImageFix"/>
<feColorMatrix in="SourceAlpha" type="matrix" values="0 0 0 0 0 0 0 0 0 0 0 0 0 0 0 0 0 0 127 0" result="hardAlpha"/>
<feOffset dx="3" dy="4"/>
<feComposite in2="hardAlpha" operator="out"/>
<feColorMatrix type="matrix" values="0 0 0 0 0.054902 0 0 0 0 0.0823529 0 0 0 0 0.172549 0 0 0 0.5 0"/>
<feBlend mode="normal" in2="BackgroundImageFix" result="effect1_dropShadow_6988_1745"/>
<feBlend mode="normal" in="SourceGraphic" in2="effect1_dropShadow_6988_1745" result="shape"/>
</filter>
<filter id="filter4_d_6988_1745" x="133.224" y="118.633" width="37.1133" height="28.9215" filterUnits="userSpaceOnUse" color-interpolation-filters="sRGB">
<feFlood flood-opacity="0" result="BackgroundImageFix"/>
<feColorMatrix in="SourceAlpha" type="matrix" values="0 0 0 0 0 0 0 0 0 0 0 0 0 0 0 0 0 0 127 0" result="hardAlpha"/>
<feOffset dx="3" dy="4"/>
<feComposite in2="hardAlpha" operator="out"/>
<feColorMatrix type="matrix" values="0 0 0 0 0.054902 0 0 0 0 0.0823529 0 0 0 0 0.172549 0 0 0 0.5 0"/>
<feBlend mode="normal" in2="BackgroundImageFix" result="effect1_dropShadow_6988_1745"/>
<feBlend mode="normal" in="SourceGraphic" in2="effect1_dropShadow_6988_1745" result="shape"/>
</filter>
<filter id="filter5_d_6988_1745" x="61.9009" y="122.291" width="37.2432" height="27.3224" filterUnits="userSpaceOnUse" color-interpolation-filters="sRGB">
<feFlood flood-opacity="0" result="BackgroundImageFix"/>
<feColorMatrix in="SourceAlpha" type="matrix" values="0 0 0 0 0 0 0 0 0 0 0 0 0 0 0 0 0 0 127 0" result="hardAlpha"/>
<feOffset dx="3" dy="4"/>
<feComposite in2="hardAlpha" operator="out"/>
<feColorMatrix type="matrix" values="0 0 0 0 0.054902 0 0 0 0 0.0823529 0 0 0 0 0.172549 0 0 0 0.5 0"/>
<feBlend mode="normal" in2="BackgroundImageFix" result="effect1_dropShadow_6988_1745"/>
<feBlend mode="normal" in="SourceGraphic" in2="effect1_dropShadow_6988_1745" result="shape"/>
</filter>
<filter id="filter6_d_6988_1745" x="11.0679" y="122.359" width="37.2993" height="27.2449" filterUnits="userSpaceOnUse" color-interpolation-filters="sRGB">
<feFlood flood-opacity="0" result="BackgroundImageFix"/>
<feColorMatrix in="SourceAlpha" type="matrix" values="0 0 0 0 0 0 0 0 0 0 0 0 0 0 0 0 0 0 127 0" result="hardAlpha"/>
<feOffset dx="3" dy="4"/>
<feComposite in2="hardAlpha" operator="out"/>
<feColorMatrix type="matrix" values="0 0 0 0 0.054902 0 0 0 0 0.0823529 0 0 0 0 0.172549 0 0 0 0.5 0"/>
<feBlend mode="normal" in2="BackgroundImageFix" result="effect1_dropShadow_6988_1745"/>
<feBlend mode="normal" in="SourceGraphic" in2="effect1_dropShadow_6988_1745" result="shape"/>
</filter>
<filter id="filter7_d_6988_1745" x="71.1396" y="45.6138" width="8.75" height="42.5823" filterUnits="userSpaceOnUse" color-interpolation-filters="sRGB">
<feFlood flood-opacity="0" result="BackgroundImageFix"/>
<feColorMatrix in="SourceAlpha" type="matrix" values="0 0 0 0 0 0 0 0 0 0 0 0 0 0 0 0 0 0 127 0" result="hardAlpha"/>
<feOffset dx="3" dy="4"/>
<feComposite in2="hardAlpha" operator="out"/>
<feColorMatrix type="matrix" values="0 0 0 0 0.054902 0 0 0 0 0.0823529 0 0 0 0 0.172549 0 0 0 0.5 0"/>
<feBlend mode="normal" in2="BackgroundImageFix" result="effect1_dropShadow_6988_1745"/>
<feBlend mode="normal" in="SourceGraphic" in2="effect1_dropShadow_6988_1745" result="shape"/>
</filter>
<filter id="filter8_d_6988_1745" x="81.333" y="45.5479" width="8.52002" height="42.6302" filterUnits="userSpaceOnUse" color-interpolation-filters="sRGB">
<feFlood flood-opacity="0" result="BackgroundImageFix"/>
<feColorMatrix in="SourceAlpha" type="matrix" values="0 0 0 0 0 0 0 0 0 0 0 0 0 0 0 0 0 0 127 0" result="hardAlpha"/>
<feOffset dx="3" dy="4"/>
<feComposite in2="hardAlpha" operator="out"/>
<feColorMatrix type="matrix" values="0 0 0 0 0.054902 0 0 0 0 0.0823529 0 0 0 0 0.172549 0 0 0 0.5 0"/>
<feBlend mode="normal" in2="BackgroundImageFix" result="effect1_dropShadow_6988_1745"/>
<feBlend mode="normal" in="SourceGraphic" in2="effect1_dropShadow_6988_1745" result="shape"/>
</filter>
<filter id="filter9_d_6988_1745" x="20.3687" y="45.6059" width="8.51074" height="42.5239" filterUnits="userSpaceOnUse" color-interpolation-filters="sRGB">
<feFlood flood-opacity="0" result="BackgroundImageFix"/>
<feColorMatrix in="SourceAlpha" type="matrix" values="0 0 0 0 0 0 0 0 0 0 0 0 0 0 0 0 0 0 127 0" result="hardAlpha"/>
<feOffset dx="3" dy="4"/>
<feComposite in2="hardAlpha" operator="out"/>
<feColorMatrix type="matrix" values="0 0 0 0 0.054902 0 0 0 0 0.0823529 0 0 0 0 0.172549 0 0 0 0.5 0"/>
<feBlend mode="normal" in2="BackgroundImageFix" result="effect1_dropShadow_6988_1745"/>
<feBlend mode="normal" in="SourceGraphic" in2="effect1_dropShadow_6988_1745" result="shape"/>
</filter>
<filter id="filter10_d_6988_1745" x="138.036" y="43.0164" width="13.936" height="42.0141" filterUnits="userSpaceOnUse" color-interpolation-filters="sRGB">
<feFlood flood-opacity="0" result="BackgroundImageFix"/>
<feColorMatrix in="SourceAlpha" type="matrix" values="0 0 0 0 0 0 0 0 0 0 0 0 0 0 0 0 0 0 127 0" result="hardAlpha"/>
<feOffset dx="3" dy="4"/>
<feComposite in2="hardAlpha" operator="out"/>
<feColorMatrix type="matrix" values="0 0 0 0 0.054902 0 0 0 0 0.0823529 0 0 0 0 0.172549 0 0 0 0.5 0"/>
<feBlend mode="normal" in2="BackgroundImageFix" result="effect1_dropShadow_6988_1745"/>
<feBlend mode="normal" in="SourceGraphic" in2="effect1_dropShadow_6988_1745" result="shape"/>
</filter>
<filter id="filter11_d_6988_1745" x="128.102" y="44.6117" width="13.9194" height="42.1235" filterUnits="userSpaceOnUse" color-interpolation-filters="sRGB">
<feFlood flood-opacity="0" result="BackgroundImageFix"/>
<feColorMatrix in="SourceAlpha" type="matrix" values="0 0 0 0 0 0 0 0 0 0 0 0 0 0 0 0 0 0 127 0" result="hardAlpha"/>
<feOffset dx="3" dy="4"/>
<feComposite in2="hardAlpha" operator="out"/>
<feColorMatrix type="matrix" values="0 0 0 0 0.054902 0 0 0 0 0.0823529 0 0 0 0 0.172549 0 0 0 0.5 0"/>
<feBlend mode="normal" in2="BackgroundImageFix" result="effect1_dropShadow_6988_1745"/>
<feBlend mode="normal" in="SourceGraphic" in2="effect1_dropShadow_6988_1745" result="shape"/>
</filter>
<filter id="filter12_d_6988_1745" x="30.5454" y="54.3007" width="8.54785" height="33.7918" filterUnits="userSpaceOnUse" color-interpolation-filters="sRGB">
<feFlood flood-opacity="0" result="BackgroundImageFix"/>
<feColorMatrix in="SourceAlpha" type="matrix" values="0 0 0 0 0 0 0 0 0 0 0 0 0 0 0 0 0 0 127 0" result="hardAlpha"/>
<feOffset dx="3" dy="4"/>
<feComposite in2="hardAlpha" operator="out"/>
<feColorMatrix type="matrix" values="0 0 0 0 0.054902 0 0 0 0 0.0823529 0 0 0 0 0.172549 0 0 0 0.5 0"/>
<feBlend mode="normal" in2="BackgroundImageFix" result="effect1_dropShadow_6988_1745"/>
<feBlend mode="normal" in="SourceGraphic" in2="effect1_dropShadow_6988_1745" result="shape"/>
</filter>
</defs>
</svg>
