<svg width="167" height="187" viewBox="0 0 167 187" fill="none" xmlns="http://www.w3.org/2000/svg">
<g filter="url(#filter0_d_6988_951)">
<path fill-rule="evenodd" clip-rule="evenodd" d="M112.33 131.199C113.986 131.449 126.285 135.739 128.586 136.593C135.011 138.978 137.209 141.217 142.124 145.091C144.873 147.277 149.57 154.328 151.267 157.639C153.987 162.999 155.629 168.84 156.099 174.832H88.4309C89.2016 172.312 98.9175 158.91 101.573 154.182C106.894 144.716 108.352 141.29 112.33 131.199ZM51.0145 131.199C54.0241 137.905 55.0758 141.612 58.7831 148.61C63.3964 157.295 66.7809 161.784 71.894 169.521C73.1049 171.2 74.1808 172.973 75.1118 174.822H7.42273C7.71431 163.929 14.0979 152.037 21.45 145.288C25.4697 141.592 28.8021 138.78 34.5504 136.687C37.1539 135.729 39.8614 134.802 42.6419 133.917C45.4223 133.031 48.3694 131.834 51.0457 131.199H51.0145ZM68.9261 151.693C69.1448 152.047 69.2177 152.432 69.5925 153.036L78.6212 166.574C79.4335 167.834 80.6102 170.552 81.7974 171.291C82.9681 169.702 84.0359 168.039 84.9944 166.314C86.0358 164.648 86.973 163.138 88.1706 161.555C89.3682 159.972 90.4408 158.431 91.5134 156.681C92.3153 155.411 94.2001 152.911 94.4605 151.662L84.8486 141.862C83.8282 140.693 82.7061 139.616 81.4954 138.645C80.1521 139.342 71.3941 149.058 68.9261 151.662V151.693ZM98.2198 144.924C99.4695 143.883 105.509 129.647 106.009 127.491C106.311 126.033 102.302 118.692 101.521 117.442C101.052 117.703 87.7332 131.386 86.5148 133.219C86.9939 134.187 97.2305 144.435 98.2198 144.924ZM61.6052 118.619C60.5639 119.421 58.8664 123.388 58.075 125.044C57.2836 126.7 57.169 126.679 57.7938 128.46L61.9593 138.665C62.605 139.977 62.8861 140.821 63.5318 142.071C64.7189 144.362 64.2295 144.466 65.4791 144.955L76.0386 133.5C75.4971 132.282 70.1028 127.127 68.8324 125.909C67.5619 124.69 66.3643 123.451 65.1667 122.232C63.9691 121.014 62.3654 119.525 61.5844 118.609L61.6052 118.619ZM75.0493 100.624C70.0508 100.624 69.5613 93.5531 75.3409 93.5531H81.2455C86.4523 93.5531 86.7335 100.624 80.9539 100.624H75.0493ZM119.026 79.2447C119.078 75.6936 119.953 71.8926 120.12 68.3832C120.297 64.5614 120.516 60.7187 120.818 56.9281H127.826C127.826 81.015 129.503 79.2343 119.026 79.2343V79.2447ZM44.3497 79.2447C37.1851 79.2447 35.5397 80.2861 35.5501 72.507C35.5501 67.9042 35.1753 61.5102 35.6126 57.126C37.2059 56.6261 40.7258 56.9177 42.5586 56.9385C42.8814 60.5104 43.0897 64.3323 43.2771 68.102C43.4646 71.8718 44.381 75.6624 44.3185 79.2447H44.3497ZM64.4482 93.5427C67.2703 86.8259 71.4462 86.3156 80.0687 86.3156C93.0859 86.3156 95.3456 98.9474 89.0141 104.914C86.8064 106.997 84.38 107.716 80.3603 107.705C75.0077 107.705 67.3119 108.674 64.6044 100.634H57.596C58.856 103.863 62.2821 106.716 64.7189 108.965C70.7068 114.453 81.3809 115.995 89.1599 113.902C100.761 110.777 108.207 100.468 110.331 88.3879C111.247 83.1811 112.622 73.3297 112.903 67.8209C113.018 65.6652 113.465 62.614 113.361 60.6458C110.935 60.021 108.071 59.7607 105.624 59.3337C98.5967 58.0334 91.8356 55.5698 85.6192 52.0441C81.7977 49.903 78.2338 47.3314 74.9973 44.3796C72.8312 42.3906 71.8003 42.6718 68.1555 43.6715C65.8512 44.2933 63.6511 45.2512 61.6261 46.5144C57.0128 49.3365 55.7527 51.5547 52.5245 55.5952C49.4004 59.4691 49.9835 58.8651 50.1502 62.2495C50.2751 64.9779 50.5563 67.9146 50.7854 70.7055C51.0457 73.8296 52.8681 88.8982 53.9095 92.4597C54.2532 93.6052 53.9095 93.4178 55.0758 93.574C56.992 93.8447 62.178 93.574 64.4482 93.574V93.5427ZM50.0044 46.8268C50.8683 39.9368 54.1576 33.5795 59.283 28.8944C66.9891 21.7194 74.6849 21.407 84.7132 21.407C96.1683 21.407 104.343 27.5198 109.238 35.0906C112.841 40.6515 113.674 46.1604 113.674 53.1063C111.247 53.3875 104.02 51.6276 101.583 51.0236C94.6588 49.0529 88.1732 45.7801 82.4743 41.3805C79.246 38.8395 77.1633 35.6113 74.1433 35.6113C69.1753 35.7071 64.2979 36.9586 59.8974 39.2665C53.2639 42.6822 52.1912 45.4314 49.994 46.8789L50.0044 46.8268ZM36.6228 49.8572C35.4148 49.8572 35.7064 49.3886 35.8834 48.014C36.512 42.8248 38.0044 37.7774 40.2988 33.0807C44.5997 24.1354 53.5034 15.0754 62.6154 11.3994C68.0722 9.2021 73.9246 7.23391 80.6207 7.23391C90.5345 7.23391 100.001 9.71238 107.634 15.2629C109.362 16.5229 112.414 18.5849 113.632 20.1157C114.736 21.4799 115.277 21.5111 116.381 22.9378C119.12 26.4784 120.63 27.8947 122.984 32.7683C124.473 35.8924 127.951 45.4106 127.524 48.9825L127.305 49.7843C118.974 50.43 120.963 49.3053 120.641 46.5561C119.599 38.0168 116.538 31.8519 111.091 25.5933C108.142 22.5965 104.749 20.0712 101.032 18.1058C97.7512 16.45 91.555 14.3361 87.3896 14.3361C77.2779 14.3361 71.769 13.4509 62.3967 18.1475C54.9064 21.9668 48.9787 28.2737 45.6306 35.9862C42.3711 43.5569 43.5479 45.6397 42.5065 49.8572H36.6228ZM35.5814 86.3052C35.5814 91.7307 35.3523 94.0322 38.5285 97.3229C41.7047 100.614 43.8395 100.624 49.3483 100.634C50.5563 104.352 54.6697 109.319 56.7941 111.558C55.3674 114.079 53.8366 117.411 52.5661 120.098C51.9934 121.326 51.5248 123.295 49.9315 123.899C48.0987 124.628 46.5783 124.992 44.8496 125.565C33.0404 129.543 24.0222 131.99 15.0456 141.248C14.3478 141.966 14.2333 142.289 13.5876 143.029C6.33915 151.227 1.73339 161.422 0.372645 172.281C-1.00196 184.204 0.830847 181.913 16.1182 181.913H133.793C142.447 181.913 151.298 182.101 159.921 181.913C164.368 181.83 163.743 176.79 163.201 172.718C162.797 169.042 162.004 165.418 160.837 161.909C156.807 149.964 148.539 138.999 137.657 132.875C131.002 129.106 121.755 126.627 113.924 124.034C112.174 123.44 112.778 123.565 111.164 120.368L106.874 111.517C112.341 104.654 115.934 99.5723 117.402 90.127C117.662 88.4712 117.61 86.7321 118.537 86.4822C125.743 86.4822 129.326 86.7842 132.95 82.2126C136.074 78.3075 135.147 71.299 135.147 65.4674C135.147 54.6475 135.824 42.3698 130.721 32.1435C127.326 25.3746 126.42 23.6147 121.494 17.8871C118.287 14.1694 118.943 15.3878 116.787 13.201C115.943 12.3764 115.023 11.6337 114.038 10.9828C106.136 4.88453 96.6701 1.14451 86.7335 0.194246C75.9915 -0.713259 65.2208 1.57275 55.7736 6.7653C47.8117 11.1791 41.1253 17.5749 36.3624 25.3329C26.8026 40.412 28.2605 56.5741 28.3126 74.2774C28.3126 78.6095 29.354 81.7127 32.5406 84.2225C33.3945 84.8993 34.8941 85.2222 35.5501 86.3052H35.5814Z" fill="white"/>
</g>
<g filter="url(#filter1_d_6988_951)">
<path fill-rule="evenodd" clip-rule="evenodd" d="M132.272 147.798C131.748 147.941 131.266 148.207 130.865 148.572C130.464 148.938 130.155 149.394 129.965 149.903C129.775 150.412 129.708 150.958 129.771 151.497C129.833 152.037 130.023 152.553 130.324 153.005C131.314 154.713 134.417 155.619 138.332 162.294C139.322 163.981 140.686 166.387 143.404 165.418C150.694 162.919 139.395 151.172 135.562 148.319C135.102 147.963 134.559 147.728 133.984 147.637C133.409 147.546 132.82 147.602 132.272 147.798Z" fill="white"/>
</g>
<g filter="url(#filter2_d_6988_951)">
<path fill-rule="evenodd" clip-rule="evenodd" d="M119.557 141.04C115.183 142.768 117.63 149.298 122.056 147.683C126.482 146.069 123.941 139.29 119.557 141.04Z" fill="white"/>
</g>
<defs>
<filter id="filter0_d_6988_951" x="0" y="0" width="166.58" height="186.09" filterUnits="userSpaceOnUse" color-interpolation-filters="sRGB">
<feFlood flood-opacity="0" result="BackgroundImageFix"/>
<feColorMatrix in="SourceAlpha" type="matrix" values="0 0 0 0 0 0 0 0 0 0 0 0 0 0 0 0 0 0 127 0" result="hardAlpha"/>
<feOffset dx="3" dy="4"/>
<feComposite in2="hardAlpha" operator="out"/>
<feColorMatrix type="matrix" values="0 0 0 0 0.054902 0 0 0 0 0.0823529 0 0 0 0 0.172549 0 0 0 0.5 0"/>
<feBlend mode="normal" in2="BackgroundImageFix" result="effect1_dropShadow_6988_951"/>
<feBlend mode="normal" in="SourceGraphic" in2="effect1_dropShadow_6988_951" result="shape"/>
</filter>
<filter id="filter1_d_6988_951" x="129.748" y="147.595" width="19.0537" height="22.0459" filterUnits="userSpaceOnUse" color-interpolation-filters="sRGB">
<feFlood flood-opacity="0" result="BackgroundImageFix"/>
<feColorMatrix in="SourceAlpha" type="matrix" values="0 0 0 0 0 0 0 0 0 0 0 0 0 0 0 0 0 0 127 0" result="hardAlpha"/>
<feOffset dx="3" dy="4"/>
<feComposite in2="hardAlpha" operator="out"/>
<feColorMatrix type="matrix" values="0 0 0 0 0.054902 0 0 0 0 0.0823529 0 0 0 0 0.172549 0 0 0 0.5 0"/>
<feBlend mode="normal" in2="BackgroundImageFix" result="effect1_dropShadow_6988_951"/>
<feBlend mode="normal" in="SourceGraphic" in2="effect1_dropShadow_6988_951" result="shape"/>
</filter>
<filter id="filter2_d_6988_951" x="117.258" y="140.753" width="10.1094" height="11.1843" filterUnits="userSpaceOnUse" color-interpolation-filters="sRGB">
<feFlood flood-opacity="0" result="BackgroundImageFix"/>
<feColorMatrix in="SourceAlpha" type="matrix" values="0 0 0 0 0 0 0 0 0 0 0 0 0 0 0 0 0 0 127 0" result="hardAlpha"/>
<feOffset dx="3" dy="4"/>
<feComposite in2="hardAlpha" operator="out"/>
<feColorMatrix type="matrix" values="0 0 0 0 0.054902 0 0 0 0 0.0823529 0 0 0 0 0.172549 0 0 0 0.5 0"/>
<feBlend mode="normal" in2="BackgroundImageFix" result="effect1_dropShadow_6988_951"/>
<feBlend mode="normal" in="SourceGraphic" in2="effect1_dropShadow_6988_951" result="shape"/>
</filter>
</defs>
</svg>
