<svg width="186" height="187" viewBox="0 0 186 187" fill="none" xmlns="http://www.w3.org/2000/svg">
<g filter="url(#filter0_d_6988_808)">
<path fill-rule="evenodd" clip-rule="evenodd" d="M137.852 103.05C141.97 102.584 149.343 104.439 152.75 105.99C156.66 107.724 160.218 110.16 163.25 113.177C186.583 136.312 169.025 173.936 139.473 174.053C123.735 174.123 112.57 166.085 106.375 153.753C99.8772 140.827 103.004 123.619 113.002 113.655C116.062 110.675 119.589 108.216 123.444 106.375C129.113 103.925 131.12 103.809 137.828 103.05H137.852ZM136.358 39.6429C125.264 39.6429 111.404 42.2795 110.774 26.8097C110.634 23.2164 110.552 17.6865 110.774 14.1632C111.847 14.3498 116.117 19.1214 117.225 20.2181C120.317 23.2981 135.763 38.3479 136.3 39.6079L136.358 39.6429ZM8.02659 19.9264V162.328C8.02659 168.488 13.2649 173.995 19.3081 173.995C50.1778 173.995 82.3074 174.275 113.049 173.995C112.139 172.933 110.925 172.315 109.782 171.16C107.367 168.826 106.142 168.08 103.447 164.276C92.2823 148.573 91.9323 128.53 103.284 112.874C106.413 108.729 110.191 105.116 114.472 102.175C124.89 95.9339 129.837 95.0706 142.472 95.0706C142.472 85.4807 142.892 55.101 142.227 47.7394C132.963 46.2695 121.705 49.7578 113.632 45.4061C100.601 38.4062 102.817 25.468 102.817 10.4882C102.817 9.32156 103.167 9.47322 102.724 8.38823C100.134 7.65324 28.443 8.1199 19.3548 8.1199C13.2649 8.1199 8.07325 13.7082 8.07325 19.8564L8.02659 19.9264ZM137.758 182.243C148.321 182.358 158.569 178.654 166.618 171.814C174.667 164.974 179.976 155.457 181.566 145.015C183.538 132.473 179.711 121.682 173.971 113.27C165.28 100.437 151.957 97.6022 150.475 96.4822C149.857 84.8857 150.475 71.6442 150.475 59.8726C150.475 42.9562 150.475 41.9528 140.943 32.4213L120.049 11.5849C113.749 5.27327 109.479 0 99.5389 0H20.6848C7.76992 0 -0.0116534 9.41488 1.30998e-05 21.3031V161.301C1.30998e-05 172.968 8.16658 182.243 20.6031 182.243H137.758Z" fill="white"/>
</g>
<g filter="url(#filter1_d_6988_808)">
<path fill-rule="evenodd" clip-rule="evenodd" d="M66.3134 55.6843C63.9801 56.4776 62.4867 58.5193 63.7584 61.2726C64.925 63.8392 67.3517 63.4775 70.7583 63.4775C79.0999 63.4775 122.091 63.8975 124.121 63.2209C124.651 63.007 125.131 62.6848 125.529 62.275C125.927 61.8651 126.236 61.3766 126.435 60.8407C126.633 60.3049 126.718 59.7334 126.683 59.1629C126.648 58.5924 126.495 58.0354 126.233 57.5276C125.066 55.2526 122.581 55.4626 119.384 55.4626C111.264 55.4743 68.0167 55.101 66.3134 55.6843Z" fill="white"/>
</g>
<g filter="url(#filter2_d_6988_808)">
<path fill-rule="evenodd" clip-rule="evenodd" d="M126.594 83.4858C126.594 77.4308 118.626 79.2975 112.384 79.2975H76.9531C72.1115 79.2975 62.4866 77.4892 63.3732 83.8124C64.0499 88.6074 72.7064 87.114 77.3031 87.114C89.7279 87.114 110.086 86.6941 121.636 87.114C123.888 87.254 126.594 86.3674 126.594 83.4858Z" fill="white"/>
</g>
<g filter="url(#filter3_d_6988_808)">
<path fill-rule="evenodd" clip-rule="evenodd" d="M132.533 144.07C128.718 141.468 124.88 134.807 121.426 134.807C120.816 134.779 120.207 134.898 119.652 135.154C119.097 135.41 118.611 135.795 118.235 136.277C117.859 136.759 117.604 137.324 117.492 137.925C117.379 138.525 117.412 139.145 117.588 139.73C118.031 141.702 130.036 153.065 130.736 153.438C133.594 154.931 135.204 152.82 136.441 151.677C138.424 149.845 157.872 130.607 158.537 129.312C158.818 128.803 158.979 128.238 159.01 127.659C159.041 127.079 158.94 126.5 158.716 125.965C158.492 125.43 158.149 124.953 157.714 124.568C157.279 124.184 156.763 123.903 156.204 123.747C153.253 122.872 151.678 125.17 150.429 126.43C148.143 128.705 133.863 143.312 132.533 144.07Z" fill="white"/>
</g>
<g filter="url(#filter4_d_6988_808)">
<path fill-rule="evenodd" clip-rule="evenodd" d="M35.6189 132.683C33.5423 130.992 30.3573 125.684 26.2857 126.955C25.3282 127.323 24.5503 128.047 24.1152 128.976C23.6802 129.905 23.6218 130.966 23.9524 131.937C24.3957 133.418 26.4374 135.215 27.3824 136.16C36.3656 145.073 35.1639 144.677 44.4038 135.355C46.1188 133.617 55.1137 125.509 55.4054 123.374C55.802 120.574 52.6987 115.744 47.1105 121.39C44.9755 123.56 36.9023 131.925 35.6189 132.683Z" fill="white"/>
</g>
<g filter="url(#filter5_d_6988_808)">
<path fill-rule="evenodd" clip-rule="evenodd" d="M35.6197 93.2273C33.9514 91.5123 32.0381 89.0857 29.9264 87.7907C29.3357 87.372 28.639 87.1279 27.9161 87.0862C27.1932 87.0444 26.4732 87.2068 25.8382 87.5547C25.2031 87.9027 24.6787 88.4221 24.3248 89.0538C23.9708 89.6856 23.8016 90.404 23.8365 91.1273C23.8365 93.7989 27.4298 96.4706 28.8531 97.8939C35.853 104.894 35.678 105.535 46.0729 94.2773C47.7179 92.4923 54.9628 86.3907 55.4062 84.1041C55.5454 83.4728 55.5292 82.8171 55.3589 82.1935C55.1887 81.5699 54.8694 80.997 54.4286 80.5241C53.9879 80.0512 53.4388 79.6925 52.8287 79.4788C52.2186 79.2651 51.5657 79.2029 50.9262 79.2974C47.9979 79.5658 38.7697 91.769 35.6197 93.2273Z" fill="white"/>
</g>
<g filter="url(#filter6_d_6988_808)">
<path fill-rule="evenodd" clip-rule="evenodd" d="M35.6185 53.6193C33.5418 52.021 30.2635 46.6194 26.4019 47.786C25.4256 48.1234 24.6213 48.8314 24.1628 49.7571C23.7044 50.6827 23.6286 51.7516 23.952 52.7326C24.2786 53.8993 26.7753 56.0809 27.4519 56.8159C37.2401 66.5458 33.6935 66.9425 52.0799 48.5444C53.1066 47.5177 55.1483 46.0594 55.3932 44.1461C55.7082 41.6028 52.7683 36.5278 47.145 42.2211C45.8034 43.5861 44.6834 44.6944 43.33 46.0477C41.6617 47.7977 37.2518 52.6976 35.6185 53.6193Z" fill="white"/>
</g>
<g filter="url(#filter7_d_6988_808)">
<path fill-rule="evenodd" clip-rule="evenodd" d="M66.3131 95.2573C62.7199 96.4239 62.2765 100.811 65.2865 102.456C67.3048 103.564 99.9594 102.899 100.414 102.747C101.064 102.423 101.629 101.951 102.065 101.37C102.5 100.789 102.794 100.114 102.923 99.3989C102.968 98.6486 102.811 97.8999 102.468 97.2309C102.126 96.5619 101.61 95.9972 100.974 95.5956C99.1544 94.5456 66.6748 95.1406 66.3131 95.2573Z" fill="white"/>
</g>
<g filter="url(#filter8_d_6988_808)">
<path fill-rule="evenodd" clip-rule="evenodd" d="M67.2342 47.6461H91.1973C96.0739 47.6461 96.6922 39.6428 90.509 39.6428H67.5842C61.891 39.6428 62.1826 47.6461 67.2342 47.6461Z" fill="white"/>
</g>
<g filter="url(#filter9_d_6988_808)">
<path fill-rule="evenodd" clip-rule="evenodd" d="M63.5132 139.753C64.7615 143.697 70.7814 142.588 76.6147 142.588C79.4613 142.588 88.6312 143.907 86.9512 137.443C85.7846 133.115 78.1547 134.585 73.8381 134.585C71.7614 134.585 67.7365 134.27 66.0798 134.772C65.5809 134.925 65.1178 135.177 64.7175 135.512C64.3172 135.847 63.9879 136.259 63.7488 136.723C63.5097 137.187 63.3657 137.694 63.3253 138.214C63.2848 138.735 63.3487 139.258 63.5132 139.753Z" fill="white"/>
</g>
<g filter="url(#filter10_d_6988_808)">
<path fill-rule="evenodd" clip-rule="evenodd" d="M67.2356 126.769H83.1838C88.0137 126.769 88.7954 118.765 82.8455 118.765H67.5623C62.184 118.765 62.184 126.769 67.2356 126.769Z" fill="white"/>
</g>
<defs>
<filter id="filter0_d_6988_808" x="0" y="0" width="185.09" height="186.245" filterUnits="userSpaceOnUse" color-interpolation-filters="sRGB">
<feFlood flood-opacity="0" result="BackgroundImageFix"/>
<feColorMatrix in="SourceAlpha" type="matrix" values="0 0 0 0 0 0 0 0 0 0 0 0 0 0 0 0 0 0 127 0" result="hardAlpha"/>
<feOffset dx="3" dy="4"/>
<feComposite in2="hardAlpha" operator="out"/>
<feColorMatrix type="matrix" values="0 0 0 0 0.054902 0 0 0 0 0.0823529 0 0 0 0 0.172549 0 0 0 0.5 0"/>
<feBlend mode="normal" in2="BackgroundImageFix" result="effect1_dropShadow_6988_808"/>
<feBlend mode="normal" in="SourceGraphic" in2="effect1_dropShadow_6988_808" result="shape"/>
</filter>
<filter id="filter1_d_6988_808" x="63.293" y="55.3557" width="66.3979" height="12.2507" filterUnits="userSpaceOnUse" color-interpolation-filters="sRGB">
<feFlood flood-opacity="0" result="BackgroundImageFix"/>
<feColorMatrix in="SourceAlpha" type="matrix" values="0 0 0 0 0 0 0 0 0 0 0 0 0 0 0 0 0 0 127 0" result="hardAlpha"/>
<feOffset dx="3" dy="4"/>
<feComposite in2="hardAlpha" operator="out"/>
<feColorMatrix type="matrix" values="0 0 0 0 0.054902 0 0 0 0 0.0823529 0 0 0 0 0.172549 0 0 0 0.5 0"/>
<feBlend mode="normal" in2="BackgroundImageFix" result="effect1_dropShadow_6988_808"/>
<feBlend mode="normal" in="SourceGraphic" in2="effect1_dropShadow_6988_808" result="shape"/>
</filter>
<filter id="filter2_d_6988_808" x="63.3159" y="79.0259" width="66.2783" height="12.3081" filterUnits="userSpaceOnUse" color-interpolation-filters="sRGB">
<feFlood flood-opacity="0" result="BackgroundImageFix"/>
<feColorMatrix in="SourceAlpha" type="matrix" values="0 0 0 0 0 0 0 0 0 0 0 0 0 0 0 0 0 0 127 0" result="hardAlpha"/>
<feOffset dx="3" dy="4"/>
<feComposite in2="hardAlpha" operator="out"/>
<feColorMatrix type="matrix" values="0 0 0 0 0.054902 0 0 0 0 0.0823529 0 0 0 0 0.172549 0 0 0 0.5 0"/>
<feBlend mode="normal" in2="BackgroundImageFix" result="effect1_dropShadow_6988_808"/>
<feBlend mode="normal" in="SourceGraphic" in2="effect1_dropShadow_6988_808" result="shape"/>
</filter>
<filter id="filter3_d_6988_808" x="117.426" y="123.553" width="44.5889" height="34.4009" filterUnits="userSpaceOnUse" color-interpolation-filters="sRGB">
<feFlood flood-opacity="0" result="BackgroundImageFix"/>
<feColorMatrix in="SourceAlpha" type="matrix" values="0 0 0 0 0 0 0 0 0 0 0 0 0 0 0 0 0 0 127 0" result="hardAlpha"/>
<feOffset dx="3" dy="4"/>
<feComposite in2="hardAlpha" operator="out"/>
<feColorMatrix type="matrix" values="0 0 0 0 0.054902 0 0 0 0 0.0823529 0 0 0 0 0.172549 0 0 0 0.5 0"/>
<feBlend mode="normal" in2="BackgroundImageFix" result="effect1_dropShadow_6988_808"/>
<feBlend mode="normal" in="SourceGraphic" in2="effect1_dropShadow_6988_808" result="shape"/>
</filter>
<filter id="filter4_d_6988_808" x="23.7407" y="118.772" width="34.6987" height="27.8307" filterUnits="userSpaceOnUse" color-interpolation-filters="sRGB">
<feFlood flood-opacity="0" result="BackgroundImageFix"/>
<feColorMatrix in="SourceAlpha" type="matrix" values="0 0 0 0 0 0 0 0 0 0 0 0 0 0 0 0 0 0 127 0" result="hardAlpha"/>
<feOffset dx="3" dy="4"/>
<feComposite in2="hardAlpha" operator="out"/>
<feColorMatrix type="matrix" values="0 0 0 0 0.054902 0 0 0 0 0.0823529 0 0 0 0 0.172549 0 0 0 0.5 0"/>
<feBlend mode="normal" in2="BackgroundImageFix" result="effect1_dropShadow_6988_808"/>
<feBlend mode="normal" in="SourceGraphic" in2="effect1_dropShadow_6988_808" result="shape"/>
</filter>
<filter id="filter5_d_6988_808" x="23.832" y="79.2545" width="34.668" height="27.7237" filterUnits="userSpaceOnUse" color-interpolation-filters="sRGB">
<feFlood flood-opacity="0" result="BackgroundImageFix"/>
<feColorMatrix in="SourceAlpha" type="matrix" values="0 0 0 0 0 0 0 0 0 0 0 0 0 0 0 0 0 0 127 0" result="hardAlpha"/>
<feOffset dx="3" dy="4"/>
<feComposite in2="hardAlpha" operator="out"/>
<feColorMatrix type="matrix" values="0 0 0 0 0.054902 0 0 0 0 0.0823529 0 0 0 0 0.172549 0 0 0 0.5 0"/>
<feBlend mode="normal" in2="BackgroundImageFix" result="effect1_dropShadow_6988_808"/>
<feBlend mode="normal" in="SourceGraphic" in2="effect1_dropShadow_6988_808" result="shape"/>
</filter>
<filter id="filter6_d_6988_808" x="23.7544" y="39.6246" width="34.6616" height="27.8135" filterUnits="userSpaceOnUse" color-interpolation-filters="sRGB">
<feFlood flood-opacity="0" result="BackgroundImageFix"/>
<feColorMatrix in="SourceAlpha" type="matrix" values="0 0 0 0 0 0 0 0 0 0 0 0 0 0 0 0 0 0 127 0" result="hardAlpha"/>
<feOffset dx="3" dy="4"/>
<feComposite in2="hardAlpha" operator="out"/>
<feColorMatrix type="matrix" values="0 0 0 0 0.054902 0 0 0 0 0.0823529 0 0 0 0 0.172549 0 0 0 0.5 0"/>
<feBlend mode="normal" in2="BackgroundImageFix" result="effect1_dropShadow_6988_808"/>
<feBlend mode="normal" in="SourceGraphic" in2="effect1_dropShadow_6988_808" result="shape"/>
</filter>
<filter id="filter7_d_6988_808" x="63.293" y="94.9839" width="42.6372" height="12.0995" filterUnits="userSpaceOnUse" color-interpolation-filters="sRGB">
<feFlood flood-opacity="0" result="BackgroundImageFix"/>
<feColorMatrix in="SourceAlpha" type="matrix" values="0 0 0 0 0 0 0 0 0 0 0 0 0 0 0 0 0 0 127 0" result="hardAlpha"/>
<feOffset dx="3" dy="4"/>
<feComposite in2="hardAlpha" operator="out"/>
<feColorMatrix type="matrix" values="0 0 0 0 0.054902 0 0 0 0 0.0823529 0 0 0 0 0.172549 0 0 0 0.5 0"/>
<feBlend mode="normal" in2="BackgroundImageFix" result="effect1_dropShadow_6988_808"/>
<feBlend mode="normal" in="SourceGraphic" in2="effect1_dropShadow_6988_808" result="shape"/>
</filter>
<filter id="filter8_d_6988_808" x="63.3799" y="39.6428" width="34.6206" height="12.0032" filterUnits="userSpaceOnUse" color-interpolation-filters="sRGB">
<feFlood flood-opacity="0" result="BackgroundImageFix"/>
<feColorMatrix in="SourceAlpha" type="matrix" values="0 0 0 0 0 0 0 0 0 0 0 0 0 0 0 0 0 0 127 0" result="hardAlpha"/>
<feOffset dx="3" dy="4"/>
<feComposite in2="hardAlpha" operator="out"/>
<feColorMatrix type="matrix" values="0 0 0 0 0.054902 0 0 0 0 0.0823529 0 0 0 0 0.172549 0 0 0 0.5 0"/>
<feBlend mode="normal" in2="BackgroundImageFix" result="effect1_dropShadow_6988_808"/>
<feBlend mode="normal" in="SourceGraphic" in2="effect1_dropShadow_6988_808" result="shape"/>
</filter>
<filter id="filter9_d_6988_808" x="63.3135" y="134.345" width="26.8418" height="12.3873" filterUnits="userSpaceOnUse" color-interpolation-filters="sRGB">
<feFlood flood-opacity="0" result="BackgroundImageFix"/>
<feColorMatrix in="SourceAlpha" type="matrix" values="0 0 0 0 0 0 0 0 0 0 0 0 0 0 0 0 0 0 127 0" result="hardAlpha"/>
<feOffset dx="3" dy="4"/>
<feComposite in2="hardAlpha" operator="out"/>
<feColorMatrix type="matrix" values="0 0 0 0 0.054902 0 0 0 0 0.0823529 0 0 0 0 0.172549 0 0 0 0.5 0"/>
<feBlend mode="normal" in2="BackgroundImageFix" result="effect1_dropShadow_6988_808"/>
<feBlend mode="normal" in="SourceGraphic" in2="effect1_dropShadow_6988_808" result="shape"/>
</filter>
<filter id="filter10_d_6988_808" x="63.4868" y="118.765" width="26.5718" height="12.0032" filterUnits="userSpaceOnUse" color-interpolation-filters="sRGB">
<feFlood flood-opacity="0" result="BackgroundImageFix"/>
<feColorMatrix in="SourceAlpha" type="matrix" values="0 0 0 0 0 0 0 0 0 0 0 0 0 0 0 0 0 0 127 0" result="hardAlpha"/>
<feOffset dx="3" dy="4"/>
<feComposite in2="hardAlpha" operator="out"/>
<feColorMatrix type="matrix" values="0 0 0 0 0.054902 0 0 0 0 0.0823529 0 0 0 0 0.172549 0 0 0 0.5 0"/>
<feBlend mode="normal" in2="BackgroundImageFix" result="effect1_dropShadow_6988_808"/>
<feBlend mode="normal" in="SourceGraphic" in2="effect1_dropShadow_6988_808" result="shape"/>
</filter>
</defs>
</svg>
