<svg width="1440" height="953" viewBox="0 0 1440 953" fill="none" xmlns="http://www.w3.org/2000/svg">
<g clip-path="url(#clip0_11669_11236)">
<rect width="1443" height="953" transform="translate(-3)" fill="#0D152C"/>
<g opacity="0.26">
<path d="M-228.677 266.465C-178.213 218.027 -124.641 172.453 -68.3365 130.025C-43.2978 111.173 -17.061 92.5937 13.6288 83.5969C92.0369 60.5678 174.447 105.234 237.046 155.447C294.699 201.687 346.47 254.324 390.902 311.917C434.946 368.99 472.659 431.805 529.643 477.743C586.653 523.685 670.716 549.536 737.688 518.031C777.544 499.278 805.488 462.769 820.084 423.296C834.684 383.797 837.212 341.283 836.572 299.458C835.837 251.554 831.638 201.124 854.472 158.345C878.094 114.052 930.92 85.0205 983.809 87.2537C1059.05 90.4397 1116.65 147.899 1173.13 194.748C1244.89 254.252 1331.45 303.219 1426.77 311.427C1522.06 319.656 1626.03 278.985 1667.64 198.406" stroke="white" stroke-width="1.63583" stroke-miterlimit="10"/>
<path d="M-221.746 285.959C-172.203 238.296 -119.357 193.652 -63.778 152.336C-39.0653 133.98 -13.1585 115.922 16.9871 107.055C77.5368 89.2544 140.55 111.496 194.892 145.087C209.7 154.218 223.875 164.215 237.186 174.452C294.409 218.514 345.991 269.008 390.566 324.452C434.723 379.399 472.514 440.314 529.09 484.801C560.803 509.734 599.952 529.261 640.216 537.46C675.297 544.593 711.483 542.926 743.834 528.253C749.621 525.635 755.162 522.647 760.45 519.339C793.129 498.879 816.162 466.092 829.479 431.084C833.75 419.839 837.12 408.364 839.797 396.739C846.756 366.411 849.077 335.069 850.073 304.263C851.698 255.376 851.559 205.079 876.346 162.679C900.977 120.567 951.703 92.272 1003.37 94.2042C1076.88 96.9666 1133.6 151.462 1189.12 195.44C1193.49 198.894 1197.94 202.334 1202.4 205.698C1270.17 256.741 1349.67 296.714 1435.9 302.248C1527.86 308.15 1627.41 267.167 1666.7 188.222" stroke="#FEFEFE" stroke-width="1.63583" stroke-miterlimit="10"/>
<path d="M-214.787 305.495C-166.138 258.609 -114.075 214.914 -59.165 174.692C-34.7746 156.807 -9.17498 139.3 20.426 130.563C79.8865 113.022 141.802 133.819 195.46 165.609C210.096 174.252 224.131 183.738 237.355 193.472C294.142 235.382 345.566 283.711 390.258 337.003C434.527 389.823 472.456 448.796 528.536 491.87C561.535 517.216 601.671 537.475 643.107 546.458C679.107 554.237 716.523 553.157 749.973 538.509C755.952 535.893 761.717 532.885 767.237 529.506C801.201 508.763 824.835 474.951 838.923 438.891C843.439 427.319 847.053 415.517 849.993 403.619C857.676 372.543 861.165 340.436 863.597 309.085C867.605 259.243 871.413 209.089 898.246 167.004C923.725 127.05 972.488 99.4864 1022.93 101.118C1094.72 103.456 1150.55 154.987 1205.12 196.094C1209.41 199.331 1213.78 202.528 1218.17 205.675C1284.68 253.289 1361.96 289.696 1445.08 293.063C1533.67 296.659 1628.84 255.343 1665.8 178.034" stroke="#FEFEFE" stroke-width="1.63582" stroke-miterlimit="10"/>
<path d="M-207.828 325.032C-160.078 278.949 -108.767 236.181 -54.5789 197.045C-30.4877 179.661 -5.24533 162.671 23.8341 154.093C82.2285 136.841 143.023 156.164 196.021 186.183C210.508 194.366 224.406 203.317 237.544 212.548C293.899 252.28 345.165 298.445 389.969 349.61C434.35 400.302 472.475 457.315 528.028 498.998C562.344 524.735 603.437 545.749 646.018 555.513C682.936 563.937 721.614 563.421 756.162 548.8C762.361 546.188 768.323 543.156 774.043 539.729C809.269 518.673 833.5 483.862 848.36 446.75C853.116 434.876 856.974 422.747 860.208 410.556C868.619 378.704 873.24 345.88 877.14 313.962C883.508 263.136 891.194 213.22 920.161 171.41C946.352 133.596 993.283 106.807 1042.53 108.141C1112.59 110.056 1167.53 158.622 1221.15 196.858C1225.36 199.878 1229.64 202.854 1233.98 205.762C1299.26 249.926 1374.31 282.767 1454.27 283.959C1539.5 285.25 1630.26 243.597 1664.89 167.923" stroke="#FDFDFD" stroke-width="1.63583" stroke-miterlimit="10"/>
<path d="M-200.867 344.568C-154.038 299.26 -103.452 257.424 -49.9599 219.377C-26.191 202.464 -1.28665 186.046 27.2522 177.573C84.5535 160.606 144.255 178.458 196.592 206.707C210.907 214.401 224.691 222.845 237.715 231.57C293.635 269.15 344.744 313.15 389.663 362.162C434.13 410.724 472.486 465.73 527.477 506.069C563.109 532.198 605.162 553.94 648.885 564.509C686.717 573.605 726.631 573.65 762.281 559.029C768.672 556.419 774.858 553.367 780.779 549.89C817.293 528.526 842.125 492.69 857.729 454.522C862.703 442.317 866.828 429.891 870.33 417.402C879.492 384.805 885.222 351.234 890.563 318.744C899.29 266.936 910.765 217.295 941.928 175.717C968.727 140.003 1013.96 114.008 1061.96 115.063C1130.29 116.554 1184.35 162.131 1237 197.521C1241.14 200.298 1245.34 203.057 1249.58 205.744C1313.61 246.478 1386.46 275.758 1463.28 274.78C1545.16 273.765 1631.52 231.778 1663.83 157.74" stroke="#FDFDFD" stroke-width="1.63583" stroke-miterlimit="10"/>
<path d="M-193.901 364.077C-147.967 319.547 -98.1379 278.662 -45.3405 241.705C-21.8978 225.289 2.67641 209.392 30.6937 201.078C86.929 184.401 145.51 200.779 197.186 227.257C211.33 234.461 224.974 242.396 237.906 250.643C293.395 286.045 344.315 327.902 389.351 374.762C433.934 421.172 472.521 474.17 526.923 513.162C563.875 539.657 606.881 562.178 651.749 573.528C690.5 583.269 731.644 583.9 768.42 569.309C775.031 566.704 781.413 563.628 787.561 560.107C825.36 538.459 850.767 501.594 867.169 462.378C872.383 449.872 876.757 437.094 880.548 424.336C890.434 390.99 897.251 356.644 904.113 323.594C915.091 270.787 930.382 221.426 963.85 180.096C991.122 146.462 1034.76 121.302 1081.54 122.03C1148.15 123.098 1201.32 165.71 1253.02 198.23C1257.08 200.789 1261.21 203.306 1265.37 205.776C1328.14 243.081 1398.8 268.773 1472.46 265.621C1551 262.304 1632.93 219.952 1662.94 147.578" stroke="#FCFCFC" stroke-width="1.63583" stroke-miterlimit="10"/>
<path d="M-186.971 383.607C-141.931 339.855 -92.8546 299.897 -40.7834 264.052C-17.6669 248.131 6.57712 232.757 34.0769 224.576C89.2191 208.184 146.706 223.092 197.726 247.773C211.725 254.493 225.228 261.917 238.074 269.662C293.127 302.912 343.889 342.604 389.045 387.287C433.74 431.57 472.598 482.489 526.399 520.209C564.698 547.074 608.657 570.374 654.642 582.501C694.308 592.912 736.687 594.105 774.591 579.518C781.426 576.893 788.001 573.819 794.35 570.248C833.41 548.288 859.442 510.428 876.588 470.155C882.046 457.323 886.66 444.242 890.718 431.187C901.332 397.066 909.282 362.003 917.611 328.386C930.953 274.571 949.835 225.51 985.719 184.417C1013.34 152.794 1055.52 128.512 1101.1 128.968C1165.98 129.612 1218.26 169.26 1269.01 198.884C1272.99 201.226 1277.05 203.5 1281.11 205.749C1342.65 239.604 1411.08 261.756 1481.61 256.434C1556.79 250.786 1634.33 208.126 1662.01 137.387" stroke="#FBFBFB" stroke-width="1.63583" stroke-miterlimit="10"/>
<path d="M-180.013 403.14C-135.895 360.162 -87.5476 321.161 -36.1717 286.405C-13.3505 270.96 10.5325 256.128 37.5146 248.081C91.5908 231.978 147.984 245.415 198.316 268.323C212.144 274.554 225.502 281.493 238.265 288.71C292.886 319.782 343.491 357.309 388.759 399.866C433.566 442.022 472.72 490.866 525.867 527.306C565.545 554.52 610.398 578.617 657.528 591.524C698.112 602.581 741.752 604.338 780.724 589.798C787.752 587.175 794.55 584.08 801.1 580.46C841.444 558.217 868.054 519.303 885.968 478.004C891.67 464.845 896.524 451.463 900.877 438.114C912.241 403.248 921.304 367.412 931.097 333.253C946.799 278.455 969.196 229.657 1007.58 188.814C1035.44 159.161 1076.28 135.826 1120.62 135.978C1183.74 136.195 1235.17 172.882 1284.95 199.635C1288.87 201.735 1292.84 203.817 1296.83 205.824C1357.12 236.25 1423.35 254.815 1490.72 247.318C1562.54 239.365 1635.69 196.372 1661.02 127.264" stroke="#FBFBFB" stroke-width="1.63583" stroke-miterlimit="10"/>
<path d="M-173.054 422.676C-129.829 380.476 -82.2345 342.402 -31.5809 308.733C-9.08577 293.783 14.467 279.473 40.9007 271.582C93.9109 255.767 149.141 267.828 198.829 288.863C212.48 294.631 225.728 301.038 238.405 307.752C292.591 336.673 343.038 372.036 388.422 412.44C433.341 452.469 472.827 499.192 525.311 534.403C566.34 561.961 612.118 586.833 660.39 600.547C701.888 612.274 746.764 614.592 786.865 600.057C794.112 597.439 801.11 594.295 807.884 590.655C849.49 568.099 876.724 528.19 895.409 485.839C901.351 472.378 906.45 458.67 911.07 445.023C923.162 409.382 933.357 372.829 944.59 338.099C962.651 282.317 988.455 233.768 1029.44 193.163C1057.44 165.44 1097.04 143.065 1140.15 142.916C1201.55 142.709 1252.08 176.433 1300.91 200.315C1304.75 202.198 1308.63 204.034 1312.54 205.823C1371.57 232.82 1435.58 247.819 1499.84 238.157C1568.3 227.899 1637.03 184.568 1660.07 117.099" stroke="#FAFAFA" stroke-width="1.63583" stroke-miterlimit="10"/>
<path d="M-166.092 442.183C-123.762 400.761 -76.9502 363.635 -26.9648 331.059C-4.79188 316.581 18.4268 302.817 44.343 295.06C96.2603 279.531 150.397 290.121 199.424 309.386C212.904 314.665 226.011 320.562 238.601 326.773C292.355 353.517 342.614 386.736 388.141 424.993C433.176 462.87 472.994 507.471 524.784 541.474C567.223 569.359 613.865 595.05 663.308 609.547C705.725 621.92 751.831 624.825 793.057 610.319C800.497 607.702 807.746 604.542 814.693 600.849C857.587 577.985 885.396 537.048 904.849 493.669C911.008 479.878 916.377 465.847 921.287 451.931C934.104 415.541 945.439 378.22 958.135 342.949C978.555 286.184 1007.67 237.817 1051.36 197.542C1079.4 171.682 1117.86 150.362 1159.75 149.912C1219.42 149.281 1269.1 180.019 1316.94 201.052C1320.71 202.718 1324.51 204.311 1328.34 205.883C1386.15 229.456 1447.93 240.865 1509.03 229.028C1574.16 216.468 1638.48 172.801 1659.19 106.967" stroke="#F9F9F9" stroke-width="1.63583" stroke-miterlimit="10"/>
<path d="M-159.132 461.714C-117.723 421.067 -71.6368 384.871 -22.3505 353.41C-0.476796 339.432 22.3848 326.186 47.7795 318.588C98.6348 303.322 151.643 312.489 200.017 329.933C213.322 334.748 226.319 340.114 238.822 345.823C292.141 370.414 342.242 401.469 387.885 437.574C433.005 473.321 473.217 515.757 524.31 548.578C568.134 576.761 615.663 603.299 666.252 618.577C709.582 631.62 756.927 635.061 799.251 620.581C806.91 617.969 814.356 614.785 821.504 611.043C865.683 587.896 894.093 545.934 914.293 501.474C920.693 487.382 926.306 473.024 931.511 458.814C945.081 421.654 957.549 383.615 971.685 347.773C994.492 290.028 1026.78 241.774 1073.28 201.895C1101.31 177.841 1138.67 157.604 1179.33 156.878C1237.28 155.824 1286.07 183.598 1332.93 201.757C1336.62 203.18 1340.34 204.582 1344.08 205.907C1400.63 226.026 1460.21 233.899 1518.17 219.892C1579.94 205.002 1639.85 161.023 1658.23 96.824" stroke="#F9F9F9" stroke-width="1.63583" stroke-miterlimit="10"/>
<path d="M-152.199 481.242C-111.685 441.373 -66.3546 406.13 -17.7865 375.729C3.76105 362.247 26.2886 349.548 51.1428 342.054C100.905 327.074 152.82 334.771 200.534 350.444C213.694 354.774 226.55 359.63 238.935 364.858C291.823 387.272 341.767 416.162 387.499 450.111C432.731 483.732 473.318 523.95 523.678 555.634C568.919 584.095 617.334 611.479 669.037 627.559C713.286 641.248 761.888 645.278 805.314 630.799C813.193 628.193 820.836 624.985 828.215 621.172C873.655 597.712 902.663 554.752 923.662 509.244C930.305 494.824 936.158 480.165 941.63 465.658C955.925 427.748 969.533 388.941 985.132 352.557C1010.3 293.83 1045.73 245.605 1095.07 206.205C1123.02 183.895 1159.34 164.803 1198.78 163.776C1255 162.298 1302.91 187.108 1348.81 202.397C1352.43 203.603 1356.08 204.762 1359.73 205.871C1415.04 222.56 1472.42 226.847 1527.22 210.666C1585.63 193.471 1641.15 149.159 1657.21 86.5951" stroke="#F8F8F8" stroke-width="1.63583" stroke-miterlimit="10"/>
<path d="M-145.243 500.772C-105.649 461.677 -61.0487 427.39 -13.1757 398.079C8.04968 385.068 30.2431 372.916 54.5799 365.556C103.276 350.864 154.097 357.091 201.124 370.99C214.112 374.832 226.828 379.177 239.154 383.906C291.606 404.169 341.392 430.894 387.24 462.692C432.584 494.186 473.569 532.214 523.173 562.734C569.862 591.449 619.102 619.724 671.95 636.585C717.113 650.944 766.95 655.535 811.474 641.082C819.546 638.477 827.412 635.249 834.991 631.387C881.72 607.619 911.329 563.634 933.068 517.095C939.951 502.374 946.053 487.363 951.815 472.587C966.833 433.928 981.655 394.416 998.617 357.424C1026.27 297.758 1064.59 249.399 1116.93 210.601C1144.72 189.998 1180.1 172.116 1218.32 170.788C1272.82 168.887 1319.84 190.734 1364.78 203.152C1368.32 204.141 1371.9 205.057 1375.45 205.945C1429.5 219.206 1484.68 219.932 1536.35 201.581C1591.4 182.081 1642.5 137.432 1656.27 76.5067" stroke="#F8F8F8" stroke-width="1.63583" stroke-miterlimit="10"/>
<path d="M-138.274 520.279C-99.5755 481.961 -55.727 448.601 -8.58008 420.401C12.3462 407.89 34.1825 396.256 57.9978 389.054C105.602 374.648 155.329 379.405 201.7 391.508C214.516 394.861 227.114 398.725 239.33 402.922C291.347 421.033 340.975 445.595 386.939 475.24C432.395 504.608 473.785 540.396 522.653 569.806C570.764 598.773 620.855 627.941 674.848 645.582C720.929 660.586 771.996 665.764 817.649 651.315C825.941 648.715 834.003 645.463 841.783 641.553C889.796 617.501 919.979 572.488 942.49 524.897C949.59 509.846 955.959 494.537 961.988 479.463C977.734 440.03 993.692 399.775 1012.12 362.241C1042.16 301.596 1083.37 253.026 1138.8 214.947C1166.41 195.972 1200.86 179.351 1237.85 177.748C1290.62 175.423 1336.76 194.306 1380.74 203.854C1384.21 204.6 1387.71 205.325 1391.19 205.97C1444.01 215.782 1496.97 212.942 1545.5 192.422C1597.22 170.62 1643.91 125.635 1655.32 66.3404" stroke="#F7F7F7" stroke-width="1.63583" stroke-miterlimit="10"/>
<path d="M-131.32 539.808C-93.515 502.269 -50.4226 469.86 -3.97081 442.751C16.6333 430.711 38.1356 419.623 61.4065 412.551C107.944 398.434 156.551 401.717 202.235 412.046C214.906 414.914 227.337 418.264 239.466 421.959C291.051 437.893 340.491 460.312 386.598 487.809C432.17 515.025 473.993 548.577 522.067 576.894C571.633 606.066 622.545 636.149 677.679 654.596C724.651 670.242 776.98 675.984 823.754 661.59C832.242 658.966 840.524 655.72 848.532 651.764C897.806 627.4 928.617 581.366 951.895 532.749C959.235 517.396 965.849 501.76 972.171 486.393C988.668 446.214 1005.76 405.216 1025.63 367.112C1058.03 305.483 1102.09 256.541 1160.68 219.347C1188.08 201.941 1221.62 186.665 1257.42 184.765C1308.46 182.016 1353.71 197.91 1396.74 204.614C1400.13 205.142 1403.53 205.621 1406.93 206.049C1458.5 212.432 1509.23 206.028 1554.63 183.338C1602.99 159.231 1645.29 113.912 1654.38 56.2529" stroke="#F6F6F6" stroke-width="1.63583" stroke-miterlimit="10"/>
<path d="M-124.355 559.337C-87.4757 522.597 -45.1047 491.094 0.651901 465.074C20.9298 453.53 42.102 442.963 64.8555 436.026C110.301 422.194 157.845 423.985 202.837 432.565C215.337 434.944 227.654 437.788 239.695 440.981C290.846 454.763 340.131 474.992 386.35 500.364C432.008 525.449 474.267 556.74 521.601 583.972C572.649 613.352 624.35 644.372 680.629 663.599C728.516 679.915 782.106 686.222 829.955 671.825C838.662 669.206 847.141 665.936 855.349 661.931C905.908 637.284 937.293 590.222 961.345 540.527C968.93 524.848 975.783 508.911 982.373 493.246C999.598 452.293 1017.83 410.553 1039.16 371.906C1073.92 309.295 1120.73 259.838 1182.58 223.646C1209.77 207.734 1242.43 193.856 1276.99 191.651C1326.3 188.479 1370.67 201.409 1412.74 205.243C1416.05 205.554 1419.38 205.79 1422.71 206.001C1473.02 208.957 1521.55 198.966 1563.82 174.106C1608.82 147.669 1646.7 102.039 1653.5 46.0183" stroke="#F6F6F6" stroke-width="1.63583" stroke-miterlimit="10"/>
<path d="M-117.419 578.851C-81.4334 542.889 -39.8458 512.335 5.21547 487.404C25.1942 476.36 46.0092 466.311 68.2412 459.533C112.62 445.99 159.044 446.307 203.375 453.117C215.704 455.008 227.88 457.342 239.834 460.031C290.553 471.637 339.677 489.727 385.985 512.943C431.754 535.902 474.454 564.906 520.989 591.07C573.528 620.608 626.01 652.615 683.46 672.626C732.265 689.588 787.085 696.481 836.059 682.114C844.986 679.5 853.661 676.206 862.07 672.151C913.889 647.192 945.899 599.135 970.695 548.386C978.524 532.38 985.621 516.116 992.501 500.183C1010.45 458.481 1029.81 415.998 1052.61 376.785C1089.72 313.216 1139.22 263.002 1204.4 228.054C1231.34 213.603 1263.13 201.179 1296.47 198.673C1344.03 195.074 1387.53 205.044 1428.65 206.008C1431.89 206.077 1435.14 206.096 1438.36 206.086C1487.45 205.617 1533.76 192.062 1572.86 165.028C1614.5 136.287 1648 90.3238 1652.47 35.9383" stroke="#F5F5F5" stroke-width="1.63583" stroke-miterlimit="10"/>
<path d="M-110.453 598.343C-75.3625 563.158 -34.5272 533.531 9.83484 509.715C29.4913 499.142 49.9723 489.64 71.6867 482.995C115 469.741 160.307 468.56 203.978 473.599C216.134 475.001 228.197 476.829 240.061 479.041C290.344 488.495 339.31 504.421 385.737 525.46C431.619 546.293 474.762 572.986 520.499 598.082C574.532 627.752 627.823 660.75 686.387 681.563C736.105 699.195 792.16 706.649 842.262 692.286C851.381 689.674 860.28 686.359 868.917 682.26C922.024 656.992 954.607 607.908 980.198 556.136C988.239 539.824 995.608 523.238 1002.75 507.007C1021.46 464.535 1041.96 421.335 1066.16 381.547C1105.66 317 1157.76 265.837 1226.29 232.343C1253.01 219.281 1283.91 208.356 1316.05 205.578C1361.88 201.555 1404.5 208.562 1444.66 206.656C1447.82 206.508 1451 206.31 1454.15 206.057C1501.98 202.135 1546.09 185.019 1582.07 155.817C1620.37 124.774 1649.43 78.4708 1651.58 25.7202" stroke="#F4F4F4" stroke-width="1.63583" stroke-miterlimit="10"/>
<path d="M-103.49 617.867C-69.3201 583.457 -29.2141 554.785 14.4297 532.03C33.76 521.953 53.9069 512.998 75.0769 506.483C117.301 493.489 161.523 490.787 204.521 494.132C216.537 495.024 228.455 496.367 240.205 498.073C290.057 505.35 338.834 519.134 385.404 538.025C431.401 556.707 474.989 581.087 519.946 605.17C575.505 634.952 629.542 668.984 689.251 690.577C739.887 708.853 797.175 716.868 848.375 702.532C857.714 699.924 866.837 696.59 875.646 692.438C930.037 666.887 963.222 616.778 989.556 563.951C997.842 547.313 1005.45 530.425 1012.89 513.9C1032.32 470.68 1053.96 426.712 1079.63 386.383C1121.49 320.853 1176.13 268.503 1248.13 236.709C1274.63 225.01 1304.65 215.639 1335.54 212.531C1379.65 208.085 1421.38 212.129 1460.58 207.353C1463.67 206.988 1466.77 206.547 1469.85 206.052C1516.43 198.702 1558.34 178.026 1591.16 146.65C1626.1 113.303 1650.77 66.6668 1650.6 15.5512" stroke="#F4F4F4" stroke-width="1.63583" stroke-miterlimit="10"/>
<path d="M-96.5241 637.382C-63.2486 603.75 -23.8949 576.005 19.0498 554.365C38.0849 544.763 57.8707 536.35 78.5233 529.969C119.682 517.263 162.783 513.088 205.121 514.663C216.965 515.067 228.738 515.924 240.432 517.107C289.849 522.233 338.472 533.827 385.154 550.592C431.263 567.147 475.299 589.191 519.45 612.257C576.541 642.1 631.318 677.215 692.171 699.588C743.72 718.535 802.243 727.111 854.568 712.804C864.099 710.198 873.449 706.819 882.455 702.642C938.107 676.78 971.893 625.647 998.994 571.793C1007.52 554.854 1015.38 537.614 1023.08 520.818C1043.23 476.848 1066 432.138 1093.14 391.242C1137.36 324.729 1194.55 270.957 1270.01 241.098C1296.31 230.687 1325.42 222.916 1355.08 219.533C1397.46 214.689 1438.34 215.723 1476.56 208.098C1479.57 207.491 1482.57 206.829 1485.58 206.117C1530.92 195.343 1570.61 171.078 1600.29 137.532C1631.87 101.881 1652.14 54.9082 1649.66 5.43114" stroke="#F3F3F3" stroke-width="1.63583" stroke-miterlimit="10"/>
<path d="M-89.5564 656.879C-57.202 624.021 -18.5776 597.232 23.672 576.681C42.3809 567.576 61.8366 559.684 81.9718 553.437C122.037 541.016 164.073 535.375 205.696 535.173C217.368 535.087 229.027 535.439 240.608 536.115C289.593 539.064 338.054 548.52 384.852 563.134C431.073 577.563 475.588 597.249 518.929 619.323C577.588 649.179 633.068 685.426 695.066 708.579C747.533 728.171 807.313 737.337 860.712 723.027C870.463 720.426 880.01 717.023 889.247 712.776C946.183 686.63 980.569 634.473 1008.44 579.568C1017.21 562.302 1025.31 544.761 1033.31 527.671C1054.21 482.931 1078.09 437.5 1106.69 396.037C1153.3 328.546 1213.01 273.092 1291.93 245.423C1318.09 236.256 1346.22 230.155 1374.69 226.474C1415.34 221.206 1455.34 219.277 1492.59 208.783C1495.53 207.959 1498.45 207.08 1501.39 206.126C1545.48 191.924 1582.95 164.095 1609.49 128.38C1637.71 90.399 1653.59 43.1186 1648.77 -4.7275" stroke="#F3F3F3" stroke-width="1.63583" stroke-miterlimit="10"/>
<path d="M-82.6219 676.389C-9.50248 601.847 98.1453 560.936 206.238 555.695C314.331 550.453 422.519 578.897 518.349 626.398C578.579 656.243 634.763 693.62 697.901 717.579C761.039 741.537 834.867 750.746 895.971 722.968C972.476 688.2 1008.83 607.319 1043.44 534.554C1100.32 414.893 1180.78 290.478 1313.73 249.774C1379.94 229.502 1453.27 232.396 1517.03 206.128C1605.43 169.705 1661.59 74.7663 1647.76 -14.9096" stroke="#F2F2F2" stroke-width="1.63583" stroke-miterlimit="10"/>
</g>
<g opacity="0.26">
<path d="M848.159 2425.19C779.508 2411.77 711.412 2394.17 644.319 2372.52C614.495 2362.88 584.204 2352.11 559.191 2332.18C495.249 2281.29 484.379 2188.19 489.442 2108.1C494.099 2034.34 507.375 1961.72 528.925 1892.24C550.273 1823.38 579.959 1756.4 584.756 1683.36C589.54 1610.3 562.329 1526.67 498.033 1490.01C459.766 1468.2 413.827 1466.34 373.143 1477.11C332.435 1487.89 296.205 1510.28 262.361 1534.86C223.6 1563.02 184.765 1595.46 136.638 1601.39C86.8178 1607.55 32.6826 1581.04 4.0852 1536.49C-36.5885 1473.12 -22.7246 1392.95 -16.895 1319.8C-9.50071 1226.87 -19.2405 1127.9 -67.3598 1045.21C-115.444 962.527 -208.523 900.875 -298.369 913.195" stroke="white" stroke-width="1.63583" stroke-miterlimit="10"/>
<path d="M860.122 2408.3C792.634 2395.2 725.717 2377.65 659.949 2355.96C630.719 2346.3 601.044 2335.5 576.45 2315.94C527.059 2276.65 509.004 2212.31 505.22 2148.54C504.17 2131.17 504.193 2113.83 504.909 2097.05C508.034 2024.9 519.665 1953.66 539.375 1885.3C558.919 1817.58 587.007 1751.62 590.851 1679.75C593.002 1639.47 586.455 1596.21 569.999 1558.56C555.654 1525.76 533.474 1497.12 502.862 1479.1C497.391 1475.87 491.76 1473.06 486.012 1470.64C450.478 1455.68 410.409 1455.7 374.113 1464.94C362.457 1467.92 351.132 1471.76 340.083 1476.26C311.273 1488.01 284.301 1504.14 258.529 1521.05C217.606 1547.84 176.544 1576.89 127.603 1581.01C78.9868 1585.08 26.6625 1559.87 -1.47849 1516.49C-41.5058 1454.77 -29.5564 1377.03 -25.5248 1306.32C-25.2113 1300.76 -24.9578 1295.14 -24.7732 1289.55C-22.0012 1204.76 -35.0401 1116.73 -80.1158 1043.02C-128.188 964.402 -218.981 906.543 -306.153 919.824" stroke="#FEFEFE" stroke-width="1.63583" stroke-miterlimit="10"/>
<path d="M872.093 2391.37C805.757 2378.55 740.066 2361.1 675.577 2339.32C646.918 2329.66 617.87 2318.79 593.696 2299.6C545.143 2261.06 526.538 2198.45 521.675 2136.27C520.324 2119.33 520.011 2102.39 520.366 2085.97C521.98 2015.41 531.931 1945.55 549.814 1878.34C567.553 1811.74 593.973 1746.79 596.947 1676.14C598.696 1634.57 592.18 1590.08 575.692 1551.02C561.346 1517.1 538.938 1487.12 507.714 1468.18C502.135 1464.79 496.358 1461.81 490.419 1459.24C453.914 1443.39 412.661 1443.51 375.06 1452.73C362.997 1455.69 351.264 1459.52 339.841 1463.96C310.001 1475.55 281.732 1491.17 254.688 1507.21C211.613 1532.61 168.398 1558.34 118.537 1560.61C71.1996 1562.75 20.6019 1538.72 -7.08247 1496.52C-46.4631 1436.45 -36.4284 1361.14 -34.1947 1292.86C-34.015 1287.49 -33.9184 1282.07 -33.8676 1276.67C-33.1785 1194.88 -47.8532 1110.72 -92.9136 1040.79C-140.938 966.256 -229.479 912.177 -313.976 926.419" stroke="#FEFEFE" stroke-width="1.63583" stroke-miterlimit="10"/>
<path d="M884.071 2374.44C818.908 2361.89 754.408 2344.53 691.224 2322.71C663.145 2313.01 634.727 2302.13 610.983 2283.28C563.28 2245.44 544.113 2184.6 538.182 2123.98C536.541 2107.42 535.868 2090.9 535.862 2074.85C535.943 2005.89 544.214 1937.4 560.292 1871.32C576.227 1805.86 600.93 1741.88 603.07 1672.46C604.382 1629.58 597.932 1583.88 581.424 1543.43C567.077 1508.39 544.406 1477.05 512.572 1457.2C506.87 1453.63 500.96 1450.5 494.866 1447.79C457.38 1431.09 414.965 1431.29 376.061 1440.49C363.612 1443.43 351.472 1447.25 339.639 1451.62C308.747 1463.06 279.239 1478.16 250.887 1493.33C205.65 1517.36 160.398 1539.79 109.535 1540.15C63.538 1540.47 14.6277 1517.5 -12.6125 1476.44C-51.3465 1418.04 -43.2262 1345.16 -42.7905 1279.31C-42.7446 1274.12 -42.7694 1268.91 -42.8878 1263.69C-44.3168 1184.89 -60.6274 1104.6 -105.648 1038.51C-153.624 968.051 -239.901 917.777 -321.724 932.98" stroke="#FDFDFD" stroke-width="1.63583" stroke-miterlimit="10"/>
<path d="M896.048 2357.51C832.049 2345.27 768.728 2327.96 706.836 2306.09C679.328 2296.38 651.572 2285.45 628.224 2266.98C581.384 2229.87 561.643 2170.76 554.643 2111.7C552.701 2095.57 551.679 2079.44 551.324 2063.76C549.896 1996.41 556.486 1929.29 570.737 1864.35C584.88 1800.04 607.809 1737.03 609.172 1668.84C610.048 1624.66 603.641 1577.76 587.135 1535.91C572.812 1499.73 549.889 1467.06 517.421 1446.31C511.609 1442.58 505.555 1439.28 499.305 1436.44C460.825 1418.86 417.227 1419.16 377.03 1428.35C364.186 1431.31 351.648 1435.08 339.418 1439.4C307.484 1450.66 276.728 1465.28 247.08 1479.6C199.681 1502.27 152.475 1521.44 100.539 1519.86C55.9094 1518.49 8.62441 1496.44 -18.1239 1456.57C-56.2112 1399.82 -50.0285 1329.38 -51.3677 1265.96C-51.4786 1260.97 -51.6371 1255.95 -51.8769 1250.94C-55.3887 1175.13 -73.3475 1098.7 -118.34 1036.42C-166.268 970.034 -250.294 923.541 -329.442 939.704" stroke="#FDFDFD" stroke-width="1.63583" stroke-miterlimit="10"/>
<path d="M907.999 2340.59C845.151 2328.63 783.044 2311.39 722.442 2289.47C695.528 2279.73 668.389 2268.78 645.471 2250.64C599.48 2214.24 579.179 2156.9 571.11 2099.4C568.867 2083.68 567.509 2067.96 566.815 2052.64C563.854 1986.88 568.799 1921.15 581.224 1857.36C593.539 1794.19 614.694 1732.14 615.293 1665.21C615.709 1619.75 609.391 1571.61 592.865 1528.38C578.541 1491.08 555.39 1457.06 522.299 1435.38C516.365 1431.47 510.178 1428.02 503.76 1425.01C464.309 1406.55 419.539 1406.97 378.026 1416.11C364.798 1419.04 351.829 1422.82 339.212 1427.05C306.249 1438.15 274.233 1452.33 243.252 1465.73C193.742 1487.13 144.57 1503.01 91.5102 1499.41C48.3102 1496.45 2.62381 1475.23 -23.6909 1436.54C-61.1316 1381.45 -56.8632 1313.44 -60.0003 1252.45C-60.245 1247.65 -60.5603 1242.83 -60.934 1238C-66.5284 1165.2 -86.1584 1092.62 -131.11 1034.18C-179.003 971.848 -260.776 929.195 -337.239 946.283" stroke="#FCFCFC" stroke-width="1.63583" stroke-miterlimit="10"/>
<path d="M919.986 2323.69C858.289 2312.01 797.373 2294.86 738.099 2272.88C711.778 2263.13 685.256 2252.15 662.745 2234.36C617.616 2198.68 596.741 2143.08 587.581 2087.15C585.024 2071.84 583.33 2056.52 582.275 2041.56C577.804 1977.4 581.069 1913.04 591.643 1850.4C602.155 1788.37 621.453 1727.29 621.358 1661.59C621.301 1614.8 615.073 1565.44 598.539 1520.85C584.238 1482.42 560.835 1447.07 527.098 1424.45C521.019 1420.37 514.723 1416.76 508.149 1413.62C467.717 1394.31 421.774 1394.79 378.968 1403.93C365.332 1406.85 351.979 1410.6 338.965 1414.79C304.949 1425.74 271.695 1439.41 239.406 1451.93C187.711 1471.97 136.718 1484.75 82.4634 1479.04C40.709 1474.64 -3.41801 1454.1 -29.2656 1416.56C-66.0597 1363.12 -63.7059 1297.54 -68.6637 1238.99C-69.0422 1234.38 -69.5142 1229.76 -70.0092 1225.15C-77.7217 1155.33 -98.9643 1086.61 -143.889 1031.99C-191.756 973.737 -271.255 934.853 -345.043 952.901" stroke="#FBFBFB" stroke-width="1.63583" stroke-miterlimit="10"/>
<path d="M931.961 2306.76C871.427 2295.39 811.713 2278.28 753.73 2256.25C727.968 2246.47 702.097 2235.46 679.994 2218.02C635.714 2183.05 614.265 2129.19 604.049 2074.85C601.192 2059.95 599.184 2045.03 597.745 2030.44C591.741 1967.89 593.326 1904.91 602.096 1843.4C610.804 1782.5 628.234 1722.37 627.468 1657.94C626.904 1609.83 620.813 1559.28 604.259 1513.3C589.957 1473.74 566.29 1437.03 531.979 1413.52C525.79 1409.28 519.348 1405.5 512.619 1402.23C471.216 1382.02 424.078 1382.64 379.992 1391.74C365.948 1394.65 352.209 1398.38 338.786 1402.49C303.729 1413.26 269.203 1426.46 235.629 1438.1C181.772 1456.78 128.973 1466.53 73.4852 1458.63C33.203 1452.9 -9.38081 1432.91 -34.7595 1396.56C-70.8945 1344.8 -70.4674 1281.63 -77.223 1225.52C-77.7582 1221.1 -78.3412 1216.66 -78.9929 1212.24C-88.788 1145.42 -111.702 1080.57 -156.586 1029.77C-204.406 975.602 -281.653 940.499 -352.754 959.532" stroke="#FBFBFB" stroke-width="1.63583" stroke-miterlimit="10"/>
<path d="M943.938 2289.83C884.555 2278.75 826.032 2261.72 769.353 2239.65C744.184 2229.85 718.93 2218.82 697.269 2201.74C653.839 2167.47 631.933 2115.36 620.557 2062.61C617.422 2048.13 615.042 2033.61 613.242 2019.38C605.728 1958.42 605.634 1896.81 612.576 1836.44C619.48 1776.67 634.983 1717.5 633.593 1654.31C632.534 1604.9 626.545 1553.15 609.993 1505.77C595.714 1465.08 571.796 1427.04 536.839 1402.6C530.528 1398.18 523.93 1394.26 517.056 1390.82C474.672 1369.76 426.361 1370.44 380.97 1379.52C366.541 1382.4 352.395 1386.12 338.575 1390.19C302.465 1400.8 266.701 1413.49 231.831 1424.28C175.813 1441.59 121.257 1448.41 64.4643 1438.24C25.681 1431.29 -15.3968 1411.77 -40.3189 1376.59C-75.8074 1326.49 -77.2946 1265.75 -85.8479 1212.07C-86.5169 1207.85 -87.2442 1203.62 -88.0297 1199.4C-99.9073 1135.58 -124.457 1074.59 -169.325 1027.59C-217.097 977.492 -292.081 946.193 -360.52 966.162" stroke="#FAFAFA" stroke-width="1.63583" stroke-miterlimit="10"/>
<path d="M955.89 2272.91C897.658 2262.12 840.361 2245.18 784.961 2223.03C760.363 2213.23 735.748 2202.15 714.494 2185.41C671.926 2151.88 649.447 2101.51 637.002 2050.32C633.566 2036.26 630.849 2022.14 628.688 2008.27C619.641 1948.92 617.903 1888.7 623.006 1829.45C628.083 1770.83 641.66 1712.6 639.681 1650.67C638.078 1599.92 632.262 1546.99 615.678 1498.21C601.398 1456.39 577.252 1417.01 541.671 1391.63C535.251 1387.05 528.496 1382.94 521.479 1379.38C478.101 1357.45 428.618 1358.25 381.946 1367.29C367.122 1370.19 352.556 1373.87 338.349 1377.85C301.21 1388.3 264.161 1400.5 228.007 1410.41C169.827 1426.36 113.518 1430.37 55.4395 1417.79C18.1588 1409.74 -21.4064 1390.54 -45.872 1356.53C-80.7139 1308.09 -84.1509 1249.77 -94.4665 1198.53C-95.2693 1194.5 -96.1533 1190.47 -97.0726 1186.43C-111.045 1125.58 -137.253 1068.49 -182.081 1025.32C-229.818 979.272 -302.538 951.777 -368.303 972.707" stroke="#F9F9F9" stroke-width="1.63583" stroke-miterlimit="10"/>
<path d="M967.862 2255.98C910.793 2245.5 854.675 2228.62 800.589 2206.4C776.572 2196.55 752.586 2185.47 731.762 2169.07C690.021 2136.25 667.027 2087.62 653.468 2038.02C649.753 2024.36 646.665 2010.64 644.143 1997.13C633.586 1939.37 630.168 1880.53 633.444 1822.42C636.729 1764.95 648.309 1707.65 645.764 1646.98C643.608 1594.92 637.974 1540.77 621.37 1490.6C607.113 1447.66 582.692 1406.95 546.501 1380.66C539.959 1375.9 533.071 1371.64 525.899 1367.95C481.551 1345.12 430.884 1346.02 382.897 1355.07C367.688 1357.95 352.714 1361.61 338.098 1365.53C299.894 1375.81 261.607 1387.49 224.157 1396.55C163.804 1411.11 105.758 1412.45 46.3898 1397.36C10.5906 1388.27 -27.4515 1369.36 -51.4377 1336.51C-85.6331 1289.72 -90.9842 1233.83 -103.085 1185.05C-104.044 1181.22 -105.039 1177.36 -106.103 1173.55C-122.181 1115.71 -150.014 1062.45 -194.814 1023.09C-242.526 981.135 -312.96 957.433 -376.051 979.323" stroke="#F9F9F9" stroke-width="1.63583" stroke-miterlimit="10"/>
<path d="M979.848 2239.08C923.93 2228.87 869.026 2212.07 816.22 2189.83C792.797 2179.96 769.45 2168.84 749.023 2152.82C708.143 2120.73 684.576 2073.84 669.948 2025.79C665.92 2012.54 662.496 1999.23 659.648 1986.09C647.558 1929.94 642.46 1872.46 643.922 1815.53C645.403 1759.19 654.953 1702.85 651.9 1643.43C649.155 1590.05 643.705 1534.7 627.115 1483.16C612.858 1439.09 588.196 1397.01 551.372 1369.82C544.707 1364.88 537.687 1360.47 530.324 1356.63C484.994 1332.95 433.167 1333.94 383.863 1342.94C368.247 1345.8 352.888 1349.45 337.874 1353.32C298.642 1363.43 259.071 1374.62 220.336 1382.79C157.822 1395.99 97.9949 1394.75 37.3807 1377.06C3.05436 1367.03 -33.4562 1348.3 -56.9859 1316.63C-90.5347 1271.49 -97.8001 1218.03 -111.698 1171.69C-112.792 1168.04 -113.943 1164.39 -115.141 1160.76C-133.301 1105.92 -162.805 1056.52 -207.565 1021C-255.229 983.116 -323.412 963.194 -383.828 986.044" stroke="#F8F8F8" stroke-width="1.63583" stroke-miterlimit="10"/>
<path d="M991.822 2222.15C937.067 2212.26 883.364 2195.5 831.85 2173.2C808.997 2163.32 786.29 2152.16 766.27 2136.49C726.24 2105.1 702.099 2059.95 686.415 2013.49C682.086 2000.66 678.326 1987.76 675.104 1974.95C661.505 1920.39 654.727 1864.29 654.362 1808.5C654.039 1753.29 661.569 1697.89 657.998 1639.76C654.629 1585.05 649.432 1528.51 632.823 1475.58C618.588 1430.38 593.675 1386.97 556.24 1358.87C549.466 1353.76 542.301 1349.19 534.782 1345.21C488.459 1320.66 435.448 1321.74 384.875 1330.73C368.874 1333.57 353.085 1337.21 337.684 1341C297.423 1350.95 256.576 1361.56 216.56 1368.96C151.846 1380.66 90.2476 1377.14 28.4049 1356.65C-4.43425 1345.77 -39.4168 1327.11 -62.49 1296.61C-95.3923 1253.13 -104.572 1202.1 -120.268 1158.19C-121.495 1154.73 -122.803 1151.28 -124.122 1147.86C-144.364 1096.02 -175.516 1050.46 -220.248 1018.76C-267.865 984.947 -333.784 968.83 -391.539 992.616" stroke="#F8F8F8" stroke-width="1.63583" stroke-miterlimit="10"/>
<path d="M1003.77 2205.24C950.162 2195.62 897.65 2178.95 847.463 2156.6C825.191 2146.68 803.113 2135.51 783.523 2120.18C744.355 2089.52 719.64 2046.11 702.865 2001.22C698.235 1988.81 694.149 1976.28 690.555 1963.87C675.447 1910.91 666.989 1856.18 664.797 1801.53C662.671 1747.46 668.135 1693.01 664.08 1636.12C660.099 1580.11 655.143 1522.35 638.513 1468.04C624.278 1421.71 599.137 1376.96 561.056 1347.93C554.16 1342.65 546.862 1337.92 539.187 1333.81C491.894 1308.37 437.711 1309.57 385.835 1318.54C369.438 1321.39 353.252 1324.99 337.454 1328.73C296.141 1338.53 254.033 1348.63 212.733 1355.15C145.844 1365.47 82.4062 1359.69 19.3772 1336.26C-12.0313 1324.59 -45.4403 1305.97 -68.0341 1276.63C-100.29 1234.81 -111.383 1186.21 -128.877 1144.74C-130.26 1141.47 -131.68 1138.19 -133.155 1134.97C-155.515 1086.12 -188.302 1044.44 -233.007 1016.54C-280.588 986.785 -344.244 974.471 -399.312 999.242" stroke="#F7F7F7" stroke-width="1.63583" stroke-miterlimit="10"/>
<path d="M1015.74 2188.31C963.285 2178.98 911.987 2162.37 863.091 2139.97C841.39 2130.05 819.951 2118.84 800.78 2103.87C762.461 2073.92 737.185 2032.27 719.355 1988.96C714.412 1976.95 710.001 1964.85 706.047 1952.81C689.406 1901.45 679.303 1848.11 675.273 1794.58C671.319 1741.64 674.706 1688.13 670.213 1632.52C665.562 1575.2 660.883 1516.25 644.256 1460.54C630.033 1413.11 604.628 1367.01 565.947 1337.03C558.918 1331.59 551.498 1326.68 543.656 1322.41C495.382 1296.12 440.003 1297.4 386.845 1306.33C370.064 1309.15 353.47 1312.74 337.263 1316.41C294.908 1326.02 251.539 1335.63 208.943 1341.3C139.894 1350.24 74.5155 1342.36 10.3881 1315.83C-19.6108 1303.43 -51.4021 1284.78 -73.552 1256.59C-105.161 1216.42 -118.192 1170.26 -137.459 1131.21C-138.977 1128.13 -140.54 1125.08 -142.15 1122.05C-166.592 1076.19 -201.014 1038.38 -245.691 1014.3C-293.224 988.614 -354.63 980.08 -407.024 1005.81" stroke="#F6F6F6" stroke-width="1.63583" stroke-miterlimit="10"/>
<path d="M1027.71 2171.38C976.441 2162.35 926.299 2145.81 878.693 2123.35C857.586 2113.41 836.763 2102.17 817.999 2087.55C780.543 2058.33 754.658 2018.41 735.795 1976.67C730.55 1965.08 725.791 1953.37 721.475 1941.68C703.325 1891.91 691.52 1839.96 685.686 1787.56C679.941 1735.78 681.227 1683.22 676.273 1628.83C670.939 1570.18 666.572 1510.04 649.925 1452.95C635.724 1404.39 610.056 1356.93 570.754 1326.07C563.603 1320.45 556.05 1315.4 548.052 1310.99C498.808 1283.81 442.258 1285.21 387.773 1294.12C370.584 1296.94 353.606 1300.5 337.001 1304.12C293.594 1313.59 248.965 1322.69 205.084 1327.48C133.874 1335.06 66.4904 1325.22 1.30685 1295.45C-27.3512 1282.36 -57.4915 1263.62 -79.1725 1236.63C-110.135 1198.11 -125.08 1154.39 -146.145 1117.77C-147.796 1114.88 -149.516 1112.02 -151.259 1109.18C-177.784 1066.32 -213.877 1032.37 -258.525 1012.1C-306.034 990.499 -365.153 985.757 -414.886 1012.42" stroke="#F6F6F6" stroke-width="1.63583" stroke-miterlimit="10"/>
<path d="M1039.68 2154.48C989.568 2145.73 940.652 2129.29 894.338 2106.78C873.811 2096.79 853.618 2085.54 835.284 2071.25C798.677 2042.74 772.231 2004.59 752.3 1964.41C746.755 1953.24 741.659 1941.93 736.982 1930.61C717.3 1882.45 703.839 1831.86 696.19 1780.62C688.641 1729.98 687.803 1678.37 682.435 1625.25C676.374 1565.28 672.364 1503.94 655.684 1445.44C641.484 1395.76 615.587 1346.95 575.663 1315.16C568.389 1309.36 560.704 1304.16 552.551 1299.61C502.326 1271.58 444.603 1273.04 388.826 1281.96C371.23 1284.76 353.844 1288.31 336.853 1291.85C292.418 1301.16 246.528 1309.75 201.339 1313.66C127.991 1319.87 58.4463 1308.27 -7.63635 1275.06C-34.9516 1261.34 -63.4073 1242.48 -84.6317 1216.65C-114.936 1179.82 -131.806 1138.5 -154.668 1104.31C-156.476 1101.62 -158.33 1098.95 -160.195 1096.32C-188.814 1056.44 -226.541 1026.36 -271.15 1009.92C-318.61 992.399 -375.478 991.436 -422.537 1019.06" stroke="#F5F5F5" stroke-width="1.63583" stroke-miterlimit="10"/>
<path d="M1051.62 2137.57C1002.65 2129.11 954.929 2112.75 909.929 2090.16C889.973 2080.16 870.419 2068.88 852.493 2054.94C816.735 2027.13 789.706 1990.75 768.706 1952.13C762.86 1941.38 757.416 1930.46 752.401 1919.48C731.209 1872.92 716.068 1823.7 706.57 1773.62C697.218 1724.11 694.233 1673.46 688.451 1621.61C681.639 1560.35 677.975 1497.78 661.31 1437.9C647.132 1387.09 620.984 1336.95 580.414 1304.23C573.031 1298.27 565.201 1292.9 556.88 1288.19C505.661 1259.29 446.768 1260.87 389.698 1269.72C371.73 1272.53 353.924 1276.04 336.536 1279.53C291.036 1288.66 243.908 1296.75 197.437 1299.83C121.916 1304.66 50.099 1291.48 -16.7243 1254.68C-42.778 1240.34 -69.4909 1221.35 -90.2483 1196.66C-119.906 1161.48 -138.69 1122.59 -163.349 1090.84C-165.291 1088.34 -167.279 1085.86 -169.3 1083.42C-200.023 1046.55 -239.399 1020.32 -283.979 1007.69C-331.404 994.218 -385.996 997.083 -430.381 1025.67" stroke="#F4F4F4" stroke-width="1.63583" stroke-miterlimit="10"/>
<path d="M1063.58 2120.64C1015.78 2112.49 969.254 2096.17 925.535 2073.56C906.173 2063.55 887.258 2052.22 869.751 2038.65C834.832 2011.59 807.184 1976.97 785.185 1939.87C779.003 1929.53 773.245 1919.01 767.881 1908.42C745.157 1863.46 728.372 1815.63 717.035 1766.67C705.857 1718.3 700.726 1668.62 694.563 1617.99C686.964 1555.41 683.716 1491.63 667.031 1430.37C652.853 1378.44 626.454 1326.97 585.274 1293.34C577.769 1287.2 569.794 1281.65 561.329 1276.83C509.141 1247.04 449.064 1248.72 390.703 1257.57C372.327 1260.36 354.137 1263.86 336.34 1267.27C289.811 1276.25 241.399 1283.84 193.644 1286.04C115.962 1289.5 41.704 1274.91 -25.7154 1234.31C-50.5306 1219.36 -75.4674 1200.2 -95.7788 1176.72C-124.79 1143.19 -145.488 1106.73 -171.944 1077.42C-174.02 1075.1 -176.164 1072.82 -178.342 1070.58C-211.147 1036.71 -252.17 1014.32 -296.71 1005.53C-344.086 996.132 -396.428 1002.78 -438.139 1032.32" stroke="#F4F4F4" stroke-width="1.63583" stroke-miterlimit="10"/>
<path d="M1075.54 2103.72C1028.89 2095.85 983.552 2079.62 941.147 2056.94C922.343 2046.89 904.08 2035.55 886.98 2022.32C852.911 1995.97 824.702 1963.11 801.635 1927.57C795.152 1917.65 789.081 1907.53 783.321 1897.29C759.087 1853.92 740.6 1807.47 727.46 1759.64C714.478 1712.4 707.177 1663.7 700.647 1614.32C692.215 1550.45 689.429 1485.45 672.724 1422.8C658.568 1369.74 631.918 1316.93 590.115 1282.36C582.501 1276.06 574.358 1270.36 565.761 1265.4C512.592 1234.75 451.332 1236.53 391.69 1245.34C372.93 1248.11 354.309 1251.6 336.138 1254.96C288.58 1263.77 238.908 1270.87 189.846 1272.19C110.003 1274.29 33.1221 1258.44 -34.7119 1213.89C-58.3574 1198.37 -81.4599 1179.02 -101.292 1156.71C-129.633 1124.83 -152.303 1090.79 -180.521 1063.92C-182.754 1061.8 -185.019 1059.73 -187.331 1057.68C-222.23 1026.79 -264.911 1008.28 -309.423 1003.3C-356.751 997.978 -406.83 1008.43 -445.879 1038.91" stroke="#F3F3F3" stroke-width="1.63583" stroke-miterlimit="10"/>
<path d="M1087.48 2086.81C1041.99 2079.24 997.857 2063.06 956.744 2040.32C938.533 2030.26 920.886 2018.88 904.193 2006.01C870.986 1980.38 842.191 1949.24 818.081 1915.31C811.297 1905.81 804.877 1896.07 798.768 1886.21C773.003 1844.44 752.859 1799.36 737.893 1752.68C723.107 1706.57 713.602 1658.83 706.726 1610.68C697.405 1545.53 695.138 1479.29 678.413 1415.26C664.257 1361.08 637.366 1306.9 594.943 1271.46C587.206 1264.98 578.931 1259.13 570.143 1254.01C516.004 1222.48 453.56 1224.36 392.615 1233.14C373.448 1235.9 354.442 1239.37 335.861 1242.66C287.24 1251.3 236.342 1257.9 185.972 1258.35C103.957 1259.06 24.2489 1242.11 -43.783 1193.48C-66.3295 1177.35 -87.5042 1157.85 -106.892 1136.68C-134.587 1106.45 -159.171 1074.85 -189.186 1050.41C-191.552 1048.48 -193.951 1046.6 -196.419 1044.75C-233.4 1016.85 -277.716 1002.21 -322.2 1001.04C-369.503 999.807 -417.308 1014.02 -453.672 1045.49" stroke="#F3F3F3" stroke-width="1.63583" stroke-miterlimit="10"/>
<path d="M1099.45 2069.91C996.411 2052.98 901.022 1988.46 834.554 1903.06C768.086 1817.65 729.118 1712.8 712.846 1607.08C702.611 1540.65 700.865 1473.19 684.142 1407.76C667.42 1342.34 632.482 1276.65 574.611 1242.65C502.161 1200.07 415.091 1216.86 335.66 1230.4C205.063 1252.72 57.0049 1258.47 -52.766 1173.14C-107.437 1130.64 -147.252 1068.99 -205.418 1031.95C-286.06 980.592 -396.029 989.261 -461.422 1052.17" stroke="#F2F2F2" stroke-width="1.63583" stroke-miterlimit="10"/>
</g>
</g>
<defs>
<clipPath id="clip0_11669_11236">
<rect width="1443" height="953" fill="white" transform="translate(-3)"/>
</clipPath>
</defs>
</svg>
