<svg width="1438" height="262" viewBox="0 0 1438 262" fill="none" xmlns="http://www.w3.org/2000/svg">
<g opacity="0.04">
<path fill-rule="evenodd" clip-rule="evenodd" d="M465.84 21.1406C465.732 4.12613 422.658 -15.0071 404.259 -24.8715C367.878 -44.3818 330.04 -62.3986 292.552 -80.7032C255.065 -99.0078 217.476 -117.263 181.73 -137.359C158.519 -150.404 131.247 -165.096 115.506 -183.723C81.9726 -223.419 187.701 -217.524 215.088 -218.392C284.759 -220.61 364.673 -219.598 429.979 -240.269C468.964 -252.61 484.51 -273.306 476.137 -303.47C473.438 -313.279 465.449 -324.568 472.216 -334.124C479.443 -344.331 496.068 -350.221 509.866 -354.171C560.193 -368.56 618.057 -370.228 671.306 -372.034C728.724 -374.018 786.683 -373.438 843.696 -373.592C867.871 -373.656 893.119 -380.042 916.141 -385.232C946.321 -392.035 976.144 -399.677 1006.07 -407.065C1071.92 -423.281 1139.77 -440.36 1209.43 -444.478C1253.06 -447.058 1300.74 -443.57 1334.64 -421.127C1351.65 -409.859 1360.56 -393.107 1370.4 -378.226C1382.3 -360.249 1393.74 -342.098 1406.42 -324.404C1447.26 -267.416 1505.57 -211.728 1600.21 -208.93C1614.53 -208.508 1628.59 -209.882 1642.84 -210.14C1651.91 -210.299 1659.99 -208.687 1663.36 -201.705C1671.85 -184.194 1645.19 -156.551 1634.26 -142.658C1610.33 -112.246 1583.34 -83.1991 1558.05 -53.3976C1541.33 -33.6888 1512.38 -6.75542 1512.07 17.1909C1511.8 38.5273 1550.4 53.949 1571.41 64.4583C1591.1 74.2979 1626.77 88.0673 1628.93 108.084C1629.97 117.789 1621.27 125.833 1612.18 132.075C1596.25 142.991 1577.9 150.692 1563.57 163.146C1540.07 183.58 1520.43 211.694 1523.62 239.228C1525.84 258.306 1540.64 270.801 1559.47 282.744C1567.39 287.766 1573.81 291.318 1574.23 299.471C1574.9 312.416 1568.01 326.116 1562.33 338.119C1542 381.075 1513.14 422.611 1481.03 461.394C1464.98 480.775 1447.65 500.097 1426.38 516.63C1412.44 527.487 1393.65 540.408 1372.4 540.393C1347.79 540.393 1321.75 533.863 1297.84 528.98C1253.16 519.855 1209.03 509.306 1165.07 498.484C1063.41 473.446 962.712 446.381 862.966 417.287C792.708 396.76 720.958 376.202 654.903 348.912C642.021 343.552 629.862 337.303 618.59 330.25C606.546 322.841 591.601 319.527 576.447 317.056C482.391 301.718 379.348 313.493 284.901 320.877C260.928 322.747 236.955 324.628 212.915 325.938C192.249 327.064 167.507 330.294 147.42 325.442C107.841 315.89 142.441 280.685 157.069 266.34C208.57 215.832 275.016 173.1 336.605 129.475C365.887 108.699 395.393 87.9779 423.083 66.0263C437.502 54.6138 465.935 36.0562 465.84 21.1406Z" stroke="white" stroke-width="1.19861"/>
<path fill-rule="evenodd" clip-rule="evenodd" d="M483.59 18.2722C467.805 0.268274 440.109 -13.0388 417.119 -25.5621C384.035 -43.5908 349.911 -60.6176 316.301 -78.1354C284.52 -94.701 252.672 -111.455 223.24 -130.267C205.294 -141.739 182.777 -155.458 174.276 -172.425C155.837 -209.202 255.035 -203.622 279.524 -204.584C340.405 -206.965 409.428 -207.51 465.752 -226.873C500.922 -238.965 515.371 -259.017 507.87 -286.857C505.277 -296.488 500.605 -304.712 506.52 -314.294C513.359 -325.384 529.091 -332.298 543.513 -337.178C588.689 -352.469 642.089 -355.718 691.06 -358.421C741.651 -361.213 794.363 -363.182 843.327 -361.139C862.907 -360.325 885.445 -364.943 904.822 -368.484C934.638 -373.94 964.15 -380.234 993.818 -386.086C1054.11 -397.99 1115.97 -409.457 1178.7 -410.761C1223.98 -411.703 1271.2 -406.595 1308.87 -386.85C1347.05 -366.828 1363.99 -335.789 1385.17 -306.284C1421.73 -255.273 1471.12 -193.251 1555.72 -182.474C1568.55 -180.837 1580.88 -181.725 1593.7 -181.323C1600.29 -181.12 1607.79 -180.475 1611.13 -175.699C1619.81 -163.299 1596.03 -140.628 1588.03 -131.13C1565.93 -104.883 1541.07 -79.9209 1517.91 -54.1798C1499.51 -33.7407 1476.19 -11.03 1469.07 13.1983C1460.44 42.5997 1516.86 63.5199 1536.7 84.2219C1571.1 120.121 1505.93 140.575 1473.8 157.691C1436.9 177.341 1406.44 213.19 1439.52 243.594C1452.17 255.219 1467.74 262.148 1473.39 277.32C1482.23 301.047 1475.55 328.162 1468.38 351.617C1457.57 386.876 1440.48 421.753 1417.24 453.619C1400.59 476.434 1372.97 512.209 1332.52 509.525C1305.29 507.735 1277.6 501.193 1251.09 495.41C1211.39 486.755 1172.19 476.89 1133.2 466.643C1043.19 443.055 954.171 417.046 866.904 388.438C807.36 368.911 641.265 289.114 628.768 286.267C591.505 277.786 549.137 279.279 510.719 280.593C459.615 282.339 408.767 286.862 357.959 291.053C333.774 293.037 309.468 295.463 285.155 296.44C267.85 297.134 245.123 297.729 229.965 290.334C200.379 275.906 233.341 242.894 246.973 228.928C288.733 186.11 341.559 149.031 391.091 111.119C415.397 92.5047 440.075 73.9205 462.14 53.8137C471.039 45.6946 493.347 29.3919 483.59 18.2722Z" stroke="white" stroke-width="1.19861"/>
<path fill-rule="evenodd" clip-rule="evenodd" d="M505.429 9.03866C462.318 -26.9891 402.817 -53.7842 351.463 -83.8735C325.689 -98.9802 299.752 -114.499 277.522 -132.493C265.957 -141.849 251.517 -153.682 249.29 -166.725C243.335 -201.616 332.743 -196.898 359.504 -198.223C411.242 -200.793 469.69 -202.742 516.629 -220.548C545.306 -231.433 559.429 -249.298 554.069 -272.779C551.693 -283.197 547.993 -292.048 554.069 -302.278C560.226 -312.641 573.052 -319.954 586.041 -325.436C623.366 -341.203 669.751 -346.243 711.775 -349.999C761.073 -354.373 810.742 -356.081 860.38 -355.109C903.856 -354.27 947.122 -363.702 989.571 -369.918C1045.81 -378.148 1103.06 -385.337 1160.6 -384.251C1206.05 -383.387 1251.85 -376.605 1290.7 -358.582C1330.18 -340.225 1353.92 -312.751 1375.32 -283.103C1407.67 -238.284 1447.99 -178.224 1518.96 -161.203C1529.28 -158.722 1538.9 -158.449 1549.54 -158.018C1554.72 -157.809 1561.39 -157.745 1563.96 -153.781C1570.13 -144.236 1547.32 -125.731 1540.95 -119.281C1520.63 -98.6924 1498.6 -79.0314 1477.78 -58.7156C1458.33 -39.7492 1437.16 -19.984 1425.08 2.24192C1405.86 37.6396 1467.31 58.3375 1465.58 92.0683C1464.51 113.009 1437.23 128.027 1415.63 138.415C1389.03 151.19 1350.73 159.589 1337.42 182.902C1327.5 200.266 1343.06 210.372 1355.05 223.548C1375.35 245.873 1376.74 276.136 1374.62 301.979C1371.78 336.9 1360.64 372.338 1341.69 404.436C1333.11 418.987 1322.59 434.124 1307.1 445.425C1292.59 456.017 1278.86 458.731 1259.48 456.563C1200.12 449.915 1140.2 431.385 1083.28 414.835C1011.77 394.038 941.242 371.078 872.822 345.245C826.167 327.628 778.459 308.989 737.509 284.65C726.836 278.304 715.906 271.408 708.102 263.039C702.202 256.748 699.698 251.554 689.754 247.962C660.279 237.32 619.282 240.104 587.701 241.21C537.205 242.971 486.952 247.659 436.767 251.881C407.482 254.362 352.314 262.166 328.929 243.447C308.744 227.284 333.101 199.725 345.543 185.487C377.015 149.479 417.5 117.876 455.061 85.336C472.276 70.4228 490.166 55.3956 504.383 38.8154C508.015 34.5885 513.834 28.9874 514.833 23.8526C515.954 17.9687 510.722 13.4789 505.429 9.03866Z" stroke="white" stroke-width="1.19861"/>
<path fill-rule="evenodd" clip-rule="evenodd" d="M509.129 17.4264C469.294 -14.4288 421.302 -40.5991 378.536 -70.4087C359.36 -83.7743 339.996 -97.7954 325.385 -114.1C317.526 -122.868 309.181 -133.906 311.348 -144.804C317.567 -176.083 391.101 -173.258 420.809 -175.09C464.952 -177.781 515.665 -180.492 554.698 -197.358C580.267 -208.405 589.854 -224.72 585.081 -245.761C579.956 -268.332 591.414 -284.716 617.49 -297.307C650.182 -313.081 691.449 -319.511 729.408 -324.078C775.141 -329.555 821.453 -331.983 867.78 -331.332C912.835 -330.697 956.485 -336.248 1001.24 -339.857C1060.59 -344.638 1121.83 -346.997 1180.5 -337.196C1231.59 -328.661 1277.73 -309.854 1312.32 -280.769C1348.45 -250.413 1366.33 -212.168 1395.67 -178.585C1413.97 -157.638 1439.48 -129.929 1473.68 -121.786C1485.08 -119.07 1505.86 -122.734 1496.75 -109.374C1491.55 -101.733 1481.8 -95.0299 1474.11 -88.784C1461.67 -78.6902 1448.82 -68.8745 1436.18 -58.9198C1409.22 -37.6995 1380.36 -16.0275 1360.16 9.10016C1334.7 40.7369 1372.54 65.085 1367.93 97.1636C1365.45 114.427 1349.12 128.205 1331.85 139.028C1320.68 146.039 1308.45 152.111 1295.97 157.776C1282.93 163.694 1267.5 168.202 1256.13 175.853C1239.93 186.741 1246.96 199.631 1250 213.706C1255.35 238.443 1256.52 263.57 1253.5 288.518C1249.8 319.097 1241.12 350.55 1222.84 378.339C1215.74 389.158 1206.73 400.627 1193.35 407.881C1179.98 415.135 1166.14 414.638 1150.82 412.453C1105.36 405.999 1059.99 390.98 1016.87 376.746C962.893 358.926 909.979 339.012 859.448 316.357C824.568 300.717 789.573 283.821 760.392 262.616C751.905 256.445 743.83 249.836 737.301 242.458C732.817 237.399 730.414 230.87 723.919 227.067C703.596 215.196 662.794 218.741 638.96 219.431C591.394 220.806 544.577 227.345 497.071 228.934C471.144 229.803 430.538 231.987 411.498 215.757C393.592 200.499 409.81 176.469 420.512 161.768C441.544 132.862 469.8 107.108 495.126 80.2381C505.537 69.1812 516.948 57.6128 523.693 44.9869C529.689 33.7363 519.338 25.5938 509.129 17.4264Z" stroke="white" stroke-width="1.19861"/>
<path fill-rule="evenodd" clip-rule="evenodd" d="M518.929 17.9463C487.221 -10.0854 448.996 -34.9688 417.059 -63.4565C398.365 -80.1397 366.171 -108.186 380.628 -131.706C396.489 -157.551 451.776 -158.255 483.734 -160.338C521.77 -162.817 566.437 -166.203 598.989 -182.341C609.284 -187.442 618.054 -194.195 621.771 -203.089C625.752 -212.608 621.4 -220.937 620.834 -230.466C619.646 -250.456 635.878 -266.505 657.359 -277.526C687.717 -293.109 725.679 -300.476 761.536 -305.612C802.16 -311.406 843.459 -314.262 884.84 -314.14C924.387 -314.041 963.516 -314.685 1003.1 -315.429C1054.88 -316.421 1107.38 -314.819 1157.6 -304.71C1207.07 -294.745 1252.05 -276.069 1287.38 -248.597C1321.84 -221.79 1345.1 -189.024 1365.47 -155.648C1377.02 -136.704 1396.55 -108.394 1424.11 -98.8258C1436.37 -94.567 1448.4 -94.8595 1435.37 -83.7837C1418.95 -69.8373 1396.83 -58.6474 1377.82 -46.7189C1350.39 -29.5052 1322.28 -11.9545 1299.26 8.51149C1284.56 21.5804 1278.01 34.2625 1279.02 51.1836C1279.81 64.074 1283.36 76.8306 1281.56 89.7705C1277.36 120.142 1244.82 140.97 1216.05 160.365C1197.55 172.839 1180.65 182.353 1171.12 200.097C1159.86 221.069 1155.13 243.885 1147.6 265.66C1139.33 289.572 1129.77 314.445 1111.72 335.506C1095.65 354.257 1076.11 362.665 1046.85 357.613C1001.23 349.74 956.257 330.345 915.752 312.402C874.525 294.148 834.006 273.622 799.842 248.531C781.398 234.981 768.809 219.071 752.429 204.515C731.825 186.24 685.214 193.161 657.514 194.708C611.53 197.276 466.841 216.493 480.192 154.252C485.764 128.273 507.71 104.297 523.76 81.3719C530.412 71.8578 540.039 60.4399 541.543 49.5377C543.183 37.6636 528.462 26.3845 518.929 17.9463Z" stroke="white" stroke-width="1.19861"/>
<path fill-rule="evenodd" clip-rule="evenodd" d="M535.674 20.3266C511.444 -5.07571 482.445 -29.0742 461.654 -56.5103C448.166 -74.2786 434.921 -98.0192 452.321 -116.819C471.959 -138.035 515.261 -142.981 547.078 -145.684C579.86 -148.467 618.995 -150.808 645.788 -166.895C654.312 -172.019 661.339 -178.929 662.647 -187.203C663.908 -195.139 660.348 -203.076 661.528 -211.157C664.172 -229.302 679.136 -244.253 698.43 -255.096C755.503 -287.175 840.449 -294.308 909.31 -295.147C943.778 -295.563 979.25 -293.376 1013.94 -291.808C1058.96 -289.774 1104.04 -285.409 1146.97 -274.888C1238.25 -252.527 1299.43 -202.932 1342.16 -141.22C1355.6 -121.795 1365.89 -100.777 1386.97 -85.1668C1397.83 -77.1061 1395.46 -71.3172 1384.35 -63.9659C1366.99 -52.4775 1345.81 -43.6976 1326.53 -34.1091C1299.12 -20.4729 1271.12 -6.63327 1246.87 9.70142C1230.16 20.9616 1218.3 31.81 1214.7 48.6953C1212.13 60.7343 1212.73 73.0014 1211.18 85.1148C1208.24 108.126 1198.18 130.964 1180.35 150.052C1166.19 165.181 1149.33 178.931 1131.9 192.042C1109.25 209.111 1090.09 226.452 1072.89 246.711C1050.08 273.527 1018.03 322.992 964.313 309.901C905.061 295.457 849.526 258.754 811.511 223.193C798.745 211.253 788.265 196.61 771.048 187.806C745.273 174.646 719.12 175.107 688.463 175.161C642.564 175.236 542.688 182.562 541.609 132.006C541.184 111.975 552.972 93.0366 558.617 73.7703C564.983 52.1924 552.224 37.6385 535.674 20.3266Z" stroke="white" stroke-width="1.19861"/>
<path fill-rule="evenodd" clip-rule="evenodd" d="M553.72 22.5924C529.753 -10.5151 476.008 -64.9178 516.885 -101.733C538.477 -121.189 576.668 -128.501 608.706 -132.858C634.488 -136.382 665.581 -137.706 685.061 -152.646C699.38 -163.631 693.024 -179.617 698.509 -193.367C705.318 -210.414 720.945 -224.363 740.149 -234.847C793.812 -264.148 868.427 -273.14 932.98 -275.053C1000.02 -277.036 1073.9 -267.761 1136.99 -249.921C1215.65 -227.67 1274.58 -185.535 1315.8 -132.179C1323.4 -122.329 1330.31 -112.222 1337.61 -102.254C1342.52 -95.5666 1349.79 -89.0978 1353.66 -82.0639C1360.09 -70.3357 1352.51 -60.7489 1340.35 -53.1053C1322.86 -42.1009 1301.38 -34.2689 1281.44 -26.0106C1254.17 -14.7087 1226.3 -3.61011 1200.93 9.64975C1183.89 18.5723 1166.05 28.1838 1159.95 43.6644C1155.79 54.2227 1154.92 65.4056 1155.07 76.3407C1155.39 99.7871 1153.72 118.747 1138.84 140.221C1114.34 175.475 1076.68 207.175 1036.89 233.551C1005.66 254.251 956.246 286.407 910.747 272.567C869.924 260.174 846.045 230.512 819.149 206.53C806.072 194.871 791.383 184.224 774.123 175.931C752.362 165.477 731.876 161.09 706.094 159.38C662.7 156.5 597.269 155.751 583.855 117.483C578.902 103.361 581.729 88.7331 579.131 74.4273C575.737 55.5115 565.812 39.2924 553.72 22.5924Z" stroke="white" stroke-width="1.19861"/>
<path fill-rule="evenodd" clip-rule="evenodd" d="M578.646 23.8183C561.579 -12.4077 539.158 -58.0624 580.379 -90.259C600.345 -105.856 628.431 -114.575 655.612 -121.091C675.08 -125.761 705.991 -127.135 717.926 -141.492C726.692 -152.057 727.906 -166.631 735.836 -177.951C746.733 -193.513 763.24 -206.331 782.606 -216.365C833.059 -242.513 898.771 -252.616 958.698 -255.509C1088.91 -261.787 1221.4 -211.79 1291.08 -129.532C1311.85 -105.012 1338.67 -78.9148 1305.09 -53.8642C1268.44 -26.5359 1213.22 -13.7327 1169.47 5.68545C1152.75 13.0994 1131.45 22.012 1122.12 35.4355C1116.51 43.5044 1116.13 53.6279 1115.87 62.5107C1115.2 85.1346 1112.64 105.481 1100.27 126.591C1081.16 159.214 1050.69 189.312 1016.16 213.965C986.041 235.463 943.094 260.727 899.358 245.229C865.824 233.319 844.556 208.04 818.5 189.406C789.505 168.653 753.645 154.669 714.264 147.835C675.956 141.206 633.94 136.734 613.751 108.567C606.826 98.9055 599.59 86.3951 596.994 75.7009C592.803 58.0687 586.667 40.7171 578.646 23.8183Z" stroke="white" stroke-width="1.19861"/>
<path fill-rule="evenodd" clip-rule="evenodd" d="M606.43 24.0727C598.535 -12.5079 597.657 -50.6512 634.342 -79.4821C651.462 -92.9325 673.105 -102.488 694.99 -111.146C711.091 -117.516 727.72 -122.89 739.745 -133.333C750.887 -143.003 759.356 -154.231 770.113 -164.154C784.303 -177.304 801.281 -188.687 820.396 -197.867C868.31 -220.833 926.596 -231.575 982.358 -235.301C1009.35 -237.111 1038.63 -238.054 1065.44 -233.118C1091.34 -228.355 1116.94 -220.823 1140.75 -212.041C1191.36 -193.391 1235.23 -166.079 1267.03 -131.547C1288.83 -107.861 1300.62 -84.8305 1272.38 -60.8023C1240.55 -33.7179 1190.64 -18.7741 1149.5 -1.19579C1121.29 10.8605 1089.66 22.6786 1084.39 48.2994C1080.2 68.6859 1076.79 88.0354 1065.93 107.306C1049.77 135.729 1026.01 161.477 996.057 183.022C968.665 202.649 934.012 219.305 894.831 208.821C863.788 200.501 839.703 181.861 812.581 168.534C782.355 153.65 749.146 145.444 714.176 138.845C682.748 132.892 653.156 123.743 632.844 104.319C628.686 100.35 624.32 96.0282 621.115 91.5878C617.025 85.9218 617.342 80.3055 616.539 73.9549C614.447 57.1952 610 40.629 606.43 24.0727Z" stroke="white" stroke-width="1.19861"/>
<path fill-rule="evenodd" clip-rule="evenodd" d="M637.068 21.0839C637.742 -13.6622 649.108 -46.5001 680.238 -73.5784C693.546 -85.1621 709.438 -94.7033 724.082 -105.318C735.873 -113.875 747.016 -121.826 760.574 -128.878C792.735 -145.575 818.873 -167.182 853.052 -182.051C898.677 -201.928 950.939 -212.916 1002.8 -217.309C1028.12 -219.455 1054.28 -220.206 1079.9 -217.781C1101.9 -215.699 1122.97 -208.389 1142.52 -200.91C1180.83 -186.26 1218.03 -165.438 1242.91 -139.095C1297.75 -81.0176 1189.62 -38.7925 1134.12 -14.0648C1108.6 -2.68978 1069.6 10.4842 1059.14 33.0155C1051.67 49.1114 1047.11 65.4806 1037.49 81.0796C1011.63 122.972 959.148 172.243 889.206 165.684C859.278 162.881 832 151.496 804.061 143.853C775.292 135.982 745.599 131.594 715.698 126.778C687.752 122.281 665.479 115.88 647.428 98.721C638.801 90.5264 639.564 80.7168 638.795 70.6637C637.54 54.1503 636.764 37.5426 637.068 21.0839Z" stroke="white" stroke-width="1.19861"/>
<path fill-rule="evenodd" clip-rule="evenodd" d="M664.968 16.6324C676.204 -35.8137 717.936 -93.07 779.299 -123.528C851.479 -159.357 929.676 -189.527 1015.92 -198.2C1055.9 -202.222 1099.7 -204.201 1137.43 -191.049C1166.14 -181.047 1199.49 -166.096 1215.29 -145.07C1253.95 -93.6403 1167.96 -52.699 1118.97 -28.9059C1092.59 -16.0968 1059.02 -3.61511 1039.14 15.0901C1027.6 25.9354 1021.72 40.2817 1012.4 52.1932C984.185 88.2895 937.732 117.404 879.868 122.611C853.113 125.016 826.163 122.04 799.611 119.675C772.431 117.255 744.914 115.941 717.902 112.564C696.341 109.866 670.93 105.299 662.989 88.3342C652.975 66.956 660.382 38.0502 664.968 16.6324Z" stroke="white" stroke-width="1.19861"/>
<path fill-rule="evenodd" clip-rule="evenodd" d="M692.33 8.20831C708.718 -41.0999 743.42 -89.1971 801.758 -118.633C832.694 -134.242 868.607 -145.017 903.086 -155.663C942.169 -167.728 983.003 -177.093 1024.71 -181.739C1076.64 -187.526 1160.74 -192.742 1187.87 -149.24C1214.8 -106.062 1146.75 -67.8459 1106.51 -46.0679C1080.71 -32.1167 1053.1 -19.312 1028.46 -4.06043C1015.09 4.20806 1004.79 13.762 993.482 23.4599C962.221 50.33 917.655 71.6018 872.23 82.9573C828.205 93.9654 773.742 98.8391 727.269 95.2012C707.217 93.6378 692.885 88.3621 686.82 73.3636C678.417 52.5137 685.556 28.5768 692.33 8.20831Z" stroke="white" stroke-width="1.19861"/>
<path fill-rule="evenodd" clip-rule="evenodd" d="M719.514 -5.07236C735.794 -48.4864 770.908 -88.1392 822.128 -114.196C879.542 -143.405 953.472 -159.636 1021.42 -167.89C1057.54 -172.274 1135.81 -184.16 1154.22 -150.142C1172.63 -116.123 1119.41 -82.5988 1088.78 -64.1439C1051.6 -41.7796 1011.52 -20.1862 971.485 -0.120062C936.701 17.3266 899.584 35.1637 861.907 48.6367C840.658 56.2798 818.522 62.5204 795.763 67.2844C778.91 70.7836 757.48 76.0027 739.811 73.3981C695.245 66.8198 711.728 15.6857 719.514 -5.07236Z" stroke="white" stroke-width="1.19861"/>
<path fill-rule="evenodd" clip-rule="evenodd" d="M753.073 -18.0735C788.793 -100.175 901.964 -140.553 1010.93 -154.628C1036.25 -157.895 1107.23 -169.674 1121.39 -144.594C1135.1 -120.277 1091.48 -91.4394 1071.06 -77.7766C1007.78 -35.4396 929.604 -4.04873 855.522 27.0496C832.398 36.7564 790.693 57.8208 762.009 48.1041C730.865 37.5347 745.672 -1.04946 753.073 -18.0735Z" stroke="white" stroke-width="1.19861"/>
<path fill-rule="evenodd" clip-rule="evenodd" d="M789.661 -33.8753C820.725 -94.3366 911.077 -129.013 994.147 -140.445C1014.49 -143.242 1066.17 -151.951 1081.58 -135.079C1095.84 -119.471 1061.81 -96.856 1049.07 -87.8694C1020.73 -67.8578 987.135 -51.3724 953.947 -35.5268C923.262 -20.8665 892.245 -5.8392 859.957 6.55956C842.951 13.0863 811.056 27.0126 791.73 16.9349C770.924 6.09339 782.764 -20.4499 789.661 -33.8753Z" stroke="white" stroke-width="1.19861"/>
<path fill-rule="evenodd" clip-rule="evenodd" d="M-209.146 67.6685C-210.002 28.934 -237.997 -11.3222 -224.171 -50.7902C-212.819 -83.2053 -155.663 -85.9116 -121.376 -100.597C-94.1289 -112.265 -78.6661 -132.933 -63.931 -152.764C-50.6916 -170.567 -38.7997 -188.906 -24.8529 -206.417C-15.8245 -217.738 -0.321291 -239.967 19.2582 -240.369C38.0022 -240.756 55.1898 -223.433 66.0778 -213.193C80.2739 -199.845 92.8597 -185.615 106.645 -172.054C129.876 -149.18 157.75 -132.249 189.666 -116.225C225.986 -97.992 262.906 -80.3818 300.425 -63.3945C328.049 -50.8497 355.862 -38.3992 382.415 -24.6153C399.07 -15.9664 435.831 0.261016 436 16.2059C436.08 23.814 426.277 32.2399 419.667 38.3215C408.483 48.616 395.735 58.0283 382.947 67.2373C359.13 84.3915 334.302 100.768 309.743 117.342C277.868 138.853 247.42 160.012 219.399 184.432C190.427 209.71 162.749 235.821 134.505 261.574C115.377 279.021 96.2689 298.614 68.6785 309.32C34.1213 322.702 5.75601 308.591 -29.1919 308.427C-59.2551 308.284 -57.0384 257.054 -60.8586 242.809C-64.6923 228.391 -73.1413 214.969 -76.4158 200.516C-80.4988 182.474 -80.5527 164.017 -81.5566 145.782C-82.7761 123.478 -83.2612 102.245 -115.676 93.7394C-134.123 88.9069 -154.08 87.8908 -173.174 84.9962C-185.545 83.1177 -208.877 79.906 -209.146 67.6685Z" stroke="white" stroke-width="1.19861"/>
<path fill-rule="evenodd" clip-rule="evenodd" d="M-194.365 60.7776C-197.516 28.3085 -216.133 -13.2496 -198.528 -46.766C-183.487 -75.4079 -136.448 -79.1209 -104.774 -94.1666C-78.626 -106.576 -66.9861 -126.884 -53.9156 -146.834C-43.4295 -162.838 -33.2605 -178.995 -21.3574 -194.488C-12.5852 -205.905 0.809219 -225.18 19.0486 -227.543C35.4457 -229.667 53.0305 -212.651 62.2345 -203.994C75.6627 -191.356 87.1474 -177.63 99.0101 -164.193C119.854 -140.589 141.197 -119.364 171.704 -102.025C202.346 -84.6111 235.869 -71.5907 269.75 -58.0391C296.255 -47.4361 322.626 -36.5254 347.809 -24.2844C366.568 -15.1706 393.539 -3.50534 402.122 12.7466C408.917 25.6032 374.456 46.9382 364.294 54.4684C343.375 69.951 321.209 84.4853 299.002 98.9304C271.93 116.533 243.994 131.926 220.086 152.005C177.325 187.904 141.582 232.609 86.5604 259.29C53.3747 275.383 16.4439 279.498 -20.4666 277.091C-35.0824 276.138 -38.5913 260.963 -40.4334 252.112C-43.4969 237.409 -43.8816 222.453 -46.2365 207.69C-48.4431 193.871 -53.342 180.741 -57.2895 167.189C-61.2842 153.459 -62.4043 139.391 -65.3463 125.567C-67.1683 116.984 -68.9699 106.997 -76.9391 100.097C-85.1849 92.9538 -98.7885 89.9605 -110.678 87.6871C-133.007 83.4578 -192.138 83.6911 -194.365 60.7776Z" stroke="white" stroke-width="1.19861"/>
<path fill-rule="evenodd" clip-rule="evenodd" d="M-175.337 47.1864C-180.636 17.3822 -188.056 -19.7392 -166.466 -47.1985C-148.818 -69.6508 -111.18 -74.4942 -84.2969 -89.1236C-61.937 -101.289 -53.4913 -120.638 -42.3924 -138.619C-33.285 -153.367 -24.1304 -168.18 -13.0923 -182.215C-4.72079 -192.858 6.0676 -207.289 22.689 -211.003C36.9002 -214.175 52.9545 -199.962 60.8331 -192.888C74.2477 -180.831 85.1846 -167.322 96.0473 -153.992C113.816 -132.179 130.168 -108.879 155.458 -91.1364C180.032 -73.9192 209.224 -63.7564 238.963 -52.3294C261.741 -43.5746 284.378 -34.4826 305.84 -24.0422C322.32 -16.031 342.742 -6.53747 351.33 6.79311C358.756 18.2894 339.691 31.8976 330.165 40.008C314.434 53.3931 296.976 65.6727 279.76 78.0019C261.181 91.3027 240.604 103.572 222.625 117.2C184.819 145.879 154.614 177.632 108.017 199.603C77.8394 213.836 37.231 226.765 1.5578 224.44C-24.0967 222.764 -22.4089 181.013 -24.873 167.672C-28.9238 145.859 -36.7484 122.941 -49.1773 102.849C-59.8509 85.6314 -85.2151 80.322 -108.547 76.4601C-123.163 74.0359 -138.482 72.7272 -152.619 68.9794C-168.984 64.6366 -173.115 59.6792 -175.337 47.1864Z" stroke="white" stroke-width="1.19861"/>
<path fill-rule="evenodd" clip-rule="evenodd" d="M-157.599 33.216C-160.754 8.01802 -160.045 -21.779 -139.605 -43.5761C-121.693 -62.6685 -89.8002 -67.6952 -67.1173 -82.7354C-49.4142 -94.4692 -42.4613 -113.601 -32.9408 -129.119C-21.3054 -148.092 -5.00102 -183.134 24.351 -190.274C51.6556 -196.912 80.2103 -154.511 90.0957 -141.867C105.745 -121.855 118.833 -99.9086 137.813 -81.4277C154.158 -65.5174 176.057 -56.722 199.301 -47.2703C228.937 -35.1984 273.931 -20.884 289.776 2.64333C301.587 20.1745 263.181 46.2376 250.065 58.3841C236.349 71.0726 226.018 86.1128 211.862 98.3538C189.524 117.67 153.327 133.222 123.441 145.09C94.3863 156.635 56.6557 169.413 23.6956 168.652C2.03291 168.155 -2.08879 143.554 -6.71052 131.537C-13.3323 114.453 -22.1365 99.1443 -41.0491 87.5248C-60.2995 75.6965 -82.9892 70.1229 -106.841 65.2454C-119.085 62.7594 -133.051 60.8204 -144.004 55.7987C-156.106 50.3345 -156.383 42.9014 -157.599 33.216Z" stroke="white" stroke-width="1.19861"/>
<path fill-rule="evenodd" clip-rule="evenodd" d="M-135.976 18.6915C-135.801 -3.07763 -129.032 -26.2915 -108.962 -43.0834C-92.2457 -57.0701 -66.0802 -61.7455 -50.0779 -76.0439C-37.4026 -87.3639 -30.9505 -103.255 -22.4644 -116.401C-12.0857 -132.51 2.58983 -160.652 28.3983 -166.242C53.5872 -171.685 75.8666 -140.688 85.5246 -128.423C99.6681 -110.439 111.118 -91.3763 125.389 -73.4415C136.569 -59.3707 150.241 -50.3019 168.446 -41.2331C189.816 -30.581 219.632 -18.7811 231.048 -1.15799C239.278 11.6017 219.356 31.9905 212.122 43.2313C207.273 50.7812 202.835 58.4499 200.397 66.6332C198.497 73.0056 198.309 78.903 192.806 84.375C178.953 98.1391 148.578 99.935 127.969 104.472C100.598 110.493 71.5562 117.336 42.9123 118.642C25.307 119.458 16.3225 107.53 6.2739 99.1385C-5.59991 89.2187 -22.4105 82.0843 -37.0928 74.5987C-56.4694 64.7036 -77.5567 58.5489 -99.3713 52.2457C-109.211 49.4009 -120.768 46.6105 -128.392 40.9554C-136.353 35.0926 -136.037 26.5482 -135.976 18.6915Z" stroke="white" stroke-width="1.19861"/>
<path fill-rule="evenodd" clip-rule="evenodd" d="M-113.276 5.76892C-109.797 -12.5142 -98.9558 -29.9886 -80.6449 -42.9134C-66.6084 -52.8364 -47.9671 -58.4231 -36.7014 -70.3456C-26.2044 -81.4593 -18.8894 -94.0963 -10.2194 -105.979C-1.04371 -118.542 12.5883 -139.539 33.7511 -142.957C56.5588 -146.639 74.1281 -125.458 83.8566 -113.719C96.1471 -98.8841 105.485 -82.923 116.474 -67.577C124.753 -56.139 135.313 -45.6782 147.803 -36.5428C160.903 -26.9125 178.668 -17.6891 185.295 -4.44683C191.153 7.28217 180.191 21.4721 178.256 33.3648C176.187 46.0712 179.814 59.4177 168.339 70.328C144.675 92.8284 85.2859 88.6558 51.3339 89.1371C17.8335 89.6332 -9.10024 75.8651 -36.2093 62.7667C-54.1157 54.1188 -72.7637 46.7956 -91.1218 38.7381C-109.837 30.5169 -116.336 21.8591 -113.276 5.76892Z" stroke="white" stroke-width="1.19861"/>
<path fill-rule="evenodd" clip-rule="evenodd" d="M-92.1753 -4.69593C-81.8877 -31.183 -49.7568 -45.2607 -26.7868 -65.2774C-7.99259 -81.6642 6.0997 -115.6 37.7517 -120.089C73.6874 -125.184 95.2002 -80.2192 107.694 -62.869C121.557 -43.627 146.247 -27.9751 156.514 -7.60583C161.911 3.08532 157.276 13.0614 154.403 23.7476C151.252 35.4815 148.884 47.4786 138.01 56.9234C116.605 75.51 74.8004 75.3809 44.6933 75.8923C13.527 76.4236 -14.0437 63.6866 -38.8755 50.9744C-65.2117 37.5124 -102.712 22.4664 -92.1753 -4.69593Z" stroke="white" stroke-width="1.19861"/>
<path fill-rule="evenodd" clip-rule="evenodd" d="M-74.9466 -11.8788C-63.3545 -30.7499 -38.9946 -46.0917 -19.2281 -60.5746C-2.72998 -72.6486 15.0184 -96.9546 40.1733 -98.6872C69.7381 -100.731 87.6564 -74.7761 99.2894 -58.8617C110.739 -43.2238 127.237 -26.7121 133.577 -9.54888C140.188 8.33013 122.582 32.4091 105.792 45.0606C87.0653 59.1683 56.4268 64.381 30.1372 63.8182C2.61087 63.2456 -22.646 51.5863 -43.4928 39.4925C-65.7803 26.5645 -88.4278 10.0282 -74.9466 -11.8788Z" stroke="white" stroke-width="1.19861"/>
<path fill-rule="evenodd" clip-rule="evenodd" d="M-58.9545 -15.4317C-47.8815 -31.1275 -28.6875 -44.4051 -10.9898 -56.2486C2.66772 -65.3921 22.8207 -80.9396 42.5249 -81.3203C64.2014 -81.7407 82.5725 -68.6905 91.19 -55.314C99.6852 -42.1204 108.636 -25.579 109.908 -11.1047C112.669 20.4155 56.4477 55.7235 14.2304 52.8504C-25.7968 50.1257 -81.0323 15.8412 -58.9545 -15.4317Z" stroke="white" stroke-width="1.19861"/>
<path fill-rule="evenodd" clip-rule="evenodd" d="M-44.1721 -17.1621C-28.8964 -37.6124 8.20863 -66.7672 42.5604 -67.4596C81.9904 -68.2509 91.8887 -35.8073 86.7492 -12.2955C81.5281 11.7009 36.068 46.4343 -0.18045 41.7409C-35.5587 37.1612 -62.276 7.09149 -44.1721 -17.1621Z" stroke="white" stroke-width="1.19861"/>
<path fill-rule="evenodd" clip-rule="evenodd" d="M-28.5562 -20.4688C-15.6228 -37.5916 11.9763 -58.9789 40.7614 -59.6263C75.0597 -60.3923 74.4127 -33.0008 66.6351 -15.9522C58.5475 1.74872 22.9282 31.9816 -7.10379 27.208C-36.3068 22.548 -40.9505 -4.05769 -28.5562 -20.4688Z" stroke="white" stroke-width="1.19861"/>
<path fill-rule="evenodd" clip-rule="evenodd" d="M-14.9604 -22.4393C-6.42347 -34.6572 14.9426 -50.0992 35.2543 -50.5933C60.0811 -51.1872 55.255 -29.4616 48.8405 -18.9756C41.216 -6.49823 15.6591 15.1825 -5.78809 11.6689C-26.9041 8.21012 -22.0036 -12.3726 -14.9604 -22.4393Z" stroke="white" stroke-width="1.19861"/>
</g>
</svg>
