<svg width="375" height="119" viewBox="0 0 375 119" fill="none" xmlns="http://www.w3.org/2000/svg">
<g opacity="0.04">
<path fill-rule="evenodd" clip-rule="evenodd" d="M121.832 9.5746C121.803 1.86876 110.586 -6.79667 105.795 -11.2642C96.3206 -20.1004 86.4669 -28.2602 76.7045 -36.5503C66.9422 -44.8405 57.1535 -53.1081 47.8445 -62.2095C41.8001 -68.1175 34.698 -74.7717 30.5987 -83.2079C21.8661 -101.186 49.3995 -98.5161 56.5315 -98.9094C74.6751 -99.9139 95.4859 -99.4555 112.493 -108.818C122.645 -114.407 126.693 -123.78 124.513 -137.441C123.81 -141.884 121.73 -146.996 123.492 -151.324C125.374 -155.947 129.703 -158.615 133.297 -160.403C146.403 -166.92 161.471 -167.675 175.338 -168.493C190.291 -169.392 205.384 -169.129 220.232 -169.199C226.527 -169.228 233.102 -172.121 239.097 -174.471C246.957 -177.552 254.723 -181.013 262.517 -184.359C279.665 -191.703 297.334 -199.438 315.476 -201.303C326.837 -202.472 339.254 -200.892 348.08 -190.728C352.512 -185.624 354.831 -178.038 357.393 -171.298C360.494 -163.156 363.472 -154.936 366.774 -146.922C377.409 -121.112 392.594 -95.8914 417.241 -94.6239C420.969 -94.4329 424.631 -95.0554 428.342 -95.1722C430.705 -95.2441 432.808 -94.5138 433.687 -91.3519C435.896 -83.4213 428.953 -70.9019 426.107 -64.6096C419.875 -50.8361 412.846 -37.6807 406.262 -24.1837C401.907 -15.2576 394.367 -3.05948 394.288 7.78578C394.218 17.449 404.268 24.4334 409.74 29.1931C414.867 33.6494 424.157 39.8856 424.719 48.951C424.991 53.3466 422.725 56.9894 420.358 59.8165C416.209 64.7605 411.43 68.2482 407.698 73.8888C401.578 83.143 396.465 95.8759 397.296 108.346C397.872 116.987 401.727 122.645 406.631 128.054C408.692 130.329 410.365 131.938 410.474 135.63C410.65 141.493 408.854 147.698 407.375 153.134C402.082 172.588 394.566 191.4 386.204 208.965C382.025 217.742 377.511 226.493 371.971 233.981C368.343 238.898 363.449 244.75 357.915 244.743C351.507 244.743 344.726 241.786 338.497 239.574C326.864 235.442 315.37 230.664 303.923 225.763C277.45 214.423 251.225 202.165 225.25 188.989C206.953 179.692 188.269 170.381 171.067 158.022C167.712 155.594 164.546 152.764 161.61 149.57C158.474 146.214 154.582 144.713 150.635 143.594C126.142 136.648 99.3076 141.981 74.712 145.325C68.4691 146.172 62.2262 147.023 55.9657 147.617C50.5838 148.127 44.1406 149.59 38.9097 147.392C28.6027 143.066 37.613 127.122 41.4223 120.625C54.8341 97.7502 72.1379 78.3968 88.1765 58.6389C95.8022 49.2297 103.486 39.8451 110.697 29.9033C114.452 24.7346 121.856 16.3299 121.832 9.5746Z" stroke="white" stroke-width="0.312138"/>
<path fill-rule="evenodd" clip-rule="evenodd" d="M126.454 8.27543C122.343 0.1215 115.13 -5.90523 109.143 -11.577C100.528 -19.7422 91.6414 -27.4536 82.8887 -35.3874C74.6124 -42.8899 66.3186 -50.4778 58.6542 -58.9979C53.9807 -64.1935 48.1168 -70.4067 45.9031 -78.0911C41.1013 -94.7472 66.934 -92.2201 73.3113 -92.6559C89.1657 -93.7341 107.141 -93.9812 121.808 -102.751C130.967 -108.227 134.73 -117.309 132.776 -129.917C132.101 -134.279 130.885 -138.003 132.425 -142.343C134.206 -147.366 138.303 -150.497 142.058 -152.707C153.823 -159.633 167.729 -161.104 180.482 -162.328C193.657 -163.593 207.384 -164.485 220.135 -163.559C225.234 -163.191 231.103 -165.282 236.149 -166.886C243.914 -169.357 251.6 -172.207 259.325 -174.858C275.027 -180.249 291.136 -185.442 307.471 -186.033C319.264 -186.46 331.559 -184.146 341.37 -175.204C351.314 -166.136 355.725 -152.079 361.239 -138.716C370.762 -115.613 383.624 -87.5232 405.655 -82.6421C408.996 -81.9008 412.206 -82.3029 415.544 -82.1209C417.26 -82.0288 419.213 -81.7368 420.084 -79.5737C422.343 -73.958 416.152 -63.6903 414.068 -59.3887C408.312 -47.5015 401.84 -36.1961 395.807 -24.538C391.016 -15.2811 384.942 -4.99549 383.089 5.97751C380.84 19.2934 395.534 28.7681 400.702 38.144C409.66 54.4024 392.688 63.666 384.32 71.4179C374.711 80.3176 366.779 96.5536 375.393 110.323C378.688 115.588 382.743 118.726 384.215 125.598C386.516 136.344 384.775 148.624 382.908 159.247C380.095 175.215 375.643 191.011 369.591 205.443C365.255 215.776 358.062 231.978 347.528 230.763C340.437 229.952 333.228 226.99 326.323 224.37C315.984 220.451 305.776 215.983 295.622 211.342C272.182 200.659 249.001 188.879 226.275 175.923C210.769 167.079 167.515 130.939 164.26 129.65C154.556 125.809 143.523 126.485 133.518 127.08C120.21 127.871 106.968 129.92 93.7372 131.818C87.4391 132.716 81.1093 133.815 74.7777 134.257C70.2712 134.572 64.3528 134.841 60.4055 131.492C52.7007 124.958 61.2846 110.006 64.8346 103.681C75.7096 84.289 89.4664 67.4959 102.365 50.3255C108.695 41.8952 115.122 33.4785 120.868 24.3721C123.185 20.695 128.994 13.3116 126.454 8.27543Z" stroke="white" stroke-width="0.312138"/>
<path fill-rule="evenodd" clip-rule="evenodd" d="M132.141 4.09363C120.915 -12.2233 105.419 -24.3588 92.046 -37.9862C85.3339 -44.8279 78.5796 -51.8562 72.7904 -60.0057C69.7789 -64.2433 66.0185 -69.6022 65.4383 -75.5093C63.8877 -91.3117 87.171 -89.1749 94.1398 -89.7748C107.613 -90.9387 122.834 -91.8217 135.058 -99.8858C142.526 -104.815 146.204 -112.907 144.808 -123.541C144.189 -128.26 143.226 -132.268 144.808 -136.901C146.411 -141.595 149.751 -144.907 153.134 -147.39C162.854 -154.53 174.933 -156.813 185.877 -158.514C198.715 -160.495 211.65 -161.269 224.577 -160.828C235.898 -160.449 247.165 -164.72 258.22 -167.535C272.864 -171.263 287.774 -174.519 302.759 -174.026C314.595 -173.636 326.523 -170.564 336.64 -162.401C346.921 -154.088 353.102 -141.644 358.675 -128.217C367.1 -107.918 377.599 -80.7175 396.081 -73.0085C398.769 -71.885 401.274 -71.7614 404.046 -71.566C405.393 -71.4716 407.132 -71.4424 407.8 -69.6471C409.407 -65.3241 403.466 -56.9432 401.808 -54.0222C396.517 -44.6976 390.78 -35.7932 385.357 -26.5922C380.294 -18.0023 374.779 -9.05068 371.634 1.0154C366.629 17.047 382.63 26.421 382.182 41.6976C381.902 51.1818 374.798 57.9831 369.172 62.6881C362.246 68.4739 352.272 72.2778 348.806 82.836C346.223 90.7001 350.275 95.277 353.396 101.245C358.684 111.356 359.044 125.062 358.494 136.766C357.752 152.582 354.853 168.631 349.919 183.169C347.682 189.759 344.943 196.614 340.91 201.733C337.132 206.53 333.557 207.759 328.508 206.777C313.051 203.766 297.445 195.374 282.623 187.878C264 178.459 245.634 168.061 227.817 156.361C215.667 148.382 203.243 139.941 192.579 128.917C189.799 126.044 186.953 122.921 184.921 119.13C183.384 116.281 182.732 113.928 180.142 112.302C172.467 107.482 161.79 108.743 153.566 109.244C140.416 110.041 127.33 112.165 114.26 114.077C106.634 115.2 92.2675 118.735 86.1777 110.257C80.9212 102.937 87.2642 90.4552 90.5042 84.0066C98.7002 67.6987 109.243 53.386 119.025 38.6486C123.508 31.8944 128.166 25.0886 131.869 17.5795C132.815 15.6651 134.33 13.1284 134.59 10.8029C134.882 8.13805 133.52 6.1046 132.141 4.09363Z" stroke="white" stroke-width="0.312138"/>
<path fill-rule="evenodd" clip-rule="evenodd" d="M133.106 7.89253C122.732 -6.53463 110.234 -18.3871 99.0972 -31.8879C94.1036 -37.9411 89.0609 -44.2913 85.2559 -51.6758C83.2093 -55.6468 81.036 -60.6455 81.6004 -65.5812C83.2198 -79.7475 102.369 -78.4681 110.106 -79.2978C121.602 -80.5166 134.808 -81.7443 144.973 -89.3829C151.631 -94.3861 154.128 -101.775 152.885 -111.305C151.55 -121.527 154.534 -128.947 161.325 -134.65C169.838 -141.794 180.585 -144.706 190.47 -146.774C202.38 -149.255 214.44 -150.355 226.505 -150.06C238.238 -149.772 249.605 -152.286 261.261 -153.921C276.714 -156.086 292.664 -157.154 307.943 -152.715C321.246 -148.85 333.263 -140.332 342.27 -127.16C351.679 -113.412 356.337 -96.0905 363.976 -80.8808C368.741 -71.3939 375.386 -58.8444 384.29 -55.1566C387.26 -53.9266 392.672 -55.5861 390.3 -49.5351C388.944 -46.0744 386.407 -43.0388 384.402 -40.21C381.164 -35.6386 377.818 -31.193 374.524 -26.6845C367.505 -17.0739 359.989 -7.2587 354.728 4.12158C348.099 18.4498 357.952 29.477 356.752 44.0054C356.106 51.8239 351.855 58.0638 347.357 62.9658C344.447 66.1408 341.263 68.8909 338.012 71.4566C334.616 74.1369 330.599 76.1787 327.638 79.6438C323.418 84.5751 325.25 90.4125 326.041 96.7873C327.434 107.99 327.74 119.371 326.952 130.67C325.988 144.519 323.729 158.764 318.969 171.349C317.118 176.249 314.772 181.443 311.289 184.729C307.806 188.014 304.203 187.789 300.212 186.8C288.373 183.876 276.559 177.074 265.329 170.628C251.274 162.557 237.494 153.538 224.335 143.278C215.251 136.194 206.138 128.542 198.539 118.939C196.329 116.143 194.226 113.151 192.526 109.809C191.358 107.518 190.732 104.561 189.041 102.838C183.748 97.4619 173.123 99.0674 166.916 99.38C154.529 100.003 142.337 102.964 129.966 103.684C123.214 104.077 112.64 105.067 107.681 97.716C103.018 90.806 107.242 79.9226 110.028 73.2645C115.506 60.173 122.864 48.5094 129.459 36.3399C132.171 31.3322 135.142 26.0929 136.899 20.3746C138.46 15.2793 135.765 11.5915 133.106 7.89253Z" stroke="white" stroke-width="0.312138"/>
<path fill-rule="evenodd" clip-rule="evenodd" d="M135.658 8.12795C127.4 -4.56754 117.446 -15.8372 109.129 -28.7393C104.261 -36.295 95.8768 -48.9973 99.6418 -59.6494C103.772 -71.3547 118.17 -71.6735 126.492 -72.6166C136.397 -73.7393 148.03 -75.2729 156.506 -82.5817C159.187 -84.8922 161.471 -87.9504 162.439 -91.9787C163.476 -96.2899 162.343 -100.062 162.195 -104.378C161.886 -113.431 166.113 -120.7 171.707 -125.691C179.613 -132.748 189.499 -136.085 198.837 -138.411C209.416 -141.035 220.17 -142.329 230.947 -142.273C241.246 -142.228 251.436 -142.52 261.745 -142.857C275.227 -143.306 288.899 -142.581 301.977 -138.003C314.86 -133.489 326.573 -125.031 335.774 -112.589C344.75 -100.448 350.806 -85.6085 356.11 -70.4925C359.12 -61.9128 364.204 -49.0916 371.382 -44.7579C374.575 -42.8292 377.707 -42.9616 374.313 -37.9454C370.038 -31.6291 364.278 -26.5612 359.327 -21.1588C352.185 -13.3628 344.864 -5.41406 338.87 3.85495C335.042 9.77382 333.336 15.5176 333.599 23.1811C333.803 29.0191 334.727 34.7966 334.26 40.6571C333.165 54.4124 324.692 63.8453 317.201 72.6293C312.381 78.2787 307.98 82.5876 305.5 90.6239C302.566 100.122 301.334 110.455 299.374 120.317C297.22 131.147 294.732 142.412 290.031 151.95C285.846 160.442 280.756 164.251 273.138 161.962C261.256 158.397 249.545 149.613 238.997 141.487C228.261 133.219 217.709 123.923 208.812 112.559C204.009 106.423 200.73 99.2171 196.465 92.6246C191.099 84.348 178.961 87.4826 171.747 88.1832C159.773 89.3463 122.093 98.0494 125.57 69.8607C127.021 58.0948 132.736 47.2361 136.916 36.8533C138.648 32.5444 141.155 27.3733 141.547 22.4356C141.974 17.0579 138.14 11.9496 135.658 8.12795Z" stroke="white" stroke-width="0.312138"/>
<path fill-rule="evenodd" clip-rule="evenodd" d="M140.017 9.206C133.707 -2.29868 126.155 -13.1676 120.741 -25.5934C117.229 -33.6406 113.779 -44.3927 118.31 -52.9072C123.425 -62.5157 134.701 -64.7556 142.987 -65.9799C151.524 -67.2403 161.715 -68.3006 168.693 -75.5863C170.912 -77.907 172.742 -81.0365 173.083 -84.7837C173.411 -88.3782 172.484 -91.9727 172.792 -95.6324C173.48 -103.85 177.377 -110.622 182.402 -115.533C197.264 -130.061 219.386 -133.292 237.318 -133.671C246.294 -133.86 255.532 -132.869 264.566 -132.159C276.288 -131.238 288.029 -129.261 299.209 -124.496C322.979 -114.369 338.911 -91.9076 350.039 -63.958C353.54 -55.1605 356.22 -45.6418 361.709 -38.5718C364.538 -34.9211 363.92 -32.2994 361.027 -28.97C356.505 -23.7669 350.989 -19.7905 345.969 -15.4479C338.83 -9.27203 331.539 -3.0041 325.225 4.39385C320.873 9.49357 317.784 14.4068 316.846 22.0541C316.177 27.5066 316.333 33.0623 315.931 38.5484C315.166 48.9703 312.544 59.3135 307.902 67.9583C304.214 74.8103 299.823 81.0378 295.285 86.9755C289.386 94.706 284.397 102.56 279.917 111.735C273.977 123.88 265.632 146.283 251.642 140.354C236.212 133.812 221.749 117.19 211.85 101.084C208.525 95.6765 205.796 89.0446 201.312 85.0569C194.6 79.0968 187.79 79.3057 179.806 79.3304C167.853 79.3641 141.844 82.6823 141.563 59.7853C141.452 50.7136 144.522 42.1362 145.992 33.4105C147.65 23.638 144.327 17.0465 140.017 9.206Z" stroke="white" stroke-width="0.312138"/>
<path fill-rule="evenodd" clip-rule="evenodd" d="M144.717 10.2322C138.476 -4.76216 124.48 -29.401 135.125 -46.0746C140.748 -54.8863 150.694 -58.1976 159.037 -60.171C165.751 -61.7672 173.848 -62.3666 178.921 -69.133C182.65 -74.1079 180.994 -81.348 182.423 -87.5757C184.196 -95.2962 188.266 -101.614 193.267 -106.362C207.241 -119.632 226.672 -123.704 243.483 -124.571C260.942 -125.469 280.18 -121.269 296.61 -113.189C317.095 -103.111 332.442 -84.0286 343.175 -59.8634C345.155 -55.4026 346.955 -50.825 348.856 -46.3104C350.133 -43.2819 352.028 -40.3521 353.034 -37.1665C354.711 -31.8548 352.736 -27.513 349.569 -24.0512C345.015 -19.0673 339.42 -15.5202 334.227 -11.78C327.127 -6.66143 319.868 -1.63488 313.262 4.37049C308.824 8.41149 304.178 12.7645 302.589 19.7757C301.505 24.5575 301.28 29.6222 301.319 34.5747C301.403 45.1936 300.968 53.7807 297.091 63.506C290.713 79.4724 280.904 93.8292 270.542 105.775C262.41 115.15 249.542 129.713 237.693 123.445C227.062 117.833 220.844 104.399 213.84 93.5374C210.434 88.2571 206.609 83.4349 202.114 79.679C196.447 74.9443 191.112 72.9575 184.398 72.1829C173.098 70.8786 156.058 70.5396 152.565 53.2082C151.275 46.8122 152.011 40.1872 151.335 33.7081C150.451 25.1412 147.866 17.7956 144.717 10.2322Z" stroke="white" stroke-width="0.312138"/>
<path fill-rule="evenodd" clip-rule="evenodd" d="M151.208 10.7874C146.763 -5.61937 140.925 -26.2963 151.659 -40.8781C156.859 -47.942 164.173 -51.8908 171.251 -54.8418C176.321 -56.9567 184.371 -57.5792 187.479 -64.0812C189.762 -68.8661 190.078 -75.467 192.143 -80.5936C194.98 -87.6417 199.279 -93.447 204.323 -97.9915C217.461 -109.834 234.574 -114.409 250.18 -115.72C284.089 -118.563 318.591 -95.9193 336.736 -58.6648C342.147 -47.5599 349.13 -35.7403 340.387 -24.395C330.841 -12.018 316.461 -6.21945 305.068 2.575C300.715 5.93276 295.167 9.96926 292.739 16.0487C291.278 19.7032 291.178 24.2881 291.111 28.3111C290.935 38.5574 290.27 47.7721 287.048 57.333C282.071 72.108 274.135 85.7391 265.143 96.9046C257.3 106.641 246.116 118.083 234.727 111.064C225.994 105.67 220.455 94.2211 213.67 85.7818C206.119 76.3828 196.78 70.0493 186.525 66.9545C176.549 63.9519 165.607 61.9269 160.35 49.1701C158.546 44.7942 156.662 39.1283 155.986 34.2849C154.895 26.2993 153.297 18.4408 151.208 10.7874Z" stroke="white" stroke-width="0.312138"/>
<path fill-rule="evenodd" clip-rule="evenodd" d="M158.444 10.9026C156.388 -5.66467 156.159 -22.9397 165.712 -35.9972C170.171 -42.0889 175.807 -46.4166 181.506 -50.3377C185.699 -53.2229 190.03 -55.6564 193.161 -60.3864C196.063 -64.7658 198.268 -69.8508 201.07 -74.3449C204.765 -80.3004 209.186 -85.456 214.164 -89.6134C226.641 -100.015 241.82 -104.88 256.342 -106.567C263.371 -107.387 270.997 -107.814 277.979 -105.578C284.722 -103.421 291.389 -100.01 297.59 -96.0331C310.77 -87.5865 322.193 -75.2167 330.474 -59.5774C336.152 -48.8502 339.222 -38.4195 331.869 -27.5372C323.58 -15.2707 310.582 -8.50265 299.869 -0.541451C292.521 4.91881 284.286 10.2712 282.913 21.8748C281.82 31.1078 280.933 39.8712 278.105 48.5986C273.897 61.4718 267.709 73.133 259.909 82.8904C252.776 91.7797 243.751 99.3229 233.548 94.5749C225.464 90.8067 219.192 82.3646 212.129 76.3291C204.257 69.5881 195.609 65.8715 186.502 62.883C178.318 60.1865 170.612 56.043 165.322 47.2459C164.24 45.4483 163.103 43.4912 162.268 41.4801C161.203 38.914 161.285 36.3704 161.076 33.4942C160.532 25.9037 159.373 18.4009 158.444 10.9026Z" stroke="white" stroke-width="0.312138"/>
<path fill-rule="evenodd" clip-rule="evenodd" d="M166.423 9.54896C166.599 -6.1875 169.558 -21.0597 177.665 -33.3235C181.131 -38.5697 185.269 -42.8909 189.083 -47.6983C192.153 -51.5739 195.055 -55.1749 198.586 -58.3686C206.961 -65.9307 213.768 -75.7165 222.669 -82.4504C234.55 -91.4529 248.16 -96.4291 261.665 -98.4186C268.259 -99.3909 275.071 -99.7308 281.743 -98.6325C287.473 -97.6894 292.96 -94.3788 298.051 -90.9915C308.028 -84.3567 317.716 -74.9265 324.194 -62.9959C338.477 -36.6927 310.317 -17.569 295.864 -6.36982C289.217 -1.21811 279.06 4.74835 276.338 14.9527C274.391 22.2426 273.206 29.6562 270.699 36.7209C263.966 55.6938 250.298 78.0089 232.084 75.038C224.29 73.7687 217.186 68.6124 209.911 65.151C202.419 61.586 194.686 59.5986 186.899 57.4178C179.622 55.3809 173.822 52.4821 169.121 44.7107C166.874 40.9994 167.073 36.5566 166.873 32.0036C166.546 24.5247 166.344 17.0031 166.423 9.54896Z" stroke="white" stroke-width="0.312138"/>
<path fill-rule="evenodd" clip-rule="evenodd" d="M173.688 7.53284C176.615 -16.2199 187.482 -42.1512 203.462 -55.9456C222.259 -72.1723 242.623 -85.8365 265.081 -89.7646C275.494 -91.586 286.899 -92.4821 296.724 -86.526C304.202 -81.9959 312.887 -75.2245 317.002 -65.7019C327.07 -42.4095 304.676 -23.8672 291.918 -13.0914C285.049 -7.29018 276.306 -1.63723 271.129 6.83435C268.125 11.7462 266.592 18.2436 264.167 23.6383C256.818 39.9862 244.721 53.172 229.652 55.5302C222.685 56.6195 215.666 55.2719 208.752 54.2006C201.674 53.1046 194.508 52.5095 187.474 50.98C181.859 49.7582 175.241 47.6897 173.173 40.0065C170.565 30.3243 172.494 17.2329 173.688 7.53284Z" stroke="white" stroke-width="0.312138"/>
<path fill-rule="evenodd" clip-rule="evenodd" d="M180.813 3.71765C185.08 -18.614 194.117 -40.3971 209.31 -53.7286C217.366 -60.7979 226.718 -65.6778 235.697 -70.4993C245.875 -75.9636 256.509 -80.2051 267.37 -82.3091C280.893 -84.93 302.795 -87.2924 309.86 -67.5906C316.872 -48.035 299.152 -30.7272 288.673 -20.864C281.955 -14.5455 274.764 -8.74624 268.345 -1.83884C264.865 1.90595 262.183 6.23291 259.238 10.6251C251.097 22.7945 239.491 32.4284 227.662 37.5714C216.197 42.5569 202.014 44.7642 189.911 43.1166C184.69 42.4086 180.957 40.0192 179.378 33.2264C177.19 23.7835 179.049 12.9425 180.813 3.71765Z" stroke="white" stroke-width="0.312138"/>
<path fill-rule="evenodd" clip-rule="evenodd" d="M187.892 -2.29718C192.132 -21.9593 201.276 -39.918 214.615 -51.7189C229.566 -64.9479 248.819 -72.2988 266.515 -76.0369C275.921 -78.0224 296.304 -83.4058 301.098 -67.9988C305.893 -52.5919 292.033 -37.4088 284.056 -29.0506C274.374 -18.9218 263.936 -9.14221 253.51 -0.0542864C244.451 7.84728 234.786 15.9257 224.974 22.0276C219.44 25.4891 213.676 28.3155 207.749 30.4731C203.36 32.0579 197.779 34.4216 193.178 33.242C181.572 30.2627 185.865 7.10412 187.892 -2.29718Z" stroke="white" stroke-width="0.312138"/>
<path fill-rule="evenodd" clip-rule="evenodd" d="M196.632 -8.18541C205.934 -45.3688 235.406 -63.6563 263.782 -70.0306C270.376 -71.5102 288.861 -76.8449 292.547 -65.4862C296.119 -54.4733 284.759 -41.4127 279.441 -35.2248C262.963 -16.0505 242.603 -1.83361 223.311 12.2508C217.289 16.647 206.429 26.187 198.959 21.7863C190.849 16.9995 194.705 -0.475249 196.632 -8.18541Z" stroke="white" stroke-width="0.312138"/>
<path fill-rule="evenodd" clip-rule="evenodd" d="M206.16 -15.342C214.249 -42.7248 237.778 -58.4299 259.411 -63.6073C264.71 -64.8741 278.166 -68.8184 282.179 -61.177C285.893 -54.1083 277.031 -43.8659 273.715 -39.7958C266.333 -30.7326 257.585 -23.2664 248.942 -16.09C240.951 -9.45033 232.874 -2.6445 224.466 2.97088C220.037 5.92682 211.731 12.234 206.698 7.66984C201.28 2.75976 204.363 -9.26165 206.16 -15.342Z" stroke="white" stroke-width="0.312138"/>
<path fill-rule="evenodd" clip-rule="evenodd" d="M-53.9444 30.6471C-54.1672 13.1043 -61.4575 -5.12769 -57.8571 -23.0027C-54.9007 -37.6835 -40.0165 -38.9091 -31.0874 -45.5604C-23.9919 -50.8445 -19.9651 -60.2052 -16.1279 -69.1865C-12.6801 -77.2497 -9.58326 -85.5553 -5.95127 -93.486C-3.60013 -98.613 0.437168 -108.681 5.53599 -108.863C10.4172 -109.038 14.8932 -101.192 17.7286 -96.5546C21.4255 -90.5094 24.7031 -84.0647 28.2929 -77.9231C34.3427 -67.5635 41.6015 -59.8954 49.9129 -52.6381C59.3713 -44.3803 68.9858 -36.4047 78.7565 -28.7112C85.9503 -23.0297 93.1932 -17.3908 100.108 -11.1482C104.445 -7.23104 114.018 0.118313 114.062 7.33971C114.083 10.7854 111.53 14.6015 109.809 17.3558C106.897 22.0182 103.577 26.281 100.247 30.4518C94.0442 38.2209 87.5786 45.6376 81.1831 53.1441C72.8822 62.8863 64.9532 72.4692 57.6559 83.5292C50.1112 94.9775 42.9034 106.803 35.5481 118.467C30.5669 126.368 25.5909 135.242 18.4059 140.09C9.4066 146.151 2.0198 139.76 -7.08123 139.686C-14.9102 139.621 -14.3329 116.419 -15.3278 109.968C-16.3261 103.438 -18.5264 97.3592 -19.3791 90.8134C-20.4424 82.6425 -20.4564 74.283 -20.7179 66.0245C-21.0354 55.9231 -21.1618 46.3065 -29.6031 42.4545C-34.4071 40.2659 -39.6042 39.8057 -44.5767 38.4948C-47.7981 37.644 -53.8742 36.1894 -53.9444 30.6471Z" stroke="white" stroke-width="0.312138"/>
<path fill-rule="evenodd" clip-rule="evenodd" d="M-50.0959 27.5261C-50.9165 12.8209 -55.7648 -6.00067 -51.1801 -21.1802C-47.2632 -34.1521 -35.0135 -35.8337 -26.765 -42.6479C-19.9557 -48.2683 -16.9244 -57.4655 -13.5207 -66.5009C-10.7899 -73.7489 -8.14175 -81.0667 -5.04197 -88.0832C-2.75756 -93.2539 0.730575 -101.984 5.4804 -103.054C9.7505 -104.016 14.3299 -96.3092 16.7267 -92.3884C20.2237 -86.6646 23.2145 -80.4484 26.3037 -74.3627C31.7318 -63.6727 37.29 -54.0595 45.2345 -46.2067C53.2141 -38.3202 61.9441 -32.4233 70.7672 -26.2858C77.6697 -21.4837 84.537 -16.5423 91.095 -10.9983C95.9801 -6.8707 103.004 -1.58752 105.239 5.77295C107.009 11.5957 98.0344 21.2583 95.388 24.6687C89.9405 31.6807 84.168 38.2633 78.3849 44.8055C71.3348 52.7774 64.0598 59.749 57.8339 68.8428C46.6983 85.1015 37.3902 105.348 23.0616 117.432C14.4195 124.721 4.8021 126.584 -4.81001 125.494C-8.6162 125.062 -9.52997 118.19 -10.0097 114.181C-10.8075 107.522 -10.9076 100.749 -11.5209 94.0626C-12.0955 87.8037 -13.3713 81.8574 -14.3993 75.7199C-15.4396 69.5015 -15.7313 63.1302 -16.4974 56.8691C-16.9719 52.982 -17.4411 48.4587 -19.5164 45.3338C-21.6637 42.0987 -25.2063 40.743 -28.3026 39.7134C-34.1173 37.7979 -49.516 37.9036 -50.0959 27.5261Z" stroke="white" stroke-width="0.312138"/>
<path fill-rule="evenodd" clip-rule="evenodd" d="M-45.1424 21.3707C-46.5225 7.87248 -48.4547 -8.93975 -42.8322 -21.376C-38.2365 -31.5446 -28.435 -33.7382 -21.4342 -40.3639C-15.6113 -45.8736 -13.4119 -54.6367 -10.5215 -62.7802C-8.14982 -69.4597 -5.76581 -76.1684 -2.89129 -82.5246C-0.711222 -87.3451 2.09825 -93.881 6.42674 -95.5627C10.1276 -96.9996 14.3084 -90.5625 16.3601 -87.3586C19.8535 -81.8982 22.7016 -75.78 25.5305 -69.7426C30.1578 -59.8636 34.416 -49.3111 41.0019 -41.2754C47.4015 -33.4778 55.0036 -28.8751 62.7481 -23.6998C68.68 -19.7348 74.575 -15.617 80.164 -10.8886C84.4556 -7.26033 89.7739 -2.96072 92.0102 3.07668C93.9442 8.28335 88.9792 14.4465 86.4985 18.1197C82.4021 24.1818 77.8556 29.7432 73.3724 35.327C68.5341 41.351 63.1753 46.9079 58.4934 53.08C48.648 66.0686 40.7821 80.4493 28.6476 90.4001C20.7888 96.8461 10.2137 102.702 0.923828 101.649C-5.75702 100.89 -5.31749 81.9805 -5.9592 75.9386C-7.01408 66.0596 -9.05174 55.68 -12.2884 46.5801C-15.068 38.7824 -21.6733 36.3778 -27.7493 34.6288C-31.5557 33.5309 -35.5448 32.9381 -39.2263 31.2407C-43.488 29.2739 -44.564 27.0287 -45.1424 21.3707Z" stroke="white" stroke-width="0.312138"/>
<path fill-rule="evenodd" clip-rule="evenodd" d="M-40.5216 15.0436C-41.3433 3.63144 -41.1585 -9.86357 -35.8357 -19.7355C-31.171 -28.3824 -22.8656 -30.6589 -16.9586 -37.4706C-12.3484 -42.7849 -10.5378 -51.4498 -8.0585 -58.4776C-5.02845 -67.0705 -0.782509 -82.9412 6.86124 -86.1748C13.9718 -89.1809 21.4079 -69.9776 23.9823 -64.2513C28.0575 -55.1878 31.4659 -45.2483 36.4086 -36.8784C40.6651 -29.6726 46.368 -25.6892 52.4211 -21.4085C60.1387 -15.9412 71.856 -9.45825 75.9823 1.19726C79.0581 9.1371 69.0564 20.941 65.641 26.4422C62.069 32.1888 59.3786 39.0005 55.6922 44.5444C49.8749 53.2926 40.4487 60.3362 32.6659 65.7113C25.0996 70.9399 15.2739 76.7271 6.69056 76.3825C1.04924 76.1574 -0.0241164 65.0155 -1.22769 59.5729C-2.95211 51.8357 -5.24488 44.9024 -10.17 39.64C-15.1832 34.2829 -21.0919 31.7587 -27.3034 29.5496C-30.4918 28.4237 -34.1289 27.5455 -36.9812 25.2712C-40.1327 22.7965 -40.2048 19.4301 -40.5216 15.0436Z" stroke="white" stroke-width="0.312138"/>
<path fill-rule="evenodd" clip-rule="evenodd" d="M-34.8913 8.46544C-34.8457 -1.39378 -33.083 -11.9073 -27.8564 -19.5123C-23.5032 -25.8469 -16.6892 -27.9644 -12.522 -34.4401C-9.22111 -39.5669 -7.54087 -46.7641 -5.33095 -52.7178C-2.62818 -60.0136 1.19358 -72.7589 7.91455 -75.2909C14.4742 -77.7557 20.2761 -63.7175 22.7912 -58.1627C26.4744 -50.0177 29.456 -41.3841 33.1725 -33.2615C36.084 -26.8888 39.6445 -22.7816 44.3853 -18.6743C49.9504 -13.85 57.7149 -8.50587 60.6878 -0.524378C62.8311 5.25447 57.643 14.4885 55.7593 19.5795C54.4965 22.9988 53.3407 26.472 52.7058 30.1781C52.2112 33.0642 52.1621 35.7351 50.7291 38.2134C47.1214 44.4471 39.2112 45.2605 33.8443 47.3153C26.7164 50.0422 19.1536 53.1412 11.6942 53.7327C7.10951 54.1024 4.7698 48.7 2.15297 44.8998C-0.939162 40.4071 -5.31691 37.176 -9.14043 33.7857C-14.1864 29.3043 -19.6779 26.5168 -25.3588 23.6621C-27.9213 22.3737 -30.931 21.1099 -32.9164 18.5487C-34.9895 15.8935 -34.9071 12.0237 -34.8913 8.46544Z" stroke="white" stroke-width="0.312138"/>
<path fill-rule="evenodd" clip-rule="evenodd" d="M-28.979 2.6128C-28.073 -5.66761 -25.2499 -13.5817 -20.4814 -19.4353C-16.8261 -23.9295 -11.9716 -26.4597 -9.03781 -31.8593C-6.30419 -36.8927 -4.39926 -42.616 -2.14144 -47.9977C0.248059 -53.6873 3.79807 -63.1968 9.3092 -64.745C15.2487 -66.4123 19.8241 -56.8197 22.3575 -51.5031C25.5582 -44.7844 27.9898 -37.5556 30.8516 -30.6055C33.0075 -25.4252 35.7576 -20.6875 39.0103 -16.5501C42.4216 -12.1886 47.0479 -8.01129 48.7737 -2.0139C50.2994 3.29815 47.4446 9.72473 46.9408 15.1109C46.4018 20.8656 47.3463 26.9102 44.3581 31.8515C38.1956 42.0419 22.7297 40.1521 13.8881 40.3701C5.16401 40.5948 -1.85 34.3592 -8.90964 28.427C-13.5728 24.5104 -18.429 21.1937 -23.2098 17.5445C-28.0836 13.8211 -29.7761 9.90001 -28.979 2.6128Z" stroke="white" stroke-width="0.312138"/>
<path fill-rule="evenodd" clip-rule="evenodd" d="M-23.4845 -2.12667C-20.8054 -14.1226 -12.438 -20.4984 -6.45624 -29.5639C-1.56191 -36.9855 2.10795 -52.3549 10.3507 -54.3879C19.7089 -56.6953 25.3112 -36.331 28.5647 -28.4732C32.1749 -19.7585 38.6046 -12.6698 41.2784 -3.44456C42.6838 1.39744 41.4769 5.91559 40.7285 10.7553C39.9081 16.0696 39.2915 21.5031 36.4596 25.7806C30.8854 34.1985 19.9988 34.14 12.1584 34.3716C4.04215 34.6123 -3.13772 28.8437 -9.60435 23.0864C-16.4627 16.9894 -26.2285 10.1751 -23.4845 -2.12667Z" stroke="white" stroke-width="0.312138"/>
<path fill-rule="evenodd" clip-rule="evenodd" d="M-18.9974 -5.37989C-15.9786 -13.9266 -9.63484 -20.8749 -4.48732 -27.4342C-0.190931 -32.9025 4.43105 -43.9106 10.9818 -44.6953C18.681 -45.6208 23.3472 -33.866 26.3766 -26.6584C29.3582 -19.576 33.6546 -12.0979 35.3056 -4.32469C37.0273 3.77269 32.4425 14.678 28.07 20.4079C23.1932 26.7972 15.2145 29.158 8.36823 28.9032C1.19991 28.6438 -5.37738 23.3633 -10.8063 17.8861C-16.6103 12.031 -22.5081 4.54174 -18.9974 -5.37989Z" stroke="white" stroke-width="0.312138"/>
<path fill-rule="evenodd" clip-rule="evenodd" d="M-14.8336 -6.98885C-11.95 -14.0974 -6.95156 -20.1109 -2.34279 -25.4748C1.21386 -29.6159 6.46204 -36.6573 11.5933 -36.8297C17.2383 -37.0201 22.0224 -31.1097 24.2666 -25.0515C26.4788 -19.0761 28.8098 -11.5846 29.141 -5.02917C29.8601 9.24626 15.2191 25.2372 4.22497 23.936C-6.19878 22.702 -20.583 7.17459 -14.8336 -6.98885Z" stroke="white" stroke-width="0.312138"/>
<path fill-rule="evenodd" clip-rule="evenodd" d="M-10.9833 -7.77257C-7.00527 -17.0345 2.6575 -30.2386 11.6033 -30.5522C21.8715 -30.9106 24.4492 -16.2169 23.1108 -5.56851C21.7511 5.29942 9.91254 21.0302 0.472845 18.9045C-8.74024 16.8304 -15.6979 3.21184 -10.9833 -7.77257Z" stroke="white" stroke-width="0.312138"/>
<path fill-rule="evenodd" clip-rule="evenodd" d="M-6.91737 -9.27019C-3.54928 -17.0251 3.63796 -26.7114 11.1341 -27.0045C20.0659 -27.3514 19.8975 -14.9459 17.872 -7.22461C15.7659 0.792112 6.49004 14.4845 -1.3308 12.3226C-8.93576 10.2121 -10.145 -1.8376 -6.91737 -9.27019Z" stroke="white" stroke-width="0.312138"/>
<path fill-rule="evenodd" clip-rule="evenodd" d="M-3.37646 -10.1627C-1.15329 -15.6961 4.4108 -22.6898 9.70029 -22.9136C16.1656 -23.1826 14.9088 -13.343 13.2384 -8.59395C11.2528 -2.94296 4.59739 6.87621 -0.987825 5.28489C-6.48679 3.71843 -5.21062 -5.60344 -3.37646 -10.1627Z" stroke="white" stroke-width="0.312138"/>
</g>
</svg>
