<svg width="17" height="17" viewBox="0 0 17 17" fill="none" xmlns="http://www.w3.org/2000/svg">
<path d="M12.2152 16.1903C13.5915 16.1903 14.5014 15.8184 15.308 14.9166C15.3715 14.8535 15.4268 14.7823 15.4903 14.7188C15.9648 14.189 16.1862 13.6668 16.1862 13.1687C16.1862 12.599 15.8541 12.0691 15.1501 11.5784L12.8483 9.98067C12.1362 9.49028 11.3056 9.43493 10.6411 10.0914L10.0322 10.7006C9.84999 10.8825 9.69204 10.8906 9.51013 10.7795C9.09095 10.5105 8.22864 9.75927 7.64308 9.17404C7.02613 8.56486 6.42504 7.88479 6.11657 7.3863C6.00587 7.20405 6.02173 7.05387 6.20364 6.87195L6.80473 6.26277C7.46927 5.59857 7.41392 4.75988 6.92353 4.05619L5.3177 1.75444C4.83508 1.05008 4.3052 0.725743 3.7355 0.717981C3.23735 0.709881 2.71524 0.93938 2.18537 1.41391C2.11415 1.47736 2.0507 1.53271 1.97949 1.58806C1.08579 2.39468 0.713867 3.30458 0.713867 4.67281C0.713867 6.93541 2.10605 9.68806 4.66127 12.2429C7.20028 14.7823 9.96103 16.1903 12.2152 16.1903ZM12.2233 14.972C10.2061 15.0114 7.61979 13.4613 5.57083 11.4204C3.50634 9.36372 1.88465 6.69004 1.92414 4.67314C1.94 3.80273 2.24072 3.05146 2.86577 2.51348C2.91302 2.46623 2.96027 2.42641 3.01562 2.38692C3.24512 2.18104 3.50634 2.07068 3.72774 2.07068C3.965 2.07068 4.17054 2.15742 4.32107 2.39468L5.85568 4.69643C6.02173 4.94179 6.03759 5.21888 5.79223 5.46391L5.0963 6.16017C4.54247 6.70591 4.59005 7.37044 4.9856 7.90032C5.43617 8.50951 6.2195 9.39544 6.82059 9.99653C7.42978 10.6057 8.38659 11.4599 8.99578 11.9186C9.52565 12.3141 10.1983 12.354 10.744 11.8079L11.44 11.112C11.6853 10.8666 11.9543 10.8825 12.1993 11.0408L14.5011 12.5754C14.7387 12.7333 14.8335 12.9311 14.8335 13.1687C14.8335 13.3982 14.7228 13.6513 14.5095 13.8882C14.4723 13.9403 14.4327 13.9905 14.3907 14.0388C13.845 14.6557 13.0934 14.9561 12.2233 14.972Z" fill="white"/>
</svg>
