<svg width="352" height="966" viewBox="0 0 352 966" fill="none" xmlns="http://www.w3.org/2000/svg">
<path d="M376.251 -137.577C409.551 -101.86 440.807 -64.0342 469.826 -24.3635C482.719 -6.72209 495.407 11.7453 501.33 33.1503C516.49 87.8375 484.193 144.251 448.256 186.853C415.162 226.088 377.66 261.147 336.779 291.046C296.266 320.683 251.81 345.845 218.935 384.621C186.058 423.415 166.917 481.266 188.155 528.159C200.796 556.066 226.02 575.994 253.484 586.718C280.966 597.445 310.708 599.854 340.007 600.057C373.565 600.288 408.934 598.157 438.611 614.641C469.34 631.694 489.019 668.747 486.803 705.361C483.644 757.445 442.693 796.473 409.187 834.887C366.63 883.691 331.27 942.915 324.346 1008.84C317.408 1074.74 344.608 1147.41 400.527 1177.49" stroke="white" stroke-width="0.513008" stroke-miterlimit="10"/>
<path d="M362.511 -133.076C395.28 -98.0091 425.894 -60.7001 454.143 -21.5496C466.693 -4.14173 479.02 14.0889 484.858 35.1147C496.578 77.3465 480.224 120.667 456.029 157.803C449.452 167.922 442.276 177.59 434.943 186.656C403.38 225.626 367.381 260.588 328.002 290.619C288.977 320.368 245.851 345.612 213.997 384.129C196.145 405.718 181.987 432.544 175.749 460.317C170.321 484.516 171.042 509.616 180.919 532.26C182.681 536.31 184.705 540.196 186.956 543.911C200.882 566.872 223.56 583.338 247.912 593.107C255.735 596.241 263.73 598.753 271.838 600.788C292.991 606.078 314.912 608.171 336.474 609.337C370.691 611.219 405.917 611.899 435.305 629.73C464.493 647.449 483.683 683.036 481.693 718.807C478.852 769.702 439.988 808.161 408.504 845.957C406.032 848.929 403.568 851.96 401.156 855.001C364.574 901.167 335.599 955.641 330.661 1015.3C325.393 1078.93 352.867 1148.55 407.669 1176.99" stroke="#FEFEFE" stroke-width="0.513008" stroke-miterlimit="10"/>
<path d="M348.746 -128.554C380.981 -94.1194 410.94 -57.3679 438.431 -18.6974C450.655 -1.52012 462.601 16.4892 468.354 37.1356C479.905 78.6087 464.577 121.19 441.652 157.881C435.419 167.889 428.602 177.467 421.622 186.48C391.571 225.182 357.091 260.069 319.218 290.213C281.681 320.072 239.913 345.443 209.055 383.637C190.898 406.111 176.215 433.61 169.413 462.183C163.521 487.009 163.817 512.952 173.662 536.357C175.421 540.541 177.456 544.582 179.754 548.459C193.862 572.314 217.25 589.213 242.33 599.533C250.379 602.84 258.599 605.527 266.895 607.748C288.564 613.552 311.006 616.466 332.932 618.636C367.788 622.183 402.865 625.597 432.008 644.841C459.674 663.113 478.376 697.328 476.612 732.258C474.088 781.963 437.312 819.853 407.85 857.031C405.531 859.953 403.238 862.938 400.98 865.929C366.814 911.278 340.364 964.264 336.981 1021.81C333.37 1083.14 361.131 1149.73 414.817 1176.53" stroke="#FEFEFE" stroke-width="0.513008" stroke-miterlimit="10"/>
<path d="M334.979 -124.034C366.663 -90.2343 395.981 -54.0185 422.721 -15.8652C434.599 1.09692 446.186 18.8507 451.834 39.1333C463.196 79.8631 448.914 121.691 427.237 157.951C421.328 167.863 414.888 177.355 408.261 186.316C379.741 224.752 346.778 259.563 310.394 289.818C274.345 319.788 233.948 345.325 204.071 383.175C185.623 406.555 170.4 434.705 163.037 464.06C156.682 489.512 156.566 516.321 166.38 540.486C168.132 544.822 170.182 549 172.512 553.016C186.823 577.751 210.904 595.079 236.711 605.95C244.968 609.429 253.414 612.29 261.912 614.719C284.115 621.04 307.045 624.749 329.351 627.945C364.866 633.142 399.729 639.24 428.653 659.958C454.811 678.691 472.994 711.625 471.452 745.732C469.247 794.247 434.557 831.568 407.118 868.126C404.952 870.999 402.815 873.916 400.724 876.879C368.99 921.433 345.065 972.931 343.244 1028.32C341.289 1087.36 369.341 1150.89 421.91 1176.06" stroke="#FDFDFD" stroke-width="0.513008" stroke-miterlimit="10"/>
<path d="M321.21 -119.512C352.363 -86.3629 381.038 -50.6643 407.024 -13.0097C418.575 3.72192 429.766 21.2326 435.348 41.139C446.523 81.107 433.285 122.2 412.856 158.029C407.291 167.83 401.207 177.251 394.937 186.141C367.929 224.308 336.484 259.043 301.606 289.412C267.048 319.474 228.054 345.202 199.125 382.684C180.387 406.97 164.641 435.774 156.7 465.907C149.864 491.982 149.34 519.639 159.14 544.568C160.889 549.037 162.95 553.37 165.312 557.527C179.823 583.159 204.614 600.92 231.152 612.322C239.637 615.957 248.289 619.008 256.992 621.627C279.708 628.479 303.147 632.969 325.835 637.172C362.01 644.019 396.633 652.738 425.366 674.975C450.048 694.096 467.695 725.843 466.364 759.086C464.477 806.411 431.892 843.166 406.458 879.103C404.462 881.93 402.478 884.797 400.544 887.692C371.227 931.429 349.824 981.458 349.561 1034.71C349.262 1091.45 377.601 1151.95 429.054 1175.48" stroke="#FDFDFD" stroke-width="0.513008" stroke-miterlimit="10"/>
<path d="M307.464 -114.989C338.083 -82.4717 366.1 -47.3118 391.331 -10.1558C402.539 6.34206 413.368 23.6159 418.845 43.1584C429.832 82.3833 417.639 122.722 398.459 158.122C393.239 167.811 387.514 177.142 381.578 185.976C356.101 223.879 326.16 258.516 292.787 288.999C259.735 319.174 222.143 345.094 194.166 382.188C175.155 407.384 158.852 436.836 150.35 467.75C143.051 494.452 142.101 522.952 151.866 548.66C153.609 553.282 155.684 557.751 158.075 562.066C172.769 588.593 198.273 606.768 225.535 618.739C234.229 622.545 243.124 625.773 252.011 628.598C275.243 635.963 299.212 641.218 322.273 646.483C359.119 654.907 393.499 666.265 422.031 690.095C445.249 709.512 462.332 740.142 461.245 772.546C459.676 818.682 429.177 854.868 405.766 890.186C403.923 892.964 402.11 895.784 400.328 898.63C373.429 941.55 354.565 990.113 355.863 1041.2C357.218 1095.68 385.867 1153.1 436.183 1175.01" stroke="#FCFCFC" stroke-width="0.513008" stroke-miterlimit="10"/>
<path d="M293.7 -110.487C323.785 -78.6013 351.163 -43.9771 375.624 -7.3415C386.489 8.92268 396.957 25.9597 402.347 45.1415C413.146 83.6045 401.997 123.209 384.083 158.18C379.204 167.777 373.838 177.019 368.256 185.8C344.291 223.434 315.868 257.996 284.018 288.595C252.455 318.881 216.316 345.02 189.236 381.717C169.95 407.841 153.09 437.941 144.03 469.619C136.25 496.943 134.892 526.29 144.64 552.781C146.394 557.558 148.466 562.161 150.888 566.616C165.786 594.021 191.979 612.644 219.971 625.148C228.891 629.128 237.994 632.527 247.087 635.541C270.852 643.423 295.31 649.474 318.75 655.765C356.273 665.841 390.399 679.684 418.734 705.184C440.54 724.81 457.026 754.414 456.144 785.992C454.893 830.937 426.481 866.555 405.109 901.258C403.42 903.985 401.777 906.76 400.152 909.537C375.684 951.662 359.326 998.734 362.184 1047.69C365.212 1099.87 394.131 1154.26 443.33 1174.53" stroke="#FBFBFB" stroke-width="0.513008" stroke-miterlimit="10"/>
<path d="M279.935 -105.965C309.489 -74.7302 336.207 -40.6262 359.913 -4.48921C370.449 11.563 380.541 28.3414 385.844 47.1626C396.454 84.8824 386.348 123.751 369.685 158.274C365.151 167.759 360.126 176.908 354.915 185.641C332.48 223.009 305.575 257.495 275.213 288.205C245.138 318.601 210.448 344.978 184.273 381.242C164.725 408.315 147.296 439.023 137.676 471.481C129.432 499.432 127.663 529.645 137.365 556.874C139.115 561.785 141.199 566.543 143.653 571.137C158.733 599.437 185.657 618.478 214.359 631.529C223.504 635.683 232.816 639.253 242.111 642.476C266.389 650.89 291.374 657.723 315.175 665.037C353.358 676.764 387.256 693.038 415.386 720.264C435.809 740.027 451.647 768.692 450.994 799.409C450.064 843.147 423.736 878.214 404.387 912.298C402.868 914.979 401.361 917.701 399.906 920.432C377.855 961.74 364.036 1007.35 368.455 1054.14C373.139 1104.03 402.346 1155.38 450.432 1174.01" stroke="#FBFBFB" stroke-width="0.513008" stroke-miterlimit="10"/>
<path d="M266.17 -101.443C295.191 -70.8398 321.268 -37.2715 344.223 -1.6517C354.415 14.1669 364.146 30.7084 369.347 49.1471C379.768 86.1238 370.641 124.208 355.296 158.313C351.089 167.684 346.438 176.765 341.58 185.445C320.657 222.545 295.27 256.955 266.414 287.778C237.827 318.285 204.619 344.925 179.313 380.748C159.507 408.752 141.524 440.089 131.324 473.326C122.6 501.901 120.423 532.96 130.107 560.972C131.852 566.034 133.967 570.932 136.433 575.682C151.716 604.861 179.329 624.349 208.759 637.951C218.112 642.276 227.65 646.021 237.15 649.433C261.961 658.363 287.434 665.993 311.617 674.313C350.46 687.69 384.142 706.321 412.073 735.351C431.143 755.18 446.324 782.961 445.897 812.837C445.285 855.385 421.044 889.883 403.717 923.349C402.351 925.98 401.017 928.637 399.716 931.319C380.081 971.809 368.787 1015.93 374.762 1060.6C381.101 1108.2 410.599 1156.5 457.565 1173.5" stroke="#FAFAFA" stroke-width="0.513007" stroke-miterlimit="10"/>
<path d="M266.17 -101.443C295.191 -70.8398 321.268 -37.2714 344.223 -1.65168C354.415 14.1669 364.146 30.7084 369.347 49.1471C379.768 86.1239 370.641 124.208 355.296 158.313C351.089 167.684 346.438 176.765 341.58 185.445C320.657 222.545 295.27 256.955 266.414 287.778C237.827 318.285 204.619 344.925 179.313 380.748C159.507 408.753 141.523 440.089 131.324 473.326C122.6 501.901 120.423 532.96 130.107 560.972C131.852 566.034 133.967 570.932 136.433 575.682C151.716 604.861 179.329 624.349 208.759 637.951C218.112 642.276 227.65 646.021 237.15 649.433C261.961 658.363 287.434 665.993 311.617 674.313C350.46 687.69 384.142 706.321 412.073 735.351C431.143 755.18 446.324 782.961 445.897 812.837C445.285 855.385 421.044 889.883 403.717 923.349C402.351 925.98 401.017 928.637 399.716 931.319C380.081 971.81 368.787 1015.93 374.762 1060.6C381.101 1108.2 410.599 1156.5 457.565 1173.5" stroke="#FAFAFA" stroke-width="0.513007" stroke-miterlimit="10"/>
<path d="M252.42 -96.9245C280.907 -66.9528 306.33 -33.9418 328.527 1.19799C338.393 16.786 347.745 33.0876 352.859 51.1656C363.094 87.3807 355.009 124.73 340.913 158.405C337.05 167.664 332.758 176.655 328.253 185.283C308.861 222.118 284.977 256.43 257.624 287.386C230.542 318.007 198.815 344.909 174.364 380.27C154.311 409.246 135.744 441.169 124.982 475.206C115.794 504.406 113.191 536.309 122.841 565.1C124.582 570.296 126.706 575.368 129.206 580.239C144.69 610.315 173.016 630.217 203.155 644.367C212.737 648.848 222.498 652.785 232.182 656.403C257.509 665.846 283.506 674.277 308.051 683.62C347.553 698.647 381.067 719.566 408.733 750.465C426.497 770.293 440.954 797.274 440.753 826.308C440.459 867.666 418.319 901.617 402.999 934.443C401.786 937.025 400.623 939.635 399.475 942.267C382.254 981.96 373.502 1024.59 381.038 1067.11C389.031 1112.43 418.819 1157.68 464.668 1173.05" stroke="#F9F9F9" stroke-width="0.513008" stroke-miterlimit="10"/>
<path d="M238.657 -92.4001C266.613 -63.0786 291.393 -30.5847 312.818 4.05343C322.337 19.4264 331.331 35.4726 336.34 53.1868C346.403 88.6619 339.33 125.251 326.517 158.502C322.981 167.646 319.063 176.57 314.91 185.145C297.031 221.712 274.664 255.948 248.817 287.018C223.226 317.73 193.01 344.939 169.395 379.835C149.117 409.767 129.946 442.29 118.623 477.109C108.954 506.933 105.96 539.686 115.579 569.237C117.314 574.585 119.451 579.794 121.984 584.804C137.65 615.775 166.686 636.11 197.573 650.794C207.364 655.446 217.35 659.558 227.237 663.384C253.094 673.362 279.579 682.589 304.506 692.938C344.665 709.634 378.06 732.755 405.415 765.591C421.915 785.385 435.627 811.582 435.633 839.771C435.657 879.94 415.604 913.323 402.309 945.51C401.267 948.046 400.24 950.604 399.265 953.171C384.478 992.05 378.23 1033.21 387.324 1073.59C396.99 1116.62 427.051 1158.81 471.784 1172.55" stroke="#F9F9F9" stroke-width="0.513008" stroke-miterlimit="10"/>
<path d="M224.894 -87.9015C252.316 -59.2117 276.438 -27.2565 297.129 6.86756C306.305 22.0069 314.921 37.8131 319.862 55.1512C329.74 89.8646 323.709 125.719 312.145 158.539C308.95 167.591 305.391 176.425 301.577 184.926C285.227 221.227 264.379 255.388 240.039 286.552C215.936 317.376 187.27 344.878 164.46 379.284C143.97 410.194 124.195 443.319 112.296 478.897C102.164 509.347 98.7419 542.962 108.346 573.277C110.075 578.777 112.227 584.122 114.806 589.295C130.675 621.144 160.404 641.908 192.015 657.162C202.031 661.988 212.226 666.271 222.318 670.287C248.691 680.778 275.7 690.807 300.988 702.178C341.806 720.524 375.142 745.819 402.126 780.62C417.406 800.331 430.329 825.794 430.561 853.141C430.903 892.12 412.937 924.934 401.664 956.503C400.775 958.99 399.918 961.501 399.096 964.019C386.726 1002.08 383.017 1041.78 393.672 1080C404.994 1120.74 435.342 1159.89 478.959 1171.99" stroke="#F8F8F8" stroke-width="0.513008" stroke-miterlimit="10"/>
<path d="M211.132 -83.3793C238.023 -55.3399 261.485 -23.9048 281.421 9.72078C290.271 24.6296 298.508 40.1959 303.363 57.1733C313.051 91.1436 308.063 126.263 297.749 158.634C294.899 167.575 291.699 176.319 288.235 184.786C273.398 220.819 254.067 254.904 231.233 286.182C208.618 317.116 181.48 344.928 159.495 378.828C138.809 410.737 118.4 444.42 105.941 480.779C95.3276 511.852 91.4975 546.315 101.07 577.39C102.795 583.024 104.959 588.524 107.57 593.836C123.639 626.583 154.078 647.779 186.401 663.562C196.626 668.559 207.064 673.02 217.34 677.24C244.229 688.245 271.718 699.125 297.415 711.451C338.859 731.536 372.254 758.834 398.779 795.7C412.865 815.275 424.952 840.071 425.41 866.577C426.07 904.366 410.19 936.611 400.939 967.562C400.203 969.999 399.517 972.464 398.851 974.914C388.898 1012.16 387.709 1050.39 399.923 1086.47C412.901 1124.92 443.539 1161.02 486.037 1171.5" stroke="#F8F8F8" stroke-width="0.513008" stroke-miterlimit="10"/>
<path d="M197.387 -78.8546C223.744 -51.4468 246.567 -20.5473 265.734 12.558C274.238 27.2518 282.116 42.5626 286.866 59.1763C296.368 92.385 292.423 126.769 283.375 158.714C280.869 167.543 278.007 176.213 274.917 184.612C261.592 220.377 243.779 254.386 222.451 285.777C201.323 316.822 175.749 344.949 154.551 378.357C133.671 411.246 112.626 445.505 99.6057 482.646C88.5295 514.345 84.2737 549.651 93.8294 581.509C95.5482 587.294 97.726 592.932 100.369 598.383C116.621 632.024 147.772 653.635 180.823 669.968C191.277 675.121 201.92 679.771 212.401 684.181C239.823 695.702 267.818 707.381 293.876 720.729C335.977 742.483 369.484 771.793 395.468 810.785C408.416 830.215 419.631 854.339 420.297 880C421.275 916.6 407.482 948.276 400.252 978.608C399.687 980.999 399.136 983.411 398.642 985.814C391.119 1022.26 392.454 1059 406.227 1092.95C420.857 1129.12 451.786 1162.17 493.17 1171" stroke="#F7F7F7" stroke-width="0.513008" stroke-miterlimit="10"/>
<path d="M183.622 -74.3381C209.446 -47.562 231.61 -17.2011 250.023 15.4057C258.201 29.8689 265.701 44.9399 270.366 61.1743C279.679 93.64 276.78 127.271 268.983 158.766C266.818 167.502 264.319 176.064 261.582 184.411C249.787 219.911 233.477 253.822 213.651 285.346C194.029 316.504 170.015 344.966 149.592 377.84C128.551 411.735 106.855 446.548 93.2561 484.467C81.7196 516.774 77.0528 552.946 86.5562 585.579C88.2892 591.501 90.4607 597.291 93.1325 602.901C109.587 637.421 141.446 659.482 175.207 676.363C185.868 681.687 196.737 686.511 207.421 691.13C235.355 703.182 263.856 715.66 290.297 730.014C333.057 753.418 366.789 784.703 392.114 825.877C403.966 845.132 414.251 868.611 415.14 893.449C416.435 928.859 404.746 959.97 399.521 989.68C399.109 992.022 398.732 994.369 398.39 996.722C393.284 1032.36 397.143 1067.61 412.474 1099.42C428.76 1133.3 459.976 1163.31 500.244 1170.5" stroke="#F6F6F6" stroke-width="0.513008" stroke-miterlimit="10"/>
<path d="M169.862 -69.8148C195.137 -43.6921 216.677 -13.8451 234.335 18.2631C242.169 32.4927 249.308 47.3268 253.886 63.2006C263.013 94.9047 261.172 127.822 254.608 158.866C252.787 167.49 250.644 175.981 248.26 184.276C237.977 219.507 223.202 253.345 204.864 284.98C186.732 316.23 164.298 345.029 144.643 377.407C123.438 412.326 101.076 447.672 86.9168 486.372C74.8995 519.302 69.8216 556.339 79.314 589.717C81.0407 595.791 83.2264 601.717 85.9302 607.467C102.568 642.881 135.139 665.356 169.644 682.791C180.532 688.289 191.608 693.284 202.497 698.092C230.965 710.661 259.972 723.938 286.774 739.314C330.194 764.368 364.253 797.569 388.836 840.986C399.644 860.075 408.96 882.922 410.078 906.899C411.691 941.12 402.089 971.662 398.885 1000.75C398.626 1003.05 398.42 1005.35 398.231 1007.65C395.541 1042.47 401.939 1076.25 418.828 1105.93C436.787 1137.51 468.276 1164.47 507.424 1170.05" stroke="#F6F6F6" stroke-width="0.513008" stroke-miterlimit="10"/>
<path d="M156.108 -65.3091C180.85 -39.8181 201.735 -10.5286 218.638 21.081C226.126 35.0955 232.907 49.6742 237.38 65.1841C246.317 96.145 245.522 128.309 240.207 158.922C238.73 167.435 236.946 175.836 234.915 184.079C226.162 219.044 212.887 252.803 196.057 284.533C179.414 315.893 158.575 345.033 139.678 376.874C118.344 412.823 95.2808 448.695 80.5582 488.195C68.0778 521.751 62.5742 559.631 72.0319 593.788C73.7522 600.015 75.9523 606.077 78.688 611.966C95.5285 648.259 128.789 671.182 164.024 689.149C175.137 694.821 186.44 699.99 197.513 705.004C226.497 718.085 256.009 732.16 283.19 748.562C327.251 775.262 361.807 810.333 385.478 856.04C395.266 874.928 403.575 897.155 404.919 920.29C406.853 953.303 399.334 983.295 398.152 1011.77C398.064 1014.01 398.01 1016.26 397.978 1018.5C397.701 1052.52 406.623 1084.82 425.072 1112.33C444.687 1141.63 476.463 1165.55 514.495 1169.49" stroke="#F5F5F5" stroke-width="0.513008" stroke-miterlimit="10"/>
<path d="M142.369 -60.7848C166.576 -35.9256 186.822 -7.17173 202.953 23.9361C210.115 37.7201 216.517 52.0588 220.903 67.2081C229.651 97.4259 229.919 128.839 225.851 159.022C224.72 167.424 223.291 175.754 221.595 183.941C214.354 218.637 202.597 252.321 187.29 284.167C172.135 315.638 152.909 345.121 134.77 376.425C113.324 413.408 89.5578 449.825 74.26 490.084C61.2988 524.263 55.3872 562.989 64.8279 597.928C66.5449 604.288 68.7563 610.506 71.5208 616.553C88.5614 653.743 122.535 677.08 158.476 695.612C169.8 701.437 181.325 706.799 192.604 712.002C222.118 725.618 252.119 740.489 279.684 757.879C324.401 786.247 359.589 823.135 382.201 871.144C391.019 889.859 398.289 911.441 399.838 933.751C402.09 965.573 396.657 994.997 397.497 1022.85C397.561 1025.05 397.661 1027.25 397.799 1029.44C399.956 1062.64 411.399 1093.47 431.406 1118.85C452.674 1145.87 484.743 1166.72 521.659 1169.03" stroke="#F4F4F4" stroke-width="0.513008" stroke-miterlimit="10"/>
<path d="M128.614 -56.2583C152.291 -32.0493 171.876 -3.81559 187.273 26.7782C194.092 40.3285 200.115 54.4272 204.417 69.1972C212.996 98.6565 214.343 129.341 211.47 159.084C210.697 167.396 209.61 175.634 208.27 183.749C202.559 218.181 192.304 251.767 178.5 283.745C164.849 315.329 147.237 345.155 129.817 375.936C108.275 413.973 83.7754 450.892 67.9171 491.932C54.4928 526.736 48.1733 566.31 57.5822 602.009C59.2929 608.521 61.5156 614.894 64.315 621.062C81.538 659.146 116.221 682.915 152.893 701.979C164.442 707.978 176.175 713.511 187.656 718.923C217.685 733.051 248.21 748.724 276.137 767.136C321.513 797.154 357.501 835.831 378.879 886.207C386.745 904.752 392.938 925.702 394.733 947.154C397.303 977.788 393.956 1006.64 396.818 1033.88C397.035 1036.02 397.305 1038.18 397.614 1040.32C402.187 1072.71 416.15 1102.07 437.719 1125.29C460.642 1150.02 492.998 1167.84 528.797 1168.51" stroke="#F4F4F4" stroke-width="0.513008" stroke-miterlimit="10"/>
<path d="M114.858 -51.7352C138.002 -28.1578 156.947 -0.459692 171.572 29.6324C178.062 42.9708 183.709 56.811 187.924 71.2204C196.314 99.9366 198.706 129.867 197.081 159.18C196.653 167.381 195.907 175.526 194.935 183.611C190.735 217.774 182.016 251.287 169.699 283.375C157.536 315.07 141.555 345.243 124.857 375.48C103.254 414.579 77.9859 451.993 61.567 493.814C47.662 529.241 40.9345 569.661 50.3088 606.139C52.0161 612.784 54.2676 619.315 57.0813 625.621C74.5073 664.583 109.9 688.784 147.281 708.396C159.039 714.565 171.015 720.276 182.683 725.874C213.228 740.516 244.258 756.987 272.564 776.423C318.599 808.091 355.552 848.549 375.533 901.3C382.499 919.685 387.582 939.978 389.586 960.585C392.456 990.026 391.227 1018.34 396.096 1044.93C396.484 1047.03 396.91 1049.12 397.372 1051.21C404.358 1082.8 420.862 1110.68 443.988 1131.76C468.566 1154.2 501.213 1168.96 535.893 1168.02" stroke="#F3F3F3" stroke-width="0.513008" stroke-miterlimit="10"/>
<path d="M101.122 -47.2073C123.735 -24.2802 142.02 2.89785 155.89 32.4914C162.037 45.5961 167.323 59.1995 171.45 73.2483C179.654 101.203 183.086 130.417 182.715 159.263C182.631 167.352 182.241 175.426 181.625 183.44C178.955 217.337 171.736 250.771 160.924 282.973C150.248 314.778 135.913 345.32 119.919 375.011C98.287 415.196 72.2186 453.08 55.2392 495.682C40.8712 531.736 33.7151 573.017 43.0783 610.24C44.7793 617.037 47.0451 623.705 49.9053 630.171C67.5138 670.028 103.616 694.661 141.724 714.823C153.707 721.167 165.892 727.048 177.762 732.855C208.837 748.031 240.359 765.28 269.043 785.741C315.734 819.076 353.834 861.308 372.238 916.423C378.335 934.691 382.261 954.28 384.487 974.065C387.675 1002.32 388.533 1030.06 395.422 1056.04C395.963 1058.09 396.543 1060.12 397.175 1062.17C406.577 1092.94 425.605 1119.33 450.289 1138.28C476.54 1158.42 509.456 1170.15 543.023 1167.55" stroke="#F3F3F3" stroke-width="0.513008" stroke-miterlimit="10"/>
<path d="M87.3714 -42.703C138.673 9.11564 165.997 84.3402 168.334 159.322C170.671 234.304 149.417 308.831 114.969 374.5C93.3253 415.775 66.4562 454.129 48.8988 497.508C31.3413 540.888 23.9818 591.904 42.6814 634.674C66.0873 688.224 122.281 714.664 172.814 739.772C255.914 781.031 342.053 838.712 368.918 931.463C382.299 977.656 379.368 1028.42 396.977 1073.01C421.395 1134.83 487.19 1175.21 550.163 1167.01" stroke="#F2F2F2" stroke-width="0.513008" stroke-miterlimit="10"/>
</svg>
