<svg width="1088" height="966" viewBox="0 0 1088 966" fill="none" xmlns="http://www.w3.org/2000/svg">
<path d="M1117.78 1038.79C1072.9 1058.03 1026.72 1074.64 979.568 1088.51C958.603 1094.67 936.93 1100.35 914.785 1098.68C858.194 1094.43 816.048 1044.94 788.131 996.697C762.418 952.273 742.127 905.116 727.837 856.526C713.667 808.371 705.043 758.021 679.689 713.959C654.318 669.888 606.365 632.291 555.051 636.396C524.511 638.842 497.22 655.829 477.831 678.04C458.432 700.266 446.095 727.437 435.984 754.936C424.405 786.433 414.434 820.435 388.876 842.778C362.425 865.918 320.897 871.889 287.197 857.407C239.258 836.799 216.401 785.053 191.6 740.52C160.089 683.952 116.336 630.628 56.6504 601.792C-3.00952 572.95 -80.6019 573.937 -127.835 616.37" stroke="white" stroke-width="0.513008" stroke-miterlimit="10"/>
<path d="M1118.19 1024.34C1074.1 1043.3 1028.63 1059.47 982.231 1072.8C961.602 1078.71 940.274 1084.14 918.514 1082.51C874.808 1079.24 839.584 1049.19 812.834 1013.85C805.539 1004.23 798.871 994.206 792.824 984.236C766.843 941.343 746.134 895.632 731.21 848.411C716.432 801.619 707.281 752.492 681.825 709.479C667.555 685.372 647.107 662.967 623.087 647.693C602.155 634.392 578.294 626.573 553.643 628.199C549.235 628.486 544.894 629.075 540.636 629.935C514.316 635.264 491.144 651.027 473.707 670.633C468.109 676.933 463.038 683.605 458.379 690.545C446.238 708.658 436.847 728.575 428.449 748.469C415.093 780.028 402.525 812.943 375.797 834.557C349.242 856.022 309.26 862.03 276.275 848.045C229.349 828.139 206.32 778.549 181.416 736.128C179.457 732.795 177.439 729.45 175.395 726.152C144.342 676.099 102.896 630.392 48.4285 605.543C-9.65966 579.042 -84.4686 581.321 -129.784 623.257" stroke="#FEFEFE" stroke-width="0.513008" stroke-miterlimit="10"/>
<path d="M1118.6 1009.86C1075.29 1028.53 1030.56 1044.28 984.866 1057.05C964.564 1062.74 943.574 1067.88 922.199 1066.3C879.265 1063.13 844.388 1034.29 817.627 1000.29C810.321 991.04 803.616 981.382 797.498 971.763C771.258 930.383 750.106 886.127 734.565 840.285C719.179 794.855 709.449 746.964 683.959 704.997C668.961 680.303 648.057 657.176 623.475 641.101C602.111 627.152 577.6 618.645 552.244 619.985C547.712 620.223 543.22 620.77 538.794 621.619C511.571 626.817 487.751 643.102 469.549 663.206C463.712 669.66 458.4 676.485 453.501 683.539C440.703 701.963 430.363 722.093 420.897 741.989C405.758 773.585 390.669 805.434 362.695 826.34C336.134 846.185 297.608 852.198 265.338 838.711C219.423 819.507 196.224 772.073 171.217 731.765C169.253 728.592 167.221 725.424 165.171 722.287C134.069 674.785 93.1676 631.957 40.168 609.29C-16.3226 585.124 -88.3729 588.701 -131.771 630.141" stroke="#FEFEFE" stroke-width="0.513008" stroke-miterlimit="10"/>
<path d="M1119.01 995.374C1076.48 1013.74 1032.47 1029.07 987.52 1041.31C967.538 1046.74 946.909 1051.63 925.912 1050.08C883.741 1046.98 849.22 1019.38 822.441 986.706C815.115 977.79 808.364 968.516 802.177 959.247C775.667 919.397 754.073 876.595 737.925 832.115C721.93 788.049 711.58 741.391 686.081 700.463C670.328 675.188 648.995 651.333 623.867 634.466C602.071 619.869 576.884 610.682 550.823 611.734C546.15 611.915 541.525 612.429 536.957 613.262C508.838 618.353 484.379 635.144 465.413 655.746C459.344 662.337 453.792 669.316 448.629 676.49C435.164 695.241 423.91 715.561 413.351 735.467C396.435 767.125 378.893 797.864 349.606 818.064C323.123 836.335 285.977 842.293 254.407 829.294C209.504 810.792 186.133 765.515 161.024 727.319C159.054 724.307 157.034 721.309 154.953 718.339C123.776 673.394 83.4198 633.445 31.9213 612.978C-22.9717 591.148 -92.2468 596.032 -133.728 636.975" stroke="#FDFDFD" stroke-width="0.513008" stroke-miterlimit="10"/>
<path d="M1119.42 980.887C1077.68 998.976 1034.38 1013.87 990.148 1025.57C970.493 1030.78 950.228 1035.38 929.607 1033.89C888.216 1030.87 854.033 1004.5 827.237 973.148C819.899 964.593 813.094 955.679 806.853 946.769C780.084 908.433 758.047 867.085 741.282 823.984C724.697 781.289 713.691 735.886 688.218 695.975C671.711 670.121 649.939 645.553 624.275 627.878C602.054 612.617 576.209 602.76 549.434 603.54C544.637 603.673 539.862 604.145 535.151 604.96C506.12 609.936 481.014 627.248 461.3 648.358C455.007 655.112 449.206 662.219 443.795 669.522C429.656 688.575 417.496 709.11 405.859 729.035C387.168 760.755 367.241 790.381 336.589 809.888C310.24 826.637 274.394 832.493 243.565 819.985C199.674 802.186 176.122 759.08 150.92 722.981C148.936 720.146 146.91 717.308 144.841 714.508C113.614 672.114 73.7862 635.036 23.7722 616.759C-29.5234 597.264 -96.0401 603.446 -135.604 643.892" stroke="#FDFDFD" stroke-width="0.513008" stroke-miterlimit="10"/>
<path d="M1119.81 966.42C1078.85 984.22 1036.28 998.678 992.776 1009.84C973.458 1014.8 953.537 1019.14 933.295 1017.68C892.667 1014.73 858.839 989.601 832.025 959.568C824.675 951.376 817.833 942.829 811.53 934.253C784.493 897.448 762.039 857.547 744.657 815.824C727.455 774.508 715.794 730.36 690.364 691.476C673.093 665.057 650.9 639.745 624.69 621.278C602.038 605.368 575.542 594.825 548.046 595.309C543.108 595.384 538.199 595.823 533.33 596.612C503.395 601.456 477.658 619.3 457.163 640.898C450.638 647.79 444.589 655.067 438.922 662.473C424.126 681.838 411.066 702.613 398.303 722.529C377.902 754.347 355.574 782.85 323.491 801.628C297.359 816.901 262.755 822.604 232.632 810.609C189.753 793.512 166.03 752.562 140.725 718.575C138.736 715.901 136.696 713.24 134.621 710.6C103.345 670.757 64.037 636.564 15.5239 620.488C-36.1908 603.318 -99.9248 610.832 -137.579 650.757" stroke="#FCFCFC" stroke-width="0.513008" stroke-miterlimit="10"/>
<path d="M1120.24 951.945C1080.05 969.457 1038.2 983.494 995.446 994.106C976.464 998.822 956.888 1002.9 937.015 1001.48C897.167 998.619 863.677 974.719 836.836 946.021C829.459 938.182 822.579 930.004 816.207 921.778C788.91 886.486 766.013 848.04 748.005 807.711C730.195 767.757 717.836 724.902 692.475 686.997C674.425 660.004 651.811 633.948 625.072 614.698C601.996 598.125 574.842 586.911 546.615 587.114C541.527 587.147 536.494 587.538 531.482 588.309C500.651 593.048 474.26 611.388 453.017 633.494C446.252 640.539 439.971 647.954 434.056 655.489C418.593 675.181 404.619 696.146 390.763 716.071C368.576 747.967 343.997 775.39 310.409 793.418C284.559 807.291 251.122 812.779 221.708 801.257C179.841 784.862 155.947 746.069 130.53 714.209C128.535 711.696 126.481 709.211 124.418 706.741C93.0662 669.455 54.3126 638.126 7.28387 624.24C-42.8423 609.42 -103.809 618.217 -139.546 657.645" stroke="#FBFBFB" stroke-width="0.513008" stroke-miterlimit="10"/>
<path d="M1120.65 937.462C1081.25 954.695 1040.11 968.287 998.084 978.358C979.412 982.836 960.208 986.652 940.703 985.268C901.618 982.481 868.467 959.811 841.625 932.443C834.236 924.965 827.328 917.139 820.876 909.279C793.311 875.517 769.972 838.525 751.356 799.558C732.938 760.967 719.865 719.396 694.606 682.488C675.75 654.928 652.757 628.132 625.473 608.089C601.964 590.868 574.135 578.974 545.229 578.883C540.016 578.868 534.833 579.217 529.679 579.971C497.945 584.579 470.913 603.465 448.915 626.053C441.91 633.252 435.397 640.805 429.218 648.46C413.081 668.454 398.191 689.65 383.251 709.569C359.288 741.526 332.498 767.912 297.356 785.162C271.845 797.687 239.511 802.884 210.829 791.869C169.99 776.185 145.908 739.539 120.388 709.792C118.38 707.455 116.329 705.115 114.252 702.822C82.8504 668.086 44.6164 639.643 -0.911449 627.956C-49.4402 615.471 -107.649 625.566 -141.452 664.506" stroke="#FBFBFB" stroke-width="0.513008" stroke-miterlimit="10"/>
<path d="M1121.05 922.979C1082.43 939.923 1042.01 953.094 1000.73 962.633C982.39 966.867 963.531 970.423 944.42 969.073C906.099 966.359 873.355 944.876 846.459 918.89C839.067 911.758 832.097 904.308 825.575 896.797C797.75 864.549 773.968 829.011 754.735 791.423C735.71 754.194 721.888 713.928 696.749 677.987C677.104 649.869 653.707 622.338 625.886 601.488C601.954 583.603 573.466 571.038 543.83 570.667C538.476 570.594 533.151 570.926 527.847 571.638C495.217 576.139 467.53 595.523 444.767 618.608C437.53 625.945 430.778 633.651 424.35 641.435C407.547 661.757 391.743 683.142 375.726 703.08C349.988 735.099 321.053 760.484 284.281 776.936C259.165 788.165 227.885 793.043 199.919 782.526C160.092 767.544 135.838 733.054 110.216 705.419C108.202 703.243 106.154 701.088 104.072 698.956C72.6205 666.771 34.9316 641.206 -9.1284 631.701C-56.0598 621.551 -111.493 632.953 -143.396 671.387" stroke="#FAFAFA" stroke-width="0.513007" stroke-miterlimit="10"/>
<path d="M1121.05 922.98C1082.43 939.924 1042.01 953.095 1000.73 962.634C982.39 966.868 963.531 970.424 944.42 969.074C906.099 966.36 873.355 944.877 846.459 918.891C839.067 911.759 832.097 904.309 825.575 896.798C797.75 864.55 773.968 829.012 754.735 791.424C735.71 754.195 721.888 713.929 696.749 677.988C677.104 649.87 653.707 622.339 625.886 601.489C601.954 583.604 573.466 571.039 543.83 570.668C538.476 570.595 533.151 570.927 527.847 571.639C495.217 576.14 467.53 595.524 444.767 618.609C437.53 625.946 430.778 633.652 424.35 641.436C407.547 661.758 391.743 683.143 375.726 703.081C349.988 735.1 321.053 760.485 284.281 776.936C259.165 788.166 227.885 793.044 199.919 782.527C160.092 767.545 135.838 733.055 110.216 705.42C108.202 703.244 106.154 701.089 104.072 698.957C72.6205 666.772 34.9316 641.207 -9.1284 631.702C-56.0598 621.552 -111.493 632.954 -143.396 671.388" stroke="#FAFAFA" stroke-width="0.513007" stroke-miterlimit="10"/>
<path d="M1121.45 908.511C1083.61 925.167 1043.94 937.911 1003.36 946.899C985.351 950.905 966.845 954.185 948.104 952.875C910.562 950.244 878.156 929.991 851.243 905.326C843.839 898.556 836.832 891.473 830.239 884.313C802.146 853.594 777.947 819.503 758.081 783.284C738.439 747.434 723.868 708.473 698.874 673.493C678.399 644.814 654.648 616.535 626.266 594.883C601.901 576.351 572.764 563.1 542.406 562.432C536.927 562.311 531.436 562.592 526.006 563.295C492.464 567.681 464.146 587.595 440.628 611.163C433.167 618.663 426.157 626.513 419.474 634.401C402.014 655.035 385.278 676.641 368.177 696.573C340.662 728.654 309.631 753.105 271.19 768.675C246.519 778.677 216.236 783.145 188.985 773.125C150.17 758.844 125.72 726.517 100.021 700.988C98.0015 698.972 95.939 696.994 93.8512 695.023C62.3339 665.379 25.1812 642.709 -17.378 635.403C-62.7287 627.579 -115.388 640.287 -145.373 678.225" stroke="#F9F9F9" stroke-width="0.513008" stroke-miterlimit="10"/>
<path d="M1121.86 894.03C1084.8 910.406 1045.84 922.721 1005.99 931.152C988.302 934.904 970.159 937.935 951.795 936.649C915.008 934.107 882.975 915.063 856.026 891.748C848.619 885.324 841.549 878.616 834.887 871.806C806.534 842.601 781.892 809.964 761.41 775.123C741.176 740.645 725.805 703.002 700.966 668.966C679.668 639.751 655.556 610.7 626.628 588.257C601.84 569.061 572.035 555.155 540.972 554.199C535.353 554.021 529.728 554.269 524.156 554.955C489.71 559.209 460.745 579.646 436.47 603.736C428.778 611.373 421.528 619.377 414.58 627.385C396.437 648.336 378.787 670.133 360.609 690.084C331.302 722.217 298.24 745.812 258.081 760.433C233.869 769.256 204.577 773.288 178.051 763.75C140.247 750.172 115.625 720.001 89.8401 696.592C87.8068 694.753 85.748 692.92 83.6625 691.134C52.0867 664.057 15.4715 644.241 -25.6035 639.125C-69.3658 633.651 -119.241 647.651 -147.31 685.092" stroke="#F9F9F9" stroke-width="0.513008" stroke-miterlimit="10"/>
<path d="M1122.28 879.556C1086 895.644 1047.77 907.522 1008.65 915.437C991.301 918.945 973.511 921.7 955.524 920.479C919.516 918.02 887.822 900.206 860.856 878.211C853.42 872.14 846.313 865.8 839.606 859.333C810.984 831.658 785.9 800.475 764.818 767.021C743.976 733.905 727.804 697.621 703.153 664.508C681.007 634.763 656.534 604.94 627.086 581.698C601.866 561.854 571.394 547.252 539.618 546.025C533.858 545.789 528.099 546.004 522.359 546.68C487.018 550.828 457.415 571.77 432.358 596.35C424.426 604.14 416.945 612.282 409.749 620.419C390.948 641.682 372.366 663.7 353.104 683.644C322.022 715.84 286.934 738.642 245.052 752.249C221.331 759.952 192.997 763.491 167.186 754.45C130.394 741.574 105.601 713.558 79.7136 692.262C77.6751 690.584 75.6021 688.927 73.5114 687.302C41.8859 662.775 5.79036 645.844 -33.784 642.928C-75.9491 639.788 -123.066 655.086 -149.218 692.03" stroke="#F8F8F8" stroke-width="0.513008" stroke-miterlimit="10"/>
<path d="M1122.69 865.075C1087.2 880.884 1049.68 892.317 1011.29 899.691C994.263 902.97 976.827 905.45 959.209 904.269C923.965 901.883 892.609 885.3 865.641 864.634C858.194 858.925 851.05 852.953 844.256 846.827C815.375 820.666 789.848 790.936 768.149 758.861C746.699 727.108 729.719 692.156 705.264 659.991C682.244 629.723 657.461 599.115 627.468 575.08C601.824 554.573 570.694 539.301 538.213 537.786C532.328 537.502 526.42 537.675 520.538 538.334C484.284 542.366 454.033 563.83 428.238 588.901C420.074 596.829 412.343 605.14 404.892 613.381C385.434 634.955 365.889 657.136 345.591 677.142C312.659 709.338 275.666 731.518 231.997 743.994C208.809 750.62 181.385 753.597 156.289 745.054C120.509 732.88 95.5447 707.02 69.5544 687.836C67.5105 686.318 65.4234 684.838 63.3439 683.382C31.6689 661.406 -3.89834 647.344 -41.9885 646.618C-82.5565 645.813 -126.899 662.418 -151.151 698.857" stroke="#F8F8F8" stroke-width="0.513008" stroke-miterlimit="10"/>
<path d="M1123.08 850.611C1088.37 866.131 1051.57 877.143 1013.93 883.969C997.225 886.996 980.151 889.225 962.91 888.069C928.446 885.765 897.428 870.412 870.434 851.082C862.975 845.735 855.786 840.107 848.929 834.355C819.788 809.707 793.819 781.432 771.503 750.734C749.446 720.343 731.639 686.756 707.382 655.498C683.505 624.716 658.395 593.314 627.857 568.488C601.78 547.333 570 531.374 536.789 529.579C530.763 529.237 524.722 529.377 518.697 530.018C481.54 533.92 450.659 555.914 424.099 581.483C415.712 589.574 407.733 598.014 400.034 606.383C379.909 628.285 359.441 650.672 338.059 670.672C303.334 702.92 264.411 724.523 218.924 735.771C196.257 741.375 169.761 743.76 145.39 735.698C110.622 724.226 85.4862 700.522 59.3933 683.45C57.3353 682.108 55.2518 680.773 53.1582 679.494C21.408 660.074 -13.6141 648.891 -50.2201 650.355C-89.2075 651.875 -130.776 669.787 -153.094 705.738" stroke="#F7F7F7" stroke-width="0.513008" stroke-miterlimit="10"/>
<path d="M1123.5 836.128C1089.56 851.361 1053.49 861.937 1016.57 868.221C1000.19 871.019 983.472 872.973 966.617 871.866C932.916 869.636 902.253 855.522 875.258 837.522C867.77 832.527 860.561 827.276 853.633 821.874C824.224 798.756 797.838 771.927 774.889 742.599C752.215 713.586 733.565 681.354 709.548 651.006C684.779 619.732 659.368 587.529 628.293 561.895C601.801 540.102 569.346 523.463 535.422 521.356C529.263 520.981 523.08 521.064 516.897 521.679C478.844 525.474 447.299 547.981 419.984 574.032C411.365 582.261 403.146 590.854 395.183 599.343C374.384 621.547 352.993 644.14 330.534 664.158C294.034 696.469 253.176 717.616 205.859 727.504C183.729 732.137 158.154 733.864 134.482 726.291C100.725 715.52 75.4096 693.988 49.2229 679.012C47.1597 677.831 45.0787 676.682 42.9798 675.563C11.18 658.693 -23.2973 650.389 -58.4193 654.043C-95.8096 657.897 -134.62 677.107 -155.021 712.562" stroke="#F6F6F6" stroke-width="0.513008" stroke-miterlimit="10"/>
<path d="M1123.9 821.651C1090.76 836.588 1055.38 846.75 1019.19 852.494C1003.15 855.047 986.775 856.742 970.289 855.675C937.367 853.528 907.018 840.65 880.03 823.963C872.531 819.33 865.268 814.438 858.27 809.386C828.602 787.782 801.764 762.422 778.207 734.456C754.942 706.815 735.441 675.954 711.63 646.498C685.953 614.722 660.266 581.713 628.646 555.287C601.73 532.83 568.6 515.512 533.979 513.142C527.679 512.71 521.363 512.76 515.038 513.358C476.082 517.021 443.906 540.059 415.818 566.623C406.959 575.006 398.508 583.737 390.297 592.355C368.832 614.886 346.518 637.684 322.975 657.697C284.7 690.069 241.927 710.874 192.751 719.305C171.131 723.012 146.479 724.042 123.539 716.976C90.7934 706.907 65.3066 687.53 39.0175 674.666C36.949 673.646 34.8537 672.673 32.7496 671.715C0.900202 657.395 -33.0574 651.975 -66.6953 657.82C-102.497 664.024 -138.525 684.525 -157.026 719.474" stroke="#F6F6F6" stroke-width="0.513008" stroke-miterlimit="10"/>
<path d="M1124.32 807.184C1091.95 821.834 1057.32 831.568 1021.86 836.77C1006.13 839.071 990.12 840.515 974.012 839.472C941.854 837.399 911.859 825.761 884.854 810.394C877.343 806.122 870.043 801.598 862.975 796.897C833.039 776.822 805.768 752.9 781.611 726.321C757.738 700.043 737.375 670.568 713.813 642.007C687.211 609.761 661.266 575.914 629.084 548.687C601.736 525.582 567.957 507.578 532.615 504.912C526.174 504.422 519.725 504.44 513.257 505.02C473.406 508.577 440.575 532.112 411.74 559.183C402.64 567.719 393.949 576.603 385.482 585.325C363.36 608.168 340.123 631.171 315.487 651.193C275.446 683.612 230.746 704.252 179.724 711.049C158.638 713.864 134.911 714.156 112.686 707.587C80.969 698.229 55.2944 680.999 28.9028 670.247C26.8202 669.403 24.7197 668.591 22.6268 667.803C-9.28852 656.024 -42.7009 653.483 -74.8382 661.526C-109.043 670.064 -142.313 691.863 -158.897 726.315" stroke="#F5F5F5" stroke-width="0.513008" stroke-miterlimit="10"/>
<path d="M1124.71 792.723C1093.12 807.084 1059.21 816.398 1024.48 821.044C1009.09 823.116 993.427 824.284 977.688 823.282C946.293 821.282 916.644 810.898 889.621 796.851C882.099 792.941 874.744 788.777 867.615 784.409C837.42 765.848 809.706 743.38 784.924 718.195C760.444 693.279 739.212 665.207 715.898 637.539C688.361 604.839 662.142 570.145 629.441 542.12C601.669 518.352 567.231 499.677 531.159 496.73C524.594 496.192 517.995 496.168 511.368 496.722C470.605 500.164 437.144 524.229 407.537 551.773C398.222 560.456 389.275 569.484 380.56 578.335C357.755 601.495 333.604 624.689 307.909 644.739C266.075 677.209 219.452 697.829 166.623 702.85C146.027 704.811 123.259 704.344 101.742 698.248C71.0366 689.592 45.1909 674.517 18.6968 665.876C16.6089 665.193 14.5033 664.542 12.3963 663.93C-19.5775 654.717 -52.4614 655.045 -83.1145 665.278C-115.739 676.141 -146.218 699.255 -160.885 733.211" stroke="#F4F4F4" stroke-width="0.513008" stroke-miterlimit="10"/>
<path d="M1125.11 778.249C1094.31 792.33 1061.11 801.199 1027.11 805.328C1012.06 807.156 996.75 808.05 981.396 807.096C950.772 805.194 921.444 796.072 894.431 783.298C886.871 779.756 879.488 775.944 872.306 771.936C841.842 754.904 813.712 733.883 788.296 710.067C763.2 686.529 741.098 659.858 718.034 633.045C689.537 599.896 663.094 564.343 629.848 535.526C601.644 511.11 566.548 491.765 529.772 488.531C523.065 487.936 516.316 487.869 509.564 488.415C467.898 491.726 433.79 516.312 403.435 544.363C393.88 553.199 384.701 562.366 375.722 571.336C352.26 594.808 327.178 618.223 300.399 638.266C256.79 670.799 208.212 691.565 153.573 694.625C133.46 695.747 111.651 694.48 90.8574 688.906C61.1633 680.952 35.1464 668.033 8.5499 661.504C6.45681 660.982 4.33701 660.506 2.21585 660.071C-29.8074 653.407 -62.1628 656.604 -91.3154 669.037C-122.343 682.233 -150.064 706.645 -162.815 740.104" stroke="#F4F4F4" stroke-width="0.513008" stroke-miterlimit="10"/>
<path d="M1125.51 763.774C1095.49 777.567 1063.01 786.015 1029.75 789.588C1015 791.178 1000.06 791.806 985.079 790.892C955.218 789.064 926.245 781.181 899.214 769.727C891.643 766.547 884.232 763.087 876.954 759.435C846.23 743.917 817.649 724.365 791.626 701.911C765.922 679.735 742.942 654.482 720.144 628.532C690.669 594.966 664.021 558.523 630.229 528.914C601.602 503.835 565.848 483.819 528.35 480.289C521.52 479.645 514.612 479.552 507.726 480.065C465.165 483.27 430.41 508.378 399.3 536.91C389.514 545.885 380.086 555.22 370.867 564.304C346.748 588.087 320.743 611.707 292.871 631.76C247.487 664.354 196.907 685.426 140.507 686.365C120.848 686.696 100.034 684.607 79.9646 679.515C51.291 672.247 25.0687 661.506 -1.60492 657.081C-3.71217 656.736 -5.8208 656.43 -7.9472 656.156C-40.0365 652.033 -71.8556 658.123 -99.5243 672.745C-128.955 688.276 -153.902 713.994 -164.753 746.947" stroke="#F3F3F3" stroke-width="0.513008" stroke-miterlimit="10"/>
<path d="M1125.9 749.315C1096.67 762.829 1064.91 770.831 1032.37 773.863C1017.95 775.209 1003.36 775.578 988.748 774.704C959.666 772.959 931.015 766.296 903.999 756.18C896.416 753.362 888.952 750.261 881.62 746.968C850.628 732.979 821.613 714.865 794.974 693.789C768.662 672.975 744.778 649.146 722.256 624.044C691.769 590.083 664.949 552.727 630.613 522.326C601.553 496.599 565.133 475.889 526.938 472.096C519.967 471.395 512.926 471.269 505.873 471.771C462.409 474.844 427.006 500.474 395.132 529.504C385.106 538.632 375.446 548.105 365.964 557.309C341.162 581.409 314.26 605.229 285.295 625.291C238.119 657.938 185.482 679.488 127.391 678.144C108.137 677.695 88.3764 674.756 69.0064 670.153C41.3443 663.586 14.9508 655.001 -11.8252 652.688C-13.9377 652.502 -16.0516 652.358 -18.1921 652.259C-50.3309 650.686 -81.6051 659.655 -107.79 676.466C-135.632 694.346 -157.813 721.347 -166.731 753.812" stroke="#F3F3F3" stroke-width="0.513008" stroke-miterlimit="10"/>
<path d="M1126.32 734.852C1060.19 765.579 980.157 765.818 908.812 742.63C837.468 719.441 774.539 674.208 724.412 619.56C692.904 585.22 665.913 546.951 631.04 515.743C596.167 484.535 550.657 460.337 504.081 463.45C445.77 467.343 401.865 511.265 361.13 550.312C294.171 614.534 210.731 676.054 114.363 669.929C66.3672 666.879 19.5905 646.931 -28.3265 648.404C-94.7575 650.45 -155.037 698.684 -168.641 760.715" stroke="#F2F2F2" stroke-width="0.513008" stroke-miterlimit="10"/>
</svg>
