<svg width="186" height="170" viewBox="0 0 186 170" fill="none" xmlns="http://www.w3.org/2000/svg">
<g filter="url(#filter0_d_6988_2455)">
<path fill-rule="evenodd" clip-rule="evenodd" d="M76.0507 152.965C77.2516 148.153 78.6322 146.081 81.5542 143.368C84.646 140.579 88.6737 139.044 92.8449 139.064C101.459 139.064 109.006 145.384 109.866 153.314C104.192 155.961 101.034 158.287 92.8449 158.259C87.8142 158.259 78.4337 155.838 76.0507 152.965ZM90.8686 112.466C100.571 109.499 104.949 124.597 94.8023 127.131C93.3291 127.502 91.7779 127.428 90.3473 126.917C88.9167 126.406 87.6715 125.482 86.771 124.263C85.8706 123.043 85.3557 121.584 85.2922 120.071C85.2287 118.559 85.6195 117.062 86.4147 115.772C87.4265 113.945 88.4383 113.21 90.8686 112.466ZM69.2328 147.248C70.7174 145.864 71.767 140.081 79.1618 135.362C80.7031 134.373 82.7646 133.695 84.2114 132.772L83.0294 131.623C82.6032 131.278 82.196 130.91 81.8095 130.521C72.0696 120.623 80.1736 104.31 91.5116 104.31H93.8378C101.346 104.31 108.467 111.327 108.467 118.871C108.467 128.835 103.077 130.587 101.564 132.791C106.66 135.268 110.519 137.284 113.857 142.332C114.802 143.754 115.511 145.657 116.485 147.041C119.814 145.289 123.823 134.618 123.823 129.146V125.84C123.823 106.118 100.911 90.3893 81.0057 99.1014C74.2269 101.945 68.6838 107.097 65.3666 113.635C62.0494 120.174 61.1741 127.675 62.8971 134.797C63.7403 138.236 65.17 141.504 67.1241 144.461C67.8711 145.591 68.5614 146.344 69.2139 147.286L69.2328 147.248ZM126.301 64.6205C126.985 60.6212 129.071 56.9931 132.187 54.3806C135.304 51.7682 139.249 50.3406 143.322 50.3515C152.627 50.3515 160.22 58.6492 159.984 64.5734C156.088 67.5119 148.958 69.6217 142.963 69.5369C134.452 69.4239 132.022 67.1446 126.225 64.6205H126.301ZM21.8194 64.4698C25.5262 45.3409 52.5804 46.0567 55.7199 64.6111C53.0532 65.8543 51.4551 67.0127 48.1549 68.077C45.1 69.0588 41.9087 69.5547 38.6987 69.5463C32.5427 69.5463 26.018 67.4554 21.8572 64.4698H21.8194ZM141.251 23.6879C151.067 20.9283 154.982 35.6588 145.365 38.4184C144.384 38.7197 143.352 38.8221 142.331 38.7195C141.31 38.617 140.32 38.3116 139.419 37.8213C138.518 37.331 137.726 36.6659 137.087 35.8652C136.449 35.0645 135.979 34.1446 135.704 33.1596C135.429 32.1747 135.355 31.1449 135.486 30.1311C135.618 29.1172 135.952 28.1398 136.469 27.2568C136.986 26.3738 137.676 25.603 138.497 24.99C139.319 24.377 140.255 23.9343 141.251 23.6879ZM38.6609 38.6538C28.817 38.6538 28.6184 23.5843 38.6609 23.4054C48.7034 23.2264 49.1667 38.6538 38.6609 38.6538ZM70.6985 16.6429C71.0106 17.5848 73.4219 21.0037 75.1524 25.5716C80.7693 40.3491 76.0129 56.4358 65.4976 66.8055C60.987 71.2511 53.2991 75.2256 46.3772 76.6007C43.8145 77.1093 39.9091 77.0057 37.7626 77.5426C40.2685 85.925 39.8618 88.2513 45.1479 96.841C47.5308 100.712 54.1312 109.424 58.0272 110.969C59.6915 105.76 65.9515 99.1485 70.5566 95.9556C84.3816 86.3865 102.055 86.2546 115.644 96.1157C119.589 98.8923 122.949 102.412 125.535 106.476C126.556 108.058 126.982 109.302 128.079 110.903C131.426 109.245 138.424 100.9 140.807 96.775C144.05 91.124 147.209 84.3898 148.107 77.1564C140.655 77.1564 137.478 77.5708 130.66 75.2727C122.972 72.6544 117.762 68.4349 112.911 62.8215C108.561 57.7827 104.552 47.5919 104.552 40.7636C104.552 28.3124 106.594 25.3456 112.173 15.5975C112.098 15.5975 111.984 15.3997 111.956 15.4656L110.065 14.665C103.86 12.6619 97.3468 11.7784 90.8307 12.0561C84.8166 12.1597 75.1429 14.213 70.689 16.6618L70.6985 16.6429ZM112.391 37.4294C112.391 42.3553 112.722 45.6894 114.698 50.4269C115.644 52.7061 118.102 57.4059 119.767 58.4137C122.812 53.7045 123.067 50.7565 129.847 46.4805C131.275 45.5858 133.072 45.1149 134.575 44.0506C133.781 42.7508 132.306 42.8733 129.96 38.8893C128.56 36.5663 127.8 33.9163 127.758 31.2071C127.716 28.4979 128.392 25.8256 129.719 23.4604C131.046 21.0951 132.977 19.1207 135.315 17.7367C137.654 16.3528 140.318 15.6083 143.038 15.5786C154.811 15.4845 162.896 27.945 156.844 38.5785C155.963 40.1725 154.778 41.5802 153.355 42.7226L151.984 44.1636C157.856 46.1038 165.468 52.9604 166.546 58.4796C167.946 57.7827 168.769 56.2098 169.582 54.9195C182.821 33.7562 165.799 7.95911 144.712 7.95911C137.242 7.95911 131.54 9.40014 125.459 13.6102C117.894 18.8657 112.4 28.3406 112.4 37.4106L112.391 37.4294ZM7.81479 37.7591C7.81479 46.3204 10.2261 53.0264 15.0582 58.4796L16.4388 56.0497C17.6948 53.7572 19.2885 51.665 21.1669 49.8429C24.2591 46.7819 25.7248 46.4052 30.0463 44.0977C29.46 43.2218 27.408 42.214 25.3182 38.8422C18.9353 28.6138 27.531 15.5881 37.668 15.5881H39.6633C49.4031 15.5881 58.6986 27.5683 52.0698 38.8704C49.7719 42.7885 48.6183 42.4777 47.4079 44.0318C48.9114 44.8606 50.5568 45.4916 52.136 46.4994C55.1277 48.2955 57.6695 50.7467 59.5686 53.6668C60.5142 55.2303 61.3747 57.1422 62.2352 58.376C65.6867 56.1345 69.6016 45.6611 69.6016 40.368V37.0998C69.6016 22.5389 55.3511 7.95911 40.6278 7.95911H37.0061C22.3301 7.95911 7.81479 22.2657 7.81479 37.7591ZM156.513 74.9996C163.502 72.7768 169.393 67.8698 173.894 62.5107C177.894 57.7167 181.714 48.7975 182.045 40.7636C182.416 33.071 180.48 25.4426 176.484 18.8494C172.488 12.2562 166.613 6.99641 159.606 3.73965C151.755 0.169966 142.945 -0.736582 134.528 1.159C130.777 2.03848 127.181 3.47686 123.861 5.42555C116.599 9.36246 120.911 10.0312 114.566 7.88377C99.9087 2.91083 85.1097 2.78839 70.481 8.20399C68.5898 8.89154 67.2848 9.6356 65.2706 10.3797L64.4669 9.79571C54.623 2.07259 44.1928 -1.902 30.9068 0.89528C25.4362 2.01038 20.272 4.28933 15.7675 7.5762C11.263 10.8631 7.52447 15.0803 4.80772 19.9394C-1.24424 30.6105 -1.75488 45.2938 4.25927 56.4829C8.57129 64.5075 13.8668 69.1225 21.3561 73.1818C24.2875 74.7641 26.3773 75.2068 29.6113 76.2617C30.7082 80.8484 31.1054 84.3239 32.5617 88.5056C36.1834 98.8659 43.058 109.302 50.9445 115.565C52.366 116.634 53.7237 117.785 55.0107 119.012C55.37 119.954 50.7837 134.081 61.0154 149.245C63.0685 152.118 65.459 154.736 68.1359 157.044C88.6085 173.667 117.875 165.746 127.88 144.178C132.542 134.138 131.88 128.751 130.821 118.861C132.315 117.675 134.424 116.205 135.757 114.934C145.544 105.572 151.833 95.9839 155.104 82.233C155.625 80.0667 155.852 77.1658 156.513 74.9996Z" fill="white"/>
</g>
<defs>
<filter id="filter0_d_6988_2455" x="0" y="0" width="185.09" height="169.967" filterUnits="userSpaceOnUse" color-interpolation-filters="sRGB">
<feFlood flood-opacity="0" result="BackgroundImageFix"/>
<feColorMatrix in="SourceAlpha" type="matrix" values="0 0 0 0 0 0 0 0 0 0 0 0 0 0 0 0 0 0 127 0" result="hardAlpha"/>
<feOffset dx="3" dy="4"/>
<feComposite in2="hardAlpha" operator="out"/>
<feColorMatrix type="matrix" values="0 0 0 0 0.054902 0 0 0 0 0.0823529 0 0 0 0 0.172549 0 0 0 0.5 0"/>
<feBlend mode="normal" in2="BackgroundImageFix" result="effect1_dropShadow_6988_2455"/>
<feBlend mode="normal" in="SourceGraphic" in2="effect1_dropShadow_6988_2455" result="shape"/>
</filter>
</defs>
</svg>
