<svg width="214" height="154" viewBox="0 0 214 154" fill="none" xmlns="http://www.w3.org/2000/svg">
<g filter="url(#filter0_d_6988_2383)">
<path fill-rule="evenodd" clip-rule="evenodd" d="M101.409 72.8344L109.406 72.7383L113.635 102.735C114.01 105.619 115 110.328 114.894 113.02L107.878 121.16C107.086 122.069 106.361 123.032 105.706 124.044C104.524 123.679 105.321 124.044 104.533 123.265L97.8052 115.326C95.931 112.962 95.5081 113.404 96.1136 109.444C96.9306 104.1 100.727 74.2665 101.4 72.8632L101.409 72.8344ZM169.65 91.3459C168.701 90.6091 167.871 89.7306 167.19 88.7412C164.306 85.0985 164.124 86.3288 164.835 81.7345C165.94 74.4875 166.45 67.6347 167.872 60.2147L171.419 60.2724C171.938 65.9046 172.937 72.1808 173.764 77.6593C175.033 86.0596 175.59 84.6468 171.918 88.8181C171.253 89.7382 170.493 90.5855 169.65 91.3459ZM41.2712 91.3459C40.5215 91.0191 36.8307 86.5402 36.3598 85.7713C35.5717 84.5026 36.7827 78.8319 37.0422 76.9577C37.4843 73.8244 37.9168 70.8448 38.3301 67.7115L39.2912 60.8875C39.6565 59.9263 39.6661 60.1762 41.0117 60.1378C43.8374 60.0609 43.0205 60.7433 43.3665 63.2711L45.9327 81.6768C46.3075 84.1758 46.7112 84.7525 46.0288 85.8578L41.3192 91.3459H41.2712ZM116.48 73.4495C116.662 76.4306 117.034 79.397 117.595 82.3304L121.343 109.127C122.18 114.615 122.305 114.231 120.017 117.104L110.761 128.196C108.599 130.531 105.956 135.568 102.111 130.762L92.8458 119.671C87.944 114.288 88.6168 114.519 89.4337 108.983C91.1542 97.228 92.8169 85.2234 94.3548 73.3534C87.5211 73.4495 78.3518 78.1591 73.8249 81.1002C68.3232 84.7852 63.6142 89.5334 59.9749 95.0655C50.3059 109.579 52.0167 123.227 52.0167 143.122H69.4133C68.1349 139.489 68.8558 130.849 68.8558 126.399C68.8558 120.161 67.5775 112.75 72.3543 113.02C75.3723 113.193 75.6126 115.451 75.5934 118.306C75.5934 123.813 76.0932 140.085 75.0359 143.161L135.732 143.045C134.453 140.556 135.088 130.464 135.088 126.706C135.088 120.776 133.857 113.308 138.288 113.02C141.354 112.827 141.854 115.259 141.835 118.027C141.835 123.496 142.373 140.229 141.345 143.17L158.751 143.026C159.193 139.278 158.828 133.107 158.828 129.099C158.828 115.47 158.193 106.686 150.706 95.0943C147.043 89.4842 142.275 84.68 136.693 80.9752C133.29 78.7742 121.738 72.844 116.509 73.5072L116.48 73.4495ZM49.931 60.849C49.8349 63.569 52.6126 80.8695 53.1412 85.1273C53.4392 87.5878 52.3146 88.6931 51.219 89.933C50.1233 91.1729 49.2102 92.3166 48.1049 93.7007C47.4897 94.4696 47.0284 94.9117 46.4517 95.6229C45.01 97.4491 43.1262 100.169 40.954 100.102C38.7818 100.035 35.7062 95.5749 33.8801 93.3066C30.7371 89.4044 28.738 88.5009 29.1417 84.9351C29.6895 80.1871 32.3999 63.6075 32.3903 60.8202C28.8342 61.4737 25.4212 62.7491 22.308 64.5879C14.0422 69.3166 6.7664 79.966 6.75679 90.1252C6.75679 93.3354 6.56456 102.13 6.87212 104.725C17.4446 105.042 15.7722 105.129 15.7434 101.495V89.5197C15.7434 86.7517 16.2624 84.714 19.117 84.714C21.6544 84.714 22.4906 86.6844 22.4906 89.2218V102.995C22.4906 104.206 21.9716 104.763 23.3172 104.763H47.9126C48.4797 103.639 49.191 101.476 49.7772 100.092C54.0823 89.9108 61.3362 81.251 70.6051 75.2276C70.1533 73.7475 67.7217 71.0563 66.7605 70.0759C65.9532 69.2686 65.4342 68.6631 64.5019 67.8461C60.3397 64.3052 55.3399 61.8897 49.9791 60.8298L49.931 60.849ZM178.243 60.849C178.464 64.6936 179.377 69.134 179.896 73.0555C181.982 88.9046 183.337 85.6464 176.695 93.6238C175.244 95.3731 171.947 100.083 169.641 100.131C167.334 100.179 166.517 98.2084 165.613 97.1704L160.75 91.5573C158.299 88.9142 157.242 87.7128 157.588 84.7621C157.972 81.4558 161.067 62.2907 160.75 61.0701C159.299 60.6376 155.637 62.3003 154.099 62.9347C150.198 64.6639 146.689 67.1688 143.786 70.297C142.825 71.2581 140.528 73.8628 140.124 75.1027C141.287 76.0638 142.719 76.9288 143.901 77.8708C145.257 78.9568 146.304 80.0141 147.467 80.9079C148.7 81.853 149.79 82.9697 150.706 84.2239C151.206 84.8294 151.763 85.2523 152.311 85.9155C160.394 95.6518 161.692 103.101 162.884 104.763H188.162C189.805 97.3049 185.422 84.4834 191.804 84.7525C195.726 84.9255 195.072 89.6639 195.072 93.1528C195.072 95.6133 194.765 102.86 195.188 104.686L202.627 104.792C204.04 104.792 203.867 105.042 204.068 103.898C204.357 102.361 204.068 96.0458 204.068 93.9986C204.068 81.8018 200.282 74.1223 191.747 66.8465C189.056 64.5494 182.722 61.368 178.291 60.8106L178.243 60.849ZM77.977 32.9761C77.977 27.4784 80.8604 21.1349 83.3305 17.8959C85.5083 14.972 88.2477 12.5122 91.3881 10.6604C94.5286 8.80866 98.007 7.60218 101.62 7.11167C105.232 6.62116 108.906 6.85648 112.427 7.80384C115.947 8.7512 119.243 10.3916 122.122 12.6288C123.081 13.3555 124.002 14.1319 124.88 14.9548C125.428 15.5315 125.505 15.8102 126.082 16.4445C138.682 30.6309 132.397 53.9289 114.654 60.0417C111.27 61.272 107.679 61.8271 104.081 61.6756C90.9523 61.6756 77.9482 48.9886 77.9482 35.7249V32.9953L77.977 32.9761ZM152.552 30.8904C152.552 17.4345 170.631 8.53438 181.934 20.0969C183.816 22.0491 185.203 24.4237 185.98 27.0221C186.756 29.6205 186.899 32.3671 186.397 35.0321C185.894 37.6971 184.761 40.2029 183.092 42.3401C181.422 44.4773 179.265 46.1836 176.801 47.3162C163.758 53.083 152.552 42.5106 152.552 32.9761V30.8904ZM24.0957 30.8904C24.0957 19.9815 36.8307 10.7066 48.9411 16.6272C59.5136 21.8461 62.1567 37.9548 50.8633 45.8553C38.8876 54.2268 24.1149 44.2598 24.1149 32.9761V30.8904H24.0957ZM71.2394 32.3802V36.2728C71.2394 48.0851 82.0426 63.1846 93.6723 66.1737C92.913 66.8657 87.7421 67.5481 84.8299 68.4805L76.5737 71.5945C74.3727 69.6146 71.2971 61.9351 58.7158 56.5239C57.422 55.98 56.1002 55.5051 54.7559 55.1014C53.254 54.8103 51.7711 54.4284 50.3155 53.9577C51.0459 53.3618 52.3723 52.9101 53.5257 52.1508C67.6159 42.895 68.4906 24.9987 57.2549 14.3204C53.2506 10.657 48.1184 8.46588 42.703 8.10776C37.2875 7.74965 31.9115 9.24584 27.4597 12.3501C24.1447 14.6345 21.4762 17.7367 19.7129 21.3559C17.0598 26.7469 16.5496 32.9434 18.2851 38.6958C20.0206 44.4482 23.8728 49.3285 29.0648 52.3526C30.022 52.8099 30.9497 53.3268 31.8424 53.9C28.8821 55.409 24.4705 54.5055 14.7631 61.5891C10.659 64.5879 5.96865 70.6046 3.70998 75.3814C2.36439 78.2648 0 85.531 0 88.3471V108.098C0 112.203 4.9114 111.52 8.90973 111.52H45.9327C46.3364 112.875 45.2695 118.498 45.2503 120.651V141.008C45.2503 151.878 43.9528 149.85 66.6932 149.85H158.559C161.951 149.85 165.373 150.225 165.373 146.4V118.882L164.547 111.559C176.292 111.28 189.402 111.559 201.358 111.559C205.203 111.559 210.604 112.366 210.604 108.137V88.9527C210.604 81.8691 205.529 70.8929 200.445 65.8854C188.44 54.1691 184.106 56.4374 178.887 53.9L184.202 50.5168C188.825 47.1144 193.285 39.7809 193.285 33.5528V30.0062C193.285 19.2895 182.193 8.08265 170.832 8.08265C163.605 8.08265 158.482 9.74541 153.724 14.0898C150.971 16.5451 148.827 19.6076 147.462 23.0349C146.097 26.4622 145.548 30.1602 145.86 33.8361C146.171 37.512 147.334 41.065 149.256 44.2137C151.178 47.3625 153.807 50.0206 156.934 51.9777C158.089 52.552 159.209 53.1938 160.289 53.9C159.914 54.1211 154.839 55.3225 152.138 56.4566C149.617 57.4845 147.221 58.797 144.997 60.3685C142.895 61.8277 140.929 63.4748 139.124 65.2895C137.654 67.0772 135.482 69.2686 134.415 71.5465C133.194 71.4504 128.139 69.1917 126.245 68.5766C123.239 67.6266 120.159 66.929 117.038 66.4909C117.758 65.7316 142.508 57.3697 139.067 29.0931C137.712 17.9055 129.859 8.28449 119.921 3.36347C106.85 -3.11458 90.9715 0.0859983 81.043 10.2068C78.3996 12.959 76.1981 16.104 74.5169 19.5298C73.0464 22.913 71.2394 28.3434 71.2394 32.3994V32.3802Z" fill="white"/>
</g>
<defs>
<filter id="filter0_d_6988_2383" x="0" y="0" width="213.604" height="154" filterUnits="userSpaceOnUse" color-interpolation-filters="sRGB">
<feFlood flood-opacity="0" result="BackgroundImageFix"/>
<feColorMatrix in="SourceAlpha" type="matrix" values="0 0 0 0 0 0 0 0 0 0 0 0 0 0 0 0 0 0 127 0" result="hardAlpha"/>
<feOffset dx="3" dy="4"/>
<feComposite in2="hardAlpha" operator="out"/>
<feColorMatrix type="matrix" values="0 0 0 0 0.054902 0 0 0 0 0.0823529 0 0 0 0 0.172549 0 0 0 0.5 0"/>
<feBlend mode="normal" in2="BackgroundImageFix" result="effect1_dropShadow_6988_2383"/>
<feBlend mode="normal" in="SourceGraphic" in2="effect1_dropShadow_6988_2383" result="shape"/>
</filter>
</defs>
</svg>
