<svg width="1931" height="1328" viewBox="0 0 1931 1328" fill="none" xmlns="http://www.w3.org/2000/svg">
<g opacity="0.12">
<path fill-rule="evenodd" clip-rule="evenodd" d="M694.834 467.347C694.726 450.332 651.652 431.199 633.252 421.335C596.872 401.825 559.033 383.808 521.546 365.503C484.059 347.199 446.47 328.944 410.723 308.848C387.513 295.803 360.241 281.11 344.5 262.483C310.966 222.788 416.695 228.683 444.081 227.814C513.753 225.596 593.667 226.608 658.973 205.937C697.958 193.597 713.503 172.9 705.13 142.737C702.431 132.927 694.443 121.639 701.21 112.082C708.436 101.875 725.061 95.9854 738.859 92.0357C789.187 77.6461 847.051 75.9788 900.299 74.1727C957.718 72.1879 1015.68 72.7685 1072.69 72.6147C1096.87 72.5502 1122.11 66.1641 1145.13 60.9739C1175.31 54.1711 1205.14 46.5297 1235.07 39.1414C1300.91 22.9258 1368.76 5.84679 1438.43 1.72838C1482.06 -0.851834 1529.74 2.63642 1563.63 25.0793C1580.65 36.3478 1589.55 53.0993 1599.39 67.9802C1611.3 85.9573 1622.73 104.108 1635.41 121.802C1676.25 178.79 1734.56 234.478 1829.2 237.277C1843.52 237.698 1857.58 236.324 1871.83 236.066C1880.91 235.907 1888.98 237.52 1892.36 244.501C1900.84 262.012 1874.18 289.655 1863.25 303.548C1839.32 333.96 1812.33 363.007 1787.05 392.809C1770.32 412.518 1741.37 439.451 1741.07 463.397C1740.8 484.734 1779.39 500.155 1800.4 510.665C1820.09 520.504 1855.76 534.274 1857.92 554.29C1858.97 563.996 1850.26 572.039 1841.17 578.281C1825.24 589.197 1806.89 596.898 1792.56 609.353C1769.06 629.786 1749.43 657.9 1752.62 685.434C1754.83 704.513 1769.63 717.007 1788.47 728.95C1796.38 733.972 1802.8 737.525 1803.22 745.677C1803.9 758.623 1797 772.323 1791.32 784.326C1771 827.281 1742.13 868.818 1710.02 907.6C1693.98 926.981 1676.64 946.303 1655.37 962.836C1641.44 973.693 1622.65 986.614 1601.39 986.599C1576.79 986.599 1550.75 980.069 1526.83 975.187C1482.16 966.062 1438.02 955.513 1394.07 944.691C1292.41 919.653 1191.71 892.587 1091.96 863.493C1021.7 842.966 949.952 822.409 883.897 795.118C871.015 789.759 858.856 783.51 847.584 776.456C835.54 769.048 820.595 765.733 805.441 763.262C711.385 747.925 608.342 759.7 513.895 767.083C489.922 768.954 465.949 770.834 441.909 772.144C421.242 773.27 396.5 776.501 376.414 771.648C336.835 762.096 371.435 726.891 386.062 712.546C437.564 662.039 504.01 619.306 565.598 575.681C594.881 554.905 624.387 534.184 652.077 512.233C666.496 500.82 694.928 482.263 694.834 467.347Z" stroke="#0E152C" stroke-width="1.19861"/>
<path fill-rule="evenodd" clip-rule="evenodd" d="M712.583 464.478C696.798 446.474 669.102 433.167 646.112 420.644C613.028 402.615 578.904 385.589 545.294 368.071C513.513 351.505 481.665 334.751 452.234 315.939C434.287 304.467 411.77 290.748 403.27 273.781C384.83 237.004 484.028 242.584 508.517 241.622C569.398 239.241 638.422 238.696 694.745 219.333C729.915 207.241 744.364 187.189 736.863 159.35C734.27 149.718 729.598 141.495 735.513 131.912C742.352 120.822 758.084 113.908 772.506 109.028C817.682 93.7371 871.082 90.4885 920.053 87.7854C970.644 84.9931 1023.36 83.024 1072.32 85.0674C1091.9 85.8808 1114.44 81.2633 1133.82 77.7221C1163.63 72.2663 1193.14 65.9724 1222.81 60.1199C1283.1 48.2165 1344.96 36.7496 1407.69 35.4452C1452.97 34.5028 1500.19 39.6113 1537.86 59.3561C1576.05 79.3786 1592.99 110.417 1614.16 139.922C1650.73 190.933 1700.12 252.955 1784.72 263.732C1797.55 265.369 1809.87 264.481 1822.69 264.883C1829.28 265.087 1836.78 265.731 1840.12 270.507C1848.8 282.907 1825.03 305.578 1817.02 315.076C1794.92 341.323 1770.07 366.285 1746.9 392.026C1728.5 412.465 1705.18 435.176 1698.06 459.404C1689.43 488.806 1745.85 509.726 1765.7 530.428C1800.1 566.327 1734.92 586.781 1702.79 603.897C1665.89 623.547 1635.43 659.396 1668.51 689.8C1681.16 701.425 1696.73 708.354 1702.39 723.526C1711.22 747.253 1704.54 774.368 1697.37 797.823C1686.57 833.082 1669.47 867.959 1646.23 899.825C1629.58 922.64 1601.96 958.415 1561.51 955.731C1534.28 953.941 1506.6 947.399 1480.08 941.616C1440.38 932.961 1401.18 923.096 1362.19 912.849C1272.18 889.261 1183.16 863.252 1095.9 834.644C1036.35 815.118 870.259 735.32 857.761 732.473C820.498 723.992 778.13 725.485 739.712 726.799C688.608 728.545 637.76 733.068 586.953 737.259C562.768 739.243 538.461 741.669 514.148 742.646C496.843 743.34 474.116 743.935 458.958 736.54C429.372 722.112 462.334 689.1 475.966 675.134C517.726 632.316 570.552 595.237 620.084 557.325C644.39 538.711 669.068 520.127 691.133 500.02C700.032 491.901 722.34 475.598 712.583 464.478Z" stroke="#0E152C" stroke-width="1.19861"/>
<path fill-rule="evenodd" clip-rule="evenodd" d="M734.424 455.245C691.313 419.217 631.811 392.422 580.458 362.333C554.683 347.226 528.747 331.708 506.516 313.713C494.952 304.357 480.512 292.524 478.284 279.482C472.33 244.59 561.738 249.308 588.498 247.983C640.236 245.413 698.685 243.464 745.623 225.658C774.301 214.773 788.424 196.908 783.063 173.427C780.687 163.009 776.988 154.158 783.063 143.928C789.22 133.565 802.047 126.252 815.035 120.77C852.361 105.003 898.746 99.9628 940.769 96.2072C990.068 91.8329 1039.74 90.125 1089.38 91.0972C1132.85 91.9357 1176.12 82.5045 1218.57 76.2882C1274.8 68.0577 1332.05 60.869 1389.6 61.9555C1435.04 62.8188 1480.85 69.6006 1519.7 87.6244C1559.18 105.981 1582.91 133.455 1604.31 163.103C1636.66 207.922 1676.98 267.982 1747.95 285.003C1758.27 287.484 1767.89 287.757 1778.54 288.188C1783.71 288.397 1790.39 288.461 1792.95 292.425C1799.12 301.97 1776.31 320.475 1769.95 326.925C1749.63 347.514 1727.6 367.175 1706.77 387.491C1687.33 406.457 1666.15 426.222 1654.07 448.448C1634.85 483.846 1696.3 504.544 1694.58 538.274C1693.51 559.215 1666.23 574.233 1644.62 584.621C1618.02 597.396 1579.73 605.795 1566.41 629.108C1556.5 646.472 1572.06 656.578 1584.04 669.754C1604.35 692.08 1605.73 722.343 1603.62 748.185C1600.77 783.107 1589.64 818.544 1570.69 850.643C1562.1 865.194 1551.58 880.33 1536.1 891.631C1521.59 902.223 1507.86 904.937 1488.47 902.769C1429.12 896.121 1369.19 877.591 1312.27 861.041C1240.76 840.244 1170.24 817.284 1101.82 791.451C1055.16 773.834 1007.45 755.195 966.504 730.856C955.83 724.511 944.901 717.615 937.097 709.245C931.197 702.954 928.692 697.76 918.748 694.168C889.274 683.527 848.276 686.31 816.696 687.416C766.2 689.177 715.947 693.866 665.761 698.088C636.476 700.568 581.309 708.372 557.924 689.654C537.739 673.49 562.096 645.931 574.537 631.693C606.01 595.685 646.494 564.082 684.056 531.542C701.271 516.629 719.16 501.602 733.377 485.022C737.009 480.795 742.829 475.194 743.828 470.059C744.948 464.175 739.716 459.685 734.424 455.245Z" stroke="#0E152C" stroke-width="1.19861"/>
<path fill-rule="evenodd" clip-rule="evenodd" d="M738.127 463.633C698.292 431.778 650.3 405.607 607.534 375.798C588.358 362.432 568.994 348.411 554.383 332.106C546.524 323.338 538.179 312.301 540.346 301.403C546.565 270.124 620.099 272.949 649.807 271.117C693.95 268.426 744.663 265.715 783.696 248.849C809.265 237.802 818.852 221.487 814.079 200.445C808.954 177.875 820.412 161.49 846.488 148.899C879.18 133.125 920.447 126.696 958.406 122.128C1004.14 116.651 1050.45 114.223 1096.78 114.874C1141.83 115.51 1185.48 109.959 1230.24 106.349C1289.58 101.568 1350.83 99.2098 1409.5 109.011C1460.59 117.545 1506.73 136.353 1541.32 165.437C1577.45 195.793 1595.33 234.038 1624.67 267.621C1642.97 288.568 1668.48 316.278 1702.67 324.42C1714.08 327.136 1734.86 323.472 1725.75 336.833C1720.55 344.474 1710.8 351.177 1703.11 357.422C1690.67 367.516 1677.82 377.332 1665.17 387.287C1638.22 408.507 1609.36 430.179 1589.15 455.307C1563.7 486.943 1601.54 511.291 1596.93 543.37C1594.45 560.633 1578.12 574.411 1560.85 585.235C1549.68 592.245 1537.45 598.317 1524.97 603.982C1511.93 609.901 1496.5 614.409 1485.13 622.06C1468.93 632.948 1475.96 645.837 1479 659.913C1484.35 684.649 1485.52 709.776 1482.5 734.725C1478.8 765.304 1470.12 796.757 1451.84 824.546C1444.73 835.364 1435.73 846.833 1422.35 854.087C1408.98 861.341 1395.14 860.844 1379.81 858.66C1334.35 852.205 1288.99 837.186 1245.86 822.952C1191.89 805.133 1138.98 785.218 1088.45 762.563C1053.57 746.924 1018.57 730.028 989.39 708.822C980.903 702.651 972.828 696.043 966.299 688.665C961.816 683.605 959.412 677.076 952.917 673.273C932.594 661.402 891.792 664.947 867.958 665.637C820.392 667.012 773.575 673.551 726.069 675.14C700.142 676.009 659.536 678.194 640.496 661.963C622.59 646.706 638.808 622.675 649.51 607.974C670.542 579.068 698.798 553.315 724.124 526.445C734.535 515.388 745.946 503.819 752.691 491.193C758.687 479.943 748.336 471.8 738.127 463.633Z" stroke="#0E152C" stroke-width="1.19861"/>
<path fill-rule="evenodd" clip-rule="evenodd" d="M747.927 464.153C716.218 436.121 677.993 411.238 646.056 382.75C627.362 366.067 595.168 338.021 609.625 314.501C625.486 288.655 680.773 287.951 712.731 285.869C750.767 283.39 795.435 280.004 827.986 263.866C838.281 258.765 847.051 252.012 850.768 243.118C854.749 233.599 850.397 225.269 849.831 215.74C848.643 195.75 864.875 179.702 886.356 168.681C916.714 153.098 954.676 145.731 990.533 140.594C1031.16 134.801 1072.46 131.945 1113.84 132.067C1153.38 132.166 1192.51 131.522 1232.1 130.778C1283.87 129.786 1336.37 131.388 1386.59 141.497C1436.06 151.462 1481.04 170.138 1516.37 197.61C1550.84 224.417 1574.1 257.183 1594.46 290.559C1606.02 309.503 1625.54 337.812 1653.11 347.381C1665.37 351.64 1677.4 351.347 1664.36 362.423C1647.95 376.37 1625.83 387.559 1606.82 399.488C1579.39 416.702 1551.28 434.252 1528.26 454.718C1513.56 467.787 1507.01 480.469 1508.02 497.39C1508.8 510.281 1512.35 523.037 1510.56 535.977C1506.36 566.349 1473.82 587.177 1445.05 606.572C1426.55 619.046 1409.65 628.56 1400.12 646.304C1388.85 667.276 1384.12 690.092 1376.6 711.867C1368.32 735.778 1358.77 760.652 1340.72 781.713C1324.65 800.463 1305.1 808.872 1275.85 803.82C1230.23 795.947 1185.25 776.552 1144.75 758.609C1103.52 740.354 1063 719.829 1028.84 694.737C1010.39 681.188 997.806 665.278 981.426 650.722C960.822 632.447 914.211 639.368 886.511 640.915C840.527 643.483 695.838 662.7 709.189 600.459C714.761 574.48 736.707 550.504 752.757 527.579C759.409 518.065 769.036 506.647 770.54 495.744C772.18 483.87 757.459 472.591 747.927 464.153Z" stroke="#0E152C" stroke-width="1.19861"/>
<path fill-rule="evenodd" clip-rule="evenodd" d="M764.668 466.533C740.437 441.131 711.439 417.133 690.648 389.696C677.16 371.928 663.915 348.188 681.314 329.388C700.952 308.172 744.254 303.226 776.072 300.523C808.854 297.74 847.988 295.399 874.782 279.312C883.306 274.188 890.333 267.278 891.641 259.004C892.902 251.067 889.341 243.131 890.522 235.05C893.165 216.905 908.13 201.954 927.424 191.111C984.497 159.032 1069.44 151.899 1138.3 151.06C1172.77 150.644 1208.24 152.831 1242.93 154.399C1287.95 156.432 1333.03 160.798 1375.96 171.319C1467.24 193.68 1528.42 243.275 1571.15 304.987C1584.6 324.412 1594.89 345.43 1615.96 361.04C1626.83 369.101 1624.45 374.89 1613.35 382.241C1595.98 393.729 1574.8 402.509 1555.52 412.098C1528.11 425.734 1500.11 439.574 1475.87 455.908C1459.16 467.168 1447.29 478.017 1443.69 494.902C1441.12 506.941 1441.72 519.208 1440.18 531.322C1437.24 554.333 1427.17 577.171 1409.35 596.259C1395.18 611.388 1378.32 625.138 1360.9 638.249C1338.25 655.317 1319.09 672.659 1301.88 692.917C1279.07 719.733 1247.03 769.199 1193.31 756.108C1134.06 741.663 1078.52 704.961 1040.5 669.4C1027.74 657.46 1017.26 642.817 1000.04 634.012C974.267 620.852 948.114 621.314 917.456 621.368C871.558 621.443 771.682 628.769 770.603 578.212C770.178 558.182 781.966 539.243 787.611 519.977C793.977 498.399 781.217 483.845 764.668 466.533Z" stroke="#0E152C" stroke-width="1.19861"/>
<path fill-rule="evenodd" clip-rule="evenodd" d="M782.716 468.799C758.748 435.692 705.004 381.289 745.881 344.474C767.473 325.018 805.664 317.706 837.702 313.349C863.484 309.825 894.577 308.501 914.057 293.561C928.375 282.576 922.019 266.59 927.505 252.839C934.313 235.792 949.941 221.844 969.144 211.36C1022.81 182.059 1097.42 173.067 1161.98 171.154C1229.02 169.171 1302.89 178.445 1365.98 196.285C1444.65 218.537 1503.58 260.671 1544.79 314.028C1552.4 323.877 1559.31 333.985 1566.61 343.953C1571.51 350.64 1578.79 357.109 1582.65 364.143C1589.09 375.871 1581.51 385.458 1569.35 393.101C1551.86 404.106 1530.37 411.938 1510.43 420.196C1483.17 431.498 1455.29 442.597 1429.93 455.856C1412.88 464.779 1395.04 474.391 1388.94 489.871C1384.78 500.429 1383.92 511.612 1384.07 522.547C1384.39 545.994 1382.72 564.954 1367.83 586.428C1343.34 621.682 1305.67 653.381 1265.88 679.757C1234.65 700.458 1185.24 732.613 1139.74 718.774C1098.92 706.381 1075.04 676.719 1048.14 652.737C1035.07 641.078 1020.38 630.431 1003.12 622.138C981.357 611.683 960.872 607.296 935.089 605.586C891.696 602.706 826.265 601.958 812.85 563.69C807.898 549.568 810.725 534.94 808.127 520.634C804.733 501.718 794.807 485.499 782.716 468.799Z" stroke="#0E152C" stroke-width="1.19861"/>
<path fill-rule="evenodd" clip-rule="evenodd" d="M807.64 470.025C790.573 433.799 768.152 388.144 809.373 355.948C829.339 340.351 857.425 331.631 884.606 325.116C904.074 320.446 934.985 319.071 946.92 304.715C955.686 294.15 956.9 279.575 964.83 268.256C975.727 252.693 992.234 239.875 1011.6 229.841C1062.05 203.694 1127.77 193.59 1187.69 190.697C1317.9 184.42 1450.39 234.417 1520.07 316.675C1540.84 341.194 1567.66 367.292 1534.09 392.342C1497.43 419.671 1442.21 432.474 1398.46 451.892C1381.75 459.306 1360.44 468.218 1351.12 481.642C1345.51 489.711 1345.12 499.834 1344.87 508.717C1344.19 531.341 1341.64 551.687 1329.26 572.798C1310.15 605.421 1279.68 635.518 1245.15 660.172C1215.04 681.669 1172.09 706.933 1128.35 691.435C1094.82 679.525 1073.55 654.247 1047.49 635.613C1018.5 614.859 982.639 600.875 943.259 594.042C904.951 587.412 862.934 582.941 842.745 554.774C835.82 545.112 828.584 532.602 825.988 521.907C821.797 504.275 815.661 486.924 807.64 470.025Z" stroke="#0E152C" stroke-width="1.19861"/>
<path fill-rule="evenodd" clip-rule="evenodd" d="M835.425 470.279C827.53 433.699 826.652 395.556 863.337 366.725C880.458 353.274 902.1 343.719 923.985 335.061C940.087 328.69 956.715 323.317 968.74 312.873C979.882 303.204 988.351 291.976 999.108 282.053C1013.3 268.903 1030.28 257.52 1049.39 248.34C1097.3 225.374 1155.59 214.632 1211.35 210.906C1238.35 209.095 1267.63 208.153 1294.44 213.089C1320.33 217.852 1345.94 225.384 1369.75 234.165C1420.36 252.815 1464.22 280.128 1496.02 314.659C1517.83 338.345 1529.62 361.376 1501.38 385.404C1469.55 412.489 1419.64 427.433 1378.5 445.011C1350.28 457.067 1318.66 468.885 1313.39 494.506C1309.19 514.893 1305.78 534.242 1294.93 553.512C1278.77 581.936 1255 607.684 1225.05 629.229C1197.66 648.856 1163.01 665.511 1123.83 655.028C1092.78 646.708 1068.7 628.068 1041.58 614.741C1011.35 599.857 978.141 591.651 943.171 585.052C911.743 579.098 882.151 569.949 861.839 550.526C857.682 546.556 853.315 542.235 850.11 537.794C846.02 532.129 846.338 526.512 845.535 520.162C843.443 503.402 838.995 486.836 835.425 470.279Z" stroke="#0E152C" stroke-width="1.19861"/>
<path fill-rule="evenodd" clip-rule="evenodd" d="M866.065 467.29C866.74 432.544 878.106 399.706 909.235 372.628C922.544 361.044 938.435 351.503 953.079 340.888C964.87 332.331 976.013 324.38 989.571 317.328C1021.73 300.631 1047.87 279.024 1082.05 264.156C1127.67 244.278 1179.94 233.291 1231.79 228.898C1257.12 226.751 1283.27 226.001 1308.89 228.426C1330.9 230.508 1351.97 237.818 1371.52 245.297C1409.83 259.947 1447.03 280.768 1471.91 307.111C1526.75 365.189 1418.62 407.414 1363.12 432.142C1337.59 443.517 1298.59 456.69 1288.14 479.222C1280.66 495.318 1276.11 511.687 1266.49 527.286C1240.63 569.178 1188.15 618.45 1118.2 611.89C1088.28 609.087 1061 597.702 1033.06 590.059C1004.29 582.188 974.597 577.8 944.695 572.985C916.749 568.487 894.476 562.087 876.426 544.927C867.799 536.733 868.561 526.923 867.792 516.87C866.537 500.357 865.762 483.749 866.065 467.29Z" stroke="#0E152C" stroke-width="1.19861"/>
<path fill-rule="evenodd" clip-rule="evenodd" d="M893.966 462.839C905.202 410.393 946.934 353.136 1008.3 322.678C1080.48 286.85 1158.67 256.679 1244.91 248.006C1284.9 243.984 1328.7 242.006 1366.42 255.157C1395.14 265.159 1428.49 280.11 1444.29 301.136C1482.95 352.566 1396.96 393.507 1347.97 417.3C1321.59 430.109 1288.02 442.591 1268.14 461.296C1256.6 472.142 1250.71 486.488 1241.4 498.399C1213.18 534.496 1166.73 563.61 1108.87 568.817C1082.11 571.222 1055.16 568.247 1028.61 565.881C1001.43 563.461 973.912 562.147 946.901 558.77C925.339 556.072 899.928 551.505 891.987 534.54C881.973 513.162 889.381 484.256 893.966 462.839Z" stroke="#0E152C" stroke-width="1.19861"/>
<path fill-rule="evenodd" clip-rule="evenodd" d="M921.323 454.415C937.711 405.107 972.413 357.009 1030.75 327.573C1061.69 311.964 1097.6 301.19 1132.08 290.544C1171.16 278.479 1212 269.113 1253.7 264.468C1305.63 258.681 1389.73 253.465 1416.86 296.966C1443.79 340.145 1375.75 378.361 1335.51 400.139C1309.71 414.09 1282.1 426.894 1257.45 442.146C1244.08 450.414 1233.79 459.968 1222.47 469.666C1191.21 496.536 1146.65 517.808 1101.22 529.164C1057.2 540.172 1002.73 545.046 956.262 541.408C936.21 539.844 921.877 534.568 915.813 519.57C907.409 498.72 914.549 474.783 921.323 454.415Z" stroke="#0E152C" stroke-width="1.19861"/>
<path fill-rule="evenodd" clip-rule="evenodd" d="M948.509 441.134C964.789 397.72 999.903 358.067 1051.12 332.011C1108.54 302.801 1182.47 286.57 1250.42 278.317C1286.54 273.933 1364.81 262.046 1383.22 296.065C1401.63 330.083 1348.41 363.608 1317.78 382.062C1280.6 404.427 1240.52 426.02 1200.48 446.086C1165.7 463.533 1128.58 481.37 1090.9 494.843C1069.65 502.486 1047.52 508.727 1024.76 513.491C1007.91 516.99 986.475 522.209 968.806 519.605C924.24 513.026 940.723 461.892 948.509 441.134Z" stroke="#0E152C" stroke-width="1.19861"/>
<path fill-rule="evenodd" clip-rule="evenodd" d="M982.068 428.133C1017.79 346.032 1130.96 305.654 1239.93 291.579C1265.25 288.312 1336.23 276.533 1350.38 301.613C1364.1 325.93 1320.48 354.767 1300.06 368.43C1236.78 410.767 1158.6 442.158 1084.52 473.256C1061.39 482.963 1019.69 504.028 991.004 494.311C959.861 483.742 974.668 445.157 982.068 428.133Z" stroke="#0E152C" stroke-width="1.19861"/>
<path fill-rule="evenodd" clip-rule="evenodd" d="M1018.65 412.331C1049.72 351.87 1140.07 317.193 1223.14 305.761C1243.49 302.964 1295.16 294.255 1310.57 311.127C1324.83 326.735 1290.8 349.35 1278.07 358.337C1249.72 378.348 1216.13 394.834 1182.94 410.679C1152.26 425.34 1121.24 440.367 1088.95 452.766C1071.94 459.292 1040.05 473.219 1020.72 463.141C999.918 452.3 1011.76 425.756 1018.65 412.331Z" stroke="#0E152C" stroke-width="1.19861"/>
<path fill-rule="evenodd" clip-rule="evenodd" d="M1058.97 394.667C1082.65 355.183 1146.06 329.544 1202 321.024C1217.05 318.736 1249.58 312.801 1262.28 323.346C1273.97 333.057 1255.13 347.293 1246.77 353.868C1209.71 383.011 1155.44 409.042 1105.72 425.03C1093.22 429.049 1070.75 436.939 1057.89 428.826C1044.7 420.495 1053.53 403.732 1058.97 394.667Z" stroke="#0E152C" stroke-width="1.19861"/>
<path fill-rule="evenodd" clip-rule="evenodd" d="M1101.75 378.081C1115.09 358.475 1149.96 343.683 1178.84 338.975C1199.17 335.664 1223.6 338.524 1205.89 355.59C1188.29 372.526 1155.63 387.995 1127.96 394.852C1106.84 400.082 1090.29 394.922 1101.75 378.081Z" stroke="#0E152C" stroke-width="1.19861"/>
<path fill-rule="evenodd" clip-rule="evenodd" d="M19.854 513.875C18.9983 475.14 -8.99646 434.884 4.8291 395.416C16.182 363.001 73.337 360.295 107.625 345.609C134.872 333.941 150.334 313.273 165.069 293.442C178.309 275.639 190.201 257.3 204.148 239.789C213.176 228.469 228.679 206.239 248.259 205.837C267.003 205.451 284.19 222.774 295.078 233.014C309.274 246.361 321.86 260.591 335.645 274.152C358.877 297.026 386.75 313.957 418.666 329.981C454.986 348.214 491.906 365.825 529.425 382.812C557.05 395.357 584.862 407.807 611.415 421.591C628.071 430.24 664.831 446.467 665 462.412C665.08 470.02 655.277 478.446 648.668 484.528C637.483 494.822 624.736 504.235 611.948 513.444C588.13 530.598 563.302 546.974 538.744 563.548C506.868 585.059 476.421 606.218 448.399 630.639C419.427 655.916 391.749 682.027 363.505 707.781C344.377 725.227 325.269 744.82 297.679 755.526C263.122 768.908 234.757 754.797 199.809 754.634C169.745 754.49 171.962 703.26 168.142 689.015C164.308 674.597 155.859 661.175 152.585 646.722C148.502 628.681 148.448 610.223 147.444 591.988C146.224 569.684 145.739 548.451 113.325 539.946C94.8772 535.113 74.9204 534.097 55.826 531.203C43.4558 529.324 20.1235 526.112 19.854 513.875Z" stroke="#0E152C" stroke-width="1.19861"/>
<path fill-rule="evenodd" clip-rule="evenodd" d="M34.6328 506.984C31.4816 474.515 12.8644 432.957 30.4694 399.44C45.5103 370.798 92.5493 367.085 124.224 352.04C150.371 339.63 162.011 319.322 175.082 299.372C185.568 283.369 195.737 267.211 207.64 251.719C216.412 240.302 229.807 221.027 248.046 218.664C264.443 216.539 282.028 233.556 291.232 242.213C304.66 254.851 316.145 268.576 328.007 282.013C348.851 305.617 370.195 326.843 400.702 344.182C431.343 361.595 464.867 374.616 498.747 388.167C525.253 398.77 551.623 409.681 576.806 421.922C595.565 431.036 622.536 442.701 631.119 458.953C637.914 471.81 603.453 493.145 593.291 500.675C572.373 516.157 550.206 530.692 527.999 545.137C500.927 562.739 472.991 578.132 449.083 598.211C406.323 634.11 370.579 678.816 315.558 705.497C282.372 721.59 245.441 725.705 208.531 723.297C193.915 722.344 190.406 707.169 188.564 698.319C185.5 683.616 185.116 668.659 182.761 653.897C180.554 640.077 175.655 626.947 171.708 613.396C167.713 599.666 166.593 585.598 163.651 571.773C161.829 563.191 160.027 553.203 152.058 546.303C143.812 539.16 130.209 536.167 118.319 533.893C95.9906 529.664 36.8596 529.897 34.6328 506.984Z" stroke="#0E152C" stroke-width="1.19861"/>
<path fill-rule="evenodd" clip-rule="evenodd" d="M53.6547 493.392C48.355 463.588 40.9354 426.467 62.5257 399.007C80.1733 376.555 117.811 371.712 144.694 357.082C167.054 344.917 175.5 325.568 186.599 307.587C195.706 292.839 204.861 278.026 215.899 263.991C224.27 253.348 235.059 238.916 251.68 235.203C265.891 232.031 281.946 246.244 289.824 253.318C303.239 265.374 314.176 278.883 325.038 292.214C342.808 314.027 359.159 337.327 384.449 355.07C409.023 372.287 438.215 382.45 467.954 393.876C490.733 402.631 513.369 411.723 534.831 422.164C551.311 430.175 571.733 439.668 580.321 452.999C587.747 464.495 568.682 478.104 559.156 486.214C543.426 499.599 525.967 511.879 508.752 524.208C490.172 537.509 469.595 549.778 451.616 563.406C413.81 592.085 383.605 623.838 337.008 645.809C306.831 660.042 266.222 672.971 230.549 670.646C204.895 668.97 206.582 627.219 204.118 613.878C200.067 592.065 192.243 569.147 179.814 549.055C169.14 531.837 143.776 526.528 120.444 522.666C105.828 520.242 90.5093 518.933 76.3724 515.185C60.0075 510.843 55.8758 505.885 53.6547 493.392Z" stroke="#0E152C" stroke-width="1.19861"/>
<path fill-rule="evenodd" clip-rule="evenodd" d="M71.3976 479.422C68.2421 454.224 68.9516 424.427 89.3912 402.63C107.304 383.538 139.196 378.511 161.879 363.471C179.582 351.737 186.535 332.605 196.056 317.087C207.691 298.114 223.996 263.072 253.348 255.932C280.652 249.295 309.207 291.696 319.092 304.339C334.741 324.351 347.829 346.298 366.81 364.779C383.154 380.689 405.054 389.484 428.297 398.936C457.933 411.008 502.927 425.322 518.772 448.85C530.583 466.381 492.177 492.444 479.062 504.59C465.345 517.279 455.014 532.319 440.858 544.56C418.52 563.876 382.323 579.429 352.438 591.297C323.383 602.842 285.652 615.619 252.692 614.859C231.029 614.362 226.908 589.76 222.286 577.743C215.664 560.659 206.86 545.351 187.947 533.731C168.697 521.903 146.007 516.329 122.155 511.452C109.912 508.966 95.9454 507.027 84.9925 502.005C72.8909 496.541 72.6138 489.108 71.3976 479.422Z" stroke="#0E152C" stroke-width="1.19861"/>
<path fill-rule="evenodd" clip-rule="evenodd" d="M93.0179 464.898C93.193 443.129 99.9617 419.915 120.032 403.123C136.748 389.136 162.914 384.461 178.916 370.162C191.591 358.842 198.043 342.951 206.53 329.805C216.908 313.696 231.584 285.554 257.392 279.964C282.581 274.521 304.861 305.518 314.519 317.783C328.662 335.767 340.111 354.83 354.383 372.765C365.563 386.835 379.235 395.904 397.44 404.973C418.81 415.625 448.626 427.425 460.042 445.048C468.272 457.808 448.35 478.197 441.116 489.437C436.267 496.987 431.829 504.656 429.391 512.839C427.491 519.212 427.303 525.109 421.8 530.581C407.946 544.345 377.572 546.141 356.962 550.678C329.591 556.699 300.55 563.542 271.906 564.848C254.301 565.664 245.316 553.736 235.268 545.345C223.394 535.425 206.583 528.291 191.901 520.805C172.525 510.91 151.437 504.755 129.623 498.452C119.783 495.607 108.226 492.817 100.602 487.162C92.6407 481.299 92.9573 472.754 93.0179 464.898Z" stroke="#0E152C" stroke-width="1.19861"/>
<path fill-rule="evenodd" clip-rule="evenodd" d="M115.722 451.975C119.201 433.692 130.042 416.218 148.353 403.293C162.39 393.37 181.031 387.783 192.297 375.861C202.794 364.747 210.109 352.11 218.779 340.227C227.954 327.665 241.586 306.667 262.749 303.249C285.557 299.568 303.126 320.748 312.855 332.487C325.145 347.322 334.483 363.283 345.472 378.629C353.751 390.067 364.311 400.528 376.801 409.663C389.901 419.294 407.666 428.517 414.293 441.759C420.152 453.488 409.189 467.678 407.254 479.571C405.185 492.277 408.812 505.624 397.337 516.534C373.673 539.035 314.284 534.862 280.332 535.343C246.832 535.839 219.898 522.071 192.789 508.973C174.882 500.325 156.234 493.002 137.876 484.944C119.161 476.723 112.662 468.065 115.722 451.975Z" stroke="#0E152C" stroke-width="1.19861"/>
<path fill-rule="evenodd" clip-rule="evenodd" d="M136.821 441.511C147.109 415.024 179.24 400.946 202.21 380.929C221.004 364.542 235.096 330.607 266.748 326.118C302.684 321.023 324.197 365.987 336.69 383.337C350.553 402.58 375.243 418.231 385.51 438.601C390.907 449.292 386.273 459.268 383.399 469.954C380.249 481.688 377.881 493.685 367.006 503.13C345.601 521.716 303.797 521.587 273.69 522.099C242.523 522.63 214.953 509.893 190.121 497.181C163.785 483.719 126.284 468.673 136.821 441.511Z" stroke="#0E152C" stroke-width="1.19861"/>
<path fill-rule="evenodd" clip-rule="evenodd" d="M154.051 434.328C165.643 415.456 190.003 400.115 209.769 385.632C226.268 373.558 244.016 349.252 269.171 347.519C298.736 345.476 316.654 371.43 328.287 387.345C339.736 402.983 356.235 419.494 362.574 436.658C369.186 454.537 351.58 478.615 334.79 491.267C316.063 505.375 285.424 510.587 259.135 510.025C231.608 509.452 206.352 497.793 185.505 485.699C163.217 472.771 140.57 456.235 154.051 434.328Z" stroke="#0E152C" stroke-width="1.19861"/>
<path fill-rule="evenodd" clip-rule="evenodd" d="M170.04 430.775C181.113 415.079 200.307 401.801 218.004 389.958C231.662 380.814 251.815 365.267 271.519 364.886C293.196 364.466 311.567 377.516 320.184 390.893C328.679 404.086 337.63 420.628 338.902 435.102C341.664 466.622 285.442 501.93 243.225 499.057C203.197 496.332 147.962 462.048 170.04 430.775Z" stroke="#0E152C" stroke-width="1.19861"/>
<path fill-rule="evenodd" clip-rule="evenodd" d="M184.825 429.044C200.101 408.594 237.206 379.439 271.558 378.747C310.988 377.955 320.886 410.399 315.746 433.911C310.525 457.907 265.065 492.641 228.817 487.947C193.439 483.367 166.721 453.298 184.825 429.044Z" stroke="#0E152C" stroke-width="1.19861"/>
<path fill-rule="evenodd" clip-rule="evenodd" d="M200.438 425.738C213.372 408.615 240.971 387.228 269.756 386.58C304.054 385.814 303.407 413.206 295.629 430.254C287.542 447.955 251.923 478.188 221.891 473.414C192.688 468.754 188.044 442.149 200.438 425.738Z" stroke="#0E152C" stroke-width="1.19861"/>
<path fill-rule="evenodd" clip-rule="evenodd" d="M214.035 423.767C222.572 411.549 243.938 396.107 264.25 395.613C289.077 395.019 284.251 416.745 277.836 427.231C270.212 439.708 244.655 461.389 223.208 457.875C202.092 454.417 206.992 433.834 214.035 423.767Z" stroke="#0E152C" stroke-width="1.19861"/>
<path fill-rule="evenodd" clip-rule="evenodd" d="M1381.93 1121.85C1326.98 1146.37 1264.86 1166.6 1206.28 1187.17C1120.67 1217.22 1033.8 1246.46 943.848 1268.85C895.621 1280.85 833.128 1298.14 781.381 1288.74C762.461 1285.31 745.207 1274.92 728.243 1268.16C704.852 1258.85 681.116 1250 657.421 1241.13C609.888 1223.35 562.208 1205.75 515.492 1186.83C492.997 1177.72 471.17 1166.24 447.751 1158.46C434.066 1153.92 417.689 1156.04 403.065 1156.33C369.192 1157 335.339 1158.27 301.485 1159.35C260.078 1160.67 218.575 1162.07 177.12 1161.55C158.423 1161.31 112.631 1163.75 102.338 1151.91C96.8007 1145.54 109.852 1134.04 115.903 1128.72C127.012 1118.94 139.78 1110.13 152.38 1101.41C181.518 1081.24 212.464 1062.03 238.365 1039.5C251.673 1027.92 269.109 1013.77 260.422 997.958C251.653 981.988 236.463 968.16 227.196 952.244C216.525 933.929 212.1 914.87 207.062 895.449C203.332 881.095 194.644 868.377 186.476 855.144C177.451 840.517 168.102 825.767 161.836 810.342C157.695 800.153 151.01 781.823 165.499 775.372C186.085 766.199 224.686 773.627 248.152 776.329C280.582 780.057 312.776 784.807 345.119 788.898C368.598 791.873 392.159 795.135 416.029 795.482C454.51 796.043 493.118 794.104 531.498 792.299C602.563 788.957 673.119 784.426 744.425 784.426C806.896 784.426 951.261 837.562 985.054 846.918C1052.5 865.596 1121.75 883.301 1185.58 908.151C1202.84 914.88 1229.42 923.844 1238.5 937.692C1244.11 946.225 1241.53 951.158 1254.75 956.657C1272.79 964.159 1295.9 967.104 1315.86 970.461C1348.02 975.865 1380.42 980.441 1412.72 985.335C1478.05 995.207 1542.94 1006.37 1608 1017.12C1627.67 1020.36 1651.47 1021.08 1670.22 1026.8C1682.31 1030.48 1681.05 1035.1 1671.7 1040.69C1655.29 1050.49 1632.29 1055.92 1612.9 1061.51C1584.5 1069.7 1555.63 1077 1526.75 1084.2C1497.86 1091.4 1468.83 1098.38 1439.94 1105.59C1420.85 1110.34 1399.08 1114.2 1381.93 1121.85Z" stroke="#0E152C" stroke-width="1.19861"/>
<path fill-rule="evenodd" clip-rule="evenodd" d="M1336.71 1116.46C1278.58 1141.02 1214.06 1160.59 1151.86 1179.68C1072.25 1204.13 990.839 1227.05 906.96 1242.33C857.711 1251.3 799.603 1261.2 749.281 1250.91C731.329 1247.24 717.917 1239 702.528 1231.72C684.987 1223.41 666.772 1215.8 648.556 1208.31C611.059 1192.89 573.167 1177.99 534.878 1163.62C514.598 1155.98 492.274 1145.75 469.363 1143.09C451.148 1140.98 430.456 1144.04 412.16 1144.93C379.21 1146.52 346.267 1148.17 313.304 1149.57C275.267 1151.19 237.122 1152.68 199.005 1152.42C177.76 1152.27 141.289 1154.65 126.264 1144.56C113.156 1135.75 160.88 1103.89 169.273 1097.84C195.483 1078.94 223.049 1060.95 247.444 1040.74C261.862 1028.82 279.416 1014.33 285.495 998.536C290.669 985.075 280.684 969.737 274.788 957.294C267.414 941.708 261.464 925.552 252.896 910.293C245.265 896.699 233.122 884.588 222.455 872.23C210.723 858.635 198.843 844.817 190.133 829.986C184.797 820.86 175.965 805.576 186.571 796.877C198.823 786.848 236.589 793.402 252.113 794.832C283.606 797.771 314.855 802.141 346.132 806.053C398.08 812.548 447.606 818.228 500.505 816.867C569.393 815.09 638.214 810.909 707.089 808.595C732.523 807.731 758.362 805.994 783.817 806.932C798.409 807.473 809.521 810.75 818.008 818.144C829.598 828.233 856.294 833.819 874.86 839.608C903.809 848.63 933.123 857.021 962.355 865.522C1026.53 884.191 1091.93 902.185 1152.79 926.331C1172.05 933.968 1194.1 942.483 1208.34 955.1C1216.29 962.136 1214.28 968.913 1219.13 976.391C1225.56 986.227 1246.67 990.666 1259.29 993.883C1283.66 1000.1 1309.02 1004.27 1334.18 1008.17C1391.12 1017 1448.2 1022.8 1506.06 1027.08C1519.62 1028.07 1573.02 1031.51 1544.97 1048.09C1513.99 1066.42 1469.25 1075.4 1432.77 1085.73C1399.91 1095.02 1367.02 1103.65 1336.71 1116.46Z" stroke="#0E152C" stroke-width="1.19861"/>
<path fill-rule="evenodd" clip-rule="evenodd" d="M1256.38 1111.92C1201.74 1133.53 1141.21 1149.65 1082.37 1165.07C1010.96 1183.79 937.765 1200.47 862.872 1209.81C815.826 1215.68 763.957 1220.18 717.228 1210.44C685.317 1203.78 660.632 1185.8 632.604 1173.42C604.576 1161.05 575.413 1149.44 545.379 1139.75C526.739 1133.74 506.687 1127.69 485.946 1128.49C435.516 1130.41 385.146 1134.99 334.662 1137.22C301.265 1138.71 267.8 1139.93 234.302 1139.56C214.101 1139.35 186.35 1140.24 168.466 1132.43C148.698 1123.79 253.955 1050.01 263.903 1041.7C288.845 1020.88 319.048 993.251 314.225 963.64C309.613 935.333 289.622 914.199 267.01 892.019C254.178 879.403 213.027 845.697 228.277 829.288C236.99 819.908 265.707 823.155 279.349 823.795C306.236 825.054 332.974 827.761 359.719 830.111C398.715 833.516 438.785 838.776 477.95 840.318C505.221 841.389 532.655 839.956 559.974 839.926C599.146 839.887 638.317 840.105 677.489 840.363C710.38 840.581 743.547 840.363 776.323 842.683C796.699 844.11 812.165 847.318 826.78 856.38C839.498 864.263 858.685 868.878 874.894 873.89C901.666 882.164 928.789 889.833 955.824 897.626C1012.43 913.946 1069.68 929.924 1123.86 950.319C1148.59 959.624 1190.17 972.652 1195.97 995.214C1198.07 1003.35 1199.61 1006.86 1210.41 1011.49C1225.75 1018.05 1244.12 1021.01 1261.33 1023.59C1301.45 1029.58 1342.73 1028.69 1382.78 1034.62C1399.09 1037.06 1420.38 1042.33 1401.76 1054.41C1380.03 1068.53 1348.41 1076.3 1322.38 1085.02C1309.38 1089.38 1296 1093.45 1283.66 1098.77C1274.18 1102.86 1266.07 1108.11 1256.38 1111.92Z" stroke="#0E152C" stroke-width="1.19861"/>
<path fill-rule="evenodd" clip-rule="evenodd" d="M1152.89 1105.17C1102.41 1122.72 1047.59 1135.48 993.756 1146.99C933.959 1159.75 872.718 1170.32 810.668 1174.82C767.823 1177.93 722.172 1178.85 680.588 1169.31C654.29 1163.28 636.461 1150.6 613.831 1139.96C579.678 1123.88 542.726 1111.13 501.694 1114.23C455.693 1117.7 409.541 1120.31 363.238 1122.04C335.309 1123.09 307.271 1123.88 279.307 1123.14C261.627 1122.69 238.849 1121.92 223.468 1116.03C202.888 1108.14 280.191 1048.13 289.827 1039.39C313.724 1017.7 331.243 994.937 341.479 968.063C349.826 946.133 332.773 928.895 315.181 912.491C304.243 902.304 268.903 876.682 279.968 863.454C286.037 856.159 306.037 856.537 316.779 856.164C337.251 855.458 357.81 856.194 378.282 856.517C408.511 857.014 440.689 853.6 470.662 856.348C537.088 862.43 603.346 867.698 670.183 871.867C707.027 874.163 744.094 876.25 780.608 880.678C793.716 882.268 807.256 883.952 819.677 887.55C827.668 889.861 832.024 893.797 838.767 897.027C870.918 912.402 912.887 920.313 949.097 930.167C997.236 943.266 1045.63 956.161 1092.49 971.636C1117.13 979.775 1151.56 989.128 1168.52 1005.74C1173.64 1010.76 1171.46 1014.77 1174.68 1019.6C1178.39 1025.17 1189.66 1026.82 1196.93 1028.38C1213.45 1031.9 1282.57 1037.23 1250.71 1057.89C1235.52 1067.74 1216.15 1074.05 1199.02 1081.79C1192.81 1084.59 1186.76 1087.41 1181.59 1091.19C1172.94 1097.53 1164.42 1101.15 1152.89 1105.17Z" stroke="#0E152C" stroke-width="1.19861"/>
<path fill-rule="evenodd" clip-rule="evenodd" d="M1042.63 1097.57C942.977 1125.97 826.19 1145.31 717.545 1141.57C681.415 1140.31 642.542 1136.14 611.224 1121.85C592.757 1113.41 578 1103.89 555.817 1100.84C539.803 1098.64 522.559 1101.14 506.451 1102.04C483.119 1103.35 459.774 1104.52 436.408 1105.47C407.441 1106.63 378.379 1107.52 349.358 1107.04C328.621 1106.7 299.985 1107.09 281.971 1098.9C260.464 1089.13 315.209 1043.3 322.912 1035.13C341.581 1015.34 354.669 996.16 359.399 972.306C360.791 965.356 365.48 958.232 364.872 951.227C364.237 944.074 358.244 937.704 352.71 932.08C345.473 924.708 320.364 907.223 327.554 898.233C331.527 893.268 346.439 892.643 354.169 891.59C368.67 889.605 383.38 888.537 397.968 886.959C422.719 884.268 447.294 875.506 472.132 875.754C538.925 876.409 606.683 891.64 672.138 900.005C711.051 904.994 750.228 909.522 788.668 916.278C800.831 918.418 813.358 920.632 824.919 924.261C832.987 926.793 838.17 931.305 845.643 934.14C874.299 945.027 907.253 951.634 938.024 958.962C977.971 968.493 1018.05 977.737 1057.72 987.884C1082.59 994.243 1114.56 999.838 1135.99 1011.63C1151.64 1020.25 1140.94 1022.82 1132.68 1030.85C1128.47 1034.94 1129.44 1038.97 1127.61 1043.6C1125 1050.21 1117.6 1054.97 1110.67 1059.25C1101.11 1065.16 1088.37 1070.03 1080.56 1077.28C1077.8 1079.83 1077.93 1083 1075.7 1085.22C1069.21 1091.7 1052 1094.9 1042.63 1097.57Z" stroke="#0E152C" stroke-width="1.19861"/>
<path fill-rule="evenodd" clip-rule="evenodd" d="M936.681 1087.45C855.803 1105.31 765.812 1115.47 680.32 1110.76C650.575 1109.11 620.648 1105.29 592.94 1096.91C580.333 1093.1 570.87 1088.86 557.057 1088.63C525.005 1088.11 492.852 1089.95 460.807 1090.39C437.874 1090.71 414.827 1090.82 391.948 1089.47C376.65 1088.56 355.964 1087.48 343.432 1080.58C325.22 1070.54 358.095 1036.38 364.786 1026.95C375.875 1011.3 386.876 993.905 382.478 975.799C381.129 970.261 378.741 965.37 378.431 959.724C378.134 954.872 378.964 950.392 376.623 945.754C373.73 940.003 360.86 931.079 365.285 925.786C368.3 922.17 377.244 922.002 383.193 920.845C392.842 918.968 402.263 916.507 411.36 913.485C420.937 910.287 429.092 905.346 439.014 902.704C455.121 898.423 473.15 898.021 490.08 898.04C557.63 898.12 626.037 907.918 691.874 918.163C726.159 923.496 760.632 929.182 793.952 937.272C804.069 939.73 815.536 942.198 824.432 946.737C829.983 949.563 833.747 953.104 840.053 955.229C893.925 973.375 956.208 980.114 1013.4 993.219C1028.28 996.631 1110.78 1013.87 1067.65 1030.08C1041.44 1039.93 1013.76 1044.41 989.845 1057.89C982.56 1061.99 977.704 1065.38 974.857 1071.63C972.982 1075.79 977.495 1073.68 971.195 1078.03C963.553 1083.26 946.104 1085.37 936.681 1087.45Z" stroke="#0E152C" stroke-width="1.19861"/>
<path fill-rule="evenodd" clip-rule="evenodd" d="M852.583 1076.9C757.893 1091.47 657.616 1092.16 561.431 1079.25C537.184 1075.99 511.949 1076.77 487.404 1075.94C463.555 1075.15 421.154 1076.8 403.833 1063.32C391.273 1053.54 404.901 1032.77 409.616 1021.84C415.622 1007.91 420.87 993.52 411.009 979.993C405.233 972.071 397.319 964.53 391.124 956.682C388.162 952.933 382.061 947.19 384.604 943.639C388.811 937.782 408.493 935.316 418.043 932.553C448.567 923.725 480.89 921.472 513.525 921.535C573.802 921.65 634.39 927.711 693.517 935.93C720.72 939.713 748.302 943.748 774.538 950.324C789.384 954.042 800.335 961.217 814.511 965.47C860.158 979.176 909.201 986.499 955.633 999.031C969.072 1002.66 1019.27 1014.74 993.983 1028.99C969.499 1042.78 933.787 1041.14 908.329 1054.11C905.447 1055.6 901.883 1057.37 900.212 1059.78C899.225 1061.21 900.963 1063.94 900.212 1064.76C892.394 1073.64 864.602 1075.05 852.583 1076.9Z" stroke="#0E152C" stroke-width="1.19861"/>
<path fill-rule="evenodd" clip-rule="evenodd" d="M791.236 1067.27C742.658 1072.17 693.011 1073.38 643.614 1073.69C616.613 1073.86 586.948 1075.12 560.529 1070.1C544.3 1067 528.625 1064.29 511.896 1062.34C493.895 1060.24 464.913 1058.71 453.952 1047.32C445.763 1038.82 451.375 1021.33 451.673 1010.98C451.991 999.636 448.826 991.223 437.932 983.103C431.083 977.99 399.659 959.43 403.291 954.079C406.746 948.981 428.641 948.199 438.108 946.875C468.03 942.673 498.351 941.21 528.787 941.439C575.926 941.787 623.24 945.322 669.641 951.395C688.825 953.919 708.651 956.533 726.977 961.576C739.317 964.976 749.609 971.005 761.869 974.52C796.977 984.601 834.101 991.447 869.331 1001.71C880.637 1005.01 917.477 1013.8 908.646 1027.34C901.282 1038.65 876.235 1042.09 863.928 1049.66C842.993 1062.59 817.933 1064.58 791.236 1067.27Z" stroke="#0E152C" stroke-width="1.19861"/>
<path fill-rule="evenodd" clip-rule="evenodd" d="M760.634 1060.77C722.098 1064.01 682.667 1065.43 643.565 1065.5C618.331 1065.55 591.708 1065.8 566.945 1061.63C554.506 1059.54 543.697 1054.64 531.925 1051.15C519.803 1047.56 503.074 1043.55 497.834 1035.32C492.911 1027.59 494.75 1016.3 490.426 1006.97C486.581 998.696 478.533 993.583 469.865 987.989C464.343 984.414 435.983 968.937 439.263 965.521C442.779 961.861 459.811 962.159 468.673 961.653C493.092 960.235 517.596 959.783 542.081 960.299C575.498 961.053 609.171 963.155 642.01 967.916C665.305 971.288 682.875 979.321 704.595 985.212C732.732 992.864 761.879 998.914 789.747 1007.28C803.634 1011.45 824.188 1016.82 831.3 1027.59C834.034 1031.71 836.688 1042.2 833.644 1046.33C829.987 1051.29 816.376 1053.39 809.951 1054.67C793.856 1057.85 777.012 1059.39 760.634 1060.77Z" stroke="#0E152C" stroke-width="1.19861"/>
</g>
</svg>
