<svg width="1440" height="510" viewBox="0 0 1440 510" fill="none" xmlns="http://www.w3.org/2000/svg">
<g opacity="0.26">
<path d="M1524.83 737.546C1465.35 774.485 1404.36 807.897 1342.26 837.585C1314.64 850.771 1286.14 863.424 1257.46 865.586C1184.18 871.155 1132.37 808.672 1098.98 745.052C1068.22 686.465 1044.67 622.826 1029.01 555.889C1013.48 489.551 1005.28 418.912 974.968 360.772C944.634 302.621 884.57 258.443 817.643 274.942C777.812 284.765 741.333 314.832 714.809 350.781C688.273 386.754 670.617 428.381 655.834 470.022C638.904 517.715 623.913 568.679 589.366 606.092C553.611 644.835 499.29 661.997 456.363 648.125C395.302 628.381 368.694 558.672 339.129 499.738C301.563 424.881 247.896 357.216 172.061 328.063C96.2597 298.895 -4.62757 316.334 -68.5414 387.116" stroke="white" stroke-width="0.513008" stroke-miterlimit="10"/>
<path d="M1526.23 716.673C1467.8 753.047 1407.75 785.696 1346.65 814.441C1319.49 827.207 1291.45 839.415 1263.28 841.569C1206.68 845.885 1162.7 809.928 1130.05 764.621C1121.15 752.298 1113.08 739.254 1105.82 726.163C1074.63 669.831 1050.45 608.361 1033.88 543.523C1017.47 479.271 1008.52 410.5 978.01 353.889C960.909 322.16 935.677 294.156 905.377 277.147C878.972 262.337 848.433 256.016 816.303 263.444C810.558 264.766 804.881 266.51 799.297 268.626C764.777 281.724 733.723 309.181 709.892 340.981C702.242 351.197 695.253 361.841 688.783 372.785C671.924 401.343 658.53 431.93 646.427 462.276C627.185 510.426 608.886 560.363 572.862 596.97C537.071 633.326 484.757 650.22 442.731 636.915C382.941 617.972 355.982 551.4 326.157 495.525C323.81 491.136 321.388 486.742 318.928 482.42C281.569 416.838 230.444 359.653 161.152 335.157C87.2528 309.033 -10.0946 327.754 -71.4877 397.427" stroke="#FEFEFE" stroke-width="0.513008" stroke-miterlimit="10"/>
<path d="M1527.63 695.757C1470.22 731.556 1411.16 763.436 1351.02 791.244C1324.3 803.613 1296.72 815.342 1269.04 817.487C1213.43 821.786 1169.84 787.504 1137.1 744.134C1128.15 732.333 1120.02 719.827 1112.65 707.254C1081.02 653.154 1056.18 593.866 1038.73 531.138C1021.45 468.972 1011.67 402.098 981.055 346.998C963.041 314.576 937.261 285.628 906.279 267.582C879.351 251.929 848.008 244.755 814.979 251.915C809.075 253.194 803.206 254.908 797.404 257.043C761.718 270.139 729.791 298.48 704.937 331.154C696.965 341.641 689.655 352.555 682.867 363.712C665.135 392.853 650.495 423.941 637.005 454.513C615.443 503.084 593.931 552.009 556.33 587.853C520.629 621.88 470.206 638.482 429.079 625.745C370.563 607.603 343.252 544.167 313.167 491.353C310.804 487.196 308.353 483.058 305.877 478.969C268.301 417.066 217.712 363.909 150.196 342.249C78.2339 319.153 -15.6064 339.172 -74.4782 407.735" stroke="#FEFEFE" stroke-width="0.513008" stroke-miterlimit="10"/>
<path d="M1529.02 674.839C1472.66 710.039 1414.56 741.165 1355.41 768.054C1329.12 779.993 1302.02 791.287 1274.83 793.389C1220.22 797.636 1177.01 765.064 1144.16 723.597C1135.18 712.285 1126.96 700.34 1119.47 688.285C1087.41 636.441 1061.91 579.336 1043.58 518.694C1025.43 458.613 1014.77 393.641 984.084 340.037C965.124 306.937 938.829 277.03 907.185 257.957C879.734 241.461 847.554 233.448 813.626 240.341C807.543 241.566 801.502 243.26 795.516 245.4C758.672 258.528 725.886 287.729 700.008 321.277C691.727 332.01 684.096 343.194 676.957 354.578C658.339 384.328 642.5 415.878 627.588 446.689C603.714 495.716 579.082 543.551 539.816 578.651C504.31 610.398 455.685 626.635 415.438 614.456C358.194 597.115 330.532 536.816 300.187 487.061C297.808 483.137 295.361 479.241 292.835 475.399C255.009 417.19 204.956 368.062 139.26 349.256C69.2337 329.189 -21.0786 350.516 -77.4291 417.968" stroke="#FDFDFD" stroke-width="0.513008" stroke-miterlimit="10"/>
<path d="M1530.42 653.92C1475.1 688.554 1417.94 718.916 1359.77 744.877C1333.92 756.42 1307.31 767.221 1280.6 769.338C1227 773.543 1184.15 742.671 1151.21 703.107C1142.18 692.318 1133.87 680.901 1126.3 669.373C1093.8 619.761 1067.64 564.838 1048.43 506.306C1029.43 448.321 1017.84 385.289 987.13 333.143C967.224 299.364 940.402 268.522 908.109 248.398C880.147 231.035 847.151 222.193 812.312 228.843C806.07 230.024 799.836 231.689 793.667 233.834C755.644 246.984 721.985 277.068 695.105 311.5C686.523 322.513 678.561 333.934 671.093 345.554C651.581 375.879 634.551 407.925 618.239 438.985C592.053 488.468 564.388 535.193 523.391 569.579C488.15 599.109 441.219 614.932 401.906 603.307C345.935 586.766 317.908 529.629 287.317 482.909C284.908 479.241 282.445 475.578 279.924 471.977C241.88 417.448 192.343 372.339 128.445 356.377C60.3547 339.339 -26.4507 361.963 -80.2801 428.305" stroke="#FDFDFD" stroke-width="0.513008" stroke-miterlimit="10"/>
<path d="M1531.8 633.028C1477.51 667.087 1421.32 696.672 1364.12 721.704C1338.72 732.826 1312.58 743.183 1286.36 745.257C1233.74 749.41 1191.29 720.248 1158.24 682.586C1149.18 672.32 1140.8 661.44 1133.12 650.407C1100.19 603.05 1073.4 550.296 1053.3 493.873C1033.42 437.998 1020.91 376.907 990.187 326.228C969.324 291.794 941.998 259.969 909.044 238.818C880.559 220.613 846.76 210.918 811 217.29C804.578 218.417 798.174 220.063 791.799 222.202C752.61 235.35 718.099 266.328 690.175 301.625C681.285 312.884 672.989 324.599 665.182 336.422C644.797 367.33 626.584 399.907 608.809 431.187C580.396 481.164 549.677 526.771 506.864 560.403C471.994 587.765 426.685 603.111 388.26 592.077C333.562 576.338 305.184 522.337 274.333 478.677C271.908 475.241 269.416 471.834 266.878 468.466C228.617 417.616 179.583 376.551 117.503 363.442C51.3288 349.423 -31.9403 373.388 -83.2571 438.586" stroke="#FCFCFC" stroke-width="0.513008" stroke-miterlimit="10"/>
<path d="M1533.22 612.122C1479.95 645.607 1424.73 674.437 1368.53 698.527C1343.59 709.229 1317.9 719.14 1292.16 721.196C1240.56 725.307 1198.47 697.845 1165.3 662.11C1156.18 652.357 1147.73 642.014 1139.94 631.499C1106.58 586.373 1079.13 535.802 1058.14 481.513C1037.39 427.724 1023.89 368.636 993.198 319.352C971.356 284.254 943.528 251.446 909.933 229.278C880.938 210.205 846.323 199.681 809.631 205.8C803.017 206.898 796.454 208.5 789.895 210.644C749.548 223.824 714.156 255.652 685.23 291.832C676.018 303.362 667.413 315.324 659.277 327.383C638.006 358.899 618.594 391.938 599.397 423.458C568.659 473.914 535.08 518.432 490.356 551.295C455.936 576.586 412.157 591.382 374.624 580.883C321.199 565.944 292.469 515.08 261.346 474.503C258.904 471.3 256.383 468.15 253.85 465.024C215.339 417.867 166.853 380.806 106.572 370.542C42.3209 359.575 -37.4289 384.814 -86.2247 448.902" stroke="#FBFBFB" stroke-width="0.513008" stroke-miterlimit="10"/>
<path d="M1534.61 591.206C1482.39 624.126 1428.12 652.168 1372.9 675.33C1348.37 685.625 1323.19 695.078 1297.93 697.115C1247.3 701.174 1205.58 675.412 1172.34 641.589C1163.18 632.359 1154.67 622.53 1146.76 612.556C1112.96 569.686 1084.84 521.297 1062.98 469.094C1041.35 417.39 1026.85 360.295 996.235 312.425C973.38 276.678 945.104 242.882 910.848 219.687C881.329 199.772 845.877 188.41 808.32 194.246C801.547 195.301 794.792 196.873 788.049 199.021C746.536 212.199 710.28 244.945 680.344 281.975C670.81 293.776 661.896 305.984 653.408 318.269C631.244 350.36 610.628 383.919 590.023 415.654C556.974 466.566 520.584 510.048 473.886 542.114C439.986 565.396 397.659 579.546 361.046 569.624C308.915 555.496 279.813 507.76 248.43 470.242C245.96 467.295 243.435 464.353 240.872 461.484C202.144 418.006 154.161 384.987 95.6986 377.578C33.3839 369.639 -42.8591 396.175 -89.113 459.163" stroke="#FBFBFB" stroke-width="0.513008" stroke-miterlimit="10"/>
<path d="M1536.01 570.291C1484.81 602.636 1431.5 629.924 1377.28 652.168C1353.2 662.043 1328.48 671.05 1303.73 673.054C1254.09 677.062 1212.83 652.922 1179.43 621.099C1170.25 612.367 1161.64 603.089 1153.61 593.634C1119.38 552.995 1090.61 506.788 1067.86 456.695C1045.36 407.077 1029.81 352.014 999.292 305.51C975.446 269.122 946.689 234.354 911.783 210.108C881.753 189.325 845.486 177.134 806.997 182.718C800.044 183.718 793.104 185.295 786.17 187.414C743.499 200.624 706.362 234.22 675.402 272.124C665.56 284.17 656.324 296.649 647.507 309.171C624.457 341.87 602.642 375.892 580.636 407.875C545.276 459.243 506.158 501.727 457.39 532.982C424.083 554.319 383.144 567.793 347.431 558.439C296.573 545.112 267.119 500.512 235.477 466.053C232.99 463.339 230.457 460.663 227.878 458.026C188.933 418.226 141.486 389.237 84.8004 384.661C24.4218 379.751 -48.2937 407.595 -92.0476 469.462" stroke="#FAFAFA" stroke-width="0.513007" stroke-miterlimit="10"/>
<path d="M1537.39 549.4C1487.22 581.17 1434.91 607.689 1381.64 628.995C1358 638.474 1333.75 647.013 1309.48 648.998C1260.85 652.963 1219.95 630.523 1186.45 600.602C1177.24 592.394 1168.56 583.653 1160.42 574.715C1125.75 536.332 1096.34 492.294 1072.69 444.3C1049.31 396.791 1032.7 343.761 1002.32 298.608C977.425 261.585 948.253 225.814 912.666 200.532C882.113 178.906 845.042 165.862 805.633 171.169C798.521 172.126 791.369 173.663 784.271 175.796C740.422 189.029 702.433 223.518 670.463 262.272C660.32 274.599 650.742 287.337 641.586 300.062C617.663 333.345 594.623 367.877 571.209 400.076C533.537 451.899 491.752 493.474 440.868 523.805C408.211 543.284 368.593 555.962 333.781 547.176C284.195 534.649 254.356 493.2 222.487 461.786C219.984 459.304 217.422 456.884 214.827 454.48C175.644 418.349 128.721 393.412 73.8538 391.69C15.3903 389.798 -53.7978 418.949 -95.0309 479.706" stroke="#F9F9F9" stroke-width="0.513008" stroke-miterlimit="10"/>
<path d="M1538.79 528.486C1489.66 559.69 1438.29 585.447 1386 605.8C1362.79 614.849 1339.04 622.952 1315.25 624.895C1267.6 628.833 1227.11 608.054 1193.49 580.084C1184.25 572.373 1175.46 564.185 1167.21 555.765C1132.11 519.612 1102.04 477.756 1077.51 431.873C1053.28 386.459 1035.55 335.489 1005.31 291.663C979.382 254.039 949.787 217.232 913.538 190.923C882.474 168.431 844.575 154.582 804.268 159.621C796.976 160.524 789.652 162.042 782.37 164.18C737.355 177.41 698.495 212.784 665.509 252.445C655.057 265.018 645.158 278.027 635.651 290.979C610.821 324.859 586.583 359.854 561.769 392.302C521.764 444.571 477.39 485.333 424.331 514.653C392.342 532.342 354.036 544.189 320.137 535.947C271.824 524.221 241.633 485.908 209.526 457.563C206.994 455.337 204.428 453.126 201.825 450.987C162.412 418.56 116.017 397.617 62.9476 398.739C6.40757 399.9 -59.2407 430.333 -97.9531 489.98" stroke="#F9F9F9" stroke-width="0.513008" stroke-miterlimit="10"/>
<path d="M1540.2 507.581C1492.1 538.211 1441.7 563.189 1390.4 582.648C1367.64 591.276 1344.36 598.911 1321.06 600.869C1274.42 604.765 1234.29 585.686 1200.57 559.618C1191.27 552.421 1182.41 544.769 1174.08 536.853C1138.55 502.955 1107.81 463.282 1082.42 419.517C1057.32 376.189 1038.47 327.338 1008.42 284.8C981.417 246.59 951.399 208.747 914.522 181.396C882.935 158.061 844.212 143.35 802.993 148.145C795.522 148.995 788.027 150.493 780.528 152.65C734.355 165.912 694.634 202.145 660.605 242.671C649.832 255.514 639.623 268.77 629.786 281.958C604.084 316.423 578.621 351.928 552.398 384.591C510.083 437.315 463.124 477.356 407.886 505.574C376.602 521.551 339.572 532.49 306.572 524.815C259.532 513.89 228.99 478.713 196.623 453.427C194.074 451.434 191.479 449.479 188.86 447.573C149.23 418.824 103.338 401.923 52.0868 405.899C-2.5173 410.088 -64.6591 441.819 -100.851 500.356" stroke="#F8F8F8" stroke-width="0.513008" stroke-miterlimit="10"/>
<path d="M1541.6 486.669C1494.54 516.734 1445.09 540.924 1394.77 559.455C1372.45 567.687 1349.64 574.853 1326.82 576.792C1281.16 580.636 1241.41 563.257 1207.6 539.101C1198.27 532.426 1189.34 525.312 1180.88 517.904C1144.91 486.237 1113.52 448.746 1087.24 407.091C1061.26 365.848 1041.29 319.082 1011.43 277.867C983.329 239.083 952.955 200.176 915.417 171.799C883.319 147.597 843.78 132.057 801.662 136.584C794.032 137.39 786.344 138.859 778.662 141.02C731.31 154.305 690.718 191.422 655.699 232.807C644.616 245.896 634.073 259.446 623.898 272.837C597.323 307.885 570.599 343.824 543.026 376.789C498.307 429.896 448.911 469.434 391.419 496.395C360.89 510.712 325.076 520.656 292.976 513.549C247.209 503.425 216.315 471.384 183.688 449.157C181.123 447.396 178.5 445.698 175.885 444.033C136.038 418.963 90.6606 406.081 41.2074 412.9C-11.4609 420.117 -70.0756 453.155 -103.768 510.572" stroke="#F8F8F8" stroke-width="0.513008" stroke-miterlimit="10"/>
<path d="M1542.98 465.781C1496.94 495.271 1448.46 518.708 1399.14 536.296C1377.25 544.098 1354.93 550.829 1332.6 552.725C1287.95 556.527 1248.56 540.847 1214.64 518.618C1205.27 512.466 1196.26 505.855 1187.7 498.998C1151.3 469.563 1119.25 434.255 1092.08 394.709C1065.24 355.551 1044.11 310.918 1014.46 270.966C985.268 231.621 954.517 191.639 916.318 162.234C883.697 137.19 843.355 120.797 800.305 125.072C792.495 125.824 784.636 127.273 776.769 129.439C728.252 142.721 686.808 180.732 650.766 222.991C639.383 236.361 628.51 250.147 618.005 263.774C590.545 299.431 562.608 335.856 533.627 369.036C486.576 422.589 434.705 461.697 374.925 487.264C345.135 500.005 310.561 508.905 279.374 502.341C234.88 493.018 203.635 464.114 170.749 444.945C168.154 443.44 165.527 441.95 162.883 440.542C122.786 419.165 77.9446 410.31 30.289 419.974C-20.4644 430.208 -75.5521 464.553 -106.703 520.87" stroke="#F7F7F7" stroke-width="0.513008" stroke-miterlimit="10"/>
<path d="M1544.37 444.87C1499.36 473.785 1451.85 496.444 1403.51 513.104C1382.06 520.51 1360.21 526.772 1338.38 528.659C1294.72 532.41 1255.72 518.439 1221.71 498.122C1212.28 492.483 1203.23 486.419 1194.55 480.08C1157.72 452.9 1125.03 419.759 1096.96 382.312C1069.23 345.264 1046.93 302.754 1017.53 264.062C987.216 224.193 956.12 183.122 917.272 152.667C884.149 126.789 842.97 109.558 799.013 113.531C791.032 114.264 782.994 115.659 774.922 117.82C725.247 131.134 682.91 170.019 645.858 213.128C634.166 226.743 622.971 240.8 612.116 254.654C583.761 290.884 554.613 327.796 524.232 361.225C474.87 415.233 420.512 454.085 358.435 478.076C329.4 489.307 296.064 497.072 265.756 491.066C222.534 482.544 190.924 456.799 157.791 440.665C155.181 439.393 152.545 438.169 149.885 436.994C109.571 419.294 65.2656 414.467 19.4074 426.974C-29.4102 440.237 -80.9917 475.879 -109.622 531.086" stroke="#F6F6F6" stroke-width="0.513008" stroke-miterlimit="10"/>
<path d="M1545.76 423.96C1501.81 452.287 1455.23 474.206 1407.86 489.938C1386.86 496.923 1365.48 502.741 1344.12 504.61C1301.47 508.318 1262.8 496.062 1228.73 477.632C1219.26 472.516 1210.12 466.979 1201.32 461.158C1164.06 436.209 1130.71 405.274 1101.77 369.913C1073.19 334.959 1049.69 294.597 1020.51 257.145C989.044 216.742 957.639 174.567 918.13 143.086C884.496 116.342 842.481 98.2725 797.634 102.011C789.473 102.691 781.263 104.067 773.007 106.232C722.167 119.544 678.978 159.322 640.891 203.329C628.877 217.215 617.374 231.518 606.188 245.608C576.949 282.446 546.589 319.844 514.799 353.489C463.127 407.952 406.302 446.708 341.895 468.986C313.579 478.781 281.483 485.352 252.096 479.924C210.147 472.202 178.186 449.594 144.793 436.518C142.167 435.478 139.502 434.511 136.825 433.567C96.2942 419.546 52.4917 418.761 8.43109 434.112C-38.4632 450.426 -86.5054 487.351 -112.636 541.438" stroke="#F6F6F6" stroke-width="0.513008" stroke-miterlimit="10"/>
<path d="M1547.17 403.066C1504.24 430.817 1458.66 451.968 1412.26 466.773C1391.69 473.327 1370.8 478.71 1349.93 480.536C1308.26 484.193 1269.98 473.645 1235.81 457.118C1226.3 452.525 1217.09 447.525 1208.19 442.222C1170.48 419.528 1136.48 390.751 1106.68 357.509C1077.23 324.64 1052.53 286.45 1023.62 250.233C990.976 209.345 959.285 166.019 919.094 133.502C884.938 105.915 842.119 86.9929 796.353 90.4543C788.013 91.0801 779.631 92.4367 771.192 94.6062C719.194 107.95 675.125 148.578 636.036 193.468C623.701 207.624 611.876 222.197 600.352 236.49C570.24 273.912 538.669 311.796 505.459 345.68C451.488 400.574 392.168 439.49 325.461 459.799C297.892 468.201 267.042 473.52 238.555 468.66C197.899 461.749 165.566 442.267 131.914 432.249C129.258 431.466 126.577 430.731 123.905 430.03C83.1364 419.677 39.8703 422.92 -2.37166 441.123C-47.3301 460.465 -91.8662 498.687 -115.476 551.664" stroke="#F5F5F5" stroke-width="0.513008" stroke-miterlimit="10"/>
<path d="M1548.54 382.188C1506.64 409.365 1462.02 429.762 1416.61 443.614C1396.48 449.773 1376.06 454.687 1355.67 456.494C1314.99 460.099 1277.08 451.285 1242.81 436.659C1233.27 432.589 1223.96 428.117 1214.96 423.307C1176.83 402.844 1142.16 376.249 1111.46 345.141C1081.14 314.357 1055.23 278.363 1026.59 243.381C992.758 202.032 960.762 157.545 919.943 123.987C885.276 95.5337 841.643 75.7828 794.945 78.9911C786.445 79.5731 777.872 80.9003 769.228 83.0646C716.052 96.4307 671.132 137.952 631.011 183.681C618.388 198.093 606.221 212.927 594.368 227.456C563.349 265.476 530.579 303.822 495.99 337.965C439.688 393.304 377.87 432.588 308.92 450.715C282.04 457.788 252.481 461.816 224.886 457.49C185.503 451.379 152.818 435.033 118.907 428.074C116.235 427.523 113.537 427.02 110.836 426.576C69.8383 419.925 27.0874 427.185 -13.357 448.232C-56.4005 470.592 -97.3888 510.13 -118.479 561.997" stroke="#F4F4F4" stroke-width="0.513008" stroke-miterlimit="10"/>
<path d="M1549.93 361.285C1509.07 387.897 1465.4 407.506 1420.97 420.464C1401.3 426.202 1381.35 430.648 1361.46 432.446C1321.78 436.033 1284.21 428.966 1249.87 416.17C1240.26 412.637 1230.9 408.678 1221.8 404.396C1183.23 386.187 1147.94 361.76 1116.34 332.751C1085.13 304.077 1058 270.279 1029.64 236.474C994.589 194.678 962.353 149.001 920.874 114.416C885.684 85.1208 841.235 64.5415 793.638 67.4821C784.959 68.0106 776.193 69.3084 767.386 71.4869C713.045 84.851 667.253 127.256 626.131 173.869C613.186 188.551 600.711 203.63 588.506 218.386C556.615 256.99 522.622 295.846 486.624 330.204C428.012 385.999 363.645 425.896 292.461 441.576C266.257 447.343 237.993 450.023 211.306 446.299C173.196 440.988 140.16 427.778 105.989 423.877C103.301 423.558 100.575 423.312 97.8443 423.124C56.6298 420.151 14.3941 431.429 -24.2319 455.329C-65.3397 480.716 -102.822 521.551 -121.392 572.308" stroke="#F4F4F4" stroke-width="0.513008" stroke-miterlimit="10"/>
<path d="M1551.32 340.385C1511.48 366.421 1468.78 385.277 1425.33 397.283C1406.07 402.615 1386.63 406.602 1367.21 408.381C1328.52 411.916 1291.34 406.559 1256.9 395.665C1247.25 392.654 1237.83 389.208 1228.59 385.458C1189.59 369.48 1153.62 347.259 1121.15 320.335C1089.07 293.746 1060.72 262.168 1032.65 229.55C996.351 187.356 963.901 140.44 921.761 104.829C886.06 74.6672 840.796 53.2594 792.28 55.9227C783.442 56.4073 774.472 57.6998 765.494 59.8587C709.995 73.2546 663.331 116.543 621.199 164.005C607.946 178.933 595.136 194.307 582.614 209.275C549.851 248.462 514.646 287.805 477.228 322.401C416.304 378.652 349.318 419.401 275.972 432.397C250.407 436.93 223.483 438.223 197.709 435.042C160.884 430.508 127.451 420.472 93.0541 419.615C90.3365 419.553 87.6147 419.549 84.8679 419.593C43.4157 420.288 1.70381 435.617 -35.1248 462.36C-74.2969 490.774 -108.253 532.915 -124.323 582.552" stroke="#F3F3F3" stroke-width="0.513008" stroke-miterlimit="10"/>
<path d="M1552.69 319.506C1513.9 344.978 1472.15 363.046 1429.68 374.124C1410.87 379.036 1391.89 382.578 1372.95 384.339C1335.26 387.832 1298.43 384.164 1263.93 375.191C1254.24 372.703 1244.73 369.785 1235.4 366.562C1195.96 352.838 1159.34 332.775 1125.99 307.96C1093.04 283.456 1063.43 254.112 1035.66 222.657C998.076 180.104 965.458 131.911 922.657 95.2732C886.433 64.269 840.345 41.9989 790.939 44.4284C781.922 44.8596 772.78 46.1325 763.585 48.3103C706.921 61.7041 659.385 105.876 616.23 154.211C602.655 169.41 589.537 185.03 576.664 200.225C542.995 240.01 506.612 279.824 467.774 314.66C404.519 371.355 334.83 413.218 259.424 423.277C234.431 426.606 208.929 426.46 184.033 423.837C148.48 420.103 114.696 413.203 80.04 415.404C77.306 415.574 74.5678 415.802 71.7921 416.102C30.1231 420.475 -11.0527 439.831 -46.0839 469.417C-83.333 500.882 -113.771 544.297 -127.3 592.833" stroke="#F3F3F3" stroke-width="0.513008" stroke-miterlimit="10"/>
<path d="M1554.1 298.616C1466.33 356.463 1362.32 373.33 1270.99 354.706C1179.67 336.082 1100.6 284.014 1038.73 215.761C999.841 172.873 967.056 123.403 923.606 85.7147C880.156 48.0264 822.463 22.6173 761.754 36.711C685.748 54.3474 626.069 126.586 570.801 191.157C479.951 297.353 367.846 403.065 242.985 414.15C180.799 419.672 121.207 400.638 58.8532 412.648C-27.5934 429.305 -108.809 511.126 -130.195 603.154" stroke="#F2F2F2" stroke-width="0.513008" stroke-miterlimit="10"/>
</g>
</svg>
