<svg width="57" height="57" viewBox="0 0 57 57" fill="none" xmlns="http://www.w3.org/2000/svg">
<rect x="0.629944" y="0.819336" width="56.0539" height="55.3616" rx="14.837" fill="white"/>
<path d="M15.7864 12.2761C15.3894 12.4543 15.0764 12.7788 14.9128 13.1821C14.8138 13.4568 14.8138 13.8032 14.8138 20.2579V27.0419L14.9401 27.3115C15.0027 27.4857 15.0991 27.6458 15.2239 27.7825C15.3486 27.9193 15.4992 28.03 15.667 28.1083C15.8999 28.2428 16.1685 28.3023 16.4365 28.2789H16.8613L16.8835 29.0859C16.9006 29.7838 16.921 29.9391 17.02 30.125C17.3613 30.7785 18.1529 31.0686 18.7672 30.7615C18.861 30.7171 19.8012 30.1404 20.8659 29.4767L22.8007 28.2823L23.4832 28.2977L24.1657 28.3147L24.193 33.9726C24.2203 39.3353 24.2254 39.6424 24.3244 39.8625C24.531 40.2253 24.8411 40.5181 25.2151 40.7037C25.3959 40.7685 26.4333 40.7856 31.8011 40.8129L38.1739 40.8402L40.1412 42.0653C41.2179 42.7478 42.1887 43.3177 42.2825 43.345C42.5789 43.4219 42.8927 43.3953 43.1719 43.2696C43.4512 43.144 43.6791 42.9268 43.8182 42.6539C43.9222 42.4611 43.9393 42.3229 43.9564 41.62L43.9768 40.8129H44.2635C44.6625 40.8111 45.0535 40.7008 45.3947 40.4938C45.6858 40.2696 45.8974 39.9581 45.9987 39.6049C46.038 39.4343 46.0533 37.3134 46.0431 32.5718L46.026 25.7878L45.9066 25.5626C45.7632 25.2575 45.5233 25.008 45.2241 24.8528L44.9323 24.6821L40.8135 24.6548L36.6929 24.6275L36.6537 18.9389C36.6315 14.8184 36.6093 13.2145 36.5598 13.1156C36.4109 12.7828 36.1492 12.5133 35.821 12.3546L35.4798 12.184H25.7542C17.1872 12.184 15.9946 12.1976 15.7864 12.2761ZM35.2375 13.2265C35.6385 13.3408 35.6112 12.9074 35.6112 19.0874V24.6531L30.4634 24.6634L25.3106 24.6804L25.0854 24.8016C24.7803 24.945 24.5309 25.1848 24.3756 25.4841C24.222 25.7588 24.205 25.8253 24.1947 26.5078L24.1726 27.233L23.3194 27.2483L22.4663 27.2654L20.4103 28.5519C19.2791 29.26 18.3116 29.8469 18.269 29.8589C18.2256 29.8596 18.1826 29.851 18.1428 29.8336C18.1031 29.8163 18.0675 29.7905 18.0386 29.7582C17.9226 29.649 17.9175 29.6098 17.9175 28.627C17.9175 28.0008 17.8953 27.5657 17.8578 27.4957C17.7537 27.3029 17.4722 27.2313 16.8187 27.2313C16.5774 27.239 16.336 27.2207 16.0986 27.1767C15.8188 27.0231 15.8308 27.3029 15.8308 20.2152C15.8308 13.7776 15.8308 13.6291 15.94 13.4585C16.0047 13.3504 16.1057 13.2688 16.2249 13.2282C16.4842 13.1599 34.9645 13.1548 35.2341 13.2265H35.2375ZM44.8197 25.8339L44.975 25.9652L44.9903 32.6349C45.0023 37.6785 44.9903 39.337 44.9357 39.4599C44.8368 39.7021 44.6064 39.767 43.8762 39.767C43.2432 39.767 43.2329 39.767 43.0742 39.9274L42.9139 40.086V41.1098C42.9139 41.9885 42.9036 42.154 42.82 42.241C42.7737 42.2948 42.7094 42.33 42.6391 42.34C42.5897 42.34 41.7707 41.8571 40.8203 41.2633C39.8699 40.6696 38.9315 40.0878 38.7336 39.9734L38.377 39.7584H32.0468C27.684 39.7584 25.674 39.7414 25.5631 39.6987C25.2014 39.5725 25.2219 40.0724 25.2219 32.7032V26.0147L25.3823 25.856L25.541 25.6974H44.673L44.8197 25.8339Z" fill="black"/>
<path d="M19.0437 17.9937C18.7742 18.1199 18.6547 18.2581 18.4397 18.654C18.2811 18.9611 18.2691 18.9662 17.9842 19.0055C17.4177 19.0874 17.0611 19.3791 16.9297 19.8586C16.8188 20.2817 16.9502 20.6605 17.3733 21.1059C17.5337 21.2765 17.5337 21.2765 17.4996 21.7372C17.4672 22.145 17.4791 22.232 17.5781 22.4197C17.8954 23.0458 18.5285 23.2267 19.1768 22.8923L19.4788 22.737L19.8081 22.8923C20.4121 23.1772 21.0025 23.0629 21.296 22.6176C21.3991 22.4834 21.4697 22.3271 21.5022 22.161C21.5348 21.995 21.5284 21.8236 21.4837 21.6604L21.4222 21.2867L21.6816 21.012C22.0877 20.5735 22.1935 20.1589 22.0058 19.7102C21.9281 19.5112 21.7944 19.3391 21.6209 19.2146C21.4473 19.0902 21.2414 19.0187 21.0281 19.0089L20.7193 18.9714L20.5162 18.5994C20.2637 18.1148 20.0214 17.9391 19.5778 17.9169C19.3961 17.8943 19.2117 17.9208 19.0437 17.9937ZM19.7416 19.3587C19.8142 19.5444 19.9207 19.7151 20.0555 19.862C20.2195 19.9286 20.3917 19.9728 20.5674 19.9934C20.7223 20.0073 20.8742 20.0447 21.0179 20.1043C21.0503 20.1316 20.9411 20.2903 20.738 20.4933C20.5962 20.6332 20.4724 20.7902 20.3695 20.9608C20.3564 21.1528 20.3731 21.3456 20.419 21.5324C20.4572 21.6905 20.4756 21.8527 20.4736 22.0153C20.3185 21.9794 20.1691 21.922 20.0299 21.8447C19.8613 21.7545 19.6818 21.6863 19.4959 21.6416C19.3125 21.6826 19.1353 21.7475 18.9687 21.8344C18.8348 21.9152 18.6883 21.9729 18.5353 22.005C18.5269 21.8686 18.5395 21.7316 18.5728 21.599C18.6718 20.9779 18.6718 20.9677 18.2708 20.5445C18.0729 20.3295 17.9296 20.1435 17.9466 20.1214C18.0906 20.0697 18.24 20.0348 18.392 20.0173C18.5774 19.9945 18.7588 19.9463 18.9311 19.874C19.0691 19.7191 19.1798 19.542 19.2587 19.3501C19.3164 19.199 19.3976 19.0579 19.4993 18.9321C19.6006 19.0647 19.6822 19.2113 19.7416 19.3672V19.3587Z" fill="black"/>
<path d="M25.3343 17.9562C25.0417 18.1195 24.8086 18.3717 24.6689 18.6763C24.5324 18.951 24.488 18.9936 24.3566 18.9936C24.1986 18.9902 24.0415 19.0182 23.8944 19.076C23.7474 19.1337 23.6132 19.2201 23.4997 19.3301C23.3862 19.4401 23.2957 19.5715 23.2334 19.7167C23.1711 19.8619 23.1382 20.018 23.1367 20.1761C23.1367 20.4115 23.367 20.8585 23.5973 21.0769L23.7953 21.2629L23.7577 21.7458C23.7304 22.1689 23.7407 22.2577 23.8516 22.4829C24.1263 23.0494 24.8071 23.2302 25.4435 22.9009L25.7455 22.7405L26.0594 22.9009C26.614 23.1807 27.1088 23.104 27.4876 22.6859C27.7298 22.4232 27.7793 22.2031 27.7298 21.6622C27.6957 21.2732 27.6957 21.2663 27.8663 21.1077C28.4431 20.5582 28.4977 19.8433 28.0046 19.3502C27.7725 19.1182 27.5916 19.0482 27.0644 18.9817C26.9928 18.9697 26.8938 18.8503 26.7846 18.6404C26.5918 18.2668 26.2898 17.9767 26.0373 17.9272C25.8041 17.8795 25.5628 17.8895 25.3343 17.9562ZM25.9929 19.3844C26.2454 19.8843 26.3341 19.944 26.916 20.0105C27.0461 20.0129 27.1739 20.045 27.2896 20.1044C27.3118 20.1368 27.1753 20.3126 26.9928 20.5002C26.8491 20.6336 26.7255 20.787 26.6259 20.9558C26.6123 21.1447 26.6232 21.3345 26.6583 21.5206C26.6912 21.6781 26.7004 21.8397 26.6856 22C26.538 21.9711 26.3977 21.9131 26.2727 21.8294C26.1136 21.7357 25.9409 21.6672 25.7609 21.6264C25.5734 21.6633 25.393 21.7301 25.2268 21.8243C25.0959 21.9037 24.953 21.9614 24.8037 21.9949C24.7962 21.8295 24.8094 21.6639 24.8429 21.5018C24.9248 20.9524 24.9146 20.9183 24.4795 20.4678C24.3088 20.2972 24.1894 20.1385 24.2116 20.1061C24.3283 20.0499 24.4557 20.0196 24.5853 20.0174C25.162 19.9525 25.2541 19.886 25.5066 19.3861C25.5746 19.23 25.6574 19.0809 25.754 18.9407C25.8483 19.0802 25.9283 19.2289 25.9929 19.3844Z" fill="black"/>
<path d="M31.4974 18.0109C31.2449 18.1372 31.1408 18.2635 30.9207 18.6934C30.7791 18.975 30.7791 18.975 30.4703 19.0125C30.3318 19.0152 30.1954 19.0466 30.0697 19.1047C29.944 19.1629 29.8317 19.2465 29.74 19.3503C29.6296 19.449 29.542 19.5704 29.4831 19.7062C29.4242 19.842 29.3954 19.9889 29.3988 20.1369C29.4019 20.3077 29.4405 20.476 29.5122 20.6311C29.5839 20.7862 29.687 20.9247 29.8151 21.0378L30.0625 21.2903L30.0028 21.6469C29.81 22.7304 30.7006 23.3941 31.6783 22.9061L31.9957 22.7355L32.3147 22.9061C32.859 23.1808 33.3811 23.104 33.7326 22.7014C33.9749 22.4284 34.0448 22.1468 33.98 21.6776L33.9254 21.2886L34.1882 20.9917C34.5072 20.6505 34.5618 20.5191 34.5618 20.1386C34.5618 19.55 34.1506 19.1149 33.5176 19.0227C33.2224 18.9784 33.2156 18.9732 33.0348 18.6491C32.7993 18.2208 32.7106 18.1372 32.4478 18.0126C32.2991 17.9431 32.137 17.9069 31.9728 17.9066C31.8086 17.9063 31.6464 17.9419 31.4974 18.0109ZM32.2175 19.335C32.2952 19.5134 32.3949 19.6813 32.5144 19.8349C32.6869 19.924 32.8754 19.9779 33.0689 19.9936C33.3931 20.0379 33.5193 20.0772 33.5193 20.1318C33.4343 20.2904 33.3229 20.4335 33.19 20.5549C32.8215 20.9388 32.801 21.0207 32.9204 21.6537C32.9538 21.7678 32.9614 21.8879 32.9426 22.0052C32.792 21.9704 32.6476 21.9129 32.5144 21.8346C32.3532 21.7451 32.1812 21.6768 32.0025 21.6316C31.8142 21.6726 31.6318 21.7373 31.4599 21.8244C31.3198 21.8971 31.1722 21.9543 31.0197 21.995C31.0266 21.836 31.0472 21.6779 31.0811 21.5224C31.1732 20.973 31.1511 20.9013 30.7399 20.4662C30.559 20.2751 30.4481 20.125 30.4822 20.0942C30.6283 20.0377 30.7817 20.0021 30.9378 19.9885C31.4258 19.9185 31.5367 19.8298 31.7773 19.306C31.8289 19.1709 31.9014 19.0448 31.9922 18.9323C32.0903 19.0523 32.1665 19.1886 32.2175 19.335Z" fill="black"/>
<path d="M32.1579 27.2894C32.0297 27.3243 31.9089 27.3821 31.8013 27.46C31.7023 27.5317 30.6956 28.5315 29.5695 29.6781C28.2233 31.0431 27.4828 31.8416 27.4162 31.985C27.3512 32.1332 27.3177 32.2932 27.3177 32.455C27.3177 32.6168 27.3512 32.7769 27.4162 32.9251C27.5647 33.2493 31.5641 37.3204 31.9378 37.5166C32.0741 37.605 32.2316 37.6553 32.3939 37.6622C32.5563 37.6691 32.7175 37.6323 32.8608 37.5558C33.4205 37.3033 33.487 37.1549 33.5194 36.0202L33.5467 35.1125L34.2616 35.1244C35.5507 35.177 36.8264 35.4067 38.0529 35.8069C39.2095 36.1792 40.3204 36.6805 41.3647 37.3016C41.9534 37.6428 42.0626 37.6855 42.2332 37.6582C42.4177 37.6319 42.5871 37.5417 42.7119 37.4032C42.8366 37.2648 42.9087 37.0869 42.9157 36.9006C42.9157 36.4229 41.5507 34.5767 40.4007 33.4882C38.6675 31.8682 36.5592 30.7039 34.2651 30.0996C34.0341 30.046 33.8063 29.98 33.5826 29.9017C33.5484 29.8795 33.5263 29.5331 33.5263 28.9888C33.5263 28.0333 33.4938 27.8746 33.2191 27.6051C33.085 27.4646 32.9165 27.3617 32.7304 27.3063C32.5443 27.251 32.3469 27.2451 32.1579 27.2894ZM32.5315 29.5075C32.5588 30.6285 32.5588 30.6507 32.6902 30.7548C32.7632 30.8144 32.8473 30.8591 32.9376 30.8862C32.9973 30.8981 33.3505 30.9749 33.7122 31.0568C36.2861 31.657 38.6139 33.032 40.3819 34.9965C40.6344 35.2865 40.9143 35.6278 41.0081 35.754L41.1787 35.9793L40.9091 35.8411C39.2344 35.0215 37.4445 34.4622 35.601 34.1826C34.7394 34.0563 33.1679 33.9796 32.9154 34.0461C32.552 34.1451 32.5366 34.2167 32.5366 35.4196C32.5486 35.8049 32.5304 36.1906 32.482 36.573C32.4377 36.6379 32.0145 36.2318 30.4107 34.6006C29.2948 33.4677 28.3837 32.5122 28.3717 32.4747C28.3495 32.3808 32.3217 28.3319 32.4257 28.349C32.4923 28.3609 32.5093 28.5486 32.5315 29.5092V29.5075Z" fill="black"/>
</svg>
