<svg width="57" height="57" viewBox="0 0 57 57" fill="none" xmlns="http://www.w3.org/2000/svg">
<rect x="0.629944" y="0.819092" width="56.0539" height="55.3616" rx="14.837" fill="white"/>
<path d="M28.6703 12.2521C28.1173 12.4299 27.6508 12.8081 27.3625 13.3124C27.2803 13.4578 27.1857 13.5958 27.0799 13.725C26.9022 13.8102 26.7075 13.8539 26.5105 13.8528C26.2102 13.8695 25.9165 13.9473 25.6473 14.0813C25.3781 14.2154 25.1391 14.403 24.9449 14.6326C24.7212 14.9054 24.5562 15.2214 24.4601 15.5609L24.4003 15.8043L21.9249 15.829L19.4495 15.8558L19.0535 16.0436C18.5718 16.2795 18.1727 16.6555 17.9086 17.1224C17.6343 17.7 17.6508 16.9347 17.6508 29.623V41.4264L17.756 41.74C17.8626 42.0588 18.0345 42.3519 18.2607 42.6005C18.487 42.8491 18.7626 43.0478 19.07 43.1839L19.4495 43.3655L29.1447 43.382C39.8074 43.3964 39.137 43.4108 39.696 43.087C40.2065 42.7966 40.5937 42.3302 40.7852 41.775L40.9069 41.4409V38.5117C40.9069 36.9047 40.9275 35.5866 40.9461 35.5866C41.2179 35.8191 41.4768 36.0664 41.7217 36.3271C42.5324 37.1523 42.7758 37.3111 43.211 37.3111C43.5026 37.2983 43.783 37.1952 44.0135 37.0161C44.0919 36.9357 44.1567 36.8431 44.2053 36.7418C44.2961 36.5644 44.3023 36.4076 44.3023 34.1488C44.3023 32.4759 44.3167 31.7312 44.358 31.7065C44.5741 31.4475 44.745 31.1539 44.8633 30.838C44.9562 30.6008 45.0696 30.4646 45.4409 30.0892C45.9381 29.6065 46.1217 29.3177 46.2516 28.8123C46.3547 28.4266 46.3486 28.1481 46.2269 27.5747C46.1299 27.2651 46.1299 26.9333 46.2269 26.6237C46.3486 26.0544 46.3547 25.8378 46.2516 25.4108C46.1299 24.8951 45.9484 24.6063 45.4409 24.1091C45.0676 23.7399 44.9562 23.5976 44.8592 23.35C44.525 22.4919 43.9475 21.97 43.1265 21.7782C42.953 21.7371 42.7763 21.7115 42.5984 21.7018C42.271 21.6834 41.9559 21.5709 41.6907 21.378C41.5313 21.2804 41.3619 21.2001 41.1853 21.1387C41.0967 21.1222 41.0141 21.0823 40.9461 21.0232C40.9275 20.9922 40.911 20.2579 40.911 19.3853C40.911 17.9166 40.911 17.7804 40.7996 17.4855C40.6159 16.924 40.2338 16.4487 39.7249 16.1488C39.2133 15.8496 39.3123 15.86 36.6307 15.829L34.1553 15.8043L34.0687 15.4948C33.9343 14.9877 33.6187 14.5474 33.1817 14.2572C32.8628 14.0131 32.4771 13.872 32.076 13.8528C31.5685 13.8075 31.4881 13.7559 31.2942 13.3763C31.0127 12.8438 30.5346 12.442 29.9616 12.2562C29.5366 12.1611 29.0959 12.1597 28.6703 12.2521ZM29.8234 13.3206C30.0923 13.4614 30.3065 13.6879 30.4319 13.9642C30.7764 14.5583 31.257 14.8678 31.8202 14.8678C32.069 14.8656 32.3135 14.9326 32.5266 15.0611C32.7396 15.1897 32.9128 15.3748 33.0269 15.5959C33.1115 15.7692 33.1321 15.895 33.1321 16.3612C33.1321 16.8831 33.1218 16.9347 32.9857 17.1863C32.9165 17.3252 32.82 17.4486 32.7019 17.5493C32.5839 17.65 32.4468 17.7258 32.2988 17.7722C31.9687 17.8898 26.5869 17.8898 26.2589 17.7722C26.1117 17.7249 25.9757 17.6485 25.8587 17.5475C25.7417 17.4465 25.6463 17.323 25.5781 17.1843C25.442 16.9264 25.4317 16.8749 25.4317 16.3592C25.4317 15.8888 25.4482 15.7713 25.5431 15.5897C25.6577 15.3626 25.8355 15.1735 26.055 15.045C26.2746 14.9166 26.5266 14.8543 26.7808 14.8657C27.379 14.8657 27.8802 14.5356 28.2247 13.9271C28.5073 13.4114 28.9075 13.1721 29.3943 13.2134C29.5422 13.2257 29.6871 13.262 29.8234 13.3206ZM24.4931 17.1987C24.6014 17.621 24.829 18.0031 25.1487 18.2994C25.4684 18.5958 25.8667 18.7937 26.296 18.8696C26.4693 18.9005 27.7709 18.9212 29.2871 18.9212C30.8032 18.9212 32.1049 18.9005 32.2761 18.8696C33.1528 18.7293 33.9738 17.9372 34.1161 17.0976L34.1574 16.8687H38.8647L39.1225 17.0048C39.4051 17.1513 39.6313 17.3869 39.7661 17.6752C39.8734 17.8815 39.8775 17.9475 39.892 19.4678L39.9085 21.0603L39.7909 21.0892C39.4435 21.2341 39.1052 21.4001 38.7781 21.5863C38.5897 21.6536 38.3935 21.6966 38.1943 21.7142C37.7196 21.7432 37.2605 21.8945 36.8617 22.1536C36.4853 22.4391 36.1901 22.8181 36.0056 23.2531C35.8919 23.5928 35.6757 23.889 35.3868 24.1009C35.0119 24.4044 34.7363 24.813 34.5955 25.2744C34.4547 25.7357 34.4552 26.2286 34.5967 26.6897C34.6782 26.918 34.6868 27.1659 34.6215 27.3993C34.44 28.2513 34.4647 28.7319 34.7288 29.295C34.8952 29.6101 35.1207 29.8903 35.393 30.1202C35.5779 30.284 35.7445 30.4673 35.8901 30.6668C35.9404 30.8215 36.0047 30.9713 36.082 31.1144L36.2697 31.5043L36.2944 34.1488L36.3192 36.7892L36.478 36.9811C36.5833 37.1184 36.7214 37.227 36.8796 37.2969C37.0379 37.3668 37.2112 37.3958 37.3836 37.3812C37.5567 37.3872 37.7292 37.3584 37.891 37.2967C38.2566 37.0076 38.6071 36.6998 38.941 36.3746C39.432 35.9125 39.8528 35.533 39.8672 35.533C39.8817 35.533 39.8878 36.8408 39.8817 38.4209C39.8672 41.6286 39.8817 41.4862 39.5372 41.8761C39.4118 42.0045 39.2687 42.1142 39.1122 42.202L38.8544 42.3382L29.3778 42.3526C18.7709 42.3691 19.5919 42.3939 19.1463 41.9978C19.0074 41.8735 18.8909 41.7263 18.8018 41.5626L18.6842 41.346V29.6127C18.6842 18.5519 18.6842 17.8712 18.7709 17.6938C18.8667 17.4975 19.0036 17.324 19.1723 17.1852C19.341 17.0464 19.5375 16.9455 19.7486 16.8893C19.8353 16.8687 20.9141 16.8584 22.1518 16.8584L24.3961 16.8687L24.4931 17.1987ZM40.8202 22.1247C40.9692 22.1816 41.1116 22.2542 41.2452 22.3413C41.6429 22.5896 42.0955 22.7363 42.5633 22.7683C43.3142 22.8426 43.6525 23.0963 43.9062 23.7667C44.0309 24.1169 44.2441 24.4288 44.525 24.6723C44.985 25.1034 45.0676 25.1942 45.1624 25.3922C45.2953 25.7247 45.3134 26.092 45.214 26.436C45.1068 26.8772 45.1068 27.3377 45.214 27.7789C45.3148 28.1334 45.2952 28.5114 45.1583 28.8536C44.9939 29.0813 44.8089 29.2933 44.6055 29.4869C44.2513 29.7869 43.9853 30.1777 43.8361 30.6173C43.603 31.1536 43.2172 31.4032 42.5386 31.4589C42.0649 31.4914 41.6075 31.6448 41.2101 31.9045C41.1004 31.993 40.9736 32.0581 40.8377 32.0957C40.7018 32.1333 40.5597 32.1426 40.42 32.1231C39.9951 32.1231 39.9848 32.1231 39.5846 31.8839C39.1912 31.6173 38.731 31.4665 38.2562 31.4486C37.5115 31.3723 37.2371 31.1639 36.9277 30.4172C36.7978 30.0599 36.5758 29.7432 36.2841 29.4993C35.8942 29.1341 35.8035 29.0331 35.6962 28.8247C35.5491 28.5084 35.5263 28.1484 35.6323 27.816C35.7446 27.3412 35.7446 26.8468 35.6323 26.372C35.4549 25.7738 35.6055 25.3283 36.1377 24.8517C36.5028 24.5356 36.7859 24.1357 36.9628 23.6863C37.0882 23.3426 37.3356 23.057 37.6579 22.8838C37.8579 22.8132 38.0657 22.7675 38.2768 22.7477C38.7084 22.7244 39.1278 22.5955 39.498 22.3722C39.6547 22.2774 39.8631 22.166 39.9539 22.1247C40.2337 22.0408 40.5321 22.0408 40.812 22.1247H40.8202ZM37.9014 32.4511C38.0684 32.4821 38.3139 32.513 38.4377 32.5275C38.6681 32.5819 38.8878 32.6746 39.0875 32.8018C39.4766 33.0691 39.9376 33.2123 40.4097 33.2123C40.8818 33.2123 41.3429 33.0691 41.732 32.8018C41.9317 32.6746 42.1514 32.5819 42.3818 32.5275C42.5076 32.513 42.751 32.4821 42.9181 32.4573C43.0217 32.4378 43.1264 32.4247 43.2317 32.4181C43.2317 32.4181 43.2317 33.3051 43.2317 34.3737L43.2152 36.3189L42.2786 35.3783C41.1688 34.2685 41.0575 34.1963 40.4035 34.1921C39.7496 34.188 39.6692 34.252 38.4789 35.3679C37.9096 35.8898 37.4187 36.3251 37.3836 36.3354C37.3485 36.3457 37.3114 36.026 37.3114 34.3427V32.3315L37.4537 32.3624C37.528 32.3913 37.726 32.4181 37.8931 32.4511H37.9014Z" fill="black"/>
<path d="M24.3529 20.5119C23.9745 20.6378 23.6415 20.8724 23.3957 21.1865C22.7047 21.993 22.2756 22.3829 21.6259 22.7728C20.6625 23.3565 20.4356 23.8578 20.5367 25.1491C20.743 27.8597 21.9043 29.7719 23.9362 30.7847C24.5901 31.1086 25.3616 31.3479 25.7927 31.3479C26.4549 31.3479 27.773 30.8095 28.559 30.2216C29.2809 29.6511 29.8718 28.9321 30.2917 28.1134C30.5655 27.497 30.773 26.8532 30.9106 26.1929C31.0426 25.4338 31.1045 24.5262 31.0488 24.2126C30.9271 23.5628 30.6486 23.208 29.9039 22.748C29.2786 22.3518 28.7213 21.8573 28.2537 21.2834C27.9133 20.8832 27.7875 20.776 27.5028 20.6336L27.1624 20.4666H25.867C24.8892 20.4542 24.5097 20.4542 24.3529 20.5119ZM27.0696 21.5825C27.2266 21.6918 27.3658 21.8247 27.4822 21.9765C27.9897 22.5868 28.5823 23.1211 29.2417 23.5628C29.4944 23.7121 29.7244 23.8969 29.9245 24.1115C30.1535 24.4849 29.9452 26.2032 29.545 27.2264C29.1107 28.3802 28.2506 29.3237 27.1418 29.8626C26.7149 30.0709 26.2639 30.2255 25.7989 30.3227C25.4441 30.3227 24.4189 29.9101 23.8413 29.5223C22.4386 28.5961 21.597 26.8406 21.5867 24.8356V24.1363L21.7929 23.9589C22.008 23.7853 22.2332 23.6248 22.4675 23.4783C23.084 23.0544 23.6393 22.5477 24.1177 21.9724C24.232 21.8258 24.3628 21.6929 24.5076 21.5763C24.6829 21.4856 26.8716 21.4856 27.0696 21.5825Z" fill="black"/>
<path d="M27.4698 24.1462C27.4182 24.171 26.886 24.7651 26.2837 25.4891L25.1945 26.7763L24.8954 26.5123C24.7324 26.3658 24.3735 26.0316 24.0888 25.7717C23.6763 25.3983 23.5463 25.3055 23.4246 25.3055C23.3499 25.3016 23.2752 25.3135 23.2054 25.3405C23.1357 25.3675 23.0724 25.4089 23.0198 25.4621C22.9672 25.5153 22.9264 25.579 22.9002 25.6491C22.874 25.7192 22.8629 25.794 22.8677 25.8687C22.8677 26.0461 22.944 26.1265 23.9568 27.0589C25.0315 28.047 25.0212 28.0429 25.244 28.0429C25.3511 28.0469 25.4564 28.015 25.5431 27.9521C25.6896 27.8304 28.0185 25.0642 28.1423 24.8765C28.194 24.8038 28.2243 24.7182 28.2298 24.6292C28.2352 24.5402 28.2156 24.4515 28.1732 24.3731C28.1046 24.2552 27.9948 24.1667 27.865 24.1248C27.7351 24.083 27.5944 24.0906 27.4698 24.1462Z" fill="black"/>
<path d="M21.1906 34.3718C21.1257 34.4368 21.0794 34.518 21.0564 34.607C21.0334 34.6959 21.0346 34.7894 21.0598 34.8777C21.0851 34.9661 21.1334 35.046 21.2 35.1094C21.2665 35.1728 21.3487 35.2172 21.4382 35.2382C21.6981 35.3104 32.0451 35.3104 32.303 35.2382C32.3924 35.2216 32.4753 35.18 32.5421 35.1181C32.6088 35.0563 32.6566 34.9768 32.6799 34.8889C32.7033 34.8009 32.7012 34.7082 32.6739 34.6214C32.6466 34.5346 32.5952 34.4574 32.5258 34.3986L32.3545 34.2253H21.3371L21.1906 34.3718Z" fill="black"/>
<path d="M21.3659 38.1942C21.2887 38.2249 21.22 38.2736 21.1653 38.3361C21.1106 38.3987 21.0716 38.4733 21.0514 38.5539C21.0313 38.6345 21.0306 38.7187 21.0494 38.7997C21.0682 38.8806 21.106 38.9559 21.1596 39.0193L21.2813 39.1617L26.7746 39.1782C31.7852 39.1926 32.2782 39.1782 32.4185 39.1121C32.5062 39.0682 32.5791 38.9993 32.628 38.9141C32.6768 38.829 32.6995 38.7313 32.6931 38.6333C32.6867 38.5354 32.6515 38.4414 32.5921 38.3633C32.5326 38.2852 32.4514 38.2264 32.3586 38.1942C32.1152 38.0911 21.6052 38.0972 21.3659 38.1942Z" fill="black"/>
<path d="M40.1476 23.7297C39.6876 23.8266 39.3473 24.1196 39.0832 24.6476C38.912 24.9921 38.8605 25.0272 38.4768 25.0726C37.7156 25.1695 37.2246 25.6502 37.169 26.3556C37.1318 26.7971 37.2494 27.0694 37.6496 27.4964C37.7749 27.6183 37.8826 27.7571 37.9693 27.9089C37.9693 27.9399 37.9446 28.1523 37.9074 28.3751C37.8521 28.61 37.8628 28.8556 37.9384 29.0847C38.029 29.3667 38.2092 29.6114 38.4516 29.7815C38.694 29.9517 38.9853 30.038 39.2813 30.0274C39.5313 30.019 39.7753 29.9481 39.9909 29.8212C40.1369 29.7461 40.2895 29.6846 40.4468 29.6376L40.8325 29.8212C41.3296 30.0646 41.7443 30.0893 42.1403 29.8975C42.4026 29.7809 42.6201 29.5823 42.7599 29.3316C42.8998 29.0809 42.9545 28.7916 42.9159 28.5072C42.8953 28.3256 42.8685 28.0946 42.8541 28.0121C42.8231 27.8636 42.8541 27.8058 43.1284 27.5253C43.5121 27.1251 43.6441 26.8569 43.64 26.4505C43.64 25.6811 43.1532 25.1778 42.3177 25.0623C42.1833 25.0489 42.0506 25.022 41.9217 24.9818C41.8324 24.8677 41.7576 24.743 41.6989 24.6105C41.6074 24.4285 41.4915 24.2598 41.3544 24.1092C41.1971 23.9557 41.0059 23.8414 40.7963 23.7755C40.5867 23.7095 40.3645 23.6938 40.1476 23.7297ZM40.6138 24.8354C40.6936 24.9447 40.7627 25.0614 40.8201 25.184C41.1027 25.7471 41.3565 25.9307 42.031 26.0669C42.7365 26.2133 42.786 26.3453 42.3301 26.8466C42.1842 27.007 42.0549 27.1819 41.9444 27.3685C41.8195 27.6974 41.7902 28.055 41.8598 28.3999C41.9196 28.7361 41.8598 28.897 41.6865 28.963C41.5751 29.0084 41.4802 28.9837 41.1646 28.8269C40.9371 28.6818 40.6681 28.6158 40.3993 28.6392C40.1365 28.6237 39.8751 28.6869 39.6484 28.8207C39.3308 28.9775 39.2586 28.9981 39.1266 28.9527C38.9347 28.8867 38.8996 28.7464 38.976 28.2988C39.0709 27.7212 38.9492 27.3623 38.4995 26.8858C38.1756 26.5454 38.1343 26.4402 38.2705 26.2669C38.3137 26.2178 38.3666 26.1782 38.4259 26.1505C38.4852 26.1228 38.5496 26.1077 38.615 26.106C39.304 26.0132 39.665 25.7863 39.9434 25.2541C40.1621 24.8415 40.2322 24.757 40.3993 24.757C40.478 24.756 40.5543 24.7839 40.6138 24.8354Z" fill="black"/>
</svg>
