<svg width="57" height="57" viewBox="0 0 57 57" fill="none" xmlns="http://www.w3.org/2000/svg">
<rect x="0.691223" y="0.819336" width="56.0539" height="55.3616" rx="14.837" fill="white"/>
<path d="M28.4923 12.9638C28.4366 13.0095 28.3701 13.0401 28.2991 13.0526C27.961 13.1299 27.7447 13.352 27.1613 14.2001C26.9555 14.5164 26.7337 14.822 26.4968 15.1158C26.1645 15.2506 25.8238 15.3635 25.4768 15.4538C25.0724 15.5633 24.6771 15.7041 24.2945 15.875C24.1429 15.9749 24.0132 16.1047 23.9136 16.2565C23.8139 16.4083 23.7463 16.5789 23.715 16.7578C23.6107 17.2562 23.715 17.517 24.4877 18.5157L25.1368 19.358L25.0923 20.3683C25.0537 21.4829 25.0769 21.6664 25.3377 22.076C25.448 22.248 25.5985 22.3906 25.7762 22.4915C25.9539 22.5925 26.1534 22.6488 26.3577 22.6555C26.6687 22.6768 26.7846 22.6555 27.5051 22.3947L28.4382 22.0625C28.67 21.962 28.8825 22.0064 29.8078 22.3387C30.7834 22.6941 31.0616 22.7251 31.4614 22.5937C31.7848 22.4763 32.0518 22.241 32.209 21.935L32.3597 21.6452L32.3423 20.4861L32.3307 19.327L32.947 18.5176C33.7564 17.4687 33.8897 17.119 33.6907 16.5646C33.4859 15.9715 33.2406 15.8151 31.983 15.4384C31.6339 15.3442 31.2908 15.2294 30.9553 15.0945C30.7161 14.8046 30.4942 14.5007 30.2908 14.1846C29.7112 13.3366 29.491 13.1144 29.153 13.0372C29.082 13.0246 29.0155 12.994 28.9598 12.9483C28.9443 12.9193 28.8323 12.8981 28.7164 12.8981C28.6005 12.8981 28.5077 12.9348 28.4923 12.9638ZM29.1124 14.316C29.2302 14.4763 29.5451 14.9245 29.8059 15.3089C30.1343 15.79 30.3333 16.0295 30.4395 16.0681C30.5458 16.1068 31.0326 16.2613 31.5638 16.412C31.9309 16.5119 32.2895 16.6411 32.636 16.7983C32.8175 16.9587 32.7403 17.121 32.0699 17.9864C31.7087 18.4577 31.388 18.8943 31.3475 18.9523C31.3069 19.0102 31.2876 19.4855 31.2876 20.2833C31.2876 21.1545 31.2702 21.5158 31.22 21.5641C31.0983 21.6877 30.8761 21.6375 29.8561 21.2704C29.4894 21.1307 29.1153 21.0107 28.7357 20.9111C28.3561 21.011 27.9821 21.131 27.6153 21.2704C26.5953 21.6375 26.3731 21.6877 26.2514 21.5641C26.2012 21.5158 26.1838 21.1487 26.1838 20.2678V19.0257L26.0061 18.7765C25.9076 18.6374 25.5792 18.197 25.2855 17.8106C24.7311 17.0958 24.6654 16.9355 24.8412 16.779C25.1581 16.6355 25.4872 16.5204 25.8245 16.4352C27.2598 16.014 27.1169 16.1087 27.6655 15.3031C28.4865 14.0938 28.5522 14.0166 28.7357 14.0166C28.8632 14.0224 28.9405 14.0726 29.1124 14.3121V14.316Z" fill="black"/>
<path d="M17.7747 16.0644C17.4212 16.2131 17.2995 16.3368 16.7876 17.0844C16.4669 17.5461 16.2505 17.8049 16.1559 17.8455C16.0612 17.8861 15.6961 17.9884 15.3194 18.1005C15.0127 18.1809 14.715 18.2922 14.4308 18.4328C14.2755 18.549 14.148 18.6985 14.0578 18.8703C13.9676 19.0421 13.9168 19.2318 13.9092 19.4257C13.9092 19.7908 14.0213 20.0052 14.6143 20.7779L15.0973 21.4038L15.0799 22.3581C15.0625 23.2564 15.0683 23.324 15.1861 23.5443C15.2691 23.7008 15.3823 23.8394 15.5193 23.9518C15.6562 24.0642 15.8142 24.1483 15.9839 24.1991C16.3336 24.3054 16.4727 24.2764 17.4482 23.9229L18.163 23.6563L19.1018 23.977C20.0059 24.288 20.0446 24.2938 20.3111 24.232C20.4968 24.1909 20.6706 24.1082 20.8195 23.99C20.9685 23.8719 21.0886 23.7214 21.1708 23.55C21.2925 23.2796 21.3041 23.2004 21.3041 22.3253V21.3826L21.7696 20.7721C21.9787 20.5 22.1722 20.2162 22.3492 19.9222C22.4494 19.713 22.4846 19.4786 22.4501 19.2492C22.4157 19.0199 22.3132 18.8061 22.156 18.6356C21.9628 18.398 21.7387 18.2975 20.8849 18.0561C20.6131 17.9835 20.3465 17.8925 20.0871 17.7837C19.9374 17.6064 19.7999 17.4193 19.6756 17.2235C19.1656 16.4507 18.9821 16.2576 18.673 16.1088C18.5368 16.0328 18.3848 15.9893 18.229 15.9816C18.0732 15.9739 17.9178 16.0022 17.7747 16.0644ZM18.8739 17.8725C19.0593 18.1573 19.2632 18.4297 19.4843 18.6877C19.5288 18.709 19.9441 18.8326 20.4155 18.9601C20.7261 19.0308 21.0314 19.1231 21.3292 19.2364C21.4683 19.3755 21.3794 19.5648 20.8752 20.2293C20.6614 20.4964 20.4616 20.7743 20.2764 21.0619C20.2146 21.1894 20.2088 21.3787 20.259 22.1147C20.3208 23.0806 20.3034 23.1753 20.0658 23.1753C19.7593 23.1072 19.4584 23.0162 19.1656 22.9029C18.7445 22.7542 18.3504 22.6151 18.2847 22.5977C18.219 22.5803 17.8694 22.6807 17.3188 22.8971C17.0138 23.0281 16.7009 23.1397 16.3819 23.2313C16.1713 23.2313 16.1481 23.1309 16.1481 22.0935C16.1481 20.946 16.21 21.1276 15.472 20.2235C14.9794 19.6305 14.8925 19.4373 15.0625 19.2982C15.3637 19.1726 15.6728 19.0667 15.9878 18.9814C16.3044 18.8958 16.6154 18.7906 16.9189 18.6665C16.9923 18.6047 17.1855 18.3111 17.7786 17.3896C17.9718 17.096 17.9949 17.0689 18.1649 17.0844C18.3349 17.0998 18.3909 17.179 18.8739 17.8725Z" fill="black"/>
<path d="M38.7694 16.1144C38.4641 16.2747 38.383 16.3578 37.6547 17.4067L37.363 17.8221L36.5903 18.0442C36.1634 18.1717 35.7422 18.3166 35.6476 18.361C35.3868 18.5009 35.1864 18.7315 35.0842 19.0092C34.9821 19.2868 34.9852 19.5923 35.0932 19.8678C35.262 20.1689 35.4558 20.4552 35.6727 20.7236L36.1672 21.3727V22.2768C36.1551 22.6566 36.1771 23.0368 36.2329 23.4127C36.3066 23.5999 36.4217 23.768 36.5696 23.9045C36.7174 24.041 36.8942 24.1423 37.0868 24.2008L37.4094 24.2955L38.3637 23.9729L39.3122 23.6522L40.0212 23.913C41.0083 24.2723 41.1358 24.2993 41.497 24.1892C41.6954 24.128 41.8758 24.0193 42.0226 23.8725C42.1693 23.7257 42.2781 23.5453 42.3393 23.347C42.4127 23.1132 42.4224 22.8911 42.3953 22.2323L42.3625 21.4171L42.8937 20.712C43.6432 19.7307 43.7147 19.4139 43.3612 18.7802C43.1951 18.4808 42.9343 18.3301 42.1519 18.0983C41.7656 17.9863 41.3908 17.8704 41.3077 17.8375C41.2247 17.8047 41.0044 17.5497 40.647 17.0397C40.1699 16.3462 40.1197 16.2863 39.8087 16.1298C39.3972 15.9251 39.1576 15.9193 38.7694 16.1144ZM39.5691 17.3063C39.6734 17.4396 39.9072 17.7661 40.0907 18.0442C40.2235 18.2509 40.3694 18.449 40.5273 18.6373C40.8379 18.7746 41.1615 18.8808 41.4932 18.9541C41.8093 19.0255 42.1194 19.1218 42.4204 19.2419C42.5363 19.3366 42.5132 19.5414 42.3702 19.7191C42.2968 19.8022 42.0321 20.146 41.7907 20.4783L41.3309 21.0887L41.3695 22.0546C41.414 23.0804 41.3927 23.1808 41.1532 23.1808C40.82 23.0975 40.4922 22.9936 40.1718 22.8698L39.2948 22.5588L38.497 22.8698C37.5311 23.2465 37.4268 23.2755 37.3031 23.1519C37.2201 23.0688 37.2143 22.9587 37.2548 22.1589C37.2839 21.8121 37.278 21.4633 37.2375 21.1177C37.0515 20.8299 36.8456 20.5556 36.6212 20.2967C36.0668 19.6244 35.9721 19.4313 36.1344 19.3038C36.3153 19.2194 36.5026 19.1497 36.6946 19.0951C36.9728 19.0179 37.3881 18.8846 37.6219 18.8131L38.0488 18.674L38.4757 17.9979C38.7153 17.627 38.9529 17.2657 39.0147 17.1942C39.1866 17.0069 39.3528 17.0397 39.5691 17.3063Z" fill="black"/>
<path d="M27.7369 25.8932C27.1224 26.0518 26.5492 26.3409 26.0565 26.7409C25.5638 27.141 25.1631 27.6425 24.8817 28.2114C24.4285 29.1444 24.332 30.2109 24.6107 31.2101C24.8893 32.2092 25.5237 33.072 26.3943 33.6358C26.6281 33.7904 26.6841 33.858 26.6841 33.9855C26.6841 34.113 26.5952 34.2675 26.4909 34.2675C26.3364 34.2675 25.5154 34.623 25.0653 34.878C24.8769 34.9996 24.672 35.0933 24.4568 35.1561C24.3939 35.1425 24.3345 35.1163 24.2821 35.0791C24.2296 35.0419 24.1852 34.9945 24.1515 34.9398C23.7425 34.5206 23.273 34.1651 22.7587 33.885C22.5417 33.7764 22.3178 33.6822 22.0884 33.603C21.6325 33.4426 21.5881 33.4098 21.5881 33.2166C21.5881 33.0949 21.6499 33.0119 21.8991 32.8303C22.3035 32.4911 22.6327 32.0712 22.8655 31.5976C23.0984 31.1239 23.2298 30.6068 23.2513 30.0794C23.2276 29.5358 23.0914 29.003 22.8514 28.5147C22.6971 28.1767 22.4763 27.8732 22.2024 27.6222C21.0201 26.4457 19.4187 26.2139 17.9814 27.0001C17.3745 27.3643 16.8794 27.8882 16.55 28.5147C16.1501 29.3531 16.0612 30.0852 16.2563 30.856C16.4565 31.6212 16.8908 32.3047 17.4985 32.811C17.7477 33.0041 17.8095 33.0833 17.8095 33.1973C17.8095 33.3905 17.7593 33.4311 17.3092 33.5837C16.689 33.7941 16.1171 34.1262 15.6268 34.5604C15.1365 34.9946 14.7378 35.5222 14.454 36.1124C13.971 37.0783 13.8435 37.7988 13.8744 39.3133C13.8957 40.0571 13.9189 40.2676 14.0135 40.4995C14.1619 40.9191 14.4443 41.2782 14.8172 41.5214C15.3967 41.9077 15.5049 41.9077 18.9821 41.9077C21.3794 41.9077 22.0729 41.9232 22.1116 41.9734C22.1636 42.0892 22.1937 42.2137 22.2004 42.3404C22.2449 42.6748 22.3713 42.993 22.5685 43.2667C22.7657 43.5403 23.0274 43.761 23.3305 43.9091L23.7034 44.1022H33.7486L34.1137 43.9245C34.4192 43.7749 34.6832 43.5526 34.8826 43.277C35.082 43.0015 35.2107 42.6812 35.2574 42.3443C35.2621 42.2172 35.2923 42.0924 35.3462 41.9773C35.3849 41.927 36.0784 41.9116 38.4738 41.9116C41.951 41.9116 42.0572 41.9 42.6387 41.5252C43.0104 41.2794 43.2939 40.9214 43.4481 40.5033C43.5544 40.2425 43.566 40.117 43.566 38.9733C43.566 37.4646 43.4829 37.0647 43.0115 36.1162C42.7282 35.5254 42.3294 34.9972 41.8387 34.5629C41.348 34.1286 40.7753 33.797 40.1544 33.5875C39.7043 33.433 39.656 33.3944 39.656 33.2012C39.656 33.0795 39.7159 32.9964 39.9651 32.8148C40.3708 32.473 40.7007 32.0502 40.9336 31.5735C41.1664 31.0968 41.2971 30.5767 41.3174 30.0466C41.2698 29.245 40.9861 28.4754 40.5021 27.8347C40.0309 27.2775 39.4082 26.8688 38.7095 26.6582C37.4403 26.2719 35.9258 26.7529 35.0391 27.8347C34.5511 28.4799 34.2673 29.2562 34.2239 30.064C34.244 30.5916 34.3747 31.1092 34.6077 31.5831C34.8406 32.057 35.1706 32.4766 35.5761 32.8148C35.8697 33.0544 35.92 33.1142 35.8987 33.2359C35.8601 33.4291 35.8195 33.4465 35.3192 33.6223C35.0589 33.7203 34.8053 33.8352 34.56 33.9662C34.086 34.2437 33.6513 34.5835 33.2676 34.9765C33.2066 35.0669 33.1133 35.1305 33.0068 35.1542C32.7906 35.0925 32.5848 34.9988 32.3964 34.876C31.9463 34.621 31.1253 34.2656 30.9707 34.2656C30.8587 34.2656 30.7775 34.1381 30.7775 33.9777C30.7775 33.856 30.8336 33.7846 31.0944 33.6223C31.8145 33.1347 32.3728 32.4432 32.6977 31.6364C32.9265 31.0975 33.0352 30.5153 33.0161 29.9301C32.9971 29.345 32.8509 28.771 32.5876 28.2481C32.312 27.6654 31.91 27.1515 31.4107 26.7438C30.9115 26.3361 30.3276 26.0449 29.7015 25.8913C29.0544 25.7485 28.3838 25.7491 27.7369 25.8932ZM29.5798 26.9403C30.2714 27.1288 30.8803 27.5425 31.3103 28.1159C31.7403 28.6894 31.9668 29.3898 31.954 30.1065C31.9398 30.9506 31.5949 31.7555 30.9934 32.348C30.3919 32.9405 29.5819 33.2732 28.7376 33.2746C27.8877 33.2731 27.0728 32.9358 26.4704 32.3363C25.8679 31.7368 25.5268 30.9235 25.5212 30.0736C25.5002 29.5679 25.6107 29.0654 25.8418 28.6151C26.1494 28.0475 26.6011 27.5711 27.1516 27.2339C27.8982 26.8433 28.7617 26.7389 29.5798 26.9403ZM20.7497 27.8115C21.35 28.1027 21.8135 28.6161 22.042 29.2429C22.1605 29.5855 22.2026 29.9499 22.1655 30.3105C22.1283 30.6711 22.0127 31.0192 21.8268 31.3304C21.6409 31.6416 21.3892 31.9084 21.0894 32.1121C20.7895 32.3158 20.4487 32.4515 20.0909 32.5096C19.7241 32.5711 19.3482 32.5481 18.9917 32.4423C18.6351 32.3365 18.3074 32.1507 18.0336 31.8992C17.645 31.561 17.3777 31.1052 17.2724 30.601C17.0001 29.3318 17.6588 28.1669 18.9087 27.6898C19.1832 27.6259 19.4661 27.605 19.7471 27.628C20.3324 27.6396 20.4155 27.657 20.7497 27.8115ZM38.8331 27.8115C39.4357 28.1026 39.8998 28.6187 40.1254 29.2487C40.2443 29.5911 40.2867 29.9554 40.2495 30.3159C40.2124 30.6764 40.0966 31.0243 39.9104 31.3352C39.7242 31.6461 39.472 31.9124 39.1718 32.1153C38.8715 32.3182 38.5303 32.4528 38.1724 32.5096C37.8056 32.5711 37.4297 32.5481 37.0731 32.4423C36.7166 32.3365 36.3889 32.1507 36.1151 31.8992C35.7287 31.5602 35.4635 31.1044 35.3597 30.601C35.0893 29.3318 35.7461 28.1669 36.996 27.6898C37.2705 27.6259 37.5534 27.605 37.8344 27.628C38.4139 27.6396 38.4989 27.657 38.8312 27.8115H38.8331ZM21.7213 34.5727C22.2774 34.7608 22.7838 35.0718 23.203 35.4826C23.5894 35.8554 23.6802 36.0621 23.4967 36.2148C23.189 36.611 22.9248 37.0391 22.7085 37.4917C22.3482 38.2692 22.1717 39.1192 22.1927 39.9759C22.2013 40.2232 22.1825 40.4707 22.1367 40.7139C22.0826 40.8143 21.9821 40.8182 18.8526 40.8182H15.6073L15.4141 40.6907C15.2951 40.6043 15.1902 40.5 15.1031 40.3816C14.9814 40.1981 14.9756 40.1479 14.9756 38.9946C14.9756 37.5902 15.0374 37.2405 15.3619 36.5644C15.7938 35.7449 16.4817 35.0889 17.3207 34.6964C17.9312 34.424 18.2519 34.3912 19.8321 34.4008C21.2539 34.4124 21.2809 34.4124 21.7156 34.5669L21.7213 34.5727ZM39.4146 34.4684C39.9873 34.6022 40.5241 34.859 40.9878 35.2209C41.4515 35.5828 41.8309 36.0413 42.0997 36.5644C42.432 37.2405 42.4861 37.5902 42.4861 38.9946C42.4861 40.1537 42.4861 40.1981 42.3586 40.3816C42.2719 40.5005 42.167 40.6048 42.0476 40.6907L41.8544 40.8182H38.6302C35.4911 40.8182 35.3926 40.8182 35.3366 40.7139C35.2917 40.4706 35.2729 40.2232 35.2805 39.9759C35.3025 39.1191 35.126 38.2689 34.7648 37.4917C34.5492 37.0387 34.2849 36.6105 33.9766 36.2148C33.8008 36.066 33.8781 35.8612 34.2432 35.5174C34.7456 34.9903 35.3953 34.6267 36.1073 34.4742C36.6405 34.3564 38.8582 34.3564 39.4126 34.4626L39.4146 34.4684ZM30.2463 35.189C31.2814 35.337 32.2317 35.8436 32.9315 36.6204C33.5706 37.2614 33.9952 38.0848 34.1466 38.9772C34.2451 39.5567 34.2625 42.2168 34.1678 42.466C34.0627 42.7076 33.8732 42.9027 33.6347 43.0146C33.37 43.1325 24.1071 43.1325 23.8405 43.0146C23.602 42.9027 23.4125 42.7076 23.3073 42.466C23.2127 42.2168 23.2301 39.549 23.3305 38.9772C23.4804 38.0847 23.9044 37.261 24.5437 36.6204C25.2341 35.8581 26.1633 35.3533 27.1786 35.189C28.1978 35.0848 29.2248 35.0829 30.2444 35.1832L30.2463 35.189Z" fill="black"/>
</svg>
