<svg width="57" height="57" viewBox="0 0 57 57" fill="none" xmlns="http://www.w3.org/2000/svg">
<rect x="0.813782" y="0.819092" width="56.0539" height="55.3616" rx="14.837" fill="white"/>
<path d="M29.3762 12.9024C28.6787 12.975 28.0322 13.3014 27.5597 13.8196C27.1298 14.2206 26.8365 14.7463 26.7209 15.3228C26.5674 16.0599 26.6891 16.8277 27.0628 17.4813C27.4366 18.1349 28.0367 18.6291 28.7498 18.8707C29.2654 19.012 29.8047 19.0448 30.3336 18.9668C30.8862 18.8427 31.3951 18.5719 31.8069 18.183C32.2187 17.794 32.518 17.3014 32.6735 16.7567C32.7808 16.2252 32.7808 15.6776 32.6735 15.1461C32.5371 14.6561 32.2821 14.2072 31.9309 13.8393C31.5798 13.4713 31.1433 13.1956 30.6602 13.0366C30.2475 12.8971 29.8088 12.8512 29.3762 12.9024ZM30.1658 14.0544C30.461 14.1239 30.736 14.2611 30.969 14.4552C31.2019 14.6494 31.3865 14.8951 31.508 15.1729C31.6249 15.4187 31.6728 15.6917 31.6467 15.9626C31.6787 16.2575 31.6169 16.5549 31.47 16.8126C31.3159 17.1491 31.0656 17.4323 30.7507 17.6266C30.4358 17.8209 30.0703 17.9175 29.7005 17.9043C29.4428 17.9133 29.1862 17.8658 28.9489 17.7649C28.7116 17.664 28.4993 17.5123 28.327 17.3204C27.8796 16.8507 27.808 16.6493 27.808 15.9894C27.808 15.4816 27.8237 15.3899 27.9534 15.1237C28.1186 14.7985 28.3676 14.5234 28.6748 14.3267C28.9819 14.1301 29.3361 14.0191 29.7005 14.0052C29.8569 14.0053 30.0129 14.0218 30.1658 14.0544Z" fill="black"/>
<path d="M16.017 17.98C15.3413 18.1217 14.733 18.4868 14.2901 19.0164C13.8472 19.5461 13.5955 20.2094 13.5756 20.8996C13.5557 21.5897 13.7688 22.2664 14.1804 22.8207C14.5921 23.375 15.1783 23.7745 15.8448 23.9549C16.3681 24.0758 16.912 24.0758 17.4353 23.9549C17.9461 23.8101 18.4093 23.5322 18.7775 23.1496C19.0845 22.8754 19.3266 22.5361 19.4861 22.1565C19.6455 21.7768 19.7183 21.3664 19.6991 20.9552C19.7113 20.3869 19.5506 19.8284 19.2383 19.3535C18.7817 18.6648 18.0804 18.1754 17.2764 17.9844C16.8594 17.9172 16.4345 17.9157 16.017 17.98ZM17.2876 19.1432C17.6749 19.2953 18.0098 19.5563 18.2518 19.8948C18.4101 20.1336 18.5144 20.404 18.5575 20.6872C18.6005 20.9705 18.5812 21.2597 18.5009 21.5347C18.4206 21.8097 18.2812 22.0638 18.0925 22.2794C17.9038 22.495 17.6704 22.6667 17.4084 22.7828C16.9155 22.9819 16.3645 22.9819 15.8716 22.7828C15.4139 22.5777 15.0525 22.2046 14.8622 21.7405C14.6718 21.2765 14.6671 20.7571 14.8489 20.2896C15.0308 19.8222 15.3853 19.4426 15.8392 19.2292C16.2931 19.0158 16.8117 18.985 17.2876 19.1432Z" fill="black"/>
<path d="M41.7623 17.9803C41.2167 18.1012 40.7131 18.3654 40.3034 18.7456C39.8937 19.1258 39.5927 19.6083 39.4314 20.1435C39.2847 20.7211 39.2901 21.3268 39.4471 21.9017C39.5829 22.3295 39.8106 22.7224 40.1141 23.053C40.4176 23.3837 40.7896 23.644 41.2042 23.8159C41.6187 23.9879 42.0658 24.0672 42.5142 24.0484C42.9626 24.0295 43.4015 23.913 43.8002 23.707C44.2318 23.4505 44.6112 23.1151 44.9187 22.7182C45.177 22.3301 45.344 21.8886 45.4074 21.4268C45.4707 20.9649 45.4287 20.4947 45.2845 20.0514C45.1404 19.6081 44.8977 19.2032 44.5748 18.867C44.2519 18.5308 43.8571 18.272 43.4199 18.1101C42.8837 17.9451 42.3177 17.9008 41.7623 17.9803ZM43.1045 19.1704C43.49 19.3194 43.8172 19.5889 44.0372 19.9387C44.2573 20.2885 44.3585 20.7001 44.3259 21.1121C44.3189 21.3522 44.2635 21.5885 44.1632 21.8068C44.0629 22.0251 43.9197 22.2209 43.7421 22.3827C43.5691 22.5623 43.3601 22.7034 43.1288 22.7967C42.8975 22.8899 42.6491 22.9334 42.3999 22.924C42.1381 22.9378 41.8766 22.8922 41.6349 22.7907C41.3932 22.6892 41.1775 22.5345 41.004 22.338C40.5812 21.8906 40.4783 21.6244 40.4783 20.9823C40.448 20.7105 40.4913 20.4354 40.6036 20.186C40.8125 19.7315 41.1866 19.3736 41.6499 19.1849C42.1131 18.9963 42.6309 18.9911 43.0978 19.1704H43.1045Z" fill="black"/>
<path d="M27.2555 19.7383C26.9275 19.8251 26.6221 19.982 26.3607 20.1983C26.0992 20.4146 25.8878 20.6851 25.7411 20.991C25.5532 21.3758 25.5353 21.4384 25.5174 22.0312L25.4905 22.6576L24.4861 22.6844C23.7166 22.7068 23.4526 22.7336 23.3676 22.794C22.9209 23.4555 22.511 24.1411 22.1395 24.8476C21.5288 25.9303 21.0211 26.8273 21.0211 26.8385C20.9132 26.6986 20.8188 26.5488 20.7392 26.3911C20.4193 25.8073 20.1867 25.5366 19.831 25.3106C19.2896 24.9594 19.1599 24.9415 17.0884 24.9147C15.0931 24.8946 14.6054 24.9326 14.1804 25.1272C13.8064 25.3387 13.5036 25.6563 13.3102 26.0399L13.1514 26.3464V34.5561L13.3035 35.1511C13.686 36.6655 14.422 37.5469 15.6344 37.9429L16.0818 38.0883L16.1086 38.4238C16.131 38.7034 16.1646 38.7795 16.2876 38.8891L16.4397 39.0188H20.4372V41.3162C20.4372 43.1997 20.4529 43.6471 20.5133 43.7769C20.6788 44.108 20.0905 44.0856 29.5216 44.0856C38.8296 44.0856 38.3554 44.1035 38.5164 43.8149C38.5657 43.7411 38.588 43.0163 38.6082 41.3811L38.635 39.0569L40.6483 39.03L42.6616 39.0032L42.7913 38.8511C42.8444 38.787 42.8834 38.7124 42.9057 38.6322C42.9281 38.5521 42.9333 38.4681 42.9211 38.3858V38.0726L43.2186 38.0077C43.45 37.9447 43.6748 37.8593 43.8897 37.7527C44.7845 37.3053 45.3929 36.4284 45.7329 35.0683L45.8627 34.5605V26.3464L45.7106 26.0488C45.5702 25.7357 45.3456 25.4678 45.0618 25.2749C44.6413 24.9505 44.3326 24.9125 42.2544 24.9125C41.2657 24.9125 40.2971 24.9415 40.1025 24.9684C39.3397 25.0869 38.7446 25.5522 38.2905 26.3687C38.223 26.5142 38.1315 26.6473 38.0198 26.7624C37.9885 26.7624 37.474 25.8923 36.879 24.8275C36.0737 23.3891 35.7493 22.8634 35.6352 22.794C35.5211 22.7247 35.3489 22.6956 34.7114 22.6956H33.9374V22.2527C33.9374 21.1163 33.4721 20.3267 32.5415 19.8837L32.1254 19.6824H29.8258C27.9758 19.6623 27.4837 19.6735 27.2555 19.7383ZM32.1769 20.9441C32.3644 21.0346 32.5203 21.1796 32.6243 21.3601C32.7697 21.5973 32.7853 21.6733 32.801 22.1543L32.8233 22.6844H29.7184L26.6202 22.6688L26.6045 22.2639C26.5824 22.0717 26.6008 21.8771 26.6586 21.6925C26.7164 21.508 26.8123 21.3376 26.9401 21.1924C27.2801 20.8076 27.2801 20.8031 29.7072 20.8031H31.8816L32.1769 20.9441ZM36.2168 25.8654C36.8432 26.9973 37.3622 27.948 37.3622 27.9905C37.3622 28.0666 37.2011 28.2411 37.0378 28.3373C36.9953 28.3641 36.2056 28.3977 35.2795 28.4133C33.6689 28.4402 33.5929 28.4469 33.3759 28.5654C33.0383 28.7306 32.7664 29.0049 32.6041 29.3439C32.4806 29.5621 32.4238 29.8118 32.4408 30.062C32.4229 30.2891 32.4569 30.5173 32.5402 30.7293C32.6235 30.9413 32.754 31.1315 32.9218 31.2856C33.0925 31.4734 33.3058 31.6176 33.5436 31.7062C33.8568 31.8202 33.906 31.827 36.5457 31.8046C38.0221 31.8046 39.2882 31.7666 39.3643 31.7442C39.494 31.7062 39.5253 31.7442 40.0018 32.6166C40.2769 33.1132 40.7109 33.8872 40.9592 34.3346C41.1235 34.6064 41.2664 34.8906 41.3865 35.1847C41.3485 35.2451 17.6924 35.2383 17.6544 35.1847C17.8109 34.8139 17.9956 34.4557 18.2069 34.1131C18.5246 33.545 18.9586 32.771 19.1621 32.3929C19.52 31.7442 19.5469 31.7218 19.6766 31.7442C19.7527 31.7666 21.0389 31.7934 22.5377 31.8046L25.2579 31.827L25.5666 31.686C25.9347 31.5176 26.2367 31.2321 26.4256 30.874C26.5534 30.6439 26.6051 30.3792 26.5732 30.1179C26.5955 29.8764 26.5566 29.6332 26.46 29.4107C26.3634 29.1882 26.2123 28.9937 26.0207 28.8451C25.5733 28.4357 25.4637 28.4133 23.7121 28.4133C22.3319 28.4133 22.1709 28.4133 21.9651 28.306C21.5535 28.1203 21.5423 28.1583 22.8241 25.8766L23.9761 23.8163H35.0648L36.2168 25.8654ZM19.0458 26.1674C19.1753 26.2242 19.2959 26.2996 19.4037 26.3911C19.4574 26.4448 19.7661 26.9794 20.1017 27.5745C20.4372 28.1695 20.7884 28.7534 20.8846 28.8786C21.0378 29.04 21.2151 29.1766 21.4103 29.2835L21.7503 29.4669L23.437 29.496L25.1192 29.5229L25.2601 29.6526C25.3629 29.7329 25.4347 29.8463 25.4633 29.9736C25.4918 30.1008 25.4754 30.2341 25.4167 30.3506C25.2288 30.7398 25.2378 30.7398 22.5892 30.7398C21.209 30.7398 20.1553 30.7174 20.0457 30.6839C19.7773 30.61 19.5983 30.3931 18.9966 29.4669C18.8003 29.154 18.5867 28.8523 18.3568 28.5632C18.2499 28.4911 18.1213 28.4582 17.9929 28.47C17.8645 28.4818 17.7441 28.5377 17.6522 28.6281C17.3703 28.9144 17.415 29.0755 18.0638 30.0933C18.3769 30.581 18.632 30.9881 18.632 31.0194C18.632 31.0507 18.4485 31.3863 18.2204 31.7934L17.8043 32.5271H16.0147L14.2251 32.5092V29.5542C14.2251 26.7513 14.2251 26.5947 14.328 26.4381C14.4053 26.3222 14.5068 26.2245 14.6255 26.1517C14.8157 26.0444 14.8917 26.0377 16.7954 26.0377C18.7595 26.0377 18.7751 26.0377 19.0458 26.1674ZM44.4489 26.1674C44.5447 26.2434 44.6271 26.3349 44.6927 26.4381C44.7845 26.588 44.7889 26.7826 44.7889 29.5475V32.4936L42.9993 32.5115H41.2098L40.7937 31.7777C40.6429 31.5218 40.5055 31.2583 40.3821 30.9881C40.5318 30.7075 40.696 30.435 40.8742 30.1716C41.1494 29.7488 41.4044 29.326 41.4536 29.2343C41.5066 29.1227 41.5219 28.997 41.4973 28.876C41.4727 28.755 41.4095 28.6452 41.3171 28.5632C41.2226 28.4981 41.1116 28.4608 40.9969 28.4557C40.8823 28.4506 40.7684 28.4777 40.6684 28.5341C40.4333 28.8172 40.218 29.1161 40.0242 29.4289C39.3531 30.4781 39.2569 30.5877 38.8945 30.6615C38.7111 30.6995 37.8029 30.7174 36.2884 30.7062C33.7025 30.6906 33.7673 30.695 33.5839 30.3103C33.5251 30.1825 33.5154 30.0375 33.5567 29.903C33.5979 29.7685 33.6873 29.6539 33.8076 29.581C33.9687 29.4781 34.0872 29.4737 35.4674 29.4737C37.134 29.4737 37.3555 29.4401 37.7939 29.1426C38.1384 28.9189 38.257 28.7422 38.9124 27.5253C39.4851 26.4873 39.7334 26.1674 40.0756 26.0712C40.1673 26.0444 41.1561 26.022 42.2701 26.0265C44.2118 26.0645 44.3057 26.0712 44.4489 26.1741V26.1674ZM17.1265 33.7127C17.1265 33.7396 16.9028 34.1601 16.6075 34.6746L16.0818 35.5828V36.2159C16.1032 36.4404 16.0888 36.667 16.0393 36.887C15.9677 36.925 15.5584 36.7505 15.3257 36.5828C14.762 36.1824 14.3504 35.2205 14.2274 34.0035L14.1893 33.668H15.6724C16.1576 33.6488 16.6434 33.6638 17.1265 33.7127ZM44.7733 33.9521C44.7084 35.0079 44.3259 36.0191 43.8002 36.4732C43.5629 36.6677 43.2891 36.813 42.9949 36.9004C42.9412 36.9004 42.9233 36.7326 42.9233 36.2293V35.5582L42.411 34.6478C42.1292 34.1512 41.8965 33.7239 41.8965 33.6971C42.378 33.6477 42.8626 33.635 43.3461 33.659L44.7889 33.6747L44.7733 33.9521ZM41.8093 37.1174V37.9003H17.2025L17.1869 37.1756C17.1677 36.9112 17.1677 36.6458 17.1869 36.3814C17.2137 36.3166 19.1375 36.3054 29.5059 36.3166L41.8093 36.3322V37.1174ZM37.4606 39.0479C37.4606 39.1217 37.4606 42.8217 37.4606 42.8866C37.4606 42.9514 35.8343 42.9582 29.5104 42.9582H21.5602V41.0209C21.5602 39.9561 21.5781 39.0636 21.5982 39.0479C21.6474 39.0009 37.4606 39.0077 37.4606 39.0569V39.0479Z" fill="black"/>
</svg>
