<svg width="57" height="57" viewBox="0 0 57 57" fill="none" xmlns="http://www.w3.org/2000/svg">
<rect x="0.691223" y="0.819092" width="56.0539" height="55.3616" rx="14.837" fill="white"/>
<path d="M26.4961 12.6461C23.3759 13.0294 20.4744 14.4479 18.2556 16.6748C17.0213 17.8972 16.033 19.345 15.344 20.9397C14.7088 22.3812 14.3183 23.9185 14.1885 25.4884C14.1207 26.2209 14.1775 26.1166 13.5823 26.4773C13.0125 26.8629 12.5818 27.4214 12.3536 28.0705L12.1906 28.4935L12.176 30.7679C12.154 33.3664 12.176 33.5293 12.5422 34.271C12.7273 34.6419 12.9847 34.9721 13.2991 35.2422C13.6136 35.5123 13.9788 35.7169 14.3734 35.844C14.6676 35.9444 14.9788 35.9855 15.289 35.9649C15.8384 35.9649 15.8787 35.9649 16.2046 35.7982C16.6466 35.5745 16.9978 35.2052 17.199 34.7526L17.318 34.4541L17.3345 31.1085C17.3546 27.3545 17.3546 27.3801 16.9829 26.8051C16.6836 26.376 16.228 26.0815 15.7139 25.9847C15.3952 25.9279 15.3843 25.8803 15.4575 25.1588C15.6969 22.8851 16.5509 20.7194 17.9278 18.8942C18.6028 18.0518 19.3571 17.2761 20.1802 16.5777C21.5392 15.4881 23.1045 14.6846 24.7821 14.2155C25.0421 14.1422 25.6171 14.0214 26.0639 13.9426C26.7964 13.8126 26.9942 13.8016 28.1552 13.8016C28.8198 13.7757 29.4854 13.8162 30.1421 13.9225C31.8842 14.2164 33.5486 14.8604 35.0348 15.8157C36.521 16.7709 37.7982 18.0175 38.7891 19.4802C39.934 21.1948 40.643 23.163 40.8547 25.2138C40.9279 25.9096 40.9389 25.8931 40.4482 26.025C40.0564 26.1295 39.7025 26.3436 39.4282 26.6421C39.3196 26.7949 39.2252 26.9574 39.1462 27.1274L38.9997 27.4424L38.9832 30.8649C38.9685 34.6867 38.9575 34.5731 39.3494 35.1371C39.6086 35.5056 39.987 35.7734 40.4207 35.8953C40.5709 35.9327 40.7164 35.9868 40.8547 36.0564C40.9536 36.1352 40.9426 38.1019 40.8327 38.5194C40.6664 39.0781 40.3637 39.5867 39.952 39.9994C39.5403 40.412 39.0324 40.7159 38.4741 40.8835C38.0621 40.997 35.361 41.0666 35.2328 40.9604C35.1471 40.8573 35.0784 40.7411 35.0296 40.6162C34.8117 40.1953 34.4635 39.8561 34.0371 39.6493C33.5756 39.435 32.9383 39.3709 31.4733 39.4075C30.4442 39.4295 30.2922 39.4442 30.0084 39.5504C29.6594 39.6651 29.3472 39.8705 29.1038 40.1455C28.8173 40.4599 28.6307 40.8522 28.5675 41.2727C28.5042 41.6933 28.5672 42.1231 28.7485 42.5078C28.864 42.7838 29.0408 43.0299 29.2654 43.2275C29.49 43.4252 29.7566 43.5692 30.045 43.6487C30.4369 43.7787 30.4772 43.7842 31.8762 43.7842C33.3925 43.7842 33.6635 43.753 34.1231 43.5168C34.4755 43.3152 34.7695 43.0256 34.9765 42.6763C35.2365 42.18 35.112 42.2166 36.5751 42.2166C38.0383 42.2166 38.4887 42.169 39.1059 41.9493C39.6641 41.7651 40.1792 41.4696 40.6198 41.0805C41.0605 40.6915 41.4176 40.217 41.6696 39.6859C42.0724 38.8747 42.1292 38.567 42.1549 37.1075L42.1768 35.8385L42.3123 35.7323C42.3911 35.67 42.5998 35.529 42.783 35.4082C43.43 34.9615 43.8825 34.285 44.0483 33.5165C44.1417 33.1356 44.1527 32.9305 44.1527 30.9766C44.1527 29.0227 44.1417 28.8158 44.0483 28.4349C43.9558 28.0187 43.7815 27.6251 43.5357 27.2768C43.2899 26.9285 42.9774 26.6325 42.6163 26.4059C42.4762 26.3295 42.3432 26.2406 42.2189 26.1404C42.1565 25.9257 42.1196 25.7044 42.1091 25.4811C41.8472 22.6263 40.9536 20.2786 39.2707 18.0427C38.1075 16.5342 36.6508 15.2769 34.9884 14.3469C33.326 13.4169 31.4923 12.8333 29.5982 12.6315C28.5653 12.5584 27.5283 12.5633 26.4961 12.6461ZM15.875 27.4057L16.0783 27.62V34.2911L15.9171 34.4852C15.7084 34.7416 15.4465 34.8148 15.018 34.7416C14.8348 34.7075 14.6561 34.6528 14.4851 34.5786C14.1116 34.3597 13.8002 34.0489 13.5805 33.6758L13.4395 33.403V30.9711C13.4395 28.607 13.4395 28.5338 13.5494 28.3049C13.8046 27.8057 14.2369 27.4198 14.7616 27.2226C14.9404 27.1739 15.1262 27.156 15.311 27.1695C15.6589 27.186 15.6791 27.1896 15.8732 27.4057H15.875ZM41.7483 27.316C42.1679 27.5312 42.5107 27.8708 42.7299 28.2884L42.8727 28.5924V30.973C42.8727 33.3151 42.8727 33.3535 42.7573 33.6026C42.5378 33.9999 42.2184 34.3332 41.8307 34.5695C41.5175 34.7221 41.1692 34.7885 40.8217 34.7617C40.6884 34.724 40.5656 34.6557 40.4633 34.5622C40.3609 34.4688 40.2818 34.3528 40.2321 34.2234C40.2009 34.1043 40.179 32.8756 40.179 30.9272C40.179 27.5028 40.1698 27.631 40.5196 27.3142C40.7118 27.1475 40.7283 27.142 41.0891 27.1622C41.3162 27.1695 41.5397 27.2218 41.7465 27.316H41.7483ZM33.4511 40.715C33.6897 40.8422 33.882 41.0415 34.0004 41.2845C34.0569 41.4507 34.0658 41.6293 34.026 41.8002C33.9862 41.9711 33.8993 42.1274 33.7752 42.2514C33.539 42.5133 33.4822 42.5243 31.9147 42.5243C30.3471 42.5243 30.294 42.5243 30.0267 42.2258C29.9344 42.1443 29.863 42.042 29.8184 41.9273C29.7738 41.8126 29.7573 41.6889 29.7703 41.5666C29.762 41.4762 29.7722 41.3852 29.8002 41.2989C29.8282 41.2127 29.8735 41.133 29.9333 41.0648C30.2208 40.6674 30.3252 40.6418 31.9037 40.6418C32.964 40.6418 33.3192 40.6583 33.4492 40.715H33.4511Z" fill="black"/>
<path d="M22.5077 20.1287C21.9509 20.2489 21.4377 20.5196 21.0241 20.9112C20.6105 21.3029 20.3122 21.8006 20.1619 22.35C20.0575 22.7419 20.052 22.8353 20.0685 26.6112L20.0831 30.4733L20.2095 30.8139C20.4157 31.4549 20.8343 32.0066 21.3961 32.3777C21.8637 32.6756 22.3928 32.8635 22.9435 32.9271C23.0641 32.9315 23.182 32.9641 23.2878 33.0223C23.3449 33.3795 23.3694 33.7411 23.361 34.1028C23.3775 35.0184 23.3921 35.1484 23.4984 35.3846C23.6051 35.6445 23.788 35.8659 24.023 36.0199C24.258 36.1738 24.5341 36.253 24.815 36.2471C25.4211 36.2471 25.5255 36.1739 27.2359 34.4745L28.7613 32.9637L31.2188 32.9436L33.6763 32.9271L34.0938 32.7806C34.3403 32.6915 34.5786 32.5812 34.8061 32.451C35.2749 32.1402 35.6578 31.7164 35.9195 31.2186C36.2583 30.5282 36.2638 30.5062 36.2638 26.4574C36.2638 23.0056 36.2638 22.795 36.1594 22.4159C36.024 21.8445 35.7279 21.3238 35.3061 20.9152C34.8842 20.5067 34.3543 20.2274 33.7788 20.1104C33.2459 20.0079 23.0241 20.0079 22.5077 20.1287ZM33.9308 21.4509C34.3483 21.6672 34.6838 22.0137 34.8867 22.4379L35.0277 22.7364V30.2627L34.8556 30.6125C34.6531 31.0174 34.3247 31.3457 33.9198 31.5482L33.6689 31.6746L31.0027 31.7002C28.6221 31.7222 28.32 31.7368 28.1789 31.8156C28.0965 31.8632 27.3164 32.6103 26.4539 33.4637C25.5914 34.317 24.8644 35.0367 24.8388 35.0367C24.7828 35.0213 24.7322 34.9909 24.6923 34.9488C24.6044 34.87 24.5989 34.7547 24.5989 33.5424C24.5989 32.4125 24.5879 32.1873 24.5092 32.0371C24.3847 31.7643 24.1429 31.691 23.4324 31.691C23.1427 31.7018 22.8529 31.6754 22.5699 31.6123C22.1754 31.4562 21.8327 31.1922 21.5811 30.8505C21.2478 30.3799 21.2478 30.3744 21.2624 26.3219C21.2789 22.6943 21.2789 22.6741 21.3943 22.4232C21.6164 22.0051 21.9581 21.6628 22.3758 21.4399L22.6908 21.2879H33.6158L33.9308 21.4509Z" fill="black"/>
<path d="M24.0238 25.7211C23.8213 25.8022 23.6525 25.9499 23.5452 26.1399C23.4379 26.3298 23.3985 26.5506 23.4335 26.766C23.4685 26.9813 23.5759 27.1783 23.7379 27.3244C23.8999 27.4705 24.1069 27.557 24.3246 27.5698C24.5424 27.5825 24.7581 27.5206 24.936 27.3944C25.1139 27.2681 25.2434 27.085 25.3033 26.8752C25.3632 26.6654 25.3498 26.4415 25.2653 26.2404C25.1809 26.0392 25.0304 25.8729 24.8387 25.7687C24.7162 25.6973 24.5785 25.6558 24.437 25.6475C24.2954 25.6393 24.1538 25.6645 24.0238 25.7211Z" fill="black"/>
<path d="M27.8145 25.7066C27.6064 25.7733 27.4319 25.9176 27.3274 26.1095C27.2506 26.2362 27.2042 26.379 27.1917 26.5266C27.1792 26.6743 27.201 26.8228 27.2554 26.9606C27.3098 27.0985 27.3953 27.2219 27.5052 27.3212C27.6152 27.4205 27.7466 27.4931 27.8893 27.5332C28.0319 27.5733 28.1819 27.5799 28.3275 27.5525C28.4731 27.5251 28.6104 27.4644 28.7287 27.3751C28.847 27.2859 28.943 27.1705 29.0094 27.038C29.0757 26.9055 29.1105 26.7594 29.111 26.6112C29.1184 26.4174 29.064 26.2262 28.9557 26.0653C28.8475 25.9044 28.6909 25.782 28.5085 25.7158C28.2869 25.6241 28.0385 25.6208 27.8145 25.7066Z" fill="black"/>
<path d="M31.5777 25.7009C31.3904 25.7652 31.2274 25.8853 31.1105 26.0451C30.9937 26.2049 30.9285 26.3966 30.9239 26.5945C30.9338 26.8418 31.0217 27.0795 31.1748 27.2739C31.2879 27.3865 31.4263 27.4705 31.5784 27.5189C31.7305 27.5673 31.8919 27.5787 32.0493 27.5522C32.2067 27.5257 32.3555 27.462 32.4833 27.3665C32.6112 27.271 32.7144 27.1463 32.7844 27.0029C32.8525 26.8133 32.8671 26.6087 32.8268 26.4114C32.7864 26.214 32.6926 26.0316 32.5555 25.884C32.4201 25.7755 32.26 25.7021 32.0895 25.6702C31.919 25.6382 31.7432 25.6488 31.5777 25.7009Z" fill="black"/>
</svg>
