<svg width="57" height="57" viewBox="0 0 57 57" fill="none" xmlns="http://www.w3.org/2000/svg">
<rect x="0.752502" y="0.819092" width="56.0539" height="55.3616" rx="14.837" fill="white"/>
<g clip-path="url(#clip0_12423_5378)">
<path d="M16.7672 12.2906C16.595 12.3723 16.4615 12.518 16.395 12.6966C16.2597 12.9673 16.2543 12.9976 16.3149 13.2131C16.3509 13.3398 16.4068 13.46 16.4805 13.5692C16.6158 13.7473 25.5623 20.4465 25.776 20.5319C25.906 20.5872 26.3725 20.6032 28.0108 20.6032H30.0872L30.2012 20.7278C30.267 20.7937 31.1539 21.9156 32.1778 23.2209C33.7716 25.2509 34.0725 25.6071 34.263 25.7032C34.3663 25.7684 34.4846 25.8058 34.6065 25.8121C34.7285 25.8183 34.8499 25.7931 34.9593 25.7389C35.1552 25.6623 35.1997 25.6178 40.7806 19.7929C42.5791 17.9178 42.5845 17.9125 42.5845 18.9453C42.5845 19.7627 42.7501 20.0779 43.2416 20.2239C43.4553 20.2783 43.6817 20.2502 43.8758 20.1453C44.0698 20.0404 44.2172 19.8663 44.2887 19.6576C44.3136 19.5561 44.3635 18.6087 44.3937 17.5456C44.4436 15.6616 44.4436 15.6117 44.3492 15.3856C44.2861 15.2301 44.1798 15.096 44.0428 14.9991C43.9058 14.9023 43.744 14.8466 43.5764 14.8389C43.3983 14.8193 42.4687 14.7837 41.5018 14.7641C39.9419 14.7338 39.721 14.7392 39.5519 14.8086C39.4457 14.8453 39.3483 14.9035 39.2656 14.9795C39.1829 15.0554 39.1167 15.1476 39.0711 15.2502C39.0174 15.3612 38.9884 15.4824 38.986 15.6056C38.9837 15.7288 39.0081 15.851 39.0575 15.9639C39.1069 16.0768 39.1802 16.1776 39.2723 16.2594C39.3644 16.3413 39.4731 16.4022 39.5911 16.438C39.8502 16.4811 40.112 16.5066 40.3746 16.5146C40.6057 16.513 40.8362 16.5412 41.0602 16.5983C41.2382 16.739 41.1403 16.8939 40.5259 17.5421C40.1912 17.8875 38.7772 19.362 37.3883 20.8151C35.2514 23.041 34.8311 23.4613 34.7171 23.4613C34.6032 23.4613 34.377 23.2013 32.8723 21.287C31.7397 19.8428 31.0915 19.07 30.9722 18.9898L30.7941 18.8759L28.5736 18.8598L26.353 18.8456L22.015 15.5993C19.6395 13.8185 17.613 12.3209 17.5187 12.271C17.4018 12.2111 17.2717 12.1814 17.1404 12.1848C17.0091 12.1883 16.8808 12.2246 16.7672 12.2906Z" fill="black"/>
<path d="M16.3646 22.0368C16.1978 22.0845 16.0365 22.1502 15.8838 22.2327C15.5272 22.4747 15.2429 22.8089 15.0611 23.1996L14.9454 23.4863V41.5841L15.0611 41.8833C15.2849 42.3597 15.6678 42.7431 16.1438 42.9678C16.4394 43.0871 16.4644 43.0871 18.124 43.0871C19.7837 43.0871 19.8086 43.0871 20.1042 42.9678C20.5794 42.742 20.962 42.3589 21.1869 41.8833L21.3062 41.5841V23.4863L21.1869 23.1854C20.9625 22.7099 20.5798 22.3271 20.1042 22.1027C19.8122 21.987 19.7481 21.9816 18.2237 21.9709C16.9416 21.962 16.5908 21.9763 16.3646 22.0368ZM19.8691 23.1694C19.9995 23.2615 20.1058 23.3837 20.179 23.5255L20.2841 23.7463V41.333L20.179 41.5538C20.1058 41.6957 19.9995 41.8178 19.8691 41.91L19.6626 42.0453H16.5854L16.3807 41.91C16.2477 41.8203 16.1403 41.6975 16.069 41.5538L15.964 41.333L15.9746 32.4845L15.9889 23.6306L16.1242 23.4258C16.2178 23.2963 16.3396 23.1898 16.4804 23.1142C16.6923 23.0091 16.7457 23.0091 18.181 23.0198L19.6644 23.034L19.8691 23.1694Z" fill="black"/>
<path d="M24.4759 26.3125C24.3162 26.3651 24.1618 26.4324 24.0147 26.5137C23.6751 26.7574 23.403 27.0834 23.224 27.461L23.1083 27.746V41.7338L23.2276 42.0347C23.4526 42.5098 23.8352 42.8924 24.3103 43.1174C24.6077 43.2385 24.6326 43.2385 26.2923 43.2385C27.9519 43.2385 27.9751 43.2385 28.2725 43.1174C28.7476 42.8924 29.1301 42.5098 29.3551 42.0347L29.4745 41.7338V27.746L29.3551 27.4468C29.1302 26.9712 28.7477 26.588 28.2725 26.3623C27.9804 26.2484 27.9252 26.243 26.367 26.2323C24.9229 26.2234 24.7323 26.227 24.4759 26.3125ZM28.0374 27.4308C28.1682 27.5229 28.2751 27.645 28.349 27.7869L28.4541 28.0077V41.4827L28.349 41.7035C28.2751 41.8454 28.1682 41.9675 28.0374 42.0596L27.8326 42.195H24.7572L24.5525 42.0596C24.4195 41.9699 24.3121 41.8472 24.2408 41.7035L24.1429 41.4738L24.1536 34.6802L24.1678 27.892L24.3032 27.6872C24.3968 27.5577 24.5185 27.4512 24.6593 27.3756C24.8694 27.2705 24.9246 27.2705 26.3581 27.2812L27.8433 27.2954L28.0374 27.4308Z" fill="black"/>
<path d="M40.8695 26.3125C40.7098 26.3651 40.5554 26.4324 40.4083 26.5137C40.0689 26.758 39.7964 27.0838 39.6159 27.461L39.5019 27.746V41.7338L39.6212 42.0347C39.8462 42.5098 40.2288 42.8924 40.7039 43.1174C40.9995 43.2385 41.0244 43.2385 42.6841 43.2385C44.3438 43.2385 44.3687 43.2385 44.6643 43.1174C45.1402 42.8935 45.5231 42.5106 45.747 42.0347L45.8681 41.7338V27.746L45.747 27.4468C45.5232 26.9704 45.1403 26.5869 44.6643 26.3623C44.374 26.2484 44.3188 26.243 42.7607 26.2323C41.3165 26.2234 41.1259 26.227 40.8695 26.3125ZM44.431 27.4308C44.5619 27.5229 44.6687 27.645 44.7426 27.7869L44.8477 28.0077V41.4827L44.7426 41.7035C44.6687 41.8454 44.5619 41.9675 44.431 42.0596L44.2262 42.195H41.1509L40.9443 42.0596C40.8119 41.9698 40.7051 41.8471 40.6344 41.7035L40.5258 41.4738V34.6802L40.5418 27.892L40.6772 27.6872C40.7708 27.5577 40.8926 27.4512 41.0333 27.3756C41.2435 27.2705 41.2987 27.2705 42.7322 27.2812L44.2173 27.2954L44.431 27.4308Z" fill="black"/>
<path d="M32.5979 30.7248C32.4385 30.7773 32.2841 30.844 32.1367 30.9243C31.7973 31.1686 31.5248 31.4944 31.3443 31.8716L31.2303 32.1583V41.883L31.3496 42.1839C31.5792 42.6558 31.9604 43.037 32.4323 43.2666C32.7279 43.3877 32.7528 43.3877 34.4125 43.3877C36.0721 43.3877 36.0971 43.3877 36.3927 43.2666C36.8686 43.0427 37.2515 42.6598 37.4754 42.1839L37.5965 41.883V32.1583L37.4754 31.8574C37.251 31.3818 36.8682 30.9991 36.3927 30.7747C36.1024 30.6589 36.0472 30.6536 34.4873 30.6447C33.0466 30.634 32.8543 30.6393 32.5979 30.7248ZM36.1594 31.8431C36.2907 31.9347 36.3976 32.057 36.471 32.1993C36.5761 32.4183 36.5761 32.4343 36.5761 37.0269C36.5761 41.6194 36.5761 41.6337 36.471 41.8545C36.3971 41.9964 36.2903 42.1185 36.1594 42.2106L35.9546 42.346H32.8793L32.6727 42.2106C32.5403 42.1208 32.4335 41.9981 32.3628 41.8545L32.2578 41.6337L32.2667 36.9717L32.2827 32.315L32.418 32.1085C32.5108 31.9786 32.6328 31.8725 32.7742 31.7986C32.9843 31.6918 33.0395 31.6918 34.473 31.7024L35.9564 31.7185L36.1594 31.8431Z" fill="black"/>
</g>
<defs>
<clipPath id="clip0_12423_5378">
<rect width="30.9316" height="31.2041" fill="white" transform="translate(14.9364 12.1838)"/>
</clipPath>
</defs>
</svg>
