<svg width="20" height="21" viewBox="0 0 20 21" fill="none" xmlns="http://www.w3.org/2000/svg">
<g clip-path="url(#clip0_10874_4956)">
<rect x="0.273438" y="0.665283" width="19.7362" height="19.4925" rx="5.65969" fill="white"/>
<mask id="path-2-outside-1_10874_4956" maskUnits="userSpaceOnUse" x="5.26611" y="3.6355" width="12" height="13" fill="black">
<rect fill="white" x="5.26611" y="3.6355" width="12" height="13"/>
<path d="M9.66514 4.69809C9.4806 4.74744 9.30464 4.85474 9.16301 5.00709C9.0407 5.14013 8.92268 5.35043 8.90337 5.47703L8.89049 5.55643L8.6287 5.56501C8.41626 5.57145 8.35403 5.58218 8.28321 5.61866C8.16519 5.68089 8.02357 5.83754 7.99138 5.94268L7.96563 6.03066L7.37337 6.0371C6.78541 6.04354 6.78112 6.04354 6.6631 6.09933C6.51074 6.17229 6.39272 6.29031 6.32191 6.43837L6.26611 6.55854V10.8395V15.1205L6.32191 15.2385C6.39916 15.4037 6.46782 15.4767 6.62447 15.5625L6.75966 15.6355H9.93552H13.1114L13.2251 15.584C13.3646 15.5218 13.532 15.3437 13.5856 15.202C13.62 15.1098 13.6242 15.0025 13.6328 14.1699L13.6393 13.2429L13.7723 13.1764C13.8453 13.1399 13.9676 13.0648 14.0427 13.0133C14.1757 12.9167 14.1779 12.9167 14.2186 12.9575C14.2573 12.9961 14.2594 13.0025 14.2251 13.0691C14.18 13.157 14.18 13.3244 14.2229 13.406C14.2809 13.5132 15.9332 15.1462 16.0233 15.1849C16.3409 15.3158 16.7207 15.0668 16.7271 14.7257C16.7293 14.5282 16.7293 14.5304 15.8173 13.6098C15.328 13.1184 14.9268 12.7322 14.8881 12.715C14.7959 12.6764 14.6886 12.6764 14.5813 12.7193C14.5126 12.7472 14.489 12.7493 14.4633 12.7279C14.4182 12.6892 14.4204 12.6785 14.5298 12.5197C14.7873 12.1442 14.9032 11.7665 14.9032 11.3095C14.9032 10.7601 14.7036 10.2644 14.3259 9.86745C14.165 9.70007 13.8496 9.47046 13.7079 9.41896L13.6371 9.39321V8.07137C13.6371 7.33963 13.6285 6.69588 13.6157 6.62721C13.577 6.38687 13.429 6.18946 13.2122 6.09075C13.1178 6.04783 13.0685 6.04354 12.5148 6.03281L11.9161 6.02208L11.8882 5.93839C11.8475 5.82466 11.7531 5.71308 11.6307 5.63583C11.532 5.57574 11.5127 5.57145 11.2638 5.56287L11.002 5.55643L10.9763 5.45557C10.9097 5.18734 10.6715 4.89765 10.4183 4.77534C10.1694 4.65517 9.92694 4.62942 9.66514 4.69809ZM10.2316 5.06288C10.3647 5.12082 10.517 5.26888 10.5836 5.39764C10.6136 5.45772 10.6501 5.57789 10.6651 5.66587C10.7059 5.90191 10.7123 5.90406 11.1093 5.90406H11.4312L11.5041 5.97702L11.5771 6.04998V6.374V6.69802L11.5149 6.76669L11.4526 6.8375L9.97844 6.84394C8.69736 6.84823 8.4978 6.84394 8.43772 6.81604C8.32399 6.7624 8.30682 6.71519 8.29824 6.42121C8.28321 5.94268 8.31755 5.90406 8.77032 5.90406C8.94199 5.90406 9.08576 5.89333 9.11795 5.88045C9.17804 5.85256 9.20808 5.78604 9.22524 5.64012C9.27031 5.25816 9.59862 4.98778 9.98273 5.01138C10.0686 5.01567 10.178 5.03928 10.2316 5.06288ZM7.9549 6.56713C7.96777 6.80102 8.01927 6.91905 8.15876 7.04136C8.33686 7.19586 8.2918 7.19371 9.99131 7.18728L11.502 7.18084L11.62 7.11646C11.7488 7.04565 11.8646 6.91046 11.899 6.78815C11.9097 6.74523 11.9204 6.63365 11.9204 6.54138V6.37614H12.4612C13.0728 6.37614 13.1264 6.38687 13.2294 6.54138L13.2831 6.62077V7.94047V9.26232L13.1972 9.25159C13.15 9.24515 12.9569 9.24086 12.768 9.243C12.4612 9.24515 12.4054 9.25159 12.2359 9.30094C11.5127 9.52196 10.9741 10.0756 10.7939 10.7859C10.605 11.524 10.8046 12.2579 11.3389 12.7944C11.8067 13.2643 12.4311 13.4682 13.1393 13.3845L13.2959 13.3673L13.2895 14.2107C13.2831 15.0475 13.2831 15.0561 13.2337 15.1355C13.2058 15.1806 13.1479 15.2321 13.0921 15.2578C13.0019 15.3029 12.9934 15.3029 9.93981 15.3029C6.55366 15.3029 6.78541 15.3136 6.67168 15.1613L6.60945 15.0819L6.60301 10.8739L6.59872 6.66583L6.64593 6.56927C6.68241 6.49846 6.72103 6.45983 6.79185 6.42335C6.88197 6.37829 6.90987 6.37614 7.41629 6.37614H7.94417L7.9549 6.56713ZM13.326 9.63784C13.929 9.82882 14.3731 10.3052 14.5191 10.9211C14.5577 11.0756 14.562 11.1528 14.5534 11.376C14.5427 11.6914 14.5062 11.833 14.3796 12.0948C14.1607 12.539 13.7466 12.8781 13.2594 13.009C12.9977 13.0798 12.5964 13.0755 12.3432 12.9982C12.0191 12.9017 11.7852 12.7622 11.5642 12.5304C11.3411 12.3008 11.193 12.0369 11.1136 11.73C11.0599 11.5262 11.0599 11.097 11.1114 10.906C11.223 10.4919 11.4355 10.1679 11.7466 9.93182C11.9612 9.76659 12.1179 9.69149 12.4033 9.61424C12.6178 9.5563 13.1092 9.56703 13.326 9.63784ZM15.5748 13.8394C16.4417 14.7085 16.4332 14.6978 16.3387 14.8179C16.3066 14.8608 16.2765 14.8737 16.2164 14.8737C16.1413 14.8737 16.0984 14.8351 15.3216 14.0583L14.5083 13.2429L14.6135 13.1356C14.6714 13.0776 14.7294 13.0283 14.7422 13.0283C14.7551 13.0283 15.1285 13.3931 15.5748 13.8394Z"/>
</mask>
<path d="M9.66514 4.69809C9.4806 4.74744 9.30464 4.85474 9.16301 5.00709C9.0407 5.14013 8.92268 5.35043 8.90337 5.47703L8.89049 5.55643L8.6287 5.56501C8.41626 5.57145 8.35403 5.58218 8.28321 5.61866C8.16519 5.68089 8.02357 5.83754 7.99138 5.94268L7.96563 6.03066L7.37337 6.0371C6.78541 6.04354 6.78112 6.04354 6.6631 6.09933C6.51074 6.17229 6.39272 6.29031 6.32191 6.43837L6.26611 6.55854V10.8395V15.1205L6.32191 15.2385C6.39916 15.4037 6.46782 15.4767 6.62447 15.5625L6.75966 15.6355H9.93552H13.1114L13.2251 15.584C13.3646 15.5218 13.532 15.3437 13.5856 15.202C13.62 15.1098 13.6242 15.0025 13.6328 14.1699L13.6393 13.2429L13.7723 13.1764C13.8453 13.1399 13.9676 13.0648 14.0427 13.0133C14.1757 12.9167 14.1779 12.9167 14.2186 12.9575C14.2573 12.9961 14.2594 13.0025 14.2251 13.0691C14.18 13.157 14.18 13.3244 14.2229 13.406C14.2809 13.5132 15.9332 15.1462 16.0233 15.1849C16.3409 15.3158 16.7207 15.0668 16.7271 14.7257C16.7293 14.5282 16.7293 14.5304 15.8173 13.6098C15.328 13.1184 14.9268 12.7322 14.8881 12.715C14.7959 12.6764 14.6886 12.6764 14.5813 12.7193C14.5126 12.7472 14.489 12.7493 14.4633 12.7279C14.4182 12.6892 14.4204 12.6785 14.5298 12.5197C14.7873 12.1442 14.9032 11.7665 14.9032 11.3095C14.9032 10.7601 14.7036 10.2644 14.3259 9.86745C14.165 9.70007 13.8496 9.47046 13.7079 9.41896L13.6371 9.39321V8.07137C13.6371 7.33963 13.6285 6.69588 13.6157 6.62721C13.577 6.38687 13.429 6.18946 13.2122 6.09075C13.1178 6.04783 13.0685 6.04354 12.5148 6.03281L11.9161 6.02208L11.8882 5.93839C11.8475 5.82466 11.7531 5.71308 11.6307 5.63583C11.532 5.57574 11.5127 5.57145 11.2638 5.56287L11.002 5.55643L10.9763 5.45557C10.9097 5.18734 10.6715 4.89765 10.4183 4.77534C10.1694 4.65517 9.92694 4.62942 9.66514 4.69809ZM10.2316 5.06288C10.3647 5.12082 10.517 5.26888 10.5836 5.39764C10.6136 5.45772 10.6501 5.57789 10.6651 5.66587C10.7059 5.90191 10.7123 5.90406 11.1093 5.90406H11.4312L11.5041 5.97702L11.5771 6.04998V6.374V6.69802L11.5149 6.76669L11.4526 6.8375L9.97844 6.84394C8.69736 6.84823 8.4978 6.84394 8.43772 6.81604C8.32399 6.7624 8.30682 6.71519 8.29824 6.42121C8.28321 5.94268 8.31755 5.90406 8.77032 5.90406C8.94199 5.90406 9.08576 5.89333 9.11795 5.88045C9.17804 5.85256 9.20808 5.78604 9.22524 5.64012C9.27031 5.25816 9.59862 4.98778 9.98273 5.01138C10.0686 5.01567 10.178 5.03928 10.2316 5.06288ZM7.9549 6.56713C7.96777 6.80102 8.01927 6.91905 8.15876 7.04136C8.33686 7.19586 8.2918 7.19371 9.99131 7.18728L11.502 7.18084L11.62 7.11646C11.7488 7.04565 11.8646 6.91046 11.899 6.78815C11.9097 6.74523 11.9204 6.63365 11.9204 6.54138V6.37614H12.4612C13.0728 6.37614 13.1264 6.38687 13.2294 6.54138L13.2831 6.62077V7.94047V9.26232L13.1972 9.25159C13.15 9.24515 12.9569 9.24086 12.768 9.243C12.4612 9.24515 12.4054 9.25159 12.2359 9.30094C11.5127 9.52196 10.9741 10.0756 10.7939 10.7859C10.605 11.524 10.8046 12.2579 11.3389 12.7944C11.8067 13.2643 12.4311 13.4682 13.1393 13.3845L13.2959 13.3673L13.2895 14.2107C13.2831 15.0475 13.2831 15.0561 13.2337 15.1355C13.2058 15.1806 13.1479 15.2321 13.0921 15.2578C13.0019 15.3029 12.9934 15.3029 9.93981 15.3029C6.55366 15.3029 6.78541 15.3136 6.67168 15.1613L6.60945 15.0819L6.60301 10.8739L6.59872 6.66583L6.64593 6.56927C6.68241 6.49846 6.72103 6.45983 6.79185 6.42335C6.88197 6.37829 6.90987 6.37614 7.41629 6.37614H7.94417L7.9549 6.56713ZM13.326 9.63784C13.929 9.82882 14.3731 10.3052 14.5191 10.9211C14.5577 11.0756 14.562 11.1528 14.5534 11.376C14.5427 11.6914 14.5062 11.833 14.3796 12.0948C14.1607 12.539 13.7466 12.8781 13.2594 13.009C12.9977 13.0798 12.5964 13.0755 12.3432 12.9982C12.0191 12.9017 11.7852 12.7622 11.5642 12.5304C11.3411 12.3008 11.193 12.0369 11.1136 11.73C11.0599 11.5262 11.0599 11.097 11.1114 10.906C11.223 10.4919 11.4355 10.1679 11.7466 9.93182C11.9612 9.76659 12.1179 9.69149 12.4033 9.61424C12.6178 9.5563 13.1092 9.56703 13.326 9.63784ZM15.5748 13.8394C16.4417 14.7085 16.4332 14.6978 16.3387 14.8179C16.3066 14.8608 16.2765 14.8737 16.2164 14.8737C16.1413 14.8737 16.0984 14.8351 15.3216 14.0583L14.5083 13.2429L14.6135 13.1356C14.6714 13.0776 14.7294 13.0283 14.7422 13.0283C14.7551 13.0283 15.1285 13.3931 15.5748 13.8394Z" fill="#0D152C"/>
<path d="M9.66514 4.69809C9.4806 4.74744 9.30464 4.85474 9.16301 5.00709C9.0407 5.14013 8.92268 5.35043 8.90337 5.47703L8.89049 5.55643L8.6287 5.56501C8.41626 5.57145 8.35403 5.58218 8.28321 5.61866C8.16519 5.68089 8.02357 5.83754 7.99138 5.94268L7.96563 6.03066L7.37337 6.0371C6.78541 6.04354 6.78112 6.04354 6.6631 6.09933C6.51074 6.17229 6.39272 6.29031 6.32191 6.43837L6.26611 6.55854V10.8395V15.1205L6.32191 15.2385C6.39916 15.4037 6.46782 15.4767 6.62447 15.5625L6.75966 15.6355H9.93552H13.1114L13.2251 15.584C13.3646 15.5218 13.532 15.3437 13.5856 15.202C13.62 15.1098 13.6242 15.0025 13.6328 14.1699L13.6393 13.2429L13.7723 13.1764C13.8453 13.1399 13.9676 13.0648 14.0427 13.0133C14.1757 12.9167 14.1779 12.9167 14.2186 12.9575C14.2573 12.9961 14.2594 13.0025 14.2251 13.0691C14.18 13.157 14.18 13.3244 14.2229 13.406C14.2809 13.5132 15.9332 15.1462 16.0233 15.1849C16.3409 15.3158 16.7207 15.0668 16.7271 14.7257C16.7293 14.5282 16.7293 14.5304 15.8173 13.6098C15.328 13.1184 14.9268 12.7322 14.8881 12.715C14.7959 12.6764 14.6886 12.6764 14.5813 12.7193C14.5126 12.7472 14.489 12.7493 14.4633 12.7279C14.4182 12.6892 14.4204 12.6785 14.5298 12.5197C14.7873 12.1442 14.9032 11.7665 14.9032 11.3095C14.9032 10.7601 14.7036 10.2644 14.3259 9.86745C14.165 9.70007 13.8496 9.47046 13.7079 9.41896L13.6371 9.39321V8.07137C13.6371 7.33963 13.6285 6.69588 13.6157 6.62721C13.577 6.38687 13.429 6.18946 13.2122 6.09075C13.1178 6.04783 13.0685 6.04354 12.5148 6.03281L11.9161 6.02208L11.8882 5.93839C11.8475 5.82466 11.7531 5.71308 11.6307 5.63583C11.532 5.57574 11.5127 5.57145 11.2638 5.56287L11.002 5.55643L10.9763 5.45557C10.9097 5.18734 10.6715 4.89765 10.4183 4.77534C10.1694 4.65517 9.92694 4.62942 9.66514 4.69809ZM10.2316 5.06288C10.3647 5.12082 10.517 5.26888 10.5836 5.39764C10.6136 5.45772 10.6501 5.57789 10.6651 5.66587C10.7059 5.90191 10.7123 5.90406 11.1093 5.90406H11.4312L11.5041 5.97702L11.5771 6.04998V6.374V6.69802L11.5149 6.76669L11.4526 6.8375L9.97844 6.84394C8.69736 6.84823 8.4978 6.84394 8.43772 6.81604C8.32399 6.7624 8.30682 6.71519 8.29824 6.42121C8.28321 5.94268 8.31755 5.90406 8.77032 5.90406C8.94199 5.90406 9.08576 5.89333 9.11795 5.88045C9.17804 5.85256 9.20808 5.78604 9.22524 5.64012C9.27031 5.25816 9.59862 4.98778 9.98273 5.01138C10.0686 5.01567 10.178 5.03928 10.2316 5.06288ZM7.9549 6.56713C7.96777 6.80102 8.01927 6.91905 8.15876 7.04136C8.33686 7.19586 8.2918 7.19371 9.99131 7.18728L11.502 7.18084L11.62 7.11646C11.7488 7.04565 11.8646 6.91046 11.899 6.78815C11.9097 6.74523 11.9204 6.63365 11.9204 6.54138V6.37614H12.4612C13.0728 6.37614 13.1264 6.38687 13.2294 6.54138L13.2831 6.62077V7.94047V9.26232L13.1972 9.25159C13.15 9.24515 12.9569 9.24086 12.768 9.243C12.4612 9.24515 12.4054 9.25159 12.2359 9.30094C11.5127 9.52196 10.9741 10.0756 10.7939 10.7859C10.605 11.524 10.8046 12.2579 11.3389 12.7944C11.8067 13.2643 12.4311 13.4682 13.1393 13.3845L13.2959 13.3673L13.2895 14.2107C13.2831 15.0475 13.2831 15.0561 13.2337 15.1355C13.2058 15.1806 13.1479 15.2321 13.0921 15.2578C13.0019 15.3029 12.9934 15.3029 9.93981 15.3029C6.55366 15.3029 6.78541 15.3136 6.67168 15.1613L6.60945 15.0819L6.60301 10.8739L6.59872 6.66583L6.64593 6.56927C6.68241 6.49846 6.72103 6.45983 6.79185 6.42335C6.88197 6.37829 6.90987 6.37614 7.41629 6.37614H7.94417L7.9549 6.56713ZM13.326 9.63784C13.929 9.82882 14.3731 10.3052 14.5191 10.9211C14.5577 11.0756 14.562 11.1528 14.5534 11.376C14.5427 11.6914 14.5062 11.833 14.3796 12.0948C14.1607 12.539 13.7466 12.8781 13.2594 13.009C12.9977 13.0798 12.5964 13.0755 12.3432 12.9982C12.0191 12.9017 11.7852 12.7622 11.5642 12.5304C11.3411 12.3008 11.193 12.0369 11.1136 11.73C11.0599 11.5262 11.0599 11.097 11.1114 10.906C11.223 10.4919 11.4355 10.1679 11.7466 9.93182C11.9612 9.76659 12.1179 9.69149 12.4033 9.61424C12.6178 9.5563 13.1092 9.56703 13.326 9.63784ZM15.5748 13.8394C16.4417 14.7085 16.4332 14.6978 16.3387 14.8179C16.3066 14.8608 16.2765 14.8737 16.2164 14.8737C16.1413 14.8737 16.0984 14.8351 15.3216 14.0583L14.5083 13.2429L14.6135 13.1356C14.6714 13.0776 14.7294 13.0283 14.7422 13.0283C14.7551 13.0283 15.1285 13.3931 15.5748 13.8394Z" stroke="#0D152C" stroke-width="0.199759" mask="url(#path-2-outside-1_10874_4956)"/>
<path d="M7.54168 11.1137L7.536 11.1028L7.631 8.42111C7.67821 8.3224 7.77048 8.24086 7.87563 8.20438L7.85918 8.15723C7.85921 8.15722 7.85923 8.15721 7.85926 8.1572C7.86732 8.1544 7.87671 8.15292 7.88369 8.15197C7.89186 8.15086 7.90174 8.14985 7.91292 8.14893C7.93535 8.14708 7.96491 8.14538 8.0003 8.14384C8.07117 8.14073 8.16709 8.13812 8.27955 8.13601C8.50456 8.13178 8.79691 8.1295 9.08987 8.12923C9.38282 8.12896 9.67665 8.1307 9.9046 8.13453C10.0185 8.13645 10.1163 8.13889 10.1893 8.14187C10.2258 8.14336 10.2565 8.145 10.2802 8.14681C10.3018 8.14847 10.3225 8.15056 10.3353 8.15412L10.3353 8.15412L10.3357 8.15425C10.4028 8.17361 10.4738 8.22394 10.5308 8.28092C10.5877 8.3379 10.6381 8.40884 10.6574 8.47594L10.6576 8.47641C10.6612 8.48934 10.6632 8.51071 10.6649 8.53328C10.6667 8.55794 10.6684 8.59017 10.6699 8.62863C10.6729 8.70564 10.6755 8.80907 10.6775 8.92992C10.6815 9.1717 10.6835 9.48421 10.6835 9.7966C10.6835 10.109 10.6815 10.4215 10.6775 10.6633C10.6755 10.7841 10.6729 10.8876 10.6699 10.9646C10.6684 11.003 10.6667 11.0353 10.6649 11.0599C10.6632 11.0825 10.6612 11.1039 10.6576 11.1168L10.6575 11.1171C10.6494 11.1453 10.6332 11.1794 10.6148 11.2111C10.5962 11.2432 10.5733 11.2763 10.5499 11.3022L10.5497 11.3024C10.5465 11.3059 10.5433 11.3094 10.5401 11.3129C10.5103 11.3456 10.4815 11.3773 10.4397 11.401C10.3928 11.4275 10.3335 11.4424 10.2424 11.4517C10.0676 11.4694 9.75205 11.4679 9.12649 11.4648C9.10536 11.4647 9.08388 11.4646 9.06204 11.4645L9.06201 11.4645L7.86892 11.4581L7.85337 11.458L7.84062 11.4491L7.74834 11.3847L7.74833 11.3847L7.74723 11.3839C7.6929 11.3438 7.62326 11.2676 7.59138 11.2088L7.59138 11.2088L7.59103 11.2081L7.54168 11.1137ZM10.2398 9.79875C10.2398 9.26307 10.2387 8.96079 10.2339 8.78864C10.2315 8.70223 10.2282 8.65058 10.2239 8.61922C10.222 8.60491 10.22 8.59677 10.2188 8.59254C10.2148 8.59135 10.2074 8.58953 10.1946 8.58769C10.1655 8.5835 10.1175 8.5802 10.0371 8.57779C9.87714 8.57299 9.59691 8.57191 9.10091 8.57191C8.67921 8.57191 8.3981 8.57352 8.22009 8.57753C8.13095 8.57954 8.06852 8.58213 8.02752 8.58533C8.0156 8.58627 8.0059 8.58722 7.99813 8.58817C7.99632 8.60661 7.99458 8.63298 7.99293 8.66664C7.98955 8.73589 7.98671 8.83334 7.98443 8.9499C7.97988 9.18289 7.9776 9.49074 7.9776 9.79875C7.9776 10.1068 7.97988 10.4146 7.98443 10.6476C7.98671 10.7642 7.98955 10.8616 7.99293 10.9309C7.99458 10.9645 7.99632 10.9909 7.99813 11.0093C8.0059 11.0103 8.0156 11.0112 8.02752 11.0122C8.06852 11.0154 8.13095 11.018 8.22009 11.02C8.3981 11.024 8.67921 11.0256 9.10091 11.0256C9.59691 11.0256 9.87714 11.0245 10.0371 11.0197C10.1175 11.0173 10.1655 11.014 10.1946 11.0098C10.2074 11.008 10.2148 11.0061 10.2188 11.005C10.22 11.0007 10.222 10.9926 10.2239 10.9783C10.2282 10.9469 10.2315 10.8953 10.2339 10.8089C10.2387 10.6367 10.2398 10.3344 10.2398 9.79875Z" fill="#0D152C" stroke="#0D152C" stroke-width="0.0998797"/>
<path d="M8.97248 8.74454C8.8049 8.80684 8.69533 8.95724 8.69533 9.13341C8.69104 9.58888 9.32483 9.70919 9.48811 9.2838C9.61057 8.96368 9.29045 8.62852 8.97248 8.74454ZM9.17444 9.12911C9.17444 9.16563 9.13147 9.2086 9.09494 9.2086C9.0799 9.2086 9.05842 9.18927 9.04553 9.16778C9.01545 9.10763 9.07346 9.04962 9.13362 9.0797C9.1551 9.09259 9.17444 9.11407 9.17444 9.12911Z" fill="#0D152C"/>
<path d="M8.97248 8.74454C8.8049 8.80684 8.69533 8.95724 8.69533 9.13341C8.69104 9.58888 9.32483 9.70919 9.48811 9.2838C9.61057 8.96368 9.29045 8.62852 8.97248 8.74454ZM9.17444 9.12911C9.17444 9.16563 9.13147 9.2086 9.09494 9.2086C9.0799 9.2086 9.05842 9.18927 9.04553 9.16778C9.01545 9.10763 9.07346 9.04962 9.13362 9.0797C9.1551 9.09259 9.17444 9.11407 9.17444 9.12911Z" stroke="#0D152C"/>
<path d="M8.99995 9.6808C8.77035 9.71943 8.53859 9.91041 8.42057 10.1593C8.3047 10.4082 8.3004 10.5778 8.4077 10.7194C8.51284 10.8546 8.57507 10.8718 9.05789 10.8782C9.54285 10.8868 9.62869 10.8739 9.74671 10.7688C9.89263 10.64 9.91408 10.5134 9.82825 10.2709C9.68448 9.86105 9.35187 9.62501 8.99995 9.6808ZM9.29179 10.0756C9.42054 10.1593 9.57933 10.4791 9.51496 10.5198C9.49779 10.5306 9.30895 10.5391 9.09222 10.5391C8.75532 10.5391 8.69953 10.5349 8.68666 10.5048C8.65662 10.4233 8.77893 10.1829 8.90124 10.0864C9.01283 10.0005 9.17162 9.99624 9.29179 10.0756Z" fill="#0D152C"/>
<path d="M8.99995 9.6808C8.77035 9.71943 8.53859 9.91041 8.42057 10.1593C8.3047 10.4082 8.3004 10.5778 8.4077 10.7194C8.51284 10.8546 8.57507 10.8718 9.05789 10.8782C9.54285 10.8868 9.62869 10.8739 9.74671 10.7688C9.89263 10.64 9.91408 10.5134 9.82825 10.2709C9.68448 9.86105 9.35187 9.62501 8.99995 9.6808ZM9.29179 10.0756C9.42054 10.1593 9.57933 10.4791 9.51496 10.5198C9.49779 10.5306 9.30895 10.5391 9.09222 10.5391C8.75532 10.5391 8.69953 10.5349 8.68666 10.5048C8.65662 10.4233 8.77893 10.1829 8.90124 10.0864C9.01283 10.0005 9.17162 9.99624 9.29179 10.0756Z" stroke="#0D152C"/>
<path d="M11.0804 8.19085L11.0804 8.19085L11.0811 8.19032L11.1411 8.13882L11.1554 8.12657L11.1743 8.1268L11.7 8.13324L11.7 8.13324L11.7075 8.13333C11.9628 8.13647 12.0955 8.1381 12.1687 8.14556C12.2057 8.14932 12.234 8.15504 12.2568 8.16693C12.2807 8.17936 12.2942 8.19645 12.3041 8.20889C12.3043 8.20923 12.3046 8.20956 12.3049 8.20988C12.3762 8.2979 12.3711 8.42316 12.2884 8.50379L12.2375 8.5568L12.2228 8.57216H12.2015H11.6779H11.1543H11.1324L11.1176 8.55603L11.0684 8.5026C11.0251 8.45659 11.0025 8.40058 11.0046 8.34329C11.0068 8.28584 11.0338 8.23215 11.0804 8.19085Z" fill="#0D152C" stroke="#0D152C" stroke-width="0.0998797"/>
<path d="M7.65848 12.4931L7.6585 12.4932C7.52337 12.5674 7.48957 12.7399 7.60087 12.8456M7.65848 12.4931L7.63532 12.8095M7.65848 12.4931L7.6602 12.4923C7.66938 12.4877 7.67949 12.4859 7.68449 12.485C7.69129 12.4839 7.69935 12.4829 7.7083 12.482C7.72631 12.4803 7.75071 12.4788 7.78145 12.4774C7.8431 12.4748 7.9327 12.4727 8.05288 12.4712C8.29338 12.4682 8.65797 12.4677 9.16982 12.4699M7.65848 12.4931L9.16982 12.4699M7.60087 12.8456C7.6009 12.8457 7.60093 12.8457 7.60095 12.8457L7.63532 12.8095M7.60087 12.8456L7.6008 12.8456L7.63532 12.8095M7.60087 12.8456L7.65016 12.8928L7.66464 12.9066H7.68468H9.1503H10.6138H10.6351L10.6498 12.8913L10.7007 12.8383M7.63532 12.8095L7.68468 12.8567H9.1503H10.6138L10.6653 12.803M10.7007 12.8383C10.7005 12.8385 10.7002 12.8387 10.7 12.8389L10.6653 12.803M10.7007 12.8383L10.7013 12.8376L10.6653 12.803M10.7007 12.8383C10.7414 12.7985 10.7666 12.7513 10.767 12.698C10.7674 12.6452 10.7434 12.5959 10.7053 12.5516C10.7053 12.5516 10.7053 12.5516 10.7053 12.5516L10.6674 12.5842C10.7339 12.6614 10.7339 12.7365 10.6653 12.803M9.16982 12.4699L9.16961 12.5197L9.16976 12.4699L9.16982 12.4699ZM10.6159 12.5241L9.16961 12.5198C8.14604 12.5155 7.71257 12.5219 7.68253 12.537L10.6159 12.5241Z" fill="#0D152C" stroke="#0D152C" stroke-width="0.0998797"/>
<path d="M7.64338 14.3551L7.66745 14.3552L9.89699 14.3616L9.89705 14.3616C10.5097 14.3627 11.072 14.3627 11.4844 14.3616C11.6906 14.3611 11.8593 14.3603 11.9782 14.3592C12.0376 14.3587 12.0847 14.3581 12.1179 14.3574C12.1344 14.3571 12.1477 14.3567 12.1574 14.3563L12.1699 14.3557L12.1703 14.3556C12.1722 14.3555 12.1778 14.3551 12.1831 14.3539C12.1833 14.3538 12.1836 14.3538 12.1839 14.3537L12.1717 14.3053C12.3005 14.2752 12.3477 14.1186 12.2533 14.0263L7.64338 14.3551ZM7.64338 14.3551L7.62844 14.3363L7.5878 14.2849C7.51931 14.1998 7.5213 14.0692 7.59653 13.9882L7.64144 13.939L7.6563 13.9227H7.67832H9.94005H12.2018H12.2231L12.2378 13.9381L12.2888 13.9912L7.64338 14.3551Z" fill="#0D152C" stroke="#0D152C" stroke-width="0.0998797"/>
</g>
<defs>
<clipPath id="clip0_10874_4956">
<rect x="0.273438" y="0.665283" width="19.7362" height="19.4925" rx="5.65969" fill="white"/>
</clipPath>
</defs>
</svg>
