<svg width="20" height="21" viewBox="0 0 20 21" fill="none" xmlns="http://www.w3.org/2000/svg">
<g clip-path="url(#clip0_10874_5017)">
<rect x="0.0751953" y="0.606201" width="19.7362" height="19.4925" rx="5.65969" fill="white"/>
<path d="M12.1658 10.8929H11.231L11.433 10.1536C11.521 9.83101 11.4592 9.49272 11.2636 9.22554C11.0679 8.95797 10.7694 8.80469 10.4449 8.80469C10.112 8.80469 9.79871 8.97249 9.60636 9.25344L8.4859 10.8929H7.42795C6.87752 10.8929 6.42993 11.3554 6.42993 11.9242V14.8147C6.42993 15.3834 6.87752 15.846 7.42795 15.846H11.5528C12.1306 15.846 12.6415 15.4442 12.795 14.8689L13.4079 12.5801C13.5159 12.1757 13.4372 11.7522 13.1912 11.4181C12.9459 11.0844 12.5719 10.8929 12.1658 10.8929ZM7.09614 14.8147V11.9242C7.09614 11.735 7.24522 11.5809 7.42832 11.5809H8.32647V15.1579H7.42832C7.24522 15.1579 7.09614 15.0039 7.09614 14.8147ZM12.7669 12.3966L12.1539 14.6855C12.0796 14.9637 11.8325 15.1579 11.5532 15.1579H8.99231V11.3454L10.1505 9.65059C10.284 9.45526 10.5933 9.45029 10.7327 9.64065C10.8015 9.73468 10.8234 9.85356 10.7923 9.9667L10.4705 11.1436C10.442 11.2472 10.4627 11.3588 10.5252 11.4448C10.5881 11.5308 10.6865 11.5813 10.7908 11.5813H12.1658C12.3622 11.5813 12.5431 11.6738 12.6618 11.8355C12.7806 11.9972 12.819 12.2009 12.7669 12.3966Z" fill="#0D152C"/>
<path d="M6.83654 9.74617C6.94234 9.74617 7.04776 9.71215 7.13728 9.6445C7.29634 9.52524 7.37439 9.32685 7.3411 9.12656L7.24863 8.56925L7.64036 8.17478C7.78093 8.03297 7.83087 7.82503 7.7702 7.63238C7.70953 7.43897 7.55084 7.30098 7.35627 7.27154L6.81472 7.19051L6.57317 6.68366C6.48587 6.50133 6.30979 6.38818 6.11337 6.38818C5.91695 6.38818 5.74087 6.50133 5.65357 6.68366L5.41165 7.19051L4.87047 7.27154C4.67589 7.30098 4.5172 7.43897 4.45654 7.63238C4.39587 7.82541 4.44581 8.03335 4.58638 8.17478L4.97811 8.56925L4.88563 9.12656C4.85271 9.32685 4.93076 9.52524 5.08945 9.6445C5.24815 9.76376 5.4553 9.77943 5.62915 9.68463L6.11337 9.42165L6.59795 9.68463C6.67341 9.72591 6.75516 9.74617 6.83654 9.74617ZM6.113 8.71298C6.03125 8.71298 5.94913 8.73323 5.87441 8.77413L5.59401 8.92627L5.64765 8.60404C5.6765 8.43165 5.62139 8.25581 5.50043 8.13464L5.2733 7.90645L5.58698 7.85943C5.75381 7.83458 5.89808 7.72603 5.9728 7.56969L6.11337 7.27575L6.25356 7.57007C6.32829 7.72603 6.47255 7.8342 6.63938 7.85943L6.95307 7.90645L6.72668 8.13464C6.60498 8.25658 6.54986 8.43203 6.57872 8.60404L6.63235 8.92703L6.35233 8.7749C6.27761 8.73362 6.19549 8.71298 6.113 8.71298Z" fill="#0D152C"/>
<path d="M8.8077 7.0402L8.71522 7.59751C8.6823 7.7978 8.76035 7.99619 8.91904 8.11545C9.07774 8.2347 9.28489 8.25038 9.45874 8.15558L9.94296 7.8926L10.4275 8.15558C10.503 8.19648 10.5848 8.21674 10.6661 8.21674C10.7719 8.21674 10.8774 8.18272 10.9669 8.11506C11.1259 7.9958 11.204 7.79742 11.1707 7.59713L11.0782 7.03982L11.47 6.64534C11.6105 6.50353 11.6605 6.29559 11.5998 6.10294C11.5391 5.90991 11.3804 5.77154 11.1859 5.74211L10.6447 5.66107L10.4028 5.15422C10.3155 4.97227 10.1394 4.85913 9.94296 4.85913C9.74654 4.85913 9.57046 4.97189 9.48316 5.15422L9.24124 5.66107L8.70006 5.74249C8.50548 5.77192 8.34679 5.90991 8.28613 6.10333C8.22546 6.29636 8.2754 6.5043 8.41597 6.64573L8.8077 7.0402ZM9.41694 6.33038C9.58377 6.30553 9.72804 6.19698 9.80276 6.04064L9.94296 5.7467L10.0832 6.04102C10.1579 6.19698 10.3021 6.30515 10.469 6.33038L10.783 6.37739L10.5566 6.60559C10.4349 6.72753 10.3798 6.90298 10.4087 7.07498L10.4623 7.39798L10.1823 7.24585C10.1072 7.20456 10.0251 7.18392 9.94296 7.18392C9.86121 7.18392 9.77909 7.20418 9.70437 7.24508L9.42397 7.39721L9.47761 7.07498C9.50646 6.90259 9.45135 6.72676 9.33039 6.60559L9.10289 6.37739L9.41694 6.33038Z" fill="#0D152C"/>
<path d="M15.4297 7.63224C15.3691 7.43921 15.2104 7.30084 15.0158 7.27141L14.4746 7.19037L14.2327 6.68352C14.1458 6.50119 13.9697 6.38843 13.7729 6.38843C13.5761 6.38843 13.4004 6.50119 13.3131 6.68352L13.0712 7.19037L12.5296 7.27141C12.3351 7.30084 12.1764 7.43883 12.1157 7.63224C12.0551 7.82527 12.105 8.03321 12.2456 8.17464L12.6373 8.56911L12.5448 9.12642C12.5119 9.32672 12.5899 9.5251 12.7486 9.64436C12.9073 9.76362 13.1145 9.77929 13.2883 9.6845L13.7725 9.42151L14.2571 9.6845C14.3326 9.72539 14.4143 9.74565 14.4957 9.74565C14.6015 9.74565 14.7069 9.71163 14.7965 9.64398C14.9555 9.52472 15.0336 9.32634 15.0003 9.12604L14.9078 8.56873L15.2995 8.17426C15.4405 8.03321 15.4904 7.82527 15.4297 7.63224ZM14.3866 8.13412C14.2649 8.25606 14.2098 8.43151 14.2386 8.60352L14.2923 8.92651L14.0123 8.77438C13.9375 8.73348 13.8554 8.71322 13.7733 8.71322C13.6915 8.71322 13.6094 8.73348 13.5347 8.77438L13.2543 8.92651L13.3079 8.60428C13.3368 8.43189 13.2817 8.25606 13.1607 8.13489L12.9332 7.90631L13.2469 7.85929C13.4137 7.83445 13.558 7.72589 13.6327 7.56955L13.7729 7.27599L13.9131 7.57032C13.9878 7.72627 14.1321 7.83445 14.2989 7.85967L14.613 7.90631L14.3866 8.13412Z" fill="#0D152C"/>
</g>
<defs>
<clipPath id="clip0_10874_5017">
<rect x="0.0751953" y="0.606201" width="19.7362" height="19.4925" rx="5.65969" fill="white"/>
</clipPath>
</defs>
</svg>
