<svg width="18" height="19" viewBox="0 0 18 19" fill="none" xmlns="http://www.w3.org/2000/svg">
<g clip-path="url(#clip0_10874_5117)">
<rect x="0.0932617" y="0.505127" width="17.9162" height="17.6949" rx="5.13776" fill="white"/>
<g clip-path="url(#clip1_10874_5117)">
<path d="M4.54072 6.30466C4.56047 6.31229 4.58022 6.31993 4.60057 6.3278C4.66445 6.35259 4.72815 6.37782 4.79185 6.40309C4.83574 6.4203 4.87964 6.43749 4.92355 6.45467C5.03127 6.49695 5.13881 6.53963 5.2463 6.58249C5.29979 6.60378 5.35334 6.62492 5.40691 6.64599C5.49052 6.67897 5.57392 6.7124 5.65723 6.74612C5.68095 6.7555 5.70466 6.76489 5.7291 6.77456C5.87195 6.83364 5.9845 6.89264 6.05689 7.03692C6.06513 7.06432 6.06513 7.06432 6.07355 7.09227C6.07937 7.11054 6.08519 7.1288 6.09119 7.14762C6.10424 7.2096 6.10529 7.26612 6.10318 7.32928C6.17429 7.3617 6.24553 7.39384 6.31679 7.42595C6.33675 7.43505 6.3567 7.44415 6.37726 7.45353C6.78008 7.63439 7.1177 7.59331 7.53232 7.48374C7.95191 7.37452 8.4607 7.38648 8.86147 7.56004C8.99029 7.6158 9.07421 7.59981 9.20831 7.56092C9.75075 7.41136 10.3472 7.46426 10.8456 7.73244C11.0562 7.84032 11.3047 7.79233 11.5215 7.72376C11.6706 7.67407 11.8159 7.61535 11.9595 7.55176C12.0158 7.52886 12.0158 7.52886 12.0657 7.52886C12.0597 7.51194 12.0538 7.49503 12.0476 7.4776C11.9943 7.31019 11.9729 7.17131 12.0408 7.00495C12.119 6.87844 12.212 6.83848 12.3448 6.7851C12.3772 6.77164 12.3772 6.77164 12.4102 6.75791C12.7629 6.61292 13.1192 6.47624 13.4747 6.33838C13.495 6.33049 13.5153 6.3226 13.5363 6.31447C13.5551 6.30719 13.5739 6.29992 13.5933 6.29243C13.6097 6.28607 13.6261 6.27971 13.643 6.27316C13.7803 6.22161 13.8857 6.21571 14.0272 6.25963C14.2241 6.369 14.2817 6.54851 14.359 6.74953C14.3704 6.77854 14.3818 6.80756 14.3936 6.83745C14.4244 6.91592 14.455 6.99447 14.4854 7.07307C14.5172 7.15497 14.5494 7.23674 14.5815 7.31852C14.6333 7.45057 14.6849 7.58269 14.7365 7.71486C14.8299 7.95437 14.9245 8.19342 15.0192 8.43243C15.0445 8.49624 15.0697 8.56007 15.0949 8.6239C15.1027 8.64382 15.1106 8.66374 15.1187 8.68426C15.134 8.7231 15.1493 8.76194 15.1646 8.8008C15.2054 8.90431 15.247 9.00743 15.2895 9.11026C15.2987 9.13267 15.3079 9.15507 15.3173 9.17816C15.3349 9.22105 15.3527 9.26387 15.3707 9.30661C15.4343 9.46211 15.4714 9.60615 15.4337 9.77417C15.3468 9.95446 15.2023 10.0341 15.0207 10.1019C15.0025 10.1089 14.9842 10.1159 14.9655 10.1231C14.9064 10.1458 14.8473 10.1682 14.7882 10.1905C14.7475 10.206 14.7068 10.2216 14.6662 10.2371C14.6052 10.2605 14.5443 10.2838 14.4833 10.307C14.365 10.3521 14.247 10.3979 14.1294 10.4448C14.1033 10.4552 14.0771 10.4656 14.0502 10.4763C14.0031 10.4952 13.9559 10.5141 13.9089 10.5331C13.7257 10.6058 13.5768 10.6483 13.388 10.5725C13.3663 10.554 13.3447 10.5355 13.3225 10.5164C13.3029 10.502 13.2834 10.4876 13.2632 10.4727C13.1382 10.5041 13.0214 10.5617 12.9042 10.6148C12.864 10.6328 12.8238 10.6509 12.7836 10.6689C12.7206 10.6972 12.6576 10.7256 12.5947 10.754C12.5336 10.7815 12.4726 10.8088 12.4115 10.8362C12.3926 10.8448 12.3736 10.8534 12.3542 10.8622C12.221 10.9218 12.221 10.9218 12.1655 10.9218C12.164 10.9526 12.164 10.9526 12.1624 10.9841C12.1213 11.1484 12.0052 11.277 11.8661 11.3708C11.7604 11.4306 11.6585 11.4652 11.5418 11.4956C11.543 11.5161 11.5441 11.5366 11.5453 11.5577C11.5534 11.807 11.5227 11.9904 11.3516 12.1785C11.2162 12.3028 11.0626 12.3737 10.8776 12.375C10.8498 12.3729 10.822 12.3709 10.7934 12.3687C10.7945 12.3875 10.7957 12.4062 10.7969 12.4255C10.8054 12.6668 10.7685 12.8462 10.6016 13.0267C10.4778 13.1406 10.3495 13.2114 10.1806 13.2232C10.1605 13.2212 10.1405 13.2191 10.1198 13.217C10.1249 13.2489 10.1301 13.2808 10.1354 13.3136C10.1574 13.5236 10.1135 13.6933 9.98949 13.8645C9.83693 14.0399 9.66562 14.1205 9.43664 14.1392C9.27003 14.1414 9.13209 14.0903 8.98787 14.0104C8.94733 13.9867 8.94733 13.9867 8.89734 13.9904C8.87133 14.0201 8.84659 14.051 8.82249 14.0824C8.69448 14.2318 8.54203 14.3114 8.34692 14.3381C8.13678 14.3489 7.9646 14.2961 7.79963 14.165C7.66755 14.0454 7.60714 13.9075 7.55015 13.7409C7.52545 13.7491 7.50076 13.7573 7.47531 13.7658C7.22818 13.787 7.04527 13.751 6.8329 13.6255C6.71592 13.502 6.63695 13.3504 6.57718 13.192C6.55644 13.198 6.55644 13.198 6.53528 13.204C6.32787 13.2505 6.13839 13.2186 5.95349 13.1172C5.80514 13.022 5.72993 12.8992 5.65411 12.743C5.64008 12.7149 5.64008 12.7149 5.62575 12.6862C5.61865 12.672 5.61154 12.6578 5.60422 12.6432C5.5855 12.6458 5.56678 12.6485 5.5475 12.6513C5.32814 12.677 5.16887 12.6544 4.97428 12.5496C4.77159 12.3838 4.68278 12.2081 4.65172 11.948C4.66676 11.6854 4.80773 11.4773 4.94373 11.2602C5.04062 11.0978 5.07631 10.9851 5.05536 10.797C5.05266 10.7499 5.05266 10.7499 5.04991 10.7017C5.04759 10.6745 5.04528 10.6473 5.04289 10.6193C5.04057 10.5914 5.03826 10.5636 5.03587 10.5349C5.03317 10.5041 5.03317 10.5041 5.03042 10.4727C4.96455 10.4562 4.89869 10.4398 4.83083 10.4228C4.82517 10.4377 4.81951 10.4527 4.81368 10.468C4.75747 10.5617 4.68308 10.589 4.58135 10.6208C4.28075 10.6495 3.90135 10.4252 3.62937 10.3167C3.54722 10.2839 3.46498 10.2513 3.38274 10.2188C3.33012 10.1979 3.27751 10.177 3.22491 10.1561C3.20051 10.1464 3.1761 10.1367 3.15096 10.1268C2.75815 9.96974 2.75815 9.96974 2.66037 9.77417C2.63384 9.53977 2.69059 9.35803 2.78014 9.14384C2.79288 9.1123 2.80558 9.08074 2.81823 9.04916C2.8521 8.96496 2.88659 8.88103 2.92119 8.79713C2.95716 8.70962 2.99253 8.62188 3.02793 8.53415C3.07826 8.40959 3.12874 8.2851 3.17944 8.1607C3.29585 7.87501 3.40927 7.58816 3.52224 7.30108C3.59335 7.12037 3.6647 6.93975 3.73668 6.75938C3.75641 6.70976 3.77589 6.66005 3.79534 6.61032C3.80604 6.58355 3.81673 6.55677 3.82775 6.52919C3.83644 6.50716 3.84513 6.48512 3.85408 6.46242C3.90737 6.35814 3.99137 6.28048 4.10179 6.24044C4.26704 6.21401 4.38951 6.24417 4.54072 6.30466ZM4.20714 6.55589C4.12468 6.63917 4.09029 6.75061 4.04887 6.85799C4.04085 6.87841 4.03283 6.89883 4.02457 6.91986C3.99797 6.98767 3.97158 7.05556 3.94518 7.12346C3.92647 7.17124 3.90774 7.21902 3.889 7.2668C3.84926 7.3681 3.80958 7.46944 3.76995 7.57079C3.67756 7.80683 3.58417 8.04247 3.4908 8.27812C3.46043 8.35482 3.43011 8.43154 3.39981 8.50826C3.317 8.71778 3.23408 8.92723 3.1488 9.13575C3.13684 9.16513 3.12487 9.1945 3.11254 9.22477C3.09164 9.27589 3.07056 9.32693 3.04926 9.37789C3.03606 9.41018 3.03606 9.41018 3.0226 9.44312C3.01516 9.46098 3.00773 9.47883 3.00007 9.49723C2.981 9.56222 2.97337 9.60714 2.98469 9.67438C3.08854 9.76045 3.23291 9.80193 3.35754 9.85125C3.38164 9.86088 3.40573 9.8705 3.43055 9.88042C3.48148 9.90074 3.53244 9.92102 3.58341 9.94124C3.66065 9.97189 3.73782 10.0027 3.81499 10.0335C3.86468 10.0533 3.91438 10.0731 3.96409 10.0929C3.98684 10.102 4.00959 10.1111 4.03303 10.1204C4.18983 10.1826 4.34772 10.2412 4.50651 10.2981C4.5808 10.2302 4.62324 10.1742 4.6593 10.0805C4.67315 10.0451 4.67315 10.0451 4.68727 10.009C4.69702 9.98332 4.70677 9.95763 4.71681 9.93116C4.72738 9.90399 4.73794 9.87682 4.74882 9.84883C4.78367 9.75906 4.81816 9.66916 4.85266 9.57926C4.87684 9.51683 4.90104 9.45441 4.9253 9.392C4.93142 9.37625 4.93754 9.3605 4.94384 9.34428C4.95634 9.31211 4.96885 9.27995 4.98135 9.24778C5.00045 9.19862 5.01952 9.14944 5.03858 9.10026C5.12792 8.87001 5.21881 8.64041 5.31079 8.41119C5.31708 8.39552 5.32336 8.37985 5.32984 8.3637C5.38482 8.22668 5.43992 8.08971 5.4951 7.95278C5.52876 7.86922 5.56235 7.78563 5.59593 7.70203C5.60581 7.67761 5.61569 7.65319 5.62587 7.62802C5.65242 7.56189 5.67841 7.49558 5.70401 7.42907C5.71228 7.40789 5.72055 7.38672 5.72907 7.36491C5.73641 7.34494 5.74374 7.32498 5.7513 7.30442C5.75785 7.28691 5.7644 7.2694 5.77115 7.25136C5.78567 7.19632 5.78567 7.19632 5.72896 7.12969C5.67456 7.10038 5.67456 7.10038 5.60927 7.07658C5.58436 7.06684 5.55946 7.0571 5.53379 7.04706C5.49326 7.03162 5.49326 7.03162 5.4519 7.01587C5.42414 7.00508 5.39639 6.99428 5.36779 6.98317C5.27881 6.94862 5.1897 6.91441 5.10058 6.88021C5.01194 6.84594 4.92332 6.81161 4.83471 6.77726C4.77953 6.7559 4.72434 6.7346 4.66911 6.71337C4.5637 6.67278 4.45875 6.63231 4.35562 6.5862C4.28372 6.55114 4.28372 6.55114 4.20714 6.55589ZM13.6339 6.6244C13.6073 6.63512 13.6073 6.63512 13.5802 6.64607C13.5223 6.66942 13.4645 6.69295 13.4067 6.71649C13.3273 6.74867 13.248 6.78078 13.1686 6.81287C13.1489 6.82084 13.1292 6.82881 13.109 6.83701C12.9916 6.88442 12.8738 6.93035 12.7552 6.97484C12.7287 6.98484 12.7022 6.99485 12.6749 7.00515C12.6264 7.02331 12.5779 7.04121 12.5292 7.05879C12.508 7.06681 12.4867 7.07484 12.4648 7.08311C12.4466 7.08977 12.4283 7.09643 12.4096 7.10329C12.349 7.13927 12.3329 7.16083 12.3152 7.22948C12.3319 7.29194 12.3506 7.34543 12.3755 7.40451C12.3826 7.42214 12.3897 7.43977 12.397 7.45793C12.4208 7.51707 12.4452 7.57597 12.4696 7.63489C12.4866 7.67691 12.5036 7.71896 12.5206 7.76102C12.5572 7.85181 12.594 7.94252 12.631 8.03319C12.7216 8.25631 12.8095 8.4805 12.8978 8.70455C12.9379 8.80605 12.9782 8.90747 13.0184 9.00889C13.0938 9.19863 13.1689 9.38847 13.2426 9.57884C13.2746 9.66127 13.3068 9.74361 13.3391 9.82594C13.3539 9.86384 13.3685 9.90179 13.383 9.93978C13.4028 9.99145 13.4229 10.0429 13.4432 10.0944C13.4543 10.1231 13.4654 10.1518 13.4768 10.1814C13.5173 10.2567 13.5324 10.2728 13.6125 10.2981C13.6819 10.2837 13.6819 10.2837 13.7559 10.2519C13.7991 10.2349 13.7991 10.2349 13.8431 10.2175C13.8744 10.2048 13.9057 10.192 13.937 10.1792C13.9692 10.1663 14.0014 10.1535 14.0335 10.1407C14.101 10.1139 14.1683 10.0867 14.2355 10.0594C14.3217 10.0244 14.4081 9.98981 14.4945 9.9554C14.561 9.92893 14.6274 9.90232 14.6937 9.87565C14.7256 9.86286 14.7574 9.85008 14.7893 9.83734C14.8337 9.81949 14.8782 9.80145 14.9226 9.7834C14.9478 9.77317 14.9731 9.76293 14.9992 9.75239C15.0623 9.72714 15.0623 9.72714 15.1094 9.67438C15.1019 9.52579 15.0505 9.39838 14.9956 9.26137C14.9817 9.22595 14.9817 9.22595 14.9675 9.18981C14.9365 9.11113 14.9052 9.03257 14.8739 8.95401C14.852 8.89863 14.8301 8.84324 14.8082 8.78786C14.7541 8.65111 14.6997 8.51444 14.6453 8.37781C14.5965 8.2551 14.5477 8.13234 14.4991 8.00956C14.4251 7.82302 14.351 7.63654 14.2768 7.45012C14.2476 7.37679 14.2185 7.30345 14.1894 7.23009C14.1549 7.14313 14.1202 7.05623 14.0855 6.96937C14.0726 6.93714 14.0598 6.9049 14.047 6.87264C14.0295 6.82842 14.0118 6.78427 13.9941 6.74012C13.9842 6.71526 13.9743 6.6904 13.9641 6.66479C13.9395 6.60277 13.9395 6.60277 13.8869 6.55589C13.7924 6.55589 13.7199 6.58913 13.6339 6.6244ZM5.95349 7.62865C5.94293 7.65528 5.94293 7.65528 5.93216 7.68244C5.84262 7.90828 5.75305 8.13411 5.66347 8.35993C5.65636 8.37785 5.64925 8.39577 5.64193 8.41424C5.42236 8.9677 5.20234 9.52098 4.98052 10.0735C5.02977 10.1264 5.06134 10.1512 5.12865 10.1827C5.2189 10.2306 5.25264 10.2598 5.30484 10.348C5.33489 10.4468 5.35842 10.5463 5.37969 10.6473C5.39631 10.6401 5.41294 10.6329 5.43007 10.6255C5.65667 10.5342 5.86699 10.5069 6.09986 10.5945C6.19801 10.6459 6.27454 10.7194 6.35265 10.797C6.37324 10.8171 6.39382 10.8372 6.41502 10.8578C6.42737 10.8707 6.43972 10.8836 6.45245 10.8968C6.46303 10.8869 6.47361 10.8769 6.48451 10.8667C6.65286 10.7146 6.82278 10.6422 7.05119 10.6473C7.26225 10.6775 7.42927 10.7318 7.56721 10.8973C7.69141 11.0769 7.70832 11.2577 7.72479 11.4706C7.7435 11.471 7.76222 11.4713 7.7815 11.4717C8.01043 11.4824 8.20024 11.5309 8.3594 11.7045C8.49333 11.8812 8.51284 12.0531 8.52312 12.269C8.55502 12.2674 8.58692 12.2659 8.61979 12.2643C8.85506 12.2661 9.02225 12.3542 9.21757 12.4784C9.35581 12.5657 9.49653 12.6485 9.63798 12.7305C9.66435 12.7464 9.69072 12.7622 9.7179 12.7786C9.87853 12.8708 10.008 12.926 10.1946 12.8927C10.2977 12.859 10.3706 12.8024 10.4301 12.7118C10.4807 12.6098 10.4816 12.5315 10.4691 12.4186C10.3831 12.1752 10.1298 12.0733 9.91864 11.954C9.88912 11.9372 9.85961 11.9203 9.83011 11.9035C9.77585 11.8726 9.72155 11.8417 9.66721 11.8109C9.64367 11.7974 9.62013 11.7839 9.59588 11.77C9.57274 11.7577 9.5496 11.7454 9.52577 11.7327C9.47114 11.6952 9.47114 11.6952 9.44619 11.6078C9.44619 11.5205 9.44619 11.5205 9.47114 11.4706C9.54892 11.4317 9.61517 11.4473 9.69567 11.4706C9.79047 11.5149 9.87997 11.5673 9.9701 11.6203C10.008 11.6422 10.008 11.6422 10.0466 11.6644C10.21 11.7589 10.3725 11.8549 10.5332 11.9539C10.6718 12.0388 10.7824 12.0631 10.9431 12.0444C11.0469 12.0108 11.1182 11.9558 11.1785 11.8651C11.2304 11.7605 11.2376 11.6598 11.2175 11.5455C11.0933 11.2816 10.7606 11.1532 10.5165 11.0187C10.4701 10.993 10.4238 10.9671 10.3775 10.9412C10.3502 10.926 10.3229 10.9109 10.2947 10.8954C10.2158 10.8445 10.1556 10.7937 10.0948 10.7222C10.0998 10.5925 10.0998 10.5925 10.1447 10.5476C10.3306 10.5168 10.4631 10.6166 10.6187 10.7082C10.6463 10.724 10.6739 10.7398 10.7024 10.7562C10.8726 10.8543 11.0421 10.9538 11.2093 11.057C11.3332 11.1332 11.4205 11.1562 11.5668 11.1463C11.7084 11.0953 11.7987 11.0067 11.8661 10.8719C11.8792 10.7524 11.8793 10.6521 11.8303 10.5413C11.6712 10.3706 11.4447 10.2645 11.244 10.1499C11.2013 10.1255 11.1586 10.101 11.1159 10.0765C11.0864 10.0597 11.057 10.0428 11.0276 10.026C10.9229 9.96602 10.8186 9.9055 10.7144 9.84472C10.6853 9.82776 10.6562 9.8108 10.627 9.79385C10.572 9.76179 10.517 9.72966 10.462 9.69743C10.1747 9.53063 9.98797 9.42289 9.65508 9.5082C9.56318 9.53303 9.47195 9.55997 9.3807 9.58706C9.34161 9.59844 9.30252 9.60981 9.26342 9.62117C8.99521 9.69976 8.73037 9.78615 8.46767 9.88166C8.26389 9.9545 8.08179 10.0125 7.86356 10.0096C7.84297 10.0094 7.82237 10.0092 7.80115 10.009C7.45463 9.99943 7.22551 9.83716 6.99058 9.59349C6.80539 9.38619 6.80539 9.38619 6.80172 9.25026C6.83632 9.14452 6.90098 9.11642 6.99662 9.06627C7.59425 8.74078 8.1225 8.31066 8.62291 7.85318C8.33351 7.66024 7.87067 7.74268 7.54791 7.8066C7.46531 7.82412 7.38486 7.84666 7.30379 7.87033C6.89044 7.97722 6.5229 7.87972 6.14323 7.71217C6.1249 7.70411 6.10657 7.69606 6.08769 7.68776C6.04294 7.66809 5.99821 7.64837 5.95349 7.62865ZM8.60878 8.29376C8.48729 8.41443 8.35152 8.51605 8.21545 8.61952C8.17622 8.64969 8.13764 8.68069 8.0991 8.71174C7.90474 8.86692 7.69968 8.99946 7.48812 9.12999C7.46534 9.14414 7.44255 9.1583 7.41908 9.17288C7.38847 9.19167 7.38847 9.19167 7.35724 9.21083C7.29804 9.25209 7.25031 9.29765 7.20088 9.35005C7.34525 9.54001 7.50852 9.66211 7.74506 9.71336C7.97977 9.74236 8.18476 9.66604 8.40072 9.58131C8.64712 9.48695 8.89961 9.41498 9.15305 9.34226C9.19967 9.32874 9.24629 9.31521 9.2929 9.30167C9.37754 9.27713 9.46218 9.25263 9.54688 9.2283C9.56363 9.22349 9.58037 9.21868 9.59763 9.21372C9.69966 9.18541 9.79025 9.17008 9.89681 9.16762C9.92283 9.16669 9.94885 9.16576 9.97565 9.1648C10.2329 9.19379 10.4509 9.32869 10.6702 9.45764C10.7006 9.4753 10.731 9.49293 10.7614 9.51055C10.8241 9.54688 10.8867 9.58332 10.9492 9.61985C11.0402 9.67292 11.1315 9.72537 11.2229 9.77768C11.252 9.7943 11.281 9.81092 11.31 9.82754C11.364 9.85852 11.4181 9.88949 11.4722 9.92043C11.5965 9.99199 11.7198 10.0649 11.8418 10.1404C11.8635 10.1539 11.8853 10.1673 11.9077 10.1812C12.0506 10.2843 12.1124 10.4087 12.1655 10.5725C12.2653 10.531 12.3651 10.4894 12.4649 10.4478C12.4922 10.4364 12.5195 10.425 12.5477 10.4133C12.6299 10.379 12.7119 10.344 12.7939 10.309C12.8221 10.2973 12.8503 10.2856 12.8793 10.2736C12.906 10.2621 12.9327 10.2506 12.9602 10.2387C12.9843 10.2285 13.0084 10.2184 13.0332 10.2079C13.0904 10.1784 13.0904 10.1784 13.1128 10.1295C13.1139 10.0469 13.086 9.9868 13.0545 9.9105C13.0478 9.89417 13.0412 9.87784 13.0344 9.86101C13.0121 9.80649 12.9895 9.75213 12.967 9.69776C12.9431 9.63944 12.9193 9.58108 12.8956 9.52272C12.8787 9.48127 12.8618 9.43984 12.8448 9.39842C12.7403 9.14259 12.6394 8.88531 12.5382 8.62812C12.3803 8.22675 12.3803 8.22675 12.2154 7.82823C12.0865 7.86976 11.9606 7.91489 11.835 7.96545C11.4975 8.09459 11.0857 8.19556 10.7372 8.04809C10.6893 8.02486 10.6415 8.00147 10.5938 7.97792C9.89658 7.69188 9.15126 7.75383 8.60878 8.29376ZM5.4861 10.9926C5.37998 11.1193 5.30444 11.2639 5.22532 11.4083C5.20229 11.4495 5.20229 11.4495 5.17879 11.4916C5.01043 11.7625 5.01043 11.7625 5.00732 12.064C5.05865 12.1868 5.13427 12.27 5.25183 12.3313C5.39651 12.3545 5.51597 12.3432 5.63911 12.257C5.72794 12.1726 5.78198 12.06 5.84122 11.954C5.8685 11.9064 5.89579 11.8587 5.92308 11.8111C5.9363 11.7878 5.94952 11.7644 5.96314 11.7403C6.01494 11.6501 6.06904 11.5613 6.12359 11.4726C6.18802 11.3592 6.19371 11.2486 6.17802 11.1214C6.11061 10.989 6.02097 10.8944 5.87864 10.8469C5.70494 10.8338 5.60745 10.8666 5.4861 10.9926ZM6.77677 11.0216C6.64872 11.1533 6.56577 11.3132 6.47583 11.4722C6.45109 11.5156 6.42634 11.5589 6.40159 11.6023C6.37654 11.6462 6.35156 11.6902 6.3266 11.7342C6.28056 11.8151 6.23419 11.8958 6.18767 11.9764C6.16054 12.0235 6.13342 12.0706 6.10629 12.1177C6.08738 12.1504 6.08738 12.1504 6.06809 12.1838C6.05082 12.214 6.05082 12.214 6.0332 12.2447C6.01816 12.2708 6.01816 12.2708 6.00281 12.2975C5.94974 12.3983 5.94411 12.4808 5.95349 12.5933C6 12.7144 6.06968 12.7955 6.17802 12.8677C6.298 12.9077 6.40718 12.9078 6.52573 12.863C6.66029 12.787 6.72038 12.6598 6.79333 12.5282C6.83358 12.4562 6.87492 12.3848 6.91632 12.3135C6.99616 12.1758 7.07554 12.0379 7.1547 11.8999C7.21615 11.7935 7.27868 11.6877 7.3414 11.582C7.40235 11.4722 7.41661 11.3698 7.40046 11.2461C7.35366 11.1134 7.27685 11.0358 7.15099 10.9717C7.01392 10.9336 6.89672 10.9447 6.77677 11.0216ZM7.625 11.8199C7.53836 11.8984 7.4744 11.9771 7.4145 12.0772C7.39778 12.1051 7.38105 12.1329 7.36382 12.1617C7.34275 12.1974 7.32171 12.2332 7.30067 12.269C7.28656 12.2928 7.27244 12.3167 7.25789 12.3413C7.21017 12.4221 7.16261 12.503 7.11512 12.5839C7.09946 12.6106 7.0838 12.6372 7.06767 12.6646C7.053 12.6898 7.03834 12.7149 7.02323 12.7408C7.00999 12.7634 6.99676 12.7861 6.98313 12.8094C6.91879 12.9276 6.9111 13.0353 6.92646 13.1671C6.96005 13.2709 7.01505 13.3422 7.10577 13.4025C7.21043 13.4544 7.31105 13.4616 7.42541 13.4415C7.67565 13.3237 7.79947 13.0191 7.92905 12.7882C7.95572 12.741 7.98242 12.6938 8.00914 12.6466C8.03322 12.604 8.05721 12.5613 8.08119 12.5187C8.10846 12.4708 8.13652 12.4233 8.1656 12.3765C8.21864 12.2844 8.23434 12.1982 8.21371 12.0931C8.17293 11.9649 8.11437 11.8938 7.99921 11.8199C7.86456 11.7627 7.76186 11.7605 7.625 11.8199ZM8.33692 12.7133C8.23853 12.867 8.14457 13.0228 8.05379 13.1811C8.0392 13.2058 8.02462 13.2305 8.00959 13.2559C7.92966 13.3955 7.87646 13.5039 7.87447 13.666C7.91398 13.7955 7.96596 13.8832 8.07406 13.9654C8.18549 14.0121 8.28647 14.0279 8.40306 13.9919C8.60508 13.8949 8.71044 13.6728 8.81766 13.4865C8.84279 13.443 8.86846 13.3999 8.89417 13.3568C8.97988 13.2089 9.04801 13.0906 9.04702 12.9176C9.00084 12.7662 8.92745 12.6613 8.78663 12.5855C8.61738 12.5401 8.45068 12.5725 8.33692 12.7133ZM9.37135 12.9425C9.36855 12.9595 9.36575 12.9765 9.36287 12.994C9.31327 13.2378 9.19923 13.4309 9.07197 13.6411C9.1834 13.7557 9.28314 13.8102 9.44619 13.8157C9.56044 13.7933 9.63225 13.7535 9.7175 13.6738C9.78717 13.5652 9.83444 13.4699 9.81096 13.3389C9.75365 13.165 9.64905 13.0784 9.48829 12.9971C9.44943 12.9787 9.41048 12.9604 9.37135 12.9425Z" fill="#0D152C" stroke="#0D152C" stroke-width="0.272007"/>
<path d="M6.73482 5.07959C6.94145 5.14613 7.04534 5.45228 7.1449 5.63312C7.24942 5.82148 7.35471 6.00914 7.46455 6.19445C7.47459 6.21147 7.48462 6.22849 7.49497 6.24603C7.53564 6.31496 7.57655 6.38369 7.61823 6.45202C7.6796 6.55543 7.72365 6.63159 7.69999 6.75578C7.67349 6.80255 7.67349 6.80255 7.62515 6.83062C7.54251 6.84933 7.54251 6.84933 7.45051 6.83062C7.41487 6.79015 7.41487 6.79015 7.38074 6.7358C7.36783 6.71535 7.35493 6.6949 7.34163 6.67383C7.26876 6.55285 7.1977 6.43096 7.12775 6.30827C7.09506 6.25096 7.06236 6.19365 7.02962 6.13637C7.02127 6.12175 7.01293 6.10713 7.00433 6.09207C6.95233 6.00131 6.89924 5.9113 6.84518 5.82176C6.81849 5.77754 6.792 5.73322 6.76556 5.68886C6.73217 5.63298 6.69842 5.57731 6.66427 5.52188C6.53962 5.31162 6.53963 5.31162 6.55005 5.20618C6.58886 5.10375 6.62689 5.0857 6.73482 5.07959Z" fill="#0D152C" stroke="#0D152C" stroke-width="0.272007"/>
<path d="M11.5169 4.93463C11.5637 4.97673 11.5637 4.97673 11.5917 5.03442C11.5818 5.14511 11.5519 5.22271 11.4956 5.31781C11.4807 5.34329 11.4658 5.36876 11.4505 5.39501C11.4343 5.42215 11.4182 5.44928 11.4015 5.47724C11.3762 5.5204 11.3508 5.56355 11.3255 5.60672C11.308 5.63656 11.2904 5.66639 11.2728 5.69619C11.2107 5.80151 11.1495 5.90734 11.0889 6.01352C11.0721 6.04285 11.0553 6.07217 11.0385 6.1015C11.0068 6.15707 10.9751 6.21267 10.9434 6.26829C10.7303 6.63952 10.7303 6.63952 10.6312 6.6841C10.5461 6.67984 10.5073 6.66386 10.4441 6.60613C10.4119 6.42565 10.5078 6.2974 10.5969 6.14616C10.6203 6.10544 10.6203 6.10544 10.6442 6.0639C10.6936 5.97832 10.7435 5.89305 10.7934 5.8078C10.8253 5.75272 10.8572 5.69763 10.8891 5.64252C10.9602 5.51994 11.0314 5.39743 11.1036 5.27553C11.1303 5.23001 11.1566 5.18421 11.1825 5.13819C11.2018 5.10453 11.2018 5.10453 11.2214 5.07018C11.2327 5.0501 11.2439 5.03001 11.2556 5.00932C11.3282 4.91112 11.4034 4.89389 11.5169 4.93463Z" fill="#0D152C" stroke="#0D152C" stroke-width="0.272007"/>
<path d="M9.10324 4.37928C9.17184 4.41047 9.17184 4.41047 9.19679 4.43541C9.19941 4.49254 9.20025 4.54974 9.20041 4.60692C9.20054 4.63382 9.20054 4.63382 9.20067 4.66126C9.20091 4.72082 9.20095 4.78038 9.20098 4.83994C9.20106 4.88118 9.20115 4.92241 9.20123 4.96365C9.20138 5.0502 9.20143 5.13676 9.20141 5.22331C9.20141 5.33442 9.20175 5.44552 9.20218 5.55663C9.20246 5.64183 9.20251 5.72703 9.2025 5.81223C9.20253 5.8532 9.20264 5.89417 9.20283 5.93515C9.20307 5.99237 9.203 6.04959 9.20285 6.10682C9.20289 6.13943 9.20292 6.17204 9.20296 6.20564C9.19679 6.28156 9.19679 6.28156 9.1469 6.33145C9.10012 6.33808 9.10012 6.33808 9.0471 6.33769C9.02961 6.33782 9.01211 6.33795 8.99409 6.33808C8.94731 6.33145 8.94731 6.33145 8.89742 6.28156C8.89058 6.20597 8.89058 6.20597 8.88977 6.10761C8.88956 6.08972 8.88936 6.07182 8.88914 6.05339C8.88854 5.99408 8.88832 5.93478 8.88816 5.87547C8.88793 5.83433 8.88771 5.79319 8.88748 5.75205C8.88706 5.66575 8.88687 5.57945 8.8868 5.49315C8.88667 5.38245 8.88573 5.27178 8.88459 5.1611C8.88384 5.07611 8.88366 4.99113 8.88364 4.90614C8.88353 4.86532 8.88322 4.82451 8.8827 4.7837C8.88203 4.72665 8.88215 4.66964 8.88246 4.61259C8.88234 4.58011 8.88221 4.54763 8.88208 4.51417C8.89742 4.43541 8.89742 4.43541 8.95565 4.38575C9.02216 4.36057 9.02216 4.36057 9.10324 4.37928Z" fill="#0D152C" stroke="#0D152C" stroke-width="0.272007"/>
</g>
</g>
<defs>
<clipPath id="clip0_10874_5117">
<rect x="0.0932617" y="0.505127" width="17.9162" height="17.6949" rx="5.13776" fill="white"/>
</clipPath>
<clipPath id="clip1_10874_5117">
<rect width="13.8179" height="17.6986" fill="white" transform="translate(2.14233 0.503418)"/>
</clipPath>
</defs>
</svg>
