<svg width="20" height="21" viewBox="0 0 20 21" fill="none" xmlns="http://www.w3.org/2000/svg">
<g clip-path="url(#clip0_10874_4793)">
<rect x="0.0751953" y="0.665283" width="19.7362" height="19.4925" rx="5.65969" fill="white"/>
<path d="M9.84801 7.09923C9.8633 7.09922 9.87858 7.0992 9.89433 7.09919C9.90233 7.09921 9.91033 7.09924 9.91857 7.09926C9.94301 7.09933 9.96746 7.09926 9.9919 7.09919C10.0148 7.09921 10.0148 7.09921 10.0382 7.09923C10.0524 7.09925 10.0665 7.09926 10.0811 7.09927C10.1135 7.10085 10.1135 7.10085 10.1257 7.11302C10.1373 7.11403 10.1488 7.11503 10.1607 7.11607C10.2276 7.12493 10.2851 7.1563 10.3448 7.18606C10.3561 7.19148 10.3673 7.19689 10.3789 7.20247C10.4651 7.24621 10.5315 7.30154 10.6005 7.36866C10.6081 7.37554 10.6157 7.38241 10.6236 7.38949C10.757 7.51328 10.8597 7.70139 10.8708 7.8848C10.8718 7.92522 10.8723 7.96555 10.8721 8.00598C10.8721 8.03125 10.8724 8.05651 10.8727 8.08177C10.8731 8.17127 10.867 8.24758 10.8318 8.33035C10.8285 8.3419 10.8252 8.35345 10.8219 8.36535C10.7939 8.43901 10.7537 8.50833 10.71 8.57382C10.7199 8.57736 10.7298 8.58091 10.7399 8.58456C10.9177 8.65037 11.0869 8.74062 11.2091 8.89032C11.2091 8.89836 11.2091 8.90639 11.2091 8.91467C11.2172 8.91467 11.2252 8.91467 11.2335 8.91467C11.3085 9.00661 11.3553 9.10673 11.3917 9.219C11.398 9.23658 11.398 9.23658 11.4044 9.25451C11.4229 9.32028 11.4199 9.38777 11.42 9.45557C11.4202 9.47818 11.4202 9.47818 11.4204 9.50125C11.4207 9.5424 11.4209 9.58354 11.421 9.62469C11.421 9.65044 11.4211 9.67618 11.4212 9.70193C11.4216 9.7826 11.4218 9.86326 11.4219 9.94393C11.422 10.0369 11.4224 10.1298 11.4231 10.2227C11.4237 10.2947 11.4239 10.3667 11.4239 10.4386C11.424 10.4816 11.4241 10.5245 11.4246 10.5674C11.425 10.6153 11.4249 10.6632 11.4248 10.711C11.425 10.7252 11.4252 10.7393 11.4254 10.7539C11.4246 10.831 11.4177 10.8767 11.3617 10.9319C11.3369 10.9528 11.3125 10.9721 11.2852 10.9895C11.2714 10.9985 11.2714 10.9985 11.2573 11.0077C11.2335 11.0207 11.2335 11.0207 11.2091 11.0207C11.2091 11.0287 11.2091 11.0367 11.2091 11.045C11.1971 11.045 11.185 11.045 11.1726 11.045C11.1726 11.053 11.1726 11.0611 11.1726 11.0693C11.1606 11.0693 11.1485 11.0693 11.1361 11.0693C11.1361 11.0774 11.1361 11.0854 11.1361 11.0937C11.119 11.107 11.119 11.107 11.0952 11.1214C11.0866 11.1267 11.0781 11.1319 11.0692 11.1373C11.0602 11.1428 11.0511 11.1482 11.0418 11.1538C11.0241 11.1645 11.0064 11.1753 10.9887 11.1861C10.9762 11.1937 10.9762 11.1937 10.9635 11.2014C10.9397 11.216 10.9397 11.216 10.9122 11.2375C10.8926 11.2519 10.8926 11.2519 10.8683 11.2519C10.8683 11.264 10.8683 11.2761 10.8684 11.2885C10.8689 11.5818 10.8693 11.8751 10.8695 12.1684C10.8697 12.3102 10.8698 12.4521 10.8701 12.5939C10.8704 12.7175 10.8705 12.8411 10.8706 12.9647C10.8706 13.0302 10.8707 13.0957 10.8709 13.1611C10.871 13.2227 10.8711 13.2843 10.871 13.3459C10.871 13.3685 10.8711 13.3912 10.8712 13.4138C10.8713 13.4446 10.8713 13.4755 10.8712 13.5063C10.8713 13.5153 10.8714 13.5243 10.8714 13.5336C10.8712 13.5785 10.8688 13.612 10.8439 13.6501C10.8359 13.6501 10.8279 13.6501 10.8196 13.6501C10.8196 13.6581 10.8196 13.6662 10.8196 13.6744C10.8116 13.6744 10.8035 13.6744 10.7952 13.6744C10.7952 13.6825 10.7952 13.6905 10.7952 13.6988C10.7555 13.7224 10.7259 13.7262 10.68 13.7262C10.6597 13.7263 10.6597 13.7263 10.6391 13.7264C10.6243 13.7264 10.6095 13.7263 10.5943 13.7263C10.5709 13.7263 10.5709 13.7263 10.547 13.7264C10.5043 13.7265 10.4615 13.7265 10.4187 13.7264C10.374 13.7263 10.3292 13.7264 10.2845 13.7264C10.2093 13.7265 10.1342 13.7264 10.059 13.7263C9.97215 13.7262 9.88527 13.7262 9.79839 13.7263C9.72379 13.7265 9.64918 13.7265 9.57458 13.7264C9.53003 13.7264 9.48548 13.7264 9.44093 13.7264C9.39126 13.7265 9.3416 13.7264 9.29194 13.7263C9.26978 13.7263 9.26978 13.7263 9.24717 13.7264C9.23365 13.7264 9.22014 13.7263 9.20621 13.7262C9.19447 13.7262 9.18273 13.7262 9.17063 13.7262C9.13852 13.723 9.11853 13.7151 9.09099 13.6988C9.09099 13.6907 9.09099 13.6827 9.09099 13.6744C9.08295 13.6744 9.07492 13.6744 9.06664 13.6744C9.06664 13.6664 9.06664 13.6584 9.06664 13.6501C9.0586 13.6501 9.05057 13.6501 9.04229 13.6501C9.01252 13.6044 9.0146 13.559 9.01502 13.5063C9.015 13.4967 9.01498 13.4871 9.01496 13.4771C9.01491 13.4448 9.01505 13.4125 9.01518 13.3802C9.01519 13.357 9.01519 13.3339 9.01517 13.3107C9.01516 13.2478 9.01531 13.1849 9.01548 13.122C9.01563 13.0563 9.01564 12.9906 9.01567 12.9249C9.01575 12.8004 9.01595 12.6759 9.01619 12.5515C9.01646 12.4098 9.0166 12.2681 9.01672 12.1264C9.01698 11.8349 9.0174 11.5434 9.01795 11.2519C9.00838 11.2482 8.99882 11.2445 8.98897 11.2406C8.96032 11.2289 8.93749 11.2164 8.91205 11.199C8.90412 11.1937 8.89618 11.1883 8.88801 11.1828C8.87992 11.1772 8.87183 11.1717 8.8635 11.166C8.80835 11.1273 8.80835 11.1273 8.75013 11.0937C8.75013 11.0857 8.75013 11.0776 8.75013 11.0693C8.73808 11.0693 8.72603 11.0693 8.71361 11.0693C8.71361 11.0613 8.71361 11.0533 8.71361 11.045C8.70156 11.045 8.68951 11.045 8.67709 11.045C8.67709 11.037 8.67709 11.0289 8.67709 11.0207C8.66821 11.0175 8.65933 11.0143 8.65018 11.011C8.61538 10.9959 8.58967 10.9786 8.55993 10.9552C8.55073 10.9481 8.54153 10.941 8.53206 10.9336C8.4975 10.903 8.47282 10.8794 8.46548 10.8326C8.46544 10.8214 8.46539 10.8102 8.46535 10.7987C8.46521 10.7858 8.46507 10.7729 8.46493 10.7596C8.46496 10.7455 8.465 10.7314 8.46504 10.7169C8.46493 10.702 8.46483 10.6871 8.46472 10.6718C8.46449 10.6309 8.46442 10.5901 8.46444 10.5492C8.46444 10.515 8.46434 10.4808 8.46424 10.4465C8.464 10.3656 8.46397 10.2846 8.46405 10.2037C8.46413 10.1206 8.46385 10.0376 8.4634 9.95452C8.46302 9.88293 8.46289 9.81135 8.46294 9.73976C8.46296 9.69714 8.4629 9.65452 8.4626 9.61189C8.46114 9.38818 8.46461 9.19118 8.59416 8.99988C8.59949 8.99147 8.60482 8.98306 8.61031 8.9744C8.62361 8.95392 8.63808 8.9342 8.65275 8.91467C8.66078 8.91467 8.66882 8.91467 8.67709 8.91467C8.68023 8.90759 8.68337 8.90052 8.6866 8.89322C8.77787 8.72561 9.00272 8.62586 9.1762 8.57382C9.16959 8.56265 9.16299 8.55147 9.15618 8.53996C9.11153 8.46369 9.06903 8.39067 9.04229 8.30601C9.03809 8.29278 9.03388 8.27956 9.02955 8.26594C9.01032 8.19111 9.01255 8.11581 9.01262 8.03895C9.01262 8.03048 9.01263 8.02201 9.01263 8.01328C9.01378 7.75602 9.09661 7.55225 9.27967 7.36866C9.3412 7.3078 9.3412 7.3078 9.37097 7.3078C9.37097 7.29976 9.37097 7.29173 9.37097 7.28345C9.4497 7.22081 9.53792 7.18231 9.63203 7.14888C9.66191 7.14028 9.66191 7.14028 9.6753 7.1252C9.71791 7.11911 9.71791 7.11911 9.76052 7.11302C9.7828 7.09074 9.81812 7.09926 9.84801 7.09923ZM9.63878 7.58778C9.63878 7.59582 9.63878 7.60385 9.63878 7.61213C9.63174 7.61516 9.62469 7.61818 9.61743 7.62131C9.51221 7.67968 9.45634 7.79939 9.42276 7.9098C9.38293 8.0713 9.43394 8.21506 9.51705 8.3547C9.53611 8.37878 9.55418 8.39568 9.57792 8.41557C9.5847 8.42285 9.59148 8.43013 9.59846 8.43763C9.61386 8.45481 9.61386 8.45481 9.63878 8.45209C9.63878 8.46012 9.63878 8.46815 9.63878 8.47643C9.65084 8.47643 9.66289 8.47643 9.6753 8.47643C9.6753 8.48447 9.6753 8.4925 9.6753 8.50078C9.80644 8.56605 9.95706 8.58423 10.1014 8.54947C10.1389 8.5351 10.175 8.51867 10.2109 8.50078C10.2109 8.49274 10.2109 8.48471 10.2109 8.47643C10.223 8.47643 10.235 8.47643 10.2474 8.47643C10.2474 8.4684 10.2474 8.46036 10.2474 8.45209C10.2542 8.44932 10.261 8.44656 10.268 8.44372C10.3715 8.38498 10.4299 8.26634 10.4629 8.15588C10.4992 8.00584 10.4605 7.8783 10.3905 7.7438C10.3586 7.69246 10.3199 7.64896 10.2718 7.61213C10.2638 7.61213 10.2557 7.61213 10.2474 7.61213C10.2474 7.60409 10.2474 7.59606 10.2474 7.58778C10.0377 7.48506 9.8487 7.47072 9.63878 7.58778ZM8.96155 9.18072C8.87528 9.29359 8.85592 9.43597 8.85654 9.57409C8.8565 9.58594 8.85646 9.59779 8.85641 9.61C8.85631 9.64881 8.85638 9.68762 8.85646 9.72643C8.85644 9.75351 8.85642 9.78059 8.85639 9.80766C8.85635 9.86422 8.8564 9.92077 8.85652 9.97732C8.85666 10.0499 8.85658 10.1225 8.85643 10.1951C8.85634 10.251 8.85637 10.3068 8.85644 10.3626C8.85645 10.3894 8.85643 10.4162 8.85637 10.443C8.85631 10.4803 8.85641 10.5176 8.85654 10.5549C8.85649 10.566 8.85644 10.5771 8.85639 10.5886C8.85391 10.6462 8.85391 10.6462 8.88404 10.692C8.89609 10.692 8.90814 10.692 8.92056 10.692C8.92056 10.7 8.92056 10.708 8.92056 10.7163C8.95086 10.7377 8.98119 10.7576 9.01262 10.7772C9.03155 10.7892 9.05048 10.8012 9.0694 10.8132C9.07905 10.8193 9.08871 10.8254 9.09865 10.8317C9.15095 10.8653 9.20229 10.9003 9.25352 10.9355C9.29065 10.963 9.29065 10.963 9.33445 10.972C9.33445 10.98 9.33445 10.988 9.33445 10.9963C9.34249 10.9963 9.35052 10.9963 9.3588 10.9963C9.3588 11.0043 9.3588 11.0124 9.3588 11.0207C9.36683 11.0207 9.37487 11.0207 9.38314 11.0207C9.3975 11.0637 9.39718 11.1027 9.39724 11.1475C9.39733 11.1614 9.39733 11.1614 9.39743 11.1756C9.39761 11.2068 9.39772 11.238 9.39782 11.2692C9.39793 11.2915 9.39806 11.3138 9.39818 11.3361C9.39851 11.3968 9.39877 11.4574 9.39901 11.5181C9.39928 11.5815 9.39961 11.6448 9.39994 11.7082C9.40054 11.8282 9.40109 11.9482 9.40162 12.0683C9.40233 12.2304 9.40314 12.3926 9.40394 12.5547C9.4052 12.8103 9.40634 13.0658 9.40749 13.3214C9.761 13.3214 10.1145 13.3214 10.4787 13.3214C10.4798 13.0769 10.4798 13.0769 10.481 12.8274C10.4815 12.7244 10.482 12.6213 10.4825 12.5183C10.4833 12.3547 10.4841 12.191 10.4848 12.0273C10.4853 11.9081 10.4859 11.7889 10.4865 11.6698C10.4868 11.6066 10.4871 11.5435 10.4874 11.4804C10.4876 11.421 10.4879 11.3616 10.4882 11.3022C10.4884 11.2804 10.4885 11.2586 10.4885 11.2367C10.4886 11.207 10.4888 11.1773 10.489 11.1475C10.489 11.1388 10.489 11.1301 10.489 11.1211C10.4893 11.0843 10.4913 11.0559 10.5031 11.0207C10.5111 11.0207 10.5192 11.0207 10.5274 11.0207C10.5274 11.0126 10.5274 11.0046 10.5274 10.9963C10.5355 10.9963 10.5435 10.9963 10.5518 10.9963C10.5518 10.9883 10.5518 10.9802 10.5518 10.972C10.5601 10.969 10.5685 10.9661 10.5771 10.9631C10.6194 10.9446 10.6561 10.9203 10.6941 10.8944C10.7101 10.8835 10.7262 10.8726 10.7422 10.8618C10.7507 10.856 10.7592 10.8502 10.768 10.8443C10.7971 10.8247 10.8263 10.8052 10.8555 10.7858C10.8655 10.7792 10.8755 10.7725 10.8857 10.7657C10.9054 10.7527 10.925 10.7397 10.9446 10.7266C10.9536 10.7207 10.9625 10.7148 10.9717 10.7087C10.9796 10.7034 10.9876 10.6981 10.9958 10.6927C11.0141 10.6808 11.0141 10.6808 11.0265 10.6676C11.0279 10.6305 11.0285 10.5937 11.0285 10.5566C11.0286 10.545 11.0286 10.5333 11.0287 10.5213C11.0289 10.4825 11.0289 10.4437 11.029 10.4049C11.0291 10.3779 11.0292 10.3509 11.0292 10.324C11.0294 10.2673 11.0294 10.2106 11.0295 10.154C11.0295 10.0816 11.0298 10.0092 11.0302 9.93682C11.0304 9.88105 11.0305 9.82528 11.0305 9.76951C11.0305 9.74285 11.0306 9.71619 11.0308 9.68953C11.031 9.65203 11.031 9.61455 11.0309 9.57705C11.031 9.56073 11.031 9.56073 11.0312 9.54407C11.0301 9.3792 10.9743 9.23258 10.8615 9.1131C10.7338 8.99277 10.5897 8.95941 10.4182 8.96021C10.4067 8.96017 10.3953 8.96013 10.3835 8.96008C10.346 8.95998 10.3085 8.96005 10.271 8.96013C10.2448 8.96011 10.2185 8.96009 10.1922 8.96006C10.1373 8.96002 10.0823 8.96008 10.0274 8.96019C9.95726 8.96033 9.88711 8.96025 9.81695 8.9601C9.76273 8.96001 9.70851 8.96004 9.65428 8.96011C9.62843 8.96012 9.60257 8.9601 9.57671 8.96005C9.54048 8.95998 9.50425 8.96008 9.46803 8.96021C9.4575 8.96016 9.44697 8.96011 9.43613 8.96006C9.23795 8.96142 9.09294 9.03142 8.96155 9.18072Z" fill="#0D152C"/>
<path d="M13.658 12.5889C13.668 12.5888 13.6779 12.5888 13.6882 12.5888C13.7093 12.5887 13.7304 12.5887 13.7515 12.5887C13.7835 12.5886 13.8154 12.5884 13.8474 12.5882C13.9488 12.5878 14.0445 12.5883 14.1431 12.6153C14.1471 12.6193 14.1511 12.6233 14.1552 12.6274C14.1678 12.6289 14.1803 12.6305 14.1933 12.632C14.2343 12.6386 14.2647 12.6494 14.3023 12.666C14.3417 12.683 14.382 12.6972 14.4223 12.7119C14.4898 12.7368 14.5544 12.7635 14.6178 12.7979C14.6178 12.8059 14.6178 12.8139 14.6178 12.8222C14.625 12.8237 14.6322 12.8251 14.6396 12.8266C14.6674 12.8346 14.6841 12.8444 14.7073 12.8614C14.7146 12.8667 14.722 12.872 14.7296 12.8775C14.7371 12.8831 14.7447 12.8887 14.7525 12.8945C14.7676 12.9055 14.7827 12.9165 14.7978 12.9275C14.8107 12.937 14.8236 12.9464 14.8369 12.9561C14.849 12.9642 14.861 12.9722 14.8735 12.9805C14.8735 12.9885 14.8735 12.9965 14.8735 13.0048C14.8803 13.0077 14.8871 13.0106 14.8942 13.0136C14.9285 13.0327 14.9523 13.0561 14.98 13.0839C14.9897 13.0936 14.9994 13.1033 15.0095 13.1132C15.0317 13.1387 15.0317 13.1387 15.0317 13.1631C15.0397 13.1631 15.0478 13.1631 15.0561 13.1631C15.0714 13.1801 15.0714 13.1801 15.0888 13.2042C15.0951 13.213 15.1015 13.2218 15.108 13.2308C15.115 13.2406 15.1219 13.2504 15.1291 13.2605C15.1408 13.2764 15.1408 13.2764 15.1528 13.2927C15.1606 13.3034 15.1683 13.3141 15.1763 13.3251C15.1871 13.3401 15.1871 13.3401 15.1982 13.3554C15.2143 13.3822 15.2143 13.3822 15.2143 13.4187C15.2223 13.4187 15.2304 13.4187 15.2387 13.4187C15.2563 13.4546 15.2737 13.4907 15.2912 13.5267C15.2961 13.5368 15.301 13.5468 15.3061 13.5571C15.3361 13.6197 15.3593 13.6812 15.3776 13.7482C15.3827 13.7716 15.3827 13.7716 15.3969 13.7839C15.3987 13.7975 15.4004 13.811 15.4022 13.825C15.4061 13.8702 15.4061 13.8702 15.4334 13.9056C15.4365 13.9367 15.4365 13.9367 15.4366 13.9742C15.4367 13.9883 15.4367 14.0023 15.4368 14.0168C15.4367 14.0396 15.4367 14.0396 15.4367 14.0628C15.4367 14.0784 15.4367 14.0939 15.4367 14.11C15.4368 14.1429 15.4367 14.1758 15.4366 14.2087C15.4365 14.2509 15.4365 14.2932 15.4367 14.3354C15.4368 14.3757 15.4367 14.4159 15.4367 14.4561C15.4367 14.4714 15.4368 14.4866 15.4368 14.5022C15.4367 14.5232 15.4367 14.5232 15.4366 14.5447C15.4366 14.5571 15.4365 14.5694 15.4365 14.5822C15.4334 14.6117 15.4334 14.6117 15.4091 14.636C15.4073 14.6486 15.4056 14.6611 15.4038 14.6741C15.3973 14.7186 15.3862 14.753 15.3697 14.7943C15.356 14.8302 15.3461 14.8668 15.336 14.9038C15.328 14.9038 15.32 14.9038 15.3117 14.9038C15.3106 14.9121 15.3095 14.9203 15.3083 14.9287C15.2973 14.9739 15.2775 15.0128 15.2562 15.0537C15.2501 15.0655 15.2501 15.0655 15.244 15.0775C15.2342 15.0968 15.2243 15.116 15.2143 15.1351C15.2063 15.1351 15.1982 15.1351 15.19 15.1351C15.1779 15.1713 15.1779 15.1713 15.1656 15.2082C15.1576 15.2082 15.1496 15.2082 15.1413 15.2082C15.138 15.2172 15.1347 15.2263 15.1314 15.2356C15.1175 15.2677 15.1036 15.2916 15.0804 15.3177C15.0724 15.3177 15.0643 15.3177 15.0561 15.3177C15.0512 15.3286 15.0512 15.3286 15.0461 15.3396C15.0317 15.3665 15.017 15.3843 14.9956 15.4058C14.9886 15.4128 14.9817 15.4198 14.9745 15.427C14.9673 15.4341 14.96 15.4412 14.9526 15.4486C14.9454 15.4559 14.9381 15.4633 14.9307 15.4708C14.9237 15.4777 14.9168 15.4847 14.9096 15.4918C14.9033 15.4981 14.8969 15.5044 14.8904 15.5109C14.8735 15.5247 14.8735 15.5247 14.8491 15.5247C14.8491 15.5327 14.8491 15.5408 14.8491 15.549C14.819 15.5611 14.819 15.5611 14.7882 15.5734C14.7882 15.5814 14.7882 15.5894 14.7882 15.5977C14.7612 15.6171 14.7343 15.635 14.7061 15.6525C14.6984 15.6574 14.6906 15.6623 14.6827 15.6674C14.5809 15.7316 14.5809 15.7316 14.5326 15.7316C14.5326 15.7397 14.5326 15.7477 14.5326 15.756C14.444 15.7906 14.3554 15.8243 14.2648 15.8534C14.2445 15.8599 14.2242 15.8665 14.2039 15.8731C14.1949 15.8761 14.1859 15.879 14.1765 15.882C14.1552 15.8882 14.1552 15.8882 14.1431 15.9021C14.1212 15.9033 14.0993 15.9037 14.0774 15.9038C14.0564 15.9039 14.0564 15.9039 14.035 15.9041C14.0121 15.9041 14.0121 15.9041 13.9887 15.9041C13.9731 15.9041 13.9576 15.9042 13.9415 15.9042C13.9085 15.9043 13.8755 15.9043 13.8425 15.9043C13.8002 15.9043 13.7579 15.9045 13.7156 15.9047C13.6752 15.9049 13.6349 15.9048 13.5946 15.9049C13.5718 15.905 13.5718 15.905 13.5485 15.9051C13.5344 15.9051 13.5203 15.9051 13.5058 15.905C13.4934 15.905 13.4809 15.9051 13.4681 15.9051C13.437 15.9021 13.437 15.9021 13.4005 15.8777C13.3793 15.8724 13.3581 15.8672 13.3367 15.8626C13.2258 15.8387 13.1349 15.7988 13.0353 15.7438C13.023 15.7372 13.0106 15.7306 12.9979 15.7238C12.9368 15.6909 12.8763 15.6568 12.8162 15.6221C12.8162 15.614 12.8162 15.606 12.8162 15.5977C12.8074 15.5947 12.7986 15.5917 12.7895 15.5886C12.7519 15.5719 12.7248 15.5524 12.6944 15.5247C12.6944 15.5167 12.6944 15.5086 12.6944 15.5003C12.6875 15.4973 12.6805 15.4943 12.6733 15.4912C12.5537 15.4253 12.4465 15.2757 12.3779 15.1595C12.3779 15.1515 12.3779 15.1434 12.3779 15.1351C12.3699 15.1351 12.3619 15.1351 12.3536 15.1351C12.3536 15.1191 12.3536 15.103 12.3536 15.0864C12.3456 15.0864 12.3375 15.0864 12.3292 15.0864C12.3234 15.0738 12.3175 15.0612 12.3115 15.0482C12.3037 15.0315 12.2959 15.0149 12.2882 14.9982C12.2824 14.9857 12.2824 14.9857 12.2765 14.973C12.2727 14.965 12.2689 14.9569 12.265 14.9485C12.2596 14.9368 12.2596 14.9368 12.254 14.9249C12.2461 14.9083 12.2378 14.8919 12.2292 14.8757C12.2164 14.848 12.218 14.8244 12.2197 14.7943C12.2116 14.7943 12.2036 14.7943 12.1953 14.7943C12.1928 14.783 12.1903 14.7717 12.1878 14.7601C12.1845 14.7455 12.1812 14.7309 12.1778 14.7159C12.1746 14.7014 12.1713 14.6868 12.168 14.6718C12.1625 14.6376 12.1625 14.6376 12.1466 14.6239C12.1441 14.6059 12.1422 14.5879 12.1406 14.5698C12.137 14.5284 12.137 14.5284 12.1223 14.49C12.1211 14.4547 12.1206 14.4198 12.1207 14.3846C12.1207 14.3741 12.1207 14.3637 12.1206 14.3529C12.1206 14.3308 12.1207 14.3087 12.1207 14.2866C12.1208 14.2527 12.1207 14.2188 12.1206 14.1849C12.1206 14.1635 12.1207 14.142 12.1207 14.1206C12.1207 14.1104 12.1206 14.1002 12.1206 14.0897C12.1209 14.018 12.1209 14.018 12.1345 13.9909C12.1372 13.9721 12.1394 13.9534 12.1413 13.9345C12.1423 13.9246 12.1434 13.9147 12.1444 13.9044C12.1451 13.8968 12.1459 13.8891 12.1466 13.8813C12.1547 13.8813 12.1627 13.8813 12.171 13.8813C12.1702 13.869 12.1695 13.8567 12.1687 13.844C12.1712 13.7913 12.1855 13.7584 12.2075 13.7109C12.2159 13.677 12.2159 13.677 12.2197 13.65C12.2277 13.65 12.2358 13.65 12.244 13.65C12.2451 13.6421 12.2461 13.6342 12.2472 13.626C12.2594 13.5762 12.2805 13.5325 12.3026 13.4864C12.3068 13.4774 12.311 13.4685 12.3153 13.4592C12.3405 13.406 12.3667 13.3562 12.4023 13.3091C12.4103 13.3091 12.4184 13.3091 12.4266 13.3091C12.4292 13.3009 12.4317 13.2926 12.4343 13.2841C12.4565 13.2364 12.4879 13.2015 12.5225 13.1623C12.5289 13.1549 12.5354 13.1474 12.542 13.1397C12.6118 13.0597 12.6118 13.0597 12.6457 13.0292C12.6538 13.0292 12.6618 13.0292 12.6701 13.0292C12.6701 13.0211 12.6701 13.0131 12.6701 13.0048C12.6935 12.985 12.7169 12.9666 12.7416 12.9485C12.7484 12.9434 12.7551 12.9383 12.7621 12.933C12.813 12.8953 12.813 12.8953 12.8405 12.8953C12.8405 12.8872 12.8405 12.8792 12.8405 12.8709C12.8526 12.8709 12.8646 12.8709 12.877 12.8709C12.877 12.8629 12.877 12.8548 12.877 12.8466C12.8891 12.8466 12.9011 12.8466 12.9136 12.8466C12.9136 12.8385 12.9136 12.8305 12.9136 12.8222C13.2134 12.6689 13.2134 12.6689 13.382 12.6345C13.4118 12.6305 13.4118 12.6305 13.4248 12.6153C13.4428 12.6127 13.4608 12.6108 13.4789 12.6092C13.5408 12.6036 13.5944 12.589 13.658 12.5889ZM13.3893 13.0546C13.355 13.0696 13.3199 13.0823 13.2848 13.0954C13.2261 13.1178 13.1738 13.142 13.1205 13.1752C13.1087 13.1818 13.0969 13.1883 13.0847 13.195C13.0765 13.2005 13.0682 13.2061 13.0596 13.2118C13.0596 13.2198 13.0596 13.2278 13.0596 13.2361C13.0514 13.2384 13.0431 13.2406 13.0345 13.243C12.9841 13.2677 12.9518 13.3052 12.9136 13.3457C12.9035 13.3555 12.8935 13.3653 12.8831 13.3753C12.7367 13.5254 12.6269 13.7024 12.5727 13.9056C12.5682 13.9216 12.5636 13.9376 12.559 13.9536C12.5555 13.9659 12.552 13.9782 12.5484 13.9909C12.5443 14.0029 12.5403 14.015 12.5362 14.0274C12.5127 14.2261 12.4994 14.4612 12.5861 14.6474C12.6006 14.6806 12.6122 14.7146 12.6244 14.7486C12.6544 14.8277 12.695 14.8955 12.7431 14.9647C12.782 14.9453 12.7988 14.9059 12.8162 14.8673C12.8162 14.8553 12.8162 14.8432 12.8162 14.8308C12.8242 14.8308 12.8322 14.8308 12.8405 14.8308C12.8465 14.8213 12.8526 14.8117 12.8588 14.8019C12.9341 14.684 13.0556 14.5862 13.1814 14.5265C13.1681 14.4878 13.1511 14.4564 13.1281 14.423C13.0306 14.2658 13.0173 14.0577 13.0572 13.8789C13.0721 13.8283 13.0883 13.7844 13.1161 13.7395C13.1357 13.7111 13.1357 13.7111 13.1327 13.6743C13.1407 13.6743 13.1487 13.6743 13.157 13.6743C13.1931 13.6301 13.1931 13.6301 13.2057 13.577C13.2138 13.577 13.2218 13.577 13.2301 13.577C13.2301 13.5689 13.2301 13.5609 13.2301 13.5526C13.2381 13.5526 13.2461 13.5526 13.2544 13.5526C13.2544 13.5446 13.2544 13.5365 13.2544 13.5283C13.2624 13.5283 13.2705 13.5283 13.2788 13.5283C13.2788 13.5202 13.2788 13.5122 13.2788 13.5039C13.2857 13.5007 13.2926 13.4974 13.2997 13.4941C13.3388 13.4736 13.3739 13.4481 13.41 13.4228C13.4358 13.4073 13.4563 13.3998 13.4857 13.3944C13.4857 13.3863 13.4857 13.3783 13.4857 13.37C13.4937 13.3685 13.5018 13.367 13.5101 13.3654C13.5477 13.3581 13.5477 13.3581 13.5884 13.3454C13.6552 13.3287 13.7215 13.3295 13.79 13.3297C13.8027 13.3295 13.8154 13.3293 13.8285 13.3291C13.9056 13.329 13.9635 13.3385 14.0335 13.37C14.05 13.3757 14.0664 13.3814 14.0829 13.387C14.1328 13.4058 14.174 13.4321 14.2169 13.4636C14.2242 13.469 14.2316 13.4743 14.2392 13.4798C14.3254 13.5441 14.3856 13.6156 14.4352 13.7109C14.4433 13.7109 14.4513 13.7109 14.4596 13.7109C14.4596 13.7269 14.4596 13.743 14.4596 13.7596C14.4676 13.7596 14.4756 13.7596 14.4839 13.7596C14.4854 13.7701 14.4869 13.7806 14.4885 13.7915C14.4948 13.832 14.4948 13.832 14.5085 13.867C14.5289 13.9331 14.5244 13.9998 14.5242 14.0685C14.5244 14.083 14.5246 14.0975 14.5248 14.1125C14.5249 14.1954 14.5169 14.2559 14.4839 14.3317C14.4839 14.3478 14.4839 14.3638 14.4839 14.3804C14.4759 14.3804 14.4678 14.3804 14.4596 14.3804C14.4493 14.3978 14.4392 14.4154 14.4291 14.4329C14.4235 14.4426 14.4178 14.4524 14.412 14.4624C14.3961 14.4903 14.3961 14.4903 14.3987 14.5265C14.4262 14.5493 14.4531 14.5695 14.4824 14.5896C14.4903 14.5953 14.4982 14.6009 14.5064 14.6067C14.5462 14.6376 14.5462 14.6376 14.5935 14.6482C14.5935 14.6562 14.5935 14.6643 14.5935 14.6726C14.6015 14.6726 14.6095 14.6726 14.6178 14.6726C14.6178 14.6806 14.6178 14.6886 14.6178 14.6969C14.6259 14.6969 14.6339 14.6969 14.6422 14.6969C14.6422 14.7049 14.6422 14.713 14.6422 14.7212C14.6502 14.7212 14.6582 14.7212 14.6665 14.7212C14.6698 14.7281 14.673 14.735 14.6764 14.7421C14.6918 14.7717 14.7093 14.7986 14.7281 14.8262C14.7627 14.8771 14.7627 14.8771 14.7761 14.9038C14.7841 14.9038 14.7921 14.9038 14.8004 14.9038C14.8044 14.9239 14.8085 14.944 14.8126 14.9647C14.8616 14.9205 14.8908 14.877 14.9176 14.8164C14.9213 14.8083 14.9249 14.8002 14.9287 14.7919C14.9521 14.7391 14.972 14.6864 14.9866 14.6304C14.9917 14.612 14.9973 14.5937 15.0037 14.5757C15.1068 14.2859 15.0466 13.9712 14.9222 13.6987C14.9065 13.6659 14.8902 13.6336 14.8735 13.6013C14.8654 13.6013 14.8574 13.6013 14.8491 13.6013C14.8481 13.5947 14.8471 13.5881 14.846 13.5813C14.8338 13.5427 14.8129 13.5153 14.789 13.4826C14.776 13.4646 14.776 13.4646 14.7628 13.4463C14.7551 13.4372 14.7475 13.4281 14.7396 13.4187C14.7315 13.4187 14.7235 13.4187 14.7152 13.4187C14.7119 13.4114 14.7087 13.4041 14.7053 13.3966C14.6909 13.37 14.6775 13.3528 14.6543 13.3335C14.6463 13.3335 14.6383 13.3335 14.63 13.3335C14.63 13.3255 14.63 13.3174 14.63 13.3091C14.622 13.3091 14.6139 13.3091 14.6056 13.3091C14.6056 13.3011 14.6056 13.2931 14.6056 13.2848C14.4632 13.169 14.2952 13.0788 14.1187 13.0292C14.1104 13.0266 14.1021 13.024 14.0936 13.0213C13.8873 12.9616 13.5867 12.9632 13.3893 13.0546ZM13.5466 13.8083C13.5466 13.8163 13.5466 13.8243 13.5466 13.8326C13.5385 13.8326 13.5305 13.8326 13.5222 13.8326C13.4631 13.9322 13.4176 14.0237 13.4435 14.1424C13.4608 14.2054 13.4808 14.2566 13.5222 14.3074C13.5303 14.3074 13.5383 14.3074 13.5466 14.3074C13.5466 14.3154 13.5466 14.3234 13.5466 14.3317C13.5667 14.3397 13.5867 14.3478 13.6074 14.3561C13.6074 14.3641 13.6074 14.3721 13.6074 14.3804C13.7375 14.426 13.8382 14.4331 13.9658 14.3728C13.9761 14.3673 13.9864 14.3617 13.997 14.3561C13.997 14.348 13.997 14.34 13.997 14.3317C14.0045 14.3289 14.012 14.3262 14.0198 14.3233C14.0532 14.3027 14.0585 14.2831 14.07 14.2465C14.0781 14.2465 14.0861 14.2465 14.0944 14.2465C14.0944 14.2304 14.0944 14.2144 14.0944 14.1978C14.1024 14.1978 14.1104 14.1978 14.1187 14.1978C14.1332 14.0569 14.1304 13.9507 14.0457 13.8326C13.9744 13.7608 13.8903 13.728 13.7908 13.7185C13.7014 13.7224 13.6158 13.7517 13.5466 13.8083ZM13.1737 15.0356C13.112 15.1149 13.0929 15.2075 13.084 15.3056C13.162 15.3568 13.2401 15.3942 13.3278 15.4262C13.3558 15.4365 13.3826 15.4475 13.4096 15.46C13.4952 15.4946 13.5828 15.5048 13.6744 15.5087C13.6849 15.5092 13.6954 15.5097 13.7062 15.5102C13.8789 15.5167 14.0443 15.5108 14.2039 15.4395C14.2214 15.4337 14.2389 15.4282 14.2564 15.4227C14.3357 15.3969 14.4213 15.362 14.4839 15.3056C14.4955 15.2229 14.4695 15.1611 14.4352 15.0864C14.4272 15.0864 14.4192 15.0864 14.4109 15.0864C14.4052 15.0721 14.4052 15.0721 14.3995 15.0575C14.3874 15.0265 14.3874 15.0265 14.3744 15.0012C14.3663 15.0012 14.3583 15.0012 14.35 15.0012C14.35 14.9932 14.35 14.9852 14.35 14.9769C14.342 14.9769 14.3339 14.9769 14.3257 14.9769C14.3257 14.9689 14.3257 14.9608 14.3257 14.9525C14.2031 14.8528 14.0658 14.8146 13.9106 14.8154C13.9005 14.8154 13.8904 14.8154 13.88 14.8153C13.8587 14.8153 13.8375 14.8154 13.8162 14.8155C13.784 14.8156 13.7518 14.8155 13.7196 14.8153C13.6988 14.8153 13.6781 14.8154 13.6573 14.8154C13.6431 14.8153 13.6431 14.8153 13.6286 14.8153C13.4391 14.8168 13.2993 14.8955 13.1737 15.0356Z" fill="#0D152C"/>
<path d="M6.07068 12.5885C6.10283 12.5887 6.13499 12.5887 6.16715 12.5887C6.18759 12.5888 6.20804 12.5889 6.22849 12.589C6.24291 12.589 6.24291 12.589 6.25761 12.589C6.32495 12.5896 6.32495 12.5896 6.35212 12.6032C6.36857 12.6051 6.38507 12.6065 6.40158 12.6077C6.45199 12.6129 6.4957 12.6249 6.54324 12.642C6.5716 12.652 6.60007 12.6599 6.62907 12.6678C6.74937 12.7035 6.86152 12.7654 6.97296 12.8223C6.97296 12.8303 6.97296 12.8384 6.97296 12.8466C6.97935 12.8474 6.98574 12.8482 6.99232 12.849C7.03509 12.8633 7.06679 12.8911 7.10154 12.9189C7.15783 12.9635 7.15783 12.9635 7.21643 13.0049C7.21643 13.0129 7.21643 13.021 7.21643 13.0292C7.22296 13.0317 7.22948 13.0341 7.23621 13.0367C7.27767 13.0609 7.30614 13.0942 7.33816 13.1297C7.3445 13.1365 7.35084 13.1433 7.35737 13.1504C7.45989 13.2625 7.45989 13.2625 7.45989 13.3092C7.46793 13.3092 7.47596 13.3092 7.48424 13.3092C7.64249 13.5818 7.64249 13.5818 7.64249 13.6501C7.65053 13.6501 7.65856 13.6501 7.66684 13.6501C7.67058 13.6644 7.67058 13.6644 7.6744 13.6789C7.67768 13.6913 7.68096 13.7036 7.68434 13.7163C7.68921 13.7347 7.68921 13.7347 7.69418 13.7535C7.70044 13.783 7.70044 13.783 7.71553 13.7962C7.71603 13.8246 7.71605 13.853 7.71553 13.8814C7.72357 13.8814 7.7316 13.8814 7.73988 13.8814C7.76615 13.9993 7.76761 14.1146 7.76673 14.2348C7.76651 14.2667 7.76648 14.2987 7.76649 14.3306C7.76643 14.3509 7.76635 14.3713 7.76627 14.3916C7.76626 14.4011 7.76624 14.4107 7.76623 14.4205C7.76564 14.4872 7.76564 14.4872 7.75205 14.5144C7.75018 14.5311 7.74871 14.5478 7.74749 14.5646C7.74262 14.6135 7.73045 14.6534 7.71187 14.6986C7.70014 14.7299 7.69532 14.7613 7.69119 14.7944C7.68315 14.7944 7.67512 14.7944 7.66684 14.7944C7.66783 14.8024 7.66882 14.8104 7.66984 14.8186C7.66559 14.8705 7.64315 14.9086 7.61891 14.9541C7.6099 14.9714 7.60091 14.9887 7.59195 15.006C7.58793 15.0136 7.58391 15.0211 7.57978 15.029C7.56787 15.0521 7.56787 15.0521 7.55728 15.0865C7.54925 15.0865 7.54121 15.0865 7.53293 15.0865C7.53185 15.0931 7.53077 15.0997 7.52965 15.1065C7.49627 15.2145 7.39758 15.3119 7.32218 15.3931C7.3149 15.401 7.30762 15.4089 7.30011 15.417C7.26577 15.4532 7.23808 15.4797 7.19208 15.5004C7.19208 15.5085 7.19208 15.5165 7.19208 15.5248C7.17163 15.5431 7.17163 15.5431 7.14491 15.5628C7.13615 15.5694 7.1274 15.5759 7.11838 15.5827C7.0947 15.5978 7.0947 15.5978 7.07035 15.5978C7.07035 15.6058 7.07035 15.6139 7.07035 15.6222C7.02146 15.6504 6.97246 15.6784 6.92334 15.7062C6.90209 15.7183 6.88093 15.7306 6.85979 15.7428C6.73323 15.8143 6.60269 15.8561 6.46168 15.89C6.45767 15.894 6.45365 15.898 6.44951 15.9021C6.4276 15.9034 6.40565 15.9038 6.3837 15.9039C6.36965 15.904 6.35559 15.9041 6.34111 15.9041C6.3258 15.9042 6.3105 15.9042 6.29473 15.9042C6.27913 15.9042 6.26354 15.9043 6.24747 15.9043C6.2144 15.9044 6.18134 15.9044 6.14827 15.9044C6.10585 15.9044 6.06343 15.9046 6.021 15.9048C5.98062 15.9049 5.94024 15.9049 5.89986 15.9049C5.88458 15.905 5.8693 15.9051 5.85355 15.9052C5.83946 15.9052 5.82536 15.9051 5.81084 15.9051C5.79839 15.9051 5.78594 15.9051 5.77311 15.9052C5.74346 15.9021 5.74346 15.9021 5.71911 15.8778C5.68894 15.8696 5.65906 15.8624 5.62857 15.8557C5.54365 15.8357 5.46809 15.8087 5.39043 15.7682C5.3713 15.7584 5.3713 15.7584 5.35177 15.7484C5.17274 15.6544 5.17274 15.6544 5.09827 15.5978C5.09827 15.5898 5.09827 15.5817 5.09827 15.5735C5.07819 15.5654 5.0581 15.5574 5.03741 15.5491C5.03741 15.5411 5.03741 15.533 5.03741 15.5248C5.02657 15.5199 5.02657 15.5199 5.01552 15.5149C4.98865 15.5004 4.97088 15.4857 4.94934 15.4643C4.94236 15.4573 4.93538 15.4504 4.92818 15.4432C4.92104 15.436 4.9139 15.4287 4.90655 15.4213C4.89922 15.4141 4.89189 15.4068 4.88434 15.3994C4.87742 15.3924 4.8705 15.3855 4.86337 15.3783C4.85705 15.372 4.85073 15.3656 4.84422 15.3591C4.83046 15.3422 4.83046 15.3422 4.83046 15.3178C4.82243 15.3178 4.81439 15.3178 4.80612 15.3178C4.79042 15.3 4.79042 15.3 4.77416 15.2767C4.76873 15.2691 4.7633 15.2615 4.75771 15.2536C4.74525 15.2326 4.74525 15.2326 4.74525 15.2083C4.73721 15.2083 4.72918 15.2083 4.7209 15.2083C4.71287 15.1842 4.70483 15.1601 4.69656 15.1352C4.68852 15.1352 4.68049 15.1352 4.67221 15.1352C4.65817 15.1081 4.64424 15.081 4.63036 15.0538C4.6264 15.0462 4.62244 15.0386 4.61836 15.0307C4.59701 14.9887 4.58118 14.9508 4.57482 14.9039C4.56679 14.9039 4.55875 14.9039 4.55048 14.9039C4.5471 14.8918 4.54373 14.8796 4.54025 14.8671C4.5358 14.8512 4.53135 14.8353 4.52689 14.8195C4.52356 14.8074 4.52356 14.8074 4.52016 14.7952C4.51121 14.755 4.51121 14.755 4.48961 14.7213C4.48785 14.7075 4.48609 14.6937 4.48428 14.6795C4.48172 14.6356 4.48172 14.6356 4.45309 14.6118C4.45 14.5823 4.45 14.5823 4.44994 14.5448C4.44986 14.5308 4.44979 14.5167 4.44971 14.5023C4.44976 14.4871 4.44981 14.4719 4.44986 14.4562C4.44982 14.4329 4.44982 14.4329 4.44979 14.4091C4.44977 14.3762 4.4498 14.3432 4.44992 14.3103C4.45005 14.2681 4.44997 14.2259 4.44983 14.1836C4.44972 14.1434 4.4498 14.1031 4.44986 14.0629C4.44981 14.0477 4.44976 14.0325 4.44971 14.0169C4.44978 14.0028 4.44986 13.9888 4.44994 13.9743C4.44996 13.9619 4.44998 13.9495 4.45 13.9368C4.45309 13.9057 4.45309 13.9057 4.47744 13.8692C4.47919 13.8564 4.48095 13.8436 4.48276 13.8304C4.49038 13.7788 4.50643 13.7345 4.52613 13.6866C4.53253 13.6704 4.53253 13.6704 4.53906 13.6539C4.57836 13.5566 4.62432 13.4634 4.67221 13.3701C4.68024 13.3701 4.68828 13.3701 4.69656 13.3701C4.69969 13.3612 4.70283 13.3523 4.70607 13.3432C4.72146 13.3079 4.73935 13.2827 4.76351 13.2529C4.78727 13.2234 4.80942 13.1947 4.83046 13.1632C4.8385 13.1632 4.84653 13.1632 4.85481 13.1632C4.8577 13.1563 4.86058 13.1495 4.86356 13.1424C4.88268 13.1081 4.90612 13.0843 4.93394 13.0566C4.9436 13.0469 4.95327 13.0372 4.96323 13.0272C4.98871 13.0049 4.98871 13.0049 5.01306 13.0049C5.01306 12.9969 5.01306 12.9888 5.01306 12.9806C5.04309 12.9528 5.07725 12.9298 5.11045 12.906C5.12034 12.8989 5.13024 12.8918 5.14044 12.8844C5.23139 12.8205 5.32538 12.7697 5.42695 12.7249C5.44083 12.7188 5.4547 12.7127 5.46899 12.7064C5.55612 12.6692 5.63714 12.6404 5.73129 12.6275C5.7353 12.6235 5.73932 12.6195 5.74346 12.6154C5.85195 12.5857 5.95911 12.5877 6.07068 12.5885ZM5.69477 13.0536C5.68455 13.0569 5.67433 13.0603 5.66381 13.0638C5.5289 13.113 5.39 13.1917 5.28087 13.2849C5.28087 13.2929 5.28087 13.301 5.28087 13.3092C5.27284 13.3092 5.26481 13.3092 5.25653 13.3092C5.25653 13.3173 5.25653 13.3253 5.25653 13.3336C5.24561 13.3385 5.24561 13.3385 5.23446 13.3435C5.20785 13.3579 5.19063 13.3713 5.17131 13.3944C5.17131 13.4025 5.17131 13.4105 5.17131 13.4188C5.16328 13.4188 5.15525 13.4188 5.14697 13.4188C5.12706 13.442 5.10877 13.465 5.09067 13.4895C5.08555 13.4962 5.08044 13.5029 5.07516 13.5097C5.04389 13.5509 5.04389 13.5509 5.03741 13.6014C5.02937 13.6014 5.02134 13.6014 5.01306 13.6014C4.85087 13.939 4.77263 14.2759 4.89922 14.6399C4.95771 14.8049 4.95771 14.8049 5.04958 14.9526C5.06163 14.9526 5.07368 14.9526 5.0861 14.9526C5.0861 14.9366 5.0861 14.9205 5.0861 14.9039C5.09414 14.9039 5.10217 14.9039 5.11045 14.9039C5.12857 14.8778 5.12857 14.8778 5.14621 14.8453C5.16805 14.8066 5.18865 14.7768 5.22001 14.7457C5.22001 14.7376 5.22001 14.7296 5.22001 14.7213C5.22804 14.7213 5.23608 14.7213 5.24435 14.7213C5.24435 14.7133 5.24435 14.7053 5.24435 14.697C5.25239 14.697 5.26042 14.697 5.2687 14.697C5.2687 14.689 5.2687 14.6809 5.2687 14.6726C5.27674 14.6726 5.28477 14.6726 5.29305 14.6726C5.29305 14.6646 5.29305 14.6566 5.29305 14.6483C5.29995 14.645 5.30686 14.6418 5.31397 14.6384C5.34311 14.6232 5.36943 14.606 5.39652 14.5874C5.43015 14.5644 5.46313 14.544 5.49999 14.5266C5.49651 14.5196 5.49303 14.5126 5.48944 14.5054C5.46861 14.4638 5.44778 14.4221 5.42695 14.3805C5.41892 14.3805 5.41088 14.3805 5.40261 14.3805C5.4011 14.3699 5.39959 14.3594 5.39804 14.3485C5.39169 14.308 5.39169 14.308 5.37801 14.2731C5.35763 14.207 5.3621 14.1402 5.36228 14.0716C5.36209 14.0571 5.36189 14.0425 5.36169 14.0275C5.36164 13.9447 5.36959 13.8841 5.40261 13.8083C5.40261 13.7923 5.40261 13.7762 5.40261 13.7596C5.41064 13.7596 5.41868 13.7596 5.42695 13.7596C5.42695 13.7436 5.42695 13.7275 5.42695 13.7109C5.43499 13.7109 5.44302 13.7109 5.4513 13.7109C5.45707 13.6994 5.46285 13.6878 5.4688 13.676C5.55622 13.5252 5.70183 13.4157 5.86519 13.3579C5.88339 13.3514 5.88339 13.3514 5.90195 13.3448C5.96519 13.3272 6.02981 13.3296 6.09496 13.3298C6.11391 13.3295 6.11391 13.3295 6.13324 13.3292C6.20419 13.3291 6.2626 13.3355 6.32859 13.3622C6.35569 13.3727 6.35569 13.3727 6.40082 13.3701C6.40082 13.3781 6.40082 13.3862 6.40082 13.3944C6.41287 13.399 6.42492 13.4035 6.43734 13.4081C6.48501 13.4282 6.52266 13.457 6.56273 13.4893C6.5825 13.5064 6.5825 13.5064 6.60776 13.504C6.60776 13.512 6.60776 13.5201 6.60776 13.5283C6.6158 13.5283 6.62383 13.5283 6.63211 13.5283C6.63211 13.5364 6.63211 13.5444 6.63211 13.5527C6.64014 13.5527 6.64818 13.5527 6.65646 13.5527C6.65646 13.5607 6.65646 13.5688 6.65646 13.577C6.66449 13.577 6.67253 13.577 6.6808 13.577C6.68356 13.5853 6.68633 13.5936 6.68917 13.6021C6.70619 13.6402 6.72719 13.67 6.75237 13.7031C6.76602 13.7231 6.76602 13.7231 6.77819 13.7596C6.78622 13.7596 6.79426 13.7596 6.80254 13.7596C6.80178 13.7674 6.80103 13.7752 6.80025 13.7832C6.80238 13.818 6.80821 13.8373 6.82061 13.8691C6.8432 13.9353 6.84511 13.9975 6.84438 14.067C6.84428 14.0794 6.84418 14.0917 6.84408 14.1044C6.84081 14.2497 6.80668 14.3557 6.72089 14.4749C6.7157 14.4839 6.7105 14.4929 6.70515 14.5022C6.71318 14.5392 6.71318 14.5392 6.7382 14.5518C6.74713 14.556 6.75606 14.5602 6.76526 14.5646C6.92245 14.6478 7.05474 14.8054 7.13122 14.9648C7.28774 14.824 7.35178 14.5461 7.36251 14.344C7.36409 14.2911 7.36376 14.2385 7.36251 14.1857C7.36241 14.1676 7.36241 14.1676 7.36232 14.149C7.353 13.8891 7.23031 13.6229 7.05818 13.431C7.048 13.4181 7.03785 13.4051 7.02774 13.3922C6.8345 13.1748 6.54336 13.023 6.25322 12.9958C6.06001 12.9849 5.87938 12.9921 5.69477 13.0536ZM5.82396 13.8524C5.80123 13.8844 5.79215 13.9024 5.79215 13.9422C5.78412 13.9422 5.77608 13.9422 5.76781 13.9422C5.75016 14.0283 5.75016 14.1118 5.76781 14.1979C5.77584 14.1979 5.78387 14.1979 5.79215 14.1979C5.79291 14.2064 5.79366 14.215 5.79443 14.2237C5.80807 14.272 5.83063 14.2955 5.86519 14.3318C5.87323 14.3318 5.88126 14.3318 5.88954 14.3318C5.88954 14.3398 5.88954 14.3479 5.88954 14.3561C5.97644 14.41 6.05514 14.4267 6.15735 14.417C6.19877 14.4071 6.2389 14.3946 6.27908 14.3805C6.27908 14.3724 6.27908 14.3644 6.27908 14.3561C6.29917 14.3481 6.31926 14.3401 6.33995 14.3318C6.33995 14.3238 6.33995 14.3157 6.33995 14.3074C6.34799 14.3074 6.35602 14.3074 6.3643 14.3074C6.42368 14.2075 6.4671 14.1176 6.44385 13.9984C6.41911 13.9027 6.37568 13.8292 6.29278 13.7733C6.13382 13.6836 5.94406 13.7123 5.82396 13.8524ZM5.66357 14.8872C5.65212 14.8931 5.65212 14.8931 5.64044 14.8992C5.62197 14.9088 5.60358 14.9185 5.58521 14.9283C5.58521 14.9363 5.58521 14.9443 5.58521 14.9526C5.57717 14.9526 5.56914 14.9526 5.56086 14.9526C5.56086 14.9607 5.56086 14.9687 5.56086 14.977C5.55283 14.977 5.54479 14.977 5.53651 14.977C5.53651 14.985 5.53651 14.993 5.53651 15.0013C5.52848 15.0013 5.52044 15.0013 5.51217 15.0013C5.4554 15.0722 5.40282 15.1687 5.39424 15.26C5.39844 15.3081 5.39844 15.3081 5.43684 15.3384C5.45351 15.3483 5.47055 15.3577 5.48782 15.3665C5.49797 15.3718 5.50813 15.377 5.51859 15.3824C5.58732 15.4157 5.65574 15.4388 5.72986 15.4569C5.75563 15.4639 5.75563 15.4639 5.76781 15.4761C5.84182 15.4979 5.91623 15.5055 5.99301 15.5088C6.0035 15.5093 6.01399 15.5097 6.02479 15.5102C6.18278 15.5162 6.35139 15.5183 6.4974 15.4506C6.53083 15.4359 6.5651 15.4239 6.59939 15.4114C6.67254 15.3836 6.73725 15.3485 6.80254 15.3057C6.79091 15.1564 6.73947 15.0491 6.62997 14.9465C6.51131 14.8492 6.38065 14.8147 6.22925 14.8155C6.21913 14.8155 6.209 14.8154 6.19857 14.8154C6.17734 14.8154 6.1561 14.8154 6.13487 14.8155C6.10265 14.8157 6.07045 14.8155 6.03823 14.8154C6.01745 14.8154 5.99667 14.8154 5.97589 14.8155C5.96168 14.8154 5.96168 14.8154 5.94718 14.8153C5.84343 14.8162 5.75485 14.8383 5.66357 14.8872Z" fill="#0D152C"/>
<path d="M13.5028 4.91976C13.5239 4.91964 13.5239 4.91964 13.5454 4.91952C13.5607 4.91951 13.576 4.9195 13.5918 4.91948C13.6074 4.91944 13.623 4.9194 13.6391 4.91936C13.6721 4.91929 13.7052 4.91926 13.7383 4.91927C13.7807 4.91927 13.8231 4.91911 13.8655 4.9189C13.9059 4.91873 13.9463 4.91874 13.9867 4.91872C14.0096 4.91859 14.0096 4.91859 14.033 4.91846C14.0471 4.91849 14.0612 4.91853 14.0757 4.91857C14.0944 4.91854 14.0944 4.91854 14.1134 4.91852C14.1431 4.92153 14.1431 4.92153 14.1674 4.94587C14.1976 4.95403 14.2275 4.96123 14.258 4.96794C14.3428 4.98795 14.4186 5.01495 14.4961 5.05543C14.5068 5.06094 14.5175 5.06645 14.5285 5.07212C14.5926 5.10618 14.6553 5.14279 14.7175 5.18021C14.731 5.18831 14.7445 5.1964 14.7584 5.20475C14.7682 5.21171 14.7781 5.21868 14.7883 5.22586C14.7883 5.23389 14.7883 5.24193 14.7883 5.25021C14.8084 5.25824 14.8284 5.26628 14.8491 5.27455C14.8491 5.28259 14.8491 5.29062 14.8491 5.2989C14.8564 5.30217 14.8636 5.30544 14.871 5.30881C14.8979 5.32328 14.9157 5.33794 14.9372 5.35939C14.9442 5.36634 14.9512 5.37329 14.9584 5.38045C14.9655 5.38769 14.9726 5.39492 14.98 5.40237C14.9873 5.40961 14.9947 5.41684 15.0022 5.42429C15.0091 5.43125 15.016 5.4382 15.0232 5.44536C15.0327 5.45488 15.0327 5.45488 15.0423 5.46459C15.0561 5.4815 15.0561 5.4815 15.0561 5.50585C15.0641 5.50585 15.0722 5.50585 15.0804 5.50585C15.0961 5.52363 15.0961 5.52363 15.1124 5.54693C15.1178 5.55456 15.1232 5.56218 15.1288 5.57004C15.1413 5.59106 15.1413 5.59106 15.1413 5.61541C15.1493 5.61541 15.1574 5.61541 15.1656 5.61541C15.1777 5.65156 15.1777 5.65156 15.19 5.68845C15.198 5.68845 15.2061 5.68845 15.2143 5.68845C15.2284 5.71554 15.2423 5.74268 15.2562 5.76985C15.2621 5.78128 15.2621 5.78128 15.2682 5.79294C15.2895 5.83498 15.3054 5.87289 15.3117 5.91974C15.3198 5.91974 15.3278 5.91974 15.3361 5.91974C15.3392 5.93077 15.3422 5.9418 15.3454 5.95317C15.3729 6.09235 15.3729 6.09235 15.4335 6.2119C15.4347 6.23374 15.4351 6.25563 15.4352 6.27751C15.4353 6.29854 15.4353 6.29854 15.4355 6.31999C15.4355 6.34289 15.4355 6.34289 15.4355 6.36625C15.4355 6.38182 15.4356 6.39739 15.4356 6.41343C15.4357 6.44644 15.4357 6.47945 15.4357 6.51247C15.4357 6.55478 15.4359 6.59709 15.4361 6.63941C15.4363 6.67972 15.4362 6.72004 15.4363 6.76036C15.4363 6.77558 15.4364 6.7908 15.4365 6.80647C15.4365 6.82057 15.4364 6.83466 15.4364 6.84918C15.4364 6.86161 15.4364 6.87403 15.4365 6.88683C15.4335 6.91795 15.4335 6.91795 15.4091 6.95447C15.4037 6.97742 15.399 7.00053 15.3947 7.0237C15.3611 7.17588 15.2855 7.31593 15.2143 7.45357C15.2063 7.45357 15.1983 7.45357 15.19 7.45357C15.1853 7.4669 15.1853 7.4669 15.1805 7.48049C15.1651 7.51573 15.1472 7.54095 15.123 7.57074C15.0993 7.60024 15.0771 7.62896 15.0561 7.66052C15.048 7.66052 15.04 7.66052 15.0317 7.66052C15.0288 7.66736 15.026 7.6742 15.023 7.68125C15.0039 7.71553 14.9804 7.7394 14.9526 7.76704C14.9381 7.78163 14.9381 7.78163 14.9233 7.79652C14.8978 7.81877 14.8978 7.81877 14.8735 7.81877C14.8735 7.82681 14.8735 7.83484 14.8735 7.84312C14.84 7.87279 14.8026 7.89777 14.7662 7.92377C14.751 7.93492 14.751 7.93492 14.7355 7.94631C14.7257 7.95334 14.7159 7.96037 14.7059 7.96761C14.6969 7.97408 14.6879 7.98056 14.6786 7.98723C14.6544 8.00137 14.6544 8.00137 14.6178 8.00137C14.6178 8.00941 14.6178 8.01744 14.6178 8.02572C14.5799 8.04335 14.5418 8.0608 14.5037 8.07822C14.4931 8.08313 14.4825 8.08805 14.4716 8.09312C14.4074 8.12238 14.344 8.14599 14.2759 8.16463C14.2528 8.16977 14.2528 8.16977 14.2405 8.18397C14.2121 8.18803 14.1837 8.19209 14.1553 8.19614C14.1512 8.20016 14.1472 8.20418 14.1431 8.20832C14.1251 8.21085 14.1071 8.21279 14.0891 8.2144C14.0476 8.21795 14.0476 8.21795 14.0092 8.23266C13.9757 8.23387 13.9426 8.23437 13.9091 8.23428C13.8992 8.23429 13.8893 8.2343 13.8791 8.23432C13.8582 8.23432 13.8372 8.2343 13.8162 8.23425C13.7841 8.23419 13.752 8.23425 13.7198 8.23433C13.6995 8.23432 13.6792 8.2343 13.6588 8.23428C13.6492 8.23431 13.6395 8.23433 13.6296 8.23436C13.5616 8.23406 13.5616 8.23406 13.5344 8.22049C13.5177 8.21862 13.501 8.21715 13.4842 8.21593C13.4365 8.21106 13.3977 8.19984 13.3536 8.18164C13.3242 8.17056 13.2948 8.16328 13.2643 8.15582C13.1952 8.13774 13.133 8.10915 13.0688 8.07812C13.0354 8.06144 13.0354 8.06144 12.9988 8.05006C12.9988 8.04203 12.9988 8.034 12.9988 8.02572C12.988 8.02349 12.988 8.02349 12.977 8.02121C12.9336 8.00884 12.8987 7.98174 12.8618 7.95648C12.8537 7.95099 12.8456 7.9455 12.8373 7.93984C12.7235 7.86233 12.7235 7.86233 12.6701 7.81877C12.6701 7.81074 12.6701 7.8027 12.6701 7.79443C12.6629 7.79113 12.6556 7.78783 12.6482 7.78444C12.5538 7.73383 12.4849 7.62588 12.4266 7.53879C12.4266 7.53075 12.4266 7.52272 12.4266 7.51444C12.4186 7.51444 12.4106 7.51444 12.4023 7.51444C12.2441 7.24191 12.2441 7.24191 12.2441 7.17359C12.236 7.17359 12.228 7.17359 12.2197 7.17359C12.2172 7.16406 12.2147 7.15454 12.2121 7.14472C12.2089 7.1324 12.2056 7.12009 12.2022 7.10739C12.199 7.09511 12.1957 7.08282 12.1924 7.07016C12.1861 7.04069 12.1861 7.04069 12.171 7.02751C12.167 6.9991 12.1629 6.9707 12.1588 6.94229C12.1548 6.93828 12.1508 6.93426 12.1467 6.93012C12.1164 6.82015 12.119 6.71085 12.1198 6.5977C12.12 6.56466 12.1201 6.53163 12.1201 6.49859C12.1201 6.47759 12.1202 6.45658 12.1203 6.43558C12.1203 6.4257 12.1203 6.41583 12.1203 6.40565C12.1209 6.33646 12.1209 6.33646 12.1345 6.30928C12.1382 6.28091 12.1407 6.25253 12.1432 6.22402C12.1467 6.19972 12.1467 6.19972 12.1588 6.18755C12.1633 6.15921 12.1674 6.1308 12.171 6.10234C12.179 6.10234 12.1871 6.10234 12.1954 6.10234C12.1954 6.07823 12.1954 6.05413 12.1954 6.0293C12.2034 6.0293 12.2114 6.0293 12.2197 6.0293C12.2187 6.02129 12.2177 6.01329 12.2167 6.00505C12.221 5.95312 12.2434 5.91502 12.2676 5.86952C12.2766 5.85226 12.2856 5.83498 12.2946 5.81769C12.2986 5.81011 12.3026 5.80253 12.3068 5.79472C12.3187 5.77161 12.3187 5.77161 12.3293 5.73714C12.3373 5.73714 12.3453 5.73714 12.3536 5.73714C12.3548 5.73055 12.3559 5.72396 12.3571 5.71717C12.3684 5.67995 12.3868 5.65122 12.4076 5.61845C12.4151 5.60646 12.4227 5.59447 12.4304 5.58212C12.4372 5.57302 12.444 5.56392 12.451 5.55454C12.459 5.55454 12.4671 5.55454 12.4753 5.55454C12.478 5.54803 12.4806 5.54151 12.4834 5.5348C12.5055 5.49557 12.5352 5.46463 12.5659 5.43205C12.5719 5.4256 12.5778 5.41916 12.584 5.41253C12.6004 5.39484 12.617 5.3773 12.6336 5.35977C12.6405 5.35225 12.6474 5.34473 12.6546 5.33699C12.6701 5.32325 12.6701 5.32325 12.6945 5.32325C12.6945 5.31521 12.6945 5.30718 12.6945 5.2989C12.7149 5.28054 12.7149 5.28054 12.7416 5.26086C12.7504 5.2543 12.7591 5.24774 12.7682 5.24098C12.7918 5.22586 12.7918 5.22586 12.8162 5.22586C12.8162 5.21783 12.8162 5.20979 12.8162 5.20151C12.8651 5.17329 12.9141 5.14528 12.9632 5.11745C12.9845 5.10536 13.0056 5.0931 13.0268 5.08083C13.1533 5.00936 13.2839 4.96754 13.4249 4.9337C13.4459 4.91266 13.4742 4.91987 13.5028 4.91976ZM13.4488 5.35049C13.4229 5.36053 13.3971 5.36676 13.3701 5.37346C13.2491 5.40904 13.1244 5.47954 13.0231 5.55454C13.0231 5.56257 13.0231 5.57061 13.0231 5.57889C13.0127 5.58359 13.0127 5.58359 13.002 5.5884C12.9719 5.60462 12.9485 5.62332 12.9227 5.64584C12.9141 5.65325 12.9055 5.66065 12.8967 5.66828C12.8742 5.68667 12.8742 5.68667 12.8771 5.71279C12.869 5.71279 12.861 5.71279 12.8527 5.71279C12.8306 5.73645 12.8306 5.73645 12.8086 5.76605C12.7971 5.78088 12.7971 5.78088 12.7853 5.79601C12.7652 5.82042 12.7652 5.82042 12.7675 5.8467C12.7595 5.8467 12.7514 5.8467 12.7432 5.8467C12.6841 5.92932 12.6445 6.02065 12.61 6.11565C12.5998 6.1436 12.5889 6.17042 12.5765 6.19744C12.5161 6.34416 12.5204 6.50606 12.524 6.66231C12.5241 6.67285 12.5242 6.6834 12.5242 6.69426C12.5333 6.90265 12.6295 7.09368 12.731 7.27097C12.743 7.27097 12.7551 7.27097 12.7675 7.27097C12.7675 7.2549 12.7675 7.23884 12.7675 7.22228C12.7755 7.22228 12.7836 7.22228 12.7918 7.22228C12.7999 7.19818 12.8079 7.17407 12.8162 7.14924C12.8242 7.14924 12.8323 7.14924 12.8405 7.14924C12.8571 7.12514 12.8733 7.10077 12.8892 7.0762C12.9014 7.06403 12.9136 7.05185 12.9258 7.03968C12.9258 7.03165 12.9258 7.02361 12.9258 7.01533C12.9338 7.01533 12.9418 7.01533 12.9501 7.01533C12.9501 7.0073 12.9501 6.99927 12.9501 6.99099C12.9581 6.99099 12.9662 6.99099 12.9744 6.99099C12.9744 6.98295 12.9744 6.97492 12.9744 6.96664C12.9809 6.96361 12.9874 6.96058 12.9941 6.95746C13.0304 6.93851 13.0642 6.91678 13.0985 6.89436C13.1114 6.88597 13.1244 6.87757 13.1378 6.86892C13.1722 6.84727 13.1722 6.84727 13.1814 6.80839C13.1734 6.80839 13.1653 6.80839 13.157 6.80839C13.149 6.78429 13.141 6.76018 13.1327 6.73535C13.1247 6.73535 13.1166 6.73535 13.1084 6.73535C13.1061 6.72518 13.1061 6.72518 13.1038 6.71481C13.0968 6.68637 13.0968 6.68637 13.0848 6.65927C13.0498 6.56869 13.0434 6.48619 13.0437 6.38993C13.0435 6.37804 13.0433 6.36614 13.0431 6.35389C13.043 6.2817 13.052 6.22122 13.0762 6.15309C13.0863 6.1235 13.0863 6.1235 13.084 6.07799C13.092 6.07799 13.1001 6.07799 13.1084 6.07799C13.1084 6.06192 13.1084 6.04585 13.1084 6.0293C13.1164 6.0293 13.1244 6.0293 13.1327 6.0293C13.1454 6.00936 13.1575 5.989 13.1692 5.96843C13.176 5.95964 13.1828 5.95086 13.1898 5.9418C13.2081 5.92099 13.2081 5.92099 13.2057 5.89539C13.2138 5.89539 13.2218 5.89539 13.2301 5.89539C13.2466 5.8753 13.2628 5.85501 13.2788 5.83452C13.2868 5.83051 13.2948 5.82649 13.3031 5.82235C13.3031 5.81432 13.3031 5.80628 13.3031 5.798C13.3119 5.79474 13.3207 5.79148 13.3298 5.78811C13.3639 5.77371 13.3935 5.75675 13.4249 5.73714C13.4646 5.71229 13.5024 5.69206 13.5466 5.67627C13.5588 5.67185 13.5711 5.66742 13.5837 5.66286C13.7339 5.62156 13.9426 5.62979 14.0822 5.70062C14.0918 5.70517 14.1014 5.70972 14.1113 5.71441C14.2438 5.78235 14.3775 5.8886 14.4352 6.0293C14.4433 6.0293 14.4513 6.0293 14.4596 6.0293C14.4596 6.04537 14.4596 6.06144 14.4596 6.07799C14.4676 6.07799 14.4757 6.07799 14.4839 6.07799C14.4854 6.08854 14.4869 6.09908 14.4885 6.10995C14.4949 6.15049 14.4949 6.15049 14.5085 6.18556C14.5284 6.2498 14.5244 6.31403 14.5243 6.3808C14.5245 6.39475 14.5247 6.4087 14.5249 6.42308C14.5249 6.5041 14.5176 6.56422 14.4839 6.63796C14.4782 6.65414 14.4726 6.67037 14.4672 6.68666C14.4475 6.73987 14.4181 6.78581 14.3866 6.83273C14.4055 6.84651 14.4245 6.86018 14.4436 6.87382C14.4542 6.88145 14.4648 6.88907 14.4757 6.89693C14.5063 6.91666 14.535 6.9301 14.5691 6.94229C14.5691 6.95033 14.5691 6.95836 14.5691 6.96664C14.5877 6.985 14.5877 6.985 14.611 7.00316C14.6531 7.03721 14.6531 7.03721 14.6665 7.06403C14.6746 7.06403 14.6826 7.06403 14.6909 7.06403C14.6958 7.07441 14.6958 7.07441 14.7008 7.085C14.7209 7.12363 14.7459 7.15836 14.7708 7.19408C14.7887 7.22293 14.8009 7.25133 14.8126 7.28315C14.8247 7.27511 14.8367 7.26708 14.8491 7.2588C14.8491 7.24675 14.8491 7.2347 14.8491 7.22228C14.8572 7.22228 14.8652 7.22228 14.8735 7.22228C14.9407 7.08456 14.9407 7.08456 14.989 6.93935C14.9952 6.91795 14.9952 6.91795 15.0074 6.90577C15.0094 6.89171 15.0114 6.87765 15.0135 6.86317C15.0196 6.82056 15.0196 6.82056 15.0317 6.80839C15.0907 6.49338 15.0215 6.20028 14.8735 5.91974C14.8654 5.91974 14.8574 5.91974 14.8491 5.91974C14.8479 5.9129 14.8466 5.90605 14.8453 5.89901C14.8354 5.86589 14.8204 5.84192 14.8012 5.81322C14.7948 5.80349 14.7884 5.79376 14.7818 5.78374C14.7759 5.7764 14.77 5.76905 14.7639 5.76149C14.7559 5.76149 14.7479 5.76149 14.7396 5.76149C14.7396 5.75345 14.7396 5.74542 14.7396 5.73714C14.7315 5.73714 14.7235 5.73714 14.7152 5.73714C14.7121 5.73005 14.709 5.72295 14.7057 5.71564C14.6897 5.68625 14.672 5.66632 14.6483 5.6428C14.6409 5.63533 14.6335 5.62786 14.6258 5.62016C14.6069 5.60062 14.6069 5.60062 14.5813 5.60323C14.5813 5.5952 14.5813 5.58716 14.5813 5.57889C14.5541 5.55812 14.527 5.53903 14.4984 5.5203C14.4901 5.51482 14.4818 5.50935 14.4732 5.5037C14.3761 5.44096 14.2778 5.39709 14.1662 5.3668C14.1431 5.35977 14.1431 5.35977 14.1309 5.34759C14.1169 5.34558 14.1028 5.34358 14.0883 5.34151C14.0457 5.33542 14.0457 5.33542 14.0335 5.32325C13.998 5.31832 13.9627 5.31406 13.927 5.31031C13.9171 5.30921 13.9072 5.3081 13.8971 5.30696C13.7516 5.29121 13.5864 5.29628 13.4488 5.35049ZM13.6075 6.07799C13.6075 6.08603 13.6075 6.09406 13.6075 6.10234C13.5954 6.10234 13.5834 6.10234 13.5709 6.10234C13.5709 6.11037 13.5709 6.11841 13.5709 6.12668C13.5599 6.13113 13.5599 6.13113 13.5486 6.13567C13.4911 6.1692 13.4681 6.24359 13.4446 6.3032C13.4273 6.40042 13.4479 6.50971 13.5041 6.59174C13.5695 6.67099 13.6397 6.71357 13.7414 6.73535C13.8455 6.74499 13.936 6.70778 14.0204 6.64857C14.0751 6.59932 14.1097 6.5365 14.1294 6.46601C14.1325 6.39545 14.1327 6.33034 14.1187 6.26059C14.1107 6.26059 14.1027 6.26059 14.0944 6.26059C14.0936 6.25205 14.0929 6.24352 14.0921 6.23472C14.0785 6.18646 14.0559 6.16293 14.0214 6.12668C14.0133 6.12668 14.0053 6.12668 13.997 6.12668C13.997 6.11865 13.997 6.11062 13.997 6.10234C13.8754 6.02123 13.738 6.00781 13.6075 6.07799ZM13.3731 7.185C13.3546 7.19458 13.3546 7.19458 13.3357 7.20435C13.3019 7.22238 13.3019 7.22238 13.2666 7.24663C13.2666 7.25466 13.2666 7.2627 13.2666 7.27097C13.2586 7.27097 13.2505 7.27097 13.2423 7.27097C13.2423 7.27901 13.2423 7.28704 13.2423 7.29532C13.2342 7.29532 13.2262 7.29532 13.2179 7.29532C13.132 7.39635 13.0928 7.49326 13.084 7.624C13.0973 7.63203 13.1106 7.64007 13.1243 7.64835C13.1318 7.65287 13.1393 7.65738 13.147 7.66204C13.1706 7.67532 13.1706 7.67532 13.2057 7.67269C13.2057 7.68073 13.2057 7.68876 13.2057 7.69704C13.2447 7.71207 13.2837 7.72708 13.3227 7.74202C13.346 7.75097 13.3692 7.75998 13.3923 7.76922C13.5117 7.81628 13.6241 7.82331 13.7505 7.82328C13.7783 7.82334 13.806 7.82378 13.8338 7.82424C14.0104 7.82559 14.1672 7.79005 14.3257 7.70921C14.339 7.70272 14.3522 7.69622 14.3659 7.68953C14.4288 7.66265 14.4288 7.66265 14.4839 7.624C14.4848 7.6055 14.485 7.58697 14.4847 7.56846C14.4846 7.5584 14.4845 7.54834 14.4844 7.53798C14.4842 7.53021 14.4841 7.52244 14.4839 7.51444C14.4759 7.51444 14.4679 7.51444 14.4596 7.51444C14.4596 7.49435 14.4596 7.47427 14.4596 7.45357C14.4516 7.45357 14.4435 7.45357 14.4352 7.45357C14.4347 7.44554 14.4342 7.4375 14.4337 7.42923C14.4163 7.36938 14.3784 7.31128 14.3233 7.28025C14.316 7.27719 14.3088 7.27413 14.3013 7.27097C14.3013 7.26294 14.3013 7.2549 14.3013 7.24663C14.2761 7.228 14.2761 7.228 14.2443 7.21011C14.2337 7.20383 14.2231 7.19755 14.2122 7.19109C14.1171 7.14003 14.0249 7.1352 13.919 7.13545C13.9083 7.13544 13.8975 7.13543 13.8864 7.13542C13.8638 7.13541 13.8412 7.13543 13.8185 7.13548C13.7841 7.13555 13.7496 7.13548 13.7152 7.1354C13.6931 7.13541 13.671 7.13543 13.6489 7.13545C13.6387 7.13543 13.6285 7.1354 13.618 7.13538C13.5286 7.13573 13.4536 7.14281 13.3731 7.185Z" fill="#0D152C"/>
<path d="M5.81046 4.91845C5.82447 4.91837 5.83849 4.91829 5.85293 4.91821C5.86813 4.91826 5.88334 4.91831 5.899 4.91836C5.91455 4.91834 5.9301 4.91832 5.94612 4.91829C5.97907 4.91828 6.01201 4.91831 6.04495 4.91842C6.08717 4.91856 6.12938 4.91848 6.1716 4.91833C6.21185 4.91823 6.2521 4.9183 6.29235 4.91836C6.30753 4.91831 6.32271 4.91826 6.33835 4.91821C6.35943 4.91833 6.35943 4.91833 6.38094 4.91845C6.39952 4.91847 6.39952 4.91847 6.41848 4.9185C6.44951 4.9216 6.44951 4.9216 6.48603 4.94594C6.50724 4.95124 6.52847 4.95646 6.54984 4.96106C6.66075 4.98493 6.75165 5.02481 6.85123 5.07985C6.86356 5.08645 6.8759 5.09306 6.88861 5.09987C6.94976 5.13278 7.01022 5.16684 7.07035 5.20158C7.07035 5.20962 7.07035 5.21765 7.07035 5.22593C7.07848 5.22823 7.08661 5.23054 7.09498 5.23292C7.1465 5.2576 7.18298 5.29396 7.22404 5.33321C7.23262 5.34134 7.2412 5.34948 7.25004 5.35787C7.35391 5.45781 7.46657 5.57133 7.53293 5.70069C7.53293 5.71274 7.53293 5.72479 7.53293 5.73721C7.54097 5.73721 7.549 5.73721 7.55728 5.73721C7.56608 5.75613 7.56608 5.75613 7.57506 5.77544C7.58283 5.79211 7.5906 5.80879 7.59837 5.82546C7.60223 5.83376 7.60609 5.84207 7.61006 5.85062C7.61571 5.86274 7.61571 5.86274 7.62148 5.87511C7.62511 5.88293 7.62875 5.89074 7.6325 5.8988C7.64039 5.91538 7.64877 5.93172 7.65733 5.94796C7.67015 5.97565 7.66851 5.99927 7.66684 6.02937C7.67487 6.02937 7.68291 6.02937 7.69119 6.02937C7.69368 6.04065 7.69618 6.05193 7.69875 6.06356C7.70203 6.07813 7.70531 6.09271 7.70869 6.10773C7.71356 6.12955 7.71356 6.12955 7.71853 6.15181C7.72406 6.18604 7.72406 6.18604 7.73988 6.19979C7.74241 6.21773 7.74435 6.23576 7.74597 6.25381C7.74951 6.29529 7.74951 6.29529 7.76423 6.3337C7.76558 6.36778 7.76622 6.40156 7.76627 6.43565C7.76631 6.44586 7.76635 6.45608 7.76639 6.4666C7.76646 6.4883 7.76648 6.50999 7.76648 6.53169C7.76651 6.56452 7.76673 6.59735 7.76696 6.63018C7.7673 6.73294 7.7674 6.83034 7.73988 6.93019C7.73586 6.93421 7.73185 6.93822 7.72771 6.94236C7.7262 6.95492 7.72469 6.96747 7.72314 6.9804C7.7152 7.02963 7.69918 7.06741 7.67901 7.11279C7.6706 7.14662 7.6706 7.14662 7.66684 7.17366C7.65881 7.17366 7.65077 7.17366 7.64249 7.17366C7.64092 7.18554 7.64092 7.18554 7.63931 7.19767C7.62716 7.24749 7.60599 7.29111 7.58391 7.33723C7.57973 7.34622 7.57555 7.3552 7.57124 7.36446C7.54603 7.41765 7.5198 7.46747 7.48424 7.51451C7.47621 7.51451 7.46817 7.51451 7.45989 7.51451C7.45735 7.52278 7.45481 7.53105 7.45219 7.53957C7.43003 7.58725 7.39867 7.62218 7.36403 7.66135C7.35758 7.66879 7.35113 7.67624 7.34449 7.68391C7.27474 7.76396 7.27474 7.76396 7.24077 7.79449C7.23274 7.79449 7.22471 7.79449 7.21643 7.79449C7.21643 7.80253 7.21643 7.81056 7.21643 7.81884C7.20063 7.83351 7.20063 7.83351 7.17862 7.84965C7.17066 7.85551 7.1627 7.86136 7.15449 7.86739C7.14184 7.8765 7.14184 7.8765 7.12893 7.88579C7.12073 7.89187 7.11253 7.89794 7.10409 7.9042C7.06186 7.93493 7.02315 7.96072 6.97296 7.97709C6.97296 7.98513 6.97296 7.99316 6.97296 8.00144C6.85718 8.06134 6.74255 8.11508 6.61994 8.15969C6.60938 8.1641 6.59881 8.16851 6.58793 8.17305C6.55056 8.18728 6.51336 8.19089 6.47386 8.19621C6.46984 8.20023 6.46582 8.20425 6.46168 8.20839C6.44374 8.21091 6.42571 8.21285 6.40766 8.21447C6.36618 8.21802 6.36618 8.21802 6.32778 8.23273C6.2956 8.23409 6.26376 8.23473 6.23158 8.23478C6.22193 8.23482 6.21229 8.23486 6.20235 8.2349C6.18185 8.23496 6.16136 8.23499 6.14086 8.23499C6.10992 8.23501 6.07899 8.23523 6.04805 8.23547C5.83991 8.23619 5.83991 8.23619 5.74346 8.20839C5.73944 8.20437 5.73542 8.20035 5.73129 8.19621C5.71873 8.19471 5.70618 8.1932 5.69324 8.19165C5.65221 8.18503 5.62179 8.1743 5.58421 8.15761C5.54487 8.14061 5.50449 8.12644 5.46423 8.11176C5.39668 8.08684 5.33213 8.06014 5.2687 8.02579C5.2687 8.01775 5.2687 8.00972 5.2687 8.00144C5.25665 8.00144 5.2446 8.00144 5.23218 8.00144C5.23218 7.99341 5.23218 7.98537 5.23218 7.97709C5.22554 7.97607 5.21891 7.97505 5.21207 7.974C5.17389 7.96187 5.14772 7.94102 5.11577 7.91699C5.08186 7.89163 5.0483 7.86668 5.01306 7.84319C5.01306 7.83515 5.01306 7.82712 5.01306 7.81884C5.00622 7.81595 4.99938 7.81307 4.99233 7.81009C4.95805 7.79097 4.93418 7.76753 4.90655 7.73971C4.89682 7.73005 4.88709 7.72038 4.87706 7.71042C4.85481 7.68493 4.85481 7.68493 4.85481 7.66059C4.84677 7.66059 4.83874 7.66059 4.83046 7.66059C4.81425 7.64228 4.81425 7.64228 4.79622 7.61722C4.78984 7.60839 4.78345 7.59955 4.77687 7.59045C4.77045 7.58146 4.76403 7.57246 4.75742 7.5632C4.74836 7.55103 4.74836 7.55103 4.73911 7.53862C4.69656 7.48102 4.69656 7.48102 4.69656 7.45364C4.68852 7.45364 4.68049 7.45364 4.67221 7.45364C4.65494 7.41739 4.6377 7.38112 4.62047 7.34484C4.61566 7.33473 4.61084 7.32462 4.60587 7.3142C4.49521 7.08108 4.49521 7.08108 4.48352 6.99486C4.48011 6.95296 4.48011 6.95296 4.45309 6.91802C4.45 6.88707 4.45 6.88707 4.44994 6.84964C4.44986 6.83562 4.44979 6.82161 4.44971 6.80717C4.44976 6.79203 4.44981 6.77688 4.44986 6.76128C4.44983 6.74575 4.44981 6.73022 4.44979 6.71421C4.44977 6.68134 4.4498 6.64848 4.44992 6.61561C4.45005 6.57349 4.44997 6.53137 4.44983 6.48925C4.44972 6.44906 4.4498 6.40888 4.44986 6.3687C4.44981 6.35356 4.44976 6.33841 4.44971 6.32281C4.44978 6.3088 4.44986 6.29478 4.44994 6.28034C4.44996 6.26799 4.44998 6.25564 4.45 6.24292C4.45309 6.21197 4.45309 6.21197 4.47744 6.17545C4.48393 6.1528 4.48968 6.12994 4.49494 6.10697C4.51017 6.04307 4.52878 5.98179 4.55048 5.91981C4.55851 5.91981 4.56655 5.91981 4.57482 5.91981C4.57594 5.9116 4.57705 5.90339 4.5782 5.89494C4.58923 5.8498 4.60906 5.81088 4.63036 5.76992C4.63437 5.76207 4.63838 5.75421 4.64251 5.74612C4.65235 5.72689 4.66227 5.70769 4.67221 5.68851C4.68024 5.68851 4.68828 5.68851 4.69656 5.68851C4.70459 5.66441 4.71262 5.64031 4.7209 5.61547C4.72894 5.61547 4.73697 5.61547 4.74525 5.61547C4.74851 5.60643 4.75178 5.5974 4.75514 5.58808C4.76902 5.55594 4.78291 5.53202 4.80612 5.50591C4.81415 5.50591 4.82218 5.50591 4.83046 5.50591C4.83373 5.49869 4.83701 5.49147 4.84038 5.48403C4.85484 5.45716 4.86951 5.43938 4.89095 5.41785C4.90138 5.40737 4.90138 5.40737 4.91201 5.39669C4.91925 5.38955 4.92648 5.38241 4.93394 5.37505C4.94117 5.36772 4.9484 5.36039 4.95586 5.35284C4.96281 5.34592 4.96976 5.339 4.97692 5.33187C4.98327 5.32555 4.98962 5.31923 4.99616 5.31272C5.01306 5.29897 5.01306 5.29897 5.03741 5.29897C5.03741 5.29093 5.03741 5.2829 5.03741 5.27462C5.05749 5.26659 5.07758 5.25855 5.09827 5.25027C5.09827 5.24224 5.09827 5.23421 5.09827 5.22593C5.12354 5.20749 5.14861 5.19068 5.17512 5.17419C5.1829 5.1693 5.19069 5.16441 5.1987 5.15937C5.35501 5.06195 5.50986 4.99359 5.69077 4.95417C5.74142 4.93947 5.75232 4.91854 5.81046 4.91845ZM5.30522 5.57895C5.30522 5.58699 5.30522 5.59502 5.30522 5.6033C5.29813 5.60644 5.29103 5.60958 5.28373 5.61281C5.25433 5.62884 5.2344 5.64653 5.21088 5.67025C5.20341 5.67766 5.19594 5.68507 5.18824 5.6927C5.16871 5.71158 5.16871 5.71158 5.17131 5.73721C5.16328 5.73721 5.15525 5.73721 5.14697 5.73721C5.14697 5.74524 5.14697 5.75328 5.14697 5.76155C5.13893 5.76155 5.1309 5.76155 5.12262 5.76155C5.10043 5.78759 5.10043 5.78759 5.07849 5.82014C5.0708 5.83101 5.06311 5.84189 5.05519 5.85309C5.03432 5.88269 5.03432 5.88269 5.03741 5.91981C5.02937 5.91981 5.02134 5.91981 5.01306 5.91981C4.84694 6.26559 4.77324 6.60644 4.9035 6.97888C4.93517 7.06252 4.97186 7.14301 5.01306 7.22235C5.0211 7.22235 5.02913 7.22235 5.03741 7.22235C5.04343 7.24645 5.04343 7.24645 5.04958 7.27104C5.06163 7.27104 5.07368 7.27104 5.0861 7.27104C5.09062 7.25899 5.09514 7.24694 5.0998 7.23452C5.11989 7.18685 5.14861 7.1492 5.18097 7.10913C5.19801 7.08936 5.19801 7.08936 5.19566 7.0641C5.2037 7.0641 5.21173 7.0641 5.22001 7.0641C5.23649 7.04401 5.25271 7.02371 5.2687 7.00323C5.27674 6.99921 5.28477 6.99519 5.29305 6.99106C5.29305 6.98302 5.29305 6.97499 5.29305 6.96671C5.30108 6.96671 5.30912 6.96671 5.31739 6.96671C5.31739 6.95867 5.31739 6.95064 5.31739 6.94236C5.3261 6.93926 5.33481 6.93615 5.34379 6.93295C5.38073 6.91695 5.4103 6.89738 5.44293 6.87389C5.45368 6.8662 5.46443 6.85851 5.4755 6.85059C5.48359 6.84472 5.49167 6.83885 5.49999 6.8328C5.49412 6.82296 5.48826 6.81313 5.48221 6.80299C5.47452 6.78998 5.46683 6.77697 5.45891 6.76357C5.45128 6.75072 5.44366 6.73786 5.4358 6.72462C5.41756 6.69173 5.40293 6.66122 5.39043 6.62586C5.38599 6.61379 5.38155 6.60172 5.37698 6.58929C5.35847 6.52214 5.36209 6.45224 5.36228 6.38315C5.36209 6.36926 5.36189 6.35536 5.36169 6.34104C5.36164 6.25985 5.37055 6.2011 5.40261 6.12675C5.40261 6.11068 5.40261 6.09461 5.40261 6.07806C5.41064 6.07806 5.41868 6.07806 5.42695 6.07806C5.43336 6.06036 5.43336 6.06036 5.43989 6.0423C5.50788 5.88586 5.65289 5.77027 5.80433 5.70069C5.81431 5.69565 5.82429 5.69061 5.83457 5.68542C5.92284 5.64795 6.01114 5.64731 6.10561 5.64667C6.1253 5.64648 6.1253 5.64648 6.14537 5.64629C6.22319 5.64715 6.28109 5.65678 6.35212 5.68851C6.36805 5.69398 6.38403 5.69932 6.40006 5.70449C6.45076 5.72316 6.49241 5.75206 6.53615 5.78338C6.55795 5.80026 6.55795 5.80026 6.58342 5.79807C6.58342 5.80611 6.58342 5.81414 6.58342 5.82242C6.6035 5.8389 6.6238 5.85513 6.64428 5.87111C6.6483 5.87915 6.65232 5.88718 6.65646 5.89546C6.66449 5.89546 6.67253 5.89546 6.6808 5.89546C6.68407 5.90475 6.68733 5.91404 6.69069 5.92361C6.70474 5.95539 6.71716 5.9694 6.74167 5.99285C6.74569 6.0049 6.7497 6.01695 6.75384 6.02937C6.76188 6.02937 6.76991 6.02937 6.77819 6.02937C6.77819 6.04543 6.77819 6.0615 6.77819 6.07806C6.78622 6.07806 6.79426 6.07806 6.80254 6.07806C6.80178 6.08584 6.80103 6.09363 6.80025 6.10164C6.80239 6.13648 6.80819 6.15522 6.82075 6.18695C6.84438 6.25597 6.84357 6.32151 6.8421 6.3938C6.84204 6.40646 6.84197 6.41912 6.84191 6.43215C6.84095 6.52469 6.84095 6.52469 6.82688 6.55282C6.8264 6.57716 6.82635 6.60152 6.82688 6.62586C6.81885 6.62586 6.81081 6.62586 6.80254 6.62586C6.7945 6.66201 6.78647 6.69817 6.77819 6.73542C6.77016 6.73542 6.76212 6.73542 6.75384 6.73542C6.74581 6.75952 6.73777 6.78362 6.7295 6.80846C6.72146 6.80846 6.71343 6.80846 6.70515 6.80846C6.72341 6.85722 6.7512 6.87467 6.79493 6.90128C6.80657 6.90846 6.81821 6.91565 6.83021 6.92306C6.85714 6.93872 6.88401 6.95327 6.9121 6.96671C6.9121 6.97474 6.9121 6.98278 6.9121 6.99106C6.92013 6.99106 6.92816 6.99106 6.93644 6.99106C6.93644 6.99909 6.93644 7.00712 6.93644 7.0154C6.94448 7.0154 6.95251 7.0154 6.96079 7.0154C6.9638 7.02218 6.96681 7.02896 6.96992 7.03594C6.98776 7.06896 7.01015 7.09593 7.03383 7.12496C7.03785 7.133 7.04186 7.14103 7.046 7.14931C7.05404 7.14931 7.06207 7.14931 7.07035 7.14931C7.07838 7.17341 7.08642 7.19752 7.0947 7.22235C7.10273 7.22235 7.11076 7.22235 7.11904 7.22235C7.12306 7.24243 7.12708 7.26252 7.13122 7.28321C7.1688 7.25072 7.18914 7.2117 7.21262 7.16833C7.2202 7.15454 7.22778 7.14074 7.23559 7.12653C7.25631 7.08803 7.25631 7.08803 7.25295 7.03975C7.26098 7.03975 7.26902 7.03975 7.27729 7.03975C7.27951 7.03135 7.28172 7.02296 7.284 7.01431C7.29877 6.95908 7.31382 6.90473 7.3336 6.85106C7.39928 6.65711 7.38685 6.36227 7.30045 6.17616C7.28603 6.14326 7.27432 6.10954 7.26208 6.07578C7.23122 5.99493 7.19388 5.91735 7.14339 5.84677C7.13535 5.84677 7.12732 5.84677 7.11904 5.84677C7.11628 5.83823 7.11352 5.82969 7.11067 5.8209C7.09058 5.77688 7.06681 5.74831 7.03383 5.71286C7.02579 5.71286 7.01776 5.71286 7.00948 5.71286C7.00647 5.70577 7.00346 5.69867 7.00035 5.69137C6.98288 5.66014 6.96351 5.6418 6.93644 5.61852C6.92791 5.61105 6.91937 5.60358 6.91057 5.59588C6.88923 5.57654 6.88923 5.57654 6.8634 5.57895C6.8634 5.57092 6.8634 5.56288 6.8634 5.55461C6.7325 5.46166 6.59071 5.39406 6.43734 5.34766C6.42411 5.34347 6.41088 5.33928 6.39725 5.33496C6.3452 5.32153 6.29442 5.31502 6.24104 5.30962C6.23149 5.30857 6.22193 5.30752 6.21208 5.30643C5.89461 5.27271 5.55415 5.37828 5.30522 5.57895ZM5.86519 6.12675C5.83468 6.15107 5.83468 6.15107 5.8165 6.17545C5.8165 6.1875 5.8165 6.19955 5.8165 6.21197C5.80846 6.21197 5.80043 6.21197 5.79215 6.21197C5.79215 6.22803 5.79215 6.2441 5.79215 6.26066C5.78412 6.26066 5.77608 6.26066 5.76781 6.26066C5.74223 6.38852 5.75789 6.48802 5.82373 6.60056C5.87461 6.67575 5.94017 6.69977 6.02345 6.72324C6.04152 6.72927 6.04152 6.72927 6.05996 6.73542C6.14947 6.74474 6.23316 6.71764 6.30762 6.66751C6.38703 6.60173 6.43717 6.52263 6.44951 6.41891C6.44951 6.32312 6.42037 6.22912 6.3643 6.1511C6.35626 6.1511 6.34823 6.1511 6.33995 6.1511C6.33995 6.14306 6.33995 6.13503 6.33995 6.12675C6.30982 6.1147 6.30982 6.1147 6.27908 6.10241C6.27908 6.09437 6.27908 6.08634 6.27908 6.07806C6.1317 5.99544 5.99125 6.02868 5.86519 6.12675ZM5.67803 7.19192C5.66814 7.19706 5.65826 7.20221 5.64807 7.20751C5.62656 7.21963 5.60575 7.233 5.58521 7.2467C5.58521 7.25473 5.58521 7.26276 5.58521 7.27104C5.57808 7.27396 5.57096 7.27688 5.56362 7.27989C5.53113 7.29847 5.51486 7.31884 5.49239 7.34865C5.4852 7.35803 5.47801 7.36741 5.47061 7.37708C5.43735 7.42508 5.42368 7.45555 5.42695 7.51451C5.41892 7.51451 5.41088 7.51451 5.40261 7.51451C5.39486 7.55323 5.3927 7.58559 5.40261 7.62407C5.47437 7.69536 5.58952 7.72448 5.68259 7.75797C5.69985 7.7648 5.71709 7.77165 5.73433 7.77852C5.84636 7.81773 5.95175 7.82338 6.06914 7.82335C6.0969 7.8234 6.12463 7.82385 6.15238 7.82431C6.32946 7.82566 6.48522 7.78951 6.64428 7.70928C6.6642 7.70038 6.6642 7.70038 6.68451 7.69131C6.69785 7.68519 6.71119 7.67907 6.72493 7.67276C6.73714 7.66724 6.74935 7.66171 6.76193 7.65602C6.79272 7.63869 6.79272 7.63869 6.80092 7.60666C6.80659 7.49698 6.75374 7.41932 6.69298 7.33191C6.68092 7.31383 6.68092 7.31383 6.66863 7.29539C6.6606 7.29539 6.65256 7.29539 6.64428 7.29539C6.64428 7.28735 6.64428 7.27932 6.64428 7.27104C6.63625 7.27104 6.62821 7.27104 6.61994 7.27104C6.61994 7.26301 6.61994 7.25497 6.61994 7.2467C6.59466 7.22807 6.59466 7.22807 6.56287 7.21018C6.55228 7.2039 6.54169 7.19762 6.53078 7.19115C6.43612 7.1403 6.34396 7.13523 6.23847 7.13509C6.22778 7.13505 6.21708 7.13501 6.20606 7.13497C6.18353 7.13491 6.161 7.13488 6.13847 7.13488C6.10428 7.13485 6.07009 7.13463 6.0359 7.1344C6.0139 7.13437 5.9919 7.13434 5.9699 7.13433C5.95982 7.13424 5.94973 7.13415 5.93934 7.13406C5.84669 7.13442 5.7606 7.14809 5.67803 7.19192Z" fill="#0D152C"/>
<path d="M14.4968 8.5C14.5145 8.50038 14.5145 8.50038 14.5326 8.50076C14.5326 8.51683 14.5326 8.5329 14.5326 8.54945C14.5406 8.54945 14.5487 8.54945 14.5569 8.54945C14.559 8.55601 14.561 8.56257 14.5631 8.56933C14.5724 8.5995 14.5818 8.62963 14.5912 8.65977C14.5943 8.67009 14.5975 8.68041 14.6008 8.69104C14.6152 8.73722 14.63 8.78248 14.6495 8.82678C14.6648 8.86197 14.6755 8.89504 14.6848 8.93215C14.6945 8.97121 14.7059 9.00731 14.7205 9.04495C14.7427 9.103 14.7565 9.16221 14.77 9.22279C14.7726 9.23435 14.7752 9.24591 14.7779 9.25782C14.7974 9.34658 14.813 9.43562 14.826 9.52557C14.8323 9.57464 14.8323 9.57464 14.8491 9.6207C14.8529 9.65503 14.8553 9.68936 14.8578 9.7238C14.8595 9.7545 14.8595 9.7545 14.8734 9.77896C14.876 9.80656 14.8779 9.83422 14.8795 9.86189C14.8826 9.9201 14.8826 9.9201 14.8918 9.97748C14.8988 10.0156 14.8993 10.0512 14.8994 10.0899C14.8994 10.1058 14.8994 10.1217 14.8995 10.1381C14.8995 10.1553 14.8994 10.1726 14.8994 10.1898C14.8994 10.2076 14.8994 10.2254 14.8994 10.2431C14.8995 10.2804 14.8994 10.3176 14.8994 10.3548C14.8993 10.4024 14.8993 10.45 14.8994 10.4976C14.8995 10.5343 14.8994 10.571 14.8994 10.6077C14.8994 10.6252 14.8994 10.6428 14.8994 10.6603C14.8995 10.6849 14.8994 10.7094 14.8994 10.734C14.8993 10.7479 14.8993 10.7619 14.8993 10.7763C14.8979 10.8106 14.893 10.8411 14.8856 10.8746C14.882 10.9188 14.8795 10.9631 14.8769 11.0075C14.8734 11.045 14.8734 11.045 14.8613 11.0693C14.8588 11.0916 14.8568 11.1139 14.8552 11.1363C14.8504 11.2005 14.8504 11.2005 14.8369 11.2276C14.8309 11.2628 14.8254 11.298 14.8202 11.3333C14.7776 11.6106 14.7776 11.6106 14.738 11.72C14.7232 11.7631 14.711 11.8069 14.6984 11.8507C14.6752 11.931 14.649 12.0095 14.6203 12.088C14.5979 12.1498 14.5774 12.2121 14.5569 12.2745C14.5489 12.2745 14.5409 12.2745 14.5326 12.2745C14.5326 12.2946 14.5326 12.3147 14.5326 12.3353C14.472 12.329 14.4257 12.316 14.3713 12.2889C14.3006 12.255 14.2294 12.2267 14.1552 12.2014C14.1614 12.1231 14.1763 12.0559 14.2039 11.9823C14.2119 11.9823 14.22 11.9823 14.2283 11.9823C14.2275 11.974 14.2267 11.9658 14.226 11.9572C14.2289 11.9114 14.2461 11.878 14.2648 11.8362C14.2732 11.8024 14.2732 11.8024 14.2769 11.7754C14.285 11.7754 14.293 11.7754 14.3013 11.7754C14.3008 11.7649 14.3004 11.7545 14.2999 11.7438C14.3014 11.6998 14.3102 11.6659 14.3234 11.624C14.3472 11.5447 14.3641 11.4658 14.379 11.3845C14.3865 11.3493 14.3865 11.3493 14.3987 11.3371C14.4012 11.3192 14.4031 11.3012 14.4048 11.2831C14.4095 11.2302 14.4095 11.2302 14.423 11.2032C14.4255 11.185 14.4274 11.1667 14.4291 11.1485C14.4338 11.0964 14.4338 11.0964 14.4474 11.0693C14.4499 11.0432 14.4518 11.0171 14.4535 10.991C14.4561 10.9489 14.4584 10.9146 14.4717 10.8746C14.4747 10.844 14.4772 10.8136 14.4791 10.783C14.4797 10.7737 14.4803 10.7644 14.4809 10.7549C14.4828 10.7243 14.4845 10.6937 14.4862 10.663C14.487 10.6474 14.487 10.6474 14.4879 10.6314C14.4965 10.4693 14.4958 10.3092 14.4862 10.1472C14.4853 10.1325 14.4853 10.1325 14.4844 10.1176C14.4808 10.0137 14.4808 10.0137 14.4595 9.91286C14.4558 9.87205 14.4533 9.83123 14.4508 9.79032C14.4496 9.75544 14.4496 9.75544 14.4352 9.73026C14.4314 9.70229 14.429 9.6743 14.4264 9.64619C14.4243 9.62004 14.4243 9.62004 14.4109 9.59636C14.4071 9.56798 14.4047 9.5396 14.4021 9.5111C14.4012 9.48685 14.4012 9.48685 14.3865 9.47462C14.3826 9.45858 14.3794 9.4424 14.3764 9.42617C14.3745 9.41609 14.3726 9.40601 14.3706 9.39563C14.3686 9.38479 14.3665 9.37395 14.3644 9.36278C14.3386 9.22967 14.3093 9.09933 14.2526 8.97552C14.2348 8.92861 14.2253 8.89186 14.2283 8.84161C14.2202 8.84161 14.2122 8.84161 14.2039 8.84161C14.1957 8.81858 14.1876 8.79549 14.1796 8.77238C14.175 8.75953 14.1705 8.74667 14.1659 8.73343C14.156 8.69817 14.1531 8.67098 14.1552 8.63467C14.2284 8.59501 14.3038 8.56582 14.382 8.53751C14.4842 8.50026 14.4842 8.50026 14.4968 8.5Z" fill="#0D152C"/>
<path d="M5.35395 8.50064C5.40765 8.49783 5.44156 8.50376 5.48938 8.52803C5.55069 8.55772 5.61226 8.57942 5.67735 8.59932C5.70698 8.6102 5.70698 8.6102 5.73132 8.63455C5.72745 8.7082 5.708 8.77257 5.68263 8.8415C5.6746 8.8415 5.66656 8.8415 5.65828 8.8415C5.65904 8.84978 5.65979 8.85807 5.66057 8.8666C5.65818 8.90402 5.64681 8.92909 5.63177 8.96296C5.61398 9.00673 5.60263 9.05228 5.59057 9.0979C5.5855 9.11681 5.58041 9.13572 5.57531 9.15463C5.57288 9.16363 5.57045 9.17262 5.56795 9.18189C5.56203 9.20271 5.55515 9.22325 5.54806 9.24369C5.53362 9.28891 5.52556 9.33422 5.51753 9.38093C5.50164 9.47289 5.50164 9.47289 5.48786 9.48668C5.48533 9.50462 5.48339 9.52265 5.48177 9.5407C5.47702 9.59357 5.47702 9.59357 5.46351 9.62059C5.46106 9.6388 5.45909 9.65707 5.45742 9.67537C5.45269 9.72744 5.45269 9.72744 5.43916 9.75449C5.43666 9.78058 5.43471 9.80671 5.43308 9.83286C5.43044 9.87494 5.42817 9.90922 5.41482 9.94927C5.4118 9.97985 5.40936 10.0102 5.40745 10.0409C5.40686 10.0501 5.40626 10.0594 5.40565 10.069C5.40378 10.0996 5.40205 10.1302 5.40036 10.1608C5.39949 10.1764 5.39949 10.1764 5.3986 10.1924C5.38999 10.3545 5.39077 10.5146 5.40036 10.6766C5.40122 10.6913 5.40122 10.6913 5.4021 10.7063C5.40571 10.8102 5.40571 10.8102 5.42699 10.911C5.43073 10.9518 5.43319 10.9926 5.43574 11.0335C5.43692 11.0684 5.43692 11.0684 5.45134 11.0936C5.4551 11.1215 5.45753 11.1495 5.46009 11.1776C5.4622 11.2038 5.4622 11.2038 5.47568 11.2275C5.47943 11.2558 5.48188 11.2842 5.48443 11.3127C5.48537 11.337 5.48537 11.337 5.50003 11.3492C5.5039 11.3652 5.50717 11.3814 5.51016 11.3977C5.51302 11.4128 5.51302 11.4128 5.51594 11.4282C5.51797 11.439 5.52 11.4499 5.52209 11.461C5.5479 11.5942 5.57719 11.7245 5.63394 11.8483C5.65176 11.8952 5.66124 11.932 5.65828 11.9822C5.66632 11.9822 5.67435 11.9822 5.68263 11.9822C5.69086 12.0052 5.69895 12.0283 5.70698 12.0514C5.7115 12.0643 5.71602 12.0771 5.72067 12.0904C5.7307 12.1261 5.73544 12.1524 5.73132 12.1892C5.69623 12.2242 5.65267 12.2339 5.60655 12.2493C5.55588 12.2663 5.50724 12.2829 5.45942 12.307C5.42174 12.3257 5.39547 12.326 5.35395 12.3231C5.35395 12.307 5.35395 12.2909 5.35395 12.2744C5.34592 12.2744 5.33788 12.2744 5.3296 12.2744C5.32758 12.2678 5.32556 12.2612 5.32348 12.2545C5.31416 12.2243 5.30476 12.1942 5.29537 12.164C5.29219 12.1537 5.28901 12.1434 5.28574 12.1328C5.27129 12.0866 5.25657 12.0413 5.23702 11.997C5.22178 11.9619 5.21105 11.9288 5.20178 11.8917C5.192 11.8526 5.18063 11.8165 5.16603 11.7789C5.14386 11.7208 5.13002 11.6616 5.11657 11.601C5.11396 11.5895 5.11135 11.5779 5.10867 11.566C5.08902 11.4769 5.07342 11.3875 5.06058 11.2972C5.05781 11.2525 5.05781 11.2525 5.03745 11.2153C5.03489 11.1935 5.03296 11.1717 5.03136 11.1499C5.02853 11.1116 5.02529 11.0814 5.0131 11.0449C5.01063 11.017 5.00866 10.9891 5.00701 10.9612C5.00392 10.9034 5.00392 10.9034 4.99472 10.8464C4.98779 10.8083 4.9872 10.7726 4.98718 10.7339C4.98712 10.71 4.98712 10.71 4.98706 10.6857C4.98708 10.6685 4.98711 10.6513 4.98714 10.634C4.98713 10.6162 4.98712 10.5985 4.9871 10.5807C4.98708 10.5435 4.98711 10.5063 4.98716 10.4691C4.98723 10.4215 4.98719 10.3738 4.98712 10.3262C4.98708 10.2895 4.98709 10.2528 4.98712 10.2162C4.98713 10.1986 4.98712 10.1811 4.98709 10.1635C4.98706 10.1389 4.98712 10.1144 4.98718 10.0898C4.98719 10.0759 4.9872 10.0619 4.98721 10.0475C4.98862 10.0132 4.99354 9.98271 5.00093 9.94927C5.00451 9.90539 5.00707 9.8615 5.00967 9.81755C5.0131 9.77884 5.0131 9.77884 5.02527 9.74232C5.02895 9.70745 5.03145 9.67258 5.03402 9.63761C5.03745 9.60841 5.03745 9.60841 5.04962 9.59624C5.0557 9.56126 5.0612 9.52636 5.06636 9.49125C5.10878 9.21376 5.10878 9.21376 5.14853 9.10384C5.16331 9.06073 5.17553 9.01691 5.18809 8.97312C5.21134 8.8928 5.23751 8.81432 5.26627 8.73579C5.28866 8.67406 5.30915 8.61173 5.3296 8.54934C5.33764 8.54934 5.34567 8.54934 5.35395 8.54934C5.35395 8.53327 5.35395 8.5172 5.35395 8.50064Z" fill="#0D152C"/>
<path d="M9.62 5.45568C9.63592 5.45564 9.65185 5.45561 9.66826 5.45557C9.6856 5.45559 9.70294 5.45561 9.72029 5.45564C9.73811 5.45563 9.75594 5.45562 9.77377 5.45561C9.8111 5.45559 9.84843 5.45561 9.88575 5.45567C9.93357 5.45574 9.98138 5.4557 10.0292 5.45563C10.066 5.45558 10.1028 5.4556 10.1396 5.45563C10.1572 5.45564 10.1748 5.45563 10.1925 5.4556C10.2171 5.45557 10.2418 5.45562 10.2664 5.45568C10.2804 5.45569 10.2945 5.4557 10.3089 5.45571C10.3397 5.45704 10.3642 5.4612 10.3936 5.46943C10.4329 5.4725 10.4722 5.47479 10.5116 5.4768C10.5737 5.48037 10.5737 5.48037 10.6006 5.49378C10.6228 5.49625 10.6452 5.49822 10.6675 5.49986C10.7318 5.5046 10.7318 5.5046 10.7588 5.51812C10.7775 5.52032 10.7963 5.52202 10.8151 5.52345C10.861 5.52768 10.9035 5.53511 10.948 5.54737C10.9815 5.55551 11.0153 5.56154 11.0492 5.56754C11.1171 5.57952 11.1822 5.59145 11.2459 5.61855C11.278 5.63065 11.3106 5.63805 11.3439 5.64594C11.3997 5.65935 11.4487 5.67799 11.5014 5.70072C11.5287 5.70856 11.5561 5.71614 11.5836 5.72355C11.6513 5.7423 11.7133 5.76573 11.7765 5.7963C11.8061 5.81045 11.836 5.82275 11.8666 5.83463C11.8626 5.86275 11.8586 5.89087 11.8544 5.91984C11.8464 5.91984 11.8383 5.91984 11.8301 5.91984C11.8288 5.92783 11.8276 5.93582 11.8263 5.94405C11.8155 5.99129 11.7987 6.0352 11.7814 6.08038C11.7781 6.08919 11.7747 6.098 11.7713 6.10708C11.7468 6.17152 11.7468 6.17152 11.7327 6.19983C11.6769 6.20288 11.6403 6.19486 11.5896 6.17168C11.5346 6.14751 11.4808 6.12767 11.4228 6.11186C11.397 6.10402 11.3716 6.09474 11.3464 6.08513C11.2931 6.06489 11.2391 6.04907 11.1841 6.03397C11.1748 6.03133 11.1655 6.0287 11.156 6.02598C11.113 6.01406 11.071 6.00373 11.0267 5.99792C10.9901 5.99288 10.9901 5.99288 10.9779 5.98071C10.9618 5.9782 10.9455 5.97625 10.9292 5.97462C10.8819 5.96989 10.8819 5.96989 10.8684 5.95636C10.8504 5.95383 10.8324 5.95189 10.8144 5.95028C10.7615 5.94552 10.7615 5.94552 10.7345 5.93202C10.6479 5.91396 10.5609 5.90423 10.4727 5.89849C10.4423 5.8955 10.4423 5.8955 10.4058 5.88332C10.3815 5.88148 10.3571 5.8803 10.3327 5.87947C10.318 5.87896 10.3033 5.87845 10.2882 5.87792C10.2647 5.87721 10.2647 5.87721 10.2407 5.87648C10.2327 5.87622 10.2246 5.87597 10.2164 5.87571C10.0276 5.86976 9.84052 5.8703 9.65181 5.87648C9.63671 5.87695 9.6216 5.87743 9.60604 5.87792C9.59191 5.87843 9.57778 5.87894 9.56322 5.87947C9.55053 5.87992 9.53783 5.88036 9.52476 5.88082C9.49147 5.88213 9.49147 5.88213 9.45628 5.8955C9.41546 5.89924 9.37464 5.90169 9.33374 5.90425C9.29886 5.90543 9.29886 5.90543 9.27368 5.91984C9.25596 5.92175 9.2382 5.9232 9.22042 5.92441C9.16022 5.92991 9.10451 5.94317 9.04619 5.95865C9.00203 5.96948 8.95783 5.97745 8.91304 5.98527C8.72487 6.0189 8.53535 6.0735 8.36068 6.15114C8.23411 6.20701 8.23411 6.20701 8.16591 6.19983C8.12406 6.12331 8.09596 6.05455 8.0807 5.96854C8.07266 5.96854 8.06463 5.96854 8.05635 5.96854C8.0319 5.91811 8.03096 5.87797 8.032 5.82246C8.13765 5.78177 8.24294 5.74349 8.35155 5.71128C8.3872 5.7007 8.3872 5.7007 8.4284 5.6817C8.47735 5.66123 8.52618 5.64964 8.57785 5.63796C8.61775 5.6281 8.61775 5.6281 8.66016 5.61028C8.72652 5.58475 8.79549 5.57261 8.86511 5.55921C8.87827 5.55657 8.89143 5.55394 8.90498 5.55122C8.96351 5.53972 9.02151 5.52927 9.08086 5.52316C9.1251 5.52114 9.1251 5.52114 9.15195 5.50595C9.18627 5.50214 9.2206 5.49974 9.25504 5.4972C9.28574 5.49559 9.28574 5.49559 9.3102 5.4816C9.34017 5.47908 9.36995 5.47705 9.39998 5.47552C9.45809 5.47361 9.45809 5.47361 9.51498 5.46323C9.55037 5.45526 9.58372 5.45571 9.62 5.45568Z" fill="#0D152C"/>
<path d="M8.1658 14.6237C8.22003 14.6208 8.25382 14.6272 8.30199 14.6519C8.35843 14.6791 8.41283 14.6973 8.47375 14.7117C8.5068 14.7211 8.53693 14.7343 8.56834 14.7482C8.61153 14.7655 8.65639 14.7765 8.70143 14.788C8.71154 14.7907 8.72165 14.7933 8.73208 14.796C8.80895 14.8156 8.88604 14.8319 8.96401 14.8466C9.00402 14.8547 9.04316 14.8643 9.0826 14.8748C9.13837 14.8893 9.19225 14.8972 9.2497 14.9011C9.27357 14.9037 9.27357 14.9037 9.29792 14.9159C9.324 14.9184 9.35013 14.9203 9.37628 14.922C9.41837 14.9246 9.45265 14.9269 9.49269 14.9402C9.51613 14.942 9.53962 14.9432 9.56311 14.9441C9.57724 14.9446 9.59138 14.9451 9.60593 14.9456C9.62859 14.9463 9.62859 14.9463 9.6517 14.9471C9.67499 14.9478 9.67499 14.9478 9.69876 14.9486C9.87781 14.9542 10.0554 14.9529 10.2345 14.9471C10.2496 14.9466 10.2647 14.9461 10.2803 14.9456C10.3015 14.9448 10.3015 14.9448 10.3231 14.9441C10.3358 14.9436 10.3485 14.9432 10.3616 14.9427C10.3948 14.9414 10.3948 14.9414 10.43 14.928C10.4708 14.9243 10.5117 14.9218 10.5526 14.9193C10.5875 14.9181 10.5875 14.9181 10.6126 14.9037C10.6438 14.8999 10.6749 14.8975 10.7062 14.8949C10.7346 14.8931 10.7346 14.8931 10.7587 14.8793C10.7871 14.8756 10.8155 14.8732 10.844 14.8706C10.8682 14.8697 10.8682 14.8697 10.8804 14.855C10.9077 14.8489 10.9352 14.8435 10.9626 14.8383C11.1316 14.807 11.1316 14.807 11.2948 14.7546C11.3229 14.7438 11.3514 14.7355 11.3803 14.7272C11.4307 14.7124 11.4775 14.6935 11.5256 14.6724C11.5484 14.6633 11.5712 14.6545 11.5941 14.6458C11.6051 14.6416 11.616 14.6374 11.6273 14.6331C11.6601 14.6236 11.6865 14.6219 11.7204 14.6237C11.7301 14.6427 11.7397 14.6617 11.7493 14.6808C11.7547 14.6914 11.76 14.702 11.7656 14.7129C11.7902 14.7639 11.8056 14.7975 11.8056 14.855C11.8137 14.855 11.8217 14.855 11.83 14.855C11.8544 14.9054 11.8554 14.9456 11.8543 15.0011C11.8434 15.0049 11.8325 15.0087 11.8213 15.0127C11.7203 15.0484 11.7203 15.0484 11.6207 15.0878C11.5678 15.1095 11.5142 15.1242 11.4588 15.1385C11.4259 15.1471 11.4259 15.1471 11.3872 15.1654C11.3318 15.1883 11.2761 15.1999 11.2176 15.2123C11.186 15.2169 11.186 15.2169 11.1726 15.2324C11.1514 15.2376 11.1301 15.2422 11.1087 15.2464C11.0955 15.2491 11.0823 15.2518 11.0687 15.2545C11.0548 15.2572 11.0409 15.26 11.0265 15.2628C11.013 15.2656 10.9994 15.2683 10.9855 15.2711C10.9255 15.2831 10.866 15.2942 10.8051 15.3005C10.7612 15.3024 10.7612 15.3024 10.7344 15.3176C10.7 15.3214 10.6657 15.3238 10.6313 15.3263C10.6006 15.3279 10.6006 15.3279 10.5761 15.3419C10.5461 15.3445 10.5164 15.3465 10.4863 15.348C10.4282 15.3499 10.4282 15.3499 10.3713 15.3603C10.3359 15.3683 10.3026 15.3678 10.2663 15.3679C10.2504 15.3679 10.2345 15.3679 10.2181 15.368C10.2007 15.3679 10.1834 15.3679 10.166 15.3679C10.1482 15.3679 10.1304 15.3679 10.1125 15.3679C10.0752 15.3679 10.0379 15.3679 10.0006 15.3679C9.95275 15.3678 9.90494 15.3678 9.85713 15.3679C9.82032 15.368 9.78352 15.3679 9.74672 15.3679C9.72909 15.3679 9.71146 15.3679 9.69384 15.3679C9.66919 15.368 9.64454 15.3679 9.61989 15.3679C9.60587 15.3678 9.59186 15.3678 9.57741 15.3678C9.54657 15.3665 9.52214 15.3623 9.49269 15.3541C9.45338 15.351 9.41413 15.3487 9.37476 15.3467C9.31257 15.3432 9.31257 15.3432 9.28574 15.3298C9.25459 15.3264 9.22343 15.3243 9.19216 15.3222C9.14894 15.3173 9.10721 15.3091 9.06464 15.3003C9.0273 15.2927 8.98988 15.2857 8.9524 15.2788C8.93223 15.2751 8.93223 15.2751 8.91165 15.2712C8.88402 15.2661 8.85638 15.261 8.82872 15.256C8.75398 15.242 8.68671 15.2241 8.61621 15.1959C8.57995 15.1862 8.54359 15.1779 8.50699 15.1696C8.47244 15.16 8.44113 15.1471 8.40842 15.1325C8.36391 15.1141 8.31761 15.101 8.27156 15.0871C8.19008 15.0619 8.11013 15.0353 8.03189 15.0011C8.02972 14.9457 8.03192 14.9052 8.05624 14.855C8.06428 14.855 8.07231 14.855 8.08059 14.855C8.08335 14.8394 8.08611 14.8239 8.08896 14.8078C8.10357 14.7407 8.13303 14.6836 8.1658 14.6237Z" fill="#0D152C"/>
<path d="M11.6717 12.0796C11.7079 12.0856 11.7079 12.0856 11.7448 12.0918C11.7448 12.0998 11.7448 12.1078 11.7448 12.1161C11.7531 12.1189 11.7614 12.1216 11.7699 12.1245C11.8142 12.1443 11.8547 12.1688 11.8909 12.2013C11.8909 12.2094 11.8909 12.2174 11.8909 12.2257C11.9002 12.2292 11.9094 12.2327 11.919 12.2363C11.9517 12.25 11.9517 12.25 11.9883 12.2744C11.9883 12.2824 11.9883 12.2904 11.9883 12.2987C11.9966 12.3015 12.005 12.3042 12.0136 12.307C12.0581 12.3271 12.0926 12.3543 12.1305 12.3847C12.1788 12.4244 12.1788 12.4244 12.2317 12.457C12.2317 12.465 12.2317 12.473 12.2317 12.4813C12.24 12.4841 12.2483 12.4868 12.2568 12.4897C12.3011 12.5095 12.3416 12.534 12.3778 12.5665C12.3778 12.5746 12.3778 12.5826 12.3778 12.5909C12.3898 12.5909 12.4019 12.5909 12.4143 12.5909C12.4143 12.5989 12.4143 12.6069 12.4143 12.6152C12.4264 12.6152 12.4384 12.6152 12.4508 12.6152C12.4451 12.6659 12.4381 12.6996 12.4021 12.7369C12.3941 12.7369 12.3861 12.7369 12.3778 12.7369C12.3748 12.7457 12.3717 12.7545 12.3686 12.7635C12.3519 12.8012 12.3317 12.8284 12.3055 12.8602C12.2971 12.8705 12.2887 12.8809 12.2801 12.8915C12.2389 12.9396 12.2389 12.9396 12.2195 12.9561C12.1929 12.9523 12.1929 12.9523 12.1709 12.9439C12.1709 12.9359 12.1709 12.9278 12.1709 12.9195C12.1508 12.9115 12.1307 12.9035 12.11 12.8952C12.11 12.8872 12.11 12.8791 12.11 12.8709C12.0969 12.8661 12.0969 12.8661 12.0836 12.8613C12.047 12.8456 12.017 12.8267 11.9844 12.8039C11.9737 12.7965 11.9629 12.7891 11.9519 12.7815C11.9438 12.7748 11.9357 12.7681 11.9274 12.7613C11.9274 12.7533 11.9274 12.7452 11.9274 12.7369C11.9186 12.7339 11.9098 12.7309 11.9008 12.7278C11.8632 12.7112 11.837 12.691 11.8057 12.6647C11.7746 12.6387 11.7456 12.6157 11.7105 12.5954C11.7018 12.5899 11.693 12.5844 11.6839 12.5787C11.6839 12.5707 11.6839 12.5626 11.6839 12.5543C11.6752 12.5514 11.6664 12.5484 11.6574 12.5453C11.6192 12.5283 11.5925 12.5074 11.5607 12.4805C11.5168 12.4434 11.5168 12.4434 11.4648 12.4204C11.4624 12.3752 11.4629 12.3624 11.4891 12.3231C11.4972 12.3231 11.5052 12.3231 11.5135 12.3231C11.5164 12.3167 11.5193 12.3104 11.5222 12.3038C11.5429 12.2647 11.5676 12.2286 11.5926 12.1922C11.5975 12.1849 11.6024 12.1775 11.6075 12.17C11.6202 12.1516 11.6337 12.1338 11.6474 12.1161C11.6554 12.1161 11.6635 12.1161 11.6717 12.1161C11.6717 12.1041 11.6717 12.092 11.6717 12.0796Z" fill="#0D152C"/>
<path d="M12.2469 7.88886C12.3778 8.03367 12.3778 8.03367 12.3778 8.08667C12.3858 8.08667 12.3939 8.08667 12.4021 8.08667C12.4367 8.1314 12.4508 8.15081 12.4508 8.20841C12.4388 8.20841 12.4267 8.20841 12.4143 8.20841C12.4143 8.21644 12.4143 8.22447 12.4143 8.23275C12.4023 8.23275 12.3902 8.23275 12.3778 8.23275C12.3778 8.24079 12.3778 8.24882 12.3778 8.2571C12.352 8.27812 12.352 8.27812 12.3185 8.30123C12.3074 8.30892 12.2964 8.31661 12.2851 8.32453C12.2561 8.34231 12.2561 8.34231 12.2317 8.34231C12.2317 8.35035 12.2317 8.35838 12.2317 8.36666C12.2047 8.3877 12.1777 8.4074 12.1495 8.42676C12.1341 8.43752 12.1187 8.44828 12.1033 8.45905C12.096 8.4641 12.0887 8.46915 12.0812 8.47436C12.0648 8.48594 12.0488 8.49814 12.0329 8.5105C12.0126 8.52491 12.0126 8.52491 11.9883 8.52491C11.9883 8.53295 11.9883 8.54098 11.9883 8.54926C11.9224 8.59795 11.9224 8.59795 11.8909 8.59795C11.8909 8.60599 11.8909 8.61402 11.8909 8.6223C11.8651 8.64332 11.8651 8.64332 11.8315 8.66643C11.8205 8.67411 11.8095 8.6818 11.7981 8.68973C11.7691 8.70751 11.7691 8.70751 11.7448 8.70751C11.7448 8.71554 11.7448 8.72358 11.7448 8.73186C11.7086 8.73788 11.7086 8.73788 11.6717 8.74403C11.6717 8.73198 11.6717 8.71993 11.6717 8.70751C11.6637 8.70751 11.6557 8.70751 11.6474 8.70751C11.6258 8.68027 11.6056 8.65307 11.5858 8.62458C11.5802 8.61676 11.5746 8.60893 11.5688 8.60088C11.5449 8.56699 11.5267 8.54027 11.5135 8.50056C11.5055 8.50056 11.4974 8.50056 11.4891 8.50056C11.4629 8.46127 11.4624 8.44841 11.4648 8.40318C11.4766 8.3969 11.4884 8.39062 11.5006 8.38416C11.5498 8.35633 11.5926 8.32197 11.6362 8.2862C11.6596 8.26927 11.6596 8.26927 11.6839 8.26927C11.6839 8.26124 11.6839 8.2532 11.6839 8.24493C11.7109 8.22388 11.7379 8.20419 11.7661 8.18482C11.7815 8.17406 11.7969 8.1633 11.8123 8.15253C11.8196 8.14748 11.8269 8.14243 11.8344 8.13723C11.8509 8.12565 11.8668 8.11344 11.8827 8.10108C11.903 8.08667 11.903 8.08667 11.9274 8.08667C11.9274 8.07864 11.9274 8.0706 11.9274 8.06233C11.9529 8.04243 11.9782 8.02408 12.005 8.00602C12.0123 8.00091 12.0197 7.99579 12.0272 7.99052C12.0824 7.95277 12.0824 7.95277 12.11 7.95277C12.11 7.94473 12.11 7.9367 12.11 7.92842C12.1301 7.92039 12.1502 7.91235 12.1709 7.90407C12.1709 7.89604 12.1709 7.888 12.1709 7.87973C12.2063 7.86264 12.2153 7.86429 12.2469 7.88886Z" fill="#0D152C"/>
<path d="M8.21464 12.0796C8.21464 12.0916 8.21464 12.1037 8.21464 12.1161C8.22267 12.1161 8.23071 12.1161 8.23898 12.1161C8.2595 12.1426 8.27869 12.1691 8.29757 12.1968C8.32848 12.2416 8.3591 12.2854 8.39486 12.3265C8.42158 12.3596 8.42158 12.3596 8.42539 12.3946C8.42413 12.4031 8.42288 12.4116 8.42158 12.4204C8.34094 12.4676 8.34094 12.4676 8.29985 12.4813C8.29985 12.4893 8.29985 12.4974 8.29985 12.5057C8.23397 12.5543 8.23397 12.5543 8.20246 12.5543C8.20246 12.5624 8.20246 12.5704 8.20246 12.5787C8.17546 12.5997 8.14846 12.6194 8.12029 12.6388C8.10489 12.6496 8.08948 12.6603 8.07407 12.6711C8.06677 12.6761 8.05946 12.6812 8.05194 12.6864C8.03552 12.698 8.01954 12.7102 8.0037 12.7225C7.98335 12.7369 7.98335 12.7369 7.959 12.7369C7.959 12.745 7.959 12.753 7.959 12.7613C7.932 12.7823 7.905 12.802 7.87683 12.8214C7.86142 12.8322 7.84601 12.8429 7.83061 12.8537C7.8233 12.8587 7.816 12.8638 7.80847 12.869C7.79205 12.8806 7.77607 12.8928 7.76023 12.9051C7.73988 12.9195 7.73988 12.9195 7.71553 12.9195C7.71553 12.9276 7.71553 12.9356 7.71553 12.9439C7.67938 12.9499 7.67938 12.9499 7.64249 12.9561C7.63895 12.9491 7.6354 12.9422 7.63175 12.9351C7.60175 12.8786 7.57018 12.8303 7.52756 12.7827C7.50669 12.7592 7.48691 12.7351 7.4675 12.7103C7.46138 12.7026 7.45526 12.6949 7.44896 12.687C7.43555 12.6639 7.43555 12.6639 7.43555 12.6152C7.45965 12.6072 7.48375 12.5991 7.50859 12.5909C7.50859 12.5828 7.50859 12.5748 7.50859 12.5665C7.53251 12.5497 7.55692 12.5335 7.58163 12.5178C7.59067 12.5108 7.5997 12.5038 7.60902 12.4965C7.63032 12.4813 7.63032 12.4813 7.65467 12.4813C7.65467 12.4733 7.65467 12.4652 7.65467 12.457C7.72055 12.4083 7.72055 12.4083 7.75205 12.4083C7.75205 12.4002 7.75205 12.3922 7.75205 12.3839C7.77905 12.3629 7.80605 12.3432 7.83422 12.3238C7.84963 12.3131 7.86504 12.3023 7.88044 12.2915C7.88775 12.2865 7.89505 12.2814 7.90258 12.2762C7.919 12.2646 7.93498 12.2524 7.95082 12.2401C7.97117 12.2257 7.97117 12.2257 7.99552 12.2257C7.99552 12.2176 7.99552 12.2096 7.99552 12.2013C8.02479 12.1794 8.05398 12.159 8.08454 12.1389C8.09294 12.1332 8.10134 12.1275 8.11 12.1217C8.11812 12.1163 8.12624 12.1109 8.13461 12.1054C8.14207 12.1004 8.14953 12.0955 8.15721 12.0904C8.17812 12.0796 8.17812 12.0796 8.21464 12.0796Z" fill="#0D152C"/>
<path d="M7.64249 7.86768C7.67865 7.8737 7.67865 7.8737 7.71553 7.87985C7.71553 7.88788 7.71553 7.89592 7.71553 7.9042C7.72871 7.90874 7.72871 7.90874 7.74216 7.91337C7.77967 7.92999 7.80589 7.95015 7.83727 7.97647C7.86833 8.00244 7.89729 8.02544 7.93237 8.04576C7.94116 8.05127 7.94994 8.05677 7.959 8.06245C7.959 8.07048 7.959 8.07852 7.959 8.0868C7.96779 8.08982 7.97657 8.09285 7.98563 8.09597C8.02314 8.11259 8.04936 8.13275 8.08073 8.15907C8.1118 8.18504 8.14076 8.20804 8.17584 8.22836C8.18462 8.23387 8.19341 8.23937 8.20246 8.24505C8.20246 8.25308 8.20246 8.26112 8.20246 8.26939C8.21175 8.27291 8.22104 8.27642 8.23062 8.28005C8.26333 8.29374 8.26333 8.29374 8.29985 8.31809C8.29985 8.32612 8.29985 8.33416 8.29985 8.34243C8.30864 8.3457 8.31743 8.34896 8.32648 8.35233C8.36147 8.3671 8.39144 8.38005 8.42158 8.4033C8.4276 8.44202 8.4247 8.45935 8.40328 8.49246C8.39087 8.5067 8.39087 8.5067 8.37822 8.52123C8.33374 8.57377 8.29454 8.6279 8.25658 8.68528C8.25077 8.69266 8.24497 8.70003 8.23898 8.70763C8.23095 8.70763 8.22292 8.70763 8.21464 8.70763C8.21464 8.71968 8.21464 8.73174 8.21464 8.74415C8.15684 8.73795 8.11704 8.71087 8.07084 8.67796C8.06357 8.67299 8.05629 8.66803 8.0488 8.66291C8.03053 8.65011 8.01295 8.63633 7.99552 8.62242C7.99552 8.61439 7.99552 8.60635 7.99552 8.59807C7.98673 8.59504 7.97794 8.59202 7.96889 8.5889C7.93138 8.57228 7.90516 8.55212 7.87379 8.52579C7.84272 8.49983 7.81376 8.47683 7.77868 8.45651C7.76989 8.451 7.76111 8.4455 7.75205 8.43982C7.75205 8.43179 7.75205 8.42375 7.75205 8.41547C7.74276 8.41196 7.73347 8.40844 7.7239 8.40482C7.69119 8.39113 7.69119 8.39113 7.65467 8.36678C7.65467 8.35875 7.65467 8.35071 7.65467 8.34243C7.64588 8.33942 7.63709 8.33641 7.62804 8.3333C7.59072 8.31672 7.56412 8.29552 7.53293 8.26939C7.5249 8.26538 7.51686 8.26136 7.50859 8.25722C7.50859 8.24919 7.50859 8.24115 7.50859 8.23287C7.48448 8.22484 7.46038 8.21681 7.43555 8.20853C7.44182 8.15231 7.46419 8.12101 7.4987 8.0769C7.50361 8.07054 7.50852 8.06418 7.51358 8.05762C7.52806 8.03888 7.54267 8.02023 7.55728 8.00158C7.57154 7.98311 7.58575 7.96461 7.59989 7.94604C7.60554 7.93874 7.61118 7.93145 7.61701 7.92393C7.63265 7.90264 7.63265 7.90264 7.64249 7.86768Z" fill="#0D152C"/>
</g>
<defs>
<clipPath id="clip0_10874_4793">
<rect x="0.0751953" y="0.665283" width="19.7362" height="19.4925" rx="5.65969" fill="white"/>
</clipPath>
</defs>
</svg>
