<svg width="20" height="21" viewBox="0 0 20 21" fill="none" xmlns="http://www.w3.org/2000/svg">
<g clip-path="url(#clip0_10874_4672)">
<rect x="0.0751953" y="0.724121" width="19.7362" height="19.4925" rx="5.65969" fill="white"/>
<path d="M8.47974 5.06068C8.49228 5.06319 8.50482 5.0657 8.51774 5.06829C9.18939 5.20934 9.80915 5.63699 10.2101 6.18981C10.2192 6.20218 10.2192 6.20218 10.2284 6.21479C10.6865 6.84765 10.8576 7.65188 10.7353 8.42151C10.709 8.57018 10.6664 8.71498 10.6207 8.85868C10.6175 8.86892 10.6142 8.87915 10.6109 8.8897C10.529 9.14314 10.3976 9.39259 10.2394 9.60655C10.2282 9.62194 10.2169 9.63733 10.2053 9.65318C10.1211 9.76654 10.029 9.87114 9.93149 9.97316C9.91867 9.98675 9.90585 10.0003 9.89265 10.0143C9.47968 10.4412 8.81516 10.8117 8.20914 10.8248C8.19681 10.8244 8.18449 10.824 8.17179 10.8237C8.17179 10.8334 8.17179 10.843 8.17179 10.853C8.18105 10.8527 8.19032 10.8523 8.19986 10.8519C8.31537 10.8495 8.42471 10.8637 8.53839 10.8832C8.5479 10.8849 8.55741 10.8865 8.5672 10.8882C8.91255 10.9475 9.23953 11.0457 9.56488 11.1756C9.57694 11.1803 9.589 11.185 9.60142 11.1898C9.91949 11.3147 10.22 11.5091 10.4887 11.7182C10.4989 11.7261 10.509 11.7339 10.5194 11.7421C10.6571 11.8499 10.7876 11.9641 10.914 12.0848C10.9257 12.0957 10.9374 12.1066 10.9494 12.1179C11.0379 12.2028 11.1122 12.297 11.1862 12.3944C11.2069 12.4216 11.2279 12.4486 11.2489 12.4756C11.7427 13.1148 12.0862 13.8312 12.1898 14.6363C12.1913 14.6472 12.1928 14.6582 12.1943 14.6694C12.2451 15.0429 12.2871 15.5009 12.0578 15.8241C12.0054 15.8808 11.9558 15.9314 11.8818 15.9561C11.838 15.9576 11.7945 15.9582 11.7507 15.9581C11.7371 15.9581 11.7235 15.9582 11.7094 15.9582C11.6633 15.9583 11.6172 15.9583 11.571 15.9583C11.5378 15.9583 11.5046 15.9584 11.4713 15.9584C11.3797 15.9586 11.288 15.9586 11.1963 15.9587C11.1078 15.9587 11.0192 15.9588 10.9306 15.959C10.6931 15.9593 10.4557 15.9594 10.2183 15.9596C10.106 15.9596 9.99375 15.9597 9.88147 15.9598C9.49724 15.96 9.11301 15.9602 8.72878 15.9604C8.70465 15.9604 8.68053 15.9604 8.6564 15.9604C8.64443 15.9604 8.63247 15.9604 8.62014 15.9604C8.55952 15.9604 8.4989 15.9604 8.43828 15.9604C8.42023 15.9604 8.42024 15.9604 8.40182 15.9605C8.01166 15.9606 7.62149 15.9609 7.23132 15.9614C6.81896 15.9619 6.4066 15.9622 5.99424 15.9622C5.94899 15.9622 5.90374 15.9622 5.85849 15.9622C5.84735 15.9623 5.83621 15.9623 5.82473 15.9623C5.64527 15.9623 5.46581 15.9625 5.28635 15.9628C5.10604 15.9631 4.92573 15.9632 4.74541 15.9631C4.64769 15.963 4.54997 15.963 4.45225 15.9633C4.36284 15.9636 4.27344 15.9635 4.18404 15.9633C4.15164 15.9633 4.11924 15.9633 4.08684 15.9635C4.0429 15.9637 3.99896 15.9636 3.95502 15.9634C3.94236 15.9635 3.9297 15.9637 3.91666 15.9638C3.81911 15.9627 3.76001 15.9362 3.68452 15.8728C3.50958 15.6759 3.47092 15.425 3.47378 15.1698C3.47384 15.16 3.47391 15.1503 3.47398 15.1403C3.47791 14.6562 3.56482 14.1826 3.72857 13.7272C3.73266 13.7158 3.73676 13.7044 3.74097 13.6926C3.99442 13.0041 4.48412 12.2912 5.063 11.8355C5.07958 11.8219 5.09614 11.8082 5.11266 11.7945C5.4752 11.4956 5.8834 11.264 6.32411 11.1023C6.33777 11.0972 6.35143 11.0922 6.36551 11.087C6.63452 10.9887 6.91246 10.9234 7.1948 10.8768C7.20951 10.8744 7.22422 10.8719 7.23937 10.8694C7.33575 10.8544 7.42911 10.8502 7.52657 10.853C7.52657 10.8433 7.52657 10.8336 7.52657 10.8237C7.51761 10.8235 7.50865 10.8233 7.49942 10.823C6.86074 10.7898 6.26404 10.4497 5.81087 10.0171C5.79836 10.0054 5.78584 9.99367 5.77295 9.98158C5.35338 9.57723 5.0414 8.98086 4.96035 8.40409C4.95782 8.38765 4.95529 8.3712 4.95268 8.35426C4.8777 7.73687 4.96215 7.08875 5.2683 6.54175C5.27694 6.52527 5.28557 6.50879 5.29448 6.4918C5.42116 6.25726 5.58779 6.04989 5.77421 5.86039C5.79302 5.84113 5.81139 5.82144 5.82966 5.80167C6.48949 5.10124 7.5647 4.87545 8.47974 5.06068ZM7.11598 5.8672C7.10129 5.87259 7.0866 5.87798 7.07147 5.88353C6.54108 6.09126 6.10517 6.49841 5.86795 7.01719C5.73996 7.31104 5.67293 7.5982 5.67339 7.92018C5.67341 7.93001 5.67342 7.93984 5.67343 7.94996C5.67542 8.41422 5.82352 8.87661 6.11882 9.23995C6.129 9.25307 6.13919 9.26619 6.14969 9.2797C6.50309 9.72629 6.99145 9.99252 7.54943 10.0844C7.80654 10.1141 8.09692 10.1107 8.34776 10.0465C8.35938 10.0436 8.371 10.0406 8.38297 10.0376C8.94382 9.89285 9.42947 9.52778 9.72613 9.02915C9.9996 8.54298 10.1069 7.98611 9.97548 7.43626C9.97134 7.4189 9.97134 7.4189 9.96712 7.40118C9.82977 6.84914 9.47745 6.36093 8.99115 6.06425C8.42195 5.72805 7.74416 5.63118 7.11598 5.8672ZM7.67321 11.6302C7.63071 11.8275 7.58838 12.0248 7.54626 12.2222C7.5267 12.3138 7.50708 12.4054 7.48733 12.4971C7.46827 12.5854 7.44936 12.6739 7.43057 12.7623C7.42337 12.7961 7.41611 12.8298 7.4088 12.8635C7.39857 12.9107 7.38854 12.958 7.37855 13.0053C7.37548 13.0192 7.37241 13.0332 7.36925 13.0475C7.35482 13.1169 7.34476 13.1736 7.36527 13.2433C7.3879 13.2752 7.40969 13.3025 7.43584 13.3312C7.45056 13.348 7.46528 13.3647 7.48 13.3815C7.48766 13.3901 7.49533 13.3987 7.50322 13.4075C7.53403 13.4423 7.56408 13.4777 7.59416 13.5131C7.67267 13.6055 7.7528 13.6963 7.83452 13.7858C7.89271 13.7629 7.9286 13.7225 7.96924 13.6768C7.97632 13.6689 7.9834 13.6611 7.99069 13.653C8.04678 13.5903 8.10052 13.5259 8.15306 13.4603C8.17716 13.4307 8.20152 13.4018 8.22672 13.3731C8.23682 13.3615 8.23682 13.3615 8.24711 13.3496C8.26604 13.3279 8.28513 13.3063 8.30423 13.2847C8.34842 13.2213 8.35183 13.1673 8.33859 13.0927C8.33354 13.0683 8.32833 13.0439 8.32297 13.0195C8.32016 13.0061 8.31735 12.9927 8.31445 12.9789C8.30514 12.9348 8.29561 12.8907 8.28607 12.8466C8.27953 12.8158 8.273 12.785 8.26649 12.7542C8.24931 12.6731 8.23194 12.5921 8.21452 12.5111C8.19691 12.429 8.17947 12.3468 8.16203 12.2647C8.13643 12.1443 8.11077 12.024 8.08496 11.9036C8.08097 11.885 8.08097 11.885 8.0769 11.866C8.06 11.7873 8.04269 11.7088 8.02515 11.6302C7.98025 11.6273 7.93534 11.6246 7.89042 11.622C7.87775 11.6211 7.86508 11.6203 7.85202 11.6195C7.83352 11.6184 7.83352 11.6184 7.81464 11.6173C7.80335 11.6166 7.79206 11.6159 7.78043 11.6152C7.74309 11.6156 7.70967 11.6225 7.67321 11.6302ZM5.54692 12.4074C5.53504 12.4179 5.52317 12.4283 5.51094 12.4391C5.47377 12.4722 5.43702 12.5058 5.40027 12.5394C5.38587 12.5522 5.37147 12.5651 5.35663 12.5784C5.26231 12.6629 5.17429 12.7506 5.09233 12.8473C5.0852 12.8557 5.07808 12.864 5.07074 12.8726C4.65834 13.3572 4.39131 13.9395 4.27114 14.563C4.26754 14.5813 4.26754 14.5813 4.26386 14.5999C4.22417 14.8068 4.22715 14.9932 4.22715 15.2082C6.61769 15.2082 9.00823 15.2082 11.4712 15.2082C11.474 14.9169 11.474 14.9169 11.4401 14.6345C11.4368 14.6161 11.4335 14.5976 11.4301 14.5786C11.305 13.9026 10.9985 13.2209 10.4974 12.7387C10.4724 12.7137 10.45 12.6874 10.4273 12.6604C10.016 12.1862 9.33503 11.789 8.71436 11.6889C8.71766 11.7043 8.72096 11.7197 8.72436 11.7355C8.76577 11.93 8.80476 12.1249 8.84314 12.32C8.85361 12.3732 8.86415 12.4263 8.8747 12.4794C8.90769 12.6465 8.93973 12.8136 8.96869 12.9814C8.97243 13.0024 8.97243 13.0024 8.97623 13.0237C9.01079 13.2293 8.99031 13.4166 8.87567 13.5952C8.82298 13.6657 8.76601 13.7328 8.7095 13.8003C8.67288 13.8445 8.63772 13.8898 8.60255 13.9352C8.54372 14.0107 8.48303 14.0843 8.42085 14.157C8.37857 14.2065 8.33725 14.2566 8.29644 14.3073C8.0567 14.6014 8.0567 14.6014 7.95183 14.6363C7.91614 14.6389 7.88037 14.6403 7.8446 14.6409C7.8161 14.6417 7.8161 14.6417 7.78703 14.6426C7.63509 14.6254 7.51075 14.4531 7.41842 14.3394C7.40784 14.3261 7.39725 14.3128 7.38635 14.2991C7.3445 14.2476 7.30091 14.1978 7.25712 14.1478C7.18775 14.0685 7.12124 13.9875 7.0568 13.9041C7.0189 13.8552 6.98002 13.8074 6.93974 13.7604C6.78994 13.5851 6.67888 13.3927 6.69072 13.1553C6.69651 13.1044 6.70486 13.0541 6.71351 13.0036C6.71735 12.981 6.71735 12.981 6.72127 12.9579C6.7574 12.7505 6.80248 12.5448 6.84686 12.3391C6.86094 12.2737 6.8749 12.2083 6.88889 12.1429C6.89975 12.0922 6.91062 12.0414 6.92155 11.9906C6.94314 11.8902 6.96426 11.7897 6.984 11.6889C6.5105 11.6889 5.88881 12.1039 5.54692 12.4074Z" fill="#0D152C"/>
<path d="M14.3845 11.7045C14.4137 11.722 14.4388 11.7379 14.4625 11.7623C14.4625 11.7719 14.4625 11.7816 14.4625 11.7916C14.4771 11.7964 14.4916 11.8013 14.5065 11.8063C14.5668 11.9036 14.5963 12.0168 14.6254 12.1265C14.6371 12.168 14.6515 12.2064 14.6678 12.2462C14.6745 12.2675 14.6809 12.2889 14.6871 12.3103C14.7081 12.3815 14.7313 12.4518 14.755 12.5221C14.7855 12.613 14.8143 12.7043 14.843 12.7958C14.8465 12.8069 14.85 12.8181 14.8536 12.8296C14.8567 12.8394 14.8597 12.8492 14.8629 12.8593C14.8757 12.8995 14.8891 12.9394 14.9025 12.9794C14.9173 12.9795 14.9321 12.9796 14.9473 12.9796C15.0871 12.9805 15.2269 12.9816 15.3667 12.9828C15.4386 12.9835 15.5105 12.9841 15.5823 12.9845C15.6517 12.9848 15.7211 12.9854 15.7905 12.9862C15.817 12.9864 15.8434 12.9866 15.8698 12.9867C15.907 12.9868 15.9441 12.9872 15.9812 12.9877C15.992 12.9877 16.0029 12.9877 16.014 12.9876C16.111 12.9894 16.1907 13.0112 16.2653 13.0747C16.2956 13.1114 16.2956 13.1114 16.3102 13.1554C16.3199 13.1554 16.3296 13.1554 16.3395 13.1554C16.38 13.2443 16.3905 13.3452 16.3566 13.4386C16.2881 13.5565 16.1656 13.6363 16.0563 13.7135C16.033 13.7302 16.0097 13.7468 15.9864 13.7635C15.9745 13.772 15.9626 13.7805 15.9503 13.7893C15.8915 13.8316 15.8332 13.8748 15.775 13.9179C15.68 13.9881 15.5847 14.0577 15.489 14.1269C15.4779 14.1349 15.4667 14.143 15.4553 14.1513C15.4131 14.1816 15.371 14.2117 15.3277 14.2405C15.3475 14.3518 15.3766 14.4551 15.4169 14.5606C15.4223 14.5748 15.4276 14.5889 15.4331 14.6034C15.4382 14.6164 15.4432 14.6293 15.4484 14.6426C15.4601 14.6817 15.4618 14.7132 15.4597 14.7537C15.4694 14.7537 15.4791 14.7537 15.489 14.7537C15.4927 14.7725 15.4963 14.7912 15.5 14.8106C15.5112 14.861 15.5258 14.9069 15.5458 14.9545C15.578 15.031 15.6001 15.1093 15.622 15.1893C15.6348 15.2372 15.6348 15.2372 15.6516 15.2806C15.6801 15.3764 15.6884 15.5066 15.6479 15.5996C15.6262 15.6291 15.6043 15.6532 15.577 15.6776C15.5575 15.6953 15.5575 15.6953 15.5376 15.7133C15.4793 15.7527 15.4297 15.7541 15.3607 15.7555C15.3432 15.756 15.3258 15.7566 15.3078 15.7571C15.1964 15.7441 15.1099 15.6634 15.0225 15.5978C14.9977 15.5794 14.9728 15.5609 14.948 15.5425C14.9355 15.5332 14.923 15.5239 14.9101 15.5143C14.8541 15.4729 14.7977 15.4322 14.7412 15.3916C14.396 15.1432 14.396 15.1432 14.2997 15.0664C14.2731 15.044 14.2731 15.044 14.239 15.0464C14.1785 15.0693 14.131 15.1064 14.0794 15.1451C14.0679 15.1536 14.0564 15.1621 14.0445 15.1708C14.0078 15.1979 13.9712 15.2251 13.9346 15.2523C13.8998 15.2781 13.8648 15.3038 13.8299 15.3295C13.8068 15.3465 13.7838 15.3635 13.7607 15.3805C13.6671 15.4497 13.5728 15.518 13.4782 15.5858C13.4356 15.6163 13.3938 15.6468 13.3534 15.6802C13.2492 15.7604 13.1531 15.7642 13.0255 15.7509C12.9806 15.7371 12.961 15.7225 12.9228 15.6922C12.9147 15.686 12.9066 15.6798 12.8982 15.6734C12.8427 15.6258 12.8198 15.5805 12.8082 15.5085C12.7969 15.3562 12.839 15.21 12.9005 15.0715C12.9258 15.0105 12.9429 14.9496 12.9595 14.8857C12.9808 14.8039 13.0064 14.7289 13.0401 14.6511C13.0535 14.6105 13.0652 14.5694 13.0768 14.5283C13.0966 14.4591 13.1166 14.3902 13.14 14.3221C13.159 14.2744 13.159 14.2744 13.1574 14.2405C13.1295 14.2184 13.1015 14.1982 13.0722 14.1782C13.0532 14.1649 13.0343 14.1517 13.0153 14.1384C13.0051 14.1312 12.9949 14.124 12.9843 14.1167C12.9158 14.0681 12.8485 14.0177 12.781 13.9676C12.7221 13.924 12.663 13.881 12.6027 13.8392C12.4668 13.7447 12.3532 13.6507 12.2483 13.522C12.2389 13.5114 12.2296 13.5009 12.22 13.49C12.147 13.4031 12.1291 13.3143 12.1328 13.2021C12.158 13.1101 12.2156 13.0709 12.2937 13.0236C12.3525 12.9922 12.4012 12.9922 12.4668 12.9921C12.4768 12.9921 12.4868 12.9921 12.4971 12.9921C12.5182 12.992 12.5394 12.9921 12.5605 12.9921C12.5923 12.9922 12.6242 12.9921 12.656 12.992C12.7573 12.992 12.8572 12.9948 12.9581 13.0054C13.0269 13.0114 13.0957 13.0108 13.1648 13.0105C13.1791 13.0106 13.1933 13.0107 13.2081 13.0107C13.2286 13.0107 13.2286 13.0107 13.2495 13.0107C13.2679 13.0106 13.2679 13.0106 13.2867 13.0106C13.3214 13.0099 13.3214 13.0099 13.3627 12.994C13.4004 12.9907 13.4378 12.9879 13.4755 12.9858C13.4909 12.9848 13.4909 12.9848 13.5066 12.9839C13.532 12.9823 13.5573 12.9808 13.5827 12.9794C13.5854 12.9705 13.588 12.9616 13.5908 12.9525C13.5986 12.9265 13.6063 12.9006 13.6141 12.8746C13.6221 12.8481 13.63 12.8215 13.6379 12.795C13.6696 12.688 13.704 12.5826 13.7431 12.4781C13.7724 12.3983 13.7955 12.3173 13.8183 12.2355C13.8356 12.1747 13.8552 12.1152 13.876 12.0555C13.8814 12.0389 13.8868 12.0222 13.8924 12.005C13.9525 11.8259 13.9525 11.8259 14.0226 11.7623C14.0304 11.7552 14.0381 11.7482 14.0461 11.7409C14.1412 11.6674 14.2741 11.6607 14.3845 11.7045ZM14.2279 12.3195C14.2231 12.3363 14.2183 12.3531 14.2134 12.3704C14.2069 12.3929 14.2005 12.4153 14.194 12.4377C14.1909 12.4488 14.1877 12.4598 14.1845 12.4712C14.1693 12.5236 14.1532 12.5739 14.1308 12.6238C14.1127 12.6665 14.104 12.6981 14.1005 12.7438C14.0996 12.7552 14.0986 12.7665 14.0976 12.7782C14.097 12.7865 14.0965 12.7948 14.0959 12.8034C14.0863 12.8034 14.0766 12.8034 14.0666 12.8034C14.0612 12.8315 14.0612 12.8315 14.0556 12.8602C14.0413 12.925 14.019 12.9835 13.9935 13.0446C13.9784 13.0826 13.9663 13.1207 13.9548 13.1599C13.9495 13.178 13.9495 13.178 13.9441 13.1964C13.9394 13.2124 13.9394 13.2124 13.9346 13.2287C13.9132 13.2973 13.9132 13.2973 13.8778 13.3185C13.8675 13.3227 13.8572 13.327 13.8466 13.3313C13.8376 13.3386 13.8285 13.3458 13.8191 13.3533C13.7514 13.4012 13.6824 13.4083 13.6012 13.408C13.5917 13.408 13.5823 13.408 13.5725 13.408C13.5416 13.408 13.5106 13.4077 13.4797 13.4075C13.4581 13.4075 13.4366 13.4074 13.415 13.4074C13.3584 13.4073 13.3019 13.407 13.2453 13.4067C13.1875 13.4064 13.1297 13.4062 13.0719 13.4061C12.9587 13.4058 12.8454 13.4053 12.7322 13.4046C12.7735 13.4464 12.8132 13.4861 12.8611 13.5201C12.8714 13.5275 12.8817 13.5349 12.8924 13.5425C12.9033 13.5502 12.9143 13.558 12.9256 13.5659C12.9492 13.5828 12.9728 13.5997 12.9965 13.6166C13.0085 13.6252 13.0206 13.6338 13.0331 13.6427C13.1706 13.7406 13.308 13.8388 13.4425 13.9408C13.4573 13.952 13.4721 13.9632 13.4873 13.9748C13.5424 14.0214 13.5777 14.0682 13.5974 14.1378C13.6056 14.2378 13.5929 14.3134 13.554 14.4058C13.5296 14.4652 13.5072 14.5219 13.4947 14.5851C13.4852 14.6328 13.4714 14.675 13.4525 14.7198C13.4207 14.7959 13.3986 14.8735 13.3766 14.9529C13.361 15.0092 13.3439 15.0648 13.3263 15.1205C13.3169 15.1517 13.3169 15.1517 13.3187 15.1937C13.3326 15.1832 13.3465 15.1727 13.3608 15.1619C13.5011 15.056 13.6428 14.9523 13.7856 14.8498C13.8166 14.8276 13.8476 14.8053 13.8786 14.783C13.8973 14.7695 13.916 14.7561 13.9346 14.7427C13.9432 14.7366 13.9517 14.7305 13.9605 14.7241C14.0192 14.6821 14.0192 14.6821 14.0519 14.6658C14.0519 14.6561 14.0519 14.6464 14.0519 14.6364C14.0651 14.6333 14.0651 14.6333 14.0785 14.63C14.1042 14.6234 14.1295 14.6155 14.1546 14.6071C14.2647 14.5955 14.3437 14.6029 14.437 14.6644C14.4616 14.683 14.4616 14.683 14.4919 14.6804C14.4919 14.6901 14.4919 14.6998 14.4919 14.7097C14.5238 14.7329 14.5238 14.7329 14.5643 14.7565C14.6333 14.7989 14.6965 14.8447 14.7591 14.8962C14.7837 14.9179 14.7837 14.9179 14.8145 14.915C14.8145 14.9247 14.8145 14.9344 14.8145 14.9444C14.8366 14.9622 14.8366 14.9622 14.8667 14.9801C14.9347 15.0238 14.9997 15.0706 15.0647 15.1185C15.0746 15.1259 15.0846 15.1332 15.0949 15.1408C15.1187 15.1584 15.1426 15.176 15.1664 15.1937C15.1664 15.1365 15.1497 15.0866 15.1334 15.0324C15.1301 15.0212 15.1268 15.0101 15.1234 14.9986C15.1005 14.9222 15.075 14.8471 15.0461 14.7728C15.0338 14.7374 15.0263 14.7026 15.0198 14.6658C15.0101 14.6658 15.0004 14.6658 14.9904 14.6658C14.9892 14.647 14.988 14.6283 14.9868 14.6089C14.9794 14.5406 14.9582 14.4843 14.9316 14.4214C14.8887 14.3199 14.8654 14.2135 14.8974 14.1055C14.9506 13.986 15.0677 13.9171 15.171 13.8436C15.1943 13.8269 15.2177 13.8102 15.2411 13.7934C15.2529 13.7849 15.2648 13.7764 15.2771 13.7677C15.335 13.7262 15.3928 13.6846 15.4505 13.6429C15.4614 13.6351 15.4724 13.6272 15.4836 13.6191C15.5742 13.5536 15.6639 13.4869 15.753 13.4193C15.7127 13.3992 15.6813 13.4033 15.6363 13.4039C15.6179 13.4041 15.5995 13.4043 15.5806 13.4045C15.5708 13.4046 15.5609 13.4047 15.5508 13.4049C15.5199 13.4053 15.489 13.4055 15.4581 13.4058C15.3702 13.4064 15.2823 13.4071 15.1945 13.4083C15.1407 13.409 15.087 13.4094 15.0332 13.4096C15.0128 13.4098 14.9924 13.41 14.972 13.4104C14.8634 13.4123 14.7742 13.4112 14.6773 13.3586C14.6534 13.3437 14.6534 13.3437 14.6238 13.346C14.619 13.3315 14.6142 13.317 14.6092 13.302C14.5995 13.302 14.5898 13.302 14.5799 13.302C14.5232 13.1628 14.4751 13.0209 14.4332 12.8767C14.4235 12.8443 14.4137 12.8119 14.4039 12.7796C14.3971 12.7571 14.3971 12.7571 14.3901 12.7341C14.3787 12.6988 14.3665 12.6645 14.3532 12.6299C14.3291 12.5664 14.3098 12.502 14.2912 12.4368C14.2862 12.4198 14.2862 12.4198 14.2812 12.4024C14.2731 12.3748 14.2652 12.3471 14.2572 12.3195C14.2476 12.3195 14.2379 12.3195 14.2279 12.3195Z" fill="#0D152C"/>
<path d="M14.7266 4.98735C15.0049 4.96967 15.0049 4.96967 15.073 5.02859C15.0979 5.057 15.0979 5.057 15.1225 5.08999C15.1383 5.10859 15.1383 5.10859 15.1545 5.12757C15.1887 5.16816 15.2217 5.20952 15.2545 5.2513C15.3153 5.32833 15.3747 5.40272 15.4451 5.47126C15.4615 5.4891 15.4777 5.50714 15.4937 5.52533C15.5012 5.53386 15.5087 5.54239 15.5164 5.55117C15.5331 5.57391 15.5331 5.57391 15.5331 5.60324C15.5428 5.60324 15.5525 5.60324 15.5624 5.60324C15.5842 5.62798 15.5842 5.62798 15.6092 5.66189C15.6531 5.72028 15.6995 5.77487 15.7489 5.82864C15.7677 5.85253 15.7677 5.85253 15.7677 5.88186C15.7823 5.8867 15.7968 5.89153 15.8117 5.89652C15.835 5.9223 15.835 5.9223 15.8612 5.95701C15.9133 6.02401 15.9676 6.08838 16.0234 6.15223C16.091 6.22953 16.1568 6.30774 16.2212 6.38765C16.2616 6.43645 16.3045 6.48281 16.348 6.52891C16.369 6.55641 16.369 6.55641 16.369 6.6004C16.3835 6.60524 16.398 6.61008 16.413 6.61506C16.413 6.69733 16.413 6.77959 16.413 6.86435C16.3984 6.86919 16.3839 6.87403 16.369 6.87902C16.365 6.89021 16.3611 6.9014 16.3571 6.91293C16.3294 6.97556 16.2782 6.99815 16.2183 7.02714C16.1697 7.04316 16.1293 7.04364 16.0782 7.04318C16.0592 7.04309 16.0403 7.043 16.0207 7.0429C16.0009 7.04265 15.981 7.04241 15.9611 7.04215C15.941 7.04201 15.9208 7.04187 15.9007 7.04175C15.8515 7.04141 15.8023 7.04093 15.7531 7.04032C15.7531 7.05098 15.7531 7.06165 15.7532 7.07264C15.7538 7.3321 15.7543 7.59156 15.7546 7.85102C15.7548 7.97649 15.755 8.10196 15.7553 8.22744C15.7556 8.3368 15.7558 8.44616 15.7558 8.55552C15.7559 8.61343 15.756 8.67133 15.7562 8.72924C15.7564 8.78375 15.7564 8.83826 15.7564 8.89277C15.7564 8.9223 15.7566 8.95183 15.7567 8.98136C15.7567 8.99898 15.7566 9.0166 15.7566 9.03476C15.7566 9.05004 15.7567 9.06533 15.7567 9.08108C15.7529 9.12454 15.742 9.15655 15.7238 9.19595C15.7141 9.19595 15.7044 9.19595 15.6944 9.19595C15.6896 9.21046 15.6847 9.22498 15.6798 9.23994C15.6247 9.28638 15.5753 9.29064 15.506 9.28823C15.444 9.27977 15.3955 9.24438 15.3571 9.19595C15.3571 9.18143 15.3571 9.16691 15.3571 9.15195C15.3475 9.15195 15.3378 9.15195 15.3278 9.15195C15.3268 8.84157 15.326 8.53119 15.3255 8.2208C15.3253 8.07669 15.325 7.93257 15.3245 7.78846C15.3241 7.66286 15.3238 7.53726 15.3237 7.41166C15.3236 7.34514 15.3235 7.27863 15.3232 7.21212C15.3229 7.14952 15.3228 7.08692 15.3228 7.02432C15.3228 7.00134 15.3227 6.97837 15.3226 6.95539C15.3224 6.92401 15.3224 6.89264 15.3225 6.86126C15.3225 6.8437 15.3224 6.82615 15.3224 6.80805C15.3296 6.74686 15.3514 6.70821 15.3953 6.6656C15.4843 6.60594 15.5674 6.60371 15.6724 6.60315C15.6887 6.60278 15.7049 6.60241 15.7217 6.60203C15.7615 6.60117 15.8013 6.60064 15.8411 6.6004C15.773 6.51649 15.7046 6.4333 15.633 6.35243C15.5901 6.30291 15.5493 6.25178 15.508 6.20092C15.4663 6.15065 15.4226 6.10244 15.3782 6.05456C15.3571 6.0285 15.3571 6.0285 15.3571 5.99917C15.3475 5.99917 15.3378 5.99917 15.3278 5.99917C15.3043 5.97374 15.2818 5.94729 15.26 5.92035C15.248 5.90572 15.236 5.89109 15.2237 5.87601C15.1958 5.83786 15.1958 5.83786 15.1958 5.80854C15.1741 5.80128 15.1741 5.80128 15.1519 5.79387C15.1276 5.76706 15.1276 5.76706 15.1005 5.73155C15.0506 5.6673 14.9993 5.6047 14.9466 5.54275C14.9393 5.53424 14.9321 5.52573 14.9246 5.51696C14.9075 5.49682 14.8904 5.47671 14.8732 5.4566C14.8055 5.53045 14.7391 5.60495 14.6762 5.68297C14.6311 5.73875 14.5845 5.79242 14.536 5.8452C14.4768 5.90958 14.421 5.97588 14.3661 6.04391C14.3257 6.09322 14.2843 6.14155 14.2427 6.1898C14.1567 6.28959 14.0711 6.38987 13.9916 6.49494C13.9825 6.50555 13.9734 6.51615 13.9641 6.52708C13.9544 6.52708 13.9447 6.52708 13.9347 6.52708C13.9302 6.53645 13.9257 6.54583 13.921 6.55549C13.9054 6.58573 13.9054 6.58573 13.8907 6.6004C13.9014 6.60053 13.912 6.60067 13.923 6.60081C13.9715 6.6016 14.02 6.60283 14.0685 6.60406C14.0853 6.60427 14.102 6.60448 14.1193 6.60469C14.2334 6.60801 14.2929 6.62306 14.3764 6.70376C14.4153 6.76485 14.4122 6.81505 14.4115 6.88609C14.4116 6.90016 14.4117 6.91424 14.4118 6.92873C14.4121 6.97593 14.412 7.02311 14.4118 7.0703C14.4119 7.10412 14.412 7.13794 14.4122 7.17176C14.4125 7.26365 14.4125 7.35554 14.4123 7.44744C14.4123 7.52411 14.4124 7.60079 14.4125 7.67746C14.4127 7.86867 14.4127 8.05988 14.4124 8.25109C14.4122 8.41711 14.4124 8.58314 14.4128 8.74916C14.4132 8.91968 14.4134 9.09019 14.4133 9.2607C14.4132 9.35642 14.4132 9.45213 14.4135 9.54785C14.4138 9.63784 14.4137 9.72783 14.4133 9.81783C14.4133 9.85087 14.4133 9.88392 14.4135 9.91696C14.4137 9.96205 14.4135 10.0071 14.4132 10.0522C14.4134 10.0653 14.4135 10.0784 14.4137 10.0919C14.4128 10.1538 14.409 10.1949 14.3695 10.2441C14.3086 10.3021 14.2786 10.314 14.1959 10.3123C14.18 10.312 14.1641 10.3117 14.1476 10.3114C14.1294 10.3109 14.1294 10.3109 14.1107 10.3104C14.1107 10.3007 14.1107 10.2911 14.1107 10.2811C14.1019 10.2799 14.0932 10.2787 14.0841 10.2774C14.0422 10.2631 14.0306 10.2454 14.0081 10.2078C13.9897 10.147 13.9914 10.087 13.9916 10.024C13.9916 10.0113 13.9916 9.99855 13.9916 9.98542C13.9916 9.94264 13.9916 9.89986 13.9917 9.85708C13.9917 9.82644 13.9917 9.7958 13.9917 9.76517C13.9917 9.68191 13.9918 9.59866 13.9919 9.51541C13.992 9.42844 13.992 9.34146 13.992 9.25449C13.9921 9.08975 13.9922 8.92502 13.9923 8.76029C13.9925 8.57276 13.9926 8.38523 13.9926 8.1977C13.9928 7.81191 13.9931 7.42611 13.9934 7.04032C13.975 7.04067 13.975 7.04067 13.9562 7.04102C13.9102 7.04177 13.8642 7.04232 13.8181 7.04274C13.7886 7.04306 13.7591 7.04362 13.7296 7.04419C13.626 7.04497 13.5446 7.04192 13.4508 6.99633C13.4508 6.98665 13.4508 6.97697 13.4508 6.967C13.4423 6.96398 13.4339 6.96095 13.4252 6.95784C13.3767 6.92821 13.3594 6.90056 13.3335 6.84969C13.3148 6.75938 13.3121 6.68651 13.3482 6.6004C13.3731 6.56437 13.3731 6.56437 13.4022 6.52983C13.4524 6.46965 13.5002 6.40833 13.5469 6.34549C13.5539 6.33767 13.5609 6.32984 13.5681 6.32178C13.5778 6.32178 13.5875 6.32178 13.5975 6.32178C13.6028 6.30939 13.6028 6.30939 13.6083 6.29675C13.6303 6.25677 13.657 6.2277 13.6882 6.19438C13.731 6.14775 13.7718 6.10093 13.8101 6.05049C13.8567 5.98926 13.9075 5.93285 13.9593 5.87601C14.029 5.79799 14.0944 5.71628 14.1587 5.63377C14.1744 5.61367 14.1744 5.61367 14.1904 5.59316C14.1998 5.581 14.2091 5.56885 14.2188 5.55632C14.2267 5.54761 14.2346 5.5389 14.2427 5.52992C14.2524 5.52992 14.262 5.52992 14.272 5.52992C14.2752 5.52222 14.2784 5.51453 14.2816 5.5066C14.3091 5.45738 14.3451 5.41742 14.382 5.37503C14.4399 5.30813 14.4399 5.30813 14.492 5.23664C14.5016 5.23664 14.5113 5.23664 14.5213 5.23664C14.5265 5.22447 14.5265 5.22447 14.5319 5.21206C14.555 5.16996 14.5836 5.13761 14.6157 5.10191C14.6272 5.089 14.6386 5.07609 14.6505 5.06279C14.6826 5.03134 14.6826 5.03134 14.7266 5.01667C14.7266 5.007 14.7266 4.99732 14.7266 4.98735Z" fill="#0D152C"/>
<path d="M12.5197 7.25016C12.6014 7.31139 12.6667 7.38798 12.7324 7.46554C12.751 7.48743 12.751 7.48743 12.7699 7.50977C12.8674 7.62665 12.8674 7.62665 12.8937 7.68551C12.9033 7.68551 12.913 7.68551 12.923 7.68551C12.951 7.71604 12.951 7.71604 12.9826 7.75608C12.993 7.76918 13.0035 7.78228 13.0142 7.79577C13.0403 7.83215 13.0403 7.83215 13.055 7.87614C13.0646 7.87614 13.0743 7.87614 13.0843 7.87614C13.106 7.90088 13.106 7.90088 13.131 7.9348C13.1649 7.97958 13.1991 8.02301 13.2364 8.06494C13.2888 8.1239 13.3383 8.18502 13.388 8.24629C13.4297 8.29656 13.4734 8.34476 13.5179 8.39265C13.5389 8.41871 13.5389 8.41871 13.5389 8.44804C13.5486 8.44804 13.5582 8.44804 13.5682 8.44804C13.5911 8.47286 13.613 8.49871 13.6342 8.52503C13.6517 8.54646 13.6517 8.54646 13.6695 8.56833C13.7398 8.66232 13.7407 8.74263 13.7295 8.85863C13.7076 8.93353 13.6568 8.97785 13.5943 9.02074C13.4674 9.0881 13.2728 9.04927 13.1576 9.04927C13.1576 9.92999 13.1576 10.8107 13.1576 11.7181C13.1479 11.7181 13.1383 11.7181 13.1283 11.7181C13.1277 11.7266 13.1271 11.7351 13.1265 11.7438C13.1057 11.7971 13.0764 11.8105 13.0256 11.8354C12.9557 11.8456 12.8981 11.8439 12.8332 11.8153C12.8241 11.8074 12.815 11.7996 12.8057 11.7915C12.8057 11.7818 12.8057 11.7721 12.8057 11.7621C12.796 11.7621 12.7863 11.7621 12.7763 11.7621C12.7488 11.6923 12.7428 11.6294 12.7431 11.5552C12.743 11.5435 12.743 11.5318 12.7429 11.5197C12.7427 11.4805 12.7427 11.4414 12.7428 11.4022C12.7427 11.374 12.7426 11.3459 12.7425 11.3178C12.7422 11.2414 12.7421 11.1651 12.7421 11.0887C12.7421 11.041 12.742 10.9933 12.742 10.9456C12.7417 10.779 12.7416 10.6125 12.7416 10.446C12.7416 10.2908 12.7413 10.1357 12.7408 9.98053C12.7404 9.84724 12.7403 9.71396 12.7403 9.58068C12.7403 9.50111 12.7402 9.42155 12.7399 9.34198C12.7396 9.26713 12.7396 9.1923 12.7398 9.11745C12.7399 9.09002 12.7398 9.0626 12.7396 9.03517C12.7394 8.99764 12.7395 8.96013 12.7398 8.92261C12.7396 8.91183 12.7395 8.90104 12.7393 8.88994C12.7404 8.811 12.7611 8.74832 12.8057 8.68267C12.8754 8.63142 12.9476 8.63092 13.0311 8.62859C13.0433 8.62809 13.0555 8.62759 13.0681 8.62707C13.0979 8.62587 13.1278 8.62492 13.1576 8.62401C13.144 8.60935 13.144 8.60935 13.1302 8.59439C12.879 8.32104 12.879 8.32104 12.879 8.27207C12.8693 8.27207 12.8596 8.27207 12.8497 8.27207C12.8298 8.25026 12.8111 8.22743 12.7928 8.20425C12.7399 8.13808 12.686 8.07316 12.6306 8.00903C12.5511 7.9167 12.4728 7.82338 12.3951 7.7295C12.3312 7.75272 12.295 7.80252 12.253 7.85323C12.2452 7.86248 12.2374 7.87173 12.2294 7.88127C12.1736 7.94767 12.1188 8.01492 12.0642 8.0823C12.0111 8.14637 11.9564 8.20898 11.9015 8.27152C11.8937 8.28047 11.8858 8.28943 11.8778 8.29865C11.8708 8.30661 11.8638 8.31456 11.8566 8.32276C11.8349 8.3481 11.8349 8.3481 11.8085 8.38938C11.7988 8.38938 11.7892 8.38938 11.7792 8.38938C11.7757 8.39734 11.7723 8.4053 11.7687 8.4135C11.7448 8.45734 11.7149 8.49306 11.683 8.53144C11.6711 8.54571 11.6593 8.55998 11.6472 8.57469C11.6179 8.60934 11.6179 8.60934 11.6032 8.62401C11.6218 8.6249 11.6403 8.62579 11.6594 8.6267C11.6838 8.62794 11.7081 8.62918 11.7324 8.63042C11.7447 8.631 11.7569 8.63158 11.7695 8.63217C11.7812 8.63279 11.793 8.6334 11.8051 8.63403C11.816 8.63457 11.8268 8.63511 11.8379 8.63566C11.8672 8.63867 11.8672 8.63867 11.9112 8.65334C11.9112 8.66302 11.9112 8.67269 11.9112 8.68267C11.9202 8.6869 11.9293 8.69113 11.9387 8.6955C11.9743 8.71436 11.9949 8.72895 12.0082 8.76782C12.0145 8.80403 12.0157 8.83788 12.0157 8.87465C12.0157 8.88972 12.0158 8.90479 12.0158 8.92032C12.0158 8.94499 12.0158 8.94499 12.0157 8.97017C12.0158 8.99625 12.0158 8.99625 12.0158 9.02285C12.0158 9.07048 12.0158 9.11811 12.0158 9.16573C12.0157 9.21558 12.0158 9.26542 12.0158 9.31527C12.0158 9.39896 12.0158 9.48265 12.0157 9.56634C12.0156 9.66311 12.0157 9.75989 12.0158 9.85667C12.0158 9.93976 12.0158 10.0228 12.0158 10.1059C12.0158 10.1556 12.0158 10.2052 12.0158 10.2548C12.0158 10.3101 12.0158 10.3654 12.0157 10.4207C12.0157 10.4372 12.0158 10.4537 12.0158 10.4706C12.0158 10.4857 12.0157 10.5007 12.0157 10.5162C12.0157 10.5358 12.0157 10.5358 12.0157 10.5558C12.0138 10.589 12.0138 10.589 11.9992 10.633C11.9895 10.633 11.9798 10.633 11.9698 10.633C11.9671 10.6418 11.9644 10.6505 11.9616 10.6596C11.9308 10.7063 11.8908 10.7234 11.8378 10.7356C11.7814 10.7355 11.7301 10.7242 11.6765 10.7063C11.6765 10.6966 11.6765 10.687 11.6765 10.677C11.6669 10.677 11.6572 10.677 11.6472 10.677C11.6472 10.6673 11.6472 10.6576 11.6472 10.6477C11.6375 10.6477 11.6279 10.6477 11.6179 10.6477C11.6042 10.6065 11.6014 10.5819 11.6015 10.5394C11.6014 10.5262 11.6014 10.5131 11.6014 10.4995C11.6015 10.478 11.6015 10.478 11.6016 10.456C11.6016 10.4408 11.6015 10.4256 11.6015 10.41C11.6016 10.3598 11.6017 10.3096 11.6018 10.2593C11.6018 10.2246 11.6018 10.1898 11.6018 10.155C11.6019 10.0633 11.602 9.97172 11.6022 9.88008C11.6024 9.78661 11.6024 9.69313 11.6025 9.59966C11.6027 9.4162 11.6029 9.23273 11.6032 9.04927C11.5927 9.0495 11.5821 9.04973 11.5712 9.04997C11.5229 9.05089 11.4746 9.05145 11.4263 9.05202C11.4014 9.05257 11.4014 9.05257 11.376 9.05313C11.271 9.05405 11.1879 9.05246 11.1057 8.98059C11.099 8.9721 11.0923 8.96361 11.0854 8.95487C11.0785 8.94642 11.0716 8.93797 11.0645 8.92926C11.0238 8.87064 11.0131 8.83172 11.0148 8.75965C11.0152 8.73799 11.0152 8.73799 11.0156 8.71589C11.016 8.70492 11.0163 8.69396 11.0167 8.68267C11.0263 8.68267 11.036 8.68267 11.046 8.68267C11.0478 8.67147 11.0496 8.66028 11.0515 8.64875C11.0606 8.60934 11.0606 8.60934 11.09 8.56535C11.0997 8.56535 11.1093 8.56535 11.1193 8.56535C11.1226 8.55751 11.1259 8.54966 11.1293 8.54158C11.1549 8.49539 11.1884 8.45742 11.2229 8.41779C11.2375 8.40075 11.2521 8.3837 11.2667 8.36664C11.274 8.35814 11.2813 8.34964 11.2888 8.34089C11.3194 8.30497 11.349 8.26837 11.3787 8.23174C11.4296 8.16907 11.4824 8.10852 11.5368 8.04884C11.5602 8.02377 11.5602 8.02377 11.5739 7.99345C11.5836 7.99345 11.5932 7.99345 11.6032 7.99345C11.6072 7.98477 11.6113 7.97608 11.6154 7.96713C11.6319 7.93595 11.6491 7.91293 11.6725 7.88662C11.6803 7.87772 11.6881 7.86881 11.6962 7.85964C11.7045 7.85027 11.7129 7.84089 11.7214 7.83123C11.7389 7.81137 11.7563 7.79149 11.7737 7.7716C11.7823 7.76188 11.7908 7.75216 11.7995 7.74215C11.8302 7.70676 11.8598 7.6706 11.8892 7.63418C11.9427 7.56812 11.9976 7.50334 12.0532 7.43896C12.0611 7.42983 12.0689 7.4207 12.077 7.4113C12.1953 7.27482 12.3317 7.13446 12.5197 7.25016Z" fill="#0D152C"/>
<path d="M15.6935 9.45095C15.7348 9.5035 15.7565 9.54218 15.7578 9.60943C15.7581 9.62138 15.7584 9.63332 15.7587 9.64563C15.7588 9.65844 15.7589 9.67124 15.7591 9.68443C15.7592 9.69773 15.7594 9.71104 15.7596 9.72476C15.7598 9.75291 15.76 9.78106 15.7601 9.80921C15.7604 9.85203 15.7613 9.8948 15.7623 9.93761C15.7625 9.96503 15.7626 9.99245 15.7627 10.0199C15.7631 10.0325 15.7634 10.0452 15.7638 10.0583C15.7631 10.1548 15.7329 10.2128 15.6651 10.2813C15.5995 10.325 15.5367 10.3194 15.4598 10.3106C15.3853 10.276 15.3577 10.2393 15.3278 10.164C15.3215 10.1161 15.3213 10.0688 15.3215 10.0206C15.3214 10.0069 15.3213 9.99323 15.3213 9.97915C15.3212 9.95036 15.3212 9.92157 15.3213 9.89278C15.3214 9.84885 15.321 9.80494 15.3205 9.76101C15.3205 9.73296 15.3205 9.70491 15.3206 9.67686C15.3204 9.6638 15.3202 9.65074 15.3201 9.63728C15.321 9.55621 15.3327 9.50989 15.3865 9.44545C15.4771 9.36067 15.6013 9.37639 15.6935 9.45095Z" fill="#0D152C"/>
<path d="M15.5771 10.4132C15.649 10.4419 15.703 10.4765 15.7397 10.5462C15.7579 10.6049 15.7578 10.6598 15.758 10.721C15.7581 10.7337 15.7582 10.7463 15.7583 10.7594C15.7584 10.7861 15.7585 10.8129 15.7585 10.8396C15.7585 10.8804 15.7591 10.921 15.7596 10.9618C15.7597 10.9878 15.7598 11.0139 15.7598 11.0399C15.76 11.052 15.7602 11.0641 15.7604 11.0765C15.7598 11.1606 15.7423 11.209 15.6944 11.2784C15.6466 11.3232 15.6036 11.3257 15.5404 11.3278C15.4772 11.3258 15.4348 11.3223 15.3864 11.2784C15.3221 11.2016 15.3193 11.1421 15.3205 11.0464C15.3205 11.0259 15.3205 11.0259 15.3204 11.0049C15.3205 10.9761 15.3206 10.9472 15.3209 10.9184C15.3214 10.8743 15.3212 10.8302 15.321 10.7861C15.3211 10.758 15.3213 10.7299 15.3214 10.7018C15.3214 10.6887 15.3213 10.6755 15.3213 10.662C15.3223 10.5914 15.3261 10.5438 15.3718 10.4865C15.4332 10.4335 15.4945 10.3988 15.5771 10.4132Z" fill="#0D152C"/>
<path d="M14.2876 10.4297C14.3376 10.4616 14.3753 10.4932 14.404 10.5452C14.4142 10.5954 14.4136 10.6444 14.4127 10.6956C14.4127 10.7099 14.4127 10.7243 14.4127 10.739C14.4126 10.7693 14.4124 10.7995 14.4119 10.8297C14.4113 10.876 14.4113 10.9221 14.4114 10.9684C14.4113 10.9978 14.4111 11.0272 14.4109 11.0567C14.4109 11.0704 14.4109 11.0842 14.4109 11.0984C14.4096 11.1701 14.4072 11.2205 14.36 11.2784C14.3042 11.3218 14.2542 11.3334 14.184 11.3371C14.0737 11.315 14.0737 11.315 14.0374 11.2637C14.0374 11.2541 14.0374 11.2444 14.0374 11.2344C14.0277 11.2344 14.018 11.2344 14.0081 11.2344C13.9912 11.1669 13.9908 11.1015 13.9904 11.0324C13.9903 11.0201 13.9903 11.0077 13.9902 10.995C13.99 10.969 13.9899 10.9429 13.9899 10.9168C13.9897 10.8772 13.9893 10.8376 13.9888 10.7979C13.9887 10.7725 13.9886 10.7471 13.9886 10.7217C13.9884 10.71 13.9882 10.6982 13.988 10.6861C13.9883 10.6087 14.0014 10.5554 14.0374 10.4865C14.112 10.4142 14.1897 10.3937 14.2876 10.4297Z" fill="#0D152C"/>
</g>
<defs>
<clipPath id="clip0_10874_4672">
<rect x="0.0751953" y="0.724121" width="19.7362" height="19.4925" rx="5.65969" fill="white"/>
</clipPath>
</defs>
</svg>
