<svg width="14" height="8" viewBox="0 0 14 8" fill="none" xmlns="http://www.w3.org/2000/svg">
<path d="M0.785713 0.460041C0.964651 0.281156 1.20731 0.180664 1.46033 0.180664C1.71335 0.180664 1.95601 0.281156 2.13495 0.460041L6.85823 5.18332L11.5815 0.460041C11.7615 0.286226 12.0025 0.190047 12.2527 0.192221C12.5029 0.194396 12.7422 0.294748 12.9191 0.471664C13.096 0.64858 13.1964 0.887905 13.1986 1.13809C13.2007 1.38828 13.1046 1.62931 12.9307 1.80928L7.53285 7.20718C7.35391 7.38606 7.11125 7.48656 6.85823 7.48656C6.60521 7.48656 6.36255 7.38606 6.18361 7.20718L0.785713 1.80928C0.606828 1.63034 0.506336 1.38768 0.506336 1.13466C0.506336 0.88164 0.606828 0.638979 0.785713 0.460041Z" fill="white"/>
</svg>
