<svg width="36" height="36" viewBox="0 0 36 36" fill="none" xmlns="http://www.w3.org/2000/svg">
<path d="M21.0688 11.6093C20.9345 11.4702 20.7491 11.3806 20.5334 11.3768L11.8038 11.2227C11.3867 11.2153 11.0355 11.5544 11.0281 11.9715L10.874 20.7011C10.8666 21.1181 11.2057 21.4694 11.6227 21.4767C12.0398 21.4841 12.391 21.145 12.3984 20.728L12.5391 12.7606L20.5065 12.9013C20.9235 12.9086 21.2748 12.5696 21.2821 12.1525C21.293 11.9441 21.203 11.7483 21.0688 11.6093Z" fill="white"/>
<path d="M24.3498 23.8958L12.4614 11.5801C12.1718 11.2801 11.6828 11.2714 11.3828 11.561C11.0828 11.8507 11.0742 12.3396 11.3638 12.6397L23.2522 24.9554C23.5418 25.2554 24.0307 25.2641 24.3308 24.9745C24.6308 24.6848 24.6394 24.1959 24.3498 23.8958Z" fill="white"/>
</svg>
