<svg width="16" height="17" viewBox="0 0 16 17" fill="none" xmlns="http://www.w3.org/2000/svg">
<g clip-path="url(#clip0_7613_4506)">
<path d="M8.00001 12.1002C6.10376 12.1002 4.56876 10.6324 4.42751 8.77241L1.80501 6.74566C1.46026 7.17816 1.14301 7.63541 0.887007 8.13541C0.829817 8.24854 0.800021 8.37353 0.800021 8.50029C0.800021 8.62705 0.829817 8.75204 0.887007 8.86516C2.24276 11.5104 4.92676 13.3002 8.00001 13.3002C8.67276 13.3002 9.32176 13.2002 9.94726 13.0387L8.65001 12.0349C8.43576 12.0763 8.2182 12.0981 8.00001 12.1002ZM15.8455 13.5527L13.0818 11.4167C13.9213 10.7091 14.6118 9.84174 15.113 8.86491C15.1702 8.75179 15.2 8.6268 15.2 8.50004C15.2 8.37328 15.1702 8.24829 15.113 8.13516C13.7573 5.48991 11.0733 3.70016 8.00001 3.70016C6.71288 3.70172 5.44666 4.02576 4.31701 4.64266L1.13651 2.18441C1.09503 2.15214 1.04761 2.12836 0.996935 2.11442C0.946265 2.10048 0.893346 2.09667 0.841201 2.10319C0.789056 2.10972 0.738707 2.12645 0.693032 2.15244C0.647358 2.17843 0.607252 2.21317 0.575007 2.25466L0.084257 2.88641C0.0191566 2.97016 -0.0100145 3.07633 0.00315956 3.18159C0.0163336 3.28684 0.0707738 3.38255 0.154507 3.44766L14.8635 14.8159C14.905 14.8482 14.9524 14.872 15.0031 14.8859C15.0537 14.8998 15.1067 14.9037 15.1588 14.8971C15.211 14.8906 15.2613 14.8739 15.307 14.8479C15.3527 14.8219 15.3928 14.7872 15.425 14.7457L15.916 14.1139C15.9811 14.0301 16.0102 13.9239 15.997 13.8187C15.9838 13.7134 15.9293 13.6177 15.8455 13.5527ZM11.2525 10.0027L10.27 9.24316C10.3527 9.00403 10.3966 8.75318 10.4 8.50016C10.4049 8.12973 10.3228 7.76331 10.1604 7.43035C9.99798 7.09738 9.75973 6.80715 9.4648 6.58297C9.16986 6.35878 8.82646 6.20689 8.46218 6.1395C8.09789 6.0721 7.72288 6.09108 7.36726 6.19491C7.51801 6.39919 7.59956 6.64628 7.60001 6.90016C7.59628 6.98465 7.58337 7.06847 7.56151 7.15016L5.72126 5.72791C6.3605 5.19371 7.16694 4.90078 8.00001 4.90016C8.47284 4.8999 8.94109 4.99284 9.37798 5.17366C9.81487 5.35449 10.2118 5.61965 10.5462 5.95399C10.8805 6.28834 11.1457 6.6853 11.3265 7.12219C11.5073 7.55908 11.6003 8.02733 11.6 8.50016C11.6 9.04091 11.4678 9.54491 11.2525 10.0029V10.0027Z" fill="white"/>
</g>
<defs>
<clipPath id="clip0_7613_4506">
<rect width="16" height="16" fill="white" transform="translate(0 0.5)"/>
</clipPath>
</defs>
</svg>
