<svg width="17" height="16" viewBox="0 0 17 16" fill="none" xmlns="http://www.w3.org/2000/svg">
<g clip-path="url(#clip0_11088_7225)">
<path d="M10.8696 4.1012C10.8707 3.52666 10.6483 2.97423 10.2494 2.5607C9.85055 2.14718 9.3065 1.90498 8.7323 1.88531C8.1581 1.86563 7.59875 2.07003 7.17252 2.45529C6.74629 2.84054 6.48659 3.37646 6.44832 3.94972L6.44341 4.1012V6.06841H4.968V4.1012C4.96632 3.13887 5.34081 2.21399 6.01154 1.52392C6.68227 0.833847 7.59614 0.433234 8.55812 0.407564C9.52011 0.381894 10.454 0.7332 11.1606 1.38652C11.8672 2.03983 12.2905 2.94343 12.3401 3.90447L12.345 4.1012V6.06841H13.5746C13.8354 6.06841 14.0856 6.17204 14.2701 6.3565C14.4545 6.54097 14.5582 6.79115 14.5582 7.05202V13.9373C14.5582 14.1981 14.4545 14.4483 14.2701 14.6328C14.0856 14.8172 13.8354 14.9209 13.5746 14.9209H3.73849C3.47762 14.9209 3.22744 14.8172 3.04297 14.6328C2.85851 14.4483 2.75488 14.1981 2.75488 13.9373V7.05202C2.75488 6.79115 2.85851 6.54097 3.04297 6.3565C3.22744 6.17204 3.47762 6.06841 3.73849 6.06841H10.8696V4.1012Z" fill="white"/>
</g>
<defs>
<clipPath id="clip0_11088_7225">
<rect width="15.7377" height="15.7377" fill="white" transform="translate(0.787109 0.166748)"/>
</clipPath>
</defs>
</svg>
