<svg width="36" height="36" viewBox="0 0 36 36" fill="none" xmlns="http://www.w3.org/2000/svg">
<path d="M21.0688 24.3902C20.9345 24.5293 20.7491 24.6189 20.5334 24.6227L11.8038 24.7768C11.3867 24.7842 11.0355 24.4451 11.0281 24.0281L10.874 15.2985C10.8666 14.8814 11.2057 14.5301 11.6227 14.5228C12.0398 14.5154 12.391 14.8545 12.3984 15.2715L12.5391 23.2389L20.5065 23.0982C20.9235 23.0909 21.2748 23.4299 21.2821 23.847C21.293 24.0554 21.203 24.2512 21.0688 24.3902Z" fill="white"/>
<path d="M24.3498 12.1037L12.4614 24.4194C12.1718 24.7195 11.6828 24.7281 11.3828 24.4385C11.0828 24.1489 11.0742 23.6599 11.3638 23.3599L23.2522 11.0441C23.5418 10.7441 24.0307 10.7354 24.3308 11.0251C24.6308 11.3147 24.6394 11.8036 24.3498 12.1037Z" fill="white"/>
</svg>
