<svg width="183" height="194" viewBox="0 0 183 194" fill="none" xmlns="http://www.w3.org/2000/svg">
<path d="M79.7352 35.6704C122.723 35.6704 157.565 70.6126 157.565 113.724C157.565 156.382 122.723 191.324 79.7352 191.324C37.2002 191.324 2.35754 156.382 2.35754 113.724C2.35754 70.6126 37.2002 35.6704 79.7352 35.6704Z" stroke="white" stroke-width="1.1"/>
<path d="M79.7351 37.0309C37.8176 37.0309 3.715 71.4348 3.715 113.724C3.715 155.762 37.8176 189.962 79.7351 189.962C121.902 189.962 156.208 155.762 156.208 113.724C156.208 71.4348 121.902 37.0309 79.7351 37.0309ZM79.7351 192.685C58.8002 192.685 39.0546 184.444 24.1361 169.483C9.21636 154.52 1 134.718 1 113.724C1 69.9338 36.32 34.3081 79.7351 34.3081C123.4 34.3081 158.923 69.9338 158.923 113.724C158.923 157.263 123.4 192.685 79.7351 192.685Z" fill="white" stroke="white" stroke-width="1.1"/>
<path d="M53.2791 76.7666C73.6866 79.7103 94.0816 79.31 114.49 75.5146C117.73 86.7668 119.588 99.7772 119.588 113.627C119.588 123.76 118.592 133.454 116.787 142.335C116.189 142.189 115.566 142.11 114.929 142.11C110.466 142.11 106.869 145.744 106.869 150.193C106.869 153.814 109.244 156.864 112.524 157.902C105.354 178.116 93.4176 191.366 79.9006 191.366C66.3969 191.366 54.4727 178.143 47.303 157.956C50.1701 157.051 52.3483 154.587 52.8395 151.551C53.637 146.663 49.8784 142.163 44.8859 142.163C44.2488 142.163 43.6251 142.243 43.0273 142.376C41.2225 133.481 40.2264 123.787 40.2264 113.627C40.2264 102.866 41.3414 92.6128 43.3593 83.292C43.984 83.4507 44.648 83.5316 45.3244 83.5316C49.3344 83.5316 52.6534 80.6014 53.2791 76.7666Z" stroke="white" stroke-width="1.1"/>
<path d="M49.0261 158.725C56.2847 178.338 67.7694 190.004 79.9005 190.004C92.0451 190.004 103.539 178.321 110.801 158.675C107.587 157.106 105.51 153.852 105.51 150.193C105.51 144.985 109.736 140.748 114.929 140.748C115.188 140.748 115.45 140.759 115.711 140.782C117.383 132.107 118.231 122.979 118.231 113.627C118.231 100.856 116.604 88.249 113.519 77.0756C102.447 79.061 91.2218 80.0671 80.1333 80.0671C71.5787 80.0671 62.899 79.4686 54.3123 78.2872C53.1033 82.1831 49.5112 84.8924 45.3244 84.8924C45.0183 84.8924 44.7163 84.8789 44.4173 84.8509C42.537 93.9882 41.5834 103.663 41.5834 113.627C41.5834 122.995 42.4326 132.143 44.1071 140.835C44.3698 140.812 44.6294 140.801 44.8859 140.801C47.6516 140.801 50.2652 142.013 52.0555 144.127C53.8521 146.247 54.6257 149.032 54.1789 151.771C53.6918 154.783 51.7256 157.388 49.0261 158.725ZM79.9005 192.727C66.3194 192.727 53.6556 179.899 46.0236 158.412C45.8995 158.064 45.9233 157.68 46.0877 157.349C46.2511 157.018 46.5428 156.768 46.8945 156.657C49.2909 155.9 51.0988 153.811 51.4991 151.332C51.8177 149.383 51.2653 147.4 49.987 145.891C48.7127 144.387 46.8531 143.524 44.8859 143.524C44.3873 143.524 43.8609 143.585 43.3231 143.705C42.9673 143.785 42.5949 143.718 42.2888 143.518C41.9837 143.319 41.7696 143.006 41.6972 142.648C39.8199 133.4 38.8684 123.635 38.8684 113.627C38.8684 103.005 39.9327 92.702 42.0323 83.0025C42.1109 82.6416 42.3312 82.3283 42.6446 82.1333C42.958 81.9393 43.3365 81.8802 43.6944 81.9725C44.2074 82.1032 44.7566 82.1696 45.3244 82.1696C48.6269 82.1696 51.4081 79.8047 51.9387 76.5466C52.0586 75.8154 52.7423 75.3144 53.4715 75.4191C62.3291 76.696 71.2994 77.3443 80.1333 77.3443C91.4628 77.3443 102.938 76.278 114.242 74.1765C114.93 74.0479 115.6 74.4648 115.794 75.137C119.165 86.8425 120.946 100.152 120.946 113.627C120.946 123.623 119.994 133.373 118.117 142.608C118.043 142.97 117.826 143.287 117.513 143.485C117.202 143.683 116.823 143.746 116.465 143.657C115.958 143.534 115.441 143.471 114.929 143.471C111.232 143.471 108.225 146.486 108.225 150.193C108.225 153.136 110.117 155.712 112.934 156.604C113.284 156.715 113.576 156.965 113.74 157.296C113.904 157.627 113.926 158.011 113.803 158.358C106.169 179.879 93.4952 192.727 79.9005 192.727Z" fill="white" stroke="white" stroke-width="1.1"/>
<path d="M79.9007 35.8859C93.789 35.8859 106.018 49.8816 113.108 71.0542C113.6 72.5053 114.052 73.9969 114.49 75.5144C94.0817 79.3098 73.6867 79.7102 53.2792 76.7664C53.3444 76.3401 53.3837 75.9013 53.3837 75.4615C53.3837 71.8799 51.0607 68.8563 47.8606 67.791C55.0706 48.4554 66.7415 35.8859 79.9007 35.8859Z" stroke="white" stroke-width="1.1"/>
<path d="M80.1323 77.3443C80.1323 77.3443 80.1323 77.3443 80.1334 77.3443C90.9675 77.3443 101.937 76.3693 112.76 74.4462C112.43 73.3436 112.125 72.3831 111.823 71.4911C104.643 50.0468 92.7092 37.247 79.9007 37.247C68.1315 37.247 56.862 48.3581 49.5972 67.0464C52.7228 68.6396 54.7417 71.8666 54.7417 75.4617C54.7417 75.5063 54.7407 75.5519 54.7407 75.5976C63.2094 76.7583 71.7329 77.3443 80.1323 77.3443ZM80.1365 80.0671C80.1344 80.0671 80.1344 80.0671 80.1334 80.0671C80.1323 80.0671 80.1323 80.0671 80.1323 80.0671C71.2551 80.0671 62.2413 79.422 53.3382 78.1503C53.3268 78.1482 53.3154 78.1472 53.303 78.1451C53.2699 78.1409 53.2378 78.1358 53.2047 78.1306C53.2047 78.1306 53.1737 78.1264 53.1706 78.1264L53.1603 78.1243C53.1592 78.1243 53.1551 78.1233 53.1479 78.1233C53.1385 78.1212 53.1272 78.1202 53.1241 78.1192C53.123 78.1192 53.122 78.1192 53.121 78.1192C53.1137 78.1181 53.0858 78.114 53.0858 78.114C53.0848 78.114 53.0837 78.114 53.0837 78.114C52.4073 78.0154 51.9212 77.4325 51.9212 76.7676C51.9212 76.7106 51.9243 76.6525 51.9315 76.5944C51.9326 76.5944 51.9326 76.5944 51.9326 76.5944C51.9336 76.583 51.9357 76.5705 51.9367 76.5591C51.9967 76.1733 52.0267 75.804 52.0267 75.4617C52.0267 72.5615 50.1805 69.9985 47.4324 69.0836C47.0828 68.9674 46.7953 68.7122 46.636 68.3793C46.4767 68.0453 46.4602 67.6615 46.5884 67.314C50.2612 57.4663 55.1347 49.2771 60.6826 43.6323C66.5387 37.6743 73.184 34.5242 79.9007 34.5242C93.9318 34.5242 106.827 48.0179 114.395 70.6208C114.833 71.9132 115.276 73.3447 115.788 75.1184C115.801 75.1599 115.812 75.2014 115.82 75.2439C115.824 75.2615 115.828 75.2791 115.83 75.2957C115.842 75.3704 115.847 75.443 115.848 75.5167C115.848 76.1598 115.391 76.7313 114.737 76.8537L114.622 76.8744C103.194 78.9925 91.5901 80.0671 80.1365 80.0671Z" fill="white" stroke="white" stroke-width="1.1"/>
<path d="M45.3452 67.4363C49.8702 67.4363 53.4902 71.0667 53.4902 75.6048C53.4902 76.058 53.4902 76.5123 53.4902 76.9656C52.5852 80.596 49.4172 83.3188 45.3452 83.3188C40.8202 83.3188 37.2002 80.1428 37.2002 75.6048C37.2002 74.6971 37.2002 74.2428 37.6522 73.7895C38.1052 70.1591 41.2722 67.4363 45.3452 67.4363Z" stroke="white" stroke-width="1.1"/>
<path d="M45.3452 68.7973C42.0406 68.7973 39.3722 70.9673 38.9998 73.9577C38.9616 74.2585 38.8261 74.5375 38.612 74.7522C38.5572 74.8684 38.5572 75.2761 38.5572 75.6049C38.5572 79.2861 41.4118 81.9581 45.3452 81.9581C48.5814 81.9581 51.2892 79.8887 52.1321 76.7915V75.6049C52.1321 71.7878 49.1513 68.7973 45.3452 68.7973ZM45.3452 84.6809C39.9276 84.6809 35.8422 80.7787 35.8422 75.6049C35.8422 74.7616 35.8422 73.9598 36.3665 73.214C37.0895 69.0525 40.7995 66.0745 45.3452 66.0745C50.5849 66.0745 54.8471 70.3501 54.8471 75.6049V76.9658C54.8471 77.0767 54.8337 77.1877 54.8068 77.2956C53.7063 81.7133 49.9033 84.6809 45.3452 84.6809Z" fill="white" stroke="white" stroke-width="1.1"/>
<path d="M115.03 142.313C120.008 142.313 123.628 146.398 122.723 151.389C122.27 155.474 119.103 158.197 115.03 158.197C110.505 158.197 106.885 154.566 106.885 150.028C106.885 145.943 110.505 142.313 115.03 142.313Z" stroke="white" stroke-width="1.1"/>
<path d="M115.03 143.675C111.351 143.675 108.242 146.584 108.242 150.028C108.242 153.844 111.224 156.835 115.03 156.835C118.454 156.835 121.003 154.586 121.373 151.239C121.378 151.208 121.382 151.177 121.388 151.145C121.741 149.198 121.289 147.35 120.116 145.941C118.917 144.501 117.063 143.675 115.03 143.675ZM115.03 159.558C109.79 159.558 105.527 155.282 105.527 150.028C105.527 145.109 109.879 140.952 115.03 140.952C117.871 140.952 120.484 142.134 122.2 144.196C123.889 146.225 124.551 148.848 124.067 151.586C123.525 156.283 119.815 159.558 115.03 159.558Z" fill="white" stroke="white" stroke-width="1.1"/>
<path d="M44.8922 142.313C49.8702 142.313 53.4902 146.851 53.0372 151.389C52.1322 155.474 48.9652 158.197 44.8922 158.197C40.3672 158.197 36.7472 154.566 36.7472 150.028C36.7472 145.943 40.3672 142.313 44.8922 142.313Z" stroke="white" stroke-width="1.1"/>
<path d="M44.8921 143.675C41.2132 143.675 38.1051 146.584 38.1051 150.028C38.1051 153.844 41.0859 156.835 44.8921 156.835C48.237 156.835 50.8982 154.616 51.6936 151.173C51.858 149.3 51.1961 147.392 49.8732 145.925C48.5628 144.474 46.7942 143.675 44.8921 143.675ZM44.8921 159.558C39.6524 159.558 35.3901 155.282 35.3901 150.028C35.3901 145.109 39.7414 140.952 44.8921 140.952C47.5709 140.952 50.0553 142.069 51.8859 144.098C53.7414 146.154 54.6537 148.861 54.3879 151.525C54.3827 151.578 54.3744 151.632 54.363 151.685C53.3029 156.468 49.5857 159.558 44.8921 159.558Z" fill="white" stroke="white" stroke-width="1.1"/>
<path d="M147.61 75.6049C148.063 75.6049 148.515 75.6049 148.515 75.1506L156.208 84.6809L161.638 81.9581L157.113 70.6125C158.923 68.7973 160.733 67.4365 162.09 65.6212L173.403 70.1593L176.57 64.7136L167.068 56.9985C167.52 55.1833 168.425 52.9148 168.425 50.6453L180.643 48.8301V45.654V42.4769L168.425 40.6616C168.425 38.3932 167.52 36.1236 167.068 34.3084L176.57 26.5933L173.403 21.1477L162.09 25.6857C160.733 23.8705 158.923 22.0553 157.113 20.6944L161.638 9.34882L156.208 6.17274L148.515 15.702C146.705 15.2488 144.443 14.3412 142.18 13.8868L140.37 2.088H134.035L132.225 13.8868C129.963 14.3412 127.7 15.2488 125.89 15.702L118.198 6.17274L112.768 9.34882L117.293 20.6944C115.483 22.0553 114.125 23.8705 112.315 25.6857L101.002 21.1477L98.2871 26.5933L107.337 34.3084C106.885 36.1236 106.432 38.3932 105.98 40.2084C111.41 42.4769 116.388 44.7464 121.365 47.9225C121.365 47.0149 121.365 46.5616 121.365 45.654C121.365 36.578 128.605 29.7704 137.203 29.7704C145.8 29.7704 153.04 36.578 153.04 45.654C153.04 54.2757 146.253 61.5365 137.655 61.5365C141.275 66.0745 144.895 70.6125 147.61 75.6049Z" stroke="white" stroke-width="1.1"/>
<path d="M148.515 73.7896C148.917 73.7896 149.307 73.968 149.57 74.2937L156.576 82.9735L159.914 81.3004L155.852 71.1187C155.651 70.6125 155.768 70.0347 156.153 69.6499C156.796 69.0058 157.43 68.4249 158.042 67.8627C159.145 66.8504 160.189 65.894 161.004 64.8038C161.372 64.3111 162.025 64.1276 162.595 64.3568L172.82 68.4592L174.811 65.0362L166.214 58.0565C165.803 57.7235 165.623 57.182 165.751 56.6686C165.875 56.1676 166.028 55.6542 166.188 55.1106C166.601 53.7114 167.068 52.1264 167.068 50.6452C167.068 49.97 167.56 49.3974 168.226 49.2989L179.285 47.6559V43.651L168.226 42.008C167.56 41.9094 167.068 41.3369 167.068 40.6616C167.068 39.1804 166.601 37.5955 166.188 36.1972C166.028 35.6527 165.875 35.1392 165.751 34.6382C165.623 34.1248 165.803 33.5833 166.214 33.2504L174.811 26.2706L172.82 22.8477L162.595 26.9501C162.024 27.1793 161.372 26.9957 161.004 26.503C159.723 24.7894 158.007 23.0686 156.298 21.7835C155.808 21.4142 155.625 20.7607 155.852 20.1892L159.943 9.9338L156.53 7.93707L149.57 16.5588C149.238 16.9706 148.697 17.1521 148.186 17.0235C147.41 16.8295 146.585 16.565 145.71 16.285C144.469 15.8877 143.185 15.478 141.914 15.2218C141.355 15.1097 140.925 14.6596 140.839 14.0942L139.205 3.44989H135.2L133.567 14.0942C133.481 14.6596 133.05 15.1097 132.491 15.2218C131.22 15.478 129.936 15.8877 128.695 16.285C127.821 16.565 126.995 16.8295 126.22 17.0235C125.708 17.1531 125.168 16.9706 124.835 16.5588L117.875 7.93707L114.463 9.9338L118.553 20.1892C118.781 20.7607 118.598 21.4142 118.107 21.7835C117.02 22.6008 116.066 23.6474 115.057 24.7542C114.497 25.3693 113.917 26.0041 113.275 26.6493C112.891 27.0341 112.316 27.1523 111.811 26.9501L101.658 22.8778L99.9781 26.2478L108.216 33.2711C108.61 33.6062 108.78 34.1362 108.655 34.6382C108.432 35.5292 108.205 36.5582 107.983 37.5529C107.848 38.168 107.708 38.7956 107.569 39.3993C112.1 41.3172 116.08 43.1707 120.009 45.4921C120.092 35.8995 127.614 28.4084 137.203 28.4084C146.845 28.4084 154.398 35.9836 154.398 45.6539C154.398 54.2342 148.281 61.3715 140.304 62.6826C143.117 66.2363 145.909 69.9082 148.174 73.8322C148.286 73.8031 148.401 73.7896 148.515 73.7896ZM156.208 86.0417C155.809 86.0417 155.418 85.8654 155.152 85.5366L148.201 76.9253C148.024 76.9512 147.827 76.9657 147.61 76.9657C147.114 76.9657 146.656 76.694 146.419 76.2562C143.76 71.3697 140.118 66.8026 136.595 62.387C136.269 61.9783 136.206 61.4182 136.431 60.9463C136.658 60.4753 137.134 60.1756 137.655 60.1756C145.39 60.1756 151.683 53.6606 151.683 45.6539C151.683 37.5104 145.322 31.1323 137.203 31.1323C129.083 31.1323 122.723 37.5104 122.723 45.6539V47.9224C122.723 48.4193 122.453 48.8767 122.019 49.1163C121.584 49.3549 121.054 49.3372 120.637 49.0707C115.875 46.0315 111.125 43.8325 105.458 41.4644C104.838 41.2051 104.5 40.5309 104.663 39.8774C104.885 38.9875 105.112 37.9585 105.334 36.9627C105.493 36.2418 105.656 35.5033 105.821 34.8032L97.4079 27.6315C96.9322 27.2249 96.7936 26.5455 97.0728 25.9854L99.7878 20.5398C100.104 19.906 100.852 19.6208 101.507 19.8842L111.976 24.0841C112.347 23.692 112.704 23.301 113.054 22.9172C113.91 21.9774 114.729 21.0792 115.661 20.268L111.507 9.85497C111.257 9.22846 111.503 8.51276 112.083 8.17358L117.513 4.99644C118.093 4.65726 118.831 4.79314 119.253 5.31593L126.387 14.1544C126.856 14.0154 127.355 13.8557 127.871 13.6908C128.846 13.3786 129.924 13.0342 131.024 12.7624L132.694 1.88155C132.795 1.21771 133.366 0.727081 134.035 0.727081H140.37C141.04 0.727081 141.61 1.21771 141.712 1.88155L143.381 12.7624C144.482 13.0342 145.559 13.3786 146.535 13.6908C147.052 13.8557 147.55 14.0154 148.019 14.1544L155.152 5.31593C155.574 4.79314 156.313 4.65726 156.892 4.99644L162.322 8.17358C162.903 8.51276 163.148 9.22846 162.898 9.85497L158.75 20.2535C160.101 21.3665 161.42 22.689 162.53 24.0437L172.898 19.8842C173.523 19.6343 174.237 19.8801 174.576 20.462L177.743 25.9076C178.081 26.4885 177.946 27.2291 177.424 27.6523L168.61 34.8073C168.668 35.0075 168.729 35.2139 168.791 35.4245C169.157 36.665 169.562 38.0353 169.717 39.4771L180.842 41.1304C181.508 41.229 182 41.8016 182 42.4768V48.83C182 49.5053 181.508 50.0779 180.842 50.1764L169.717 51.8298C169.562 53.2716 169.157 54.6418 168.791 55.8824C168.729 56.0929 168.668 56.2993 168.61 56.4995L177.424 63.6545C177.946 64.0778 178.081 64.8184 177.743 65.3992L174.576 70.8448C174.237 71.4278 173.525 71.6736 172.898 71.4226L162.515 67.257C161.706 68.1915 160.811 69.0141 159.874 69.8729C159.492 70.2225 159.101 70.5804 158.711 70.9527L162.898 81.4519C163.161 82.1095 162.876 82.8584 162.245 83.1758L156.815 85.8986C156.622 85.9951 156.414 86.0417 156.208 86.0417Z" fill="white" stroke="white" stroke-width="1.1"/>
<path d="M157.565 115.085H2.3575C1.60785 115.085 1 114.476 1 113.724C1 112.972 1.60785 112.362 2.3575 112.362H157.565C158.315 112.362 158.923 112.972 158.923 113.724C158.923 114.476 158.315 115.085 157.565 115.085Z" fill="white" stroke="white" stroke-width="1.1"/>
<path d="M79.7351 192.686C78.9852 192.686 78.3771 192.076 78.3771 191.324V35.6703C78.3771 34.9183 78.9852 34.3083 79.7351 34.3083C80.4849 34.3083 81.0921 34.9183 81.0921 35.6703V191.324C81.0921 192.076 80.4849 192.686 79.7351 192.686Z" fill="white" stroke="white" stroke-width="1.1"/>
<path d="M79.4796 80.1323C70.7679 80.1323 62.0375 79.5276 53.304 78.314C52.5614 78.2113 52.0421 77.5236 52.1456 76.7789C52.248 76.0341 52.9368 75.5134 53.6763 75.6171C83.4606 79.7537 113.24 76.7208 142.186 66.6044C142.896 66.3575 143.667 66.732 143.915 67.4414C144.162 68.152 143.787 68.9278 143.08 69.1747C122.209 76.4698 100.907 80.1323 79.4796 80.1323Z" fill="white" stroke="white" stroke-width="1.1"/>
<path d="M37.6542 75.1504C37.5653 75.1504 37.4763 75.1421 37.3863 75.1234C30.5156 73.7459 23.5735 71.4256 16.861 69.181C16.1494 68.9434 15.7646 68.1727 16.0025 67.4591C16.2394 66.7455 17.0078 66.3586 17.7194 66.5982C24.3533 68.8158 31.2137 71.1092 37.919 72.4545C38.6533 72.6018 39.1301 73.3186 38.9833 74.0561C38.855 74.7033 38.2872 75.1504 37.6542 75.1504Z" fill="white" stroke="white" stroke-width="1.1"/>
<path d="M142.633 159.104C142.481 159.104 142.327 159.078 142.176 159.024C135.943 156.792 129.24 154.538 122.457 153.177C121.722 153.031 121.245 152.313 121.392 151.576C121.539 150.839 122.252 150.36 122.989 150.508C129.943 151.903 136.759 154.193 143.089 156.46C143.796 156.713 144.164 157.492 143.912 158.2C143.713 158.757 143.191 159.104 142.633 159.104Z" fill="white" stroke="white" stroke-width="1.1"/>
<path d="M53.0362 150.481C52.3773 150.481 51.7992 150 51.6957 149.327C51.582 148.584 52.0898 147.889 52.8314 147.774C70.0491 145.118 88.2918 144.962 107.054 147.316C107.797 147.409 108.325 148.09 108.232 148.835C108.139 149.581 107.457 150.11 106.717 150.017C88.2039 147.696 70.2136 147.848 53.2441 150.466C53.1737 150.476 53.1044 150.481 53.0362 150.481Z" fill="white" stroke="white" stroke-width="1.1"/>
<path d="M17.2902 159.104C16.7327 159.104 16.2093 158.757 16.0118 158.2C15.7594 157.492 16.1276 156.713 16.833 156.46C23.1628 154.193 29.9798 151.903 36.9333 150.508C37.6687 150.36 38.3844 150.838 38.5313 151.576C38.6781 152.313 38.2013 153.031 37.466 153.177C30.6821 154.538 23.9799 156.792 17.7463 159.024C17.5953 159.078 17.4412 159.104 17.2902 159.104Z" fill="white" stroke="white" stroke-width="1.1"/>
</svg>
