<svg width="146" height="193" viewBox="0 0 146 193" fill="none" xmlns="http://www.w3.org/2000/svg">
<path fill-rule="evenodd" clip-rule="evenodd" d="M60.2536 192.679C60.1096 192.679 59.9716 192.679 59.8275 192.631C58.5011 192.397 57.6548 191.166 57.8889 189.888L65.4573 146.374C65.6914 145.095 66.9218 144.201 68.2002 144.435C69.5267 144.669 70.3729 145.9 70.1389 147.178L62.5704 190.692C62.3783 191.827 61.388 192.679 60.2536 192.679Z" fill="white"/>
<path fill-rule="evenodd" clip-rule="evenodd" d="M85.2698 192.679C84.1354 192.679 83.1391 191.875 82.905 190.692L75.3366 147.178C75.1025 145.9 75.9968 144.621 77.2752 144.435C78.6016 144.201 79.832 145.095 80.0181 146.374L87.5865 189.888C87.8206 191.214 86.9263 192.445 85.6479 192.631C85.5579 192.631 85.4138 192.679 85.2698 192.679Z" fill="white"/>
<path fill-rule="evenodd" clip-rule="evenodd" d="M77.7074 149.171H67.7741C66.5437 149.171 65.5534 148.271 65.4094 147.088L63.8969 135.264C63.7048 133.938 64.6531 132.756 65.9795 132.617C67.306 132.473 68.4884 133.374 68.6264 134.7L69.8568 144.441H75.6247L76.8551 134.7C77.0472 133.374 78.2295 132.479 79.502 132.617C80.8284 132.81 81.7227 133.992 81.5846 135.264L80.0721 147.088C79.9281 148.271 78.9318 149.171 77.7074 149.171Z" fill="white"/>
<path fill-rule="evenodd" clip-rule="evenodd" d="M65.0792 139.382C64.371 139.382 63.6628 139.051 63.2366 138.481L51.6049 123.963C51.1787 123.392 50.9927 122.684 51.1307 121.976L53.3034 111.43C53.4475 110.626 54.0116 109.966 54.7679 109.678C55.5241 109.396 56.3764 109.486 57.0366 109.96L74.2022 122.114C75.1925 122.822 75.5287 124.197 74.8624 125.283L67.1079 138.199C66.7298 138.859 66.0216 139.286 65.2173 139.382C65.1693 139.382 65.1273 139.382 65.0792 139.382ZM55.9983 121.88L64.7972 132.803L69.6227 124.761L57.2287 116.01L55.9983 121.88Z" fill="white"/>
<path fill-rule="evenodd" clip-rule="evenodd" d="M80.4502 139.382C80.4022 139.382 80.3542 139.382 80.2582 139.382C79.4539 139.334 78.7937 138.907 78.3676 138.199L70.7031 125.289C70.0909 124.203 70.373 122.828 71.3633 122.12L88.4869 109.966C89.1471 109.492 89.9994 109.396 90.7556 109.684C91.5119 109.972 92.034 110.632 92.2201 111.436L94.3928 121.982C94.5368 122.69 94.3448 123.398 93.9186 123.969L82.2868 138.487C81.8667 139.045 81.1585 139.382 80.4502 139.382ZM75.9548 124.767L80.7323 132.809L89.5312 121.886L88.3008 116.022L75.9548 124.767Z" fill="white"/>
<path fill-rule="evenodd" clip-rule="evenodd" d="M143.117 192.727H2.41279C1.08635 192.727 0 191.641 0 190.314V151.109C0 128.17 20.5267 109.54 45.7829 109.54H55.7102C57.0366 109.54 58.0749 110.626 58.0749 111.953C58.0749 113.279 56.9886 114.365 55.6622 114.365H45.7349C23.1255 114.365 4.72954 130.871 4.72954 151.163V187.961H140.608V151.163C140.608 130.877 122.212 114.365 99.6025 114.365H89.6693C88.3428 114.365 87.3045 113.279 87.3045 111.953C87.3045 110.626 88.3908 109.54 89.6693 109.54H99.6025C124.859 109.54 145.385 128.176 145.385 151.109V190.314C145.481 191.641 144.437 192.727 143.117 192.727Z" fill="white"/>
<path fill-rule="evenodd" clip-rule="evenodd" d="M51.0286 192.679C50.0383 192.679 49.138 192.067 48.7599 191.07L32.6806 145.239C32.3505 144.339 32.5846 143.349 33.2928 142.731L39.5829 136.819L32.4406 115.206C32.0144 113.975 32.7227 112.607 33.9531 112.181C35.2315 111.755 36.5519 112.463 36.978 113.693L44.5945 136.771C44.8766 137.671 44.6425 138.613 43.9823 139.28L37.7403 145.191L53.2974 189.552C53.7235 190.782 53.0633 192.151 51.8329 192.577C51.5508 192.631 51.3167 192.679 51.0286 192.679Z" fill="white"/>
<path fill-rule="evenodd" clip-rule="evenodd" d="M94.4948 192.679C94.2127 192.679 93.9726 192.631 93.6905 192.535C92.4601 192.109 91.7999 190.74 92.2261 189.51L107.783 145.149L101.541 139.238C100.881 138.625 100.641 137.629 100.929 136.729L108.545 113.651C108.972 112.421 110.298 111.713 111.57 112.139C112.849 112.565 113.509 113.891 113.083 115.164L105.941 136.777L112.231 142.689C112.891 143.349 113.179 144.345 112.843 145.197L96.7635 191.022C96.3854 192.067 95.4851 192.679 94.4948 192.679Z" fill="white"/>
<path fill-rule="evenodd" clip-rule="evenodd" d="M104.476 98.7063H89.8133C88.4869 98.7063 87.4485 97.6199 87.4485 96.2935C87.4485 94.9671 88.5349 93.8807 89.8133 93.8807H104.476C108.449 93.8807 111.666 90.9038 111.666 87.2125V33.8611C111.666 32.3967 111.522 31.1182 111.288 29.8398C110.154 24.258 105.803 19.9066 100.221 18.7242C99.7465 18.6282 99.3204 18.3941 98.9903 18.064C81.4466 0.328201 63.2846 5.24981 54.0596 9.78729C49.2821 12.1581 45.0687 15.2791 41.5215 19.1083C36.6059 24.4021 33.863 31.3583 33.863 38.6867V87.1645C33.863 90.8557 37.0801 93.8327 41.1014 93.8327H55.7642C57.0906 93.8327 58.129 94.9191 58.129 96.2455C58.129 97.5719 57.0426 98.6583 55.7162 98.6583H41.0534C34.4332 98.6583 29.0375 93.5026 29.0375 87.2125V38.7347C29.0375 30.224 32.2065 22.0853 37.9744 15.8913C41.8997 11.6359 46.5872 8.13675 51.8809 5.5319C62.1923 0.472252 82.3409 -5.01354 101.823 14.2347C108.966 15.9873 114.403 21.7072 115.868 28.8975C116.198 30.458 116.39 32.1146 116.39 33.9092V87.2606C116.438 93.5506 111.048 98.7063 104.476 98.7063Z" fill="white"/>
<path fill-rule="evenodd" clip-rule="evenodd" d="M73.0198 97.9021C64.6471 97.9021 56.6104 94.451 50.4104 88.1129C44.3544 81.9189 40.7593 73.8282 40.3811 65.3655V65.3175L39.907 44.1306C39.907 43.3743 40.2371 42.6661 40.8553 42.1919C41.4675 41.7178 42.2297 41.5797 42.986 41.8138C43.2201 41.8618 66.1595 48.2479 86.1161 32.9669C86.6862 32.5408 87.4425 32.3547 88.1027 32.5408C88.8109 32.7328 89.3811 33.153 89.7112 33.8192C89.9033 34.1973 94.2967 42.8041 103 41.7178C103.66 41.6217 104.374 41.8618 104.89 42.288C105.412 42.7621 105.694 43.3743 105.694 44.0825V65.2695C105.694 65.3175 105.694 65.3655 105.694 65.3655C105.268 73.8763 101.721 81.9669 95.6652 88.1129C89.4351 94.403 81.3925 97.9021 73.0198 97.9021ZM45.1167 65.1254C45.8729 80.5444 58.357 93.0765 72.9718 93.0765C87.5865 93.0765 100.071 80.5444 100.827 65.1254V46.4893C93.5885 46.2552 89.003 41.2856 86.8303 38.2126C69.8027 50.0365 51.8329 48.3319 44.6905 47.0115L45.1167 65.1254Z" fill="white"/>
<path fill-rule="evenodd" clip-rule="evenodd" d="M89.7653 114.312C88.4389 114.312 87.4005 113.225 87.4005 111.899V96.1976C87.4005 94.8712 88.4869 93.7848 89.7653 93.7848C91.0917 93.7848 92.1781 94.8712 92.1781 96.1976V111.899C92.1781 113.273 91.0917 114.312 89.7653 114.312Z" fill="white"/>
<path fill-rule="evenodd" clip-rule="evenodd" d="M55.7582 114.312C54.4318 114.312 53.3454 113.225 53.3454 111.899V96.1976C53.3454 94.8712 54.4318 93.7848 55.7582 93.7848C57.0846 93.7848 58.171 94.8712 58.171 96.1976V111.899C58.123 113.273 57.0846 114.312 55.7582 114.312Z" fill="white"/>
</svg>
