<svg width="17" height="17" viewBox="0 0 17 17" fill="none" xmlns="http://www.w3.org/2000/svg">
<g filter="url(#filter0_b_11190_10321)">
<circle cx="8.68447" cy="8.68593" r="8.31358" transform="rotate(-180 8.68447 8.68593)" fill="url(#paint0_linear_11190_10321)" fill-opacity="0.05"/>
<circle cx="8.68447" cy="8.68593" r="8.25994" transform="rotate(-180 8.68447 8.68593)" stroke="white" stroke-opacity="0.1" stroke-width="0.107272"/>
</g>
<g filter="url(#filter1_b_11190_10321)">
<circle cx="8.68447" cy="8.68593" r="8.31358" transform="rotate(-180 8.68447 8.68593)" fill="url(#paint1_linear_11190_10321)" fill-opacity="0.29"/>
<circle cx="8.68447" cy="8.68593" r="8.25994" transform="rotate(-180 8.68447 8.68593)" stroke="white" stroke-opacity="0.1" stroke-width="0.107272"/>
</g>
<path d="M9.99997 10.6227L9.63303 10.9997L7.63438 8.94511C7.60216 8.91219 7.57659 8.87304 7.55914 8.82992C7.5417 8.78679 7.53271 8.74055 7.53271 8.69384C7.53271 8.64714 7.5417 8.6009 7.55914 8.55777C7.57659 8.51465 7.60216 8.4755 7.63438 8.44258L9.63303 6.38696L9.99963 6.76395L8.12375 8.69331L9.99997 10.6227Z" fill="white"/>
<defs>
<filter id="filter0_b_11190_10321" x="-2.0318" y="-2.03058" width="21.4327" height="21.433" filterUnits="userSpaceOnUse" color-interpolation-filters="sRGB">
<feFlood flood-opacity="0" result="BackgroundImageFix"/>
<feGaussianBlur in="BackgroundImageFix" stdDeviation="1.20145"/>
<feComposite in2="SourceAlpha" operator="in" result="effect1_backgroundBlur_11190_10321"/>
<feBlend mode="normal" in="SourceGraphic" in2="effect1_backgroundBlur_11190_10321" result="shape"/>
</filter>
<filter id="filter1_b_11190_10321" x="-2.0318" y="-2.03058" width="21.4327" height="21.433" filterUnits="userSpaceOnUse" color-interpolation-filters="sRGB">
<feFlood flood-opacity="0" result="BackgroundImageFix"/>
<feGaussianBlur in="BackgroundImageFix" stdDeviation="1.20145"/>
<feComposite in2="SourceAlpha" operator="in" result="effect1_backgroundBlur_11190_10321"/>
<feBlend mode="normal" in="SourceGraphic" in2="effect1_backgroundBlur_11190_10321" result="shape"/>
</filter>
<linearGradient id="paint0_linear_11190_10321" x1="2.53965" y1="1.45018" x2="11.256" y2="16.4033" gradientUnits="userSpaceOnUse">
<stop stop-color="white"/>
<stop offset="1" stop-color="#D8D8D8"/>
</linearGradient>
<linearGradient id="paint1_linear_11190_10321" x1="2.53965" y1="1.45018" x2="11.256" y2="16.4033" gradientUnits="userSpaceOnUse">
<stop stop-color="#21233A"/>
<stop offset="1" stop-color="#0D152C"/>
</linearGradient>
</defs>
</svg>
