<svg width="46" height="44" viewBox="0 0 46 44" fill="none" xmlns="http://www.w3.org/2000/svg">
<rect width="45.7778" height="44" rx="22" fill="#0F1831"/>
<rect x="0.330667" y="0.330667" width="45.1164" height="43.3387" rx="21.6693" stroke="white" stroke-opacity="0.28" stroke-width="0.661334"/>
<rect x="0.330667" y="0.330667" width="45.1164" height="43.3387" rx="21.6693" stroke="black" stroke-opacity="0.2" stroke-width="0.661334"/>
<path d="M15.3013 26.2916C14 25.2507 14 24.4631 14 21.1111C14 17.7591 14 16.0827 15.3013 15.0418C16.6044 14 18.6987 14 22.8889 14C27.0791 14 29.1742 14 30.4756 15.0418C31.7769 16.0836 31.7778 17.7591 31.7778 21.1111C31.7778 24.4631 31.7778 25.2507 30.4756 26.2916C29.1751 27.3333 27.0791 27.3333 22.8889 27.3333C20.6578 27.3333 19.5111 28.8782 17.5556 30V27.1449C16.5831 27 15.8676 26.7449 15.3013 26.2916Z" stroke="white" stroke-width="2" stroke-linecap="round" stroke-linejoin="round"/>
</svg>
