<svg width="19" height="18" viewBox="0 0 19 18" fill="none" xmlns="http://www.w3.org/2000/svg">
<path d="M13.8836 0.684021H4.99246C2.53613 0.684021 0.537842 2.6829 0.537842 5.13996V13.2764C0.537842 15.7335 2.53613 17.7324 4.99246 17.7324H13.8836C16.3399 17.7324 18.3382 15.7335 18.3382 13.2764V5.13996C18.3382 2.6829 16.3399 0.684021 13.8836 0.684021ZM2.10929 5.13996C2.10929 3.54992 3.40289 2.25592 4.99246 2.25592H13.8836C15.4732 2.25592 16.7668 3.54992 16.7668 5.13996V13.2764C16.7668 14.8665 15.4732 16.1605 13.8836 16.1605H4.99246C3.40289 16.1605 2.10929 14.8665 2.10929 13.2764V5.13996Z" fill="#ECF2FF"/>
<path d="M9.43799 13.3523C11.7222 13.3523 13.5815 11.4934 13.5815 9.20757C13.5815 6.9217 11.7232 5.06281 9.43799 5.06281C7.15279 5.06281 5.29443 6.9217 5.29443 9.20757C5.29443 11.4934 7.15279 13.3523 9.43799 13.3523ZM9.43799 6.63571C10.8564 6.63571 12.0101 7.78973 12.0101 9.20858C12.0101 10.6274 10.8564 11.7814 9.43799 11.7814C8.01956 11.7814 6.86589 10.6274 6.86589 9.20858C6.86589 7.78973 8.01956 6.63571 9.43799 6.63571Z" fill="#ECF2FF"/>
<path d="M13.9651 5.73295C14.5801 5.73295 15.0815 5.23249 15.0815 4.61621C15.0815 3.99993 14.5812 3.49945 13.9651 3.49945C13.349 3.49945 12.8486 3.99993 12.8486 4.61621C12.8486 5.23249 13.349 5.73295 13.9651 5.73295Z" fill="#ECF2FF"/>
</svg>
