<svg width="20" height="20" viewBox="0 0 20 20" fill="none" xmlns="http://www.w3.org/2000/svg">
<path d="M19.1698 10.033C19.1698 11.2149 18.937 12.3852 18.4847 13.4771C18.0324 14.569 17.3695 15.5612 16.5338 16.3969C15.6981 17.2326 14.7059 17.8956 13.614 18.3479C12.5221 18.8002 11.3518 19.033 10.1699 19.033C8.98798 19.033 7.81766 18.8002 6.72574 18.3479C5.63381 17.8956 4.64167 17.2326 3.80594 16.3969C2.97022 15.5612 2.30729 14.569 1.855 13.4771C1.40271 12.3852 1.16992 11.2149 1.16992 10.033C1.16992 7.64601 2.11813 5.35683 3.80594 3.669C5.49376 1.98117 7.78293 1.03296 10.1699 1.03296C12.5568 1.03296 14.846 1.98117 16.5338 3.669C18.2216 5.35683 19.1698 7.64601 19.1698 10.033Z" stroke="white"/>
<path d="M13.77 10.0323C13.77 11.2139 13.6764 12.3847 13.4955 13.4764C13.3155 14.568 13.05 15.5598 12.7152 16.3958C12.3813 17.2319 11.9845 17.8943 11.548 18.3469C11.1106 18.7987 10.6426 19.0318 10.1702 19.0318C9.69768 19.0318 9.22971 18.7987 8.79324 18.3469C8.35586 17.8943 7.95898 17.231 7.6251 16.3958C7.29032 15.5598 7.02484 14.5689 6.84395 13.4764C6.65937 12.3377 6.56787 11.1858 6.57036 10.0323C6.57036 8.85062 6.66306 7.67978 6.84395 6.58814C7.02484 5.49649 7.29032 4.50474 7.6251 3.66868C7.95898 2.83262 8.35586 2.17026 8.79234 1.71758C9.22971 1.2667 9.69768 1.03271 10.1702 1.03271C10.6426 1.03271 11.1106 1.2658 11.5471 1.71758C11.9845 2.17026 12.3813 2.83352 12.7152 3.66868C13.05 4.50474 13.3155 5.49559 13.4955 6.58814C13.6773 7.67978 13.77 8.85062 13.77 10.0323Z" stroke="white"/>
<path d="M1.16992 10.0322H19.1689" stroke="white" stroke-linecap="round"/>
</svg>
