<svg width="47" height="47" viewBox="0 0 47 47" fill="none" xmlns="http://www.w3.org/2000/svg">
<rect width="46.9" height="46.9" rx="23.45" fill="#0F1831"/>
<rect x="0.330667" y="0.330667" width="46.2387" height="46.2387" rx="23.1193" stroke="white" stroke-opacity="0.28" stroke-width="0.661334"/>
<path d="M27.2152 31.1903C28.5915 31.1903 29.5014 30.8184 30.308 29.9166C30.3715 29.8535 30.4268 29.7823 30.4903 29.7188C30.9648 29.189 31.1862 28.6668 31.1862 28.1687C31.1862 27.599 30.8541 27.0691 30.1501 26.5784L27.8483 24.9807C27.1362 24.4903 26.3056 24.4349 25.6411 25.0914L25.0322 25.7006C24.85 25.8825 24.692 25.8906 24.5101 25.7795C24.091 25.5105 23.2286 24.7593 22.6431 24.174C22.0261 23.5649 21.425 22.8848 21.1166 22.3863C21.0059 22.2041 21.0217 22.0539 21.2036 21.872L21.8047 21.2628C22.4693 20.5986 22.4139 19.7599 21.9235 19.0562L20.3177 16.7544C19.8351 16.0501 19.3052 15.7257 18.7355 15.718C18.2374 15.7099 17.7152 15.9394 17.1854 16.4139C17.1142 16.4774 17.0507 16.5327 16.9795 16.5881C16.0858 17.3947 15.7139 18.3046 15.7139 19.6728C15.7139 21.9354 17.1061 24.6881 19.6613 27.2429C22.2003 29.7823 24.961 31.1903 27.2152 31.1903ZM27.2233 29.972C25.2061 30.0114 22.6198 28.4613 20.5708 26.4204C18.5063 24.3637 16.8847 21.69 16.9241 19.6731C16.94 18.8027 17.2407 18.0515 17.8658 17.5135C17.913 17.4662 17.9603 17.4264 18.0156 17.3869C18.2451 17.181 18.5063 17.0707 18.7277 17.0707C18.965 17.0707 19.1705 17.1574 19.3211 17.3947L20.8557 19.6964C21.0217 19.9418 21.0376 20.2189 20.7922 20.4639L20.0963 21.1602C19.5425 21.7059 19.5901 22.3704 19.9856 22.9003C20.4362 23.5095 21.2195 24.3954 21.8206 24.9965C22.4298 25.6057 23.3866 26.4599 23.9958 26.9186C24.5257 27.3141 25.1983 27.354 25.744 26.8079L26.44 26.112C26.6853 25.8666 26.9543 25.8825 27.1993 26.0408L29.5011 27.5754C29.7387 27.7333 29.8335 27.9311 29.8335 28.1687C29.8335 28.3982 29.7228 28.6513 29.5095 28.8882C29.4723 28.9403 29.4327 28.9905 29.3907 29.0388C28.845 29.6557 28.0934 29.9561 27.2233 29.972Z" fill="white"/>
</svg>
