<svg width="28" height="23" viewBox="0 0 28 23" fill="none" xmlns="http://www.w3.org/2000/svg">
<path d="M12.5259 2.76109L7.60985 11.9198L4.51203 12.7953C4.8712 12.1219 5.27526 11.5831 5.72422 11.1791C6.17318 10.7301 6.68948 10.5056 7.27313 10.5056C8.5751 10.5056 9.7424 11.0444 10.775 12.1219C11.8525 13.1545 12.3913 14.5014 12.3913 16.1625C12.3913 17.9134 11.7852 19.4175 10.573 20.6745C9.40568 21.9316 7.94656 22.5602 6.19563 22.5602C4.53448 22.5602 3.07536 21.9541 1.81828 20.7419C0.606094 19.4848 0 17.9583 0 16.1625C0 15.4442 0.134688 14.6136 0.404063 13.6708C0.718334 12.728 1.27953 11.4933 2.08766 9.96688L7.47516 0L12.5259 2.76109ZM27.6783 2.76109L22.7622 11.9198L19.7317 12.7953C20.046 12.1219 20.4276 11.5831 20.8766 11.1791C21.3704 10.7301 21.8867 10.5056 22.4255 10.5056C23.7274 10.5056 24.9172 11.0444 25.9947 12.1219C27.0722 13.1545 27.6109 14.5014 27.6109 16.1625C27.6109 17.9134 27.0048 19.4175 25.7927 20.6745C24.6254 21.9316 23.1663 22.5602 21.4153 22.5602C19.7542 22.5602 18.2951 21.9541 17.038 20.7419C15.8258 19.4848 15.2197 17.9583 15.2197 16.1625C15.2197 15.4442 15.3544 14.6136 15.6238 13.6708C15.8931 12.728 16.4319 11.4933 17.24 9.96688L22.6948 0L27.6783 2.76109Z" fill="#845F38"/>
</svg>
