<svg width="24" height="24" viewBox="0 0 24 24" fill="none" xmlns="http://www.w3.org/2000/svg">
<path d="M21.11 21.11L16.4992 16.4992M16.4992 16.4992C17.2879 15.7105 17.9135 14.7742 18.3404 13.7438C18.7672 12.7133 18.9869 11.6088 18.9869 10.4935C18.9869 9.37808 18.7672 8.27362 18.3404 7.24315C17.9135 6.21268 17.2879 5.27637 16.4992 4.48768C15.7105 3.69899 14.7742 3.07336 13.7438 2.64653C12.7133 2.21969 11.6088 2 10.4935 2C9.37808 2 8.27362 2.21969 7.24315 2.64653C6.21268 3.07336 5.27637 3.69899 4.48768 4.48768C2.89484 6.08051 2 8.24085 2 10.4935C2 12.7461 2.89484 14.9064 4.48768 16.4992C6.08051 18.0921 8.24085 18.9869 10.4935 18.9869C12.7461 18.9869 14.9064 18.0921 16.4992 16.4992Z" stroke="white" stroke-width="1.5" stroke-linecap="round" stroke-linejoin="round"/>
</svg>
