<svg width="45" height="47" viewBox="0 0 45 47" fill="none" xmlns="http://www.w3.org/2000/svg">
<rect width="44.5375" height="46.9" rx="22.2687" fill="#0F1831"/>
<rect x="0.330667" y="0.330667" width="43.8762" height="46.2387" rx="21.9381" stroke="white" stroke-opacity="0.28" stroke-width="0.661334"/>
<g clip-path="url(#clip0_11824_26528)">
<path d="M28.0606 17.5843C26.5139 16.0339 24.4541 15.1812 22.2651 15.1812C17.7468 15.1812 14.0701 18.8578 14.0701 23.3761C14.0701 24.8194 14.4467 26.2295 15.1628 27.4735L14 31.7187L18.3448 30.578C19.5408 31.2314 20.8882 31.5747 22.2614 31.5747H22.2651C26.7796 31.5747 30.5375 27.898 30.5375 23.3798C30.5375 21.1908 29.6073 19.1346 28.0606 17.5843ZM22.2651 30.1941C21.0395 30.1941 19.8398 29.8656 18.7951 29.2454L18.5478 29.0978L15.9712 29.7733L16.6578 27.2594L16.4954 27.001C15.8125 25.9158 15.4544 24.6644 15.4544 23.3761C15.4544 19.6219 18.5109 16.5654 22.2688 16.5654C24.0886 16.5654 25.7977 17.2742 27.0823 18.5625C28.367 19.8508 29.1569 21.5599 29.1532 23.3798C29.1532 27.1376 26.0192 30.1941 22.2651 30.1941ZM26.0008 25.0926C25.7977 24.9892 24.79 24.4946 24.6017 24.4281C24.4135 24.358 24.2769 24.3248 24.1403 24.5315C24.0037 24.7382 23.6124 25.1959 23.4906 25.3362C23.3725 25.4728 23.2507 25.4913 23.0476 25.3879C21.8442 24.7862 21.0543 24.3137 20.2606 22.9516C20.0502 22.5898 20.471 22.6156 20.8623 21.8331C20.9288 21.6965 20.8955 21.5784 20.8439 21.475C20.7922 21.3716 20.3824 20.3639 20.2126 19.9541C20.0465 19.5555 19.8767 19.6108 19.7512 19.6035C19.6331 19.5961 19.4965 19.5961 19.3599 19.5961C19.2233 19.5961 19.0019 19.6478 18.8136 19.8508C18.6253 20.0575 18.0975 20.5521 18.0975 21.5599C18.0975 22.5677 18.8321 23.5422 18.9317 23.6788C19.0351 23.8154 20.3751 25.8825 22.4312 26.7722C23.7305 27.3333 24.24 27.3812 24.8896 27.2853C25.2846 27.2262 26.1004 26.7906 26.2702 26.3107C26.44 25.8309 26.44 25.4211 26.3884 25.3362C26.3404 25.2439 26.2038 25.1922 26.0008 25.0926Z" fill="white"/>
</g>
<defs>
<clipPath id="clip0_11824_26528">
<rect width="16.5375" height="18.9" fill="white" transform="translate(14 14)"/>
</clipPath>
</defs>
</svg>
