<svg width="19" height="14" viewBox="0 0 19 14" fill="none" xmlns="http://www.w3.org/2000/svg">
<path d="M18.3776 4.22992C18.2645 3.13837 18.0212 1.93171 17.1258 1.29758C16.4323 0.805827 15.5208 0.78766 14.6698 0.788669C12.871 0.789679 11.0711 0.79169 9.27223 0.7927C7.54201 0.794719 5.81179 0.795734 4.08157 0.797754C3.3588 0.798763 2.65621 0.74221 1.98492 1.05523C1.40852 1.32383 0.957287 1.83478 0.685741 2.40327C0.309212 3.19391 0.230478 4.08957 0.185052 4.96402C0.101267 6.55641 0.110352 8.15284 0.210289 9.74422C0.28398 10.9054 0.470727 12.1888 1.36814 12.929C2.16359 13.5843 3.28611 13.6166 4.31778 13.6177C7.59248 13.6207 10.8682 13.6237 14.1439 13.6257C14.5638 13.6267 15.0019 13.6187 15.4299 13.5722C16.2718 13.4813 17.0744 13.24 17.6154 12.616C18.1615 11.9869 18.3019 11.1114 18.3846 10.2824C18.5865 8.27097 18.5845 6.24035 18.3776 4.22992ZM7.37848 10.027V4.38744L12.2602 7.20669L7.37848 10.027Z" fill="white"/>
</svg>
