<svg width="161" height="40" viewBox="0 0 161 40" fill="none" xmlns="http://www.w3.org/2000/svg">
<g clip-path="url(#clip0_7533_9149)">
<path d="M25.5797 0.378841C25.6426 0.378974 25.7056 0.378899 25.7685 0.378633C25.9382 0.378499 26.1078 0.381248 26.2775 0.384542C26.4552 0.387494 26.6329 0.387757 26.8107 0.388313C27.1468 0.38977 27.4827 0.39362 27.8188 0.398346C28.2016 0.403611 28.5844 0.406185 28.9672 0.408541C29.7541 0.413444 30.541 0.421701 31.3279 0.432189C31.3334 1.15758 31.3375 1.88297 31.3401 2.60838C31.3413 2.94521 31.3429 3.28203 31.3456 3.61886C31.348 3.91248 31.3495 4.20609 31.35 4.49972C31.3503 4.65516 31.351 4.81057 31.3528 4.966C31.3544 5.11242 31.3548 5.2588 31.3545 5.40522C31.3546 5.48434 31.3558 5.56346 31.3571 5.64258C31.3554 5.9063 31.343 6.07471 31.1511 6.26538C31.093 6.30618 31.093 6.30618 31.0146 6.30618C31.0041 6.32899 30.9936 6.35181 30.9828 6.37532C30.9357 6.46391 30.8839 6.53353 30.8188 6.60967C30.7986 6.63369 30.7785 6.65772 30.7576 6.68248C30.7014 6.73694 30.7014 6.73694 30.623 6.73694C30.6101 6.7757 30.5972 6.81447 30.5839 6.85442C30.558 6.85442 30.5322 6.85442 30.5056 6.85442C30.4967 6.87541 30.4878 6.89641 30.4786 6.91805C30.4094 7.04335 30.3279 7.13991 30.2314 7.24601C30.2056 7.24601 30.1797 7.24601 30.1531 7.24601C30.1426 7.26916 30.1321 7.2923 30.1212 7.31614C30.0747 7.40287 30.0262 7.46279 29.9585 7.53375C29.9362 7.55745 29.9138 7.58115 29.8908 7.60557C29.8675 7.62987 29.8442 7.65418 29.8203 7.67922C29.7741 7.72774 29.728 7.77633 29.682 7.825C29.6616 7.84636 29.6411 7.86771 29.6201 7.88972C29.5577 7.95713 29.5577 7.95713 29.4874 8.06837C29.4616 8.06837 29.4357 8.06837 29.4091 8.06837C29.3962 8.10714 29.3832 8.14591 29.3699 8.18585C29.3441 8.18585 29.3182 8.18585 29.2916 8.18585C29.2811 8.20867 29.2706 8.23149 29.2598 8.25499C29.2127 8.34358 29.1609 8.41321 29.0958 8.48934C29.0756 8.51337 29.0554 8.5374 29.0346 8.56215C28.9783 8.61661 28.9783 8.61661 28.9 8.61661C28.8911 8.63761 28.8822 8.65861 28.8731 8.68025C28.8038 8.80554 28.7223 8.9021 28.6259 9.00821C28.6 9.00821 28.5742 9.00821 28.5476 9.00821C28.5379 9.03022 28.5282 9.05223 28.5182 9.07491C28.4609 9.18016 28.3922 9.26134 28.3126 9.35086C28.2851 9.38216 28.2577 9.41346 28.2294 9.4457C28.156 9.51729 28.156 9.51729 28.0776 9.51729C28.0671 9.54011 28.0566 9.56292 28.0458 9.58643C27.9987 9.67502 27.9469 9.74464 27.8818 9.82078C27.8617 9.84481 27.8415 9.86884 27.8207 9.89359C27.7644 9.94805 27.7644 9.94805 27.686 9.94805C27.6772 9.96905 27.6683 9.99005 27.6591 10.0117C27.5717 10.1699 27.4534 10.2982 27.3263 10.4252C27.1863 10.5653 27.0507 10.7092 26.9151 10.8536C26.8886 10.8816 26.8621 10.9097 26.8349 10.9385C26.8095 10.9655 26.7841 10.9925 26.758 11.0204C26.735 11.0447 26.7121 11.0691 26.6884 11.0943C26.6215 11.1671 26.6215 11.1671 26.5504 11.2795C26.5246 11.2795 26.4987 11.2795 26.4721 11.2795C26.4592 11.3183 26.4462 11.357 26.4329 11.397C26.4071 11.397 26.3812 11.397 26.3546 11.397C26.3447 11.4194 26.3347 11.4418 26.3245 11.4649C26.2704 11.5644 26.2085 11.6366 26.1319 11.72C26.1009 11.7539 26.07 11.7877 26.0381 11.8225C25.9505 11.9169 25.8623 12.0108 25.7741 12.1046C25.748 12.1324 25.7218 12.1602 25.6949 12.1888C25.6426 12.2443 25.5903 12.2997 25.5378 12.355C25.5135 12.3808 25.4891 12.4066 25.464 12.4332C25.4423 12.4561 25.4205 12.479 25.3981 12.5027C25.3335 12.5725 25.3335 12.5725 25.2746 12.6587C25.2563 12.6817 25.2379 12.7047 25.219 12.7284C25.1931 12.7284 25.1673 12.7284 25.1406 12.7284C25.1301 12.7512 25.1196 12.774 25.1088 12.7975C25.0617 12.8861 25.0099 12.9558 24.9448 13.0319C24.9247 13.0559 24.9045 13.0799 24.8837 13.1047C24.8274 13.1592 24.8274 13.1592 24.749 13.1592C24.7402 13.1802 24.7313 13.2012 24.7221 13.2228C24.6347 13.381 24.5164 13.5093 24.3893 13.6363C24.2493 13.7764 24.1137 13.9203 23.9781 14.0647C23.9516 14.0928 23.9251 14.1208 23.8979 14.1496C23.8725 14.1766 23.8471 14.2036 23.821 14.2315C23.798 14.2559 23.7751 14.2802 23.7514 14.3054C23.6845 14.3783 23.6845 14.3783 23.6134 14.4906C23.5876 14.4906 23.5617 14.4906 23.5351 14.4906C23.5222 14.5294 23.5092 14.5681 23.4959 14.6081C23.4701 14.6081 23.4442 14.6081 23.4176 14.6081C23.4028 14.6415 23.4028 14.6415 23.3878 14.6757C23.3325 14.7771 23.2682 14.851 23.19 14.936C23.159 14.9699 23.128 15.0038 23.0961 15.0387C23.0153 15.1259 22.9342 15.2128 22.8532 15.2996C22.8303 15.3241 22.8075 15.3486 22.784 15.3739C22.7387 15.4224 22.6933 15.4708 22.6478 15.5191C22.6269 15.5415 22.606 15.5639 22.5844 15.5869C22.5657 15.6068 22.547 15.6266 22.5278 15.6471C22.4694 15.7117 22.4694 15.7117 22.3995 15.822C22.3736 15.822 22.3478 15.822 22.3211 15.822C22.3123 15.843 22.3034 15.864 22.2942 15.8857C22.1928 16.0692 22.0462 16.2306 21.8904 16.3703C21.8645 16.3703 21.8387 16.3703 21.8121 16.3703C21.8032 16.3913 21.7943 16.4123 21.7851 16.4339C21.7159 16.5592 21.6344 16.6558 21.5379 16.7619C21.5121 16.7619 21.4862 16.7619 21.4596 16.7619C21.4496 16.7845 21.4396 16.8071 21.4293 16.8304C21.3763 16.9277 21.3161 16.9955 21.2393 17.0753C21.2117 17.1043 21.184 17.1333 21.1555 17.1632C21.1266 17.1931 21.0978 17.223 21.068 17.2538C21.0108 17.3134 20.9537 17.373 20.8967 17.4326C20.8714 17.4589 20.846 17.4852 20.8199 17.5123C20.7479 17.5882 20.7479 17.5882 20.6764 17.7017C20.6506 17.7017 20.6247 17.7017 20.5981 17.7017C20.5892 17.7227 20.5803 17.7437 20.5712 17.7653C20.4836 17.9239 20.365 18.0525 20.2374 18.1796C20.1023 18.3151 19.9721 18.4549 19.8418 18.595C19.8166 18.6222 19.7913 18.6493 19.7653 18.6773C19.7035 18.7437 19.6417 18.8101 19.5799 18.8765C19.652 19.1039 19.7338 19.3225 19.832 19.5398C19.9097 19.714 19.9859 19.888 20.0548 20.066C20.1046 20.1934 20.1608 20.3141 20.2236 20.4356C20.322 20.6274 20.3977 20.8248 20.4734 21.0265C20.5483 21.2225 20.6354 21.4123 20.7241 21.6024C20.8248 21.8196 20.9135 22.0366 20.99 22.2635C21.032 22.3697 21.0876 22.4598 21.1463 22.5575C21.1757 22.6287 21.2033 22.7006 21.2296 22.7729C21.4003 23.2271 21.594 23.6737 21.7974 24.1141C21.874 24.2803 21.9439 24.4489 22.0127 24.6183C22.1671 24.9979 22.3333 25.3722 22.4992 25.7469C22.6157 26.0103 22.7281 26.275 22.8384 26.541C23.0013 26.934 23.1666 27.3259 23.3344 27.7169C23.3539 27.7622 23.3733 27.8075 23.3934 27.8543C23.4853 28.0683 23.5774 28.2823 23.6697 28.4962C23.7015 28.5699 23.7332 28.6435 23.7649 28.7172C23.8045 28.809 23.8441 28.9008 23.8838 28.9925C23.9934 29.2473 24.0964 29.5035 24.1931 29.7634C24.2588 29.9274 24.3392 30.0825 24.4199 30.2395C24.4852 30.3711 24.5397 30.5048 24.5927 30.6418C24.7083 30.9399 24.8357 31.2327 24.9689 31.5233C25.2724 32.1902 25.2724 32.1902 25.3805 32.4993C25.4271 32.6323 25.4796 32.7559 25.5445 32.8811C25.6422 33.0706 25.7231 33.2654 25.803 33.4628C25.9394 33.7983 26.0833 34.1307 26.2268 34.4632C26.3137 34.6649 26.3997 34.8667 26.4803 35.071C26.5297 35.1957 26.5824 35.3154 26.6459 35.4338C26.7432 35.6238 26.8179 35.8192 26.8927 36.0189C26.9663 36.2087 27.0521 36.3923 27.1378 36.5768C27.2149 36.7502 27.2837 36.9255 27.3507 37.103C27.4157 37.2733 27.4856 37.4356 27.5701 37.5969C27.6132 37.6843 27.6484 37.7733 27.6836 37.8642C27.7358 37.9982 27.7936 38.1256 27.8598 38.2533C28.0014 38.5298 28.1197 38.8207 28.1951 39.1222C24.9774 39.1222 21.7596 39.1222 18.4443 39.1222C17.8172 37.675 17.8172 37.675 17.7272 37.431C17.6466 37.2192 17.5516 37.0204 17.4477 36.8193C17.39 36.7005 17.3423 36.5822 17.2966 36.4584C17.1753 36.1383 17.034 35.8283 16.8925 35.5167C16.7851 35.278 16.6856 35.0403 16.6022 34.7921C16.5665 34.6943 16.5665 34.6943 16.5069 34.6011C16.4434 34.4951 16.4024 34.3922 16.3603 34.2761C16.283 34.0708 16.1997 33.8696 16.1106 33.6692C16.0982 33.6413 16.0858 33.6133 16.073 33.5846C16.0347 33.4985 15.9962 33.4125 15.9576 33.3265C15.7994 32.9732 15.644 32.6211 15.5097 32.2578C15.4702 32.1568 15.4253 32.0619 15.3751 31.9657C15.242 31.7091 15.1383 31.44 15.0301 31.1722C14.9999 31.0985 14.9684 31.0253 14.9369 30.9521C14.8842 30.8285 14.8367 30.7041 14.7902 30.578C14.7244 30.4052 14.6521 30.2406 14.5675 30.0762C14.4881 29.922 14.4198 29.7689 14.3594 29.6063C14.2619 29.3439 14.1477 29.0904 14.0309 28.8361C13.9414 28.6405 13.8584 28.4434 13.7795 28.2433C13.741 28.147 13.6988 28.053 13.6546 27.9592C13.5305 27.6896 13.4196 27.4147 13.3075 27.14C13.1931 26.8601 13.0773 26.5812 12.9501 26.3068C12.9228 26.2386 12.9228 26.2386 12.9228 26.1603C12.8969 26.1603 12.8711 26.1603 12.8444 26.1603C12.8362 26.181 12.828 26.2016 12.8195 26.223C12.7442 26.3554 12.6431 26.4567 12.5385 26.5665C12.4974 26.61 12.4563 26.6536 12.4154 26.6972C12.3954 26.7184 12.3754 26.7396 12.3548 26.7614C12.2965 26.8256 12.2422 26.8919 12.188 26.9597C12.1591 26.9931 12.1302 27.0265 12.1004 27.0609C12.0746 27.0609 12.0487 27.0609 12.0221 27.0609C12.0051 27.0961 12.0051 27.0961 11.9878 27.1319C11.9438 27.2176 11.9438 27.2176 11.8654 27.3351C11.8396 27.3351 11.8137 27.3351 11.7871 27.3351C11.7738 27.3666 11.7738 27.3666 11.7602 27.3987C11.6728 27.5569 11.5545 27.6852 11.4273 27.8122C11.2874 27.9523 11.1517 28.0962 11.0162 28.2406C10.9897 28.2686 10.9632 28.2967 10.9359 28.3255C10.9106 28.3525 10.8852 28.3795 10.8591 28.4074C10.8246 28.4439 10.8246 28.4439 10.7895 28.4813C10.7226 28.5541 10.7226 28.5541 10.6515 28.6665C10.6256 28.6665 10.5998 28.6665 10.5732 28.6665C10.5627 28.6893 10.5522 28.7121 10.5413 28.7356C10.4943 28.8242 10.4424 28.8938 10.3774 28.97C10.3572 28.994 10.337 29.018 10.3162 29.0428C10.2599 29.0972 10.2599 29.0972 10.1816 29.0972C10.1712 29.1202 10.1608 29.1432 10.1501 29.1669C10.1018 29.2566 10.0501 29.3187 9.9798 29.3922C9.95584 29.4175 9.93189 29.4428 9.90721 29.4688C9.88225 29.4948 9.85729 29.5208 9.83157 29.5476C9.78219 29.5993 9.73288 29.6511 9.68365 29.703C9.66179 29.7258 9.63994 29.7486 9.61742 29.7721C9.5521 29.8418 9.5521 29.8418 9.49312 29.9282C9.47477 29.9512 9.45642 29.9742 9.43752 29.9979C9.41168 29.9979 9.38583 29.9979 9.3592 29.9979C9.3487 30.0207 9.3382 30.0436 9.32738 30.0671C9.2803 30.1557 9.22848 30.2253 9.1634 30.3014C9.14321 30.3254 9.12302 30.3495 9.10222 30.3742C9.04592 30.4287 9.04592 30.4287 8.9676 30.4287C8.95428 30.4602 8.95428 30.4602 8.94068 30.4923C8.85327 30.6505 8.73497 30.7789 8.60782 30.9058C8.46786 31.0459 8.33222 31.1899 8.19664 31.3343C8.15693 31.3763 8.15693 31.3763 8.11641 31.4192C8.09104 31.4462 8.06568 31.4732 8.03954 31.501C8.00512 31.5376 8.00512 31.5376 7.96999 31.5749C7.90307 31.6478 7.90307 31.6478 7.83197 31.7601C7.80612 31.7601 7.78027 31.7601 7.75365 31.7601C7.74072 31.7989 7.7278 31.8377 7.71449 31.8776C7.68864 31.8776 7.6628 31.8776 7.63617 31.8776C7.62632 31.8999 7.61648 31.9222 7.60634 31.9452C7.55109 32.0466 7.48677 32.1205 7.40855 32.2056C7.37755 32.2394 7.34656 32.2733 7.31463 32.3082C7.23387 32.3954 7.15279 32.4823 7.07171 32.5692C7.04889 32.5937 7.02606 32.6181 7.00254 32.6434C6.95725 32.6919 6.91187 32.7403 6.86638 32.7887C6.84545 32.811 6.82451 32.8334 6.80295 32.8564C6.78427 32.8763 6.7656 32.8962 6.74636 32.9166C6.68792 32.9813 6.68792 32.9813 6.61801 33.0916C6.59216 33.0916 6.56632 33.0916 6.53969 33.0916C6.52636 33.1231 6.52636 33.1231 6.51277 33.1552C6.41136 33.3387 6.26475 33.5001 6.10893 33.6398C6.08308 33.6398 6.05724 33.6398 6.03061 33.6398C6.01728 33.6713 6.01728 33.6713 6.00369 33.7034C5.91627 33.8616 5.79798 33.99 5.67083 34.1169C5.53087 34.2571 5.39522 34.401 5.25965 34.5454C5.21993 34.5874 5.21993 34.5874 5.17942 34.6303C5.15405 34.6573 5.12868 34.6843 5.10255 34.7121C5.06812 34.7487 5.06812 34.7487 5.033 34.786C4.96608 34.8589 4.96608 34.8589 4.89497 34.9712C4.86913 34.9712 4.84328 34.9712 4.81665 34.9712C4.80373 35.01 4.79081 35.0488 4.77749 35.0887C4.75165 35.0887 4.7258 35.0887 4.69917 35.0887C4.68928 35.1111 4.67938 35.1334 4.66919 35.1565C4.61454 35.257 4.55143 35.33 4.474 35.4142C4.44311 35.448 4.41222 35.4818 4.38039 35.5166C4.29547 35.6082 4.21007 35.6993 4.12462 35.7904C4.09987 35.8168 4.07513 35.8432 4.04963 35.8704C4.0001 35.9232 3.95046 35.9759 3.90072 36.0284C3.87789 36.0527 3.85506 36.077 3.83154 36.102C3.80076 36.1345 3.80076 36.1345 3.76935 36.1678C3.71619 36.2242 3.71619 36.2242 3.68101 36.3027C3.65517 36.3027 3.62932 36.3027 3.60269 36.3027C3.59381 36.3237 3.58493 36.3447 3.57577 36.3663C3.47437 36.5498 3.32776 36.7112 3.17194 36.8509C3.14609 36.8509 3.12024 36.8509 3.09362 36.8509C3.08473 36.8719 3.07585 36.8929 3.06669 36.9145C2.99745 37.0398 2.91596 37.1364 2.8195 37.2425C2.79365 37.2425 2.76781 37.2425 2.74118 37.2425C2.73057 37.2657 2.71996 37.289 2.70902 37.3129C2.66351 37.3979 2.61697 37.4566 2.55073 37.5261C2.5289 37.5493 2.50707 37.5725 2.48457 37.5963C2.46183 37.6201 2.43909 37.6439 2.41566 37.6684C2.37088 37.7155 2.32616 37.7627 2.28151 37.81C2.25992 37.8328 2.23833 37.8556 2.21609 37.8791C2.15602 37.9449 2.10006 38.0127 2.04441 38.0823C2.00162 38.1318 2.00162 38.1318 1.95798 38.1824C1.93213 38.1824 1.90629 38.1824 1.87966 38.1824C1.86674 38.2211 1.85381 38.2599 1.8405 38.2998C1.81465 38.2998 1.78881 38.2998 1.76218 38.2998C1.74522 38.335 1.74522 38.335 1.72791 38.3708C1.68386 38.4565 1.68386 38.4565 1.60554 38.5739C1.57969 38.5739 1.55385 38.5739 1.52722 38.5739C1.51185 38.6084 1.51185 38.6084 1.49617 38.6435C1.44633 38.7353 1.39317 38.7968 1.31918 38.8701C1.29672 38.8928 1.27426 38.9154 1.25111 38.9388C1.02811 39.1314 0.852772 39.1451 0.563518 39.1384C0.383124 39.1164 0.273988 39.0643 0.156622 38.9264C0.130019 38.8974 0.103416 38.8684 0.0760075 38.8386C-0.056319 38.6358 -0.0211966 38.3841 -0.0192918 38.1512C-0.0194077 38.0951 -0.019592 38.039 -0.0198391 37.9829C-0.0203203 37.8282 -0.019823 37.6736 -0.0191699 37.5189C-0.0186324 37.3508 -0.0190036 37.1827 -0.0192607 37.0146C-0.0195858 36.7198 -0.0193263 36.4251 -0.0186895 36.1303C-0.0177452 35.692 -0.0176986 35.2537 -0.0178362 34.8154C-0.0180421 34.0782 -0.0175167 33.3409 -0.016579 32.6037C-0.0156527 31.8736 -0.0150499 31.1434 -0.0148796 30.4133C-0.0148688 30.3679 -0.0148572 30.3225 -0.0148461 30.2758C-0.0147931 30.0454 -0.0147453 29.815 -0.0147003 29.5846C-0.0143712 27.9519 -0.0133166 26.3193 -0.0118346 24.6867C-0.0103963 23.1004 -0.00928655 21.5141 -0.00862223 19.9279C-0.00860163 19.879 -0.00858131 19.8301 -0.00856009 19.7798C-0.00835356 19.2889 -0.00815272 18.798 -0.00795777 18.3071C-0.00756048 17.3071 -0.00711927 16.3071 -0.00665037 15.3071C-0.00662887 15.2611 -0.00660799 15.2152 -0.00658584 15.1678C-0.00592423 13.7582 -0.0050728 12.3487 -0.00403557 10.9391C-0.00400619 10.8991 -0.0039774 10.859 -0.00394713 10.8178C-0.00275417 9.19645 -0.00136051 7.57509 -1.77566e-05 5.95374C2.46823 5.95374 4.93648 5.95374 7.47953 5.95374C7.49245 10.3346 7.50537 14.7154 7.51869 19.2289C7.57038 19.1643 7.62207 19.0997 7.67533 19.0331C7.70117 19.0331 7.72702 19.0331 7.75365 19.0331C7.76657 18.9944 7.77949 18.9556 7.79281 18.9157C7.85618 18.8486 7.92191 18.7837 7.98861 18.7199C8.03772 18.6719 8.08666 18.6238 8.13546 18.5755C8.15868 18.5527 8.1819 18.5299 8.20582 18.5065C8.2665 18.4475 8.2665 18.4475 8.30188 18.3674C8.32773 18.3674 8.35358 18.3674 8.3802 18.3674C8.39025 18.3445 8.4003 18.3216 8.41065 18.298C8.46266 18.2033 8.51982 18.143 8.59803 18.0688C8.69897 17.9741 8.69897 17.9741 8.7718 17.8584C8.79765 17.8584 8.82349 17.8584 8.85012 17.8584C8.86022 17.8354 8.87032 17.8124 8.88072 17.7888C8.93217 17.6949 8.98804 17.6356 9.0655 17.5622C9.15248 17.4795 9.21343 17.4113 9.28088 17.3101C9.30673 17.3101 9.33257 17.3101 9.3592 17.3101C9.38505 17.2584 9.41089 17.2067 9.43752 17.1535C9.46337 17.1535 9.48921 17.1535 9.51584 17.1535C9.52917 17.122 9.52917 17.122 9.54276 17.0898C9.6342 16.9244 9.76348 16.7678 9.90744 16.6444C9.93329 16.6444 9.95913 16.6444 9.98576 16.6444C10.0013 16.6096 10.0013 16.6096 10.0171 16.574C10.0658 16.4846 10.1151 16.43 10.1889 16.3605C10.2856 16.2666 10.3774 16.1713 10.4655 16.0692C10.5888 15.9268 10.7137 15.7857 10.8399 15.6458C10.8588 15.6246 10.8776 15.6034 10.897 15.5816C10.944 15.5297 10.9934 15.4799 11.0431 15.4304C11.0689 15.4304 11.0948 15.4304 11.1214 15.4304C11.1327 15.407 11.144 15.3836 11.1557 15.3595C11.1997 15.2738 11.1997 15.2738 11.278 15.1563C11.3039 15.1563 11.3297 15.1563 11.3564 15.1563C11.3693 15.1175 11.3822 15.0788 11.3955 15.0388C11.4589 14.9717 11.5246 14.9068 11.5913 14.843C11.6404 14.7951 11.6894 14.7469 11.7382 14.6986C11.773 14.6645 11.773 14.6645 11.8085 14.6296C11.8692 14.5707 11.8692 14.5707 11.9046 14.4906C11.9304 14.4906 11.9563 14.4906 11.9829 14.4906C11.9933 14.4674 12.0036 14.4442 12.0143 14.4202C12.0629 14.3308 12.1123 14.2762 12.1861 14.2067C12.3643 14.0336 12.5249 13.847 12.6849 13.6571C12.7093 13.6285 12.7337 13.5998 12.7588 13.5703C12.7808 13.5441 12.8029 13.5178 12.8256 13.4908C12.8836 13.4333 12.8836 13.4333 12.9619 13.4333C12.9878 13.3816 13.0136 13.3299 13.0402 13.2766C13.0661 13.2766 13.0919 13.2766 13.1186 13.2766C13.1319 13.2451 13.1319 13.2451 13.1455 13.213C13.2716 12.9847 13.4672 12.8076 13.6521 12.6271C13.8473 12.4346 14.0288 12.2325 14.2034 12.0211C14.2242 11.996 14.245 11.971 14.2664 11.9452C14.2849 11.9226 14.3033 11.9 14.3223 11.8767C14.3717 11.8277 14.3717 11.8277 14.45 11.8277C14.4633 11.7962 14.4633 11.7962 14.4769 11.7641C14.5732 11.5898 14.6982 11.4533 14.8514 11.3284C14.96 11.2518 14.96 11.2518 14.9982 11.162C15.0241 11.162 15.0499 11.162 15.0766 11.162C15.0868 11.1392 15.097 11.1164 15.1075 11.0929C15.158 10.9996 15.2136 10.9349 15.2869 10.8585C15.3126 10.8315 15.3383 10.8044 15.3648 10.7765C15.3916 10.7487 15.4185 10.7208 15.4461 10.6921C15.4992 10.6367 15.5522 10.5812 15.6051 10.5257C15.6286 10.5012 15.652 10.4768 15.6763 10.4516C15.7448 10.3789 15.7448 10.3789 15.8047 10.2913C15.8229 10.2685 15.841 10.2457 15.8597 10.2222C15.8856 10.2222 15.9114 10.2222 15.9381 10.2222C15.9482 10.1992 15.9583 10.1762 15.9687 10.1526C16.0201 10.0587 16.076 9.99938 16.1534 9.92602C16.2404 9.84329 16.3014 9.77511 16.3688 9.67393C16.3947 9.67393 16.4205 9.67393 16.4471 9.67393C16.4601 9.63516 16.473 9.59639 16.4863 9.55645C16.5507 9.4903 16.6161 9.42516 16.6821 9.36065C16.7144 9.32188 16.7467 9.28311 16.78 9.24317C16.8916 9.10927 17.0127 8.98942 17.1373 8.86779C17.3325 8.67524 17.5141 8.47312 17.6886 8.26172C17.7094 8.23669 17.7302 8.21165 17.7517 8.18585C17.7793 8.15193 17.7793 8.15193 17.8075 8.11732C17.8569 8.06837 17.8569 8.06837 17.9352 8.06837C17.9486 8.03687 17.9486 8.03687 17.9621 8.00474C18.0636 7.82125 18.2102 7.65984 18.366 7.52013C18.3918 7.52013 18.4177 7.52013 18.4443 7.52013C18.4576 7.48864 18.4576 7.48864 18.4712 7.4565C18.5833 7.25378 18.7498 7.09336 18.9142 6.93274C19.1595 6.69266 19.3886 6.44374 19.6069 6.17891C19.6857 6.08516 19.7629 5.99634 19.8541 5.91458C19.8799 5.91458 19.9058 5.91458 19.9324 5.91458C19.9457 5.88308 19.9457 5.88308 19.9593 5.85094C20.0507 5.6855 20.18 5.52889 20.324 5.4055C20.3498 5.4055 20.3757 5.4055 20.4023 5.4055C20.4126 5.38228 20.423 5.35906 20.4337 5.33513C20.4823 5.24571 20.5317 5.19113 20.6054 5.12159C20.7913 4.94116 20.9613 4.74913 21.1194 4.54398C21.1412 4.51813 21.163 4.49229 21.1855 4.46566C21.2113 4.46566 21.2372 4.46566 21.2638 4.46566C21.2897 4.41397 21.3155 4.36228 21.3421 4.30902C21.368 4.30902 21.3938 4.30902 21.4205 4.30902C21.4334 4.27025 21.4463 4.23148 21.4596 4.19154C21.4855 4.19154 21.5113 4.19154 21.5379 4.19154C21.5468 4.17054 21.5557 4.14954 21.5649 4.12791C21.6775 3.92404 21.8446 3.76742 22.0079 3.60414C22.0402 3.56537 22.0725 3.52661 22.1058 3.48666C22.1988 3.37501 22.2955 3.27489 22.3995 3.17338C22.5545 3.02159 22.7064 2.8707 22.8449 2.70346C22.8788 2.6647 22.9127 2.62593 22.9477 2.58598C22.9735 2.58598 22.9994 2.58598 23.026 2.58598C23.0373 2.56256 23.0486 2.53914 23.0603 2.51501C23.1043 2.42934 23.1043 2.42934 23.1827 2.31187C23.2085 2.31187 23.2343 2.31187 23.261 2.31187C23.2739 2.2731 23.2868 2.23433 23.3001 2.19439C23.3645 2.12823 23.4299 2.0631 23.4959 1.99859C23.5307 1.95822 23.565 1.91743 23.5987 1.87621C23.7392 1.70614 23.7392 1.70614 23.8092 1.64615C23.8351 1.64615 23.8609 1.64615 23.8875 1.64615C23.8979 1.62293 23.9082 1.59971 23.9189 1.57578C23.9676 1.48636 24.0169 1.43177 24.0907 1.36224C24.1874 1.26832 24.2792 1.17305 24.3672 1.07099C24.389 1.0466 24.4107 1.02221 24.4331 0.997084C24.5175 0.900402 24.5175 0.900402 24.6003 0.784697C24.879 0.421339 25.1303 0.365454 25.5797 0.378841Z" fill="#00BBB3"/>
<path d="M43.0368 13.2374C43.0873 13.2556 43.1379 13.2735 43.1886 13.2913C43.8157 13.5273 44.54 13.8499 45.0731 14.2556C45.0731 14.2814 45.0731 14.3073 45.0731 14.3339C45.1023 14.3449 45.1315 14.3559 45.1616 14.3673C45.5532 14.5313 45.8825 14.8515 46.2088 15.1171C46.2528 15.0291 46.2579 14.9681 46.2661 14.8702C46.2691 14.8356 46.2722 14.8009 46.2753 14.7653C46.2784 14.7279 46.2815 14.6906 46.2847 14.6521C46.2915 14.574 46.2983 14.496 46.3051 14.4179C46.3086 14.378 46.3121 14.3382 46.3157 14.2971C46.3321 14.1111 46.3497 13.9251 46.3679 13.7392C46.371 13.7062 46.3741 13.6732 46.3773 13.6392C46.3897 13.5123 46.4033 13.398 46.4437 13.2766C48.8861 13.2766 51.3285 13.2766 53.845 13.2766C53.8458 16.1236 53.8457 16.1236 53.846 17.005C53.846 17.0364 53.846 17.0678 53.846 17.1002C53.8462 18.159 53.8465 19.2179 53.8466 20.2767C53.8466 20.3113 53.8466 20.3459 53.8466 20.3815C53.8468 21.1331 53.8469 21.8847 53.847 22.6364C53.847 23.005 53.8471 23.3736 53.8471 23.7423C53.8471 23.7973 53.8471 23.7973 53.8471 23.8534C53.8473 25.0407 53.8476 26.228 53.8479 27.4153C53.8483 28.6362 53.8486 29.8571 53.8486 31.078C53.8487 31.2507 53.8487 31.4235 53.8487 31.5962C53.8487 31.6302 53.8487 31.6642 53.8487 31.6992C53.8487 32.2448 53.8489 32.7903 53.8491 33.3359C53.8494 33.8854 53.8495 34.4349 53.8494 34.9844C53.8494 35.3101 53.8495 35.6359 53.8497 35.9617C53.8499 36.2061 53.8498 36.4505 53.8497 36.6949C53.8497 36.7929 53.8497 36.891 53.8499 36.989C53.8506 37.6487 53.8347 38.3065 53.8058 38.9655C52.8568 38.9664 51.9078 38.9671 50.9588 38.9675C50.5182 38.9677 50.0776 38.968 49.637 38.9685C49.2531 38.9688 48.8692 38.9691 48.4853 38.9692C48.2819 38.9692 48.0785 38.9694 47.8751 38.9696C47.6839 38.9699 47.4927 38.97 47.3015 38.9699C47.2311 38.9699 47.1607 38.97 47.0903 38.9702C46.9946 38.9704 46.899 38.9703 46.8033 38.9702C46.7751 38.9703 46.7468 38.9704 46.7178 38.9706C46.5265 38.97 46.5265 38.97 46.4829 38.9263C46.4013 38.4414 46.3749 37.9478 46.3409 37.4578C46.3357 37.3833 46.3304 37.3089 46.325 37.2344C46.3122 37.0543 46.2996 36.8743 46.2871 36.6942C46.2658 36.705 46.2444 36.7158 46.2224 36.7269C46.1944 36.7411 46.1663 36.7552 46.1374 36.7698C46.1096 36.7838 46.0818 36.7978 46.0531 36.8123C45.9561 36.8595 45.8575 36.8974 45.756 36.9341C45.5037 37.0291 45.2566 37.1347 45.0095 37.2425C44.9722 37.2587 44.9348 37.275 44.8964 37.2917C44.4338 37.4912 44.4338 37.4912 43.9816 37.7124C43.8132 37.7976 43.6384 37.8625 43.4619 37.9287C43.3519 37.9703 43.243 38.0141 43.1343 38.059C41.7822 38.6162 40.4786 38.8728 39.0156 38.8652C38.9432 38.865 38.9432 38.865 38.8694 38.8648C38.1692 38.8622 37.4967 38.8395 36.8104 38.6914C36.7685 38.683 36.7265 38.6746 36.6833 38.666C35.4037 38.409 34.0388 37.9705 32.9623 37.2105C32.8658 37.1447 32.7654 37.0956 32.6594 37.0467C32.6594 37.0208 32.6594 36.995 32.6594 36.9683C32.6388 36.9655 32.6182 36.9626 32.5969 36.9596C32.4642 36.9167 32.3618 36.8372 32.2507 36.7554C32.227 36.7381 32.2033 36.7209 32.1788 36.7031C32.1038 36.6483 32.0291 36.593 31.9546 36.5376C31.9297 36.5193 31.9049 36.5009 31.8793 36.482C31.8079 36.4291 31.7368 36.3758 31.6658 36.3222C31.6436 36.3057 31.6215 36.2892 31.5987 36.2723C31.5461 36.2321 31.4956 36.1892 31.4455 36.146C31.4455 36.1201 31.4455 36.0943 31.4455 36.0677C31.4232 36.0578 31.401 36.048 31.378 36.0378C30.9034 35.7798 30.4561 35.2274 30.1141 34.8146C30.0873 34.7826 30.0606 34.7506 30.0331 34.7177C29.6865 34.2988 29.3366 33.8717 29.0567 33.4048C28.992 33.3041 28.9268 33.2037 28.8614 33.1034C27.9825 31.6596 27.4106 30.0038 27.1541 28.3369C27.1394 28.245 27.1228 28.1538 27.1052 28.0624C27.0273 27.6455 26.9983 27.2267 26.9739 26.8039C26.9714 26.7611 26.9714 26.7611 26.9688 26.7174C26.9309 26.057 26.9336 25.3987 26.969 24.7382C26.9706 24.7081 26.9722 24.678 26.9739 24.647C27.0075 24.0448 27.0958 23.4621 27.2162 22.8708C27.2313 22.7926 27.2464 22.7143 27.2615 22.6361C27.4108 21.8868 27.632 21.1502 27.9211 20.4429C27.9522 20.3605 27.9832 20.2781 28.0141 20.1957C28.235 19.6267 28.4962 19.1067 28.8055 18.5804C28.8765 18.4581 28.9445 18.3343 29.012 18.21C29.0698 18.1098 29.1356 18.0173 29.2051 17.925C29.2652 17.8404 29.3167 17.7515 29.37 17.6625C29.5223 17.433 29.6861 17.2116 29.8522 16.9919C29.8691 16.9692 29.886 16.9464 29.9035 16.923C29.9457 16.8678 29.9905 16.8146 30.0357 16.7618C30.0616 16.7618 30.0874 16.7618 30.1141 16.7618C30.1141 16.7231 30.1141 16.6843 30.1141 16.6444C30.1774 16.5752 30.2413 16.5123 30.3099 16.4486C30.4509 16.3115 30.5867 16.173 30.7137 16.0227C30.8477 15.8674 30.9951 15.7325 31.1492 15.5973C31.2118 15.5421 31.2737 15.4861 31.3343 15.4287C32.3859 14.4401 33.7032 13.703 35.0482 13.1983C35.1114 13.1738 35.1114 13.1738 35.1758 13.1489C37.6633 12.2168 40.5754 12.2317 43.0368 13.2374ZM38.6509 19.8946C38.5996 19.9092 38.5996 19.9092 38.5473 19.9241C38.3745 19.9743 38.2092 20.0275 38.0464 20.1051C37.9036 20.1725 37.7603 20.2377 37.6156 20.3009C37.3782 20.409 37.1426 20.529 36.9279 20.6778C36.9279 20.7037 36.9279 20.7295 36.9279 20.7561C36.8995 20.7662 36.871 20.7763 36.8418 20.7867C36.7274 20.8365 36.6417 20.8948 36.5436 20.9715C36.5127 20.9953 36.4817 21.0192 36.4499 21.0437C36.4267 21.0651 36.4035 21.0865 36.3796 21.1086C36.3796 21.1344 36.3796 21.1603 36.3796 21.1869C36.3409 21.1998 36.3021 21.2127 36.2622 21.2261C36.2622 21.2519 36.2622 21.2778 36.2622 21.3044C36.2105 21.3302 36.1588 21.3561 36.1055 21.3827C36.1055 21.4085 36.1055 21.4344 36.1055 21.461C36.0667 21.4739 36.028 21.4869 35.988 21.5002C35.9256 21.5666 35.9256 21.5666 35.8663 21.6502C35.8433 21.6813 35.8203 21.7123 35.7967 21.7443C35.7726 21.7776 35.7485 21.8109 35.7237 21.8453C35.699 21.8792 35.6743 21.9131 35.6489 21.9481C35.4707 22.1956 35.3061 22.4429 35.1657 22.7141C35.1366 22.7686 35.1366 22.7686 35.1069 22.8241C34.3893 24.2613 34.276 26.0934 34.7447 27.6214C34.7794 27.7224 34.815 27.8224 34.8524 27.9224C34.8635 27.953 34.8746 27.9836 34.8861 28.0152C35.2171 28.9206 35.7739 29.8925 36.5754 30.4678C36.6013 30.4678 36.6271 30.4678 36.6538 30.4678C36.6538 30.4936 36.6538 30.5195 36.6538 30.5461C36.7431 30.6126 36.8321 30.6742 36.9254 30.7346C36.9525 30.7523 36.9795 30.77 37.0073 30.7882C37.1983 30.9124 37.391 31.029 37.5936 31.1335C37.6278 31.1523 37.662 31.1711 37.6973 31.1904C39.0574 31.9124 40.8067 31.9773 42.2672 31.5666C42.3816 31.5298 42.4937 31.4893 42.6061 31.4468C42.6732 31.4229 42.6732 31.4229 42.7417 31.3985C43.2889 31.1941 43.8495 30.8951 44.2899 30.507C44.2899 30.4811 44.2899 30.4553 44.2899 30.4286C44.3109 30.4198 44.3319 30.4109 44.3536 30.4017C44.5522 30.2919 44.7081 30.1438 44.8382 29.9587C44.8382 29.9329 44.8382 29.907 44.8382 29.8804C44.8769 29.8675 44.9157 29.8546 44.9557 29.8412C45.1296 29.6566 45.2617 29.4443 45.3797 29.221C45.4224 29.1422 45.469 29.0689 45.5186 28.9944C46.0908 28.0771 46.2978 26.9906 46.3263 25.9253C46.3274 25.8868 46.3286 25.8483 46.3298 25.8087C46.3312 25.7037 46.3293 25.5994 46.3263 25.4945C46.3255 25.4564 46.3255 25.4564 46.3248 25.4176C46.2917 23.9079 45.7576 22.3887 44.6815 21.3044C44.6053 21.2357 44.527 21.1725 44.4466 21.1086C44.4167 21.0779 44.3868 21.0472 44.356 21.0156C44.09 20.7557 43.7976 20.5719 43.4676 20.4037C43.4233 20.3806 43.379 20.3575 43.3334 20.3336C41.9353 19.6109 40.1633 19.4448 38.6509 19.8946Z" fill="#00BCB4"/>
<path d="M87.0524 5.75784C87.0879 5.86406 87.0966 5.92563 87.097 6.03472C87.0973 6.06729 87.0975 6.09985 87.0977 6.1334C87.0977 6.16917 87.0978 6.20494 87.0978 6.24179C87.098 6.27979 87.0982 6.31779 87.0984 6.35694C87.099 6.48483 87.0993 6.61272 87.0996 6.74062C87.1 6.83207 87.1004 6.92353 87.1008 7.01498C87.1019 7.26376 87.1027 7.51254 87.1035 7.76132C87.1043 7.99482 87.1052 8.22832 87.1061 8.46182C87.108 8.92435 87.1097 9.38688 87.1113 9.84941C87.1128 10.2988 87.1145 10.7481 87.1162 11.1974C87.1163 11.2251 87.1164 11.2528 87.1165 11.2814C87.117 11.4203 87.1176 11.5592 87.1181 11.6981C87.1226 12.8508 87.1268 14.0035 87.1308 15.1562C87.155 15.1368 87.1792 15.1175 87.2042 15.0975C87.2874 15.0387 87.2874 15.0387 87.3657 15.0387C87.3787 15 87.3916 14.9612 87.4049 14.9213C87.4624 14.8668 87.4624 14.8668 87.5364 14.8108C87.5637 14.79 87.5911 14.7692 87.6192 14.7478C87.6486 14.7259 87.6781 14.704 87.7084 14.6814C87.7384 14.6588 87.7685 14.6361 87.7995 14.6128C88.1774 14.3298 88.5616 14.0601 88.9713 13.8248C89.0129 13.8008 89.0545 13.7767 89.0973 13.752C89.5076 13.5181 89.923 13.2841 90.3693 13.1265C90.4537 13.0966 90.5379 13.066 90.6217 13.0345C92.5338 12.3249 94.7647 12.2841 96.7249 12.8066C96.7894 12.8231 96.7894 12.8231 96.8551 12.8398C97.732 13.0687 98.6844 13.4356 99.4221 13.9716C99.5374 14.0639 99.5374 14.0639 99.6619 14.0989C99.6619 14.1248 99.6619 14.1506 99.6619 14.1772C99.7028 14.1912 99.7028 14.1912 99.7444 14.2054C99.8782 14.2646 99.9892 14.3437 100.105 14.4318C100.137 14.4555 100.137 14.4555 100.17 14.4796C100.224 14.5204 100.276 14.564 100.328 14.608C100.328 14.6338 100.328 14.6597 100.328 14.6863C100.351 14.6966 100.374 14.7068 100.398 14.7174C100.489 14.7671 100.547 14.8195 100.619 14.8943C100.643 14.9189 100.667 14.9434 100.691 14.9687C100.713 14.9918 100.736 15.0149 100.758 15.0387C100.79 15.0702 100.821 15.1017 100.854 15.1342C100.887 15.1673 100.92 15.2004 100.954 15.2345C100.976 15.2542 100.997 15.2739 101.019 15.2942C101.279 15.5389 101.482 15.8251 101.69 16.1129C101.74 16.1799 101.74 16.1799 101.816 16.2527C101.816 16.2915 101.816 16.3302 101.816 16.3702C101.842 16.3702 101.867 16.3702 101.894 16.3702C102.009 16.533 102.107 16.7073 102.207 16.8793C102.227 16.9125 102.247 16.9458 102.268 16.9801C102.878 18.0416 103.211 19.248 103.345 20.4575C103.35 20.5011 103.35 20.5011 103.355 20.5457C103.422 21.1382 103.461 21.731 103.491 22.3264C103.499 22.4635 103.509 22.6001 103.519 22.737C103.545 23.1351 103.552 23.5333 103.559 23.9322C103.56 23.9748 103.561 24.0173 103.562 24.0612C103.584 25.2366 103.592 26.4121 103.599 27.5876C103.6 27.7478 103.601 27.9079 103.602 28.0681C103.613 29.8249 103.619 31.5818 103.62 33.3387C103.62 33.4003 103.62 33.4003 103.62 33.4632C103.621 35.2973 103.618 37.1314 103.617 38.9655C101.123 38.9655 98.6289 38.9655 96.0592 38.9655C96.0573 37.9032 96.0554 36.8409 96.0534 35.7464C96.052 35.0736 96.0506 34.4008 96.0491 33.728C96.0484 33.3745 96.0476 33.021 96.0468 32.6675C96.0467 32.6232 96.0466 32.5789 96.0465 32.5332C96.045 31.8191 96.0437 31.105 96.0425 30.391C96.0413 29.6574 96.0398 28.9239 96.038 28.1904C96.0369 27.7383 96.036 27.2861 96.0354 26.8339C96.035 26.5233 96.0343 26.2127 96.0334 25.9022C96.0329 25.7233 96.0325 25.5444 96.0324 25.3656C96.0337 24.3506 96.0337 24.3506 95.9418 23.3406C95.9376 23.3103 95.9335 23.2799 95.9293 23.2486C95.8158 22.4138 95.5853 21.629 95.0608 20.9562C95.0019 20.8736 95.0019 20.8736 95.0019 20.7953C94.9692 20.7819 94.9692 20.7819 94.9358 20.7683C94.7937 20.6876 94.6798 20.5835 94.6079 20.4355C94.5594 20.3418 94.5091 20.3305 94.4145 20.2862C94.3624 20.2572 94.3105 20.228 94.2588 20.1984C92.9494 19.4552 91.5645 19.3557 90.1074 19.6939C89.3216 19.9131 88.4759 20.4163 88.0314 21.1085C88.0185 21.1344 88.0056 21.1602 87.9923 21.1869C87.9664 21.1869 87.9406 21.1869 87.914 21.1869C87.8991 21.2372 87.8991 21.2372 87.884 21.2886C87.8328 21.4297 87.7656 21.5451 87.6888 21.6739C87.4719 22.0571 87.3814 22.4831 87.2874 22.9099C87.2807 22.9399 87.2741 22.97 87.2672 23.0009C87.2483 23.1057 87.2408 23.2045 87.2372 23.3108C87.2351 23.3713 87.2351 23.3713 87.2329 23.4329C87.2315 23.4767 87.2301 23.5204 87.2287 23.5655C87.2271 23.6122 87.2255 23.6588 87.2238 23.7068C87.2205 23.8067 87.2172 23.9066 87.214 24.0065C87.2093 24.1519 87.2043 24.2973 87.1993 24.4426C87.1884 24.7671 87.179 25.0916 87.1699 25.4161C87.1691 25.4464 87.1682 25.4766 87.1674 25.5077C87.1288 26.9091 87.1233 28.3103 87.1204 29.7121C87.1197 30.0337 87.1188 30.3552 87.1179 30.6768C87.1162 31.2498 87.1147 31.8228 87.1132 32.3959C87.1132 32.4298 87.1131 32.4638 87.113 32.4988C87.1121 32.845 87.1113 33.1913 87.1104 33.5375C87.11 33.712 87.1096 33.8865 87.1091 34.0611C87.1091 34.0955 87.109 34.13 87.1089 34.1655C87.1075 34.7392 87.1059 35.3129 87.1042 35.8866C87.1032 36.239 87.1023 36.5915 87.1016 36.9439C87.1011 37.184 87.1005 37.424 87.0997 37.6641C87.0993 37.8026 87.099 37.9411 87.0988 38.0796C87.0986 38.2293 87.0981 38.3789 87.0975 38.5286C87.0975 38.5728 87.0975 38.617 87.0975 38.6625C87.0972 38.7221 87.0972 38.7221 87.0969 38.7829C87.0968 38.8175 87.0968 38.852 87.0967 38.8876C87.0916 38.9655 87.0916 38.9655 87.0524 39.0046C86.9569 39.0085 86.8625 39.0099 86.767 39.0096C86.7368 39.0096 86.7066 39.0097 86.6754 39.0098C86.5734 39.0099 86.4713 39.0098 86.3692 39.0097C86.2964 39.0097 86.2235 39.0098 86.1506 39.0099C85.9522 39.0101 85.7537 39.01 85.5552 39.0099C85.348 39.0098 85.1408 39.0099 84.9336 39.0099C84.5856 39.01 84.2375 39.0099 83.8895 39.0097C83.4865 39.0095 83.0835 39.0096 82.6805 39.0098C82.3352 39.01 81.9898 39.01 81.6445 39.0099C81.4379 39.0098 81.2314 39.0098 81.0248 39.01C80.8307 39.0101 80.6366 39.01 80.4424 39.0098C80.371 39.0097 80.2995 39.0097 80.228 39.0098C80.1309 39.0099 80.0338 39.0098 79.9366 39.0096C79.908 39.0097 79.8793 39.0098 79.8498 39.0099C79.6557 39.0091 79.6557 39.0091 79.6121 38.9655C79.6082 38.893 79.6072 38.8204 79.6072 38.7479C79.6071 38.7003 79.607 38.6527 79.6069 38.6036C79.607 38.5499 79.6071 38.4963 79.6072 38.4426C79.6072 38.386 79.6072 38.3294 79.6071 38.2728C79.607 38.1158 79.6071 37.9588 79.6073 37.8018C79.6074 37.6315 79.6073 37.4613 79.6073 37.291C79.6072 36.9921 79.6072 36.6932 79.6074 36.3944C79.6076 35.9499 79.6076 35.5055 79.6076 35.0611C79.6076 34.3136 79.6077 33.5661 79.6079 32.8187C79.6082 32.0782 79.6083 31.3377 79.6083 30.5973C79.6084 30.5513 79.6084 30.5053 79.6084 30.4579C79.6084 30.2244 79.6084 29.9909 79.6084 29.7574C79.6085 28.1021 79.6087 26.4468 79.6091 24.7914C79.6095 23.1829 79.6097 21.5744 79.6099 19.9659C79.6099 19.9164 79.6099 19.8668 79.6099 19.8158C79.61 19.3182 79.61 18.8206 79.6101 18.323C79.6102 17.3093 79.6103 16.2956 79.6104 15.2819C79.6104 15.2353 79.6104 15.1887 79.6104 15.1406C79.6108 12.0261 79.6114 8.91155 79.6121 5.797C80.5417 5.79189 81.4713 5.78678 82.401 5.78169C82.8326 5.77932 83.2642 5.77695 83.6959 5.77457C84.0721 5.7725 84.4483 5.77044 84.8246 5.76838C85.0238 5.76729 85.223 5.7662 85.4222 5.7651C85.6097 5.76406 85.7973 5.76303 85.9848 5.76201C86.0536 5.76163 86.1224 5.76126 86.1912 5.76087C86.2852 5.76035 86.3793 5.75984 86.4733 5.75933C86.5004 5.75918 86.5275 5.75903 86.5554 5.75887C86.7211 5.75798 86.8868 5.75771 87.0524 5.75784Z" fill="#00BCB3"/>
<path d="M129.844 12.4763C129.922 12.4764 129.922 12.4764 130 12.4766C130.747 12.4783 131.47 12.5021 132.204 12.6501C132.24 12.6569 132.277 12.6638 132.314 12.671C132.501 12.7065 132.687 12.7456 132.872 12.7891C132.943 12.8056 133.014 12.8207 133.085 12.8358C133.364 12.8955 133.631 12.9782 133.9 13.0709C134.034 13.1166 134.17 13.158 134.306 13.1983C134.553 13.2734 134.787 13.3702 135.023 13.4724C135.098 13.5026 135.173 13.5328 135.249 13.563C136.413 14.0492 137.544 14.7673 138.469 15.6262C138.469 15.6521 138.469 15.6779 138.469 15.7045C138.49 15.7134 138.511 15.7223 138.533 15.7314C138.754 15.8537 138.897 16.0215 139.057 16.2136C139.122 16.266 139.187 16.3182 139.253 16.3702C139.409 16.5481 139.409 16.5481 139.409 16.6444C139.448 16.6573 139.487 16.6702 139.527 16.6835C139.644 16.8184 139.644 16.8184 139.644 16.9185C139.67 16.9185 139.696 16.9185 139.723 16.9185C139.84 17.054 139.84 17.054 139.84 17.1534C139.866 17.1534 139.892 17.1534 139.918 17.1534C139.924 17.191 139.924 17.191 139.931 17.2293C139.939 17.256 139.948 17.2826 139.958 17.3101C139.996 17.323 140.035 17.3359 140.075 17.3492C140.135 17.4249 140.188 17.4993 140.241 17.5793C140.257 17.6022 140.272 17.6251 140.288 17.6487C140.515 17.9861 140.73 18.3305 140.937 18.6807C140.959 18.7181 140.982 18.7555 141.006 18.794C141.498 19.621 141.869 20.5303 142.127 21.4563C142.151 21.5411 142.176 21.6254 142.202 21.7098C142.307 22.0549 142.396 22.3986 142.464 22.7533C142.47 22.7836 142.476 22.814 142.482 22.8452C142.855 24.7424 142.891 26.7757 142.464 28.6665C141.957 28.725 141.459 28.7561 140.949 28.7542C140.879 28.7542 140.809 28.7543 140.739 28.7544C140.549 28.7546 140.359 28.7543 140.169 28.7539C139.964 28.7535 139.758 28.7536 139.553 28.7537C139.197 28.7537 138.842 28.7535 138.487 28.7531C137.973 28.7524 137.459 28.7522 136.945 28.7521C136.111 28.7519 135.278 28.7514 134.444 28.7507C133.634 28.75 132.825 28.7494 132.016 28.7491C131.966 28.7491 131.916 28.749 131.864 28.749C131.613 28.7489 131.363 28.7488 131.112 28.7487C129.035 28.7479 126.958 28.7465 124.881 28.7448C124.906 28.8073 124.931 28.8698 124.956 28.9324C124.969 28.9672 124.983 29.002 124.997 29.0379C125.121 29.3421 125.273 29.6175 125.468 29.8804C125.481 29.9192 125.494 29.958 125.508 29.9979C125.552 30.0442 125.598 30.0902 125.644 30.1348C125.71 30.2005 125.77 30.2698 125.831 30.3405C126.201 30.7923 126.201 30.7923 126.682 31.0944C126.682 31.1202 126.682 31.1461 126.682 31.1727C126.709 31.1822 126.735 31.1917 126.762 31.2015C126.876 31.2501 126.98 31.3084 127.086 31.3713C127.422 31.5696 127.76 31.7182 128.131 31.8384C128.176 31.8533 128.221 31.8681 128.267 31.8834C129.595 32.2803 131.041 32.1578 132.361 31.7993C132.391 31.7913 132.421 31.7833 132.452 31.7751C132.796 31.683 133.123 31.5716 133.447 31.4245C133.541 31.3832 133.633 31.3462 133.729 31.3113C133.881 31.255 134.027 31.1874 134.172 31.114C134.198 31.1008 134.224 31.0876 134.251 31.074C134.48 30.9576 134.705 30.8358 134.93 30.7126C134.963 30.6946 134.996 30.6766 135.03 30.658C135.062 30.6407 135.093 30.6234 135.125 30.6055C135.155 30.589 135.185 30.5725 135.216 30.5555C135.29 30.5116 135.355 30.4636 135.423 30.4109C135.532 30.3503 135.532 30.3503 135.643 30.3783C135.763 30.427 135.87 30.4819 135.981 30.548C136.021 30.5714 136.06 30.5948 136.101 30.6189C136.162 30.6556 136.162 30.6556 136.225 30.693C136.495 30.8532 136.766 31.011 137.042 31.1594C137.172 31.2306 137.298 31.3073 137.425 31.3841C137.539 31.4523 137.654 31.5182 137.769 31.5839C138.033 31.7338 138.295 31.8863 138.558 32.0391C138.597 32.062 138.636 32.085 138.677 32.1086C138.862 32.2165 139.046 32.3251 139.229 32.4356C139.356 32.5121 139.484 32.5861 139.615 32.6559C139.821 32.7673 140.025 32.8828 140.228 32.9994C140.351 33.0702 140.474 33.1404 140.598 33.2105C140.634 33.2313 140.671 33.2521 140.709 33.2735C140.781 33.3145 140.853 33.3556 140.925 33.3965C141.103 33.4978 141.277 33.6016 141.446 33.7181C141.387 33.8901 141.294 34.0297 141.189 34.1758C141.171 34.1997 141.154 34.2237 141.137 34.2483C141 34.435 140.853 34.6076 140.694 34.7759C140.617 34.8565 140.617 34.8565 140.545 34.9712C140.519 34.9712 140.493 34.9712 140.467 34.9712C140.458 34.9922 140.449 35.0132 140.44 35.0348C140.317 35.256 140.15 35.3992 139.958 35.5586C139.905 35.6237 139.853 35.689 139.801 35.7544C139.623 35.911 139.623 35.911 139.527 35.911C139.514 35.9498 139.501 35.9886 139.488 36.0285C139.327 36.1698 139.151 36.2938 138.979 36.4201C138.939 36.4494 138.939 36.4494 138.898 36.4792C138.532 36.7465 138.163 36.9879 137.765 37.2033C137.715 37.231 137.665 37.2588 137.615 37.2865C137.363 37.4256 137.114 37.5506 136.839 37.6385C136.744 37.671 136.744 37.671 136.654 37.7294C134.048 39.2795 129.974 39.3224 127.113 38.6522C127.072 38.6426 127.031 38.633 126.988 38.6231C126.553 38.5204 126.125 38.4104 125.703 38.2606C125.646 38.2417 125.589 38.223 125.531 38.2043C124.976 38.0237 124.976 38.0237 124.737 37.9103C124.638 37.8654 124.538 37.8258 124.437 37.7865C124.189 37.6897 123.949 37.585 123.712 37.4628C123.621 37.4159 123.53 37.3703 123.438 37.3257C123.097 37.1595 122.773 36.9778 122.453 36.7726C122.408 36.7444 122.364 36.7163 122.319 36.6883C122.074 36.5338 121.833 36.3737 121.596 36.2072C121.572 36.1905 121.548 36.1739 121.524 36.1567C121.466 36.116 121.411 36.0725 121.357 36.0285C121.357 36.0027 121.357 35.9768 121.357 35.9502C121.335 35.9478 121.313 35.9454 121.29 35.9429C121.163 35.898 121.099 35.8112 121.004 35.7152C120.902 35.6276 120.797 35.5439 120.692 35.4602C120.638 35.4163 120.586 35.3702 120.534 35.3236C120.534 35.2978 120.534 35.272 120.534 35.2453C120.495 35.2324 120.457 35.2195 120.417 35.2062C120.331 35.1303 120.331 35.1303 120.26 35.0495C120.26 35.0237 120.26 34.9978 120.26 34.9712C120.221 34.9583 120.183 34.9454 120.143 34.932C120.086 34.8776 120.086 34.8776 120.025 34.8048C120.002 34.777 119.978 34.7492 119.954 34.7206C119.926 34.687 119.898 34.6534 119.868 34.6188C119.831 34.575 119.793 34.5312 119.755 34.4875C119.715 34.4415 119.676 34.3955 119.636 34.3495C119.617 34.3272 119.597 34.3048 119.577 34.2817C119.438 34.1186 119.438 34.1186 119.438 34.0314C119.412 34.0314 119.386 34.0314 119.359 34.0314C119.297 33.9536 119.24 33.8758 119.183 33.794C119.166 33.7695 119.149 33.745 119.131 33.7198C118.942 33.4482 118.758 33.1727 118.576 32.8957C118.547 32.8525 118.547 32.8525 118.518 32.8084C118.373 32.5867 118.26 32.3481 118.144 32.1108C118.105 32.0318 118.066 31.9532 118.026 31.8747C117.508 30.8484 117.135 29.7906 116.9 28.664C116.894 28.6381 116.889 28.6122 116.883 28.5855C116.699 27.7147 116.637 26.8474 116.64 25.9584C116.64 25.8534 116.64 25.7485 116.639 25.6436C116.629 24.4084 116.784 23.1977 117.127 22.0093C117.136 21.9798 117.144 21.9504 117.153 21.92C117.51 20.6683 118.015 19.4576 118.733 18.3674C118.761 18.3232 118.79 18.279 118.818 18.2348C119.063 17.8561 119.335 17.5012 119.615 17.1483C119.656 17.0959 119.696 17.0421 119.734 16.9875C119.752 16.9647 119.771 16.9419 119.79 16.9185C119.816 16.9185 119.842 16.9185 119.868 16.9185C119.879 16.8957 119.889 16.8729 119.9 16.8493C119.947 16.7608 119.999 16.6911 120.064 16.615C120.084 16.591 120.105 16.5669 120.125 16.5422C120.182 16.4877 120.182 16.4877 120.26 16.4877C120.279 16.4296 120.279 16.4296 120.299 16.3702C120.375 16.2846 120.375 16.2846 120.456 16.2136C120.482 16.2136 120.508 16.2136 120.534 16.2136C120.554 16.1555 120.554 16.1555 120.573 16.0961C120.599 16.0961 120.625 16.0961 120.652 16.0961C120.671 16.038 120.671 16.038 120.691 15.9786C120.76 15.9072 120.76 15.9072 120.845 15.8342C120.873 15.8099 120.901 15.7855 120.929 15.7604C121.004 15.7045 121.004 15.7045 121.082 15.7045C121.092 15.6817 121.101 15.6589 121.111 15.6354C121.171 15.5293 121.24 15.4748 121.337 15.401C121.368 15.377 121.399 15.353 121.431 15.3282C121.513 15.2738 121.513 15.2738 121.592 15.2738C121.611 15.2156 121.611 15.2156 121.631 15.1563C121.669 15.1563 121.708 15.1563 121.748 15.1563C121.748 15.1304 121.748 15.1046 121.748 15.078C121.803 15.0304 121.803 15.0304 121.881 14.9769C121.91 14.9568 121.939 14.9366 121.969 14.9159C122.001 14.8943 122.033 14.8726 122.066 14.8504C122.1 14.8278 122.133 14.8053 122.167 14.7822C122.552 14.5242 122.951 14.2889 123.354 14.0598C123.397 14.0347 123.397 14.0347 123.442 14.009C123.882 13.7577 124.341 13.5726 124.815 13.3949C124.92 13.3552 125.023 13.314 125.127 13.2722C126.621 12.6717 128.246 12.4686 129.844 12.4763ZM127.975 19.4639C127.95 19.4721 127.925 19.4803 127.9 19.4888C127.275 19.7007 126.737 20.0053 126.212 20.4037C126.175 20.4318 126.137 20.4598 126.099 20.4888C126.072 20.5124 126.045 20.536 126.017 20.5604C126.017 20.5862 126.017 20.612 126.017 20.6387C125.958 20.6581 125.958 20.6581 125.899 20.6778C125.799 20.7747 125.713 20.884 125.625 20.9911C125.602 21.0175 125.579 21.0438 125.556 21.071C125.117 21.5983 124.842 22.3382 124.842 23.0274C125.476 23.0589 126.109 23.0721 126.744 23.071C126.836 23.071 126.928 23.071 127.02 23.0711C127.266 23.0711 127.513 23.0708 127.759 23.0706C127.991 23.0703 128.224 23.0703 128.456 23.0703C128.916 23.0702 129.375 23.0699 129.834 23.0695C130.28 23.0692 130.726 23.0689 131.171 23.0687C131.199 23.0687 131.227 23.0687 131.255 23.0687C131.393 23.0687 131.532 23.0686 131.67 23.0686C132.814 23.0682 133.958 23.0675 135.102 23.0666C135.077 22.9916 135.052 22.9166 135.027 22.8416C135.013 22.7998 135 22.7581 134.985 22.715C134.852 22.3226 134.671 21.9558 134.463 21.5981C134.437 21.5541 134.437 21.5541 134.412 21.5093C134.37 21.4395 134.325 21.3717 134.279 21.3044C134.253 21.3044 134.228 21.3044 134.201 21.3044C134.193 21.2772 134.184 21.2501 134.176 21.2221C134.107 21.075 134.012 20.9753 133.9 20.859C133.879 20.8364 133.857 20.8138 133.835 20.7905C133.793 20.7462 133.751 20.7019 133.708 20.6578C133.664 20.6118 133.621 20.5649 133.579 20.5178C133.373 20.2968 133.12 20.1385 132.87 19.973C132.834 19.9482 132.798 19.9234 132.762 19.8979C132.476 19.7045 132.174 19.5797 131.851 19.4639C131.81 19.4489 131.768 19.434 131.726 19.4186C130.558 19.0299 129.136 19.0724 127.975 19.4639Z" fill="#00BBB3"/>
<path d="M66.0881 12.4491C66.1972 12.4493 66.3063 12.4491 66.4153 12.4489C67.0143 12.4486 67.6052 12.4639 68.197 12.5643C68.2595 12.5746 68.2595 12.5746 68.3231 12.5851C68.6704 12.644 69.0112 12.7196 69.3523 12.8066C69.4159 12.8217 69.4159 12.8217 69.4808 12.8371C69.7571 12.903 70.024 12.9871 70.2921 13.0808C70.3472 13.0997 70.4022 13.1186 70.4573 13.1375C70.5156 13.1577 70.574 13.178 70.6323 13.1982C70.6593 13.2075 70.6862 13.2168 70.714 13.2264C71.0876 13.3575 71.4426 13.5326 71.7998 13.7024C71.863 13.732 71.863 13.732 71.9275 13.7622C72.1524 13.8693 72.3626 13.9824 72.5663 14.1262C72.6421 14.1775 72.719 14.2194 72.8008 14.2605C73.0667 14.4048 73.3016 14.5979 73.5408 14.7818C73.6182 14.8411 73.6961 14.8996 73.7743 14.9578C73.821 14.993 73.8677 15.0281 73.9144 15.0632C73.9362 15.0794 73.9581 15.0956 73.9806 15.1123C74.0318 15.1512 74.081 15.1927 74.1298 15.2346C74.1298 15.2604 74.1298 15.2863 74.1298 15.3129C74.1508 15.3218 74.1718 15.3307 74.1934 15.3398C74.3993 15.4536 74.5333 15.6019 74.678 15.7828C74.7562 15.8482 74.8345 15.9135 74.913 15.9786C75.0305 16.1157 75.0305 16.1157 75.0305 16.2136C75.0541 16.2239 75.0778 16.2343 75.1023 16.245C75.1914 16.2942 75.2314 16.3349 75.2914 16.4159C75.3101 16.4409 75.3288 16.466 75.3481 16.4917C75.3676 16.5187 75.3872 16.5456 75.4074 16.5733C75.4279 16.6012 75.4484 16.629 75.4695 16.6577C75.758 17.0528 76.044 17.4491 76.2444 17.8974C75.8695 18.1155 75.4895 18.3217 75.1056 18.5235C74.8688 18.6484 74.6347 18.7758 74.4063 18.9156C74.2274 19.0243 74.043 19.1174 73.8552 19.2098C73.5625 19.3555 73.279 19.5188 72.9941 19.6792C72.6176 19.8912 72.2398 20.0963 71.8523 20.2876C71.6712 20.3777 71.4983 20.4763 71.3263 20.5828C71.1834 20.6673 71.0346 20.7388 70.8856 20.8119C70.6157 20.9466 70.3489 21.0884 70.0914 21.2456C70.0543 21.265 70.0171 21.2844 69.9788 21.3044C69.8495 21.2612 69.8306 21.2382 69.7561 21.1306C69.739 21.1064 69.7219 21.0822 69.7042 21.0573C69.6655 20.9911 69.6655 20.9911 69.6655 20.9128C69.6397 20.9128 69.6138 20.9128 69.5872 20.9128C69.5291 20.8405 69.4748 20.7677 69.4208 20.6925C68.8839 19.9719 68.1637 19.3444 67.2476 19.2068C66.8166 19.1567 66.3666 19.1619 65.9453 19.268C65.9153 19.2743 65.8853 19.2806 65.8543 19.287C65.6282 19.3423 65.4312 19.4433 65.2282 19.5544C65.1882 19.5759 65.1882 19.5759 65.1473 19.5979C64.9671 19.7002 64.858 19.8094 64.7314 19.9729C64.7055 19.9858 64.6797 19.9988 64.6531 20.0121C64.5193 20.2127 64.5051 20.4048 64.5356 20.6386C64.5885 20.7532 64.5885 20.7532 64.6531 20.8344C64.6531 20.8603 64.6531 20.8861 64.6531 20.9128C64.6789 20.9128 64.7048 20.9128 64.7314 20.9128C64.888 21.0878 64.888 21.0878 64.888 21.1869C64.9091 21.1968 64.9301 21.2067 64.9518 21.2169C65.0647 21.2756 65.1699 21.3436 65.2772 21.412C65.8099 21.7417 66.3648 21.9157 66.9635 22.0876C66.9979 22.0974 67.0322 22.1073 67.0676 22.1175C67.1999 22.1555 67.3322 22.1933 67.4646 22.2308C67.7967 22.3249 68.1274 22.4236 68.4582 22.5222C68.7156 22.5987 68.9733 22.6728 69.2323 22.7435C69.4977 22.8162 69.7579 22.8988 70.018 22.9882C70.1146 23.0206 70.2112 23.0528 70.3079 23.0849C70.3791 23.1086 70.4503 23.1324 70.5214 23.1561C70.6924 23.2133 70.8634 23.27 71.0349 23.3254C71.3226 23.4187 71.6022 23.5145 71.8753 23.6457C71.9857 23.6977 72.0977 23.7431 72.2109 23.7886C72.4098 23.8704 72.5965 23.9661 72.7836 24.0717C72.8658 24.1178 72.9487 24.1608 73.0333 24.2022C73.0333 24.228 73.0333 24.2539 73.0333 24.2805C73.055 24.2848 73.0767 24.2891 73.0991 24.2935C73.5457 24.4221 73.9346 24.7982 74.2897 25.0827C74.3427 25.1246 74.3972 25.1647 74.4526 25.2035C74.4753 25.222 74.498 25.2405 74.5214 25.2595C74.5214 25.2853 74.5214 25.3112 74.5214 25.3378C74.5437 25.3474 74.5661 25.357 74.5891 25.3669C74.7645 25.4641 74.8935 25.6243 75.0305 25.7686C75.0527 25.792 75.0749 25.8153 75.0978 25.8394C75.4549 26.2324 75.7704 26.6653 76.0094 27.1392C76.0486 27.2069 76.0878 27.2746 76.1269 27.3423C76.3699 27.7894 76.5294 28.288 76.636 28.7839C76.6432 28.8172 76.6504 28.8505 76.6578 28.8849C76.9189 30.1505 76.8529 31.5012 76.4794 32.739C76.471 32.767 76.4626 32.7949 76.454 32.8236C76.3341 33.2178 76.1888 33.5918 76.0054 33.9606C75.9697 34.0325 75.9349 34.1048 75.9002 34.1773C75.7865 34.4126 75.6669 34.6377 75.5166 34.852C75.4412 34.961 75.3745 35.0748 75.3076 35.1891C75.2937 35.2077 75.2798 35.2262 75.2654 35.2453C75.2396 35.2453 75.2137 35.2453 75.1871 35.2453C75.1871 35.284 75.1871 35.3228 75.1871 35.3628C75.1612 35.3628 75.1354 35.3628 75.1088 35.3628C75.0991 35.391 75.0894 35.4193 75.0794 35.4484C75.0256 35.5694 74.963 35.6569 74.8738 35.7544C74.848 35.7544 74.8221 35.7544 74.7955 35.7544C74.7812 35.7873 74.7812 35.7873 74.7666 35.8209C74.6081 36.1099 74.3253 36.3475 74.0906 36.5767C74.0711 36.5986 74.0516 36.6204 74.0316 36.643C73.9731 36.6942 73.9731 36.6942 73.8557 36.6942C73.8427 36.733 73.8298 36.7717 73.8165 36.8117C73.3629 37.2008 72.7777 37.4771 72.2501 37.7515C72.2222 37.7667 72.1944 37.7819 72.1657 37.7976C69.2132 39.3709 64.9789 39.2593 61.8703 38.3218C61.3351 38.1557 60.8108 37.9566 60.3063 37.7124C60.2704 37.695 60.2704 37.695 60.2338 37.6773C59.9402 37.5348 59.6515 37.3893 59.3743 37.2166C59.2933 37.1672 59.211 37.1241 59.1266 37.0809C58.8599 36.9343 58.6222 36.7407 58.3821 36.5548C58.3215 36.5079 58.2604 36.4617 58.1992 36.4156C57.9475 36.2197 57.7228 35.9983 57.4966 35.7739C57.4651 35.7428 57.4336 35.7116 57.4011 35.6796C56.8602 35.1358 56.8602 35.1358 56.8602 34.9712C56.8344 34.9712 56.8086 34.9712 56.7819 34.9712C56.7264 34.894 56.6756 34.8168 56.6253 34.7362C56.5925 34.6859 56.5597 34.6357 56.5268 34.5855C56.3529 34.318 56.1797 34.05 56.011 33.7792C55.9858 33.7389 55.9606 33.6986 55.9346 33.657C55.8812 33.5614 55.8812 33.5614 55.8812 33.4831C55.8554 33.4831 55.8296 33.4831 55.8029 33.4831C55.7831 33.4463 55.7831 33.4463 55.7629 33.4087C55.7367 33.3607 55.7367 33.3607 55.7099 33.3118C55.684 33.2641 55.684 33.2641 55.6576 33.2154C55.6093 33.1264 55.6093 33.1264 55.5288 33.0523C55.5291 32.9786 55.5291 32.9786 55.568 32.8957C55.668 32.8201 55.668 32.8201 55.798 32.7439C55.8399 32.719 55.8818 32.6941 55.925 32.6684C56.0789 32.5803 56.2349 32.496 56.3908 32.4114C56.5955 32.2995 56.7988 32.1851 57.0022 32.0709C57.0859 32.0239 57.1696 31.977 57.2534 31.93C57.3129 31.8966 57.3129 31.8966 57.3736 31.8625C57.4761 31.8052 57.5788 31.7482 57.6815 31.6914C57.7983 31.6266 57.9137 31.5603 58.0277 31.4908C58.4232 31.2521 58.8234 31.0241 59.2308 30.8063C59.4823 30.6709 59.7286 30.5278 59.9743 30.3823C60.1525 30.2769 60.3317 30.1733 60.5119 30.0713C60.7325 29.946 60.9482 29.814 61.1636 29.68C61.3139 29.5889 61.4678 29.5056 61.6229 29.423C61.7033 29.3784 61.778 29.3311 61.8531 29.2783C61.951 29.2147 61.951 29.2147 62.0685 29.2147C62.0884 29.2586 62.1083 29.3026 62.1288 29.3479C62.2715 29.6596 62.4144 29.9547 62.6168 30.2328C62.6603 30.2962 62.7035 30.3599 62.7465 30.4237C62.7657 30.4519 62.7849 30.4801 62.8048 30.5091C62.8517 30.5853 62.8517 30.5853 62.8909 30.7027C62.9167 30.7027 62.9426 30.7027 62.9692 30.7027C63.1258 30.8778 63.1258 30.8778 63.1258 30.9769C63.1488 30.9872 63.1717 30.9975 63.1953 31.0082C63.2857 31.0569 63.3494 31.1102 63.4244 31.18C64.2503 31.9131 65.3487 32.1716 66.4341 32.1191C67.1619 32.0704 67.9863 31.9504 68.5666 31.4688C68.5933 31.4357 68.6199 31.4026 68.6474 31.3685C68.6645 31.3475 68.6817 31.3266 68.6994 31.305C68.8513 31.1089 68.9371 30.9165 68.9142 30.6636C68.8617 30.3568 68.7187 30.1269 68.4907 29.9195C68.3878 29.8516 68.284 29.7907 68.1752 29.7326C68.1501 29.7168 68.125 29.7009 68.0991 29.6846C68.0991 29.6587 68.0991 29.6329 68.0991 29.6063C68.0721 29.6023 68.045 29.5984 68.0172 29.5943C67.882 29.562 67.773 29.5071 67.6488 29.4447C67.2763 29.265 66.8876 29.1423 66.4936 29.0189C66.453 29.0061 66.4124 28.9933 66.3705 28.9801C65.9391 28.8447 65.5068 28.7131 65.0716 28.5905C64.1101 28.3193 63.1514 28.0241 62.2252 27.6483C62.1847 27.6321 62.1442 27.616 62.1025 27.5994C61.5896 27.395 61.0827 27.1864 60.5927 26.9311C60.5574 26.9129 60.5222 26.8946 60.4859 26.8758C60.2723 26.7617 60.0754 26.6334 59.8802 26.4903C59.796 26.428 59.796 26.428 59.6798 26.3951C59.6798 26.3693 59.6798 26.3434 59.6798 26.3168C59.6514 26.3074 59.6231 26.2979 59.5939 26.2882C59.4689 26.2317 59.3904 26.1634 59.2906 26.0696C59.1796 25.9664 59.0692 25.8653 58.9504 25.771C58.9197 25.7444 58.889 25.7177 58.8574 25.6903C58.8574 25.6644 58.8574 25.6386 58.8574 25.6119C58.8186 25.599 58.7799 25.5861 58.7399 25.5728C58.6543 25.4969 58.6543 25.4969 58.5833 25.4161C58.5833 25.3903 58.5833 25.3645 58.5833 25.3378C58.5445 25.3249 58.5057 25.312 58.4658 25.2987C58.4658 25.2599 58.4658 25.2211 58.4658 25.1812C58.427 25.1683 58.3883 25.1553 58.3483 25.142C58.2722 25.0539 58.2021 24.9662 58.1329 24.8728C58.1124 24.8452 58.0918 24.8176 58.0706 24.7891C57.8352 24.4661 57.6388 24.1219 57.4476 23.7714C57.4272 23.7344 57.4067 23.6974 57.3855 23.6593C57.1471 23.2075 56.9795 22.7004 56.8602 22.205C56.8531 22.1772 56.8459 22.1493 56.8385 22.1206C56.572 21.0498 56.5911 19.75 56.8602 18.6806C56.8725 18.6321 56.8847 18.5835 56.8973 18.5335C56.9325 18.4106 56.9729 18.2916 57.0169 18.1716C57.0337 18.1228 57.0506 18.0741 57.068 18.0239C57.3621 17.1911 57.8049 16.3719 58.3875 15.7045C58.4133 15.7045 58.4392 15.7045 58.4658 15.7045C58.4759 15.6819 58.4861 15.6594 58.4965 15.6361C58.5479 15.5409 58.6066 15.4692 58.6787 15.3888C58.7138 15.3493 58.7138 15.3493 58.7496 15.3091C58.7722 15.2845 58.7949 15.2599 58.8182 15.2346C58.8389 15.212 58.8595 15.1894 58.8808 15.1662C58.9357 15.1171 58.9357 15.1171 59.014 15.1171C59.014 15.0912 59.014 15.0654 59.014 15.0388C59.0798 14.9712 59.0798 14.9712 59.1658 14.8968C59.194 14.8721 59.2221 14.8473 59.2511 14.8219C59.3273 14.7646 59.3273 14.7646 59.4056 14.7646C59.4186 14.7259 59.4315 14.6871 59.4448 14.6472C59.5401 14.5672 59.5401 14.5672 59.6577 14.4832C59.7158 14.4412 59.7158 14.4412 59.7751 14.3983C59.8756 14.3339 59.8756 14.3339 59.9539 14.3339C59.9539 14.308 59.9539 14.2822 59.9539 14.2556C60.0299 14.2034 60.0299 14.2034 60.1325 14.1454C60.2526 14.0761 60.3676 14.0071 60.4776 13.9227C60.6659 13.7843 60.8798 13.691 61.0895 13.5898C61.1426 13.563 61.1956 13.5361 61.2486 13.5091C61.2999 13.4837 61.3513 13.4584 61.4028 13.4332C61.4316 13.4189 61.4604 13.4045 61.4901 13.3898C61.8536 13.2162 62.2353 13.0909 62.6168 12.9633C62.6457 12.9536 62.6747 12.9439 62.7046 12.9338C63.0622 12.8151 63.4205 12.7178 63.7916 12.65C63.8263 12.6436 63.8611 12.6372 63.8969 12.6306C64.0167 12.6088 64.1366 12.5877 64.2566 12.5668C64.3127 12.5568 64.3127 12.5568 64.37 12.5465C64.9395 12.4506 65.5122 12.4478 66.0881 12.4491Z" fill="#00BBB3"/>
<path d="M160.399 12.7675C160.399 15.5459 160.399 18.3242 160.399 21.1868C159.805 21.1998 159.21 21.2127 158.598 21.226C157.181 21.334 155.951 21.7012 154.838 22.5966C154.812 22.6171 154.785 22.6376 154.758 22.6587C154.543 22.8302 154.38 23.0468 154.212 23.2623C154.19 23.2899 154.168 23.3175 154.145 23.346C153.732 23.879 153.471 24.4898 153.311 25.142C153.301 25.1826 153.29 25.2232 153.28 25.265C153.084 26.0944 153.058 26.934 153.059 27.782C153.059 27.9327 153.059 28.0834 153.058 28.2341C153.057 28.494 153.057 28.754 153.056 29.0139C153.056 29.3897 153.055 29.7655 153.054 30.1413C153.053 30.7513 153.051 31.3612 153.05 31.9712C153.05 32.5631 153.049 33.155 153.047 33.7468C153.047 33.7838 153.047 33.8208 153.047 33.8589C153.046 34.1481 153.046 34.4373 153.045 34.7265C153.041 36.1395 153.039 37.5525 153.037 38.9654C150.569 38.9654 148.1 38.9654 145.557 38.9654C145.557 30.4752 145.557 21.9849 145.557 13.2374C147.987 13.2374 150.416 13.2374 152.919 13.2374C152.984 14.0414 153.04 14.8357 153.059 15.6405C153.068 16.0414 153.085 16.4402 153.115 16.8401C153.129 16.8187 153.143 16.7973 153.158 16.7752C153.469 16.3013 153.801 15.858 154.173 15.4303C154.217 15.3773 154.261 15.3243 154.305 15.2712C154.399 15.1663 154.494 15.0868 154.603 14.9996C154.631 14.9648 154.658 14.9301 154.687 14.8943C154.839 14.7042 155.04 14.5628 155.23 14.4122C155.266 14.3831 155.301 14.354 155.338 14.3241C155.493 14.1978 155.644 14.0814 155.817 13.9814C155.879 13.9459 155.879 13.9459 155.941 13.9097C156.06 13.8418 156.179 13.7744 156.297 13.7071C156.357 13.6733 156.415 13.6386 156.474 13.6037C156.762 13.4365 157.063 13.3307 157.378 13.2262C157.458 13.1996 157.537 13.172 157.616 13.1441C157.939 13.0317 158.26 12.943 158.598 12.8849C158.628 12.8796 158.659 12.8742 158.69 12.8687C159.271 12.7704 159.802 12.7675 160.399 12.7675Z" fill="#00BCB4"/>
<path d="M106.476 13.2374C108.892 13.2374 111.309 13.2374 113.799 13.2374C113.799 21.7277 113.799 30.2179 113.799 38.9655C111.382 38.9655 108.966 38.9655 106.476 38.9655C106.476 30.4752 106.476 21.985 106.476 13.2374Z" fill="#00BCB3"/>
</g>
<defs>
<clipPath id="clip0_7533_9149">
<rect width="160.399" height="38.69" fill="white" transform="translate(0 0.432129)"/>
</clipPath>
</defs>
</svg>
