<svg width="143" height="37" viewBox="0 0 143 37" fill="none" xmlns="http://www.w3.org/2000/svg">
<path fill-rule="evenodd" clip-rule="evenodd" d="M13.5892 32.7298V34.6016V36.4734H12.7698V36.0189C12.5099 36.3559 12.1155 36.5675 11.5795 36.5675C10.5228 36.5675 9.69435 35.7455 9.69435 34.6016C9.69435 33.4586 10.5228 32.6357 11.5795 32.6357C12.1155 32.6357 12.5099 32.8473 12.7698 33.1843V32.7298H13.5892ZM11.6815 33.403C10.9722 33.403 10.5381 33.9436 10.5381 34.6016C10.5381 35.2596 10.9722 35.8001 11.6815 35.8001C12.3592 35.8001 12.8167 35.2829 12.8167 34.6016C12.8167 33.9203 12.3592 33.403 11.6815 33.403ZM41.2791 34.6016C41.2791 33.9436 41.7132 33.403 42.4225 33.403C43.1011 33.403 43.5578 33.9203 43.5578 34.6016C43.5578 35.2829 43.1011 35.8001 42.4225 35.8001C41.7132 35.8001 41.2791 35.2596 41.2791 34.6016ZM44.3311 31.2265V34.6016V36.4734H43.5108V36.0189C43.2509 36.3559 42.8566 36.5675 42.3205 36.5675C41.2638 36.5675 40.4354 35.7455 40.4354 34.6016C40.4354 33.4586 41.2638 32.6357 42.3205 32.6357C42.8566 32.6357 43.2509 32.8473 43.5108 33.1843V31.2265H44.3311ZM23.7604 33.3645C24.2883 33.3645 24.6277 33.6935 24.7143 34.2726H22.7587C22.8463 33.732 23.1766 33.3645 23.7604 33.3645ZM21.8996 34.6016C21.8996 33.4344 22.6721 32.6357 23.7766 32.6357C24.8325 32.6357 25.558 33.4344 25.5661 34.6016C25.5661 34.711 25.558 34.8132 25.5499 34.9145H22.7515C22.8697 35.5886 23.3507 35.8315 23.8786 35.8315C24.2567 35.8315 24.6592 35.6899 24.9751 35.4398L25.3766 36.0431C24.9191 36.4268 24.3993 36.5675 23.8317 36.5675C22.7037 36.5675 21.8996 35.7921 21.8996 34.6016ZM33.6708 34.6016C33.6708 33.9436 34.1049 33.403 34.8142 33.403C35.4919 33.403 35.9494 33.9203 35.9494 34.6016C35.9494 35.2829 35.4919 35.8001 34.8142 35.8001C34.1049 35.8001 33.6708 35.2596 33.6708 34.6016ZM36.7219 32.7298V34.6016V36.4734H35.9025V36.0189C35.6417 36.3559 35.2483 36.5675 34.7122 36.5675C33.6555 36.5675 32.8271 35.7455 32.8271 34.6016C32.8271 33.4586 33.6555 32.6357 34.7122 32.6357C35.2483 32.6357 35.6417 32.8473 35.9025 33.1843V32.7298H36.7219ZM29.0432 34.6016C29.0432 35.7374 29.8391 36.5675 31.0538 36.5675C31.6214 36.5675 31.9995 36.442 32.4092 36.1211L32.0157 35.4631C31.708 35.6827 31.3849 35.8001 31.0294 35.8001C30.3751 35.7921 29.8941 35.3223 29.8941 34.6016C29.8941 33.8809 30.3751 33.4111 31.0294 33.4031C31.3849 33.4031 31.708 33.5205 32.0157 33.7401L32.4092 33.0821C31.9995 32.7612 31.6214 32.6357 31.0538 32.6357C29.8391 32.6357 29.0432 33.4658 29.0432 34.6016ZM38.6142 33.1843C38.8271 32.8553 39.1348 32.6357 39.6077 32.6357C39.7738 32.6357 40.0102 32.6671 40.1916 32.7379L39.9389 33.5052C39.7656 33.4344 39.5924 33.4111 39.4263 33.4111C38.8903 33.4111 38.6223 33.7554 38.6223 34.3748V36.4734H37.802V32.7298H38.6142V33.1843ZM17.6419 33.0274C17.2476 32.7693 16.7043 32.6357 16.1051 32.6357C15.1503 32.6357 14.5358 33.0902 14.5358 33.8342C14.5358 34.4447 14.9933 34.8212 15.8362 34.9387L16.2233 34.9933C16.6727 35.0561 16.8848 35.1735 16.8848 35.3851C16.8848 35.6746 16.5852 35.8396 16.0257 35.8396C15.4581 35.8396 15.0484 35.6594 14.7722 35.4478L14.386 36.0816C14.8354 36.4106 15.403 36.5675 16.0176 36.5675C17.1059 36.5675 17.7367 36.0583 17.7367 35.3457C17.7367 34.6877 17.2403 34.3434 16.42 34.226L16.0338 34.1704C15.6792 34.1238 15.3949 34.0539 15.3949 33.8029C15.3949 33.5286 15.6629 33.3645 16.1123 33.3645C16.5933 33.3645 17.059 33.5447 17.2873 33.6854L17.6419 33.0274ZM27.2221 33.1843C27.4342 32.8553 27.7419 32.6357 28.2148 32.6357C28.3808 32.6357 28.6172 32.6671 28.7986 32.7379L28.5459 33.5052C28.3727 33.4344 28.1994 33.4111 28.0334 33.4111C27.4973 33.4111 27.2293 33.7554 27.2293 34.3748V36.4734H26.4099V32.7298H27.2221V33.1843ZM21.2218 32.7298H19.8817V31.594H19.0532V32.7298H18.2889V33.4739H19.0532V35.1816C19.0532 36.0503 19.3926 36.5675 20.3618 36.5675C20.7173 36.5675 21.127 36.4581 21.3869 36.278L21.1505 35.5805C20.9059 35.7213 20.6379 35.7921 20.4249 35.7921C20.0152 35.7921 19.8817 35.5411 19.8817 35.1655V33.4739H21.2218V32.7298ZM8.96966 34.1238V36.4734H8.14123V34.39C8.14123 33.7554 7.87321 33.4031 7.31371 33.4031C6.76955 33.4031 6.39144 33.7482 6.39144 34.3981V36.4734H5.56302V34.39C5.56302 33.7554 5.28778 33.4031 4.74362 33.4031C4.18321 33.4031 3.82044 33.7482 3.82044 34.3981V36.4734H2.99292L2.99292 32.7298H3.81322V33.1915C4.12095 32.7531 4.5144 32.6357 4.91688 32.6357C5.49263 32.6357 5.90233 32.8867 6.16222 33.3018C6.50966 32.7764 7.00599 32.6276 7.48698 32.6357C8.40203 32.6438 8.96966 33.239 8.96966 34.1238Z" fill="#231F20"/>
<path d="M29.7894 26.3688H17.3702V4.19788H29.7894V26.3688Z" fill="#FF5F00"/>
<path d="M18.1582 15.2837C18.1582 10.7863 20.278 6.78005 23.579 4.19829C21.1651 2.31038 18.1185 1.18355 14.8075 1.18355C6.96906 1.18355 0.615112 7.49631 0.615112 15.2837C0.615112 23.0711 6.96906 29.3839 14.8075 29.3839C18.1185 29.3839 21.1651 28.2571 23.579 26.3692C20.278 23.7874 18.1582 19.7812 18.1582 15.2837Z" fill="#EB001B"/>
<path d="M46.5438 15.2837C46.5438 23.0711 40.1899 29.3839 32.3514 29.3839C29.0404 29.3839 25.9939 28.2571 23.579 26.3692C26.8809 23.7874 29.0007 19.7812 29.0007 15.2837C29.0007 10.7863 26.8809 6.78005 23.579 4.19829C25.9939 2.31038 29.0404 1.18355 32.3514 1.18355C40.1899 1.18355 46.5438 7.49631 46.5438 15.2837Z" fill="#F79E1B"/>
<path fill-rule="evenodd" clip-rule="evenodd" d="M86.1664 30.4969H79.6548L74.772 11.3207C74.5402 10.4386 74.0481 9.65872 73.3242 9.29118C71.5178 8.36752 69.5272 7.63243 67.3556 7.26169V6.5234H77.8452C79.2929 6.5234 80.3787 7.63243 80.5596 8.92044L83.0931 22.7529L89.6015 6.5234H95.9321L86.1664 30.4969ZM99.5514 30.4969H93.4018L98.4656 6.5234H104.615L99.5514 30.4969ZM112.571 13.1648C112.752 11.8736 113.838 11.1353 115.105 11.1353C117.095 10.9499 119.264 11.3206 121.073 12.2411L122.159 7.07949C120.35 6.3412 118.359 5.97046 116.552 5.97046C110.584 5.97046 106.241 9.29115 106.241 13.8998C106.241 17.4059 109.317 19.2468 111.489 20.3559C113.838 21.4617 114.743 22.2 114.562 23.3058C114.562 24.9646 112.752 25.7028 110.946 25.7028C108.774 25.7028 106.603 25.1499 104.615 24.2263L103.529 29.3911C105.701 30.3115 108.05 30.6823 110.222 30.6823C116.914 30.8645 121.073 27.547 121.073 22.5675C121.073 16.2969 112.571 15.9293 112.571 13.1648ZM142.596 30.4969L137.713 6.5234H132.468C131.382 6.5234 130.296 7.26169 129.934 8.36752L120.892 30.4969H127.223L128.487 26.9941H136.265L136.989 30.4969H142.596ZM133.373 12.9795L135.179 22.0147H130.115L133.373 12.9795Z" fill="#172B85"/>
</svg>
