<svg width="33" height="33" viewBox="0 0 33 33" fill="none" xmlns="http://www.w3.org/2000/svg">
<path d="M32.5 16.5C32.5 7.66344 25.3366 0.5 16.5 0.5C7.66344 0.5 0.5 7.66344 0.5 16.5C0.5 25.3366 7.66344 32.5 16.5 32.5C25.3366 32.5 32.5 25.3366 32.5 16.5Z" fill="#F1EFEF"/>
<g clip-path="url(#clip0_7511_7104)">
<mask id="mask0_7511_7104" style="mask-type:luminance" maskUnits="userSpaceOnUse" x="8" y="8" width="17" height="17">
<path d="M24.5 8.5H8.5V24.5H24.5V8.5Z" fill="white"/>
</mask>
<g mask="url(#mask0_7511_7104)">
<path d="M22.5975 13.839C22.5047 13.911 20.8661 14.8343 20.8661 16.8873C20.8661 19.262 22.9511 20.102 23.0135 20.1228C23.0039 20.174 22.6823 21.2734 21.9142 22.3935C21.2293 23.3792 20.5141 24.3633 19.4259 24.3633C18.3378 24.3633 18.0578 23.7312 16.8017 23.7312C15.5775 23.7312 15.1423 24.3841 14.147 24.3841C13.1516 24.3841 12.4572 23.472 11.6587 22.3519C10.7338 21.0366 9.98651 18.9932 9.98651 17.0538C9.98651 13.9431 12.0091 12.2933 13.9997 12.2933C15.0575 12.2933 15.9391 12.9878 16.6032 12.9878C17.2353 12.9878 18.221 12.2517 19.4243 12.2517C19.8803 12.2517 21.5189 12.2933 22.5975 13.839ZM18.8531 10.9347C19.3507 10.3443 19.7027 9.52501 19.7027 8.70573C19.7027 8.59211 19.6931 8.4769 19.6723 8.38409C18.8627 8.4145 17.8993 8.92335 17.3185 9.59701C16.8625 10.1155 16.4368 10.9347 16.4368 11.7652C16.4368 11.89 16.4576 12.0149 16.4672 12.0549C16.5184 12.0645 16.6016 12.0757 16.6848 12.0757C17.4113 12.0757 18.325 11.5892 18.8531 10.9347Z" fill="black"/>
</g>
</g>
<defs>
<clipPath id="clip0_7511_7104">
<rect width="16" height="16" fill="white" transform="translate(8.5 8.5)"/>
</clipPath>
</defs>
</svg>
