<svg width="54" height="55" viewBox="0 0 54 55" fill="none" xmlns="http://www.w3.org/2000/svg">
<path fill-rule="evenodd" clip-rule="evenodd" d="M36.8102 16.2378C37.0864 16.4007 37.2865 16.6666 37.3666 16.9771C37.4468 17.2876 37.4003 17.6172 37.2374 17.8934L25.8125 37.2384C25.7198 37.3951 25.5929 37.5289 25.4412 37.6297C25.2895 37.7305 25.117 37.7957 24.9366 37.8205C24.7562 37.8453 24.5725 37.829 24.3992 37.7729C24.226 37.7168 24.0677 37.6222 23.9361 37.4963L16.0127 29.9147C15.781 29.6928 15.6469 29.3879 15.6399 29.0672C15.633 28.7464 15.7537 28.436 15.9756 28.2043C16.1975 27.9725 16.5024 27.8384 16.8232 27.8315C17.1439 27.8245 17.4543 27.9453 17.6861 28.1672L24.5052 34.6977L35.1529 16.6666C35.3158 16.3904 35.5818 16.1902 35.8923 16.1101C36.2028 16.03 36.5323 16.0765 36.8085 16.2394" fill="white"/>
</svg>
