<svg width="33" height="33" viewBox="0 0 33 33" fill="none" xmlns="http://www.w3.org/2000/svg">
<path d="M32.5 16.5C32.5 7.66344 25.3366 0.5 16.5 0.5C7.66344 0.5 0.5 7.66344 0.5 16.5C0.5 25.3366 7.66344 32.5 16.5 32.5C25.3366 32.5 32.5 25.3366 32.5 16.5Z" fill="#F1EFEF"/>
<path d="M20.6892 8.25H11.6081C10.5186 8.25 9.47366 8.68282 8.70324 9.45324C7.93282 10.2237 7.5 11.2686 7.5 12.3581V20.1419C7.5 20.6814 7.60626 21.2156 7.81271 21.714C8.01916 22.2124 8.32176 22.6653 8.70324 23.0468C9.47366 23.8172 10.5186 24.25 11.6081 24.25H20.6892C21.778 24.2477 22.8216 23.8142 23.5915 23.0442C24.3615 22.2743 24.795 21.2307 24.7973 20.1419V12.3581C24.795 11.2693 24.3615 10.2257 23.5915 9.45576C22.8216 8.68584 21.778 8.25229 20.6892 8.25ZM17.5324 15.4457C17.1069 15.6883 16.6255 15.816 16.1357 15.816C15.6458 15.816 15.1644 15.6883 14.7389 15.4457L8.81459 12.0468C8.8912 11.3594 9.21849 10.7245 9.73387 10.2634C10.2493 9.80225 10.9165 9.5473 11.6081 9.5473H20.6892C21.3802 9.54919 22.0465 9.8048 22.5615 10.2656C23.0764 10.7263 23.4043 11.3602 23.4827 12.0468L17.5324 15.4457Z" fill="#1B2340"/>
</svg>
