<svg width="33" height="33" viewBox="0 0 33 33" fill="none" xmlns="http://www.w3.org/2000/svg">
<path d="M0.5 16.5C0.5 25.3366 7.66344 32.5 16.5 32.5C25.3366 32.5 32.5 25.3366 32.5 16.5C32.5 7.66344 25.3366 0.5 16.5 0.5C7.66344 0.5 0.5 7.66344 0.5 16.5Z" fill="#1877F2"/>
<path d="M24.5 16.5C24.5 12.1 20.9 8.5 16.5 8.5C12.1 8.5 8.5 12.1 8.5 16.5C8.5 20.5 11.4 23.8 15.2 24.4V18.8H13.2V16.5H15.2V14.7C15.2 12.7 16.4 11.6 18.2 11.6C19.1 11.6 20 11.8 20 11.8V13.8H19C18 13.8 17.7 14.4 17.7 15V16.5H19.9L19.5 18.8H17.6V24.5C21.6 23.9 24.5 20.5 24.5 16.5Z" fill="white"/>
</svg>
