<svg width="33" height="33" viewBox="0 0 33 33" fill="none" xmlns="http://www.w3.org/2000/svg">
<path d="M32.5 16.5C32.5 7.66344 25.3366 0.5 16.5 0.5C7.66344 0.5 0.5 7.66344 0.5 16.5C0.5 25.3366 7.66344 32.5 16.5 32.5C25.3366 32.5 32.5 25.3366 32.5 16.5Z" fill="#F1EFEF"/>
<path fill-rule="evenodd" clip-rule="evenodd" d="M24.3299 16.6818C24.3299 16.1145 24.279 15.569 24.1845 15.0454H16.6499V18.14H20.9554C20.7699 19.14 20.2063 19.9872 19.359 20.5545V22.5618H21.9445C23.4572 21.1691 24.3299 19.1181 24.3299 16.6818Z" fill="#4285F4"/>
<path fill-rule="evenodd" clip-rule="evenodd" d="M16.6496 24.5C18.8096 24.5 20.6205 23.7837 21.9442 22.5618L19.3587 20.5546C18.6423 21.0346 17.726 21.3182 16.6496 21.3182C14.566 21.3182 12.8023 19.9109 12.1732 18.02H9.50049V20.0928C10.8169 22.7073 13.5223 24.5 16.6496 24.5Z" fill="#34A853"/>
<path fill-rule="evenodd" clip-rule="evenodd" d="M12.1735 18.02C12.0135 17.54 11.9226 17.0272 11.9226 16.5C11.9226 15.9727 12.0135 15.46 12.1735 14.98V12.9072H9.50081C8.95899 13.9872 8.6499 15.209 8.6499 16.5C8.6499 17.7909 8.95899 19.0127 9.50081 20.0927L12.1735 18.02Z" fill="#FBBC05"/>
<path fill-rule="evenodd" clip-rule="evenodd" d="M16.6496 11.6818C17.8241 11.6818 18.8787 12.0855 19.7078 12.8782L22.0023 10.5836C20.6169 9.29273 18.806 8.5 16.6496 8.5C13.5223 8.5 10.8169 10.2927 9.50049 12.9073L12.1732 14.98C12.8023 13.0891 14.566 11.6818 16.6496 11.6818Z" fill="#EA4335"/>
</svg>
