<svg width="90" height="83" viewBox="0 0 90 83" fill="none" xmlns="http://www.w3.org/2000/svg">
<path d="M89.0795 50.8443L82.0872 43.0088C81.5566 42.4214 80.6566 42.3646 80.0691 42.8951L79.6238 43.2931C79.6238 43.1699 79.6523 43.0373 79.6523 42.9141C79.6523 33.8753 75.3697 25.8408 68.747 20.6677L69.1923 19.9666C69.4197 20.0329 69.647 20.0708 69.8839 20.0708C70.0639 20.0708 70.244 20.0518 70.424 20.0139C71.0588 19.8718 71.5988 19.4928 71.9494 18.9338L72.2621 18.4412C72.6126 17.8916 72.7263 17.2379 72.5842 16.6031C72.4421 15.9683 72.0631 15.4282 71.5041 15.0777L67.9227 12.8132C67.3731 12.4627 66.7194 12.349 66.0846 12.4911C65.4498 12.6332 64.9097 13.0122 64.5592 13.5712L64.2465 14.0639C63.896 14.6134 63.7823 15.2672 63.9244 15.902C64.0191 16.3094 64.237 16.6599 64.5118 16.9631L64.0476 17.6927C60.9683 16.1388 57.5764 15.125 53.976 14.7934V14.007C55.0846 13.7797 55.9468 12.8417 55.9468 11.6668V11.0889C55.9468 9.74346 54.8572 8.64441 53.5023 8.64441H49.2577C47.9123 8.64441 46.8132 9.74346 46.8132 11.0889V11.6668C46.8132 12.8417 47.6659 13.7797 48.7839 14.007V14.8219C40.7495 15.5609 33.4066 19.7013 28.6125 26.2577H18.9484C18.162 26.2577 17.5177 26.902 17.5177 27.6884C17.5177 28.4748 18.162 29.1191 18.9484 29.1191H32.1749C32.9613 29.1191 33.6056 28.4748 33.6056 27.6884C33.6056 26.9209 32.9992 26.3051 32.2318 26.2672C37.0165 20.753 43.9898 17.5221 51.38 17.5221C65.3835 17.5221 76.7814 28.9106 76.7814 42.9141C76.7814 43.9468 76.6867 44.989 76.5635 46.0218L73.1053 49.1105C73.6738 47.1113 73.9959 45.0364 73.9959 42.9141C73.9959 30.455 63.8486 20.3171 51.38 20.3171C38.9209 20.3171 28.783 30.455 28.783 42.9141C28.783 55.3732 38.9209 65.511 51.38 65.511C52.678 65.511 53.9476 65.3784 55.1793 65.1605L57.6427 67.5197C55.6057 68.0408 53.5023 68.3061 51.38 68.3061C43.9803 68.3061 37.0165 65.0657 32.2318 59.5515C32.9898 59.5231 33.6056 58.8978 33.6056 58.1303C33.6056 57.3439 32.9613 56.6997 32.1749 56.6997H14.0405C13.2541 56.6997 12.6099 57.3439 12.6099 58.1303C12.6099 58.9167 13.2541 59.561 14.0405 59.561H28.603C33.9088 66.828 42.3412 71.1674 51.3705 71.1674C54.3171 71.1674 57.2164 70.6937 60.0019 69.7936L63.8581 73.4887C64.1328 73.754 64.4929 73.8866 64.8529 73.8866C65.194 73.8866 65.5351 73.7634 65.8098 73.5266L88.9563 52.853C89.5532 52.3413 89.6006 51.4412 89.0795 50.8443ZM51.38 62.6592C40.9484 62.6592 32.4023 54.5205 31.7107 44.2595C31.8528 44.3069 32.0044 44.3542 32.1749 44.3542H34.8468C35.6332 44.3542 36.2775 43.71 36.2775 42.9236C36.2775 42.1372 35.6332 41.4929 34.8468 41.4929H32.1749C32.0139 41.4929 31.8623 41.5308 31.7107 41.5876C32.3739 31.7719 40.2284 23.9175 50.0441 23.2543C49.9967 23.3964 49.9493 23.548 49.9493 23.7185V26.3904C49.9493 27.1768 50.5936 27.821 51.38 27.821C52.1664 27.821 52.8107 27.1768 52.8107 26.3904V23.7185C52.8107 23.5575 52.7728 23.4059 52.7159 23.2543C62.5411 23.9175 70.3955 31.7719 71.0588 41.5876C70.9166 41.5403 70.7651 41.4929 70.5945 41.4929H67.9132C67.1268 41.4929 66.4825 42.1372 66.4825 42.9236C66.4825 43.71 67.1268 44.3542 67.9132 44.3542H70.5945C70.7461 44.3542 70.8882 44.3163 71.0209 44.269C70.7935 47.6798 69.7229 50.958 67.8279 53.8194L65.1466 56.2165L59.6419 50.9391C59.0734 50.3896 58.1638 50.4085 57.6143 50.977L50.3473 58.5567C50.082 58.8314 49.9399 59.201 49.9493 59.5799C49.9588 59.9589 50.1199 60.319 50.3852 60.5842L52.4885 62.6023C52.1285 62.6213 51.759 62.6592 51.38 62.6592ZM64.9003 70.5326L53.4076 59.5136L58.6944 53.9994L64.1234 59.2104C64.6634 59.7315 65.5066 59.741 66.0657 59.2483L78.8374 47.8409C78.8564 47.8219 78.8848 47.803 78.9038 47.784L80.8934 46.0028L85.9813 51.6971L64.9003 70.5326Z" fill="white"/>
<path d="M4.21582 36.7461H22.3408C23.1272 36.7461 23.7714 36.1018 23.7714 35.3154C23.7714 34.529 23.1272 33.8848 22.3408 33.8848H4.21582C3.42943 33.8848 2.78516 34.529 2.78516 35.3154C2.78516 36.1018 3.41995 36.7461 4.21582 36.7461Z" fill="white"/>
<path d="M12.8184 41.4929C12.032 41.4929 11.3877 42.1372 11.3877 42.9236C11.3877 43.71 12.032 44.3543 12.8184 44.3543H23.2594C24.0458 44.3543 24.6901 43.71 24.6901 42.9236C24.6901 42.1372 24.0458 41.4929 23.2594 41.4929H12.8184Z" fill="white"/>
<path d="M21.0517 50.5317C21.0517 49.7454 20.4074 49.1011 19.621 49.1011H1.4961C0.709707 49.1011 0.0654297 49.7454 0.0654297 50.5317C0.0654297 51.3181 0.709707 51.9624 1.4961 51.9624H19.621C20.4169 51.9624 21.0517 51.3181 21.0517 50.5317Z" fill="white"/>
<path d="M51.38 45.9175C53.0286 45.9175 54.3739 44.5721 54.3739 42.9235C54.3739 41.796 53.7297 40.858 52.8106 40.3464V31.1371C52.8106 30.3507 52.1664 29.7064 51.38 29.7064C50.5936 29.7064 49.9493 30.3507 49.9493 31.1371V40.3464C49.0303 40.858 48.386 41.8055 48.386 42.9235C48.386 43.3593 48.4902 43.7762 48.6607 44.1457L46.0268 47.6324C45.5531 48.2672 45.6762 49.1578 46.311 49.641C46.5669 49.84 46.87 49.9253 47.1732 49.9253C47.6091 49.9253 48.0354 49.7263 48.3197 49.3568L50.982 45.8322C51.1147 45.8512 51.2378 45.9175 51.38 45.9175ZM51.5126 42.9235C51.5126 43.0656 51.2473 43.0656 51.2473 42.9235C51.2473 42.8477 51.3042 42.7909 51.38 42.7909C51.4558 42.7909 51.5126 42.8477 51.5126 42.9235Z" fill="white"/>
</svg>
