<svg width="16" height="18" viewBox="0 0 16 18" fill="none" xmlns="http://www.w3.org/2000/svg">
<path d="M9.10039 3.42848C9.09039 3.43472 9.04161 3.45093 8.99408 3.46589C8.76894 3.53199 8.55506 3.7278 8.46125 3.95229C8.38995 4.1219 8.38745 4.16804 8.38745 5.16452C8.38745 6.2059 8.38745 6.21463 8.48126 6.40794C8.53004 6.50896 8.5538 6.54139 8.65387 6.63991C8.73517 6.72098 8.7952 6.76712 8.85649 6.79955C9.03786 6.89308 9.00158 6.88934 9.79333 6.89683L10.505 6.90306L10.7202 7.26349C10.8402 7.46054 10.9528 7.64013 10.9728 7.66009C11.0228 7.71371 11.0791 7.73242 11.1829 7.73242C11.2893 7.73242 11.343 7.71247 11.3968 7.6551C11.4193 7.63265 11.5332 7.45306 11.652 7.25476L11.8671 6.89683H12.55C13.2655 6.89558 13.2943 6.89433 13.4281 6.83946C13.5432 6.79331 13.5994 6.75216 13.7158 6.63617C13.8709 6.47903 13.9397 6.34309 13.9659 6.14354C13.9809 6.0288 13.9809 4.29775 13.9659 4.18426C13.9397 3.97972 13.8634 3.82757 13.7158 3.67916C13.6069 3.5719 13.4969 3.50331 13.3718 3.46589C13.3243 3.45093 13.2742 3.43472 13.263 3.42848C13.2355 3.41476 9.12541 3.41476 9.10039 3.42848ZM13.1842 4.02587C13.2767 4.06952 13.3418 4.14061 13.3768 4.2329C13.4031 4.30274 13.4031 4.3177 13.4031 5.16328C13.4031 5.99388 13.4018 6.02506 13.3781 6.08991C13.3343 6.20715 13.253 6.27824 13.1166 6.32189C13.0879 6.33062 12.8327 6.3356 12.3374 6.3356C11.5269 6.3356 11.5544 6.33311 11.4756 6.41293C11.4519 6.43662 11.3768 6.55012 11.3093 6.66361C11.2017 6.84195 11.1829 6.86814 11.1692 6.84943C11.1617 6.83821 11.1079 6.74966 11.0516 6.65363C10.9215 6.43538 10.889 6.39422 10.8227 6.3618C10.7702 6.3356 10.7527 6.3356 10.0297 6.3356C9.53442 6.3356 9.27801 6.33062 9.24924 6.32189C9.1129 6.27824 9.0316 6.20715 8.98782 6.08991C8.96406 6.02506 8.96281 5.99388 8.96281 5.16328C8.96281 4.33267 8.96406 4.30149 8.98782 4.23664C9.02285 4.1431 9.09039 4.06952 9.18044 4.02712L9.25674 3.99095H11.1829H13.1091L13.1842 4.02587Z" fill="#0D152C"/>
<path d="M9.54074 4.5522C9.48821 4.58463 9.45068 4.64699 9.45068 4.70186C9.45068 4.75674 9.48821 4.8191 9.54074 4.85152C9.58076 4.87646 9.60703 4.87646 11.2268 4.87646C12.8465 4.87646 12.8728 4.87646 12.9128 4.85152C13.0304 4.78043 13.0304 4.62329 12.9128 4.5522C12.8728 4.52726 12.8465 4.52726 11.2268 4.52726C9.60703 4.52726 9.58076 4.52726 9.54074 4.5522Z" fill="#0D152C"/>
<path d="M9.92868 5.25069C9.87615 5.28312 9.83862 5.34547 9.83862 5.40035C9.83862 5.45522 9.87615 5.51758 9.92868 5.55001C9.9687 5.57495 9.99497 5.57495 11.2332 5.57495C12.4715 5.57495 12.4978 5.57495 12.5378 5.55001C12.6554 5.47892 12.6554 5.32178 12.5378 5.25069C12.4978 5.22575 12.4715 5.22575 11.2332 5.22575C9.99497 5.22575 9.9687 5.22575 9.92868 5.25069Z" fill="#0D152C"/>
<path d="M5.47949 6.34937C5.44572 6.35561 5.37818 6.36683 5.3294 6.37432C5.01045 6.42794 4.67399 6.60255 4.41883 6.84574C4.05861 7.18996 3.86724 7.58032 3.80971 8.08791C3.78844 8.28122 3.8022 8.57555 3.84097 8.7489C3.88475 8.94346 3.97606 9.16545 4.08238 9.33507C4.13741 9.42362 4.26874 9.58201 4.3588 9.6718C4.40758 9.71919 4.4476 9.76284 4.4476 9.76783C4.4476 9.77157 4.43635 9.77906 4.42384 9.78405C4.37631 9.79901 4.16368 9.9337 4.0461 10.0223C3.48075 10.4538 3.11177 11.0736 2.99795 11.7857C2.96668 11.9741 2.95918 12.0801 2.95542 12.3245L2.95292 12.5839H2.84786C2.54267 12.5839 2.30252 12.6862 2.12866 12.8882C2.04486 12.9867 1.98732 13.0865 1.9573 13.1888C1.94229 13.2362 1.92603 13.2861 1.91978 13.2973C1.90602 13.326 1.90477 13.6353 1.91853 13.6502C1.92478 13.6577 1.93604 13.6951 1.94479 13.735C1.95355 13.775 1.98607 13.8598 2.01859 13.9221C2.06487 14.0157 2.09614 14.0568 2.1887 14.1503C2.28 14.2414 2.32253 14.2738 2.40758 14.3162C2.46512 14.3437 2.53391 14.3711 2.56143 14.3748C2.58769 14.3798 2.61271 14.3886 2.61646 14.3935C2.62647 14.411 13.6483 14.4073 13.7096 14.391C13.7797 14.3723 13.8647 14.2801 13.901 14.1878C13.9573 14.0406 13.9685 13.9171 13.9623 13.5505C13.956 13.1701 13.9435 13.0803 13.846 12.6837C13.7959 12.4804 13.7784 12.4305 13.6971 12.2646C13.4757 11.8107 13.1293 11.4216 12.6965 11.1422C12.6002 11.0811 12.33 10.9389 12.28 10.9239C12.2712 10.9202 12.3025 10.8865 12.3513 10.8454C12.5276 10.6995 12.7052 10.4588 12.7965 10.243C12.9529 9.86885 12.9692 9.38495 12.8378 8.97339C12.7903 8.82623 12.6915 8.62793 12.6077 8.50945C12.5364 8.40968 12.3388 8.20265 12.2462 8.13156C11.8472 7.82476 11.3131 7.72374 10.7265 7.84347C10.6377 7.86218 10.4376 7.93825 10.3438 7.98814C10.1974 8.06796 10.0674 8.16898 9.93352 8.30616C9.6571 8.59176 9.51326 8.89482 9.45697 9.30888C9.37567 9.90876 9.5833 10.4825 10.0136 10.8441C10.0623 10.8853 10.0949 10.9215 10.0861 10.9239C10.0774 10.9264 10.0036 10.9614 9.92226 11.0013C9.64834 11.1385 9.4207 11.3043 9.19431 11.5313C8.90913 11.8182 8.71401 12.1187 8.56391 12.5028C8.55891 12.5166 8.55016 12.4043 8.5464 12.2534C8.54265 12.1025 8.5339 11.9479 8.52639 11.9104C8.52014 11.873 8.50763 11.8019 8.50013 11.7546C8.42758 11.3043 8.2187 10.8329 7.93602 10.4825C7.79344 10.3054 7.57455 10.1033 7.37442 9.96239C7.28437 9.89878 7.07924 9.77781 7.06048 9.77781C7.03546 9.77781 7.05172 9.75287 7.11426 9.69674C7.36692 9.46976 7.5758 9.11806 7.65085 8.79505C7.71339 8.52442 7.71714 8.15401 7.66085 7.87589C7.60457 7.59653 7.47449 7.30844 7.30188 7.07896C7.21933 6.96921 7.0217 6.77715 6.90663 6.69234C6.72402 6.55765 6.43634 6.42545 6.23997 6.38554C6.01733 6.33939 5.64085 6.32193 5.47949 6.34937ZM6.02984 6.94551C6.6127 7.08769 6.96667 7.44937 7.1005 8.03802C7.12302 8.13655 7.12302 8.43836 7.1005 8.53689C6.98043 9.06194 6.67274 9.41738 6.20244 9.57702C5.82971 9.70298 5.52953 9.68801 5.17806 9.52838C4.6002 9.26398 4.25999 8.59176 4.40508 7.99687C4.47137 7.72374 4.64272 7.43689 4.8391 7.26853C4.95417 7.17 4.99419 7.14256 5.12427 7.07397C5.2531 7.00538 5.34566 6.9717 5.47949 6.94177C5.52828 6.93055 5.57831 6.91932 5.59207 6.91683C5.64835 6.90311 5.93353 6.92182 6.02984 6.94551ZM11.4657 8.40968C11.7071 8.47204 11.9498 8.62169 12.0749 8.78258C12.2862 9.05695 12.385 9.40117 12.335 9.68926C12.2637 10.0971 12.0511 10.4001 11.7171 10.5685C11.5295 10.6633 11.2318 10.7244 11.0792 10.7007C10.8441 10.6633 10.6565 10.5872 10.4864 10.4625C10.1637 10.223 9.96729 9.78405 10.0186 9.41613C10.0924 8.90106 10.4613 8.50446 10.9779 8.38723C11.0955 8.35979 11.3144 8.37102 11.4657 8.40968ZM5.23309 10.1719C5.30314 10.1906 5.36067 10.2118 5.36067 10.2193C5.36067 10.2268 5.35192 10.2605 5.34066 10.2954C5.3294 10.3291 5.31564 10.374 5.31064 10.3952C5.30564 10.4151 5.26311 10.556 5.21683 10.7069C5.12177 11.02 5.06299 11.2145 5.04798 11.2682C5.04297 11.2881 5.00045 11.429 4.95417 11.58C4.8416 11.9491 4.83534 11.9703 4.83534 12.0339C4.83534 12.1524 4.89538 12.2559 4.99044 12.2983C5.03797 12.3195 5.088 12.322 5.74341 12.322C6.23371 12.322 6.4576 12.3183 6.48762 12.3083C6.54141 12.2896 6.62146 12.216 6.64397 12.1636C6.66899 12.105 6.66523 11.9603 6.63772 11.8693C6.6152 11.7995 6.55767 11.6086 6.46011 11.2831C6.44009 11.217 6.40757 11.1073 6.38756 11.0399C6.18118 10.3602 6.1374 10.2093 6.13991 10.2068C6.14116 10.2056 6.20244 10.1894 6.27499 10.1707L6.40882 10.1382L6.54266 10.1894C7.22683 10.4563 7.72339 11.025 7.91101 11.7546C7.95479 11.9242 7.9748 12.1125 7.9748 12.3557V12.5839H5.74841H3.52203V12.448C3.52203 12.1499 3.5558 11.8843 3.62334 11.6498C3.81721 10.9863 4.30001 10.4538 4.94166 10.1993C5.05798 10.1532 5.08675 10.142 5.09801 10.1407C5.10176 10.1395 5.1618 10.1545 5.23309 10.1719ZM5.79844 10.884C5.86473 11.1023 5.86974 11.116 5.886 11.1746C5.89475 11.2058 5.91101 11.2557 5.92102 11.2869C5.93103 11.318 5.94353 11.3617 5.94979 11.3829C5.99857 11.5637 6.05861 11.757 6.07236 11.7845L6.08737 11.8107H5.75342C5.44197 11.8107 5.42071 11.8094 5.42946 11.7882C5.44072 11.7595 5.46574 11.6797 5.48575 11.6111C5.4945 11.58 5.51076 11.5238 5.52327 11.4864C5.53578 11.449 5.55204 11.3929 5.5608 11.3617C5.56955 11.3305 5.58081 11.2919 5.58706 11.2744C5.59207 11.2569 5.61458 11.1846 5.63584 11.1123C5.65711 11.0399 5.68837 10.9377 5.70589 10.8853C5.72215 10.8329 5.7359 10.7805 5.7359 10.7693C5.7359 10.7182 5.76092 10.7631 5.79844 10.884ZM11.3894 11.2931C12.1674 11.3854 12.8153 11.8344 13.1618 12.5216C13.3344 12.8633 13.4032 13.1713 13.4032 13.5966V13.8311H11.183H8.96291V13.6091C8.96291 13.4158 8.98167 13.1938 9.00669 13.0828C9.03296 12.9718 9.04421 12.9294 9.06923 12.8521C9.14428 12.6226 9.22182 12.4642 9.35316 12.2696C9.71713 11.7284 10.3012 11.3742 10.9642 11.2931C11.1418 11.2719 11.2068 11.2719 11.3894 11.2931ZM8.40757 13.185C8.40382 13.2013 8.39631 13.3522 8.39131 13.5218L8.3838 13.8311H5.59081H2.79783L2.72528 13.8049C2.62897 13.77 2.54767 13.6864 2.51765 13.5954C2.49138 13.513 2.49138 13.4769 2.5164 13.3971C2.55017 13.2923 2.64273 13.2025 2.74779 13.1713C2.77531 13.1638 3.83222 13.1589 5.60332 13.1589L8.41507 13.1576L8.40757 13.185Z" fill="#0D152C"/>
</svg>
