<svg width="83" height="83" viewBox="0 0 83 83" fill="none" xmlns="http://www.w3.org/2000/svg">
<path d="M23.9048 15.6999C22.5854 15.9454 21.712 16.2357 20.7915 16.7266C18.2849 18.0626 16.5665 20.404 16.0119 23.2529C15.8584 24.0413 15.8702 25.9083 16.0402 26.6848C16.5831 29.2033 17.9639 31.2426 20.0669 32.6305C20.9473 33.2135 22.0661 33.6926 23.0315 33.9145C23.3336 33.9782 23.3619 33.9995 23.3902 34.16C23.402 34.252 23.4304 35.503 23.4469 36.9286C23.487 39.8059 23.4917 39.8248 23.8694 40.1434C24.2801 40.4927 24.7994 40.4809 25.2691 40.108C25.6585 39.8059 29.3737 36.8531 31.7741 34.9412L32.7914 34.1293H33.9503C34.8119 34.1293 35.1258 34.1458 35.173 34.1977C35.2084 34.2379 35.2462 34.3748 35.2698 34.4999C35.3382 34.8704 35.6238 35.6187 35.8646 36.0695C36.745 37.7146 38.2343 38.8381 40.1462 39.3078C40.4719 39.3881 41.1918 39.4046 45.5206 39.4329L50.5175 39.4684L51.7448 40.2614C54.8959 42.3055 56.6213 43.3794 56.8054 43.4125C57.2397 43.4927 57.6787 43.2803 57.9029 42.8814C58.0233 42.6642 58.028 42.5675 58.0634 41.0026C58.087 40.0938 58.1271 39.3244 58.1555 39.2842C58.1838 39.2441 58.3561 39.1757 58.5331 39.1237C58.9674 38.9986 59.7959 38.5809 60.2396 38.2622C62.1869 36.8696 63.249 34.4196 62.8549 32.1915C62.666 31.1057 62.3191 30.2442 61.7526 29.4441C60.9713 28.3465 59.6283 27.4 58.3561 27.046C58.1342 26.9822 57.9336 26.9138 57.91 26.8925C57.8864 26.8642 57.9053 26.6423 57.9548 26.3898C58.0752 25.7501 58.0752 24.0365 57.9548 23.3922C57.674 21.8957 57.1783 20.6967 56.3734 19.5543C55.0257 17.6471 52.8613 16.231 50.6803 15.825C50.4065 15.773 50.069 15.7046 49.9368 15.6763C49.5474 15.5913 41.4396 15.6078 41.2791 15.6928C40.8614 15.9265 40.6513 16.2593 40.6513 16.6818C40.6513 17.1562 40.9204 17.5102 41.4042 17.6755C41.5411 17.7203 42.7473 17.7392 45.549 17.7392C48.8393 17.7392 49.5851 17.7557 50.0076 17.8242C52.2122 18.2065 54.1122 19.5991 55.1862 21.6267C55.6488 22.5 55.899 23.4701 55.9462 24.5912C55.9816 25.356 55.8896 26.2812 55.7456 26.6636L55.6818 26.817H48.2067C41.9542 26.817 40.6631 26.8288 40.3043 26.8973C37.8496 27.3717 35.9637 29.1301 35.324 31.5565L35.1919 32.0428L33.634 32.0711C32.4397 32.0947 32.0361 32.1159 31.9275 32.1797C31.7788 32.2646 31.2312 32.6942 27.7993 35.4298C26.6404 36.3504 25.6585 37.1198 25.6231 37.1316C25.5429 37.16 25.4744 35.6753 25.4744 33.9287C25.4744 32.9303 25.4296 32.6777 25.2053 32.4157C25 32.1702 24.823 32.09 24.2754 32.0168C22.6137 31.7831 21.2376 31.1034 20.0787 29.9326C18.8797 28.7336 18.1834 27.2726 17.9898 25.5306C17.8529 24.2749 18.155 22.7549 18.7829 21.5724C19.7365 19.762 21.3533 18.4898 23.3902 17.9351L23.9614 17.7746L28.2431 17.7463C33.0676 17.7062 32.8056 17.7345 33.1148 17.2671C33.2399 17.0736 33.2682 16.9697 33.2682 16.6629C33.2682 16.2239 33.1431 15.9996 32.7773 15.766L32.5554 15.6291L28.3752 15.6338C26.0503 15.6432 24.0629 15.6716 23.9048 15.6999ZM57.6527 29.0168C59.1728 29.4747 60.1594 30.433 60.6621 31.9342C60.8392 32.4653 60.851 33.6808 60.6905 34.219C60.1877 35.8523 58.8636 37.0349 57.2703 37.2803C56.6826 37.3653 56.4088 37.5022 56.2129 37.7949C56.0524 38.0356 56.0524 38.0451 56.0194 39.2111C55.9958 39.8554 55.9792 40.3936 55.9745 40.3983C55.9391 40.4715 55.46 40.1764 52.257 38.1206C51.8628 37.8704 51.4285 37.5943 51.2869 37.5093L51.0296 37.3606L45.8039 37.3323C40.7103 37.2969 40.5663 37.2969 40.2359 37.1788C39.0935 36.7894 38.232 36.0766 37.7009 35.0947C36.8724 33.5581 37.125 31.5896 38.3051 30.3103C39.0298 29.529 39.8748 29.0711 40.8472 28.946C41.0408 28.9177 44.8338 28.9012 49.2594 28.9059C56.8242 28.9153 57.3317 28.9201 57.6527 29.0168Z" fill="white"/>
<path d="M42.618 32.1986C42.0138 32.5008 41.8651 33.2726 42.3041 33.7966C42.5094 34.0373 42.7266 34.1341 43.0759 34.1341C43.6754 34.1341 44.0979 33.7281 44.1027 33.1522C44.1074 32.3473 43.319 31.8375 42.618 32.1986Z" fill="white"/>
<path d="M48.5566 32.1986C48.0822 32.4323 47.8367 33.079 48.061 33.511C48.2828 33.9453 48.5637 34.1341 49.0027 34.1341C49.699 34.1341 50.2018 33.5228 50.0365 32.8902C49.8524 32.2222 49.1609 31.9012 48.5566 32.1986Z" fill="white"/>
<path d="M54.4993 32.1869C54.0603 32.3922 53.7959 33.0201 53.9682 33.4614C54.1406 33.8887 54.4946 34.1341 54.9383 34.1341C55.8636 34.1341 56.3262 33.1286 55.7196 32.4371C55.4033 32.0736 54.9572 31.9815 54.4993 32.1869Z" fill="white"/>
<path d="M36.4262 15.799C35.822 16.1814 35.7583 16.9815 36.2893 17.4489C36.7165 17.8265 37.2877 17.8077 37.6937 17.404C38.0926 17.0052 38.1162 16.4269 37.7456 16.0044C37.3798 15.5913 36.877 15.5134 36.4262 15.799Z" fill="white"/>
<path d="M22.9037 46.566C21.1783 46.7265 19.6654 47.4511 18.5065 48.6738C17.7936 49.422 17.2791 50.267 16.977 51.1875C16.7032 52.016 16.6512 52.3582 16.6512 53.4086C16.6512 54.4188 16.7079 54.7846 16.977 55.5683C17.0973 55.9341 17.4726 56.7272 17.6213 56.9396C17.6662 57.0081 17.7063 57.0765 17.7063 57.1001C17.7063 57.1237 17.4656 57.2606 17.1752 57.4022C15.2728 58.3558 13.7268 60.3762 13.309 62.451C13.2736 62.628 13.217 62.8853 13.1886 63.0174C13.1603 63.1496 13.1367 64.4171 13.1367 65.838V68.4202L13.2783 68.6657C13.3633 68.8144 13.5238 68.9749 13.6725 69.0599L13.918 69.2015H23.4254C33.8132 69.2015 33.0862 69.2251 33.419 68.8758C33.7447 68.5335 33.7494 68.4934 33.7494 66.0151C33.7494 63.617 33.7046 62.9419 33.4686 62.0568C32.9422 60.0812 31.4977 58.3157 29.6425 57.3739C29.3923 57.2488 29.1799 57.1332 29.1799 57.1237C29.1799 57.1143 29.3167 56.8381 29.4891 56.5077C29.7983 55.9081 30.0154 55.2803 30.157 54.584C30.2609 54.0978 30.2609 52.6769 30.157 52.1576C29.6897 49.7996 28.0611 47.8406 25.8848 47.0121C24.9431 46.6391 23.8243 46.4739 22.9037 46.566ZM24.589 48.7752C26.2176 49.2261 27.4663 50.4204 27.9761 52.0065C28.113 52.4455 28.1295 52.5777 28.1295 53.3496C28.1295 53.916 28.1012 54.2913 28.0493 54.4636C27.5866 55.9884 26.7818 56.9868 25.5426 57.5981C24.6055 58.0655 23.6118 58.2142 22.6654 58.0324C21.4097 57.7917 20.3924 57.1756 19.6677 56.2173C18.9549 55.2803 18.5891 53.9798 18.7378 52.8822C18.903 51.6147 19.3255 50.7815 20.2389 49.9129C20.9305 49.2615 21.844 48.8225 22.8211 48.6738C23.128 48.6265 24.2963 48.695 24.589 48.7752ZM19.8259 59.1512C20.4891 59.5973 21.379 59.9325 22.3042 60.093C22.9085 60.2016 24.3719 60.1733 24.9313 60.0364C25.6559 59.8641 26.5811 59.4699 27.2326 59.0427C27.6386 58.7807 27.6433 58.7807 28.3797 59.0875C29.8525 59.6917 31.0351 61.0584 31.4812 62.6728C31.5945 63.0717 31.6063 63.2889 31.6299 65.0945L31.6535 67.0819H23.4466H15.2468L15.2634 65.0379C15.2917 62.7885 15.3035 62.6846 15.7142 61.7877C16.3137 60.4683 17.5411 59.3613 18.8652 58.9435C19.3184 58.8043 19.283 58.7925 19.8259 59.1512Z" fill="white"/>
<path d="M55.8537 46.5588C55.4642 46.5989 54.8553 46.7004 54.7113 46.7476C54.631 46.776 54.454 46.8326 54.3124 46.8727C54.1708 46.9129 53.8214 47.0545 53.5311 47.1867C51.886 47.9396 50.5217 49.4596 49.9458 51.1732C49.672 51.9899 49.6153 52.377 49.6083 53.3495C49.6083 54.617 49.79 55.41 50.3518 56.5005C50.5241 56.8309 50.661 57.1047 50.661 57.1165C50.661 57.1283 50.4485 57.2416 50.1983 57.3667C49.4784 57.7326 48.9143 58.148 48.2912 58.7711C47.4226 59.6397 46.8396 60.5933 46.4643 61.7404C46.1551 62.6893 46.1339 62.9159 46.1103 65.6515C46.0819 68.4036 46.0867 68.4839 46.3841 68.8214C46.7381 69.2274 45.8931 69.192 56.4178 69.192H65.9252L66.1707 69.0503C66.3194 68.9654 66.4799 68.8049 66.5648 68.6562L66.7065 68.4107V65.8474C66.7065 63.0504 66.6829 62.7813 66.3288 61.6838C65.9016 60.3525 64.9079 58.9552 63.7773 58.0984C63.4752 57.8648 62.4461 57.2487 62.1558 57.1165C62.151 57.1165 62.2927 56.8191 62.4697 56.4604C63.0456 55.3062 63.1943 54.6783 63.1943 53.3471C63.1943 52.3487 63.1494 52.0513 62.8922 51.2346C62.3658 49.606 61.0936 48.1119 59.5405 47.3117C58.9457 47.0096 58.3013 46.7807 57.7065 46.6674C57.2628 46.5824 56.1889 46.521 55.8537 46.5588ZM57.4233 48.7421C57.5201 48.7704 57.7089 48.8342 57.8505 48.8743C58.5067 49.0631 59.2502 49.5305 59.7978 50.1017C60.3973 50.7295 60.6475 51.1473 60.8953 51.9238C61.3532 53.3353 61.1526 54.7208 60.3241 55.9907C59.7883 56.8121 58.9197 57.4989 58.0181 57.8128C57.1566 58.115 56.3895 58.1834 55.62 58.0418C53.7813 57.6877 52.4737 56.5335 51.8742 54.7515C51.7255 54.3007 51.7137 54.2039 51.7137 53.3801C51.7137 52.6083 51.7302 52.4384 51.8506 52.0678C52.1126 51.2181 52.5587 50.5029 53.1936 49.9152C53.9017 49.2472 54.7136 48.8648 55.797 48.676C56.0236 48.6335 57.2345 48.6831 57.4233 48.7421ZM52.6838 59.0874C53.1983 59.4367 54.0716 59.812 54.7963 60.0079C55.4477 60.1802 56.8285 60.2204 57.5602 60.0929C58.4807 59.9324 59.3186 59.602 60.1235 59.0756L60.5413 58.8065L60.8387 58.8915C61.6388 59.1252 62.4201 59.6114 63.0881 60.303C63.7561 60.9875 64.1502 61.6554 64.4311 62.5878C64.5444 62.9701 64.5562 63.1472 64.5798 65.0378L64.6034 67.0818H56.3966H48.1968L48.2133 65.0944C48.2369 63.2841 48.2487 63.074 48.362 62.6727C48.853 60.8907 50.1039 59.5548 51.8506 58.9387C52.2565 58.7971 52.2565 58.7971 52.6838 59.0874Z" fill="white"/>
</svg>
