<svg width="20" height="20" viewBox="0 0 20 20" fill="none" xmlns="http://www.w3.org/2000/svg">
<g clip-path="url(#clip0_11243_6494)">
<rect x="0.273315" y="0.106567" width="19.7362" height="19.4925" rx="5.13776" fill="white"/>
<path d="M5.91643 3.48606C5.62476 3.56617 5.40463 3.77798 5.31438 4.06551L5.28906 4.14782V8.55408C5.28906 12.6783 5.29016 12.9647 5.30777 13.0284C5.38042 13.2874 5.59064 13.5157 5.84158 13.6045C5.98136 13.6539 6.0507 13.6572 6.97414 13.6572C7.596 13.6572 7.85575 13.6539 7.88216 13.6452C7.96691 13.6166 8.00213 13.5585 8.00213 13.4476C8.00213 13.3686 8.00213 13.3686 7.9537 13.3225C7.92178 13.2907 7.89317 13.2742 7.86345 13.2698C7.84034 13.2654 7.432 13.2621 6.95653 13.2621C6.40401 13.2621 6.07492 13.2578 6.043 13.2501C5.86139 13.2084 5.71611 13.0547 5.67979 12.8682C5.66328 12.7804 5.66438 4.31683 5.68089 4.23891C5.72381 4.04246 5.8735 3.89431 6.07051 3.85809C6.11894 3.84822 6.78483 3.84602 8.55795 3.84822L10.9794 3.85151L10.986 4.42218C10.9937 5.0609 10.9904 5.03785 11.0773 5.21235C11.161 5.38135 11.3316 5.54048 11.5044 5.60962C11.6474 5.66779 11.6794 5.66998 12.2616 5.67766L12.8064 5.68425L12.8119 7.0835C12.8163 8.12059 12.8207 8.49043 12.8306 8.51128C12.8504 8.55737 12.9187 8.60566 12.9726 8.61444C13.0695 8.62871 13.1586 8.58042 13.1916 8.49592C13.207 8.45421 13.2081 8.30935 13.2059 7.00668C13.2015 5.4055 13.2081 5.52841 13.1289 5.3627C13.097 5.29465 13.0364 5.231 12.2352 4.43206C11.4053 3.60348 11.3723 3.57276 11.293 3.53434C11.1301 3.45643 11.3558 3.46191 8.53814 3.46301C6.05621 3.46411 5.99127 3.4652 5.91643 3.48606ZM11.9523 4.70642C12.3607 5.11358 12.4938 5.25295 12.4883 5.26722C12.4828 5.28368 12.4498 5.28478 12.1108 5.28149L11.7388 5.27819L11.6529 5.23759C11.5066 5.16845 11.4064 5.03456 11.3811 4.87762C11.369 4.7997 11.3657 4.18294 11.3778 4.17196C11.3811 4.16757 11.3899 4.16428 11.3965 4.16428C11.4031 4.16428 11.6529 4.40791 11.9523 4.70642Z" fill="#0D152C"/>
<path d="M6.55462 5.29137C6.5161 5.30125 6.46547 5.34624 6.44456 5.38904C6.43135 5.41868 6.42695 5.44831 6.43025 5.49879C6.43465 5.56244 6.43795 5.57342 6.47758 5.61292C6.5095 5.64475 6.53371 5.65902 6.57553 5.6678C6.61516 5.67658 7.0301 5.67877 7.97004 5.67658L9.30731 5.67328L9.35244 5.64365C9.40747 5.60744 9.43279 5.55586 9.43279 5.47574C9.43279 5.40221 9.41407 5.36161 9.35904 5.31991L9.31942 5.28918L7.94803 5.28808C7.19409 5.28698 6.56673 5.28808 6.55462 5.29137Z" fill="#0D152C"/>
<path d="M6.51504 6.42831C6.49523 6.44148 6.46661 6.47002 6.45231 6.49087C6.43029 6.52379 6.42699 6.53916 6.43029 6.60281C6.4347 6.68183 6.45231 6.71694 6.50954 6.75865L6.53926 6.78169L9.22701 6.78499C11.2038 6.78718 11.9225 6.78389 11.9445 6.77511C11.9962 6.75426 12.049 6.68622 12.0567 6.63244C12.0689 6.54355 12.0369 6.46343 11.972 6.42502C11.9379 6.40307 11.8939 6.40307 9.24462 6.40307H6.55246L6.51504 6.42831Z" fill="#0D152C"/>
<path d="M6.51504 7.41604C6.49523 7.42921 6.46661 7.45774 6.45231 7.47859C6.43029 7.51151 6.42699 7.52688 6.43029 7.59053C6.4347 7.67284 6.45341 7.70796 6.51614 7.74966L6.55246 7.7749H9.23692C11.5593 7.7749 11.9258 7.77271 11.9522 7.75954C12.0843 7.6915 12.0986 7.50054 11.9786 7.41823L11.9368 7.39079H9.24462H6.55246L6.51504 7.41604Z" fill="#0D152C"/>
<path d="M8.14195 8.87771C8.06931 8.90515 7.99887 8.96551 7.94934 9.04453C7.92292 9.08513 7.81176 9.2695 7.70279 9.45388C7.43424 9.90602 7.23833 10.2364 7.11285 10.4471C7.05452 10.5436 6.98518 10.6622 6.95656 10.7105C6.8498 10.8893 6.68801 11.1626 6.64288 11.2372C6.54272 11.404 6.54382 11.3997 6.54382 11.539C6.54382 11.6488 6.54713 11.6718 6.56914 11.7124C6.61426 11.798 6.6671 11.8419 6.85861 11.9561C7.15798 12.1349 7.21081 12.1536 7.40012 12.1536C7.49477 12.1536 7.63235 12.1295 7.65547 12.1086C7.67088 12.0943 7.69399 12.0965 7.70059 12.1141C7.70389 12.1218 7.67638 12.1745 7.64006 12.2304C7.55421 12.3599 7.52889 12.44 7.52889 12.5816C7.52889 12.7111 7.55311 12.8 7.61474 12.8955C7.7182 13.0546 7.89761 13.1523 8.08582 13.1523C8.14085 13.1523 8.14635 13.1545 8.15846 13.1819C8.20909 13.307 8.2388 13.3575 8.29494 13.4168C8.4017 13.5276 8.51176 13.5792 8.66695 13.5902L8.76601 13.5968L8.78362 13.6461C8.82544 13.7658 8.90909 13.8744 9.00815 13.9413C9.11821 14.0149 9.15784 14.0248 9.35375 14.0248H9.53315L9.55076 14.0621C9.57828 14.118 9.69605 14.2289 9.77089 14.2684C9.97011 14.3748 10.2332 14.354 10.3983 14.2201C10.4302 14.1938 10.4654 14.1729 10.4764 14.1729C10.4874 14.1729 10.5193 14.1872 10.5468 14.2047C10.5887 14.2311 10.7317 14.3156 10.8473 14.3814C10.9728 14.4528 11.1665 14.4703 11.3052 14.422C11.4097 14.3858 11.4659 14.3496 11.544 14.2684C11.6046 14.2047 11.653 14.1235 11.6827 14.0368C11.6882 14.0204 11.697 14.0182 11.7366 14.0248C11.8379 14.0401 12.0448 14.0434 12.0954 14.0291C12.2836 13.9787 12.4344 13.8294 12.4928 13.6352L12.5104 13.5748L12.6149 13.5682C12.7382 13.5594 12.7943 13.5452 12.8835 13.5013C13.0024 13.4409 13.1322 13.2862 13.1597 13.1687C13.173 13.1128 13.1774 13.1106 13.305 13.1161C13.4899 13.1248 13.6176 13.0831 13.7332 12.9745C13.8091 12.9021 13.8609 12.823 13.8895 12.7363C13.9335 12.6003 13.9137 12.3588 13.8509 12.2699C13.819 12.2249 13.8311 12.2019 13.906 12.1602L13.9764 12.1207L14.0403 12.1371C14.114 12.1558 14.278 12.1591 14.3638 12.1426C14.3969 12.136 14.4508 12.1185 14.4838 12.1031C14.5466 12.0746 14.7557 11.955 14.8789 11.8759C15.0132 11.7903 15.0683 11.6927 15.0683 11.5401C15.0683 11.4425 15.0539 11.392 14.9956 11.2943C14.9736 11.257 14.9472 11.2109 14.9362 11.1933C14.9263 11.1747 14.9021 11.1352 14.8844 11.1055C14.7997 10.9651 14.6335 10.6852 14.617 10.6556C14.6071 10.6369 14.5432 10.5316 14.4772 10.4196C14.4101 10.3077 14.2769 10.0827 14.18 9.92029C13.622 8.98197 13.6363 9.00502 13.5758 8.95015C13.5428 8.91942 13.4943 8.88869 13.4657 8.87881C13.4041 8.85796 13.2401 8.85467 13.1851 8.87442C13.1465 8.88759 12.8329 9.06867 12.7459 9.12793C12.67 9.18061 12.5852 9.27389 12.5434 9.35401C12.4829 9.46924 12.4708 9.5274 12.4708 9.69092C12.4708 9.86103 12.4708 9.85993 12.3629 9.85993C12.2913 9.85993 12.1593 9.82152 12.0129 9.75677C11.806 9.66678 11.6552 9.63276 11.5088 9.64483C11.4593 9.64922 11.2865 9.68653 11.1137 9.73043L10.8055 9.80725L10.7031 9.75677C10.5325 9.67117 10.4577 9.64922 10.3102 9.64373C10.1308 9.63605 10.0383 9.65581 9.77419 9.76116C9.47922 9.87969 9.40438 9.88627 9.23708 9.80945C9.13912 9.76445 9.13582 9.75897 9.13582 9.65471C9.13582 9.49997 9.094 9.37925 8.99714 9.25633C8.97073 9.22231 8.9256 9.17732 8.89588 9.15537C8.83095 9.10489 8.61302 8.97319 8.48865 8.90844C8.3995 8.86235 8.39619 8.86125 8.29053 8.86235C8.2278 8.86235 8.16616 8.86893 8.14195 8.87771ZM8.47544 9.36169C8.56349 9.41327 8.64824 9.46814 8.66365 9.48241C8.74069 9.55484 8.76711 9.68763 8.72308 9.77762C8.71098 9.80177 8.65044 9.90822 8.58661 10.0136C8.52387 10.1189 8.46333 10.221 8.45343 10.2396C8.44242 10.2583 8.4116 10.3099 8.38519 10.3549C8.33346 10.4405 8.22339 10.6238 7.98015 11.0342C7.68518 11.5313 7.62355 11.6334 7.59713 11.6685C7.5333 11.7519 7.38691 11.7882 7.29226 11.7432C7.21411 11.7058 6.95436 11.5478 6.94886 11.5324C6.94666 11.5248 6.96207 11.4875 6.98518 11.449C7.00719 11.4106 7.03471 11.3645 7.04461 11.3459C7.05562 11.3272 7.08644 11.2756 7.11285 11.2306C7.14037 11.1857 7.22072 11.0507 7.29226 10.9299C7.3638 10.8092 7.43534 10.6885 7.45185 10.6611C7.46836 10.6336 7.52889 10.5327 7.58613 10.4361C7.64336 10.3395 7.76223 10.1398 7.85028 9.99163C7.93833 9.84347 8.07041 9.62069 8.14525 9.49448C8.2333 9.34742 8.28613 9.26731 8.29824 9.26731C8.30814 9.26731 8.38739 9.31011 8.47544 9.36169ZM13.3314 9.28597C13.3414 9.29694 13.3821 9.36279 13.4228 9.43193C13.4646 9.50107 13.5846 9.70409 13.6903 9.88188C13.9071 10.2462 14.026 10.4471 14.2153 10.7653C14.2868 10.886 14.3738 11.032 14.4079 11.0891C14.628 11.4556 14.6643 11.5215 14.6533 11.5368C14.6478 11.5467 14.562 11.6005 14.464 11.6587C14.289 11.7596 14.2824 11.7629 14.2164 11.7618C14.1371 11.7618 14.059 11.73 14.0171 11.6795C13.9918 11.6499 13.7937 11.3228 13.5219 10.8608C13.4932 10.8114 13.4503 10.7533 13.4261 10.7324C13.3865 10.6962 13.3799 10.694 13.3028 10.694C13.2379 10.694 13.2159 10.6984 13.1862 10.7181C13.1289 10.7576 13.1069 10.8081 13.1113 10.8915C13.1157 10.9607 13.1201 10.9706 13.2423 11.1769C13.3127 11.2943 13.4272 11.4885 13.4987 11.6071C13.5692 11.7256 13.6264 11.831 13.6264 11.8408C13.6264 11.8584 13.5009 11.9451 13.4734 11.9451C13.4591 11.9451 13.4173 11.9209 12.9936 11.6707C12.8846 11.606 12.6964 11.4951 12.5753 11.4238C12.4542 11.3525 12.2814 11.2493 12.1901 11.1955C12.0998 11.1407 12.0107 11.088 11.992 11.0781C11.9744 11.0682 11.9314 11.043 11.8984 11.0232C11.8654 11.0035 11.8236 10.9782 11.8049 10.9684C11.7873 10.9585 11.6794 10.8948 11.5649 10.8268C11.4516 10.7587 11.3349 10.6918 11.3052 10.6764C11.2116 10.6303 11.1148 10.6468 11.0531 10.7214C11.0256 10.7555 11.019 10.7752 11.0091 10.8641C10.9948 10.9881 10.9585 11.0704 10.8891 11.1341C10.8319 11.1857 10.7516 11.223 10.7053 11.2186L10.6712 11.2153V10.8367V10.458L10.7075 10.3845C10.7461 10.3066 10.8121 10.2386 10.8825 10.2056C10.9431 10.176 11.5121 10.0355 11.5682 10.0355C11.6299 10.0355 11.6783 10.0509 11.8665 10.1277C12.1086 10.2254 12.1835 10.244 12.3541 10.244C12.452 10.244 12.5236 10.2386 12.5797 10.2254C12.6733 10.2034 12.6568 10.1936 12.736 10.3187C12.791 10.4065 12.8483 10.4372 12.9407 10.4273C13.0541 10.4152 13.1157 10.3373 13.1069 10.2177C13.1014 10.1573 13.0915 10.1343 12.9925 9.96968C12.933 9.86981 12.878 9.77104 12.8703 9.75019C12.8307 9.63934 12.8835 9.51424 13.0024 9.43851C13.1025 9.37486 13.2907 9.26731 13.3028 9.26731C13.3094 9.26731 13.3226 9.27609 13.3314 9.28597ZM10.3806 10.052C10.3983 10.0619 10.4126 10.0739 10.4126 10.0794C10.4126 10.0849 10.3961 10.1178 10.3751 10.153C10.3542 10.1881 10.3256 10.2506 10.3113 10.2934C10.286 10.3691 10.286 10.3768 10.286 10.8696V11.3689L10.3113 11.4161C10.3443 11.4776 10.4192 11.5522 10.4808 11.5851C10.5237 11.6082 10.5424 11.6104 10.6712 11.6104C10.789 11.6104 10.8286 11.606 10.8913 11.5862C11.0531 11.5346 11.2116 11.4073 11.2975 11.2603C11.3217 11.2186 11.3481 11.1835 11.3558 11.1802C11.3624 11.1769 11.4229 11.2065 11.4879 11.2449C11.6717 11.3547 12.2462 11.6938 12.4542 11.8167C12.7877 12.0131 12.9914 12.1338 13.0981 12.1975C13.1553 12.2315 13.2401 12.2809 13.2852 12.3072C13.4415 12.3961 13.4811 12.4269 13.5042 12.4763C13.5329 12.5355 13.5329 12.563 13.5042 12.6233C13.4679 12.6957 13.3755 12.744 13.3061 12.7243C13.2885 12.7188 13.2324 12.6903 13.1829 12.6606C13.1333 12.631 12.9693 12.5344 12.8175 12.4444C12.6667 12.3555 12.4531 12.2293 12.3442 12.1646C11.7476 11.8123 11.7796 11.8277 11.6904 11.8408C11.6332 11.8496 11.5759 11.888 11.5517 11.9341C11.5418 11.9528 11.5352 11.9956 11.5352 12.0351C11.5352 12.124 11.5583 12.1624 11.642 12.214C11.7289 12.2677 12.1659 12.5267 12.1692 12.5267C12.1703 12.5267 12.2154 12.5531 12.2693 12.586C12.3222 12.6178 12.4399 12.6881 12.5302 12.7407C12.6193 12.7934 12.7107 12.8516 12.7305 12.8691C12.7745 12.9076 12.7954 12.969 12.7855 13.0261C12.7756 13.0766 12.7129 13.1468 12.6612 13.1644C12.6039 13.183 12.5544 13.1698 12.4553 13.1106C12.4058 13.0809 12.255 12.991 12.1185 12.9108C11.9821 12.8307 11.7718 12.7056 11.6519 12.6343C11.4207 12.4982 11.3712 12.4774 11.3052 12.4883C11.2006 12.5059 11.15 12.5706 11.15 12.6859C11.15 12.755 11.1533 12.7671 11.183 12.8022C11.2105 12.8362 11.2997 12.8966 11.4417 12.9767C11.4604 12.9866 11.5539 13.0425 11.6508 13.0996C11.7476 13.1567 11.872 13.2302 11.9259 13.262C11.981 13.2939 12.0415 13.3356 12.0613 13.3542C12.1296 13.4179 12.1351 13.5155 12.0723 13.5869C12.0129 13.6538 11.9479 13.6736 11.8797 13.6439C11.8467 13.6297 11.8291 13.6187 11.434 13.3849C11.0663 13.1665 11.0751 13.1709 10.9926 13.1764C10.9178 13.1808 10.877 13.2039 10.8396 13.2598C10.7945 13.3279 10.8055 13.4442 10.8627 13.5013C10.8803 13.5188 10.9717 13.5781 11.0652 13.633C11.1588 13.6889 11.249 13.7493 11.2645 13.7669C11.3217 13.8349 11.3162 13.9304 11.2512 13.9951C11.1951 14.0511 11.1335 14.0687 11.0773 14.0456C10.986 14.0083 10.7207 13.8426 10.7207 13.8239C10.7207 13.814 10.7306 13.7756 10.7428 13.7405C10.7604 13.69 10.7648 13.6472 10.7648 13.5485C10.7637 13.4343 10.7604 13.4124 10.7328 13.341C10.6778 13.2028 10.5865 13.1051 10.4533 13.0414C10.4159 13.0239 10.3773 13.0041 10.3685 12.9997C10.3553 12.9921 10.3531 12.9701 10.3564 12.8867C10.363 12.6979 10.3091 12.5476 10.1913 12.4302C10.0846 12.3237 9.97891 12.2776 9.81381 12.2644L9.72686 12.2579L9.71366 12.214C9.67954 12.0987 9.59699 11.9901 9.49133 11.9198C9.38016 11.8463 9.32073 11.8299 9.16334 11.8299C9.02026 11.831 8.94651 11.8485 8.85846 11.9067C8.83645 11.922 8.80783 11.9341 8.79683 11.9341C8.78582 11.9341 8.7528 11.9089 8.72308 11.8781C8.65815 11.8123 8.55689 11.753 8.47104 11.7311C8.38959 11.7091 8.2333 11.7102 8.15626 11.7322C8.0539 11.7618 8.04729 11.7618 8.04069 11.7454C8.03629 11.7355 8.08582 11.6422 8.15405 11.527C8.22009 11.4161 8.34777 11.201 8.43692 11.0507C8.52717 10.8992 8.64714 10.6973 8.70437 10.6007C8.76271 10.5041 8.83425 10.3834 8.86397 10.3318C8.94871 10.187 8.97073 10.1551 8.98944 10.1486C8.99824 10.1453 9.02906 10.153 9.05768 10.1672C9.17545 10.2243 9.2712 10.244 9.4363 10.244C9.62561 10.2429 9.64432 10.2386 9.97011 10.1134C10.0505 10.0827 10.1418 10.0498 10.1737 10.041C10.2398 10.0224 10.3322 10.0278 10.3806 10.052ZM8.38299 12.1229C8.47104 12.1635 8.51616 12.2623 8.48204 12.3402C8.45453 12.4049 8.23 12.7056 8.19038 12.732C8.14635 12.7616 8.07261 12.766 8.02528 12.7407C7.98236 12.7188 7.93943 12.6661 7.92402 12.6156C7.90751 12.5586 7.92953 12.5114 8.0572 12.3336C8.18597 12.1558 8.19588 12.1437 8.24981 12.1196C8.30594 12.0932 8.32245 12.0932 8.38299 12.1229ZM9.23048 12.2293C9.25579 12.2403 9.28991 12.2688 9.30752 12.2919C9.33394 12.3259 9.33944 12.3435 9.33944 12.3939C9.33944 12.4642 9.35265 12.4422 9.04337 12.8724C8.84195 13.1523 8.82875 13.1676 8.76491 13.1918C8.72308 13.2083 8.71098 13.2083 8.67135 13.1951C8.5833 13.1665 8.51837 13.0678 8.53708 12.991C8.54588 12.9558 8.5855 12.8977 8.83205 12.5542C9.03126 12.2765 9.06318 12.2392 9.11491 12.2227C9.16774 12.2052 9.17985 12.2063 9.23048 12.2293ZM9.86224 12.6804C9.94919 12.7243 9.98441 12.8263 9.94259 12.9076C9.93048 12.9306 9.84243 13.0579 9.74668 13.1907C9.65092 13.3235 9.55737 13.4541 9.53866 13.4815C9.48472 13.5605 9.40768 13.6308 9.36696 13.6385C9.25249 13.6615 9.13362 13.5507 9.15233 13.4387C9.15673 13.4102 9.22497 13.307 9.37906 13.0919C9.50013 12.9229 9.6146 12.766 9.63331 12.7429C9.70045 12.6584 9.77749 12.6376 9.86224 12.6804ZM10.2508 13.3871C10.3036 13.4069 10.3322 13.4321 10.3586 13.4837C10.385 13.5353 10.385 13.5704 10.3586 13.6231C10.3289 13.6856 10.1748 13.8931 10.144 13.9139C10.1055 13.9381 10.0361 13.9468 9.99102 13.9326C9.90847 13.9051 9.84573 13.7921 9.87325 13.7208C9.88976 13.6791 10.0471 13.453 10.0802 13.4223C10.1022 13.4036 10.1748 13.3729 10.1979 13.3729C10.2045 13.3729 10.2277 13.3795 10.2508 13.3871Z" fill="#0D152C"/>
</g>
<defs>
<clipPath id="clip0_11243_6494">
<rect x="0.273315" y="0.106567" width="19.7362" height="19.4925" rx="5.13776" fill="white"/>
</clipPath>
</defs>
</svg>
