<svg width="83" height="83" viewBox="0 0 83 83" fill="none" xmlns="http://www.w3.org/2000/svg">
<path d="M41.7511 14.624C40.1952 14.7897 39.1203 14.9853 38.1053 15.2845C35.1085 16.1753 32.5928 17.6391 30.3879 19.7865C27.9182 22.1918 26.2541 25.0573 25.3933 28.3716C25.002 29.8815 24.8524 31.1382 24.8478 33.0233C24.8432 34.2339 24.8593 34.4756 24.9445 34.7748C25.2552 35.7806 25.9894 36.5609 26.9653 36.9337C27.3796 37.0879 27.619 37.1179 28.9931 37.1524L30.4408 37.1869L30.694 37.8015C31.8701 40.6946 34.1165 43.1712 36.8831 44.6166C38.1122 45.2657 39.2952 45.6615 40.7406 45.9147C41.178 45.9884 41.5508 46.0643 41.5669 46.0804C41.636 46.1541 41.4933 46.1955 40.9639 46.2347C38.5932 46.4303 35.4469 47.4108 33.3685 48.6122C30.8827 50.0416 29.0276 51.6389 27.5523 53.6068C26.2841 55.3008 24.979 57.5219 24.4105 58.9466C24.1297 59.6532 23.6924 61.1631 23.5267 61.9894C23.2505 63.3957 23.0503 65.4925 23.1193 66.2957C23.239 67.7435 23.75 68.8344 24.4865 69.2349C24.6591 69.3316 25.5821 69.3385 42.9571 69.3385C60.3322 69.3385 61.2574 69.3339 61.4278 69.2349C62.162 68.8321 62.6729 67.7412 62.7949 66.2957C62.8686 65.4625 62.6522 63.2875 62.3576 61.8743C62.162 60.9214 61.6971 59.3885 61.3817 58.6313C60.7442 57.126 59.4299 54.9855 58.0351 53.1764C56.4677 51.144 53.4986 48.8976 50.9668 47.8251C49.9725 47.3993 48.7112 46.9643 47.8366 46.7456C47.0149 46.5339 45.2634 46.2278 44.879 46.2278C44.5522 46.2278 44.3335 46.1817 44.3335 46.1127C44.3335 46.062 44.4532 46.039 45.482 45.848C46.6006 45.6477 48.0829 45.1253 49.1577 44.5499C51.8668 43.0975 54.0487 40.6693 55.2202 37.7922L55.4734 37.1846L57.0938 37.1501C57.9891 37.134 58.7809 37.0995 58.8614 37.0764C59.4299 36.9038 59.6187 36.8233 59.9363 36.6276C60.636 36.1857 61.2344 35.3525 61.3886 34.5884C61.4853 34.128 61.4278 31.1152 61.315 30.4086C61.1539 29.4327 61.0963 29.145 60.9306 28.4844C60.5923 27.1058 60.1734 25.9918 59.5128 24.666C58.6221 22.8984 57.538 21.4046 56.0557 19.9292C54.0119 17.89 51.7148 16.4676 48.9598 15.5193C47.9609 15.1741 47.0356 14.9623 45.5442 14.7275C45.024 14.647 42.2436 14.5664 41.7511 14.624ZM45.1368 17.5171C46.2623 17.7059 46.6075 17.7749 47.2336 17.9544C48.3245 18.2537 49.0887 18.546 50.0462 19.0224C53.7449 20.866 56.5736 24.132 57.8786 28.0724C57.9753 28.3647 58.0559 28.6179 58.0559 28.6294C58.0559 28.6455 57.4828 28.6525 56.7808 28.6455L55.501 28.6294L55.3698 28.2566C55.1857 27.7387 54.6172 26.5695 54.2628 25.9779C53.5677 24.8294 52.3386 23.4231 51.3121 22.5899C48.8884 20.6312 46.0873 19.6392 42.9295 19.6208C40.8787 19.6093 39.0075 20.0466 37.1179 20.9765C34.1948 22.4127 31.7366 25.0872 30.6134 28.0793L30.4063 28.6294L29.3314 28.6455C28.7353 28.6501 28.2566 28.6409 28.2566 28.611C28.2566 28.5074 28.5328 27.6973 28.7675 27.1057C30.3188 23.2252 33.6148 19.9684 37.5299 18.4539C38.0638 18.2467 38.4367 18.1156 38.7359 18.035C39.5806 17.8117 39.8269 17.7473 40.2297 17.6736C40.6256 17.6 41.0905 17.5309 41.9237 17.4389C42.3081 17.3905 44.7639 17.455 45.1368 17.5171ZM43.8755 22.9789C45.9723 23.1676 47.9125 24.0124 49.5306 25.4256C52.5688 28.0909 53.6758 32.5629 52.2396 36.3284C51.5215 38.1996 50.4029 39.6704 48.778 40.8649C47.2336 42.0065 45.6777 42.5751 43.6729 42.7316C40.2504 42.9893 37.0189 41.4979 34.9635 38.7014C34.6528 38.2825 34.0567 37.2951 34.0567 37.203C34.0567 37.18 35.3594 37.157 36.9568 37.157C38.8004 37.157 39.9535 37.134 40.1376 37.0949C40.5105 37.0143 40.8442 36.7726 41.0445 36.4297C41.1826 36.1949 41.2056 36.0913 41.2056 35.7185C41.2056 35.3341 41.1826 35.2535 41.033 35.0073C40.9363 34.8531 40.7452 34.6459 40.6071 34.5469L40.3609 34.3743L36.7542 34.3582L33.1429 34.3467L33.1038 34.013C33.0417 33.5135 33.0578 31.9622 33.1314 31.4466C33.3432 30.0219 33.9232 28.542 34.7564 27.3014C36.0775 25.3197 38.2365 23.7983 40.5151 23.2367C41.7396 22.9329 42.6349 22.8638 43.8755 22.9789ZM29.7848 32.9404V34.3467L28.8481 34.3306C27.5454 34.3076 27.5799 34.3582 27.6535 32.5399L27.6927 31.5295H28.7376H29.7779L29.7848 32.9404ZM58.6198 32.7333C58.6244 33.3823 58.6198 33.9669 58.6036 34.036C58.5415 34.2938 58.3228 34.3398 57.1789 34.3398H56.1271V32.9335L56.134 31.5272L57.3677 31.5387L58.6013 31.5548L58.6198 32.7333ZM43.284 49.648C43.7213 49.6825 43.7558 49.6986 43.7903 49.8252C43.8409 50.037 45.1805 56.3826 45.2196 56.6288C45.2657 56.882 45.2196 56.9902 44.8859 57.393C44.4785 57.8924 43.2609 59.2826 43.1067 59.4253L42.9571 59.568L42.7799 59.3954C42.4531 59.0916 40.8212 57.1628 40.736 56.9833C40.6555 56.8176 40.69 56.615 41.3782 53.3375C41.7741 51.4318 42.1193 49.8229 42.1308 49.7723C42.17 49.6319 42.5198 49.5904 43.284 49.648ZM39.0512 49.9886C39.0512 50.0347 38.9891 50.3224 38.9131 50.6308C38.7589 51.2269 38.3331 53.2086 37.9488 55.0983C37.6449 56.5805 37.6265 57.126 37.8636 57.8142C38.0523 58.3551 38.3285 58.7625 39.2998 59.9455C41.1089 62.139 42.0204 63.1494 42.338 63.3151C42.43 63.3611 42.6648 63.3957 42.9295 63.3957C43.4244 63.3957 43.6821 63.2921 43.9975 62.9814C44.5383 62.4359 47.1277 59.2895 47.6317 58.5599C47.7514 58.3827 47.9125 58.0651 47.9885 57.8487C48.2187 57.2296 48.2187 56.9004 48.0115 55.7289C47.6502 53.6505 47.1277 51.0313 46.8929 50.1083L46.8469 49.9426L47.0701 49.9817C48.1151 50.1659 50.1704 51.0336 51.5767 51.8875C53.0521 52.7782 54.4009 53.9497 55.676 55.4412C57.1973 57.2204 58.553 59.9547 59.0571 62.2564C59.3494 63.5821 59.5404 65.1564 59.4645 65.6904L59.4253 65.9781H42.9571H26.482L26.4475 65.6674C26.3738 65.0759 26.5902 63.3542 26.9124 61.9871C27.4073 59.9087 28.6455 57.3999 30.0242 55.7059C32.2223 53.0015 34.8876 51.1878 38.1881 50.1474C39.0812 49.8666 39.0512 49.8735 39.0512 49.9886Z" fill="white"/>
</svg>
