<svg width="83" height="83" viewBox="0 0 83 83" fill="none" xmlns="http://www.w3.org/2000/svg">
<path d="M58.8215 12.7305C57.207 12.9949 56.5886 14.9705 57.7617 16.1034C57.9104 16.2521 58.1488 16.4221 58.2904 16.4834C58.5477 16.5991 60.4619 17.0735 60.6578 17.0735C60.7192 17.0735 60.7522 17.1136 60.7404 17.1561C60.7192 17.2033 58.7577 18.3434 56.3691 19.6935C53.9875 21.0365 44.1048 26.6092 34.4204 32.071C24.736 37.5281 16.7015 42.0741 16.5646 42.1685C16.0901 42.5084 15.7573 43.1527 15.7573 43.757C15.7573 44.2196 15.9957 44.8026 16.3285 45.1283C16.7298 45.5296 17.0555 45.6712 17.6786 45.6995C18.1672 45.7279 18.2427 45.7137 18.6629 45.5036C18.9131 45.3809 19.3427 45.1496 19.6141 44.9867C19.8926 44.8239 20.1239 44.694 20.1357 44.694C20.1499 44.694 20.3128 44.6067 20.4945 44.4981C20.8674 44.281 21.323 44.0237 21.8658 43.7239C22.0688 43.6083 22.3544 43.4454 22.4913 43.3581C22.633 43.2708 22.7628 43.2023 22.784 43.2023C22.7982 43.2023 23.0484 43.0654 23.334 42.8978C23.6125 42.7279 23.8556 42.5933 23.8768 42.5933C23.891 42.5933 24.1554 42.4447 24.4598 42.2605C24.7714 42.0835 25.2057 41.8333 25.4299 41.7106C25.6542 41.5879 26.544 41.0922 27.3984 40.6036C28.26 40.1221 29.0955 39.6477 29.2655 39.5509C29.4354 39.4565 30.6227 38.7838 31.9114 38.0568C33.2001 37.3298 34.3874 36.6595 34.5573 36.5627C34.7273 36.4683 35.0789 36.27 35.3386 36.1213C35.6029 35.9726 35.9499 35.7744 36.1128 35.68C36.2827 35.5855 36.5683 35.4227 36.743 35.3212C36.9271 35.2126 37.0899 35.1253 37.1017 35.1253C37.1135 35.1253 37.3873 34.9766 37.6918 34.7996C38.0034 34.6155 38.5345 34.318 38.8649 34.1269C40.9821 32.9396 42.429 32.1253 43.1277 31.717C43.569 31.4668 43.942 31.2543 43.9561 31.2543C43.9632 31.2543 44.4778 30.9687 45.082 30.6241C45.6933 30.2701 46.3778 29.8854 46.6021 29.7626C46.8263 29.6399 47.3621 29.3425 47.7893 29.097C48.2165 28.8515 48.7051 28.5801 48.875 28.4857C49.8853 27.9216 54.9411 25.0585 55.2408 24.8815C55.4368 24.7658 55.6138 24.6714 55.6279 24.6714C55.6492 24.6714 55.8923 24.5345 56.1779 24.3669C56.4564 24.197 56.6995 24.0624 56.7137 24.0624C56.7279 24.0624 57.0795 23.8665 57.495 23.6211C57.908 23.3756 58.2621 23.1797 58.2762 23.1797C58.2975 23.1797 58.5406 23.0428 58.8262 22.8752C59.1047 22.7053 59.3478 22.5707 59.3549 22.5707C59.3691 22.5707 60.1291 22.1435 61.0449 21.6266C61.9678 21.105 62.7349 20.7037 62.749 20.7297C62.7703 20.758 62.7278 21.0082 62.6617 21.2867C62.3289 22.6651 62.2959 22.854 62.336 23.2953C62.4233 24.1852 63.0889 24.8767 64.0189 25.0467C64.6231 25.1553 65.4516 24.7894 65.8859 24.2253C66.1361 23.8854 66.1644 23.7839 67.0661 19.9555C67.1817 19.4669 67.3517 18.7682 67.439 18.3953C67.8733 16.5967 67.9016 16.448 67.8591 16.094C67.7978 15.4827 67.4248 14.8997 66.8961 14.5952C66.6035 14.4181 66.4288 14.3709 65.2345 14.0853C64.8804 14.0027 64.0401 13.8068 63.3674 13.644C59.2227 12.655 59.2487 12.6621 58.8215 12.7305Z" fill="white"/>
<path d="M58.6046 29.8994C56.1758 30.2724 54.1931 32.1653 53.6904 34.6036C53.5676 35.2078 53.5605 35.7436 53.5605 49.7521C53.5605 63.7394 53.5676 64.2964 53.6904 64.8511C53.8603 65.6111 54.0373 66.0667 54.4103 66.704C55.09 67.8582 56.2844 68.8495 57.533 69.2838C58.3945 69.5836 58.7485 69.6166 61.09 69.6497C64.1513 69.6969 64.8712 69.6025 66.0844 69.0195C66.8846 68.6394 67.5289 68.1367 68.0459 67.5136C68.5557 66.8952 68.7728 66.5293 69.0301 65.8708C69.4385 64.8252 69.4101 65.9723 69.4101 49.686V34.6885L69.2543 34.1858C68.643 32.2645 67.3212 30.8412 65.5486 30.1945C64.6871 29.8829 64.706 29.8829 61.7745 29.8687C60.2261 29.8522 58.8005 29.8664 58.6046 29.8994ZM64.3189 33.9993C64.883 34.2707 65.2701 34.7334 65.433 35.3305C65.4944 35.5689 65.5085 38.8993 65.4943 49.8867L65.4731 64.1383L65.3315 64.4499C65.1403 64.8582 64.7485 65.25 64.3213 65.4601L63.9814 65.63H61.5054H59.0294L58.6895 65.4459C58.2623 65.2217 57.8894 64.8346 57.7124 64.4404C57.5755 64.1359 57.5707 64.0675 57.5755 49.7474C57.5755 37.9056 57.5896 35.3117 57.6628 35.1016C57.7784 34.7829 58.0428 34.4289 58.3473 34.1999C58.8099 33.853 58.9114 33.8412 61.5361 33.8412C63.9719 33.8364 63.979 33.8364 64.3189 33.9993Z" fill="white"/>
<path d="M38.7681 41.8239C38.381 41.8711 37.411 42.1827 36.9696 42.3998C35.2867 43.2472 34.038 44.9442 33.7524 46.7971C33.6911 47.17 33.6769 49.6059 33.6911 55.9929L33.7123 64.6789L33.861 65.2147C34.4322 67.2021 35.931 68.7434 37.8854 69.3476C38.728 69.6049 39.4456 69.6663 41.6855 69.6663C44.2583 69.6663 45.0372 69.5648 46.0639 69.0951C47.6595 68.361 48.8255 67.0038 49.3684 65.2548L49.5241 64.745L49.5454 55.9575C49.5595 50.0119 49.5383 47.0331 49.4911 46.7475C49.1111 44.5005 47.5509 42.7491 45.2826 42.0033L44.7067 41.8192L41.8554 41.7979C40.2882 41.7956 38.8956 41.8026 38.7681 41.8239ZM44.3739 45.9025C44.8011 46.0984 45.2283 46.5209 45.4337 46.967L45.5895 47.3069L45.6107 55.4854C45.632 63.8198 45.6249 64.077 45.3794 64.5727C45.2236 64.8843 44.8035 65.2855 44.4282 65.4625L44.0954 65.6325H41.6194C39.1623 65.6325 39.1434 65.6325 38.8224 65.4767C38.3881 65.2596 38.0341 64.9008 37.824 64.4523L37.647 64.0723V55.6908V47.3093L37.7886 46.9977C38.1002 46.3321 38.6714 45.8836 39.3417 45.7751C39.5258 45.7467 40.6588 45.7279 41.8531 45.742C43.9514 45.7538 44.0411 45.7538 44.3739 45.9025Z" fill="white"/>
<path d="M18.9184 50.7743C18.1654 50.8828 17.0443 51.3171 16.3928 51.7585C15.857 52.1244 15.1513 52.8372 14.7972 53.3801C14.3842 54.0055 14.1718 54.4516 13.9758 55.1314C13.8271 55.6483 13.8271 55.7026 13.8271 60.166V64.6789L13.9829 65.2218C14.54 67.136 15.9514 68.6419 17.7972 69.2934C18.6186 69.579 19.5014 69.6663 21.7342 69.6663C24.51 69.6663 25.3455 69.5365 26.4856 68.9393C27.9372 68.1722 29.0371 66.8079 29.4855 65.2124C29.6342 64.6907 29.6413 64.568 29.6626 60.4681C29.6909 56.0236 29.6697 55.6767 29.377 54.8151C28.7114 52.8608 27.2267 51.4753 25.1614 50.8923C24.8074 50.7908 24.3613 50.7695 21.9372 50.7554C20.3912 50.7554 19.0317 50.7625 18.9184 50.7743ZM24.5501 54.9001C24.9443 55.0842 25.3503 55.5043 25.5603 55.9528C25.7019 56.2573 25.7019 56.3257 25.7019 60.1683V64.07L25.5249 64.45C25.3149 64.8984 24.9608 65.2572 24.5265 65.4744C24.2079 65.6301 24.1866 65.6301 21.7295 65.6301H19.2559L18.9231 65.4673C18.3472 65.1817 17.979 64.7403 17.8232 64.1573C17.7004 63.6829 17.6816 56.7459 17.809 56.2431C17.9506 55.6601 18.392 55.1291 18.9491 54.8789C19.2417 54.749 19.3834 54.7372 21.7319 54.7372C24.1913 54.7372 24.2102 54.7372 24.5501 54.9001Z" fill="white"/>
</svg>
