<svg width="83" height="83" viewBox="0 0 83 83" fill="none" xmlns="http://www.w3.org/2000/svg">
<path d="M40.2355 15.8796C40.1246 15.9079 39.924 15.9622 39.7942 15.9976C39.3835 16.1156 38.876 16.3375 38.496 16.5806C38.2906 16.7104 37.2662 17.5743 36.2277 18.4972C35.1821 19.4153 34.2757 20.2013 34.212 20.2438C34.094 20.3193 34.0184 20.3193 29.8312 19.9842C27.7919 19.826 27.2986 19.7954 26.8336 19.8308C26.5575 19.8473 26.2506 19.8898 26.1586 19.9181C26.0594 19.9464 25.8635 20.0007 25.7172 20.0479C24.9595 20.2603 24.013 20.9 23.4654 21.5703C22.9178 22.2336 22.7479 22.5994 22.29 24.0699C21.9548 25.1344 21.4898 26.6143 21.2798 27.2729C21.1736 27.6128 21.0036 28.1674 20.8974 28.5073C20.7912 28.8472 20.6802 29.154 20.6496 29.1942C20.6024 29.2532 19.4552 29.9636 19.0445 30.1879C18.9808 30.2233 18.3577 30.5868 17.6637 31.0045C16.9698 31.4152 16.1343 31.9156 15.8109 32.1092C14.652 32.796 14.0525 33.4192 13.578 34.4081C13.2263 35.1493 13.0776 35.7724 13.0776 36.5135C13.0776 37.3538 13.1839 37.7362 13.9132 39.53C14.2082 40.2405 14.4891 40.9297 14.5481 41.0595C14.796 41.6118 15.6646 43.781 15.6646 43.8471C15.6646 43.8872 15.6126 44.0288 15.5536 44.1634C15.4946 44.2979 15.1476 45.1382 14.7842 46.028C14.1374 47.6212 14.0666 47.7912 13.8778 48.209C13.6488 48.7259 13.2429 49.814 13.1839 50.0736C13.1555 50.227 13.113 50.6566 13.0965 51.0248C13.0729 51.5842 13.0918 51.7825 13.1909 52.1719C13.4553 53.1774 13.8731 53.9351 14.508 54.57C15.0367 55.0987 15.0202 55.094 19.3703 57.6691C20.2577 58.1931 21.0272 58.6675 21.0862 58.7218C21.1381 58.7738 21.275 59.1986 21.3931 59.6967C22.1342 62.7887 22.3797 63.806 22.493 64.1931C23.017 66.079 24.4804 67.4267 26.3899 67.7784C26.8195 67.8539 27.8604 67.8374 29.2175 67.7265C30.7399 67.5967 33.7848 67.3677 33.9429 67.3677C34.0845 67.3677 34.3135 67.5377 35.1066 68.2387C35.6471 68.7155 36.5416 69.4967 37.0869 69.9782C38.4795 71.2009 38.909 71.4652 39.9853 71.7485C40.7501 71.9538 41.503 71.9491 42.2772 71.7438C42.8956 71.5785 43.6415 71.2386 44.0239 70.9389C44.2882 70.7383 44.3944 70.6438 46.6037 68.706C47.8263 67.625 48.1497 67.3724 48.2842 67.3724C48.4424 67.3724 51.4872 67.6014 53.0214 67.7312C54.3857 67.8421 55.4195 67.861 55.8491 67.7831C57.4069 67.4952 58.7287 66.4967 59.4061 65.1089C59.6469 64.6038 59.7885 64.0916 60.4871 61.1695C60.676 60.3929 60.8813 59.5361 60.9521 59.26L61.0819 58.7596L63.4635 57.3363C67.096 55.1601 67.1975 55.0964 67.6672 54.6385C68.3187 53.9988 68.8026 53.168 68.9843 52.382C69.0244 52.205 69.0787 51.9996 69.107 51.9241C69.1354 51.8486 69.159 51.5134 69.159 51.1712C69.159 50.43 69.0126 49.8187 68.576 48.766C68.4178 48.3789 67.9528 47.2365 67.5421 46.2381C67.1314 45.2326 66.742 44.305 66.683 44.1681C66.624 44.0335 66.572 43.8919 66.572 43.8518C66.572 43.7881 67.4312 41.6472 67.6885 41.0642C67.7475 40.9344 68.0284 40.2476 68.3234 39.5348C68.812 38.3404 68.9229 38.0171 69.0929 37.3538C69.1684 37.0588 69.1755 35.9187 69.1047 35.7323C69.0764 35.6567 69.0221 35.449 68.9819 35.2744C68.8875 34.8283 68.458 33.9691 68.1063 33.5041C67.941 33.287 67.6295 32.9683 67.4123 32.7866C67.1881 32.6096 65.7011 31.682 64.1031 30.7166C62.5052 29.7583 61.1645 28.9416 61.1221 28.9062C61.0867 28.8661 60.9332 28.3303 60.7822 27.719C60.6358 27.1006 60.4069 26.1494 60.2771 25.6018C59.6492 23.003 59.5666 22.7387 59.1181 22.0447C58.8703 21.6506 58.3015 21.051 57.8955 20.7513C57.5839 20.5153 56.9608 20.1801 56.6658 20.0928C55.5777 19.7576 55.3676 19.7529 52.403 19.9865C48.9805 20.258 48.1355 20.3146 48.0695 20.2863C48.0341 20.2698 47.1584 19.5098 46.1293 18.5987C45.1002 17.6923 44.1254 16.852 43.9601 16.734C43.1435 16.1463 42.079 15.804 41.0735 15.8158C40.7241 15.8206 40.3488 15.8442 40.2355 15.8796ZM41.6281 19.177C41.9397 19.295 42.2395 19.5404 44.4393 21.4806C45.8437 22.7269 46.6556 23.3972 46.8492 23.4845C47.0616 23.5837 47.2481 23.6262 47.5242 23.6262C47.8948 23.6262 51.7209 23.35 53.2504 23.2084C53.6682 23.1683 54.3432 23.1376 54.7492 23.1329C55.4549 23.1281 55.5021 23.1329 55.7665 23.2863C56.1654 23.527 56.425 23.8622 56.5666 24.3201C56.6728 24.6789 56.8782 25.5026 57.4022 27.7119C57.8837 29.7229 58.0654 30.4333 58.1598 30.6505C58.3133 30.9904 58.6012 31.25 59.2952 31.6607C59.6303 31.8613 61.0772 32.7299 62.517 33.5891C64.0748 34.5238 65.2337 35.2531 65.3848 35.3995C65.7082 35.7157 65.8852 36.176 65.8545 36.6174C65.8262 36.9408 65.7365 37.1768 63.7208 42.0556C63.1614 43.408 63.0858 43.6889 63.1614 44.0831C63.2015 44.3073 64.0205 46.3868 64.3958 47.2271C64.4548 47.3569 64.8018 48.1901 65.1653 49.0799C65.9182 50.921 65.9584 51.1145 65.7483 51.6904C65.6728 51.884 65.5241 52.1247 65.4013 52.2498C65.2125 52.4386 64.0253 53.168 59.9277 55.6062C59.2645 56.0004 58.6343 56.4064 58.5281 56.5126C58.1221 56.8949 58.1693 56.7297 57.1048 61.1624C56.4935 63.7375 56.51 63.6785 56.1182 64.0727C55.5942 64.5896 55.3959 64.6132 53.0781 64.4315C50.6021 64.2261 48.7398 64.0845 47.9278 64.0373C47.3165 63.9972 47.2929 64.0019 46.9294 64.1718C46.7241 64.271 46.3653 64.5188 46.1411 64.7241C45.1592 65.6116 42.1663 68.2103 41.9916 68.3284C41.5266 68.6399 40.9814 68.6871 40.481 68.4511C40.1694 68.3048 39.9523 68.1277 37.219 65.7178C36.3552 64.9602 35.5196 64.271 35.3733 64.1883C35.1254 64.0585 35.0216 64.042 34.5023 64.042C34.1789 64.0467 33.5322 64.0774 33.0625 64.1175C32.5928 64.1577 31.71 64.2285 31.094 64.2757C30.4827 64.3229 29.5834 64.3937 29.0948 64.4338C28.6133 64.4739 27.884 64.5094 27.478 64.5094C26.6542 64.5094 26.4796 64.4574 26.1019 64.0916C25.7951 63.7965 25.6959 63.5558 25.4623 62.5692C25.3442 62.0806 25.146 61.2521 25.0162 60.7163C24.8863 60.1805 24.6645 59.2411 24.5111 58.6298C24.1169 56.9776 24.1004 56.9303 23.7534 56.5716C23.5174 56.3237 22.9886 55.9839 21.2491 54.95C20.0382 54.2325 18.5984 53.3757 18.0461 53.0523C17.4985 52.7243 16.9533 52.3655 16.8353 52.2475C16.7125 52.1247 16.5638 51.884 16.4883 51.6881C16.2759 51.1121 16.3184 50.9186 17.0713 49.0775C17.4348 48.1901 17.7818 47.3545 17.8408 47.2247C18.2043 46.4127 19.0351 44.3026 19.0705 44.0973C19.0988 43.9627 19.0988 43.7267 19.0705 43.5685C19.0351 43.3325 18.353 41.5764 17.9588 40.7008C17.8998 40.5709 17.5292 39.6717 17.1303 38.7016C16.342 36.7685 16.283 36.5489 16.46 36.0202C16.637 35.5033 16.8943 35.2862 18.4828 34.3397C19.2759 33.87 20.4159 33.1878 21.0154 32.8338C21.6149 32.475 22.3018 32.069 22.5449 31.9227C23.0689 31.6111 23.2742 31.4341 23.456 31.1178C23.5905 30.8889 23.6684 30.6599 24.2207 28.885C24.3742 28.3964 24.5158 27.9385 24.5441 27.8559C24.5724 27.7733 24.6904 27.3909 24.8085 27.0038C24.9265 26.6167 25.0728 26.1517 25.1318 25.9747C25.1908 25.7977 25.3608 25.2642 25.5071 24.7922C25.7361 24.0581 25.814 23.8929 26.0193 23.6568C26.43 23.1919 26.6259 23.1211 27.4898 23.1281C27.8958 23.1329 28.5708 23.1635 28.9886 23.2037C30.511 23.3382 34.3442 23.6214 34.7195 23.6214C35.0263 23.6214 35.1726 23.586 35.4252 23.4562C35.6305 23.3571 36.5369 22.5971 37.9342 21.3579C40.3323 19.236 40.5377 19.0896 41.1207 19.1014C41.2953 19.1061 41.5243 19.1415 41.6281 19.177Z" fill="white"/>
<path d="M39.6476 25.8377C37.384 26.0902 36.0269 26.4207 34.2283 27.1595C29.366 29.1587 25.5801 33.2491 23.9231 38.2931C23.536 39.4639 23.2528 40.8682 23.123 42.2325C23.0474 43.0799 23.0828 45.4591 23.1867 46.1129C23.392 47.4229 23.4109 47.5291 23.6446 48.4354C25.0207 53.8075 29.0356 58.4055 34.2094 60.5345C35.7625 61.1694 37.0725 61.5211 38.9112 61.7925C39.7113 61.9105 42.6617 61.8917 43.4973 61.7642C44.1605 61.6651 45.1613 61.4692 45.5248 61.3771C45.6357 61.3488 45.7962 61.3016 45.8765 61.2827C46.4595 61.1246 47.6751 60.7068 47.7411 60.6478C47.7577 60.6242 47.8167 60.6076 47.8592 60.6076C47.9064 60.6076 48.3171 60.4259 48.7773 60.2087C50.4579 59.4039 51.7466 58.5447 53.1581 57.2985C55.5397 55.1931 57.4444 52.2261 58.3673 49.1978C58.7025 48.0743 58.8205 47.5574 59.0306 46.2356C59.1533 45.4237 59.1769 42.537 59.0589 41.7085C58.8937 40.5095 58.5538 39.0272 58.2351 38.0925C56.2784 32.3782 51.6168 27.9761 45.8788 26.4231C45.7962 26.4065 45.6381 26.3593 45.5272 26.3286C45.1755 26.2342 44.1747 26.0407 43.5586 25.9463C42.9992 25.8613 40.148 25.7787 39.6476 25.8377ZM43.3509 29.2366C45.2203 29.5717 46.2423 29.8998 47.7884 30.6764C49.1455 31.3514 50.4154 32.2743 51.5507 33.4167C53.8662 35.7275 55.2541 38.5079 55.7662 41.8525C55.8654 42.5228 55.8654 45.1806 55.7662 45.8509C55.3131 48.8084 54.2604 51.1475 52.3627 53.4157C50.2643 55.92 47.2667 57.695 44.026 58.3417C42.9261 58.5589 42.7089 58.5778 41.1157 58.5778C40.0347 58.5778 39.3525 58.5542 39.0575 58.5022C37.1055 58.1553 35.9655 57.7965 34.4714 57.0436C31.6272 55.6156 29.3448 53.3331 27.9215 50.4936C27.2346 49.1176 26.916 48.1829 26.6044 46.644C26.2575 44.9398 26.2575 42.7636 26.6044 41.0594C26.9113 39.5181 27.2323 38.5835 27.9215 37.2097C29.5548 33.9478 32.3943 31.3774 35.8215 30.0556C37.0158 29.5906 38.2739 29.2908 39.7019 29.1327C40.2117 29.0713 42.8742 29.1469 43.3509 29.2366Z" fill="white"/>
<path d="M48.9072 37.349C48.7774 37.3891 48.5956 37.467 48.4965 37.5189C48.4021 37.5661 46.3509 39.5819 43.9411 41.9917C41.5312 44.4016 39.5202 46.3772 39.473 46.3772C39.4258 46.3772 38.1559 45.1428 36.6524 43.6369C35.1465 42.131 33.8412 40.8564 33.7421 40.8045C33.2653 40.5401 32.8121 40.4977 32.3613 40.67C31.7736 40.8942 31.4502 41.2695 31.3039 41.8926C31.2213 42.2632 31.2992 42.681 31.5092 43.0563C31.5848 43.1861 33.2016 44.843 35.1064 46.736C38.897 50.5149 38.7625 50.4039 39.4753 50.4039C40.2047 50.4039 39.886 50.6801 45.4894 45.0885C48.3006 42.2891 50.6562 39.8911 50.7341 39.7636C51.2817 38.8242 50.8049 37.6582 49.7404 37.3419C49.4359 37.2475 49.2117 37.2546 48.9072 37.349Z" fill="white"/>
</svg>
