<svg width="83" height="83" viewBox="0 0 83 83" fill="none" xmlns="http://www.w3.org/2000/svg">
<path d="M40.8258 12.1336C40.8069 12.1666 40.6747 12.2138 40.5426 12.2398C40.2003 12.2988 39.6008 12.6812 39.4214 12.9455C39.3412 13.0635 39.1641 13.4011 39.032 13.689C38.8998 13.9793 38.6755 14.4656 38.5386 14.763C38.3947 15.0651 38.2814 15.3294 38.2814 15.3436C38.2814 15.3578 38.1822 15.582 38.0571 15.844C37.5025 17.0312 37.2924 17.4844 37.2924 17.5104C37.2924 17.5246 37.1484 17.8456 36.9619 18.235C36.7849 18.6245 36.6315 18.9478 36.6315 18.9596C36.6315 18.9738 36.5135 19.2429 36.3624 19.5662C35.9612 20.4372 35.5245 21.379 35.3144 21.8605C35.2295 22.0375 35.0383 22.4671 34.8801 22.8022C34.722 23.1445 34.5898 23.4277 34.5898 23.4419C34.5898 23.4678 34.3798 23.9305 33.8251 25.1083C33.7 25.3726 33.6008 25.5969 33.6008 25.6157C33.6008 25.6299 33.4569 25.9509 33.2704 26.3404C33.0934 26.7298 32.94 27.0532 32.94 27.065C32.94 27.0839 32.8337 27.3223 32.2484 28.5803C32.1634 28.7573 31.9982 29.0028 31.8731 29.1208C31.63 29.3521 31.5969 29.3592 28.8542 29.5693C28.1815 29.6212 27.1336 29.7085 26.5151 29.7605C25.9015 29.8124 25.0399 29.8927 24.6033 29.9257C24.169 29.9658 23.2319 30.0366 22.5286 30.098C21.8228 30.1499 20.7418 30.242 20.1234 30.2963C19.5097 30.3482 18.424 30.4355 17.7182 30.4945C14.376 30.7613 14.1518 30.7872 13.7694 30.9595C13.2218 31.2097 13.0117 31.4009 12.7733 31.8824C12.5751 32.2719 12.5491 32.3828 12.5562 32.7911C12.5703 33.6479 12.7663 33.917 14.612 35.5976C15.3886 36.3033 16.4578 37.2852 16.9912 37.7714C18.7827 39.4189 22.5522 42.8721 23.7182 43.9319C24.3507 44.5054 25.1344 45.2371 25.4577 45.5534L26.0431 46.127L26.003 46.5684C25.977 46.8115 25.918 47.175 25.8637 47.3779C25.8047 47.5833 25.6725 48.1356 25.5616 48.61C25.4506 49.0774 25.3185 49.6439 25.2642 49.861C25.2122 50.0782 25.106 50.5195 25.0329 50.85C24.7827 51.905 24.7095 52.2213 24.5065 53.0899C24.3956 53.5573 24.2634 54.1238 24.2091 54.3409C24.1619 54.5581 24.0321 55.1056 23.9188 55.5588C23.8079 56.0144 23.6544 56.6469 23.5836 56.975C23.5105 57.2984 23.4066 57.7469 23.3523 57.964C23.3004 58.1812 23.2131 58.5494 23.1611 58.7878C23.0289 59.3542 22.6867 60.7964 22.5286 61.4573C22.3374 62.248 22.0683 63.414 22.0352 63.5721C22.0164 63.6524 22.0494 63.8813 22.1013 64.0867C22.3704 65.1205 23.0903 65.6823 24.11 65.6681C24.5443 65.661 24.6576 65.6351 25.0329 65.4297C25.6796 65.0804 26.062 64.8632 26.6662 64.5139C26.9636 64.3369 27.2209 64.1905 27.2327 64.1905C27.2516 64.1905 27.49 64.0584 27.759 63.8931C28.0352 63.7279 28.2736 63.5957 28.2925 63.5957C28.3066 63.5957 28.6489 63.4046 29.0501 63.1685C29.4514 62.9301 29.7936 62.7413 29.8078 62.7413C29.8267 62.7413 30.7094 62.2409 30.962 62.0828C31.0139 62.0497 31.1673 61.9648 31.2924 61.8987C31.4175 61.8255 32.2224 61.377 33.0721 60.8979C33.9218 60.4187 34.8447 59.8971 35.1138 59.7437C35.3829 59.5926 35.7653 59.3755 35.9564 59.2551C36.1476 59.1442 36.3199 59.0498 36.3317 59.0498C36.3459 59.0498 36.6551 58.8727 37.0233 58.6532C37.3915 58.4361 37.7031 58.2567 37.7149 58.2567C37.7267 58.2567 37.991 58.1127 38.3073 57.9262C38.6236 57.7492 38.888 57.5958 38.8998 57.5958C38.9116 57.5958 39.15 57.4636 39.4214 57.2984C39.8699 57.034 39.969 57.001 40.323 57.001C40.7196 57.001 40.7455 57.0152 42.0036 57.7728C42.7093 58.2 43.3608 58.5966 43.4458 58.6485C43.5307 58.7004 44.1373 59.071 44.7959 59.4722C45.4544 59.8688 46.061 60.2441 46.146 60.296C46.2309 60.3479 46.9768 60.8035 47.8076 61.3039C48.6314 61.8042 50.0075 62.6422 50.8595 63.1614C55.4386 65.9561 55.9272 66.2251 56.4016 66.2251C56.6707 66.2251 57.4094 65.9419 57.6809 65.7365C57.9712 65.5123 58.2285 65.078 58.3536 64.5965C58.4527 64.2 58.4456 64.089 58.2143 62.9962C58.1624 62.7578 58.0703 62.3164 58.009 62.0072C57.95 61.698 57.8579 61.2567 57.8107 61.0183C57.7588 60.7799 57.6714 60.3526 57.6124 60.0623C57.5534 59.772 57.4614 59.3448 57.4142 59.1064C57.3622 58.868 57.197 58.0726 57.0507 57.3267C56.8996 56.5832 56.7533 55.8562 56.7202 55.7122C56.6943 55.5683 56.614 55.1977 56.555 54.8885C56.496 54.5793 56.4039 54.1497 56.3567 53.9326C56.3095 53.7154 56.2246 53.2858 56.1585 52.9766C56.0995 52.6674 56.0192 52.2851 55.9814 52.1198C55.9484 51.9546 55.8894 51.6714 55.8634 51.4944C55.8304 51.3102 55.6321 50.3614 55.4291 49.3866C55.2191 48.3787 55.0397 47.3638 55.0279 47.0404L54.9948 46.4739L55.6793 45.8815C56.0475 45.5511 58.2898 43.6274 60.6407 41.6046C62.9987 39.5747 65.0427 37.8163 65.1938 37.6912C65.3378 37.5661 66.0954 36.9146 66.8743 36.249C67.9813 35.3002 68.3377 34.9579 68.5289 34.6487C68.9774 33.917 68.9892 33.3316 68.5691 32.5457C68.1867 31.821 67.6462 31.6039 65.6493 31.3915C64.8515 31.3112 63.9617 31.2144 62.4535 31.0421C62.1112 31.002 61.4244 30.9241 60.9381 30.8698C60.4495 30.8108 59.6919 30.7258 59.2576 30.6716C58.8233 30.6173 58.0656 30.5323 57.577 30.4733C57.0884 30.4214 56.4511 30.3411 56.1608 30.3081C55.8705 30.2679 55.3229 30.216 54.9429 30.1759C54.5605 30.1428 54.046 30.0838 53.7887 30.0437C53.3662 29.9847 52.8068 29.9257 50.7982 29.7133C50.4229 29.6731 50.0547 29.6141 49.9744 29.5811C49.6912 29.4702 49.415 29.0807 49.1105 28.3632C48.9453 27.9619 48.7801 27.5795 48.7471 27.5064C48.714 27.4332 48.478 26.8667 48.2207 26.2554C47.9634 25.637 47.7274 25.0752 47.6943 25.0044C47.6684 24.9313 47.489 24.504 47.2978 24.0485C47.1137 23.5929 46.9343 23.1657 46.9013 23.0926C46.8281 22.9273 45.8415 20.5765 45.3057 19.3042C45.0885 18.7779 44.8714 18.2563 44.8242 18.15C44.7723 18.0391 44.5409 17.4773 44.2978 16.8991C44.0594 16.3184 43.8376 15.785 43.8045 15.7118C43.7715 15.6387 43.5024 15.0061 43.205 14.3027C42.9076 13.6041 42.5913 12.9384 42.4993 12.8322C42.3222 12.6269 41.7274 12.2516 41.5646 12.2516C41.5127 12.2516 41.3805 12.2044 41.2743 12.1525C41.076 12.0604 40.8777 12.0462 40.8258 12.1336ZM41.4182 20.5198C41.5292 20.6378 41.6614 20.8432 41.7086 20.9683C41.7558 21.0934 41.8337 21.2845 41.8809 21.3955C41.9281 21.5017 42.1783 22.0941 42.4355 22.7125C42.6928 23.3262 42.9288 23.8927 42.9619 23.9635C42.9949 24.0343 43.172 24.4639 43.3584 24.9194C43.5425 25.375 43.7219 25.8022 43.755 25.8754C43.788 25.9486 44.024 26.5079 44.2813 27.1264C44.5386 27.74 44.7746 28.3065 44.8077 28.3773C44.9328 28.6747 45.072 28.9957 45.301 29.5646C45.4332 29.8879 45.57 30.216 45.5984 30.2892C46.3041 31.9627 46.5614 32.5221 46.6912 32.7014C47.0004 33.1239 47.692 33.4402 48.4638 33.5181C48.681 33.537 49.2144 33.5984 49.6511 33.6503C51.2584 33.8344 52.2474 33.9477 53.1443 34.0468C53.6518 34.1058 54.4354 34.1908 54.891 34.2451C55.3465 34.297 56.1301 34.3844 56.6376 34.4434C57.1451 34.5024 57.9169 34.5944 58.3512 34.6416C58.7855 34.6936 59.4724 34.7667 59.8665 34.8139C60.5392 34.88 60.6053 34.8989 60.8083 35.0901C60.9924 35.2671 61.0184 35.3332 61.0184 35.6377V35.987L60.2749 36.6337C59.8595 36.9902 58.8186 37.8847 57.9547 38.6306C57.0908 39.3741 55.3725 40.8516 54.1404 41.9114C52.9012 42.9783 51.7352 43.9814 51.544 44.1443C51.1617 44.4747 50.9587 44.758 50.7793 45.2371C50.6353 45.6195 50.6613 46.0538 50.8713 46.9956C50.9445 47.3378 51.0366 47.7532 51.0625 47.9185C51.0956 48.0837 51.2726 48.9735 51.4638 49.8964C51.799 51.5368 51.8792 51.9121 52.0775 52.9271C52.1294 53.1961 52.2427 53.7178 52.3159 54.0813C52.3961 54.4448 52.4882 54.8861 52.5212 55.0702C52.5731 55.3535 52.9437 57.152 53.1207 57.9687C53.1467 58.1127 53.1727 58.3771 53.1797 58.5541C53.1797 58.8232 53.1467 58.9176 53.0027 59.0686C52.8517 59.2268 52.7785 59.2527 52.4433 59.2527C52.1672 59.2527 52.0019 59.2126 51.8768 59.1276C51.7777 59.0545 51.2962 58.7594 50.81 58.4549C49.1483 57.4471 47.548 56.477 47.4158 56.3991C47.3427 56.3519 47.1656 56.248 47.0193 56.156C46.8753 56.0639 46.1767 55.6344 45.4709 55.2142C44.7652 54.787 43.5331 54.0411 42.7353 53.5596C41.9375 53.0781 41.1397 52.6367 40.9627 52.5777C40.3773 52.3795 39.9076 52.4597 39.1901 52.8751C39.0178 52.9743 38.8596 53.0592 38.8478 53.0592C38.836 53.0592 38.5245 53.2363 38.1563 53.4558C37.7881 53.6729 37.4765 53.8523 37.4576 53.8523C37.4435 53.8523 37.1885 53.9963 36.8911 54.1686C36.3907 54.4589 35.567 54.9263 34.8943 55.3016C33.5772 56.0403 32.9966 56.3684 32.6992 56.5478C32.508 56.6587 32.3357 56.7532 32.3239 56.7532C32.3121 56.7532 32.0808 56.8853 31.8023 57.0506C31.3208 57.3338 30.0108 58.0726 29.2578 58.488C29.0596 58.5989 28.7834 58.7571 28.6512 58.8444C28.2878 59.0686 27.9667 59.0498 27.6953 58.7854C27.5041 58.6013 27.4782 58.5352 27.4782 58.2189C27.4782 58.0206 27.5183 57.7114 27.5702 57.5273C27.6174 57.3362 27.7095 56.9727 27.7614 56.7225C27.8676 56.2669 28.1839 54.9239 28.368 54.1521C28.4199 53.9349 28.5403 53.4275 28.6324 53.0309C28.7244 52.6297 28.8566 52.0679 28.9298 51.78C29.0029 51.492 29.1139 50.9822 29.1941 50.6588C29.2673 50.3284 29.3711 49.887 29.4254 49.6698C29.5316 49.2214 29.881 47.758 30.0108 47.1655C30.0627 46.9484 30.1548 46.5589 30.2209 46.3087C30.3979 45.6289 30.3719 45.0766 30.1477 44.6093C29.9423 44.1821 29.7582 43.9767 28.6654 42.9877C28.25 42.6054 27.5844 41.9988 27.1831 41.6306C25.8377 40.3914 24.0344 38.7368 23.2296 38.0122C20.265 35.3096 20.298 35.3497 20.298 35.0476C20.298 34.8163 20.3382 34.7313 20.5482 34.5331L20.7914 34.2947L21.7142 34.2215C22.2217 34.1814 23.1446 34.1035 23.7559 34.0492C24.3743 33.9973 25.4554 33.9099 26.1611 33.8509C26.8668 33.7919 27.9526 33.7069 28.5663 33.6527C29.1847 33.6007 30.0887 33.5205 30.5749 33.4803C33.3695 33.2561 33.5135 33.2372 33.877 33.098C34.3042 32.9328 34.6347 32.7014 34.807 32.4512C34.9179 32.286 35.4537 31.205 35.4537 31.146C35.4537 31.1318 35.6048 30.8108 35.7841 30.4214C35.9682 30.0319 36.1146 29.7085 36.1146 29.6967C36.1146 29.6779 36.2137 29.4536 36.3388 29.1893C36.8935 28.002 37.1036 27.5489 37.1036 27.5229C37.1036 27.5087 37.2357 27.2255 37.3939 26.8832C37.9084 25.7951 38.1586 25.2499 38.1586 25.2216C38.1586 25.2074 38.2766 24.9383 38.423 24.6291C38.567 24.3199 38.8054 23.8054 38.9493 23.4962C39.0933 23.187 39.2137 22.9155 39.2137 22.9108C39.2137 22.8967 39.3317 22.6276 39.4828 22.3042C39.6268 21.9879 39.8581 21.4993 39.9832 21.2303C40.1083 20.9612 40.3065 20.6378 40.4175 20.5174C40.5898 20.3404 40.6677 20.3074 40.9249 20.3074C41.1822 20.3074 41.253 20.3428 41.4182 20.5198Z" fill="white"/>
<path d="M21.4119 16.1532C20.7133 16.4034 20.338 16.7668 20.0949 17.4183C19.9108 17.9116 19.9367 18.3483 20.194 18.8935C20.3521 19.2357 20.7416 19.6512 23.1845 22.1083C24.7258 23.6637 26.1113 25.002 26.2553 25.087C26.9138 25.4835 27.4142 25.5473 28.009 25.3183C28.6015 25.1011 28.8847 24.858 29.1302 24.3553C29.3143 23.98 29.3473 23.8407 29.3473 23.4466C29.3473 22.5827 29.3332 22.5638 26.1255 19.349C24.2868 17.4985 23.194 16.4553 23.0146 16.3632C22.3159 16.0139 21.9336 15.962 21.4119 16.1532Z" fill="white"/>
<path d="M59.1041 16.1531C58.9389 16.2121 58.7029 16.3113 58.5778 16.3844C58.4527 16.4505 57.0813 17.7676 55.533 19.3112C52.3229 22.5142 52.2899 22.5473 52.2852 23.4088C52.2852 24.3718 52.7265 24.9973 53.6612 25.3466C54.1758 25.5378 54.5912 25.4906 55.2828 25.1483C55.4079 25.0893 56.8052 23.7439 58.3866 22.1625C61.6297 18.9194 61.6297 18.9194 61.6344 18.0367C61.6344 17.6685 61.6014 17.5103 61.4574 17.2389C61.1269 16.5922 60.8106 16.3372 60.1002 16.1177C59.7249 16.0068 59.4865 16.0139 59.1041 16.1531Z" fill="white"/>
<path d="M61.0346 47.4511C60.2911 47.7084 59.8757 48.1568 59.6633 48.9405C59.5523 49.3417 59.5523 49.3818 59.6633 49.7784C59.8214 50.3519 60.1117 50.7603 60.513 51.0034C60.8364 51.1946 61.2966 51.4306 63.5507 52.599C64.1314 52.9011 64.948 53.3236 65.3635 53.5407C67.188 54.4896 67.6247 54.6997 67.9669 54.7988C68.2973 54.8979 68.3634 54.8979 68.7246 54.8059C69.6144 54.5746 70.129 54.0553 70.3131 53.1985C70.4051 52.7642 70.2989 52.2685 70.0227 51.8012C69.7796 51.3928 69.5625 51.2347 68.4484 50.6682C68.007 50.4369 67.2234 50.0286 66.7159 49.7666C64.4359 48.5793 64.0275 48.3693 63.2297 47.9609C62.3659 47.5196 61.8537 47.3213 61.5492 47.3354C61.4571 47.3331 61.2187 47.385 61.0346 47.4511Z" fill="white"/>
<path d="M41.4676 62.72C40.9059 62.1677 40.3205 61.9954 39.5251 62.1559C39.1144 62.2338 39.079 62.2527 38.7745 62.5288C38.3307 62.9254 38.0947 63.3667 38.0546 63.8365C38.0263 64.2117 38.0192 64.7287 37.9767 67.266C37.9625 67.9198 37.9484 68.8403 37.9389 69.3077C37.9012 71.3635 37.9059 71.8474 37.9696 72.1991C38.0286 72.539 38.0569 72.598 38.3001 72.8812C38.9019 73.5751 39.5982 73.8041 40.4456 73.5893C40.8752 73.4784 41.2717 73.1645 41.5667 72.7089C41.824 72.3077 41.8689 72.0433 41.8807 70.7947C41.8901 70.2967 41.909 69.4115 41.9184 68.8403C41.9656 66.2699 41.9727 65.812 41.9845 64.9151C41.9963 63.945 41.9444 63.3974 41.7981 63.1307C41.7603 63.0434 41.6069 62.8546 41.4676 62.72Z" fill="white"/>
<path d="M21.1264 50.0522C21.353 49.2969 21.2326 48.6997 20.7204 48.0695C20.4608 47.7438 20.4277 47.7202 20.0406 47.5809C19.4836 47.3732 18.9832 47.3709 18.5489 47.5526C18.2043 47.7037 17.7441 47.9373 15.4781 49.0845C14.8928 49.3771 14.0737 49.7926 13.6536 50.0026C11.8173 50.9279 11.3901 51.1568 11.1115 51.3787C10.8377 51.5888 10.8 51.6407 10.6631 51.99C10.3303 52.8468 10.4506 53.5667 11.0384 54.2182C11.3381 54.5462 11.8008 54.7516 12.3413 54.7988C12.8157 54.8389 13.0706 54.7563 14.1823 54.1851C14.6284 53.9609 15.4168 53.5644 15.929 53.3071C18.2256 52.1505 18.6339 51.9428 19.4317 51.5345C20.2956 51.0931 20.7558 50.791 20.9211 50.5384C20.9777 50.4629 21.0721 50.241 21.1264 50.0522Z" fill="white"/>
</svg>
