<svg width="20" height="20" viewBox="0 0 20 20" fill="none" xmlns="http://www.w3.org/2000/svg">
<g clip-path="url(#clip0_11243_6343)">
<rect x="0.273315" y="0.165405" width="19.7362" height="19.4925" rx="5.13776" fill="white"/>
<g clip-path="url(#clip1_11243_6343)">
<path d="M6.07994 3.17216C6.06769 3.17772 6.0454 3.18216 6.02981 3.18216C5.97967 3.18438 5.82815 3.23771 5.74347 3.28436C5.49836 3.41879 5.33347 3.65208 5.27999 3.93869C5.26328 4.02757 5.26328 13.287 5.27999 13.3704C5.33904 13.6625 5.50393 13.8914 5.75127 14.0236C5.84152 14.0725 6.00418 14.1258 6.05989 14.1258C6.07994 14.1258 6.09888 14.1302 6.10223 14.1369C6.11225 14.1524 12.777 14.1524 12.7871 14.1369C12.7904 14.1302 12.8094 14.1258 12.8294 14.1258C12.8851 14.1258 13.0478 14.0714 13.1336 14.0247C13.3519 13.9058 13.489 13.737 13.5748 13.4826L13.6115 13.3759L13.6149 11.8429L13.6171 10.3098L14.8025 9.12667C15.4554 8.47567 16.0181 7.90799 16.0537 7.86356C16.1885 7.69692 16.2721 7.47585 16.2721 7.28255C16.2721 7.09258 16.1919 6.87706 16.0615 6.71487C15.8821 6.49047 15.5524 6.3516 15.2805 6.38382C15.0945 6.40715 14.914 6.48602 14.7647 6.61156C14.719 6.64933 14.4683 6.89373 14.2076 7.15368C13.7887 7.5725 13.7307 7.62693 13.6995 7.62693C13.6784 7.62693 13.6561 7.61693 13.6416 7.60138L13.6182 7.57583L13.6149 6.21051L13.6115 4.84409L13.5759 4.73855C13.5302 4.60635 13.4656 4.49193 13.3698 4.3775C13.294 4.28641 12.4383 3.441 12.3448 3.36546C12.2746 3.30769 12.1464 3.24104 12.0573 3.21438C11.8701 3.15883 12.0317 3.16105 8.96557 3.16216C7.39129 3.16216 6.0922 3.16661 6.07994 3.17216ZM11.1237 3.70207C11.1426 3.71873 11.1437 3.75984 11.1437 4.55636C11.1437 5.364 11.1448 5.3951 11.166 5.45176C11.1938 5.5273 11.2317 5.5673 11.3097 5.60396L11.3721 5.63284L12.2189 5.63617C12.9776 5.6395 13.0667 5.64173 13.0845 5.65728C13.1035 5.67394 13.1046 5.74282 13.1046 6.96483V8.2546L12.3704 8.9878C11.7999 9.5577 11.6317 9.73212 11.6139 9.771C11.6016 9.79877 11.4846 10.142 11.3543 10.5342L11.117 11.2474L11.1303 11.3007C11.1593 11.4074 11.2295 11.4774 11.3365 11.5062L11.3899 11.5196L12.1052 11.283C12.4985 11.153 12.8383 11.0386 12.8595 11.0286C12.8807 11.0186 12.9185 10.9941 12.9442 10.9741C12.9954 10.933 13.0511 10.9252 13.0845 10.9563C13.1035 10.973 13.1046 11.0241 13.1046 12.1372C13.1046 13.1448 13.1024 13.307 13.0879 13.357C13.0678 13.4226 13.001 13.5126 12.9364 13.5592C12.8361 13.6314 13.1091 13.6259 9.43462 13.6259H6.09777L6.03538 13.6025C5.93288 13.5648 5.83817 13.467 5.79918 13.3593C5.78804 13.3281 5.7847 12.4005 5.7847 8.65231V3.98424L5.80809 3.92203C5.83706 3.84315 5.92842 3.74873 6.00975 3.71096L6.0688 3.68318H8.58564C10.912 3.68318 11.1047 3.68429 11.1237 3.70207ZM11.9604 3.7154C12.0005 3.73428 12.1453 3.87204 12.5252 4.24864C13.099 4.81854 13.0901 4.80743 13.1013 4.97184C13.1068 5.05516 13.1057 5.06294 13.0823 5.08849L13.0567 5.11626H12.3804C11.7297 5.11626 11.703 5.11515 11.6852 5.09516C11.6674 5.07516 11.6662 5.02295 11.6662 4.39972C11.6662 3.76539 11.6674 3.72429 11.6863 3.70318C11.7164 3.66985 11.8846 3.67763 11.9604 3.7154ZM15.5156 6.91706C15.559 6.93261 15.5969 6.95927 15.6437 7.00593C15.7284 7.09036 15.7563 7.15813 15.7563 7.28255C15.7563 7.43808 15.7395 7.46585 15.5078 7.70136C15.2382 7.97465 15.2894 7.97798 14.9741 7.66359C14.7647 7.45474 14.7312 7.41697 14.7312 7.38809C14.7312 7.3592 14.7602 7.32587 14.9296 7.15924C15.1925 6.89928 15.197 6.89595 15.3574 6.89484C15.4298 6.89373 15.4699 6.89928 15.5156 6.91706ZM14.6165 8.02908C14.846 8.25793 14.8538 8.26682 14.8538 8.31014C14.8538 8.35458 14.8471 8.36125 14.0605 9.14555C13.3118 9.89209 13.2639 9.93764 13.2272 9.93764C13.1915 9.93764 13.1692 9.91875 12.9464 9.69657C12.7224 9.47327 12.7035 9.45105 12.7035 9.41551C12.7035 9.37885 12.7481 9.33219 13.4968 8.58565C14.2834 7.80135 14.2912 7.79357 14.3357 7.79357C14.3792 7.79357 14.3881 7.80135 14.6165 8.02908ZM12.5832 10.0565C12.8829 10.3542 12.874 10.3298 12.7236 10.4787L12.6199 10.5809L12.2835 10.6919C12.0985 10.7542 11.9303 10.8041 11.9114 10.8041C11.8634 10.8041 11.8345 10.7764 11.8345 10.7297C11.8345 10.7086 11.8846 10.5409 11.947 10.3565L12.0584 10.021L12.1609 9.91764C12.3102 9.76767 12.2846 9.75878 12.5832 10.0565Z" fill="#0D152C"/>
<path d="M7.96838 5.66943C7.61631 5.76608 7.3077 5.85606 7.28318 5.86828C7.21522 5.90383 7.14503 5.98048 7.10604 6.06047L7.0715 6.13268L7.06816 7.03252C7.0637 7.99457 7.06481 8.00679 7.11941 8.10789C7.1584 8.18121 7.25199 8.26342 7.33109 8.29563L7.3946 8.32118L8.47531 8.32452C9.26635 8.32674 9.57274 8.32452 9.61731 8.31563C9.75323 8.28674 9.85796 8.20454 9.91701 8.08234L9.94598 8.02124V7.4269V6.83256L9.91478 6.76479C9.89696 6.72702 9.86019 6.6737 9.83122 6.64592C9.77106 6.58704 9.72427 6.56483 9.24184 6.35931L8.91651 6.22155L8.91317 5.9416L8.90983 5.66276L8.8764 5.61499C8.82181 5.53834 8.76388 5.5039 8.68032 5.49835C8.6157 5.4939 8.54773 5.51057 7.96838 5.66943ZM8.69034 6.91365L8.69257 8.10567L8.5845 8.10233L8.47531 8.099L8.46974 7.81349L8.46417 7.5291L8.43075 7.48133C8.41181 7.45467 8.3717 7.41801 8.34162 7.39912L8.28814 7.3658H7.99735C7.71993 7.3658 7.70433 7.36691 7.66199 7.39024C7.63748 7.40357 7.60183 7.43023 7.58177 7.45134C7.51827 7.51688 7.51158 7.55576 7.51158 7.8446V8.10455H7.48373C7.40908 8.10455 7.31884 8.03901 7.2999 7.97236C7.29321 7.94792 7.28876 7.60131 7.28876 7.06252C7.28876 6.11379 7.28653 6.15268 7.35338 6.08935C7.38346 6.06158 7.46256 6.03714 8.0096 5.88717C8.35164 5.79385 8.64355 5.71831 8.65915 5.71942L8.687 5.72164L8.69034 6.91365ZM9.31649 6.63259C9.49698 6.70925 9.65742 6.78368 9.6719 6.79701C9.72872 6.84922 9.72872 6.85478 9.72872 7.4269C9.72872 7.93681 9.72761 7.96347 9.70644 8.00346C9.69418 8.0279 9.66633 8.05901 9.64293 8.07234C9.60171 8.099 9.59503 8.099 9.25856 8.10233L8.9154 8.10567V7.28359V6.46151L8.95217 6.47706C8.97111 6.48484 9.136 6.55483 9.31649 6.63259ZM8.23243 7.59131C8.24246 7.59798 8.24692 7.66685 8.24692 7.84904L8.24803 8.099L7.99178 8.10233L7.73441 8.10455V7.85682C7.73441 7.67907 7.73775 7.60575 7.74778 7.59576C7.76338 7.5802 8.20903 7.57687 8.23243 7.59131Z" fill="#0D152C"/>
<path d="M7.72563 6.34355C7.68325 6.36246 7.65201 6.42252 7.66317 6.4659C7.66651 6.48036 7.68213 6.50594 7.69775 6.52151L7.72675 6.54932H7.99335H8.26107L8.29341 6.51706C8.33803 6.47257 8.33803 6.41807 8.29341 6.36913L8.26107 6.33243L8.0112 6.3302C7.81376 6.32798 7.75464 6.3302 7.72563 6.34355Z" fill="#0D152C"/>
<path d="M7.72674 6.78232C7.71224 6.78789 7.69105 6.80902 7.67877 6.82904C7.64866 6.87687 7.65647 6.92247 7.70108 6.96251L7.73455 6.99365H7.99669C8.25102 6.99365 8.25883 6.99254 8.28671 6.96807C8.30568 6.9525 8.31795 6.92803 8.32241 6.898C8.32799 6.85796 8.32352 6.84684 8.29452 6.81458L8.26106 6.77676L8.00561 6.77454C7.86618 6.77343 7.74013 6.77676 7.72674 6.78232Z" fill="#0D152C"/>
<path d="M9.19073 7.08338C9.16619 7.09784 9.13831 7.15122 9.13831 7.18682C9.13831 7.20239 9.15281 7.23131 9.17065 7.25133C9.20077 7.28469 9.20858 7.28803 9.28778 7.29137C9.33463 7.29359 9.3904 7.29248 9.41271 7.28803C9.50418 7.27135 9.53876 7.16791 9.47407 7.1034C9.44172 7.07225 9.43837 7.07114 9.32571 7.07114C9.26212 7.07114 9.20189 7.0767 9.19073 7.08338Z" fill="#0D152C"/>
<path d="M9.17732 7.54223C9.12489 7.5945 9.12935 7.6668 9.18736 7.70906C9.21301 7.72909 9.23421 7.73242 9.33014 7.73242H9.44169L9.47404 7.69572C9.51866 7.64678 9.51866 7.59228 9.47404 7.54779C9.44169 7.51664 9.43834 7.51553 9.32233 7.51553C9.2119 7.51553 9.20186 7.51776 9.17732 7.54223Z" fill="#0D152C"/>
<path d="M6.72624 8.97337C6.63599 9.00559 6.54352 9.0989 6.52012 9.18C6.47555 9.33997 6.5424 9.4955 6.68724 9.56771L6.75966 9.60437H8.45538C10.1366 9.60437 10.1522 9.60437 10.2124 9.58215C10.3884 9.5155 10.4697 9.30887 10.3851 9.14001C10.3472 9.06335 10.306 9.02447 10.2246 8.9867L10.1689 8.96004L8.46429 8.96115C7.29445 8.96115 6.74963 8.96559 6.72624 8.97337Z" fill="#0D152C"/>
<path d="M6.71502 10.282C6.63369 10.3131 6.58132 10.362 6.54121 10.4431C6.5089 10.5098 6.50667 10.5209 6.51113 10.6031C6.5167 10.7053 6.54678 10.7664 6.62143 10.8308C6.7139 10.9097 6.58355 10.9041 8.48093 10.9019L10.1911 10.8986L10.2457 10.8708C10.3493 10.8186 10.4106 10.7208 10.4173 10.5986C10.4206 10.5342 10.4173 10.5109 10.3939 10.4587C10.3594 10.3798 10.287 10.3109 10.2112 10.282C10.1521 10.2598 10.1232 10.2598 8.46088 10.2609C6.81975 10.2609 6.76961 10.262 6.71502 10.282Z" fill="#0D152C"/>
<path d="M9.35661 12.3484C9.29422 12.3728 9.26748 12.3939 9.23294 12.4494C9.18949 12.5172 9.17723 12.5739 9.19395 12.6294C9.22626 12.7272 9.27639 12.7838 9.35772 12.8149C9.41566 12.836 9.44463 12.8372 10.4295 12.8372H11.4412L11.5102 12.8027C11.6985 12.7094 11.7019 12.4561 11.5169 12.3606L11.4612 12.3317L10.4362 12.3295C9.45131 12.3272 9.40898 12.3284 9.35661 12.3484Z" fill="#0D152C"/>
</g>
</g>
<defs>
<clipPath id="clip0_11243_6343">
<rect x="0.273315" y="0.165405" width="19.7362" height="19.4925" rx="5.13776" fill="white"/>
</clipPath>
<clipPath id="clip1_11243_6343">
<rect width="13.8179" height="17.6986" fill="white" transform="translate(2.32251 0.163574)"/>
</clipPath>
</defs>
</svg>
