<svg width="16" height="18" viewBox="0 0 16 18" fill="none" xmlns="http://www.w3.org/2000/svg">
<path d="M3.85049 3.12951C3.84755 3.13441 3.8338 3.13932 3.82005 3.13932C3.75427 3.13932 3.56085 3.2375 3.48329 3.31016C3.40475 3.3838 3.3262 3.5183 3.28889 3.64496C3.2722 3.70092 3.27122 3.90514 3.26827 7.81276C3.26631 10.9094 3.26827 11.9315 3.27711 11.9609C3.32424 12.1229 3.34093 12.1612 3.40671 12.2574C3.48722 12.3753 3.6286 12.4685 3.80238 12.5186L3.87994 12.5402L6.24612 12.5432L8.61131 12.5451L8.6339 12.5667L8.65648 12.5873V13.2216C8.65648 13.8931 8.65648 13.8922 8.7036 13.9746C8.72717 14.0159 8.8008 14.0709 8.84695 14.0826C8.86069 14.0856 8.87542 14.0925 8.87837 14.0974C8.88524 14.1091 8.97753 14.1091 8.9844 14.0974C8.98735 14.0925 9.00208 14.0856 9.0168 14.0817C9.03251 14.0787 9.09339 14.0473 9.15229 14.0129C9.21218 13.9786 9.27797 13.9422 9.2976 13.9305C9.37222 13.8882 9.4056 13.8696 9.75317 13.6713C10.1459 13.4464 10.1488 13.4454 10.2303 13.4906C10.2529 13.5034 10.3776 13.575 10.5072 13.6497C11.1915 14.0443 11.3084 14.1062 11.3683 14.1062C11.3889 14.1062 11.4134 14.1023 11.4232 14.0974C11.4321 14.0915 11.4615 14.0777 11.488 14.065C11.5469 14.0375 11.596 13.9815 11.6216 13.9128C11.6412 13.8607 11.6412 13.8372 11.6412 12.6453L11.6422 11.4308L11.7158 11.3522C12.0506 10.9988 12.248 10.5874 12.3206 10.0955C12.3363 9.99141 12.3412 9.7116 12.3294 9.63894C12.3236 9.6036 12.3118 9.53291 12.3029 9.48185C12.2087 8.91534 11.8906 8.38811 11.4556 8.07589C11.2877 7.95513 11.1189 7.86284 10.9392 7.79411C10.8803 7.77055 10.8194 7.74011 10.8047 7.72636L10.7772 7.70182L10.7752 5.71266L10.7723 3.7235L10.7507 3.64889C10.7232 3.5507 10.6957 3.49278 10.6368 3.40638C10.5435 3.2699 10.4395 3.2051 10.192 3.12852C10.1498 3.11576 3.85835 3.11674 3.85049 3.12951ZM10.1793 3.71761L10.2176 3.7559V5.67437V7.59382L10.196 7.61346C10.1773 7.63015 10.1498 7.63506 10.0212 7.64487C9.62455 7.67531 9.27208 7.79411 8.94611 8.00618C8.40611 8.35865 8.05364 8.93596 7.97313 9.59967C7.93288 9.93545 7.98884 10.3203 8.12728 10.6551C8.23037 10.9065 8.37862 11.1352 8.58186 11.3552L8.65648 11.4357V11.6841V11.9325L8.62899 11.959L8.6015 11.9855H6.2579H3.91431L3.87013 11.9452L3.82595 11.904V7.82946V3.75394L3.86227 3.71663L3.8986 3.67932H7.01979H10.141L10.1793 3.71761ZM10.3855 8.2104C10.6319 8.24476 10.8646 8.33607 11.0717 8.47844C11.2013 8.56778 11.4115 8.77985 11.5028 8.91142C11.6923 9.18829 11.7787 9.47498 11.7787 9.82549C11.7787 10.2467 11.652 10.5893 11.381 10.8996C11.1434 11.1706 10.8332 11.3561 10.5003 11.4258C10.1999 11.4887 9.86116 11.4671 9.59411 11.3699C9.50771 11.3385 9.32804 11.2491 9.26717 11.2089C9.01779 11.04 8.80375 10.8014 8.682 10.556C8.56419 10.3184 8.51902 10.12 8.51902 9.82745C8.51902 9.5928 8.5475 9.42883 8.62211 9.2364C8.70851 9.01156 8.82339 8.84367 9.02564 8.64633C9.27698 8.40284 9.56073 8.26145 9.90338 8.2104C10.0212 8.19273 10.2627 8.19273 10.3855 8.2104ZM9.4272 11.8873C9.89651 12.0562 10.3943 12.0572 10.8607 11.8902C10.9912 11.8431 11.0305 11.8392 11.059 11.8696L11.0806 11.8922L11.0825 12.5628L11.0835 13.2334L11.0609 13.2579C11.0148 13.307 10.9971 13.3001 10.6064 13.0763C10.1989 12.8446 10.1744 12.8348 10.0801 12.8662C10.0507 12.877 9.86902 12.9742 9.67757 13.0841C9.29171 13.305 9.27797 13.3099 9.23084 13.2559L9.20629 13.2275V12.5657V11.903L9.23378 11.8745C9.26717 11.8392 9.30055 11.8412 9.4272 11.8873Z" fill="#0D152C"/>
<path d="M5.20338 4.87616C5.10422 4.91052 5.03942 4.9822 5.01389 5.08725C4.99917 5.1491 5.00997 5.20605 5.04826 5.27478C5.07869 5.32878 5.10717 5.35234 5.17589 5.38474L5.2348 5.41223H6.76153H8.28825L8.35501 5.37983C8.43061 5.34252 8.4689 5.29834 8.49443 5.2198C8.51505 5.15794 8.51505 5.11671 8.49443 5.05485C8.4689 4.97631 8.43061 4.93212 8.35501 4.89481L8.28825 4.86241L6.77134 4.86045C5.34084 4.85849 5.25149 4.85947 5.20338 4.87616Z" fill="#0D152C"/>
<path d="M5.22006 6.25857C5.11206 6.29686 5.06101 6.34497 5.02272 6.44708C4.99719 6.51679 5.00112 6.56588 5.04235 6.64835C5.07377 6.71217 5.10617 6.74359 5.17588 6.77795C5.21417 6.7966 5.25344 6.7966 6.74384 6.79955L8.27253 6.80151L8.32751 6.7809C8.42176 6.74555 8.47674 6.68271 8.50325 6.58159C8.51994 6.51973 8.51209 6.47261 8.47478 6.39995C8.44434 6.33908 8.39722 6.29784 8.32751 6.27232L8.27253 6.2517L6.75366 6.25268C5.91813 6.25268 5.22792 6.25562 5.22006 6.25857Z" fill="#0D152C"/>
<path d="M5.22015 7.65175C5.11313 7.68513 5.04735 7.74895 5.01986 7.84615C5.00022 7.91193 5.00022 7.91978 5.01888 7.98458C5.03851 8.05135 5.06698 8.09356 5.11902 8.13284C5.20346 8.19764 5.17302 8.19567 6.15582 8.19567C7.07578 8.19567 7.06596 8.19567 7.15236 8.15345C7.25643 8.1024 7.31632 7.962 7.28392 7.84516C7.26134 7.76858 7.2152 7.7136 7.14058 7.67531L7.07283 7.64095L6.16858 7.63898C5.40571 7.63702 5.25746 7.63898 5.22015 7.65175Z" fill="#0D152C"/>
<path d="M10.5955 9.06858C10.4895 9.10392 10.4885 9.10491 10.2155 9.5153C10.0751 9.72639 9.94848 9.91098 9.93474 9.9257C9.89056 9.97381 9.85914 9.96498 9.71383 9.86876C9.54103 9.75389 9.47525 9.7313 9.39179 9.75781C9.27299 9.7961 9.23863 9.82949 9.18758 9.95614C9.16303 10.018 9.18856 10.1299 9.24354 10.1977C9.27398 10.235 9.76783 10.5708 9.86208 10.6169C9.94063 10.6562 10.0044 10.6552 10.0908 10.6149C10.1429 10.5904 10.1645 10.5727 10.1949 10.5315C10.2479 10.4588 10.8881 9.4937 10.9077 9.45738C10.944 9.38767 10.9529 9.32483 10.9332 9.26494C10.8989 9.15792 10.8527 9.10785 10.7516 9.06956C10.6878 9.046 10.6603 9.046 10.5955 9.06858Z" fill="#0D152C"/>
</svg>
