<svg width="20" height="20" viewBox="0 0 20 20" fill="none" xmlns="http://www.w3.org/2000/svg">
<rect x="0.0749512" y="0.106567" width="19.7362" height="19.4925" rx="5.13776" fill="white"/>
<path d="M7.27191 4.38027C7.17068 4.40871 7.10244 4.45307 7.00007 4.55657C6.90226 4.65552 6.85904 4.72377 6.82719 4.83182C6.80899 4.89324 6.80672 4.99219 6.8033 6.02382C6.80103 6.8018 6.80444 7.1669 6.8124 7.20785C6.82719 7.28064 6.88292 7.34889 6.9523 7.38301C7.01714 7.41486 7.12633 7.41599 7.18661 7.38528C7.24348 7.35571 7.30831 7.28178 7.3231 7.22832C7.33106 7.19989 7.33561 6.82796 7.33561 6.0932C7.33561 4.8739 7.33106 4.9467 7.41523 4.90234C7.45276 4.883 7.58811 4.88187 11.1516 4.88187C14.648 4.88187 14.8504 4.883 14.8879 4.90234C14.9107 4.91371 14.9357 4.93874 14.9471 4.96148C14.9664 4.99902 14.9676 5.21399 14.9676 8.95603V12.9119H14.2647C13.5799 12.9119 13.5595 12.913 13.4878 12.9358C13.39 12.9676 13.3581 12.9847 13.2785 13.0495C13.1659 13.1405 13.0783 13.2691 13.0465 13.3896C13.0374 13.426 13.0328 13.6489 13.0306 14.1403L13.0283 14.8398L11.9535 14.8455C10.7455 14.8523 10.8343 14.8455 10.7546 14.9376C10.6659 15.0411 10.6693 15.1901 10.7626 15.2959L10.807 15.3459H12.2185H13.6311L14.5331 14.444L15.4339 13.5432V9.13233C15.4339 5.06044 15.4328 4.71922 15.4157 4.6851C15.3839 4.62368 15.228 4.47354 15.1552 4.43259C15.0096 4.35184 15.377 4.35866 11.1527 4.3598C7.56081 4.3598 7.33674 4.36094 7.27191 4.38027ZM14.1782 14.0436C13.8404 14.378 13.5629 14.6521 13.5606 14.6521C13.5583 14.6521 13.5572 14.403 13.5572 14.0971C13.5572 13.5614 13.5583 13.542 13.5799 13.5056C13.6232 13.4363 13.6197 13.4363 14.2339 13.4363H14.7913L14.1782 14.0436Z" fill="#0D152C"/>
<path d="M11.9476 5.33305C11.396 5.3774 10.8762 5.68791 10.5634 6.16107C10.4178 6.38059 10.3439 6.56485 10.279 6.86626C10.2563 6.97545 10.2597 7.43382 10.2847 7.5487C10.3768 7.9684 10.5372 8.25844 10.8352 8.54506C11.0991 8.7987 11.3812 8.9477 11.7542 9.0296C11.8896 9.05917 12.3491 9.05917 12.4935 9.02846C12.7426 8.97728 13.0065 8.86467 13.1976 8.72819C13.3284 8.63492 13.5343 8.43246 13.6378 8.2937C13.7868 8.09579 13.8994 7.84443 13.9574 7.57827C13.9915 7.42359 13.9938 7.00161 13.9619 6.83214C13.8277 6.11558 13.2363 5.51162 12.5277 5.36489C12.365 5.33191 12.1262 5.31826 11.9476 5.33305ZM12.3798 5.88241C12.5208 5.91198 12.5766 5.93132 12.721 6.00184C12.9974 6.13833 13.1953 6.33965 13.3238 6.61376C13.499 6.9891 13.5092 7.32691 13.3568 7.70225C13.1885 8.1174 12.8325 8.40744 12.3696 8.50639C12.2445 8.53369 12.0033 8.53369 11.8782 8.50639C11.3197 8.38697 10.9285 7.99456 10.8091 7.43496C10.7829 7.30985 10.7829 7.07782 10.8091 6.95384C10.8386 6.81167 10.8671 6.73205 10.9353 6.59329C11.0695 6.32258 11.2549 6.13719 11.5268 6.00297C11.6632 5.93473 11.719 5.91426 11.8395 5.88696C12.0272 5.84488 12.1921 5.8426 12.3798 5.88241Z" fill="#0D152C"/>
<path d="M12.8402 6.57504C12.8129 6.58868 12.6889 6.72745 12.441 7.02658C12.2431 7.2643 12.0736 7.45993 12.0634 7.46221C12.0543 7.46448 11.9565 7.37122 11.8336 7.24383C11.7153 7.12212 11.6027 7.01407 11.5822 7.00384C11.4662 6.94924 11.3218 7.02545 11.3081 7.15056C11.2968 7.24496 11.3093 7.26203 11.6346 7.59756C11.8029 7.77044 11.9576 7.92285 11.9781 7.93537C12.0338 7.97063 12.1316 7.96835 12.1817 7.92968C12.2454 7.88077 13.0825 6.86848 13.1064 6.81048C13.1268 6.76384 13.128 6.75247 13.1143 6.7047C13.0813 6.58072 12.9517 6.5193 12.8402 6.57504Z" fill="#0D152C"/>
<path d="M7.24447 7.70424C6.93509 7.7395 6.65529 7.87372 6.4335 8.09323C6.10024 8.42308 5.99219 8.7734 6.05588 9.3239C6.08659 9.58892 6.15029 9.85052 6.32545 10.4215C6.42895 10.7616 6.51653 11.1335 6.56089 11.4224C6.59615 11.651 6.63027 11.9661 6.63027 12.0639V12.1276H6.51994C6.30839 12.1276 6.17872 12.1799 6.03882 12.321C5.89778 12.462 5.84888 12.5791 5.8375 12.8066L5.83068 12.9454L5.44282 12.9488C5.07317 12.9533 5.05156 12.9545 4.98104 12.9795C4.87867 13.0159 4.78996 13.0716 4.70465 13.1547C4.58636 13.2707 4.52608 13.3674 4.47831 13.5164C4.45329 13.5983 4.45215 13.6119 4.45215 14.0225V14.4445L4.48627 14.4934C4.50447 14.5195 4.53973 14.5559 4.56475 14.5719C4.60342 14.5969 4.6239 14.6014 4.71603 14.6049L4.8218 14.6094V14.8301C4.8218 15.0382 4.82294 15.053 4.8491 15.1121C4.87981 15.1815 4.95147 15.2645 5.02312 15.3135L5.07089 15.3464H7.43782H9.80475L9.85252 15.3135C9.92077 15.2668 9.9947 15.1838 10.0231 15.1212C10.0459 15.0735 10.0482 15.045 10.0516 14.8369L10.055 14.6071H10.146C10.1983 14.6071 10.2518 14.6003 10.2734 14.5912C10.3211 14.5707 10.4008 14.4866 10.4167 14.4377C10.4371 14.3762 10.4337 13.7143 10.4121 13.6028C10.3575 13.315 10.1414 13.0625 9.87527 12.9727C9.83091 12.9579 9.75243 12.9533 9.45443 12.9499L9.08705 12.9442V12.8555C9.08705 12.6246 9.01654 12.4506 8.86526 12.3028C8.73105 12.1731 8.6048 12.1276 8.37732 12.1276H8.24197L8.24993 11.9934C8.25789 11.8671 8.28405 11.6021 8.29656 11.5293C8.29884 11.5111 8.31021 11.4452 8.32045 11.3826C8.35343 11.1767 8.42509 10.8412 8.46262 10.7229C8.46831 10.7036 8.48878 10.6353 8.50698 10.5694C8.52518 10.5034 8.5502 10.4135 8.56385 10.3703C8.5775 10.326 8.59229 10.2748 8.59797 10.2566C8.60252 10.2372 8.623 10.1713 8.64119 10.1087C8.67987 9.98132 8.73332 9.78796 8.74583 9.72768C8.89711 9.0168 8.86185 8.65625 8.60707 8.28773C8.5411 8.19105 8.34774 7.99997 8.25107 7.934C7.96217 7.7395 7.62095 7.66102 7.24447 7.70424ZM7.51858 8.22745C8.02813 8.29342 8.35457 8.67445 8.30339 9.14419C8.28064 9.35006 8.22604 9.6128 8.16007 9.83573C7.95875 10.5159 7.91098 10.7013 7.85411 11.03C7.79838 11.353 7.76426 11.651 7.75061 11.9285C7.7472 12.0093 7.74151 12.0878 7.7381 12.1014L7.73355 12.1276H7.43214H7.13073V12.0389C7.13073 11.8569 7.07272 11.3223 7.02154 11.0357C6.96353 10.7104 6.91803 10.5216 6.80088 10.1315C6.62117 9.53205 6.57226 9.2966 6.57226 9.04524C6.57226 8.92354 6.57567 8.89055 6.6007 8.81207C6.67918 8.57208 6.84524 8.39237 7.07727 8.29797C7.17508 8.25702 7.18873 8.25361 7.41621 8.21607C7.41963 8.21494 7.46626 8.22062 7.51858 8.22745ZM8.48082 12.6804C8.52745 12.7156 8.54565 12.76 8.5502 12.8578L8.55475 12.9454L7.95875 12.9488L7.36276 12.9522L7.31385 12.9841C7.28769 13.0011 7.25129 13.0398 7.23195 13.0682C7.20238 13.1149 7.19897 13.1319 7.19897 13.2081C7.19897 13.2843 7.20238 13.3014 7.23195 13.348C7.25129 13.3765 7.28769 13.4151 7.31385 13.4322L7.36276 13.464L8.5229 13.4697C9.60912 13.4754 9.6876 13.4765 9.72969 13.4959C9.85821 13.5539 9.90598 13.6745 9.90598 13.944V14.0839H7.43669H4.96739L4.97194 13.8985C4.97649 13.7711 4.98331 13.6995 4.99583 13.6676C5.0345 13.5641 5.09137 13.5073 5.18122 13.4822C5.21079 13.4743 5.47695 13.4697 5.98991 13.4697C6.44715 13.4697 6.76562 13.4652 6.78268 13.4584C6.82135 13.4447 6.90097 13.3708 6.92144 13.3321C6.94306 13.29 6.94306 13.1262 6.92144 13.0853C6.89756 13.0409 6.83614 12.9841 6.78723 12.9647C6.75425 12.9511 6.69965 12.9465 6.54951 12.9465H6.35388L6.36071 12.8692C6.37208 12.7327 6.40279 12.6826 6.48809 12.661C6.50743 12.6565 6.95557 12.6531 7.48559 12.6542C8.44329 12.6565 8.44897 12.6565 8.48082 12.6804ZM9.53064 14.7266V14.846H7.43782H5.34501V14.7266V14.6071H7.43782H9.53064V14.7266Z" fill="#0D152C"/>
<path d="M10.4462 9.62054C10.3425 9.67406 10.2981 9.76175 10.3061 9.89271C10.3106 9.96673 10.3163 9.98495 10.3459 10.0214C10.4017 10.0909 10.4621 10.1262 10.535 10.1341C10.6306 10.1444 10.6944 10.1216 10.7605 10.0556C10.8356 9.98039 10.8572 9.89157 10.8265 9.77883C10.8117 9.72645 10.7365 9.64104 10.683 9.61826C10.6329 9.59663 10.4894 9.59777 10.4462 9.62054Z" fill="#0D152C"/>
<path d="M11.2297 9.62452C11.0739 9.69504 11.0306 9.91456 11.1467 10.0408C11.2331 10.1341 11.0932 10.1273 12.7242 10.1238L14.179 10.1204L14.2302 10.0783C14.32 10.0044 14.3519 9.89295 14.3189 9.77125C14.3041 9.71893 14.1994 9.62111 14.1471 9.60974C14.1278 9.60633 13.4738 9.60291 12.6935 9.60291C11.3412 9.60291 11.274 9.60405 11.2297 9.62452Z" fill="#0D152C"/>
<path d="M9.29749 10.585C9.24852 10.6066 9.195 10.6544 9.16425 10.7034C9.14262 10.7387 9.13806 10.7615 9.13806 10.8366C9.1392 10.938 9.15287 10.9733 9.21436 11.0325C9.2656 11.0826 9.32368 11.1042 9.40567 11.1042C9.48311 11.1042 9.53208 11.0872 9.58332 11.0393C9.64823 10.9824 9.66759 10.9368 9.66759 10.8457C9.66759 10.8013 9.6619 10.7501 9.65506 10.7319C9.63912 10.6886 9.55599 10.6055 9.5093 10.585C9.46147 10.5656 9.34304 10.5645 9.29749 10.585Z" fill="#0D152C"/>
<path d="M10.0878 10.5835C10.0309 10.6017 9.9445 10.6893 9.92972 10.745C9.90128 10.8485 9.92062 10.9452 9.98204 11.0134C10.0662 11.1056 9.85124 11.0976 12.1124 11.0976C13.2225 11.0976 14.1449 11.0942 14.1631 11.0885C14.2075 11.076 14.2848 11.0032 14.3087 10.9497C14.3371 10.8895 14.336 10.7825 14.3087 10.7223C14.2973 10.6972 14.27 10.6608 14.2496 10.6404C14.1688 10.5642 14.3189 10.5687 12.1192 10.5699C10.6997 10.571 10.1163 10.5744 10.0878 10.5835Z" fill="#0D152C"/>
<path d="M10.4337 11.5688C10.3835 11.5996 10.3186 11.6793 10.3107 11.7203C10.2981 11.7829 10.3038 11.8775 10.3221 11.9207C10.3414 11.9697 10.3984 12.0312 10.4428 12.0551C10.4621 12.0654 10.5088 12.071 10.568 12.071C10.6751 12.071 10.7104 12.0562 10.7741 11.9845C10.8208 11.9321 10.8368 11.8866 10.8379 11.8137C10.8402 11.7089 10.7946 11.6258 10.7081 11.5757C10.6682 11.5518 10.6455 11.5472 10.5646 11.5472C10.4917 11.5472 10.461 11.5518 10.4337 11.5688Z" fill="#0D152C"/>
<path d="M11.2297 11.5649C11.1535 11.599 11.0773 11.7173 11.0773 11.8026C11.0773 11.9016 11.1398 12.0051 11.2263 12.0483C11.2684 12.071 11.3002 12.071 12.7015 12.071C13.9174 12.071 14.1403 12.0688 14.1733 12.0551C14.1949 12.046 14.2358 12.013 14.2643 11.9823C14.3063 11.938 14.3189 11.9152 14.3245 11.872C14.345 11.7423 14.3052 11.6422 14.2085 11.5808L14.1551 11.5478L12.7106 11.549C11.514 11.549 11.2593 11.5524 11.2297 11.5649Z" fill="#0D152C"/>
</svg>
