<svg width="15" height="18" viewBox="0 0 15 18" fill="none" xmlns="http://www.w3.org/2000/svg">
<path d="M2.27367 3.42054C2.189 3.46275 2.15892 3.49053 2.1255 3.55718L2.08984 3.62606V8.89504C2.08984 12.3966 2.09319 14.1674 2.10098 14.1718C2.10767 14.1751 2.11213 14.1874 2.11213 14.1985C2.11213 14.2085 2.12661 14.2396 2.14444 14.2673C2.16783 14.3051 2.19346 14.3262 2.24471 14.3529L2.3149 14.3884H5.90348C8.43922 14.3884 9.51881 14.3851 9.58231 14.3762C9.96669 14.324 10.1639 14.2751 10.4435 14.1651C11.1866 13.8719 11.7927 13.2864 12.1103 12.5554C12.166 12.4255 12.2194 12.2833 12.2395 12.2055C12.3052 11.96 12.3253 11.86 12.3531 11.6501C12.371 11.5223 12.3765 11.1824 12.3632 11.1168C12.3576 11.0857 12.3465 11.0157 12.3398 10.9613C12.3119 10.738 12.2417 10.4681 12.1504 10.2392C11.9955 9.8493 11.7716 9.50937 11.4719 9.21165C11.122 8.86394 10.7399 8.62732 10.2731 8.46957C10.0937 8.40958 9.75277 8.33404 9.65696 8.33404C9.58566 8.33404 9.59011 8.40847 9.58566 7.17871L9.58231 6.06225L9.55558 6.00115C9.53218 5.94672 9.39069 5.8023 8.29105 4.70363C7.17804 3.59162 7.04657 3.46386 6.9853 3.43498L6.91622 3.40165L4.61222 3.40277C2.58451 3.40388 2.30264 3.4061 2.27367 3.42054ZM6.60427 3.94266C6.62321 3.95933 6.62432 4.0082 6.62432 5.04356V6.12557L6.65886 6.19667C6.68225 6.24777 6.70565 6.27666 6.73573 6.29665C6.82709 6.35775 6.81038 6.35664 7.96015 6.35664C8.9339 6.35664 9.02525 6.35775 9.04419 6.37553C9.06313 6.39219 9.06425 6.43663 9.06425 7.33979V8.28627L9.03974 8.30849C9.0208 8.32404 8.98403 8.33404 8.90827 8.34404C8.60189 8.38514 8.29105 8.48179 7.98912 8.62954C7.37524 8.92948 6.90731 9.39161 6.60315 9.99705C6.39147 10.4203 6.27894 10.8847 6.27894 11.3446C6.27894 12.2277 6.68114 13.0909 7.36298 13.6652C7.45657 13.7452 7.47105 13.7619 7.47105 13.7919C7.47105 13.8108 7.46325 13.8352 7.45211 13.8463C7.4354 13.8652 7.34516 13.8663 5.0445 13.8663C2.83631 13.8663 2.65248 13.8652 2.63354 13.8474C2.6146 13.8296 2.61348 13.6619 2.61348 8.89726C2.61348 4.32259 2.6146 3.96266 2.63242 3.94377C2.64913 3.92489 2.72601 3.92378 4.61667 3.92378C6.43158 3.92378 6.58533 3.92489 6.60427 3.94266ZM7.91893 5.05356C8.54061 5.67344 8.58517 5.7201 8.58517 5.75565C8.58517 5.77675 8.57738 5.80341 8.56623 5.81452C8.54952 5.83341 8.51276 5.83452 7.86657 5.83452C7.21146 5.83452 7.18361 5.83341 7.16578 5.81341C7.14796 5.79453 7.14684 5.74009 7.14684 5.11244C7.14684 4.48478 7.14796 4.43035 7.16578 4.41146C7.17692 4.39924 7.19921 4.39035 7.21926 4.39035C7.25046 4.39035 7.32622 4.46256 7.91893 5.05356ZM9.78286 8.86505C10.0458 8.91615 10.2441 8.9828 10.4614 9.09167C10.9516 9.34051 11.3705 9.76487 11.6067 10.2537C11.7704 10.5925 11.8496 10.9502 11.8496 11.3501C11.8484 11.8522 11.7303 12.2711 11.4674 12.6943C11.288 12.9854 10.9427 13.3242 10.6374 13.5097C10.4034 13.6519 10.1461 13.7541 9.86642 13.8163C9.56115 13.8841 9.10993 13.8841 8.78237 13.8163C7.80195 13.6141 6.99978 12.7854 6.83155 11.8C6.73796 11.2535 6.81261 10.7158 7.04769 10.2392C7.3173 9.69044 7.78412 9.25386 8.36012 9.01169C8.37349 9.00502 8.39577 8.99613 8.41026 8.98947C8.5239 8.94059 8.78015 8.87616 8.95952 8.85061C9.13444 8.82617 9.62354 8.83505 9.78286 8.86505Z" fill="#0D152C"/>
<path d="M3.6652 7.26767C3.57496 7.30322 3.5226 7.36432 3.49586 7.46875C3.4836 7.51429 3.50811 7.60316 3.54599 7.65538C3.57942 7.6987 3.64738 7.74092 3.70865 7.75536C3.74654 7.76424 4.11197 7.76758 4.97318 7.76758C6.27448 7.76758 6.2366 7.76869 6.33018 7.71092C6.37029 7.68648 6.41263 7.62316 6.43491 7.55317C6.46388 7.45986 6.39815 7.33433 6.29342 7.28211L6.2288 7.25101L4.97541 7.24879C3.75545 7.24657 3.72091 7.24657 3.6652 7.26767Z" fill="#0D152C"/>
<path d="M3.69992 8.64726C3.58293 8.68614 3.52277 8.74835 3.49603 8.85611C3.47487 8.94387 3.54394 9.07717 3.63307 9.11717C3.71997 9.15605 3.73891 9.15716 4.99341 9.15383L6.23009 9.15049L6.29582 9.11717C6.36935 9.0794 6.41281 9.02163 6.4362 8.93387C6.44734 8.89054 6.44623 8.8761 6.42395 8.81945C6.39275 8.73835 6.34262 8.68725 6.2624 8.65726C6.20112 8.63393 6.19221 8.63393 4.96667 8.63504C4.16785 8.63504 3.72109 8.63948 3.69992 8.64726Z" fill="#0D152C"/>
<path d="M3.69409 12.47C3.64284 12.4855 3.57376 12.5311 3.54591 12.5677C3.53365 12.5844 3.51583 12.6233 3.50468 12.6555C3.4824 12.7222 3.4902 12.7777 3.53588 12.8499C3.57265 12.9077 3.59827 12.9277 3.66957 12.9554C3.72417 12.9766 3.75425 12.9777 4.09294 12.9777C4.42829 12.9777 4.46283 12.9754 4.51742 12.9554C4.59207 12.9288 4.63663 12.8888 4.67006 12.8166C4.70348 12.7466 4.70348 12.6866 4.67006 12.6166C4.63329 12.54 4.58204 12.4978 4.48623 12.4678C4.43609 12.4511 3.74756 12.4533 3.69409 12.47Z" fill="#0D152C"/>
<path d="M9.25919 9.62714C9.24025 9.63381 9.20682 9.65047 9.18343 9.6638C9.11881 9.70268 9.06421 9.80711 9.06421 9.89598C9.06421 9.95152 9.04305 9.97374 8.93275 10.0282C8.71995 10.1348 8.574 10.3537 8.52944 10.6303C8.5027 10.7958 8.57289 11.0224 8.69098 11.1535C8.78903 11.2613 9.02856 11.4001 9.28704 11.4968C9.58228 11.6079 9.62128 11.6312 9.67253 11.7179C9.69926 11.7623 9.70149 11.7756 9.69704 11.87C9.69481 11.95 9.68812 11.9834 9.66807 12.0222C9.63465 12.0856 9.56334 12.16 9.49872 12.1978C9.4497 12.2278 9.44524 12.2278 9.25362 12.2266C9.06533 12.2266 9.05642 12.2255 8.9918 12.1955C8.95503 12.1789 8.90155 12.1511 8.8737 12.1322C8.84585 12.1144 8.79794 12.0922 8.76897 12.0833C8.72107 12.0689 8.7077 12.0689 8.65645 12.0844C8.55395 12.1133 8.49935 12.1689 8.46816 12.2733C8.45368 12.3233 8.45368 12.3366 8.46705 12.3833C8.47596 12.4122 8.49601 12.4533 8.5105 12.4755C8.55729 12.5455 8.81688 12.6843 8.9528 12.7121C9.03079 12.7277 9.06421 12.7576 9.06421 12.8099C9.06421 12.8898 9.11435 12.9887 9.1734 13.0276C9.24804 13.0765 9.30821 13.092 9.36503 13.0765C9.41962 13.0609 9.48201 13.0254 9.51209 12.9932C9.54886 12.9521 9.57671 12.8732 9.57671 12.811C9.57671 12.7732 9.5834 12.7399 9.59454 12.7243C9.60345 12.711 9.65359 12.6788 9.70483 12.6532C9.89758 12.5588 10.0268 12.4333 10.1171 12.25C10.2441 11.9945 10.2474 11.7378 10.1271 11.4946C10.0346 11.3079 9.88421 11.1824 9.64356 11.0924C9.30821 10.9658 9.16337 10.898 9.08984 10.8302C9.04193 10.7869 9.04193 10.7858 9.04193 10.7069C9.04305 10.5647 9.12215 10.4659 9.24916 10.4492C9.3628 10.4359 9.49761 10.4492 9.56223 10.4814C9.59342 10.4981 9.6235 10.517 9.62796 10.5236C9.64133 10.5447 9.75386 10.5892 9.79508 10.5892C9.85413 10.5892 9.96777 10.5314 9.99673 10.4859C10.0335 10.4281 10.0558 10.3503 10.048 10.3092C10.038 10.2537 10.0023 10.1848 9.96888 10.1526C9.92432 10.1104 9.76834 10.0193 9.68924 9.98929C9.60902 9.96041 9.57671 9.92486 9.57671 9.86821C9.57671 9.81711 9.53326 9.72379 9.49204 9.68491C9.45639 9.65269 9.35611 9.61048 9.31712 9.6127C9.30375 9.61381 9.27701 9.61937 9.25919 9.62714Z" fill="#0D152C"/>
</svg>
