<svg width="16" height="18" viewBox="0 0 16 18" fill="none" xmlns="http://www.w3.org/2000/svg">
<g clip-path="url(#clip0_11243_7845)">
<path d="M4.37641 3.12993C4.36254 3.13548 4.33733 3.13992 4.31967 3.13992C4.26293 3.14215 4.09145 3.19547 3.99563 3.24213C3.71823 3.37655 3.53162 3.60984 3.47109 3.89646C3.45218 3.98533 3.45218 13.2448 3.47109 13.3281C3.53792 13.6203 3.72453 13.8491 4.00445 13.9813C4.10658 14.0302 4.29067 14.0835 4.35372 14.0835C4.37641 14.0835 4.39785 14.088 4.40163 14.0947C4.41298 14.1102 11.9556 14.1102 11.967 14.0947C11.9708 14.088 11.9922 14.0835 12.0149 14.0835C12.0779 14.0835 12.262 14.0291 12.3591 13.9825C12.6063 13.8636 12.7613 13.6947 12.8584 13.4403L12.9 13.3337L12.9038 11.8006L12.9063 10.2676L14.2479 9.08443C14.9868 8.43343 15.6236 7.86576 15.6639 7.82132C15.8165 7.65468 15.911 7.43361 15.911 7.24031C15.911 7.05035 15.8203 6.83483 15.6727 6.67263C15.4697 6.44823 15.0965 6.30936 14.7889 6.34158C14.5783 6.36491 14.374 6.44379 14.2051 6.56932C14.1534 6.60709 13.8697 6.85149 13.5746 7.11145C13.1005 7.53026 13.035 7.5847 12.9997 7.5847C12.9757 7.5847 12.9505 7.5747 12.9341 7.55914L12.9076 7.53359L12.9038 6.16828L12.9 4.80185L12.8597 4.69632C12.808 4.56412 12.7349 4.44969 12.6264 4.33527C12.5407 4.24417 11.5723 3.39877 11.4664 3.32322C11.387 3.26546 11.242 3.1988 11.1411 3.17214C10.9293 3.11659 11.1121 3.11882 7.64212 3.11993C5.86048 3.11993 4.39028 3.12437 4.37641 3.12993ZM10.0845 3.65983C10.1059 3.6765 10.1072 3.7176 10.1072 4.51413C10.1072 5.32176 10.1084 5.35287 10.1324 5.40952C10.1639 5.48507 10.2068 5.52506 10.295 5.56172L10.3656 5.5906L11.3239 5.59394C12.1826 5.59727 12.2835 5.59949 12.3036 5.61504C12.3251 5.63171 12.3263 5.70058 12.3263 6.92259V8.21236L11.4954 8.94557C10.8498 9.51547 10.6594 9.68988 10.6393 9.72876C10.6254 9.75653 10.493 10.0998 10.3455 10.492L10.0769 11.2052L10.092 11.2585C10.1248 11.3651 10.2043 11.4351 10.3253 11.464L10.3858 11.4773L11.1953 11.2407C11.6404 11.1107 12.025 10.9963 12.0489 10.9863C12.0729 10.9763 12.1158 10.9519 12.1448 10.9319C12.2028 10.8908 12.2658 10.883 12.3036 10.9141C12.3251 10.9308 12.3263 10.9819 12.3263 12.095C12.3263 13.1026 12.3238 13.2648 12.3074 13.3148C12.2847 13.3803 12.2091 13.4703 12.1359 13.517C12.0225 13.5892 12.3314 13.5836 8.17296 13.5836H4.39659L4.32598 13.5603C4.20998 13.5225 4.1028 13.4248 4.05867 13.317C4.04606 13.2859 4.04228 12.3583 4.04228 8.61007V3.942L4.06876 3.87979C4.10154 3.80092 4.20493 3.70649 4.29698 3.66872L4.36381 3.64095H7.21216C9.8449 3.64095 10.063 3.64206 10.0845 3.65983ZM11.0314 3.67316C11.0768 3.69205 11.2407 3.8298 11.6707 4.2064C12.32 4.7763 12.3099 4.76519 12.3226 4.92961C12.3289 5.01293 12.3276 5.0207 12.3011 5.04625L12.2721 5.07403H11.5068C10.7704 5.07403 10.7401 5.07292 10.72 5.05292C10.6998 5.03292 10.6985 4.98071 10.6985 4.35749C10.6985 3.72315 10.6998 3.68205 10.7212 3.66094C10.7553 3.62762 10.9457 3.63539 11.0314 3.67316ZM15.0549 6.87482C15.1041 6.89037 15.1469 6.91704 15.1999 6.96369C15.2957 7.04812 15.3273 7.11589 15.3273 7.24031C15.3273 7.39584 15.3083 7.42361 15.0461 7.65913C14.7409 7.93241 14.7989 7.93574 14.4421 7.62136C14.2051 7.4125 14.1672 7.37473 14.1672 7.34585C14.1672 7.31696 14.2 7.28364 14.3917 7.117C14.6892 6.85705 14.6943 6.85371 14.8759 6.8526C14.9578 6.85149 15.0032 6.85705 15.0549 6.87482ZM14.0374 7.98685C14.2971 8.2157 14.3059 8.22458 14.3059 8.26791C14.3059 8.31234 14.2984 8.31901 13.4082 9.10332C12.5609 9.84985 12.5066 9.8954 12.465 9.8954C12.4247 9.8954 12.3995 9.87651 12.1473 9.65433C11.8938 9.43104 11.8724 9.40882 11.8724 9.37327C11.8724 9.33661 11.9228 9.28995 12.7702 8.54342C13.6604 7.75911 13.6692 7.75133 13.7196 7.75133C13.7688 7.75133 13.7789 7.75911 14.0374 7.98685ZM11.7362 10.0143C12.0754 10.312 12.0653 10.2876 11.8951 10.4364L11.7778 10.5386L11.3971 10.6497C11.1877 10.7119 10.9974 10.7619 10.9759 10.7619C10.9217 10.7619 10.8889 10.7341 10.8889 10.6875C10.8889 10.6664 10.9457 10.4986 11.0163 10.3142L11.1424 9.97872L11.2584 9.8754C11.4273 9.72543 11.3983 9.71654 11.7362 10.0143Z" fill="#0D152C"/>
<path d="M5.17062 6.38717C5.05588 6.42049 5.00544 6.45827 4.96383 6.54047C4.92979 6.60602 4.93105 6.66712 4.96761 6.73488C5.00292 6.80265 5.03822 6.83153 5.12018 6.86486L5.18323 6.89041L7.77436 6.89374C9.72243 6.89597 10.3831 6.89374 10.4348 6.88375C10.5483 6.86264 10.6164 6.81598 10.6605 6.72933C10.6933 6.66601 10.6933 6.6038 10.6605 6.54047C10.6177 6.45715 10.5672 6.41938 10.4487 6.38606C10.3907 6.36939 5.2261 6.3705 5.17062 6.38717Z" fill="#0D152C"/>
<path d="M5.19333 7.68466C5.07733 7.70577 4.99285 7.76687 4.95503 7.85907C4.93107 7.92128 4.93359 7.97238 4.96764 8.0346C5.00546 8.10681 5.0559 8.1468 5.14038 8.17346C5.2072 8.19568 5.24755 8.19568 7.06954 8.19568C8.38717 8.19568 8.94323 8.19235 8.97349 8.18346C9.1021 8.1468 9.15884 8.09903 9.19414 8.00127C9.21306 7.94906 9.21432 7.93128 9.20171 7.88907C9.16766 7.77686 9.08445 7.71021 8.94953 7.68577C8.87009 7.67133 5.27781 7.67022 5.19333 7.68466Z" fill="#0D152C"/>
<path d="M5.14566 8.99767C5.07505 9.021 5.01452 9.0621 4.983 9.10987C4.89474 9.24207 4.94896 9.39538 5.10783 9.46203L5.18727 9.49536H7.06726C8.91446 9.49536 8.94724 9.49536 9.01407 9.47314C9.09351 9.44648 9.15025 9.3976 9.18555 9.32539C9.22212 9.25096 9.21834 9.20875 9.17042 9.12765C9.13386 9.06433 9.12125 9.05322 9.04938 9.021L8.96994 8.98434L7.07734 8.98545C5.75719 8.98545 5.17214 8.98989 5.14566 8.99767Z" fill="#0D152C"/>
<path d="M5.1467 10.3021C5.05214 10.3321 5.01557 10.361 4.97396 10.4354C4.93992 10.4965 4.93487 10.5143 4.94118 10.5632C4.95 10.6298 4.99792 10.7065 5.04961 10.7398C5.14418 10.7976 5.04583 10.7954 7.07335 10.7954C9.15886 10.7954 9.02899 10.7998 9.11599 10.7232C9.20425 10.6465 9.23073 10.5454 9.1866 10.4565C9.15003 10.3821 9.09455 10.3332 9.01386 10.3066C8.94703 10.2843 8.91551 10.2843 7.07082 10.2855C5.48714 10.2855 5.18831 10.2888 5.1467 10.3021Z" fill="#0D152C"/>
<path d="M8.08467 12.3061C8.01406 12.3306 7.9838 12.3517 7.94471 12.4072C7.89554 12.475 7.88167 12.5316 7.90058 12.5872C7.93715 12.6849 7.99389 12.7416 8.08593 12.7727C8.1515 12.7938 8.18428 12.7949 9.29891 12.7949H10.4438L10.522 12.7605C10.7351 12.6672 10.7388 12.4139 10.5295 12.3183L10.4665 12.2895L9.30647 12.2872C8.19185 12.285 8.14393 12.2861 8.08467 12.3061Z" fill="#0D152C"/>
</g>
<defs>
<clipPath id="clip0_11243_7845">
<rect width="15.638" height="17.6986" fill="white" transform="translate(0.124023 0.121338)"/>
</clipPath>
</defs>
</svg>
