<svg width="20" height="20" viewBox="0 0 20 20" fill="none" xmlns="http://www.w3.org/2000/svg">
<g clip-path="url(#clip0_11243_6513)">
<rect x="0.0749512" y="0.0476074" width="19.7362" height="19.4925" rx="5.13776" fill="white"/>
<g clip-path="url(#clip1_11243_6513)">
<path d="M7.58064 9.32786L7.58053 9.32779L6.42733 8.59064C6.29571 8.50651 6.21562 8.36147 6.21454 8.20526L6.20015 6.13275L6.20014 6.13263L6.19165 4.30207C6.19046 4.04653 6.39729 3.83874 6.65283 3.83874H8.99506H11.3373C11.5928 3.83874 11.7996 4.04653 11.7985 4.30207L11.79 6.13263L11.79 6.13275L11.7756 8.19898C11.7745 8.3556 11.694 8.50096 11.5618 8.58498L10.3934 9.32768L7.58064 9.32786ZM7.58064 9.32786C8.22197 9.74014 8.77785 10.0865 8.94998 10.1886C8.97096 10.201 8.9894 10.2011 9.00879 10.1899C9.18247 10.0897 9.74289 9.73999 10.3934 9.32772L7.58064 9.32786ZM10.1378 12.7836C10.0063 12.4258 9.97838 11.9889 10.0382 11.5684C10.0989 11.141 10.2511 10.7253 10.4836 10.4227L10.5243 10.4539C10.6276 10.3179 10.7093 10.1927 10.7093 10.1709C10.7093 10.122 10.4263 9.82809 10.3773 9.82809L10.1378 12.7836ZM10.1378 12.7836C10.1366 12.7839 10.1354 12.7842 10.1341 12.7845C10.0876 12.7958 9.99104 12.8046 9.80152 12.8108C9.42573 12.823 8.70442 12.8244 7.34069 12.8244H4.96344C4.70873 12.8244 4.50225 12.6179 4.50225 12.3632V10.3396V8.05084C4.50225 7.98462 4.57462 7.94383 4.63127 7.97812L4.6578 7.93428L4.63173 7.9784C4.75061 8.04864 5.38087 8.44527 6.04536 8.86466C6.61032 9.22123 7.08203 9.53677 7.21231 9.63857C7.21392 9.63983 7.21496 9.64086 7.21562 9.64162C7.21532 9.64211 7.21491 9.6427 7.21436 9.64341C7.16314 9.70872 7.0355 9.84184 6.88634 9.98688C6.76609 10.0989 6.67546 10.1935 6.61656 10.2695C6.58715 10.3074 6.56432 10.3423 6.54986 10.3738C6.53635 10.4031 6.52661 10.437 6.53406 10.4697C6.5445 10.5282 6.56663 10.5821 6.61337 10.6114C6.66222 10.642 6.7203 10.6349 6.77624 10.6123C6.83285 10.5894 6.89835 10.5465 6.97304 10.4862C7.04826 10.4256 7.13535 10.3453 7.23529 10.2454C7.4052 10.0782 7.50354 9.98555 7.57035 9.93974C7.60326 9.91717 7.62353 9.90961 7.63699 9.90777C7.64812 9.90625 7.65878 9.90804 7.67476 9.91632C7.7322 9.95082 8.03437 10.1343 8.34186 10.3285C8.49728 10.4267 8.64477 10.5168 8.75773 10.5826C8.81413 10.6154 8.86241 10.6424 8.89895 10.6613C8.91715 10.6707 8.93314 10.6785 8.94613 10.6841C8.95259 10.6869 8.95905 10.6894 8.96511 10.6913C8.9699 10.6929 8.97922 10.6956 8.98961 10.6956C9.00068 10.6956 9.0107 10.6924 9.01533 10.6908C9.02158 10.6887 9.0284 10.6859 9.03534 10.6829C9.04932 10.6767 9.06688 10.668 9.08714 10.6574C9.12784 10.636 9.18216 10.6055 9.24602 10.5683C9.37386 10.4937 9.5417 10.3914 9.71886 10.2796M10.1378 12.7836L9.71886 10.2796M9.71886 10.2796C9.89831 10.1682 10.0639 10.0664 10.1873 9.99246C10.2491 9.95546 10.2999 9.92567 10.3365 9.90521C10.3537 9.89558 10.3673 9.8883 10.3771 9.88338C10.3773 9.88348 10.3774 9.88358 10.3776 9.88369C10.3875 9.89018 10.4008 9.90034 10.4167 9.91387C10.4484 9.94074 10.4871 9.97773 10.5248 10.0167C10.5625 10.0558 10.5982 10.0958 10.6241 10.1285C10.6372 10.145 10.6471 10.1587 10.6534 10.169C10.6539 10.1698 10.6544 10.1706 10.6548 10.1714C10.6535 10.174 10.6519 10.1771 10.65 10.1806C10.6416 10.1959 10.629 10.2166 10.6126 10.2415C10.5801 10.2913 10.5346 10.3556 10.4835 10.4229L9.71886 10.2796ZM13.4659 7.89785C13.47 7.93951 13.4738 7.99917 13.477 8.07323C13.4838 8.2294 13.4879 8.4463 13.4879 8.68528C13.4879 8.92439 13.4851 9.14161 13.4811 9.29889C13.479 9.37761 13.4767 9.44092 13.4742 9.48433C13.474 9.48808 13.4737 9.49165 13.4735 9.49505C13.4562 9.49124 13.4352 9.48647 13.4112 9.48091C13.3443 9.46535 13.2549 9.44368 13.16 9.41929L13.4659 7.89785ZM13.4659 7.89785C13.4475 7.90878 13.425 7.92235 13.3987 7.9384C13.3224 7.98499 13.215 8.05185 13.0841 8.13412C12.8224 8.29864 12.4674 8.52439 12.0811 8.77196L12.0811 8.77198L10.8683 9.54757C10.7968 9.59329 10.785 9.69293 10.8438 9.75408C10.9194 9.82945 11.037 9.843 11.1278 9.78677L11.1661 9.76307C11.1662 9.76302 11.1663 9.76296 11.1664 9.76291L13.4659 7.89785ZM4.07796 7.40671L4.07773 7.4066L4.08032 7.4022C4.09674 7.37428 4.11734 7.3479 4.15427 7.32792C4.18873 7.30928 4.23362 7.29831 4.2945 7.29092C4.41601 7.27617 4.62383 7.27354 4.9952 7.27354H5.29907C5.55378 7.27354 5.76026 7.06706 5.76026 6.81235V5.43097C5.76026 4.55544 5.77171 3.79969 5.78841 3.56728C5.79088 3.53291 5.80343 3.50089 5.82828 3.47696C5.85299 3.45315 5.88524 3.4418 5.91898 3.43988C6.23146 3.42215 7.50536 3.40974 9.0005 3.40974C10.3933 3.40974 11.1724 3.41245 11.6073 3.42472C11.8242 3.43084 11.958 3.43938 12.0401 3.45162C12.0809 3.4577 12.1124 3.46516 12.1361 3.47543C12.1606 3.48607 12.182 3.50213 12.1931 3.52787L12.1932 3.5278L12.1946 3.53185C12.1976 3.54094 12.199 3.55266 12.2 3.56106C12.2011 3.57138 12.2022 3.58451 12.2032 3.6C12.2052 3.63107 12.2072 3.67344 12.2092 3.72558C12.213 3.82997 12.2166 3.97489 12.2196 4.14985C12.2258 4.49985 12.2299 4.97089 12.2299 5.47995V6.81686C12.2299 7.06804 12.4309 7.27303 12.682 7.27796L13.0122 7.28443L13.0112 7.33567L13.0122 7.28443L13.3438 7.29098C13.6478 7.29698 13.8922 7.54294 13.8963 7.84693L13.906 8.55942L13.906 8.55965L13.9149 9.54565C13.9159 9.6658 13.9794 9.77675 14.0825 9.83857L14.0561 9.88251L14.083 9.83889C14.3259 9.98861 14.5542 10.2418 14.7365 10.5401C14.9191 10.8389 15.0576 11.1863 15.1187 11.5278L15.1188 11.5281C15.3024 12.585 14.7082 13.7278 13.7363 14.2111C12.6761 14.744 11.5033 14.5268 10.6827 13.6453C10.6827 13.6452 10.6827 13.6452 10.6827 13.6452L10.5026 13.4534C10.4155 13.3605 10.2937 13.3078 10.1664 13.3078H7.31349C5.95329 13.3078 5.18241 13.3051 4.74209 13.2928C4.52228 13.2867 4.38281 13.2781 4.29296 13.266C4.20634 13.2543 4.15333 13.2381 4.12091 13.2057C4.08904 13.1738 4.07254 13.1236 4.06069 13.0427C4.04849 12.9595 4.03994 12.8317 4.03381 12.6323C4.02154 12.2327 4.01883 11.5365 4.01883 10.3124C4.01883 9.4062 4.02427 8.70244 4.0338 8.21626C4.03857 7.97323 4.04436 7.7842 4.05103 7.65128C4.05436 7.5849 4.05794 7.53196 4.06178 7.49306C4.06369 7.47366 4.06573 7.45712 4.06796 7.44386C4.06989 7.43229 4.07273 7.41803 4.07796 7.40671ZM10.6594 10.1611C10.6594 10.1611 10.6593 10.1614 10.6591 10.1619L10.6594 10.1611ZM14.133 13.3738L14.1331 13.3737C14.5798 12.9004 14.7971 12.1929 14.6914 11.6059C14.5263 10.7168 13.9314 10.0794 13.0636 9.85047C11.9868 9.57474 10.8811 10.2109 10.5351 11.3073C10.2698 12.1669 10.5822 13.0863 11.3387 13.6564C12.1658 14.2767 13.3991 14.1556 14.133 13.3738ZM5.07176 7.70993C5.06828 7.71014 5.06486 7.71036 5.06152 7.71058C5.10992 7.74532 5.17518 7.79021 5.24955 7.84C5.40206 7.94211 5.59145 8.06386 5.74944 8.1594C5.75659 8.12359 5.76026 8.05962 5.76026 7.95605C5.76026 7.81604 5.64676 7.70254 5.50675 7.70254H5.37614C5.25703 7.70254 5.14929 7.70525 5.07176 7.70993ZM12.4779 8.00514C12.6554 7.89216 12.8544 7.75778 12.9261 7.70822C12.9265 7.70784 12.927 7.70746 12.9275 7.70708C12.914 7.70619 12.8981 7.70542 12.8794 7.70481C12.8204 7.70289 12.7393 7.70254 12.6303 7.70254H12.4779C12.3409 7.70254 12.2299 7.81361 12.2299 7.95061C12.2299 8.04127 12.3293 8.09678 12.4065 8.0492L12.4776 8.00533C12.4777 8.00527 12.4778 8.0052 12.4779 8.00514Z" fill="#0D152C" stroke="#0D152C" stroke-width="0.102486"/>
<path d="M7.47609 4.61672L7.47611 4.61671L7.47665 4.61813C7.49383 4.66394 7.49116 4.71 7.47069 4.75144C7.45093 4.79145 7.41633 4.82381 7.37479 4.84889C7.29199 4.89888 7.17014 4.9271 7.03092 4.9271C6.90535 4.9271 6.79744 4.90025 6.72654 4.84749C6.69047 4.82065 6.66277 4.78607 6.64953 4.74419C6.63626 4.70219 6.63898 4.6574 6.65593 4.61295C6.66783 4.57977 6.69583 4.55847 6.72159 4.54477C6.74878 4.53031 6.78216 4.51967 6.81759 4.51178C6.8888 4.49593 6.97762 4.48916 7.06491 4.49021C7.15227 4.49126 7.24121 4.50018 7.31275 4.51723C7.34838 4.52572 7.38174 4.53669 7.40896 4.55091C7.43471 4.56436 7.46308 4.5849 7.47609 4.61672Z" fill="#0D152C" stroke="#0D152C" stroke-width="0.102486"/>
<path d="M11.3387 4.61622L11.3387 4.6162L11.3396 4.61841C11.3607 4.67476 11.3759 4.74462 11.3228 4.80086C11.2992 4.82579 11.2661 4.84319 11.2267 4.85641C11.1869 4.86977 11.1366 4.88017 11.0747 4.88854C10.8288 4.92178 10.3646 4.9271 9.53383 4.9271C9.09547 4.9271 8.68833 4.92301 8.38454 4.91688C8.23268 4.91382 8.10642 4.91024 8.0149 4.90639C7.96919 4.90447 7.93178 4.90246 7.90404 4.90039C7.89021 4.89936 7.87833 4.89828 7.86882 4.89713C7.86086 4.89617 7.85014 4.8947 7.8415 4.89182C7.79916 4.87771 7.76902 4.84136 7.75039 4.80572C7.73105 4.76872 7.71939 4.72387 7.71939 4.67994C7.71939 4.57951 7.8008 4.49809 7.90124 4.49809H9.51206C10.2952 4.49809 10.7334 4.5008 10.9799 4.51312C11.1024 4.51925 11.1815 4.52788 11.2328 4.54101C11.2853 4.55443 11.3214 4.57581 11.3387 4.61622Z" fill="#0D152C" stroke="#0D152C" stroke-width="0.102486"/>
<path d="M8.98389 6.16786L8.98399 6.16786C9.97952 6.1733 10.5493 6.17331 10.8736 6.16307C11.0352 6.15797 11.1386 6.15026 11.204 6.13877C11.2366 6.13306 11.2632 6.12584 11.2839 6.11559C11.3049 6.10523 11.3233 6.08988 11.333 6.06682C11.35 6.03144 11.3498 5.98953 11.3426 5.95397C11.335 5.91701 11.3181 5.87868 11.2924 5.84919M8.98389 6.16786L6.74762 5.84996L6.71784 5.80826C6.7185 5.80779 6.71916 5.80734 6.71982 5.80691C6.72844 5.8013 6.73724 5.79889 6.74057 5.79798C6.74594 5.79652 6.7518 5.79536 6.75755 5.79439C6.76918 5.79244 6.78405 5.79067 6.80144 5.78903C6.8364 5.78572 6.88486 5.78259 6.94485 5.77964C7.06501 5.77374 7.23374 5.76846 7.43833 5.76403C7.84762 5.75518 8.40172 5.74974 9.0006 5.74974C9.93356 5.74974 10.4829 5.75245 10.8065 5.76406C10.9679 5.76985 11.0754 5.77791 11.1469 5.78942C11.2145 5.80029 11.264 5.8159 11.2924 5.84919M8.98389 6.16786C7.89623 6.1597 7.32598 6.15426 7.02588 6.13854M8.98389 6.16786L7.02588 6.13854M11.2924 5.84919C11.2923 5.84908 11.2922 5.84897 11.2921 5.84887L11.2536 5.88261L11.2927 5.84951C11.2926 5.8494 11.2925 5.84929 11.2924 5.84919ZM7.02588 6.13854C6.87738 6.13076 6.7891 6.1203 6.73636 6.10344M7.02588 6.13854L6.73636 6.10344M6.73636 6.10344C6.70918 6.09475 6.68579 6.0827 6.66875 6.06353M6.73636 6.10344L6.66875 6.06353M6.66875 6.06353C6.65126 6.04385 6.64557 6.02237 6.64279 6.00612L6.66875 6.06353Z" fill="#0D152C" stroke="#0D152C" stroke-width="0.102486"/>
<path d="M6.65736 7.37307C6.66372 7.38754 6.67447 7.39599 6.68038 7.40003C6.68776 7.40506 6.69566 7.4086 6.70239 7.41117C6.71601 7.41637 6.73291 7.42057 6.75127 7.4242C6.78851 7.43155 6.84014 7.4381 6.90302 7.44401C7.02923 7.45589 7.20632 7.46571 7.41685 7.47354C7.83819 7.48922 8.3965 7.49704 8.95637 7.49704C9.51624 7.49704 10.0783 7.48922 10.5071 7.47354C10.7214 7.46571 10.903 7.45589 11.0348 7.44403C11.1005 7.43812 11.1548 7.4316 11.195 7.42436C11.215 7.42076 11.2328 7.41674 11.2473 7.41206C11.2545 7.40973 11.262 7.40687 11.269 7.40327C11.2752 7.40011 11.2845 7.3946 11.2924 7.3854M6.65736 7.37307L11.2536 7.35193M6.65736 7.37307C6.64244 7.34225 6.6365 7.30455 6.6365 7.2703C6.6365 7.2361 6.64242 7.19846 6.65729 7.16767M6.65736 7.37307L6.65729 7.16767M11.2924 7.3854C11.2926 7.38512 11.2928 7.38484 11.2931 7.38456L11.2536 7.35193M11.2924 7.3854C11.2923 7.38549 11.2922 7.38558 11.2921 7.38567L11.2536 7.35193M11.2924 7.3854C11.3181 7.35589 11.335 7.31755 11.3425 7.28057C11.3498 7.24499 11.3499 7.20306 11.333 7.16768M11.2536 7.35193C11.2917 7.30839 11.308 7.2322 11.2862 7.18867M11.333 7.16768C11.3333 7.16853 11.3337 7.1694 11.334 7.17027L11.2862 7.18867M11.333 7.16768C11.3231 7.14423 11.3041 7.12897 11.2832 7.11879C11.2624 7.10863 11.2355 7.10139 11.2027 7.0956C11.1367 7.08395 11.0326 7.0759 10.8711 7.07011C10.5468 7.05851 9.97978 7.05579 8.99514 7.05579C8.01594 7.05579 7.44892 7.05851 7.12332 7.07011C6.96103 7.0759 6.85605 7.08395 6.78924 7.09558C6.75605 7.10136 6.72887 7.10856 6.70784 7.11863C6.68699 7.12861 6.66741 7.1438 6.65729 7.16767M11.333 7.16768C11.3327 7.16703 11.3324 7.16639 11.332 7.16575L11.2862 7.18867M11.2862 7.18867L6.65729 7.16767M6.65729 7.16767C6.6576 7.16703 6.65792 7.16639 6.65824 7.16575L6.70407 7.18867L6.65624 7.17027C6.65658 7.16939 6.65693 7.16852 6.65729 7.16767Z" fill="#0D152C" stroke="#0D152C" stroke-width="0.102486"/>
<path d="M13.8896 10.5197L13.8895 10.5196C13.7016 10.3455 13.5264 10.2231 13.3286 10.1418C13.1309 10.0606 12.9137 10.0219 12.6434 10.0108C12.6433 10.0108 12.6433 10.0108 12.6432 10.0108L13.8896 10.5197ZM13.8896 10.5197C14.2977 10.8999 14.4883 11.349 14.4883 11.9232C14.4883 12.4973 14.2977 12.9464 13.8897 13.3266C13.6859 13.5166 13.5103 13.6425 13.3085 13.7199C13.1069 13.7973 12.8834 13.8247 12.5867 13.8247C12.3772 13.8247 12.2397 13.8193 12.1203 13.7973C11.9998 13.7751 11.8999 13.7362 11.7651 13.6729C11.1056 13.3655 10.7137 12.7828 10.669 12.0515L13.8896 10.5197ZM10.9366 10.8823C10.7314 11.2085 10.6412 11.6018 10.669 12.0515L10.9366 10.8823ZM10.9366 10.8823C11.1418 10.5562 11.4597 10.3011 11.881 10.1237M10.9366 10.8823L11.881 10.1237M11.881 10.1237C12.0108 10.0685 12.1092 10.0353 12.2229 10.0188L11.881 10.1237ZM13.0295 10.5085L13.0295 10.5085L13.029 10.5083C12.2799 10.2815 11.5664 10.5918 11.24 11.2918L11.24 11.2918L11.2397 11.2924C11.1309 11.5181 11.0789 11.728 11.0809 11.9349C11.0828 12.1419 11.1387 12.3491 11.2502 12.5694L11.2503 12.5696C11.5878 13.2447 12.2813 13.5539 12.9915 13.3487L13.0058 13.3979L12.9915 13.3487C13.1705 13.2968 13.3628 13.1842 13.533 13.0386C13.703 12.8932 13.8477 12.7176 13.9338 12.543C14.0167 12.3692 14.0593 12.1459 14.0599 11.9217C14.0606 11.6975 14.0194 11.4771 13.9393 11.3089C13.853 11.1365 13.7107 10.9608 13.546 10.8154C13.3809 10.6696 13.1969 10.5574 13.0295 10.5085Z" fill="#0D152C" stroke="#0D152C" stroke-width="0.102486"/>
<path d="M12.7954 11.6694C12.8994 11.5641 12.9902 11.4791 13.0686 11.4145C13.1466 11.3503 13.2147 11.3042 13.2733 11.2789C13.3308 11.2541 13.3906 11.2446 13.4413 11.274C13.4908 11.3026 13.5138 11.3582 13.5242 11.4184C13.5289 11.4418 13.5212 11.4648 13.5153 11.4796C13.5081 11.4973 13.4973 11.517 13.4845 11.5376C13.4588 11.579 13.4211 11.6298 13.3761 11.6858C13.2857 11.7981 13.1618 11.9357 13.0333 12.069C12.9047 12.2023 12.7706 12.3323 12.6597 12.4293C12.6043 12.4777 12.5539 12.5187 12.5122 12.5478C12.4915 12.5623 12.4719 12.5746 12.4543 12.5835C12.4385 12.5915 12.4176 12.6003 12.3964 12.6003C12.3789 12.6003 12.3621 12.5944 12.3493 12.5888C12.3354 12.5827 12.3204 12.5744 12.3049 12.5648C12.274 12.5456 12.2375 12.5188 12.1982 12.4875C12.1194 12.4247 12.0258 12.3407 11.9369 12.2546C11.8481 12.1685 11.7629 12.0792 11.7013 12.0057C11.6706 11.9692 11.6447 11.9353 11.6271 11.9069C11.6183 11.8928 11.6106 11.8784 11.6055 11.8646C11.6013 11.8532 11.5947 11.8317 11.6022 11.8091C11.6114 11.7814 11.6332 11.7542 11.6541 11.7325C11.6764 11.7095 11.7035 11.6869 11.7309 11.6686C11.7543 11.6525 11.7811 11.641 11.8126 11.6403C11.8435 11.6396 11.8732 11.6494 11.9024 11.6653C11.9587 11.6957 12.0276 11.7568 12.1219 11.8484L12.1219 11.8484L12.1224 11.8489C12.1839 11.9103 12.2463 11.9661 12.2969 12.0062C12.3223 12.0263 12.3439 12.0418 12.3604 12.052C12.3645 12.0546 12.3681 12.0567 12.3711 12.0583M12.7954 11.6694C12.7954 11.6695 12.7953 11.6695 12.7953 11.6696L12.8317 11.7056L12.7955 11.6693C12.7955 11.6694 12.7954 11.6694 12.7954 11.6694ZM12.7954 11.6694C12.6844 11.7805 12.5777 11.8818 12.4956 11.9551C12.4544 11.9919 12.42 12.0211 12.3946 12.0409C12.385 12.0484 12.3772 12.0542 12.3711 12.0583M12.3711 12.0583C12.3742 12.06 12.3767 12.0613 12.3787 12.0622C12.3808 12.0631 12.3817 12.0633 12.3817 12.0633C12.3816 12.0633 12.379 12.0625 12.3746 12.0625C12.3687 12.0625 12.3645 12.0636 12.363 12.0641L12.361 12.0648L12.3604 12.065C12.3604 12.065 12.3608 12.0648 12.3618 12.0643L12.3655 12.062C12.3672 12.061 12.3691 12.0597 12.3711 12.0583Z" fill="#0D152C" stroke="#0D152C" stroke-width="0.102486"/>
</g>
</g>
<defs>
<clipPath id="clip0_11243_6513">
<rect x="0.0749512" y="0.0476074" width="19.7362" height="19.4925" rx="5.13776" fill="white"/>
</clipPath>
<clipPath id="clip1_11243_6513">
<rect width="13.8179" height="17.6986" fill="white" transform="translate(3.07141 0.0476074)"/>
</clipPath>
</defs>
</svg>
