<svg width="57" height="56" viewBox="0 0 57 56" fill="none" xmlns="http://www.w3.org/2000/svg">
<g clip-path="url(#clip0_12666_10946)">
<rect x="0.252197" y="0.546387" width="56.0539" height="55.3616" rx="14.592" fill="white"/>
<path d="M11.6213 21.4473L11.6243 21.4407L11.628 21.4345C11.6746 21.3552 11.7331 21.2803 11.838 21.2236C11.9359 21.1706 12.0634 21.1395 12.2363 21.1185C12.5814 21.0766 13.1716 21.0691 14.2264 21.0691H15.0894C15.8128 21.0691 16.3993 20.4827 16.3993 19.7593V15.8359C16.3993 13.3493 16.4318 11.2028 16.4792 10.5428C16.4862 10.4452 16.5219 10.3542 16.5925 10.2862C16.6626 10.2186 16.7542 10.1864 16.8501 10.1809C17.7376 10.1306 21.3556 10.0953 25.602 10.0953C29.5579 10.0953 31.7705 10.103 33.0057 10.1379C33.6218 10.1553 34.0017 10.1795 34.2349 10.2143C34.3507 10.2315 34.4404 10.2527 34.5076 10.2819C34.5773 10.3121 34.6381 10.3577 34.6694 10.4308L34.6698 10.4306L34.6737 10.4421C34.6823 10.468 34.6864 10.5012 34.689 10.5251C34.6922 10.5544 34.6952 10.5917 34.6981 10.6357C34.704 10.7239 34.7097 10.8443 34.7151 10.9924C34.726 11.2888 34.7362 11.7004 34.7449 12.1974C34.7623 13.1914 34.7739 14.5292 34.7739 15.975V19.7721C34.7739 20.4855 35.3448 21.0677 36.0581 21.0817L36.996 21.1L37.9378 21.1186C38.8011 21.1357 39.4953 21.8342 39.507 22.6976L39.5343 24.7212L39.5343 24.7218L39.5596 27.5222C39.5626 27.8635 39.7429 28.1786 40.0356 28.3542L39.9607 28.479L40.037 28.3551C40.727 28.7803 41.3754 29.4994 41.8932 30.3467C42.4117 31.1951 42.8053 32.1819 42.9788 33.152L42.9789 33.1527C43.5003 36.1546 41.8125 39.4005 39.052 40.773C36.0411 42.2863 32.7103 41.6693 30.3797 39.1656C30.3797 39.1656 30.3796 39.1655 30.3796 39.1655L29.8684 38.6207C29.6208 38.3569 29.2751 38.2072 28.9132 38.2072H20.8107C16.9475 38.2072 14.7581 38.1995 13.5075 38.1647C12.8832 38.1473 12.4871 38.123 12.2319 38.0886C11.9859 38.0553 11.8354 38.0094 11.7433 37.9173C11.6528 37.8268 11.6059 37.684 11.5722 37.4544C11.5376 37.2179 11.5133 36.8552 11.4959 36.2887C11.4611 35.1538 11.4533 33.1767 11.4533 29.7C11.4533 27.1262 11.4688 25.1274 11.4959 23.7466C11.5094 23.0563 11.5259 22.5194 11.5448 22.142C11.5543 21.9534 11.5644 21.803 11.5753 21.6926C11.5808 21.6375 11.5866 21.5905 11.5929 21.5528C11.5984 21.52 11.6064 21.4795 11.6213 21.4473ZM21.5691 26.9035L21.5694 26.9037C23.3909 28.0746 24.9697 29.0582 25.4585 29.3483C25.5182 29.3836 25.5705 29.3837 25.6256 29.352C26.1189 29.0674 27.7106 28.0741 29.5581 26.9032L32.8765 24.7938C33.252 24.5552 33.4806 24.1423 33.4837 23.6975L33.5245 17.8291L33.5245 17.8288L33.5487 12.6297C33.552 11.9039 32.9646 11.3138 32.2388 11.3138H25.5866H18.9343C18.2085 11.3138 17.6211 11.9039 17.6245 12.6297L17.6486 17.8288L17.6486 17.8291L17.6895 23.7153C17.6926 24.159 17.92 24.5709 18.2938 24.8099L21.5691 26.9035ZM13.2681 22.9457L13.1928 23.0702C13.0319 22.9728 12.8263 23.0887 12.8263 23.2768V29.7773V35.5244C12.8263 36.2478 13.4128 36.8342 14.1362 36.8342H20.8879C24.7611 36.8342 26.8098 36.8304 27.8771 36.7957C28.4153 36.7782 28.6896 36.753 28.8217 36.721C28.8253 36.7201 28.8288 36.7192 28.832 36.7184C28.4587 35.7024 28.3794 34.4614 28.5491 33.2672C28.7217 32.0535 29.1538 30.8728 29.8141 30.0135C29.9592 29.8225 30.0884 29.64 30.1808 29.4987C30.2271 29.4277 30.263 29.3689 30.2868 29.3255C30.2922 29.3155 30.2968 29.3068 30.3006 29.2994C30.2993 29.2973 30.298 29.295 30.2965 29.2927C30.2785 29.2635 30.2505 29.2245 30.2134 29.1777C30.1397 29.0847 30.0383 28.971 29.9313 28.8602C29.8243 28.7494 29.7144 28.6443 29.6243 28.568C29.579 28.5296 29.5413 28.5007 29.5132 28.4823C29.5127 28.482 29.5122 28.4817 29.5118 28.4814C29.4839 28.4954 29.4454 28.5161 29.3965 28.5434C29.2927 28.6015 29.1483 28.6861 28.9728 28.7912C28.6223 29.0011 28.1519 29.2903 27.6422 29.607C27.139 29.9243 26.6624 30.215 26.2994 30.4266C26.118 30.5323 25.9637 30.619 25.8481 30.6797C25.7906 30.7099 25.7407 30.7346 25.701 30.7521C25.6813 30.7608 25.6619 30.7687 25.6441 30.7747C25.631 30.7791 25.6026 30.7884 25.5711 30.7884C25.5416 30.7884 25.5151 30.7805 25.5015 30.7761C25.4843 30.7706 25.466 30.7634 25.4476 30.7556C25.4107 30.7398 25.3653 30.7177 25.3136 30.6909C25.2098 30.6371 25.0727 30.5604 24.9125 30.4672C24.5917 30.2806 24.1728 30.0245 23.7314 29.7458C22.8581 29.1942 21.9999 28.673 21.8367 28.575C21.7914 28.5515 21.7611 28.5464 21.7295 28.5507C21.6912 28.5559 21.6337 28.5774 21.5402 28.6415C21.3505 28.7716 21.0711 29.0349 20.5886 29.5097C20.3047 29.7935 20.0574 30.0214 19.8438 30.1937C19.6316 30.3647 19.4456 30.4867 19.2848 30.5517C19.1259 30.6159 18.961 30.6359 18.8222 30.5491C18.6895 30.466 18.6266 30.3127 18.597 30.1468C18.5758 30.0538 18.6035 29.9576 18.6419 29.8742C18.6829 29.7849 18.7478 29.6856 18.8313 29.5779C18.9986 29.3623 19.256 29.0937 19.5975 28.7754C20.0211 28.3635 20.3837 27.9854 20.5291 27.7999C20.5307 27.7979 20.5318 27.7962 20.5327 27.7948C20.5308 27.7927 20.5278 27.7897 20.5233 27.7861C20.1533 27.497 18.8136 26.6008 17.209 25.5881C15.3218 24.397 13.5317 23.2705 13.1941 23.071L13.2681 22.9457ZM30.3135 29.2703C30.3134 29.2704 30.3132 29.2711 30.3128 29.2725C30.3134 29.2709 30.3136 29.2702 30.3135 29.2703ZM40.1791 38.3949L40.1794 38.3946C41.4481 37.0504 42.0652 35.0409 41.765 33.3739C41.2961 30.8485 39.6066 29.0383 37.142 28.388C34.0835 27.6048 30.9433 29.4116 29.9605 32.5253C29.2071 34.9668 30.0941 37.5781 32.2428 39.1973C34.5918 40.959 38.0946 40.6153 40.1791 38.3949ZM14.4438 22.3085C14.4339 22.3091 14.4242 22.3097 14.4147 22.3103C14.5522 22.409 14.7376 22.5365 14.9488 22.6779C15.3819 22.9679 15.9198 23.3137 16.3686 23.5851C16.3889 23.4834 16.3993 23.3017 16.3993 23.0075C16.3993 22.6099 16.0769 22.2875 15.6793 22.2875H15.3083C14.97 22.2875 14.664 22.2952 14.4438 22.3085ZM35.4784 23.147C35.9826 22.8261 36.5477 22.4444 36.7512 22.3036C36.7526 22.3026 36.7539 22.3015 36.7552 22.3004C36.7171 22.2979 36.6719 22.2957 36.6186 22.294C36.4512 22.2885 36.2208 22.2875 35.9112 22.2875H35.4784C35.0893 22.2875 34.7739 22.603 34.7739 22.9921C34.7739 23.2496 35.0564 23.4072 35.2755 23.2721L35.4776 23.1475C35.4779 23.1473 35.4781 23.1471 35.4784 23.147ZM36.9246 22.3244C36.9246 22.3243 36.9235 22.3238 36.9213 22.323C36.9235 22.3241 36.9247 22.3245 36.9246 22.3244Z" fill="#0D152C" stroke="#0D152C" stroke-width="0.291076"/>
<path d="M21.27 13.5242L21.27 13.5242L21.2715 13.5282C21.3203 13.6582 21.3127 13.789 21.2546 13.9066C21.1986 14.0201 21.1004 14.1119 20.9825 14.1831C20.7476 14.3249 20.4019 14.4049 20.007 14.4049C19.6507 14.4049 19.3446 14.3288 19.1434 14.1791C19.0411 14.1029 18.9625 14.0048 18.9249 13.886C18.8872 13.7668 18.895 13.6397 18.943 13.5136C18.9768 13.4194 19.0563 13.3589 19.1294 13.32C19.2066 13.279 19.3013 13.2488 19.4018 13.2264C19.6038 13.1815 19.8558 13.1623 20.1034 13.1653C20.3512 13.1682 20.6035 13.1935 20.8065 13.2419C20.9076 13.266 21.0022 13.2971 21.0795 13.3375C21.1525 13.3756 21.233 13.4339 21.27 13.5242Z" fill="#0D152C" stroke="#0D152C" stroke-width="0.291076"/>
<path d="M32.2429 13.522L32.2431 13.5219L32.2454 13.5282C32.3055 13.6883 32.3488 13.8867 32.1978 14.0464C32.1309 14.1172 32.0367 14.1666 31.9248 14.2042C31.8117 14.2421 31.6689 14.2717 31.493 14.2954C30.7949 14.3898 29.4764 14.4049 27.1169 14.4049C25.8719 14.4049 24.7155 14.3933 23.8527 14.3759C23.4214 14.3672 23.0628 14.3571 22.8029 14.3461C22.6731 14.3407 22.5668 14.335 22.488 14.3291C22.4487 14.3262 22.415 14.3231 22.388 14.3198C22.3654 14.3171 22.335 14.3129 22.3104 14.3047C22.1902 14.2647 22.1046 14.1614 22.0516 14.0602C21.9967 13.9551 21.9636 13.8277 21.9636 13.703C21.9636 13.4177 22.1948 13.1865 22.4801 13.1865H27.0551C29.2791 13.1865 30.5238 13.1942 31.2239 13.2292C31.5718 13.2466 31.7964 13.2711 31.9424 13.3084C32.0914 13.3465 32.1938 13.4072 32.2429 13.522Z" fill="#0D152C" stroke="#0D152C" stroke-width="0.291076"/>
<path d="M25.5549 17.9288L25.5552 17.9288C28.3826 17.9443 30.0009 17.9443 30.9219 17.9152C31.3808 17.9007 31.6746 17.8789 31.8604 17.8462C31.9528 17.83 32.0286 17.8095 32.0874 17.7804C32.1469 17.7509 32.1992 17.7073 32.2269 17.6417C32.2749 17.5413 32.2745 17.4223 32.2539 17.3214C32.2324 17.2164 32.1844 17.1075 32.1115 17.0237M25.5549 17.9288L32.0012 17.1187M25.5549 17.9288C22.4658 17.9057 20.8462 17.8902 19.9939 17.8455C19.5721 17.8235 19.3214 17.7937 19.1716 17.7459C19.0944 17.7212 19.0279 17.687 18.9796 17.6325C18.9299 17.5766 18.9137 17.5156 18.9058 17.4695C18.8854 17.365 18.8963 17.254 18.9314 17.1564C18.9662 17.0594 19.0293 16.9639 19.1246 16.9037M25.5549 17.9288L19.2036 17.0259M32.1115 17.0237C32.1112 17.0234 32.111 17.0231 32.1107 17.0228L32.0012 17.1187M32.1115 17.0237C32.1117 17.0241 32.112 17.0244 32.1123 17.0247L32.0012 17.1187M32.1115 17.0237C32.0308 16.9292 31.8902 16.8849 31.6982 16.854C31.495 16.8213 31.1898 16.7984 30.7313 16.782C29.8123 16.749 28.2521 16.7413 25.6024 16.7413C23.9015 16.7413 22.3277 16.7568 21.1653 16.7819C20.5842 16.7945 20.105 16.8095 19.7637 16.8262C19.5933 16.8346 19.4557 16.8435 19.3564 16.8529C19.307 16.8576 19.2648 16.8626 19.2318 16.8681C19.2154 16.8709 19.1988 16.8742 19.1835 16.8783C19.1741 16.8809 19.1491 16.8878 19.1246 16.9037M32.0012 17.1187C31.8311 16.9177 30.9038 16.8868 25.6024 16.8868C22.202 16.8868 19.3118 16.9487 19.2036 17.0259M19.1246 16.9037C19.1252 16.9033 19.1258 16.9029 19.1264 16.9025L19.2036 17.0259M19.1246 16.9037C19.1227 16.9049 19.1208 16.9062 19.119 16.9075L19.2036 17.0259" fill="#0D152C" stroke="#0D152C" stroke-width="0.291076"/>
<path d="M19.0127 21.4283C18.9959 21.4169 18.9653 21.3929 18.9473 21.3518C18.9049 21.2643 18.888 21.1572 18.888 21.0599C18.888 20.9628 18.9048 20.8559 18.9471 20.7684C18.9758 20.7006 19.0314 20.6575 19.0907 20.6291C19.1504 20.6005 19.2276 20.5801 19.3218 20.5637C19.5116 20.5306 19.8098 20.5078 20.2707 20.4913C21.1954 20.4584 22.8059 20.4507 25.5869 20.4507C28.3834 20.4507 29.9939 20.4584 30.9148 20.4913C31.3737 20.5078 31.6692 20.5306 31.8567 20.5637C31.9499 20.5802 32.0262 20.6007 32.0854 20.6296C32.1447 20.6585 32.1987 20.7019 32.2269 20.7686C32.2749 20.8691 32.2745 20.9881 32.2539 21.0891C32.2324 21.1939 32.1846 21.3026 32.1118 21.3863C32.0893 21.4127 32.0627 21.4285 32.0451 21.4375C32.0252 21.4478 32.0039 21.4559 31.9833 21.4625C31.9422 21.4758 31.8915 21.4872 31.8349 21.4974C31.7208 21.518 31.5664 21.5365 31.3798 21.5533C31.0057 21.587 30.4896 21.6149 29.881 21.6371C28.6632 21.6817 27.0669 21.7039 25.4768 21.7039C23.8867 21.7039 22.301 21.6817 21.1043 21.6371C20.5064 21.6149 20.0034 21.587 19.645 21.5533C19.4664 21.5365 19.3198 21.5179 19.214 21.497C19.1618 21.4867 19.1138 21.4748 19.0752 21.46C19.056 21.4527 19.0336 21.4426 19.0127 21.4283Z" fill="#0D152C" stroke="#0D152C" stroke-width="0.291076"/>
<path d="M39.4881 30.289L39.4878 30.2888C38.954 29.7942 38.4565 29.4464 37.8947 29.2157C37.3332 28.9851 36.7163 28.875 35.9483 28.8436C35.4299 28.8204 35.0742 28.8197 34.7543 28.8663C34.4315 28.9132 34.1519 29.0073 33.7834 29.1641C32.5867 29.6681 31.6839 30.3927 31.101 31.3188C30.5181 32.2451 30.2621 33.3623 30.3409 34.6393L39.4881 30.289ZM39.4881 30.289C40.6471 31.3687 41.1882 32.6443 41.1882 34.275C41.1882 35.9057 40.6471 37.1813 39.4881 38.2609C38.9095 38.8004 38.4106 39.158 37.8375 39.378C37.2649 39.5978 36.6303 39.6756 35.7876 39.6756C35.1924 39.6756 34.8019 39.6603 34.4629 39.5978C34.1205 39.5346 33.837 39.4244 33.4539 39.2445M39.4881 30.289L33.4539 39.2445M33.4539 39.2445C31.5811 38.3715 30.4678 36.7164 30.3409 34.6394L33.4539 39.2445ZM37.0451 30.257L37.0437 30.2566C34.9162 29.6124 32.8896 30.4937 31.9628 32.4818L31.9628 32.4818L31.962 32.4835C31.6528 33.1245 31.5052 33.7206 31.5108 34.3084C31.5163 34.8961 31.675 35.4847 31.9916 36.1104L31.992 36.111C32.9506 38.0282 34.9199 38.9065 36.9372 38.3238C37.4456 38.1764 37.9918 37.8565 38.4751 37.443C38.9579 37.03 39.3689 36.5314 39.6134 36.0352C39.849 35.5416 39.9698 34.9075 39.9717 34.2707C39.9736 33.6339 39.8565 33.0081 39.629 32.5305C39.3839 32.0408 38.9798 31.5417 38.512 31.1286C38.0432 30.7147 37.5207 30.396 37.0451 30.257Z" fill="#0D152C" stroke="#0D152C" stroke-width="0.291076"/>
<path d="M34.4674 34.0622L34.4674 34.0622L34.4689 34.0637C34.6434 34.2382 34.8208 34.3966 34.9645 34.5104C35.0366 34.5676 35.0979 34.6116 35.1447 34.6406C35.1564 34.6479 35.1665 34.6538 35.1752 34.6585C35.1925 34.6466 35.2147 34.6303 35.242 34.609C35.3141 34.5527 35.4118 34.4697 35.5287 34.3653C35.7618 34.157 36.0649 33.8693 36.3802 33.554C36.6756 33.2547 36.9334 33.0134 37.1563 32.8299C37.3776 32.6475 37.5712 32.5167 37.7376 32.4449C37.9009 32.3745 38.0707 32.3475 38.2148 32.4308C38.3553 32.5122 38.4207 32.6701 38.4503 32.841C38.4636 32.9074 38.4417 32.9728 38.4248 33.0147C38.4044 33.0652 38.3738 33.1211 38.3374 33.1796C38.2643 33.2972 38.1574 33.4415 38.0294 33.6005C37.7727 33.9195 37.4208 34.3102 37.0558 34.6888C36.6907 35.0675 36.3099 35.4367 35.9948 35.7121C35.8376 35.8496 35.6943 35.9659 35.576 36.0486C35.5171 36.0899 35.4615 36.1248 35.4115 36.1501C35.3667 36.1728 35.3074 36.1978 35.247 36.1978C35.1972 36.1978 35.1495 36.1809 35.1133 36.1651C35.0737 36.1479 35.0311 36.1243 34.9873 36.097C34.8994 36.0425 34.7957 35.9664 34.6841 35.8775C34.4604 35.6991 34.1945 35.4605 33.9421 35.2159C33.6898 34.9714 33.4478 34.7179 33.2728 34.5091C33.1857 34.4053 33.1121 34.3089 33.062 34.2283C33.0372 34.1883 33.0151 34.1475 33.0006 34.1083C32.9887 34.076 32.9701 34.0147 32.9914 33.9506C33.0176 33.872 33.0793 33.7947 33.1389 33.7332C33.202 33.6678 33.2792 33.6035 33.3568 33.5516C33.4234 33.5058 33.4996 33.4732 33.589 33.4712C33.6768 33.4693 33.7612 33.4972 33.8441 33.5421C34.0039 33.6287 34.1995 33.802 34.4674 34.0622Z" fill="#0D152C" stroke="#0D152C" stroke-width="0.291076"/>
</g>
<defs>
<clipPath id="clip0_12666_10946">
<rect x="0.252197" y="0.546387" width="56.0539" height="55.3616" rx="14.592" fill="white"/>
</clipPath>
</defs>
</svg>
