<svg width="104" height="129" viewBox="0 0 104 129" fill="none" xmlns="http://www.w3.org/2000/svg">
<path d="M82.839 1.21999H10.2452C5.14414 1.21999 1 5.39437 1 10.5415V113.344C1 118.491 5.14414 122.666 10.2452 122.666H61.6927C60.6758 121.649 59.7492 120.556 58.9292 119.386H10.2452C6.93539 119.386 4.24857 116.669 4.24857 113.344V10.5415C4.24857 7.21627 6.93539 4.49899 10.2452 4.49899H82.839C86.1482 4.49899 88.8353 7.21627 88.8353 10.5415V80.2204C89.9588 80.6302 91.037 81.1317 92.0842 81.6926V10.5415C92.0842 5.39437 87.9399 1.21999 82.839 1.21999Z" fill="white" stroke="white" stroke-width="2"/>
<path d="M79.072 34.0431H46.5418C45.6423 34.0431 44.915 33.3076 44.915 32.4015C44.915 31.4955 45.6423 30.7607 46.5418 30.7607H79.072C79.9707 30.7607 80.698 31.4955 80.698 32.4015C80.698 33.3076 79.9707 34.0431 79.072 34.0431Z" fill="white" stroke="white" stroke-width="2"/>
<path d="M19.7069 38.1461H30.2979C32.8502 38.1461 34.9277 36.0498 34.9277 33.4749V25.9062C34.9277 25.2907 34.4343 24.7932 33.8249 24.7932C33.2151 24.7932 32.7222 25.2907 32.7222 25.9062V33.4749C32.7222 34.8232 31.634 35.9209 30.2979 35.9209H19.7069C18.3703 35.9209 17.2827 34.8232 17.2827 33.4749V22.7879C17.2827 21.4397 18.3703 20.3428 19.7069 20.3428H30.5162C31.126 20.3428 31.6189 19.8445 31.6189 19.2298C31.6189 18.6143 31.126 18.1168 30.5162 18.1168H19.7069C17.1542 18.1168 15.0771 20.2131 15.0771 22.7879V33.4749C15.0771 36.0498 17.1542 38.1461 19.7069 38.1461Z" fill="white" stroke="white" stroke-width="2"/>
<path d="M20.7982 23.3895C20.4393 22.8937 19.7498 22.7839 19.2569 23.1495C18.7655 23.5114 18.6592 24.2082 19.0185 24.704L24.5071 32.2747C24.7137 32.5585 25.0424 32.7287 25.3931 32.7296C25.3946 32.7296 25.3956 32.7296 25.3966 32.7296C25.7454 32.7296 26.074 32.5622 26.2832 32.2794L38.7541 15.3044C39.116 14.8104 39.0137 14.1136 38.5248 13.748C38.0349 13.3824 37.3454 13.4856 36.9815 13.9796L25.4022 29.7397L20.7982 23.3895Z" fill="white" stroke="white" stroke-width="2"/>
<path d="M19.7069 70.9692H30.298C32.8505 70.9692 34.9277 68.873 34.9277 66.2982V58.7297C34.9277 58.1145 34.4343 57.6162 33.8247 57.6162C33.2151 57.6162 32.7224 58.1145 32.7224 58.7297V66.2982C32.7224 67.6469 31.6341 68.7443 30.298 68.7443H19.7069C18.3704 68.7443 17.2827 67.6469 17.2827 66.2982V55.6118C17.2827 54.2631 18.3704 53.1657 19.7069 53.1657H30.5164C31.126 53.1657 31.6187 52.6681 31.6187 52.0529C31.6187 51.4377 31.126 50.9401 30.5164 50.9401H19.7069C17.1542 50.9401 15.0771 53.0362 15.0771 55.6118V66.2982C15.0771 68.873 17.1542 70.9692 19.7069 70.9692Z" fill="white" stroke="white" stroke-width="2"/>
<path d="M20.7981 56.213C20.4393 55.7174 19.7498 55.608 19.2569 55.9725C18.7655 56.3348 18.6592 57.0309 19.0185 57.528L24.507 65.0972C24.714 65.3822 25.0421 65.5513 25.3934 65.5527C25.3949 65.5527 25.3956 65.5527 25.3963 65.5527C25.7455 65.5527 26.0742 65.3851 26.2834 65.103L38.7538 48.1278C39.1161 47.6336 39.0133 46.9368 38.5249 46.5708C38.0351 46.2056 37.3455 46.3092 36.9818 46.8026L25.4021 62.5634L20.7981 56.213Z" fill="white" stroke="white" stroke-width="2"/>
<path d="M19.7066 103.793H30.2976C32.8503 103.793 34.9276 101.697 34.9276 99.1213V91.5528C34.9276 90.9374 34.4341 90.4398 33.8249 90.4398C33.2151 90.4398 32.7222 90.9374 32.7222 91.5528V99.1213C32.7222 100.469 31.6339 101.567 30.2976 101.567H19.7066C18.3703 101.567 17.2825 100.469 17.2825 99.1213V88.4346C17.2825 87.0859 18.3703 85.9884 19.7066 85.9884H30.5163C31.126 85.9884 31.619 85.4908 31.619 84.8754C31.619 84.2605 31.126 83.7635 30.5163 83.7635H19.7066C17.1539 83.7635 15.0771 85.8592 15.0771 88.4346V99.1213C15.0771 101.697 17.1539 103.793 19.7066 103.793Z" fill="white" stroke="white" stroke-width="2"/>
<path d="M20.798 89.0356C20.4393 88.5402 19.7499 88.4305 19.2567 88.7957C18.7656 89.1577 18.6592 89.8541 19.0184 90.3506L24.5069 97.9201C24.7138 98.2048 25.0422 98.3749 25.3929 98.3755C25.3945 98.3755 25.3956 98.3755 25.3966 98.3755C25.7451 98.3755 26.0736 98.2086 26.2832 97.9255L38.7538 80.9508C39.1158 80.4564 39.0137 79.76 38.5248 79.3938C38.0347 79.0285 37.3454 79.1317 36.9813 79.625L25.402 95.3857L20.798 89.0356Z" fill="white" stroke="white" stroke-width="2"/>
<path d="M72.5657 24.1971H46.5418C45.6426 24.1971 44.915 23.4624 44.915 22.5553C44.915 21.6491 45.6426 20.9144 46.5418 20.9144H72.5657C73.4648 20.9144 74.1924 21.6491 74.1924 22.5553C74.1924 23.4624 73.4648 24.1971 72.5657 24.1971Z" fill="white" stroke="white" stroke-width="2"/>
<path d="M79.0726 66.8666H46.5425C45.6438 66.8666 44.916 66.1317 44.916 65.2249C44.916 64.319 45.6438 63.5841 46.5425 63.5841H79.0726C79.9721 63.5841 80.6991 64.319 80.6991 65.2249C80.6991 66.1317 79.9721 66.8666 79.0726 66.8666Z" fill="white" stroke="white" stroke-width="2"/>
<path d="M72.5668 57.0193H46.5425C45.6435 57.0193 44.916 56.2843 44.916 55.3778C44.916 54.472 45.6435 53.7369 46.5425 53.7369H72.5668C73.4657 53.7369 74.1932 54.472 74.1932 55.3778C74.1932 56.2843 73.4657 57.0193 72.5668 57.0193Z" fill="white" stroke="white" stroke-width="2"/>
<path d="M46.5424 96.4033H55.4226C55.0736 97.4655 54.7848 98.5591 54.5876 99.6822H46.5424C45.6466 99.6822 44.918 98.9529 44.918 98.0424C44.918 97.1466 45.6466 96.4033 46.5424 96.4033Z" fill="white" stroke="white" stroke-width="2"/>
<path d="M46.543 86.566H61.3744C60.3876 87.5832 59.4922 88.6763 58.6868 89.8451H46.543C45.6469 89.8451 44.918 89.1013 44.918 88.2052C44.918 87.2949 45.6469 86.566 46.543 86.566Z" fill="white" stroke="white" stroke-width="2"/>
<path d="M92.54 105.162L92.0841 105.541L88.8352 108.275L82.5205 113.588C82.2628 113.831 81.8832 113.876 81.5641 113.724C81.245 113.588 81.0328 113.254 81.0328 112.889V109.58H67.9318C67.4164 109.58 67.0061 109.185 67.0061 108.669V100.228C67.0061 100.031 67.0824 99.8341 67.2033 99.6819C67.355 99.4542 67.6285 99.3181 67.9318 99.3181H81.0328V96.0083C81.0328 95.6591 81.245 95.3259 81.5641 95.1888C81.8832 95.022 82.2628 95.0669 82.5205 95.3103L88.8352 100.623L92.0841 103.371L92.54 103.751C92.7373 103.933 92.8741 104.191 92.8741 104.449C92.8741 104.722 92.7373 104.98 92.54 105.162ZM92.0841 85.1995C91.0523 84.5317 89.9591 83.9698 88.8352 83.4844C86.1035 82.3151 83.0974 81.6781 79.9396 81.6781C74.627 81.6781 69.7387 83.5 65.8673 86.5659C64.6224 87.5376 63.4836 88.6307 62.4815 89.8449C60.858 91.7883 59.5368 94.0049 58.6418 96.4035C58.2315 97.4659 57.9123 98.559 57.6695 99.6819C57.3355 101.216 57.1689 102.809 57.1689 104.449C57.1689 110.172 59.2791 115.394 62.7709 119.386C63.8176 120.601 64.9871 121.694 66.2767 122.666C70.0727 125.519 74.8084 127.22 79.9396 127.22C92.5093 127.22 102.711 117.018 102.711 104.449C102.711 96.3424 98.476 89.2225 92.0841 85.1995Z" fill="white" stroke="white" stroke-width="2"/>
</svg>
