<svg width="115" height="115" viewBox="0 0 115 115" fill="none" xmlns="http://www.w3.org/2000/svg">
<path d="M18.9289 7.90683C19.2985 7.90504 19.2985 7.90504 19.6757 7.90322C20.4965 7.90007 21.3173 7.90163 22.1381 7.90321C22.7286 7.90195 23.319 7.90043 23.9095 7.89861C25.3435 7.89482 26.7775 7.89463 28.2116 7.89579C29.3771 7.89668 30.5426 7.89636 31.7081 7.89518C31.9573 7.89493 31.9573 7.89493 32.2116 7.89468C32.5492 7.89434 32.8868 7.894 33.2244 7.89366C36.3856 7.89063 39.5468 7.89182 42.708 7.89436C45.5997 7.89656 48.4914 7.89369 51.3831 7.88841C54.3547 7.88302 57.3263 7.88089 60.2979 7.88237C61.9653 7.88314 63.6327 7.88264 65.3001 7.87877C66.7186 7.87552 68.1371 7.87538 69.5556 7.87923C70.2791 7.88112 71.0026 7.8811 71.7262 7.8782C72.5106 7.8753 73.2948 7.87782 74.0792 7.88174C74.3077 7.87962 74.5362 7.87749 74.7717 7.87531C76.0872 7.88885 76.8262 8.00844 77.8321 8.87658C78.634 9.7207 78.7847 10.3978 78.8267 11.5288C78.7847 12.6597 78.634 13.3368 77.8321 14.181C76.6406 15.1997 75.6565 15.19 74.1616 15.1753C73.9254 15.1764 73.6892 15.1776 73.4459 15.1789C72.6543 15.1818 71.863 15.1784 71.0714 15.1751C70.504 15.176 69.9365 15.1772 69.369 15.1788C68.1469 15.1817 66.9248 15.1815 65.7026 15.1792C63.9335 15.1758 62.1643 15.178 60.3951 15.1817C57.5218 15.1875 54.6484 15.1899 51.7751 15.1897C51.6032 15.1897 51.4313 15.1897 51.2542 15.1897C50.5577 15.1896 49.8612 15.1895 49.1648 15.1895C47.2489 15.1892 45.3331 15.1895 43.4173 15.1901C43.1601 15.1902 43.16 15.1902 42.8976 15.1903C40.0357 15.1913 37.1737 15.1949 34.3118 15.2001C32.5477 15.2032 30.7836 15.2039 29.0195 15.2013C27.667 15.1995 26.3145 15.201 24.9619 15.2037C24.4079 15.2042 23.8538 15.2036 23.2997 15.2018C22.5426 15.1994 21.7856 15.2012 21.0285 15.2039C20.8099 15.2022 20.5913 15.2005 20.3661 15.1988C18.8046 15.2106 17.2598 15.35 16.0721 16.4464C15.1162 18.1288 15.2215 19.8413 15.2271 21.7274C15.2264 22.0482 15.2255 22.3691 15.2245 22.6899C15.2222 23.5696 15.2227 24.4492 15.2237 25.3289C15.2242 26.2784 15.2222 27.2278 15.2206 28.1773C15.2177 30.0367 15.2173 31.8961 15.2179 33.7555C15.2183 35.2669 15.2179 36.7783 15.2169 38.2897C15.2168 38.5049 15.2167 38.72 15.2165 38.9416C15.2163 39.3787 15.216 39.8157 15.2157 40.2528C15.2133 44.3513 15.2138 48.4497 15.2152 52.5482C15.2163 56.297 15.2138 60.0458 15.2096 63.7946C15.2053 67.6445 15.2035 71.4945 15.2043 75.3445C15.2048 77.5056 15.2042 79.6668 15.2011 81.828C15.1984 83.6678 15.1981 85.5077 15.2008 87.3475C15.2021 88.286 15.2024 89.2244 15.1997 90.1629C15.1973 91.0226 15.198 91.8823 15.2011 92.742C15.2017 93.0524 15.2011 93.3628 15.1994 93.6732C15.1508 96.5095 15.1508 96.5095 16.445 98.9267C18.1274 99.8826 19.8399 99.7772 21.7261 99.7716C22.0469 99.7723 22.3677 99.7732 22.6885 99.7742C23.5682 99.7765 24.4479 99.776 25.3276 99.775C26.277 99.7745 27.2265 99.7765 28.176 99.7781C30.0354 99.781 31.8947 99.7814 33.7541 99.7808C35.2655 99.7804 36.777 99.7808 38.2884 99.7818C38.5035 99.7819 38.7186 99.782 38.9403 99.7822C39.3773 99.7824 39.8144 99.7827 40.2514 99.783C44.3499 99.7854 48.4484 99.7849 52.5469 99.7836C56.2956 99.7824 60.0444 99.7849 63.7932 99.7891C67.6432 99.7934 71.4931 99.7952 75.3431 99.7944C77.5043 99.794 79.6654 99.7945 81.8266 99.7976C83.6665 99.8003 85.5063 99.8006 87.3461 99.7979C88.2846 99.7966 89.223 99.7964 90.1615 99.799C91.0212 99.8014 91.8809 99.8007 92.7406 99.7976C93.051 99.797 93.3614 99.7976 93.6718 99.7993C96.5082 99.8479 96.5082 99.8479 98.9253 98.5537C99.762 97.0811 99.776 95.6775 99.7682 94.0233C99.7689 93.7865 99.7696 93.5496 99.7702 93.3056C99.7719 92.5133 99.7705 91.7209 99.7691 90.9286C99.7697 90.36 99.7705 89.7915 99.7715 89.2229C99.7734 87.9992 99.7738 86.7755 99.7733 85.5518C99.7726 83.7811 99.7752 82.0104 99.7787 80.2397C99.7845 77.3647 99.7889 74.4897 99.7919 71.6148C99.792 71.4428 99.7922 71.2709 99.7924 71.0937C99.7949 68.6522 99.7961 66.2107 99.7967 63.7692C99.7967 63.5971 99.7968 63.4251 99.7968 63.2479C99.7969 63.0761 99.7969 62.9043 99.797 62.7273C99.7978 59.8626 99.802 56.9979 99.809 54.1332C99.8132 52.3668 99.8145 50.6006 99.8121 48.8342C99.8106 47.4813 99.8136 46.1285 99.8182 44.7757C99.8194 44.2206 99.8191 43.6655 99.8171 43.1104C99.8147 42.3536 99.8176 41.5969 99.8219 40.8401C99.8199 40.6197 99.8179 40.3993 99.8158 40.1722C99.8299 38.9081 99.9641 38.1648 100.818 37.1666C101.662 36.3647 102.339 36.214 103.47 36.172C104.601 36.214 105.278 36.3647 106.122 37.1666C107.151 38.359 107.132 39.3806 107.118 40.9165C107.12 41.2837 107.12 41.2837 107.123 41.6582C107.126 42.4787 107.123 43.2991 107.121 44.1196C107.122 44.7078 107.123 45.2959 107.125 45.8841C107.129 47.3164 107.128 48.7486 107.126 50.1808C107.124 51.3457 107.124 52.5106 107.124 53.6755C107.125 53.8414 107.125 54.0073 107.125 54.1782C107.125 54.5152 107.125 54.8523 107.126 55.1893C107.128 58.3502 107.125 61.511 107.121 64.6719C107.117 67.3804 107.117 70.0888 107.121 72.7973C107.126 75.9449 107.128 79.0925 107.125 82.2401C107.125 82.5763 107.125 82.9125 107.124 83.2487C107.124 83.4968 107.124 83.4968 107.124 83.7499C107.123 84.9119 107.125 86.0738 107.127 87.2358C107.129 88.6541 107.128 90.0724 107.124 91.4907C107.121 92.2136 107.121 92.9363 107.123 93.6591C107.126 94.445 107.123 95.2308 107.118 96.0167C107.121 96.3546 107.121 96.3546 107.124 96.6993C107.092 99.7388 105.883 102.101 103.843 104.3C101.331 106.678 98.5805 107.108 95.2383 107.093C94.8992 107.094 94.56 107.095 94.2209 107.097C93.2936 107.1 92.3663 107.099 91.439 107.097C90.4371 107.096 89.4352 107.099 88.4333 107.101C86.4723 107.105 84.5113 107.105 82.5503 107.104C80.9559 107.103 79.3616 107.104 77.7673 107.105C77.4266 107.105 77.4266 107.105 77.0791 107.105C76.6176 107.106 76.1562 107.106 75.6948 107.106C71.3699 107.109 67.045 107.108 62.7201 107.106C58.766 107.103 54.8119 107.106 50.8578 107.112C46.7948 107.117 42.7317 107.119 38.6687 107.118C36.3888 107.117 34.1089 107.117 31.829 107.121C29.8882 107.125 27.9474 107.125 26.0065 107.121C25.0169 107.119 24.0274 107.118 23.0378 107.122C22.1306 107.125 21.2235 107.124 20.3164 107.12C19.9895 107.119 19.6626 107.119 19.3357 107.122C15.8214 107.145 13.2801 106.239 10.6986 103.844C8.3211 101.332 7.89062 98.5819 7.90549 95.2397C7.90457 94.9006 7.90336 94.5614 7.90189 94.2223C7.8987 93.2949 7.89963 92.3677 7.90126 91.4404C7.90231 90.4385 7.89954 89.4366 7.89728 88.4347C7.89348 86.4736 7.89329 84.5126 7.89445 82.5516C7.89534 80.9573 7.89502 79.363 7.89384 77.7687C7.89368 77.5415 7.89351 77.3144 7.89334 77.0804C7.893 76.619 7.89266 76.1576 7.89232 75.6961C7.88929 71.3712 7.89049 67.0463 7.89303 62.7214C7.89522 58.7673 7.89236 54.8132 7.88707 50.8591C7.88168 46.7961 7.87956 42.7331 7.88103 38.6701C7.8818 36.3902 7.88131 34.1103 7.87744 31.8304C7.87418 29.8895 7.87405 27.9487 7.87789 26.0079C7.87977 25.0183 7.88025 24.0287 7.87687 23.0392C7.8738 22.132 7.87487 21.2249 7.87913 20.3177C7.87996 19.9908 7.87932 19.6639 7.87701 19.337C7.8539 15.8228 8.75935 13.2815 11.1545 10.7C13.3813 8.59242 15.9295 7.88924 18.9289 7.90683Z" fill="white"/>
<path d="M105.53 8.55896C106.392 9.34139 106.892 10.1684 107.085 11.3268C107.167 13.1907 106.018 14.4388 104.922 15.811C104.641 16.1671 104.361 16.5234 104.08 16.8799C103.94 17.0578 103.8 17.2358 103.656 17.4192C103.067 18.1733 102.495 18.9388 101.925 19.7064C100.854 21.1431 99.759 22.5583 98.6559 23.9696C97.8175 25.0444 96.9925 26.1279 96.1781 27.221C95.1079 28.6575 94.0126 30.0728 92.9095 31.4841C92.0711 32.5589 91.2461 33.6424 90.4317 34.7355C89.3615 36.172 88.2662 37.5873 87.1631 38.9987C86.3247 40.0734 85.4997 41.1569 84.6853 42.25C83.6151 43.6865 82.5198 45.1018 81.4167 46.5132C80.5783 47.588 79.7533 48.6715 78.9389 49.7646C77.8687 51.201 76.7733 52.6164 75.6703 54.0277C74.8319 55.1025 74.0068 56.186 73.1925 57.2791C72.1223 58.7156 71.0269 60.1309 69.9239 61.5423C69.0855 62.617 68.2604 63.7005 67.4461 64.7936C66.3775 66.2279 65.2849 67.642 64.1818 69.05C63.5372 69.8749 62.9003 70.704 62.279 71.5467C62.1603 71.7074 62.0417 71.868 61.9194 72.0336C61.6971 72.336 61.476 72.6392 61.2564 72.9436C60.5712 73.8753 59.8814 74.6539 58.8265 75.1813C58.404 75.2199 57.9798 75.2404 57.5556 75.2504C57.3289 75.2587 57.1021 75.2669 56.8684 75.2754C55.4939 75.0891 54.549 74.0635 53.6024 73.1136C53.4844 72.9969 53.3664 72.8802 53.2449 72.76C52.8524 72.3714 52.4615 71.9812 52.0707 71.591C51.7886 71.3109 51.5064 71.0309 51.2241 70.751C50.4595 69.9923 49.6964 69.232 48.9337 68.4713C48.4569 67.9957 47.9797 67.5204 47.5025 67.0452C46.0083 65.557 44.515 64.068 43.023 62.5777C41.3027 60.8593 39.5794 59.1439 37.8537 57.4309C36.5183 56.1051 35.1854 54.7767 33.8545 53.4463C33.0602 52.6525 32.2648 51.8597 31.4668 51.0696C30.7163 50.3264 29.969 49.58 29.224 48.8312C28.9507 48.5575 28.6762 48.2849 28.4005 48.0136C25.6062 45.2611 25.6062 45.2611 25.4531 43.5761C25.5467 42.1851 25.9372 41.2108 27.0002 40.2609C27.9773 39.7258 28.8913 39.5087 29.9978 39.6807C32.0979 40.3218 33.6661 42.4758 35.1791 43.9944C35.4188 44.2341 35.6586 44.4739 35.8985 44.7136C36.5445 45.3596 37.1899 46.0063 37.8352 46.6531C38.5114 47.3307 39.1883 48.0078 39.8651 48.6848C41.1445 49.9649 42.4234 51.2456 43.702 52.5264C45.1586 53.9855 46.6159 55.444 48.0732 56.9024C51.0689 59.9005 54.0639 62.8993 57.0583 65.8987C57.4124 65.4756 57.7663 65.0523 58.12 64.6289C58.2694 64.4504 58.2694 64.4504 58.4218 64.2684C59.1621 63.3817 59.8696 62.4782 60.5532 61.5474C60.778 61.2446 61.0031 60.9418 61.2283 60.6392C61.3987 60.4099 61.3987 60.4099 61.5725 60.176C62.1567 59.3945 62.7499 58.6199 63.3435 57.8454C63.4628 57.6897 63.5821 57.5339 63.7051 57.3735C63.9471 57.0577 64.1891 56.7419 64.4312 56.4262C65.0317 55.6428 65.631 54.8585 66.2305 54.0744C66.4699 53.7612 66.7094 53.4481 66.9488 53.135C67.0673 52.9801 67.1858 52.8251 67.3079 52.6654C76.2867 40.9239 85.2655 29.1825 94.2442 17.441C94.3628 17.2859 94.4814 17.1308 94.6036 16.971C94.8421 16.6591 95.0807 16.3473 95.3192 16.0355C96.0583 15.0694 96.796 14.1024 97.533 13.1348C97.8951 12.6604 98.2589 12.1873 98.6231 11.7145C99.0177 11.2017 99.403 10.6859 99.7834 10.1622C100.521 9.16975 101.124 8.38844 102.35 8.05132C103.525 7.90083 104.46 8.05444 105.53 8.55896Z" fill="white"/>
</svg>
