<svg width="126" height="126" viewBox="0 0 126 126" fill="none" xmlns="http://www.w3.org/2000/svg">
<g clip-path="url(#clip0_11380_6482)">
<path d="M37.4058 5.90625C38.0447 6.30989 38.5782 6.80545 39.1284 7.32129C39.4536 7.61458 39.7788 7.90778 40.1041 8.20088C40.2687 8.35137 40.4333 8.50186 40.6029 8.6569C41.3761 9.35863 42.1673 10.039 42.9583 10.7205C43.2633 10.9848 43.5684 11.2491 43.8734 11.5135C44.797 12.3126 45.7227 13.1092 46.6497 13.9043C46.8562 14.0816 46.8562 14.0816 47.0669 14.2624C47.3285 14.4865 47.5919 14.7085 47.8572 14.9281C48.2339 15.2578 48.2339 15.2578 48.5827 15.6414C48.9676 16.0692 48.9676 16.0692 49.7104 16.4883C50.2172 16.4186 50.2172 16.4186 50.7407 16.2058C50.9368 16.1336 51.133 16.0614 51.3351 15.987C52.2162 15.6332 53.0793 15.2517 53.9383 14.8473C54.2183 14.7173 54.2183 14.7173 54.5039 14.5847C54.9038 14.3989 55.3034 14.2126 55.7028 14.0257C56.3342 13.7304 56.9663 13.4367 57.5987 13.1433C58.4728 12.7377 59.3468 12.3317 60.2206 11.9253C62.0476 11.0761 63.8764 10.231 65.7074 9.3904C66.0713 9.22309 66.4351 9.05536 66.7986 8.88717C68.4039 8.14446 70.0124 7.40724 71.6551 6.75028C71.9581 6.6284 71.9581 6.6284 72.2672 6.50406C73.0742 6.3561 73.3761 6.44904 74.0737 6.89063C75.0242 8.09225 75.652 9.5164 76.279 10.905C76.366 11.095 76.453 11.285 76.5427 11.4807C76.8181 12.0829 77.0917 12.686 77.3652 13.2891C77.5465 13.6855 77.7279 14.0819 77.9093 14.4782C78.778 16.3788 79.6362 18.2841 80.4818 20.1951C80.5558 20.3607 80.6297 20.5263 80.706 20.697C81.2104 21.8451 81.2104 21.8451 81.2104 22.3945C81.4848 22.3185 81.7591 22.2425 82.0418 22.1641C85.4706 21.3075 89.4975 20.7834 92.7769 22.3945C95.8126 24.2653 98.3145 27.0507 100.744 29.6235C100.907 29.7962 101.071 29.9688 101.239 30.1466C102.899 31.9097 104.529 33.6986 106.119 35.5253C106.236 35.6593 106.353 35.7933 106.473 35.9314C107.227 36.8076 107.572 37.2755 107.581 38.4277C107.585 38.7487 107.585 38.7487 107.589 39.0761C107.59 39.3113 107.592 39.5466 107.593 39.789C107.595 40.0363 107.598 40.2836 107.6 40.5384C107.608 41.3586 107.614 42.1789 107.62 42.9991C107.625 43.5667 107.631 44.1343 107.636 44.7019C107.649 46.198 107.662 47.6941 107.673 49.1903C107.686 50.7161 107.7 52.2419 107.713 53.7676C107.74 56.7631 107.765 59.7585 107.789 62.7539C108.042 62.7521 108.295 62.7503 108.555 62.7485C108.891 62.747 109.226 62.7456 109.562 62.7442C109.728 62.7429 109.894 62.7416 110.066 62.7403C111.292 62.7365 112.417 62.8319 113.603 63.1384C113.776 63.1817 113.949 63.2249 114.128 63.2694C118.286 64.3889 121.722 67.1816 123.954 70.8135C126.171 74.7453 126.774 79.6902 125.615 84.0718C124.031 88.6464 121.067 92.1152 116.771 94.377C115.91 94.7461 115.91 94.7461 115.171 94.7461C115.174 94.9651 115.176 95.1842 115.178 95.4099C115.198 97.4842 115.213 99.5584 115.222 101.633C115.228 102.699 115.234 103.765 115.246 104.831C115.256 105.862 115.262 106.893 115.265 107.924C115.267 108.315 115.27 108.706 115.275 109.098C115.321 112.569 114.767 115.206 112.328 117.792C109.883 120.097 107.027 120.377 103.827 120.376C103.373 120.377 103.373 120.377 102.91 120.379C102.072 120.381 101.234 120.382 100.396 120.383C99.4921 120.384 98.5877 120.386 97.6833 120.388C95.5001 120.393 93.317 120.396 91.1338 120.398C90.1047 120.399 89.0756 120.4 88.0464 120.402C84.6237 120.406 81.2009 120.409 77.7782 120.411C76.8906 120.412 76.0031 120.412 75.1155 120.412C74.7846 120.413 74.7846 120.413 74.447 120.413C70.8751 120.415 67.3031 120.421 63.7311 120.429C60.0606 120.437 56.39 120.442 52.7195 120.442C50.6599 120.443 48.6004 120.445 46.5408 120.451C44.7866 120.457 43.0324 120.459 41.2781 120.456C40.384 120.455 39.49 120.456 38.5959 120.46C37.624 120.466 36.6521 120.463 35.6802 120.46C35.2619 120.464 35.2619 120.464 34.8352 120.468C31.6341 120.442 29.0958 119.587 26.7939 117.378C24.724 115.225 24.0761 112.909 24.0976 109.96C24.0985 109.788 24.0994 109.616 24.1003 109.438C24.1023 109.063 24.1049 108.687 24.1081 108.312C24.1132 107.7 24.1168 107.089 24.12 106.478C24.1235 105.819 24.1271 105.16 24.1312 104.5C24.1411 102.866 24.1462 101.232 24.1484 99.597C24.1489 99.2407 24.1489 99.2407 24.1493 98.8771C24.1505 97.8975 24.1516 96.9179 24.1525 95.9383C24.1553 93.1608 24.1628 90.3835 24.185 87.6061C24.2026 85.3976 24.2097 83.1893 24.2047 80.9807C24.2024 79.8131 24.2053 78.646 24.2209 77.4785C24.2355 76.3792 24.2361 75.2807 24.2263 74.1814C24.2252 73.7797 24.229 73.378 24.2384 72.9764C24.3087 70.613 24.3087 70.613 23.2371 68.5785C22.5204 67.8728 21.7322 67.2806 20.9175 66.6914C20.4646 66.3243 20.0132 65.9555 19.564 65.584C19.3432 65.4063 19.1224 65.2287 18.8949 65.0457C18.1513 64.4274 17.4416 63.7816 16.7339 63.1231C15.5994 62.0674 14.4261 61.0795 13.2184 60.1074C12.524 59.533 11.8598 58.9346 11.1968 58.3242C10.3163 57.5138 9.42111 56.7378 8.48975 55.9863C7.55838 55.2349 6.66322 54.4589 5.78271 53.6484C4.47286 52.4435 3.10852 51.3184 1.72217 50.2031C0.0693949 48.8718 0.0693949 48.8718 -0.154297 47.6191C-0.137449 46.2833 0.692725 45.6092 1.58374 44.6987C2.20204 44.0634 2.75383 43.4053 3.3064 42.7127C4.25679 41.5375 5.26019 40.4242 6.28355 39.3125C6.87219 38.6567 7.42971 37.985 7.98218 37.2986C8.88228 36.1826 9.83001 35.1286 10.8059 34.0798C11.7416 33.0682 12.61 32.0112 13.4741 30.9376C14.0486 30.2433 14.647 29.579 15.2573 28.916C16.0678 28.0355 16.8438 27.1404 17.5952 26.209C18.5395 25.0386 19.5378 23.9314 20.556 22.8252C21.1497 22.1639 21.713 21.4865 22.271 20.7949C23.2153 19.6245 24.2136 18.5173 25.2318 17.4111C25.8255 16.7498 26.3888 16.0725 26.9468 15.3809C27.8911 14.2105 28.8894 13.1033 29.9076 11.9971C30.5013 11.3357 31.0646 10.6584 31.6226 9.9668C35.3138 5.40042 35.3138 5.40042 37.4058 5.90625ZM36.1753 10.3359C35.6754 10.8477 35.6754 10.8477 35.1755 11.5203C34.3904 12.5141 33.5908 13.4658 32.73 14.3965C31.9195 15.277 31.1435 16.1722 30.3921 17.1035C29.4478 18.2739 28.4495 19.3811 27.4313 20.4873C26.8376 21.1487 26.2743 21.826 25.7163 22.5176C24.7717 23.6883 23.7731 24.7959 22.7545 25.9023C22.1659 26.5581 21.6084 27.2299 21.0559 27.9163C20.1558 29.0323 19.2081 30.0863 18.2322 31.1351C17.2965 32.1467 16.4281 33.2036 15.564 34.2772C14.9895 34.9716 14.3911 35.6358 13.7808 36.2988C12.9703 37.1793 12.1943 38.0745 11.4429 39.0059C10.6914 39.9372 9.91545 40.8324 9.10498 41.7129C7.89995 43.0229 6.77657 44.3883 5.65967 45.7734C5.25155 46.2674 4.84069 46.7589 4.4292 47.25C6.48153 49.3251 8.63047 51.277 10.9065 53.1043C11.5985 53.6754 12.2594 54.2712 12.9194 54.8789C13.7947 55.6847 14.6843 56.4555 15.6111 57.2014C16.5942 57.9943 17.5326 58.8181 18.4565 59.6777C19.8024 60.9292 21.2032 62.0998 22.6401 63.2461C22.8638 63.4291 23.0874 63.6122 23.3179 63.8008C23.7863 64.2556 23.7863 64.2556 24.1167 64.2305C24.1529 63.9748 24.189 63.7191 24.2263 63.4557C24.6419 60.7722 25.2337 58.6792 27.3928 56.863C29.4465 55.4108 31.4903 55.2357 33.9604 55.125C33.6017 53.9737 33.1433 52.8891 32.6348 51.7979C32.5527 51.62 32.4705 51.442 32.3859 51.2586C32.209 50.8755 32.0317 50.4925 31.8541 50.1097C31.3793 49.0861 30.9071 48.0612 30.4344 47.0366C30.338 46.8278 30.2416 46.619 30.1422 46.4039C29.0427 44.0217 27.9563 41.6336 26.8749 39.2432C26.7271 38.9167 26.5793 38.5902 26.4315 38.2637C26.3604 38.1067 26.2894 37.9497 26.2161 37.788C25.7571 36.7766 25.2894 35.7696 24.8165 34.7646C24.6998 34.5144 24.583 34.2643 24.4627 34.0065C24.2505 33.5529 24.0362 33.1002 23.8192 32.6488C23.1799 31.2754 22.8815 30.2837 23.3784 28.793C23.864 28.6103 24.3581 28.4501 24.855 28.3008C25.4676 28.0328 26.0741 27.7593 26.6795 27.476C26.9436 27.3537 26.9436 27.3537 27.2131 27.229C27.5929 27.0531 27.9726 26.8769 28.3521 26.7004C32.1677 24.9272 36.0011 23.1971 39.85 21.4975C41.9155 20.585 43.9724 19.6574 46.019 18.7031C46.019 18.5407 46.019 18.3783 46.019 18.2109C45.637 17.8681 45.2389 17.5431 44.8347 17.2266C43.8437 16.4348 42.8911 15.6269 41.9585 14.7656C40.8384 13.7339 39.6811 12.7643 38.4911 11.8144C37.8979 11.3203 37.8979 11.3203 37.374 10.7647C36.9284 10.2521 36.9284 10.2521 36.1753 10.3359ZM70.1535 11.4972C69.8424 11.6449 69.5313 11.7927 69.2201 11.9404C69.0542 12.0195 68.8882 12.0987 68.7172 12.1803C65.602 13.6654 62.4662 15.0971 59.3081 16.4883C56.502 17.7253 53.7128 18.9908 50.9409 20.3027C48.0351 21.6778 45.1091 22.9994 42.1673 24.2958C38.5084 25.9094 34.8799 27.5861 31.2564 29.2777C30.9435 29.4235 30.9435 29.4235 30.6244 29.5723C30.2327 29.755 29.8413 29.938 29.45 30.1215C28.7446 30.4506 28.0551 30.7614 27.3159 31.0078C27.4772 32.1982 27.9605 33.1811 28.4704 34.2541C28.5632 34.4524 28.656 34.6507 28.7516 34.855C28.9519 35.2827 29.1527 35.7102 29.3541 36.1375C29.8896 37.2742 30.4208 38.413 30.9516 39.5519C31.1137 39.8997 31.1137 39.8997 31.2792 40.2545C32.5032 42.8873 33.6767 45.5422 34.8391 48.2027C35.8682 50.5488 36.9785 52.8437 38.144 55.125C38.5365 55.1285 38.5365 55.1285 38.9369 55.132C39.9199 55.1419 40.9027 55.1581 41.8856 55.1761C42.3087 55.183 42.7319 55.1882 43.155 55.1917C46.0695 55.2171 48.3062 55.5288 50.9409 56.8477C50.9415 56.6758 50.9421 56.504 50.9427 56.327C50.9572 52.1495 50.9758 47.972 50.9989 43.7946C51.01 41.7744 51.0197 39.7542 51.0262 37.734C51.0318 35.9735 51.04 34.213 51.0513 32.4526C51.0572 31.5201 51.0618 30.5877 51.0634 29.6552C51.0649 28.778 51.0698 27.9008 51.0773 27.0235C51.0805 26.5473 51.0801 26.071 51.0795 25.5947C51.0842 25.1708 51.0842 25.1708 51.0889 24.7383C51.09 24.4922 51.0912 24.246 51.0923 23.9924C51.187 23.3789 51.187 23.3789 51.4966 22.9309C52.0291 22.5704 52.3357 22.5464 52.9764 22.5425C53.1907 22.5394 53.405 22.5363 53.6257 22.5332C53.9773 22.5337 53.9773 22.5337 54.3359 22.5342C54.5833 22.5317 54.8306 22.5292 55.0855 22.5266C55.9044 22.5192 56.7232 22.5169 57.5422 22.5147C58.1094 22.5106 58.6767 22.5061 59.2439 22.5013C60.738 22.4896 62.2321 22.4823 63.7262 22.4759C65.2504 22.4685 66.7745 22.4571 68.2987 22.446C71.2901 22.4248 74.2815 22.4082 77.2729 22.3945C77.2104 22.2556 77.1478 22.1166 77.0833 21.9734C76.7953 21.3338 76.5074 20.6941 76.2194 20.0545C76.121 19.8359 76.0226 19.6174 75.9212 19.3922C75.0897 17.5448 74.2646 15.6946 73.4431 13.8428C73.3123 13.5481 73.1814 13.2534 73.0466 12.9497C72.7326 12.2426 72.4187 11.5354 72.105 10.8281C71.3576 10.8281 70.8259 11.1756 70.1535 11.4972ZM54.6323 26.0859C54.4851 31.6235 54.3379 37.1611 54.1863 42.8665C54.1213 44.6002 54.0563 46.3339 53.9894 48.1202C53.9591 49.5163 53.9331 50.9094 53.9354 52.3055C53.9355 52.4862 53.9356 52.6669 53.9358 52.853C53.9536 57.0892 54.0294 60.9764 57.1091 64.2253C58.3967 65.4458 59.7754 66.4986 61.3097 67.3889C61.769 67.6758 61.769 67.6758 62.2582 68.0638C63.8643 69.3009 65.2256 69.3661 67.2125 69.3512C67.5293 69.3546 67.8461 69.358 68.1725 69.3615C69.0354 69.3702 69.898 69.3697 70.761 69.3669C71.4833 69.3654 72.2055 69.3684 72.9278 69.3713C74.632 69.3782 76.3361 69.3775 78.0403 69.3719C79.7952 69.3662 81.5498 69.3732 83.3047 69.3864C84.8154 69.3973 86.326 69.4005 87.8368 69.3976C88.7374 69.396 89.6378 69.3971 90.5384 69.4056C91.5423 69.4147 92.5455 69.4077 93.5494 69.3993C93.8458 69.404 94.1422 69.4088 94.4475 69.4137C95.9651 69.4049 95.9651 69.4049 97.2687 68.7177C97.6992 68.2256 98.0656 67.7205 98.437 67.1836C99.1022 66.6126 99.1022 66.6126 99.729 66.1685C99.9333 66.0206 100.138 65.8728 100.348 65.7205C101.481 65.0011 102.673 64.3807 103.851 63.7383C103.851 55.8608 103.851 47.9834 103.851 39.8672C99.1002 39.7454 99.1002 39.7454 94.2534 39.6211C91.8992 38.7383 91.4124 38.3687 90.3159 36.1758C90.2347 32.8461 90.1535 29.5165 90.0698 26.0859C78.3755 26.0859 66.6811 26.0859 54.6323 26.0859ZM93.7612 28.793C93.7327 29.885 93.7152 30.9769 93.6997 32.0691C93.6915 32.3798 93.6832 32.6905 93.6747 33.0107C93.6715 33.3081 93.6684 33.6055 93.6651 33.9119C93.6599 34.1864 93.6548 34.4609 93.6495 34.7437C93.7001 35.4504 93.7001 35.4504 94.1659 35.8975C94.9 36.2499 95.428 36.2598 96.2414 36.2479C96.5269 36.2455 96.8124 36.2431 97.1066 36.2407C97.4035 36.2345 97.7004 36.2283 98.0063 36.2219C98.3071 36.2186 98.6078 36.2153 98.9177 36.2118C99.6599 36.2031 100.402 36.191 101.144 36.1758C99.9019 34.6633 98.5365 33.2845 97.1513 31.9049C96.7562 31.5111 96.3625 31.1161 95.9689 30.7209C95.7185 30.4707 95.4681 30.2206 95.2176 29.9706C94.9912 29.7444 94.7647 29.5182 94.5314 29.2852C94.0973 28.7649 94.0973 28.7649 93.7612 28.793ZM28.8386 60.5083C27.8812 61.876 27.7357 63.1306 27.7439 64.7664C27.743 64.9651 27.7421 65.1638 27.7411 65.3685C27.7386 66.0321 27.7395 66.6957 27.7405 67.3593C27.7394 67.836 27.7382 68.3127 27.7367 68.7894C27.7334 70.0829 27.7333 71.3764 27.7339 72.67C27.7342 73.7506 27.7329 74.8312 27.7318 75.9118C27.729 78.4618 27.7289 81.0118 27.7304 83.5619C27.7319 86.1905 27.7289 88.8191 27.7236 91.4477C27.7193 93.7061 27.7178 95.9646 27.7186 98.2231C27.7191 99.5712 27.7184 100.919 27.715 102.267C27.7119 103.536 27.7124 104.804 27.7156 106.072C27.7162 106.537 27.7155 107.002 27.7135 107.466C27.7109 108.102 27.7129 108.738 27.716 109.374C27.7142 109.556 27.7124 109.738 27.7105 109.926C27.7304 111.872 28.2524 113.607 29.5932 115.048C30.9396 116.207 32.4886 116.678 34.2395 116.681C34.4962 116.683 34.753 116.684 35.0175 116.685C35.2993 116.685 35.5811 116.685 35.8713 116.685C36.3207 116.686 36.3207 116.686 36.7792 116.687C37.6111 116.69 38.4431 116.691 39.2751 116.691C40.1723 116.692 41.0695 116.695 41.9666 116.697C44.1336 116.702 46.3005 116.704 48.4674 116.706C49.4882 116.708 50.5089 116.709 51.5297 116.71C54.9235 116.714 58.3173 116.718 61.7111 116.72C62.5917 116.72 63.4722 116.721 64.3528 116.721C64.5716 116.721 64.7905 116.721 65.016 116.721C68.5606 116.723 72.1053 116.73 75.6499 116.738C79.2902 116.746 82.9304 116.75 86.5706 116.751C88.6141 116.752 90.6575 116.754 92.7009 116.76C94.4413 116.765 96.1817 116.767 97.9221 116.765C98.8096 116.764 99.6971 116.764 100.585 116.769C101.548 116.774 102.512 116.772 103.475 116.768C103.754 116.771 104.032 116.774 104.319 116.777C106.749 116.757 108.649 116.207 110.379 114.452C111.281 113.182 111.573 112.052 111.564 110.51C111.564 110.268 111.564 110.268 111.564 110.022C111.564 109.496 111.558 108.97 111.552 108.444C111.551 108.076 111.55 107.709 111.549 107.342C111.546 106.38 111.539 105.419 111.531 104.457C111.523 103.474 111.52 102.491 111.516 101.507C111.508 99.5817 111.496 97.6561 111.48 95.7305C111.16 95.7159 110.841 95.7014 110.512 95.6864C110.088 95.6659 109.663 95.6453 109.239 95.6247C109.029 95.6153 108.819 95.6059 108.603 95.5962C104.274 95.3816 100.499 93.6565 97.4526 90.5625C94.481 87.0645 93.0961 82.9645 93.195 78.3809C93.3213 76.9116 93.6551 75.5031 94.0073 74.0742C94.0907 73.6643 94.1729 73.2542 94.2534 72.8438C94.0971 72.8434 93.9409 72.843 93.7799 72.8427C89.9694 72.8335 86.1589 72.819 82.3484 72.7985C80.5057 72.7887 78.6629 72.7807 76.8202 72.7771C75.2131 72.7738 73.6062 72.7672 71.9992 72.7565C71.149 72.7509 70.299 72.7471 69.4488 72.7473C68.4975 72.7475 67.5462 72.7401 66.5949 72.732C66.3161 72.7332 66.0373 72.7345 65.7501 72.7358C63.4975 72.7063 61.4993 72.2481 59.8464 70.6289C59.6396 70.431 59.4328 70.233 59.2197 70.0291C59.0052 69.821 58.7908 69.6128 58.5698 69.3984C58.1136 68.9881 57.6573 68.578 57.2009 68.168C56.0539 67.1216 54.9523 66.0326 53.8585 64.9313C53.7233 64.7953 53.5882 64.6593 53.4489 64.5192C52.7623 63.8278 52.0775 63.1347 51.3951 62.4391C48.8046 59.6861 48.8046 59.6861 45.2776 58.7729C44.9729 58.7697 44.6681 58.7665 44.354 58.7633C44.0208 58.7613 43.6876 58.7594 43.3543 58.7578C43.1861 58.7568 43.0179 58.7558 42.8445 58.7547C41.9538 58.7496 41.063 58.7461 40.1723 58.7438C39.2551 58.7411 38.3381 58.7326 37.421 58.7228C36.7133 58.7164 36.0056 58.7143 35.2979 58.7134C34.96 58.7122 34.6221 58.7094 34.2843 58.7048C31.9855 58.6756 30.4489 58.7465 28.8386 60.5083ZM100.16 70.6289C100.018 70.7653 99.8754 70.9017 99.729 71.0423C97.6215 73.2486 96.7439 76.3544 96.6375 79.3345C96.7245 82.9768 98.2392 86.1367 100.74 88.7389C103.714 91.4527 107.263 92.2416 111.166 92.0832C113.948 91.864 116.944 90.3816 118.863 88.3477C121.782 84.8767 122.634 81.4456 122.308 77.0273C121.775 73.9417 120.092 71.0997 117.632 69.1523C111.779 65.1928 105.206 65.6002 100.16 70.6289Z" fill="white"/>
<path d="M39.0939 105.694C39.3664 105.692 39.6389 105.69 39.9197 105.688C40.8347 105.684 41.7496 105.687 42.6646 105.689C43.3198 105.687 43.975 105.685 44.6303 105.683C46.2263 105.677 47.8223 105.677 49.4183 105.679C50.7154 105.681 52.0125 105.681 53.3095 105.679C53.5864 105.679 53.5864 105.679 53.8688 105.678C54.2438 105.678 54.6187 105.677 54.9937 105.677C58.51 105.673 62.0262 105.675 65.5425 105.679C68.7602 105.683 71.9778 105.679 75.1954 105.672C78.4989 105.665 81.8024 105.662 85.1058 105.665C85.4794 105.665 85.853 105.665 86.2265 105.665C86.5023 105.665 86.5023 105.665 86.7835 105.666C88.0791 105.666 89.3747 105.664 90.6703 105.66C92.2491 105.656 93.8278 105.656 95.4066 105.661C96.2122 105.664 97.0177 105.664 97.8234 105.66C98.6964 105.656 99.5691 105.66 100.442 105.666C100.697 105.663 100.952 105.66 101.215 105.657C102.375 105.672 102.936 105.691 103.896 106.389C104.344 107.051 104.344 107.051 104.344 107.943C104.102 108.762 104.015 109.014 103.36 109.512C102.838 109.605 102.838 109.605 102.223 109.605C101.988 109.607 101.753 109.609 101.511 109.612C101.123 109.609 101.123 109.609 100.727 109.607C100.453 109.608 100.179 109.61 99.896 109.611C98.9721 109.615 98.0483 109.613 97.1244 109.611C96.464 109.613 95.8036 109.614 95.1432 109.616C93.5327 109.621 91.9222 109.621 90.3117 109.619C89.003 109.618 87.6943 109.619 86.3856 109.62C86.1065 109.62 86.1065 109.62 85.8218 109.621C85.4438 109.621 85.0658 109.621 84.6878 109.622C81.141 109.625 77.5943 109.624 74.0475 109.621C70.801 109.619 67.5545 109.622 64.308 109.628C60.9765 109.634 57.645 109.636 54.3134 109.634C52.4422 109.634 50.5711 109.634 48.6999 109.638C47.1069 109.642 45.514 109.642 43.9211 109.638C43.108 109.636 42.2951 109.636 41.482 109.639C40.6013 109.642 39.7209 109.639 38.8402 109.635C38.5822 109.637 38.3241 109.64 38.0583 109.642C36.3408 109.625 36.3408 109.625 35.5262 109.066C35.0268 108.262 35.0432 107.73 35.1919 106.805C36.2768 105.527 37.5431 105.681 39.0939 105.694Z" fill="white"/>
<path d="M62.0709 50.846C62.3856 50.8436 62.7002 50.8411 63.0245 50.8386C63.3726 50.8397 63.7208 50.8408 64.069 50.842C64.436 50.8406 64.8031 50.8388 65.1702 50.8368C66.1668 50.8324 67.1633 50.8327 68.1599 50.8341C68.9916 50.8349 69.8234 50.8334 70.6552 50.8319C72.6171 50.8284 74.579 50.8288 76.5409 50.8316C78.5657 50.8345 80.5904 50.831 82.6151 50.8244C84.3531 50.8189 86.0912 50.8173 87.8292 50.8188C88.8674 50.8196 89.9056 50.819 90.9438 50.8148C91.9199 50.811 92.8958 50.8119 93.8719 50.8166C94.2302 50.8175 94.5886 50.8167 94.9469 50.8141C95.4357 50.8109 95.9246 50.8143 96.4135 50.8181C96.6871 50.8181 96.9608 50.8182 97.2428 50.8182C98.1133 50.9709 98.4041 51.2257 98.9297 51.9258C99.066 52.8797 99.114 53.4027 98.5261 54.1865C97.7748 54.7638 97.3462 54.7571 96.4041 54.7595C96.0874 54.7626 95.7706 54.7657 95.4443 54.769C95.0938 54.7674 94.7433 54.7658 94.3928 54.7641C94.0233 54.7658 93.6538 54.768 93.2843 54.7705C92.2811 54.7761 91.278 54.7753 90.2748 54.7731C89.4375 54.7719 88.6003 54.7737 87.763 54.7755C85.7881 54.7797 83.8132 54.7788 81.8383 54.7747C79.8001 54.7705 77.7621 54.7744 75.7239 54.7823C73.9743 54.7889 72.2248 54.7907 70.4753 54.7886C69.4302 54.7874 68.3851 54.788 67.34 54.793C66.3575 54.7975 65.3751 54.7961 64.3926 54.79C64.0319 54.7888 63.6711 54.7896 63.3104 54.7927C62.8183 54.7966 62.3262 54.7922 61.8341 54.7874C61.5587 54.7873 61.2832 54.7871 60.9994 54.787C60.293 54.6328 60.293 54.6328 59.7045 54.0637C59.3086 53.4023 59.3086 53.4023 59.3086 52.5102C59.7547 51.0045 60.5933 50.8492 62.0709 50.846Z" fill="white"/>
<path d="M62.0705 42.4788C62.3851 42.4764 62.6998 42.4739 63.024 42.4714C63.3722 42.4725 63.7204 42.4736 64.0685 42.4748C64.4356 42.4734 64.8027 42.4717 65.1698 42.4697C66.1663 42.4652 67.1628 42.4655 68.1594 42.4669C68.9912 42.4677 69.823 42.4662 70.6547 42.4647C72.6166 42.4613 74.5786 42.4616 76.5405 42.4644C78.5652 42.4673 80.5899 42.4638 82.6147 42.4572C84.3527 42.4518 86.0907 42.4501 87.8288 42.4516C88.867 42.4524 89.9052 42.4518 90.9434 42.4476C91.9195 42.4438 92.8954 42.4447 93.8715 42.4494C94.2298 42.4503 94.5881 42.4495 94.9465 42.4469C95.4353 42.4437 95.9242 42.4471 96.413 42.4509C96.6867 42.4509 96.9604 42.451 97.2423 42.451C98.1129 42.6037 98.4036 42.8585 98.9292 43.5586C99.0523 44.4199 99.0523 44.4199 98.9292 45.2812C98.4039 45.9805 98.1124 46.2359 97.243 46.3902C96.9697 46.3909 96.6963 46.3916 96.4147 46.3923C96.1004 46.3954 95.7861 46.3985 95.4622 46.4018C95.1144 46.4002 94.7667 46.3986 94.4189 46.3969C94.0522 46.3986 93.6855 46.4008 93.3188 46.4033C92.3233 46.4089 91.3278 46.4081 90.3322 46.406C89.501 46.4047 88.6699 46.4065 87.8388 46.4083C85.878 46.4125 83.9173 46.4116 81.9565 46.4075C79.9337 46.4033 77.911 46.4072 75.8882 46.4152C74.1514 46.4217 72.4147 46.4235 70.6779 46.4214C69.6406 46.4202 68.6034 46.4208 67.5661 46.4258C66.5906 46.4303 65.6153 46.4289 64.6399 46.4228C64.282 46.4216 63.9242 46.4224 63.5664 46.4255C63.0776 46.4295 62.5888 46.425 62.1001 46.4202C61.8266 46.4201 61.5532 46.4199 61.2715 46.4198C60.2936 46.2141 59.9173 45.8119 59.3082 45.0352C59.2928 44.1431 59.2928 44.1431 59.5542 43.3125C60.344 42.5183 60.9762 42.4812 62.0705 42.4788Z" fill="white"/>
<path d="M62.0616 59.2165C62.3742 59.2148 62.6868 59.2131 63.0088 59.2113C63.3547 59.2131 63.7005 59.215 64.0464 59.217C64.411 59.2164 64.7757 59.2155 65.1403 59.2143C66.1303 59.2119 67.1202 59.2143 68.1102 59.2175C69.1459 59.2203 70.1817 59.2193 71.2175 59.2188C72.9569 59.2186 74.6963 59.2213 76.4358 59.2259C78.4471 59.2311 80.4584 59.2319 82.4697 59.2304C84.4041 59.229 86.3386 59.2304 88.273 59.2332C89.0965 59.2343 89.9199 59.2345 90.7433 59.234C91.7129 59.2335 92.6824 59.2355 93.652 59.2394C94.0079 59.2405 94.3639 59.2407 94.7198 59.24C95.2055 59.2392 95.6911 59.2417 96.1767 59.2444C96.5845 59.2452 96.5845 59.2452 97.0005 59.246C97.6977 59.3085 98.1034 59.417 98.6836 59.8008C99.064 60.5616 99.0019 61.1775 98.9297 62.0156C98.4062 62.7212 98.1118 62.9706 97.2389 63.1246C96.9634 63.1253 96.688 63.1259 96.4041 63.1267C96.0874 63.1298 95.7706 63.1329 95.4443 63.1361C95.0938 63.1346 94.7433 63.133 94.3928 63.1313C94.0233 63.133 93.6538 63.1352 93.2843 63.1377C92.2811 63.1432 91.278 63.1425 90.2748 63.1403C89.4375 63.1391 88.6003 63.1409 87.763 63.1427C85.7881 63.1469 83.8132 63.146 81.8383 63.1419C79.8001 63.1377 77.7621 63.1416 75.7239 63.1495C73.9743 63.1561 72.2248 63.1579 70.4753 63.1558C69.4302 63.1546 68.3851 63.1551 67.34 63.1602C66.3575 63.1647 65.3751 63.1632 64.3926 63.1572C64.0319 63.156 63.6711 63.1568 63.3104 63.1599C62.8183 63.1638 62.3262 63.1594 61.8341 63.1546C61.5587 63.1545 61.2832 63.1543 60.9994 63.1542C60.293 63 60.293 63 59.7045 62.4309C59.3086 61.7695 59.3086 61.7695 59.3086 60.8774C59.7535 59.3757 60.5871 59.2163 62.0616 59.2165Z" fill="white"/>
<path d="M62.8449 34.1037C63.195 34.1006 63.195 34.1006 63.5522 34.0974C64.3239 34.0916 65.0956 34.0914 65.8673 34.0917C66.4037 34.0899 66.94 34.088 67.4764 34.086C68.6008 34.0827 69.7251 34.0823 70.8495 34.0838C72.2905 34.0852 73.7314 34.0777 75.1725 34.0677C76.2802 34.0614 77.3879 34.0607 78.4957 34.0616C79.027 34.0611 79.5583 34.0588 80.0896 34.0544C80.8326 34.0489 81.5751 34.0513 82.3181 34.0556C82.5376 34.0524 82.7571 34.0491 82.9833 34.0457C84.0672 34.0605 84.523 34.1075 85.4164 34.776C85.8865 35.4375 85.8865 35.4375 85.9019 36.3296C85.6038 37.2762 85.5177 37.4486 84.656 37.8984C83.8877 38.0098 83.1252 38.0043 82.3499 38.0018C81.9998 38.0049 81.9998 38.0049 81.6426 38.0081C80.8709 38.0139 80.0993 38.0141 79.3275 38.0138C78.7911 38.0156 78.2548 38.0174 77.7184 38.0195C76.5941 38.0228 75.4697 38.0232 74.3454 38.0217C72.9043 38.0203 71.4634 38.0278 70.0223 38.0378C68.9146 38.0441 67.8069 38.0448 66.6992 38.0439C66.1678 38.0444 65.6365 38.0467 65.1052 38.0511C64.3623 38.0566 63.6197 38.0542 62.8768 38.0499C62.5475 38.0547 62.5475 38.0547 62.2115 38.0597C61.1276 38.045 60.6718 37.9979 59.7784 37.3295C59.3083 36.668 59.3083 36.668 59.293 35.7759C59.8688 33.9469 61.1751 34.0982 62.8449 34.1037Z" fill="white"/>
<path d="M118.371 72.3516C118.879 73.1514 118.879 73.1514 119.109 74.0742C118.826 75.1003 118.322 75.6916 117.575 76.4345C117.36 76.6504 117.145 76.8663 116.923 77.0887C116.688 77.3208 116.453 77.5529 116.218 77.7849C115.977 78.0251 115.736 78.2656 115.495 78.5061C114.991 79.0086 114.487 79.5099 113.981 80.0103C113.332 80.6521 112.685 81.2961 112.039 81.9409C111.543 82.4367 111.045 82.9319 110.547 83.4267C110.308 83.6641 110.07 83.9015 109.831 84.1391C109.499 84.4702 109.165 84.8003 108.831 85.1304C108.641 85.3185 108.452 85.5066 108.256 85.7004C107.7 86.2153 107.396 86.36 106.651 86.502C105.36 86.3107 104.761 85.5528 103.852 84.6563C103.557 84.3823 103.263 84.1087 102.968 83.8353C102.652 83.5351 102.336 83.2346 102.021 82.9336C101.867 82.7906 101.712 82.6477 101.553 82.5004C100.792 81.7571 100.441 81.3391 100.159 80.2871C100.16 79.4883 100.16 79.4883 100.529 78.7654C101.145 78.2578 101.145 78.2578 101.944 78.0733C103.258 78.3361 103.913 79.0468 104.836 79.9805C104.985 80.1267 105.135 80.273 105.289 80.4236C105.634 80.7641 105.974 81.11 106.312 81.457C107.069 81.1201 107.582 80.7383 108.161 80.1487C108.407 79.8999 108.407 79.8999 108.659 79.646C108.834 79.4671 109.009 79.2881 109.189 79.1038C109.462 78.828 109.462 78.828 109.74 78.5466C110.321 77.9593 110.901 77.3705 111.48 76.7813C112.243 76.0057 113.007 75.2317 113.772 74.4587C113.947 74.2798 114.122 74.1009 114.302 73.9165C114.466 73.7506 114.631 73.5847 114.8 73.4138C114.943 73.2677 115.087 73.1217 115.235 72.9712C116.265 72.0746 117.046 71.942 118.371 72.3516Z" fill="white"/>
<path d="M38.1682 93.8844C38.3393 93.883 38.5103 93.8817 38.6865 93.8803C39.2492 93.8773 39.8117 93.8813 40.3744 93.8857C40.767 93.8857 41.1595 93.8853 41.5521 93.8846C42.3738 93.8843 43.1954 93.8874 44.0171 93.893C45.0688 93.9 46.1205 93.8993 47.1723 93.8962C47.9826 93.8945 48.7928 93.8964 49.6031 93.8994C49.9909 93.9006 50.3786 93.9006 50.7664 93.8997C51.3089 93.899 51.8511 93.903 52.3936 93.9084C52.7019 93.9097 53.0103 93.911 53.3279 93.9124C54.2043 94.0153 54.6712 94.218 55.3708 94.7461C55.7203 95.4452 55.6943 95.9408 55.6169 96.7148C55.2318 97.2471 55.2318 97.2471 54.6325 97.6992C53.82 97.8242 53.82 97.8242 52.8421 97.8266C52.6635 97.8283 52.4849 97.83 52.3009 97.8318C51.7117 97.8362 51.1227 97.8333 50.5335 97.83C50.1234 97.8306 49.7134 97.8316 49.3034 97.8328C48.4444 97.8343 47.5855 97.8322 46.7266 97.8276C45.6259 97.822 44.5255 97.8252 43.4248 97.8311C42.5782 97.8346 41.7317 97.8335 40.8851 97.8309C40.4792 97.8303 40.0734 97.8311 39.6676 97.8334C39.1002 97.8359 38.5332 97.8321 37.9659 97.8266C37.6432 97.8258 37.3204 97.825 36.9879 97.8242C36.1755 97.6992 36.1755 97.6992 35.58 97.2529C35.007 96.4601 35.0381 95.9443 35.1911 94.9922C36.1351 94.0049 36.8282 93.8845 38.1682 93.8844Z" fill="white"/>
</g>
<defs>
<clipPath id="clip0_11380_6482">
<rect width="126" height="126" fill="white"/>
</clipPath>
</defs>
</svg>
