<svg width="64" height="46" viewBox="0 0 64 46" fill="none" xmlns="http://www.w3.org/2000/svg">
<g clip-path="url(#clip0_9765_134)">
<rect width="64" height="45.89" fill="white"/>
<path d="M29.9311 1.89253C29.7866 1.91031 29.4555 1.95032 29.1888 1.97477C27.1551 2.17479 25.0237 2.72598 23.0701 3.55721C21.1121 4.38844 19.1318 5.61972 17.4538 7.0577C16.8292 7.59556 15.5135 8.92464 15.0023 9.53583C13.9088 10.8516 13.0798 12.0962 12.313 13.5786C11.3373 15.4767 10.7306 17.2414 10.3372 19.3039C10.175 20.164 10.1283 20.4796 10.0661 21.0952C10.0394 21.3575 10.0016 21.7242 9.97937 21.9042C9.92159 22.3287 9.92159 24.5402 9.97937 24.9647C10.0016 25.1447 10.0416 25.5203 10.0661 25.7959C10.0972 26.0715 10.135 26.4071 10.1527 26.5382C10.5817 29.2008 11.1973 31.1189 12.313 33.2925C13.371 35.3461 14.5956 37.0175 16.2692 38.6955C17.9649 40.3869 19.643 41.6115 21.7144 42.6694C23.3324 43.4917 24.5681 43.954 26.3039 44.3919C27.2263 44.623 28.2064 44.7941 29.1888 44.8986C29.4555 44.9253 29.8266 44.9631 30.02 44.9897C30.4756 45.0431 32.6381 45.0431 33.0582 44.9853C33.2382 44.9631 33.6049 44.923 33.8672 44.8942C37.7611 44.4919 41.4416 43.0272 44.5976 40.6247C45.4244 39.9957 45.9445 39.5356 46.7646 38.7155C47.5914 37.8887 48.0936 37.322 48.7137 36.5085C51.1141 33.357 52.5832 29.672 52.9877 25.7781C53.0143 25.5114 53.0521 25.1403 53.0788 24.9469C53.1321 24.4957 53.1321 22.3599 53.0788 21.9443C53.0521 21.7687 53.0143 21.3975 52.9877 21.1219C52.8654 19.864 52.4187 17.7037 52.1609 17.1213C52.0431 16.8502 51.8297 16.6368 51.5364 16.4879C50.8585 16.1523 50.0361 16.439 49.7228 17.1258C49.5561 17.4881 49.5516 17.717 49.6872 18.2148C50.185 20.0373 50.4095 21.6242 50.4095 23.4022C50.4095 25.1691 50.1428 27.1472 49.7094 28.5519C49.6916 28.6141 49.6516 28.7497 49.6227 28.8586C49.4049 29.6231 48.9271 30.8388 48.5115 31.6812C47.5847 33.5748 46.5045 35.1039 45.0332 36.6108C41.4305 40.3002 36.6543 42.3182 31.5269 42.3182C29.8577 42.3182 27.9997 42.0738 26.5439 41.6581C26.4617 41.6315 26.3217 41.5937 26.2372 41.5715C26.155 41.5448 26.0283 41.5092 25.9527 41.4892C25.5282 41.3714 24.2436 40.878 23.7235 40.6358C19.7719 38.8177 16.5848 35.7484 14.64 31.8945C13.3154 29.2631 12.642 26.4271 12.642 23.4356C12.642 20.4596 13.3065 17.6303 14.6178 15.0211C15.5268 13.2119 16.5936 11.7161 18.0183 10.2604C20.8165 7.39775 24.317 5.53527 28.2019 4.83517C30.7668 4.3751 33.8094 4.48623 36.1875 5.11965C36.3631 5.16855 36.6587 5.24634 36.8476 5.29968C37.2543 5.40858 37.5166 5.3908 37.8522 5.22634C38.3456 4.9863 38.6034 4.57069 38.6034 4.01061C38.6034 3.7439 38.5812 3.64834 38.4723 3.42386C38.3234 3.13048 38.11 2.91712 37.8389 2.79933C37.2654 2.54596 35.1385 2.10367 33.8605 1.97254C33.5983 1.94587 33.2227 1.90809 33.0293 1.88142C32.6181 1.83475 30.3067 1.83919 29.9311 1.89253Z" fill="black"/>
<path d="M44.9018 1.88365C44.8662 1.90143 44.7484 1.96144 44.6351 2.01478C44.3372 2.15925 39.3454 7.1644 39.2232 7.44444C39.1276 7.6578 39.0787 7.95562 39.0009 8.77351C38.9743 9.06244 38.9365 9.47361 38.9142 9.69142C38.892 9.90478 38.852 10.2848 38.8276 10.5315C38.8053 10.7805 38.7631 11.1827 38.7409 11.4272C38.7142 11.6761 38.6764 12.074 38.6498 12.314C38.6275 12.554 38.5875 12.9252 38.5675 13.1452C38.5453 13.3586 38.5053 13.7831 38.4764 14.0854L38.4231 14.6321L34.3936 18.6749C29.913 23.1689 30.1975 22.8444 30.1975 23.4623C30.1975 24.1957 30.7709 24.7691 31.5088 24.7736C32.1244 24.7736 31.8021 25.0625 36.2961 20.5774L40.3389 16.5479L40.8856 16.4946C41.1879 16.4635 41.6102 16.4257 41.8258 16.4035C42.0436 16.3813 42.417 16.3412 42.657 16.3212C42.897 16.2946 43.2949 16.2568 43.5438 16.2301C43.7883 16.2079 44.1905 16.1657 44.4395 16.1434C44.6839 16.1168 45.064 16.079 45.2796 16.0568C45.4974 16.0345 45.9086 15.9945 46.1975 15.9701C47.0154 15.8923 47.3132 15.8434 47.5266 15.7478C47.8066 15.6256 52.8118 10.6338 52.9562 10.336C53.0096 10.2226 53.0696 10.1004 53.0918 10.0604C53.1407 9.96035 53.1363 9.43138 53.0874 9.33581C53.0651 9.29581 53.014 9.1869 52.9696 9.09134C52.8562 8.86019 52.6117 8.62016 52.3673 8.50014C52.1539 8.39568 51.9116 8.36012 50.8759 8.27789C50.5403 8.25122 50.0269 8.21121 49.7402 8.18676C48.9623 8.12453 48.0978 8.06008 47.5466 8.02007C47.2754 8.00229 47.0398 7.97562 47.0221 7.95784C47.0087 7.94006 46.9776 7.71336 46.9598 7.45555C46.942 7.19774 46.9065 6.731 46.882 6.41985C46.8554 6.10425 46.7954 5.31747 46.7465 4.67071C46.6198 3.04382 46.5976 2.84823 46.4886 2.62153C46.3709 2.3815 46.113 2.11924 45.8908 2.01034C45.7952 1.96589 45.6863 1.91477 45.6463 1.89254C45.5396 1.83476 44.9929 1.83476 44.9018 1.88365ZM44.2194 7.11106C44.255 7.57112 44.3061 8.22677 44.3328 8.57571C44.4106 9.64253 44.4773 9.86033 44.8217 10.1893C45.1418 10.5004 45.3374 10.5515 46.382 10.6316C47.6799 10.7271 48.6801 10.8116 48.6978 10.8316C48.7334 10.8671 46.3686 13.2141 46.2753 13.2319C46.1975 13.2497 44.2217 13.4542 43.0837 13.5609C42.5725 13.6098 41.8858 13.6786 41.5013 13.7187C41.1812 13.7542 41.1946 13.7853 41.2657 13.1852C41.319 12.7696 41.3568 12.394 41.5546 10.3493C41.6369 9.48472 41.7169 8.73573 41.7302 8.68906C41.748 8.59793 44.095 6.23316 44.1305 6.26649C44.1439 6.27094 44.1839 6.65544 44.2194 7.11106Z" fill="black"/>
<path d="M30.0398 8.62229C29.6331 8.66674 29.1308 8.74009 28.8152 8.80232C28.444 8.87122 27.8017 9.01568 27.6795 9.05569C27.6173 9.07347 27.4817 9.11347 27.3728 9.14236C26.7305 9.32239 25.8348 9.66688 25.0169 10.0514C24.0679 10.4937 22.6654 11.4249 21.7787 12.1984C20.7385 13.1029 19.6939 14.3098 18.9938 15.4144C18.2159 16.6345 17.587 18.0281 17.2313 19.2838C17.2002 19.3927 17.1624 19.5283 17.1447 19.5905C17.1224 19.6527 17.0713 19.875 17.0224 20.0928C16.7379 21.3774 16.6602 22.1086 16.6602 23.4377C16.6602 24.7668 16.7379 25.4958 17.0224 26.7826C17.0713 26.996 17.1224 27.2249 17.1447 27.2849C17.1624 27.3472 17.2025 27.4805 17.2313 27.5916C17.6736 29.183 18.5382 30.9143 19.605 32.3345C22.1187 35.6861 25.7637 37.7642 29.9465 38.2354C30.6332 38.3131 32.2246 38.322 32.9358 38.2576C33.7181 38.1798 34.9161 37.9687 35.3695 37.8197C35.4317 37.802 35.5673 37.762 35.6762 37.7331C39.23 36.7374 42.4816 34.1881 44.3885 30.9143C44.9908 29.8786 45.5331 28.6162 45.8176 27.5916C45.8487 27.4827 45.8865 27.3472 45.9043 27.2849C45.9821 27.0404 46.1754 26.1136 46.2488 25.6025C46.4933 23.9889 46.4199 21.7864 46.0687 20.2706C45.8109 19.1527 45.662 18.8904 45.1153 18.6237C44.8397 18.4881 44.3018 18.4926 44.0173 18.6281C43.7595 18.7504 43.4973 19.0082 43.3661 19.2749C43.2083 19.5905 43.1995 19.9217 43.3439 20.4906C43.6017 21.5174 43.684 22.2309 43.684 23.4199C43.6884 24.7668 43.584 25.5313 43.2172 26.8515C42.9061 27.9872 42.2593 29.3297 41.5037 30.4143C39.8479 32.8013 37.2075 34.6148 34.4493 35.2705C33.2958 35.5416 32.7135 35.6061 31.52 35.6061C30.6155 35.6061 30.1821 35.575 29.4864 35.4527C24.3812 34.5748 20.3851 30.5787 19.5028 25.4736C19.385 24.7957 19.3539 24.3512 19.3539 23.4399C19.3539 22.0064 19.5072 21.0063 19.9228 19.7016C21.1075 16.0122 24.0923 13.0318 27.7906 11.8383C29.0886 11.4227 30.0976 11.2693 31.54 11.2738C32.7202 11.2738 33.4803 11.3649 34.4649 11.6138C35.1428 11.785 35.4495 11.7583 35.8451 11.4871C36.0896 11.3249 36.1651 11.2338 36.3118 10.9582C36.4741 10.6515 36.4785 10.1403 36.3252 9.82246C36.0807 9.32461 35.7317 9.11347 34.816 8.92233C34.6983 8.89566 34.5093 8.85788 34.4004 8.83121C34.0982 8.76898 33.7315 8.71342 33.1336 8.64229C32.5491 8.57117 30.6132 8.55784 30.0398 8.62229Z" fill="black"/>
<path d="M30.4201 15.4166C29.0132 15.63 27.7753 16.1412 26.6862 16.9546C24.9593 18.2437 23.8058 20.2017 23.5035 22.3443C23.0324 25.7536 24.8193 29.1274 27.9264 30.6877C29.6089 31.5278 31.7069 31.75 33.5294 31.2789C36.0898 30.6099 38.1812 28.7341 39.0991 26.2737C39.5703 25.0158 39.7547 23.3889 39.488 22.8688C39.2947 22.5065 39.008 22.2576 38.6279 22.1398C38.0389 21.9553 37.3611 22.262 37.081 22.8399C36.9632 23.0799 36.941 23.1799 36.901 23.7267C36.7788 25.4136 36.052 26.7782 34.7585 27.7384C34.0406 28.2718 33.2894 28.6029 32.4515 28.7474C31.9714 28.8296 31.0713 28.8296 30.5801 28.7474C29.3377 28.5296 28.1664 27.8428 27.3663 26.8627C26.8507 26.2293 26.4973 25.5381 26.2906 24.7513C26.1373 24.1645 26.1017 23.1088 26.2128 22.4865C26.6151 20.2351 28.4865 18.417 30.7201 18.1059C30.909 18.0748 31.4291 18.0481 31.8736 18.0437C32.6648 18.0348 32.6871 18.0303 32.8827 17.917C33.3494 17.6414 33.6472 17.1213 33.6072 16.6546C33.5761 16.2923 33.4272 15.99 33.156 15.7456C32.8026 15.4166 32.6537 15.3833 31.6514 15.3655C31.1024 15.3588 30.669 15.3766 30.4201 15.4166Z" fill="black"/>
</g>
<defs>
<clipPath id="clip0_9765_134">
<rect width="64" height="45.89" fill="white"/>
</clipPath>
</defs>
</svg>
