<svg width="64" height="46" viewBox="0 0 64 46" fill="none" xmlns="http://www.w3.org/2000/svg">
<g clip-path="url(#clip0_9765_12)">
<rect width="64" height="45.89" fill="white"/>
<g clip-path="url(#clip1_9765_12)">
<path d="M36.0209 1.8161C33.5398 2.12885 31.5382 3.12271 29.8655 4.86021C28.8091 5.95369 28.0585 7.18848 27.6068 8.55995C27.1388 9.98471 27.0067 11.1454 27.1295 12.7856C27.2894 14.9748 28.4292 17.3239 30.1296 18.9711C31.6447 20.4399 33.3429 21.3086 35.3977 21.6631C35.7267 21.7187 36.0093 21.7766 36.0232 21.7882C36.0742 21.8438 35.9676 21.8739 35.5669 21.9063C33.7738 22.0546 31.3922 22.7959 29.8215 23.7041C27.945 24.7813 26.5388 25.993 25.4221 27.4826C24.463 28.7637 23.4761 30.4456 23.0452 31.5229C22.6815 32.4403 22.334 33.8326 22.1973 34.9098C22.1371 35.4265 22.0444 36.4875 22.0444 36.7215V36.8419H21.0575C19.9501 36.8419 19.5633 36.8975 18.9377 37.1408C17.2049 37.8103 16.1438 39.7679 16.5238 41.5981C16.7971 42.914 17.6659 44.0051 18.8335 44.4939C19.5424 44.7882 19.6467 44.8021 21.4444 44.8275L23.0777 44.853L22.8645 45.1797C22.6074 45.5712 22.4081 46.0646 22.2992 46.5905C22.2251 46.938 22.2158 47.1952 22.2158 48.8284C22.2158 50.4617 22.2251 50.7188 22.2992 51.0663C22.6375 52.7042 23.8144 53.8811 25.4522 54.2193C25.8299 54.2981 26.277 54.3027 37.075 54.3027C47.0645 54.3027 48.3503 54.2935 48.6677 54.2332C50.2129 53.9413 51.3481 52.9127 51.8253 51.3698L51.9458 50.9783V48.8493C51.9458 46.9125 51.9365 46.6948 51.867 46.4376C51.7234 45.9372 51.538 45.5086 51.3203 45.1774L51.1071 44.8507L52.7404 44.8252C54.2393 44.8044 54.4084 44.7951 54.7119 44.7071C55.481 44.4939 56.0625 44.165 56.5745 43.6483C57.0772 43.1364 57.3691 42.6406 57.5985 41.8807C57.7027 41.5471 57.7166 41.4382 57.7166 40.8336C57.7166 40.2289 57.7027 40.1224 57.5985 39.7864C57.3645 39.0219 57.0772 38.5262 56.5606 38.0096C55.9907 37.4397 55.3304 37.0898 54.5057 36.9184C54.1883 36.8535 53.9196 36.835 53.1064 36.835H52.094V36.7145C52.094 36.4759 52.0037 35.4149 51.9388 34.882C51.7952 33.7399 51.4037 32.2248 51.0052 31.2773C50.5233 30.1398 49.5295 28.5181 48.4731 27.1513C47.2869 25.613 45.0421 23.9149 43.1262 23.104C42.3756 22.782 41.4188 22.4531 40.7585 22.2886C40.1377 22.1287 38.8125 21.8971 38.5206 21.8971C38.2727 21.8971 38.1083 21.8623 38.1083 21.8113C38.1083 21.772 38.1986 21.7557 38.977 21.6121C40.0334 21.4245 41.2752 20.9426 42.2551 20.3449C44.2498 19.1333 45.8251 17.1363 46.5734 14.8845C46.8468 14.0597 46.9603 13.4898 47.0205 12.6906C47.1595 10.7237 46.8722 9.09973 46.1008 7.48733C45.5934 6.42861 45.0537 5.65483 44.2428 4.82083C42.6582 3.18757 40.7516 2.2053 38.5137 1.87633C37.733 1.76513 36.6325 1.7327 36.0209 1.8161ZM37.77 4.31811C38.4002 4.37371 39.16 4.54051 39.6512 4.73048C42.4659 5.81237 44.3193 8.275 44.5417 11.2288C44.6204 12.2411 44.4977 13.2489 44.1988 14.1431C43.5988 15.9108 42.4126 17.3564 40.7817 18.3132C39.5353 19.0429 38.011 19.3765 36.4681 19.2561C34.8603 19.1309 33.4795 18.561 32.2239 17.5023C31.0169 16.4899 30.074 14.9215 29.7312 13.3508C29.562 12.5655 29.5435 11.2218 29.6918 10.4411C29.8794 9.45882 30.2964 8.44643 30.8733 7.58694C31.8718 6.08805 33.505 4.93666 35.2286 4.51271C36.1553 4.28336 36.8341 4.23239 37.77 4.31811ZM37.3229 24.4917C37.6519 24.5172 37.6797 24.5311 37.7052 24.6261C37.7445 24.786 38.7569 29.5861 38.787 29.7738C38.8218 29.9637 38.787 30.0471 38.5345 30.3506C38.2264 30.7282 37.3044 31.78 37.1885 31.8889L37.075 31.9978L36.9407 31.868C36.6928 31.6387 35.4603 30.1792 35.3954 30.0448C35.3352 29.9197 35.3607 29.7668 35.8819 27.2857C36.1808 25.8447 36.4426 24.6284 36.4518 24.589C36.482 24.4802 36.7461 24.45 37.3229 24.4917ZM34.1236 24.7489C34.1236 24.7836 34.0749 25.0014 34.0193 25.2354C33.9058 25.6825 33.5861 27.1629 33.2896 28.6154C33.0602 29.7321 33.0463 30.1444 33.2293 30.6703C33.3683 31.0781 33.5768 31.3862 34.3112 32.2827C35.6804 33.9415 36.3708 34.706 36.6094 34.8334C36.6789 34.8681 36.8573 34.8936 37.0565 34.8936C37.4295 34.8936 37.6264 34.8149 37.865 34.5809C38.2727 34.1685 40.2327 31.787 40.6149 31.2356C40.7053 31.1012 40.828 30.8626 40.8836 30.6981C41.0574 30.2302 41.0574 29.9823 40.8999 29.095C40.6265 27.522 40.2303 25.5412 40.052 24.8439L40.0172 24.7188L40.1863 24.7489C40.9809 24.8879 42.5285 25.5435 43.5918 26.1875C44.7131 26.864 45.7324 27.7513 46.6962 28.8795C47.8476 30.2255 48.8715 32.2943 49.2538 34.0341C49.4762 35.0373 49.6175 36.228 49.5619 36.6311L49.5318 36.8489H37.075H24.6159L24.5904 36.6149C24.5348 36.1678 24.6993 34.8635 24.9426 33.8303C25.3156 32.2572 26.2538 30.3599 27.2963 29.0788C28.9597 27.0331 30.9752 25.6617 33.4726 24.874C34.1444 24.6585 34.1236 24.6632 34.1236 24.7489ZM54.2717 38.649C55.0849 38.8389 55.7567 39.5131 55.949 40.3262C56.2316 41.524 55.4718 42.7495 54.2717 43.0367C54.0285 43.0923 52.0176 43.1016 37.0982 43.1016C22.1788 43.1016 20.1679 43.0923 19.9247 43.0367C19.1115 42.8468 18.4397 42.1726 18.2474 41.3595C17.9694 40.1687 18.72 38.9409 19.9015 38.6536C20.1193 38.6026 22.6166 38.5934 37.075 38.5887C52.0222 38.5818 54.0238 38.591 54.2717 38.649ZM48.4939 45.1635C49.3071 45.3534 49.9789 46.0276 50.1712 46.8407C50.2662 47.2438 50.2662 50.4246 50.1712 50.8277C49.9812 51.6409 49.3071 52.3127 48.4939 52.505C48.2507 52.5606 46.8607 52.5699 37.0959 52.5699C27.3311 52.5699 25.9411 52.5606 25.6978 52.505C24.8847 52.315 24.2128 51.6409 24.0205 50.8277C23.9256 50.4246 23.9256 47.2438 24.0205 46.8407C24.2105 46.0415 24.8847 45.3604 25.6746 45.1681C25.8924 45.1171 27.6021 45.1079 37.0727 45.1032C46.8653 45.0986 48.2507 45.1055 48.4939 45.1635Z" fill="black" stroke="black" stroke-width="0.5"/>
</g>
</g>
<defs>
<clipPath id="clip0_9765_12">
<rect width="64" height="45.89" fill="white"/>
</clipPath>
<clipPath id="clip1_9765_12">
<rect width="52" height="52" fill="white" transform="translate(6 -3)"/>
</clipPath>
</defs>
</svg>
