<svg width="64" height="39" viewBox="0 0 64 39" fill="none" xmlns="http://www.w3.org/2000/svg">
<g clip-path="url(#clip0_9765_67)">
<rect width="64" height="39" fill="white"/>
<path d="M9.50346 9.18019C9.2901 9.29798 9.14341 9.44911 9.03451 9.65359C8.94783 9.82917 8.94116 10.0825 8.94116 18.7526V27.6717L9.05896 27.8806C9.12341 27.9984 9.26343 28.154 9.38122 28.2362L9.5857 28.3829L12.7484 28.3985C15.8977 28.4073 15.9066 28.4073 16.1311 28.3051C16.4044 28.1784 16.5556 27.9628 16.6911 27.5294C16.7445 27.3539 16.8089 27.1827 16.8334 27.1449C16.8667 27.0916 17.0823 27.2872 17.7446 27.974C19.5138 29.8009 19.9872 30.2209 22.7542 32.4235C25.8102 34.8549 28.3883 36.7908 29.124 37.1953C29.6219 37.4731 30.6442 37.8487 31.2043 37.9598C31.3554 37.9931 31.5221 38.0376 31.5644 38.062C31.6821 38.1198 32.8067 38.1198 32.8468 38.0576C32.8623 38.0287 32.9245 38.0087 32.989 38.0087C33.2468 38.0087 33.9491 37.7309 34.2225 37.522C34.3247 37.4397 34.3492 37.4442 34.6603 37.5264C35.4782 37.7553 36.4384 37.5664 37.2585 37.0197C37.6874 36.733 38.2342 36.1418 38.4431 35.7328L38.5253 35.5817L39.0032 35.6061C40.4212 35.6839 41.7613 35.0016 42.4103 33.8614L42.5948 33.5347L42.966 33.5058C44.2928 33.3947 45.4863 32.3901 45.813 31.1122C45.8708 30.8832 45.8953 30.6054 45.8953 30.2743L45.8908 29.7764L46.602 29.2897C47.1488 28.9185 47.3332 28.8118 47.3821 28.8563C47.4155 28.8852 47.4466 28.9296 47.4466 28.9585C47.4466 28.9874 47.5044 29.1963 47.5733 29.4275C47.7289 29.9253 47.9733 30.2165 48.3089 30.3054C48.4556 30.3454 49.4158 30.3587 51.5805 30.3498L54.6454 30.3343L54.8743 30.1876C55.021 30.1009 55.1566 29.9587 55.2255 29.832L55.3433 29.6231V20.684V11.7428L55.2255 11.5339C55.1566 11.4027 55.021 11.2649 54.8743 11.1782L54.6409 11.0316L53.5452 11.0404C49.6891 11.0805 45.8686 11.7228 42.9148 12.8296C42.3392 13.043 42.1014 13.2096 41.9547 13.4919C41.8569 13.6764 41.8436 13.7608 41.8614 14.0142L41.8858 14.3165L41.6569 14.2298C41.5302 14.1764 41.2768 14.0787 41.0857 14.0053C40.4034 13.7431 38.2986 12.8896 38.0008 12.7518C37.8341 12.6785 37.683 12.6162 37.6741 12.6162C37.6652 12.6162 37.5074 12.5473 37.3318 12.4695C37.1563 12.3873 37.0051 12.3229 36.9896 12.3229C36.9807 12.3229 36.834 12.2584 36.6629 12.1806C35.8294 11.7961 34.8693 11.4583 34.1136 11.2894C33.558 11.1671 32.3356 11.1182 31.8088 11.196C30.7754 11.3561 29.693 11.8383 28.6306 12.6096C28.455 12.7362 28.2661 12.8674 28.2061 12.8963C28.0639 12.9741 20.5095 12.9785 20.465 12.9052C20.445 12.8763 20.4606 12.6473 20.4939 12.394C20.5872 11.6717 20.4695 11.4049 19.9049 11.0338C18.7248 10.2581 16.2355 9.66915 12.6172 9.30243C11.3148 9.16685 11.057 9.14685 10.3747 9.1224C9.76128 9.10018 9.62348 9.11129 9.50346 9.18019ZM12.1838 11.2027C13.9863 11.3983 15.6688 11.6561 16.7756 11.9095C17.7935 12.1384 18.5447 12.3962 18.5447 12.514C18.5447 12.5784 18.4136 13.4341 18.3247 13.9275C18.2603 14.312 18.0713 15.2477 17.9113 15.9789C17.7113 16.8991 17.3312 18.4259 16.9423 19.8839C16.6645 20.933 15.831 23.8022 15.4265 25.118C15.3776 25.278 15.2665 25.6447 15.1776 25.9359L15.0176 26.4582L12.9395 26.4493C11.7993 26.4404 10.8725 26.4204 10.8837 26.3959C10.8881 26.3759 10.8925 22.9266 10.8925 18.7282V11.0938L11.3215 11.1227C11.5549 11.1427 11.9438 11.1782 12.1838 11.2027ZM53.403 13.0052C53.4119 13.0296 53.4119 16.5101 53.403 20.7307L53.3941 28.4073H51.3471C49.7491 28.4073 49.2957 28.3918 49.2802 28.3429C49.2713 28.314 49.0179 27.5428 48.7201 26.636C48.2134 25.0869 47.92 24.2334 47.5933 23.3111C47.5155 23.0977 47.3732 22.691 47.2755 22.4087C47.1088 21.9264 47.0421 21.7308 46.8132 21.1263C46.7643 20.9907 46.642 20.6529 46.5398 20.3862C46.0864 19.1327 45.833 18.4748 45.2774 17.0724C44.7373 15.7078 44.5617 15.2944 44.2773 14.6832C44.1661 14.4387 44.1906 14.4098 44.6418 14.2787C44.8329 14.2209 45.104 14.1431 45.2507 14.0987C47.0488 13.5719 49.7447 13.143 52.1228 13.0074C53.1118 12.9518 53.3852 12.9518 53.403 13.0052ZM33.7269 13.2008C34.3359 13.323 34.7893 13.483 35.9205 13.972C37.7541 14.7565 38.6009 15.1077 39.4788 15.4477C39.9611 15.6389 40.4056 15.8122 40.4678 15.8367C40.5256 15.8611 40.6234 15.9011 40.6879 15.9234C40.799 15.9723 41.5791 16.2656 42.5014 16.6057C42.7948 16.7168 43.0615 16.8346 43.0904 16.8635C43.1438 16.9168 43.9328 18.8816 44.2217 19.6817C44.275 19.8284 44.3884 20.1351 44.4751 20.364C44.5573 20.5929 44.6795 20.9196 44.744 21.0952C44.8084 21.2708 44.924 21.5975 45.0129 21.8264C45.0951 22.0553 45.2374 22.4509 45.3307 22.7043C45.4174 22.9577 45.5641 23.3622 45.6486 23.6067C46.0975 24.8691 46.7198 26.7271 46.7198 26.7982C46.7198 26.8516 46.4331 27.076 45.9108 27.4317C45.4663 27.7339 45.0774 27.9828 45.044 27.9873C45.0151 27.9873 44.8484 27.8273 44.6795 27.6272C43.6305 26.3937 41.8858 24.8157 38.8009 22.3154C35.9828 20.0351 35.0293 19.2305 34.1714 18.4215C33.9025 18.1681 33.5957 17.9236 33.4891 17.8747C33.2757 17.777 32.9912 17.757 32.8223 17.8303C32.7579 17.8547 32.4911 17.9614 32.2222 18.0637C31.9533 18.1703 31.6333 18.3015 31.511 18.357C31.0421 18.5704 30.7709 18.6593 30.4286 18.7126C29.7619 18.8104 29.5952 18.9127 29.2062 19.4527C28.7817 20.0528 28.055 20.6285 27.5193 20.7974C27.1437 20.9152 26.7192 20.9396 26.3258 20.8752C25.4879 20.7329 25.3213 20.6262 25.2879 20.2017C25.2301 19.4794 25.888 18.0903 26.8726 16.8635C27.2526 16.3945 28.4217 15.2499 29.104 14.6854C29.7908 14.1098 30.4775 13.6675 31.0243 13.4386C31.9422 13.0541 32.6845 12.9852 33.7269 13.2008ZM25.968 14.9054C25.988 14.9054 25.8569 15.0766 25.6702 15.2899C24.5545 16.5523 23.7299 18.0237 23.4388 19.2683C23.3454 19.6728 23.3321 20.5307 23.4188 20.8529C23.6321 21.6775 24.3011 22.3354 25.1835 22.6021C26.7681 23.0799 28.2194 22.8399 29.4774 21.8953C29.853 21.6131 30.3797 21.1019 30.6176 20.7885C30.6998 20.6818 30.8176 20.6285 31.1576 20.5351C31.3954 20.4707 31.8844 20.2973 32.2356 20.1462L32.8779 19.8684L33.3024 20.2529C33.9691 20.8574 34.887 21.6264 37.0162 23.3622C40.2967 26.0292 41.368 26.9649 42.4792 28.1051C43.1904 28.8318 43.586 29.3275 43.8283 29.7964C44.0083 30.1476 44.0083 30.5899 43.8283 30.8921C43.6683 31.17 43.5305 31.2922 43.2238 31.4478C43.0526 31.5345 42.8926 31.5745 42.7326 31.5745C42.5037 31.5745 42.4703 31.5545 42.1281 31.2633C41.928 31.0922 40.9435 30.1231 39.9389 29.1097C38.9343 28.0917 37.7408 26.8871 37.2829 26.4248C36.4895 25.6247 36.445 25.5914 36.2206 25.5581C35.7672 25.4892 35.4405 25.6225 35.2071 25.9626C35.1093 26.1092 35.0893 26.1959 35.0893 26.4849C35.0893 26.7871 35.1093 26.8649 35.216 27.0116C35.3827 27.245 37.7741 29.712 39.4655 31.3944L40.8257 32.7391L40.7479 32.8813C40.5278 33.3147 39.9433 33.6325 39.3299 33.6659C39.0232 33.6814 38.8965 33.6703 38.7743 33.6081C38.4631 33.4414 37.4474 32.4924 35.9916 30.9966C33.4424 28.3696 33.6024 28.5251 33.3646 28.4629C32.5712 28.254 31.8733 29.0963 32.2533 29.812C32.3845 30.0654 34.2425 32.019 35.7472 33.497L36.8673 34.5993L36.7651 34.7838C36.5406 35.1927 36.0783 35.5484 35.6049 35.675C35.2871 35.7573 35.0159 35.6661 34.6248 35.3394C33.9714 34.7927 32.7623 33.6081 31.3199 32.1034C30.4331 31.1766 29.7597 30.5143 29.6485 30.4565C29.084 30.1698 28.3706 30.5676 28.3039 31.2033C28.2883 31.3589 28.3039 31.5456 28.3372 31.6522C28.4061 31.8612 29.3796 32.9146 31.2954 34.8438C31.9689 35.5261 32.5089 36.1062 32.4934 36.1307C32.4534 36.1951 31.8022 36.1395 31.4554 36.0484C30.8131 35.8773 30.173 35.6039 29.7152 35.3017C28.9684 34.8105 25.479 32.1479 23.5343 30.5877C21.1273 28.6585 21.0673 28.6029 18.1536 25.6247L17.5001 24.958L17.6268 24.529C18.2225 22.491 18.5959 21.1552 18.947 19.8595C19.1226 19.2105 19.6827 16.9102 19.8005 16.3501C19.8583 16.0812 19.9272 15.7745 19.9516 15.6678C19.9761 15.5611 20.0249 15.3455 20.0538 15.1944C20.0938 15.0143 20.1361 14.9121 20.185 14.901C20.2494 14.8877 25.788 14.8921 25.968 14.9054Z" fill="black" stroke="black" stroke-width="0.5"/>
</g>
<defs>
<clipPath id="clip0_9765_67">
<rect width="64" height="39" fill="white"/>
</clipPath>
</defs>
</svg>
