<svg width="21" height="21" viewBox="0 0 21 21" fill="none" xmlns="http://www.w3.org/2000/svg">
<g clip-path="url(#clip0_10389_47)">
<rect x="0.641281" y="0.785156" width="19.8178" height="19.573" rx="5.68307" fill="white"/>
<path d="M10.3072 4.56495C9.73874 4.6366 9.28019 4.86429 8.897 5.26234C8.65498 5.51284 8.48302 5.79573 8.37953 6.10992C8.27232 6.43632 8.24207 6.70222 8.2702 7.07798C8.30682 7.57953 8.56794 8.11769 8.9575 8.49505C9.3046 8.83153 9.69363 9.03056 10.1644 9.11176C10.2398 9.1245 10.3045 9.13777 10.3077 9.14042C10.3194 9.15316 10.295 9.16006 10.2031 9.16749C9.79235 9.20145 9.24675 9.37129 8.88691 9.57934C8.45702 9.82613 8.13486 10.1037 7.87905 10.445C7.65932 10.7385 7.43323 11.1238 7.33451 11.3706C7.25119 11.5807 7.17158 11.8997 7.14026 12.1465C7.12646 12.2649 7.10523 12.5079 7.10523 12.5615V12.5891H6.87914C6.62545 12.5891 6.53682 12.6019 6.39352 12.6576C5.99653 12.811 5.75345 13.2595 5.84049 13.6787C5.90312 13.9802 6.10214 14.2302 6.36963 14.3422C6.53204 14.4096 6.55592 14.4127 6.96777 14.4186L7.34194 14.4244L7.29311 14.4993C7.2342 14.5889 7.18856 14.702 7.16361 14.8225C7.14663 14.9021 7.14451 14.961 7.14451 15.3352C7.14451 15.7093 7.14663 15.7682 7.16361 15.8478C7.2411 16.2231 7.51072 16.4927 7.88594 16.5702C7.97245 16.5882 8.07489 16.5893 10.5486 16.5893C12.8372 16.5893 13.1317 16.5872 13.2044 16.5734C13.5584 16.5065 13.8185 16.2708 13.9278 15.9174L13.9554 15.8277V15.3399C13.9554 14.8962 13.9533 14.8464 13.9374 14.7874C13.9045 14.6728 13.862 14.5746 13.8121 14.4987L13.7633 14.4239L14.1375 14.418C14.4809 14.4133 14.5196 14.4111 14.5891 14.391C14.7653 14.3422 14.8985 14.2668 15.0158 14.1484C15.131 14.0311 15.1979 13.9176 15.2504 13.7435C15.2743 13.6671 15.2775 13.6421 15.2775 13.5036C15.2775 13.3651 15.2743 13.3407 15.2504 13.2637C15.1968 13.0886 15.131 12.975 15.0127 12.8566C14.8821 12.7261 14.7308 12.6459 14.5419 12.6067C14.4692 12.5918 14.4076 12.5875 14.2213 12.5875H13.9894V12.5599C13.9894 12.5053 13.9687 12.2622 13.9538 12.1401C13.9209 11.8785 13.8312 11.5314 13.74 11.3143C13.6296 11.0537 13.4019 10.6822 13.1599 10.3691C12.8881 10.0167 12.3738 9.62763 11.9349 9.44188C11.763 9.3681 11.5438 9.29274 11.3925 9.25506C11.2503 9.21844 10.9467 9.16536 10.8798 9.16536C10.823 9.16536 10.7854 9.1574 10.7854 9.14573C10.7854 9.1367 10.806 9.13299 10.9844 9.10008C11.2264 9.05709 11.5109 8.9467 11.7354 8.80977C12.1923 8.5322 12.5532 8.0747 12.7247 7.55883C12.7873 7.36989 12.8133 7.23933 12.8271 7.05622C12.8589 6.60563 12.7931 6.23358 12.6164 5.86419C12.5002 5.62165 12.3765 5.44438 12.1907 5.25332C11.8277 4.87915 11.3909 4.65412 10.8782 4.57875C10.6994 4.55328 10.4473 4.54585 10.3072 4.56495ZM10.7079 5.13815C10.8522 5.15088 11.0263 5.1891 11.1388 5.23262C11.7837 5.48047 12.2083 6.04464 12.2592 6.72133C12.2772 6.95326 12.2491 7.18413 12.1807 7.38899C12.0432 7.79394 11.7715 8.12512 11.3978 8.34432C11.1123 8.5115 10.7631 8.58792 10.4096 8.56033C10.0413 8.53167 9.72494 8.40111 9.43728 8.15856C9.16077 7.92663 8.94476 7.56732 8.86621 7.20748C8.82747 7.02756 8.82322 6.71974 8.85719 6.54088C8.90018 6.31585 8.99571 6.08392 9.12786 5.88701C9.35661 5.54363 9.73078 5.27985 10.1256 5.18273C10.3379 5.13018 10.4934 5.11851 10.7079 5.13815ZM10.6054 9.75979C10.6808 9.76563 10.6872 9.76881 10.693 9.79057C10.702 9.82719 10.934 10.9269 10.9409 10.9699C10.9488 11.0134 10.9409 11.0325 10.883 11.102C10.8124 11.1885 10.6012 11.4295 10.5746 11.4544L10.5486 11.4794L10.5179 11.4496C10.4611 11.3971 10.1787 11.0627 10.1639 11.032C10.1501 11.0033 10.1559 10.9683 10.2753 10.3999C10.3438 10.0697 10.4038 9.7911 10.4059 9.78208C10.4128 9.75713 10.4733 9.75023 10.6054 9.75979ZM9.87249 9.8187C9.87249 9.82666 9.86134 9.87655 9.8486 9.93015C9.8226 10.0326 9.74936 10.3717 9.68142 10.7045C9.62888 10.9603 9.62569 11.0548 9.66762 11.1753C9.69947 11.2687 9.74723 11.3393 9.91548 11.5446C10.2291 11.9247 10.3873 12.0998 10.442 12.129C10.4579 12.1369 10.4988 12.1428 10.5444 12.1428C10.6298 12.1428 10.675 12.1247 10.7296 12.0711C10.823 11.9767 11.272 11.4311 11.3596 11.3048C11.3803 11.274 11.4084 11.2193 11.4212 11.1816C11.461 11.0744 11.461 11.0176 11.4249 10.8144C11.3623 10.454 11.2715 10.0002 11.2306 9.84046L11.2227 9.8118L11.2614 9.8187C11.4435 9.85054 11.798 10.0007 12.0416 10.1483C12.2985 10.3033 12.532 10.5065 12.7528 10.765C13.0166 11.0734 13.2511 11.5473 13.3387 11.9459C13.3897 12.1757 13.422 12.4485 13.4093 12.5408L13.4024 12.5907H10.5486H7.69435L7.68851 12.5371C7.67577 12.4347 7.71346 12.1359 7.76918 11.8992C7.85463 11.5388 8.06958 11.1041 8.30841 10.8106C8.68948 10.342 9.15122 10.0278 9.72335 9.84736C9.87726 9.798 9.87249 9.79906 9.87249 9.8187ZM14.4883 13.0031C14.6746 13.0466 14.8285 13.2011 14.8725 13.3874C14.9373 13.6618 14.7632 13.9425 14.4883 14.0083C14.4326 14.0211 13.9719 14.0232 10.5539 14.0232C7.13602 14.0232 6.67534 14.0211 6.61961 14.0083C6.43332 13.9648 6.27941 13.8104 6.23536 13.6241C6.17167 13.3513 6.34363 13.07 6.6143 13.0042C6.66419 12.9925 7.23633 12.9904 10.5486 12.9893C13.9729 12.9877 14.4315 12.9898 14.4883 13.0031ZM13.1646 14.4955C13.3509 14.5391 13.5048 14.6935 13.5489 14.8798C13.5706 14.9721 13.5706 15.7008 13.5489 15.7932C13.5054 15.9795 13.3509 16.1334 13.1646 16.1774C13.1089 16.1902 12.7905 16.1923 10.5534 16.1923C8.31637 16.1923 7.99793 16.1902 7.9422 16.1774C7.75591 16.1339 7.602 15.9795 7.55795 15.7932C7.53619 15.7008 7.53619 14.9721 7.55795 14.8798C7.60147 14.6967 7.75591 14.5406 7.9369 14.4966C7.98678 14.4849 8.37847 14.4828 10.5481 14.4817C12.7915 14.4807 13.1089 14.4823 13.1646 14.4955Z" fill="#0D152C" stroke="#0D152C" stroke-width="0.365649"/>
</g>
<defs>
<clipPath id="clip0_10389_47">
<rect x="0.641281" y="0.785156" width="19.8178" height="19.573" rx="5.68307" fill="white"/>
</clipPath>
</defs>
</svg>
