<svg width="20" height="21" viewBox="0 0 20 21" fill="none" xmlns="http://www.w3.org/2000/svg">
<g clip-path="url(#clip0_10389_446)">
<rect x="0.158813" y="0.785156" width="19.8178" height="19.573" rx="5.68307" fill="white"/>
<g clip-path="url(#clip1_10389_446)">
<path d="M5.07836 7.20001C5.10021 7.20846 5.12206 7.2169 5.14457 7.2256C5.21523 7.25303 5.2857 7.28093 5.35615 7.30888C5.40471 7.32792 5.45326 7.34694 5.50183 7.36595C5.62098 7.41271 5.73994 7.45992 5.85884 7.50733C5.918 7.53088 5.97723 7.55426 6.0365 7.57757C6.12898 7.61405 6.22123 7.65103 6.31338 7.68833C6.33962 7.69871 6.36585 7.70909 6.39288 7.71979C6.55089 7.78513 6.67539 7.8504 6.75546 8.00999C6.76458 8.0403 6.76458 8.0403 6.77389 8.07122C6.78033 8.09142 6.78677 8.11163 6.7934 8.13245C6.80784 8.201 6.809 8.26352 6.80666 8.33338C6.88533 8.36924 6.96412 8.4048 7.04295 8.44031C7.06502 8.45038 7.0871 8.46045 7.10984 8.47082C7.55541 8.67087 7.92886 8.62544 8.38749 8.50424C8.85162 8.38343 9.41441 8.39665 9.85772 8.58864C10.0002 8.65031 10.093 8.63263 10.2414 8.58961C10.8414 8.42417 11.5012 8.48269 12.0525 8.77933C12.2854 8.89867 12.5603 8.84558 12.8001 8.76974C12.965 8.71477 13.1257 8.64982 13.2846 8.57948C13.3469 8.55415 13.3469 8.55415 13.4021 8.55415C13.3954 8.53543 13.3888 8.51672 13.382 8.49744C13.323 8.31226 13.2994 8.15864 13.3745 7.97463C13.461 7.83469 13.5639 7.79049 13.7108 7.73144C13.7466 7.71656 13.7466 7.71656 13.7831 7.70137C14.1732 7.541 14.5673 7.3898 14.9606 7.23731C14.9831 7.22858 15.0056 7.21985 15.0287 7.21086C15.0495 7.20281 15.0703 7.19477 15.0917 7.18648C15.1099 7.17945 15.1281 7.17241 15.1468 7.16517C15.2986 7.10814 15.4152 7.10163 15.5718 7.15021C15.7895 7.27118 15.8532 7.46974 15.9387 7.6921C15.9514 7.72419 15.964 7.75629 15.977 7.78936C16.0111 7.87615 16.0449 7.96303 16.0786 8.04998C16.1138 8.14057 16.1493 8.23102 16.1848 8.32148C16.2421 8.46755 16.2993 8.61369 16.3563 8.75989C16.4596 9.02482 16.5643 9.28924 16.669 9.55362C16.697 9.6242 16.7249 9.69481 16.7527 9.76542C16.7614 9.78745 16.7701 9.80948 16.7791 9.83218C16.796 9.87514 16.813 9.91811 16.8299 9.96109C16.875 10.0756 16.921 10.1897 16.968 10.3034C16.9782 10.3282 16.9883 10.353 16.9988 10.3785C17.0183 10.4259 17.0379 10.4733 17.0578 10.5206C17.1281 10.6926 17.1692 10.8519 17.1275 11.0378C17.0313 11.2372 16.8715 11.3253 16.6707 11.4003C16.6505 11.408 16.6303 11.4158 16.6096 11.4238C16.5443 11.4489 16.4789 11.4736 16.4135 11.4983C16.3685 11.5155 16.3235 11.5327 16.2785 11.5499C16.2111 11.5757 16.1437 11.6015 16.0763 11.6272C15.9454 11.677 15.8149 11.7278 15.6848 11.7796C15.6559 11.7911 15.627 11.8026 15.5972 11.8145C15.545 11.8353 15.4929 11.8562 15.4408 11.8773C15.2382 11.9577 15.0736 12.0047 14.8646 11.9208C14.8407 11.9003 14.8168 11.8799 14.7922 11.8587C14.7706 11.8428 14.7489 11.8269 14.7267 11.8105C14.5883 11.8452 14.4592 11.9089 14.3295 11.9676C14.2851 11.9876 14.2406 12.0075 14.1961 12.0274C14.1264 12.0588 14.0568 12.0902 13.9872 12.1216C13.9196 12.152 13.8521 12.1823 13.7845 12.2125C13.7636 12.222 13.7427 12.2315 13.7211 12.2413C13.5739 12.3072 13.5739 12.3072 13.5124 12.3072C13.5107 12.3413 13.5107 12.3413 13.509 12.3762C13.4636 12.5579 13.3351 12.7001 13.1813 12.8039C13.0643 12.87 12.9517 12.9083 12.8226 12.9419C12.8238 12.9646 12.8251 12.9873 12.8264 13.0107C12.8353 13.2863 12.8015 13.4892 12.6121 13.6973C12.4624 13.8348 12.2925 13.9132 12.0878 13.9146C12.0571 13.9124 12.0263 13.9101 11.9947 13.9077C11.996 13.9284 11.9972 13.9491 11.9986 13.9705C12.008 14.2374 11.9672 14.4358 11.7825 14.6356C11.6456 14.7615 11.5037 14.8398 11.3169 14.8529C11.2947 14.8506 11.2725 14.8483 11.2496 14.846C11.2553 14.8813 11.261 14.9166 11.2668 14.9529C11.2912 15.1852 11.2426 15.3729 11.1055 15.5623C10.9367 15.7563 10.7472 15.8454 10.4939 15.8661C10.3096 15.8685 10.1571 15.812 9.99754 15.7237C9.95269 15.6974 9.95269 15.6974 9.89739 15.7015C9.86863 15.7344 9.84126 15.7686 9.81461 15.8032C9.67301 15.9686 9.50437 16.0566 9.28856 16.0861C9.05611 16.0981 8.86565 16.0397 8.68318 15.8946C8.53707 15.7624 8.47026 15.6098 8.40722 15.4255C8.3799 15.4346 8.35258 15.4437 8.32443 15.4531C8.05107 15.4765 7.84875 15.4367 7.61384 15.2979C7.48444 15.1613 7.39709 14.9935 7.33098 14.8184C7.30804 14.825 7.30804 14.825 7.28463 14.8317C7.0552 14.883 6.84561 14.8478 6.64109 14.7356C6.47699 14.6304 6.3938 14.4944 6.30994 14.3217C6.29441 14.2906 6.29441 14.2906 6.27857 14.2589C6.2707 14.2432 6.26284 14.2275 6.25474 14.2113C6.23404 14.2142 6.21334 14.2172 6.19201 14.2202C5.94937 14.2487 5.77319 14.2237 5.55795 14.1078C5.33375 13.9244 5.2355 13.73 5.20114 13.4424C5.21779 13.1519 5.37371 12.9217 5.52415 12.6816C5.63132 12.5019 5.67081 12.3772 5.64764 12.1692C5.64465 12.117 5.64465 12.117 5.6416 12.0638C5.63904 12.0337 5.63648 12.0036 5.63384 11.9726C5.63128 11.9418 5.62871 11.911 5.62608 11.8792C5.62309 11.8452 5.62309 11.8452 5.62004 11.8105C5.54719 11.7922 5.47433 11.774 5.39927 11.7553C5.39301 11.7718 5.38675 11.7883 5.3803 11.8053C5.31813 11.9089 5.23584 11.9391 5.12331 11.9743C4.79081 12.006 4.37113 11.7579 4.07029 11.6379C3.97941 11.6016 3.88845 11.5656 3.79748 11.5296C3.73928 11.5065 3.68109 11.4834 3.6229 11.4602C3.59591 11.4495 3.56891 11.4388 3.5411 11.4278C3.1066 11.2541 3.1066 11.2541 2.99844 11.0378C2.96909 10.7785 3.03187 10.5775 3.13092 10.3405C3.14501 10.3057 3.15906 10.2707 3.17305 10.2358C3.21052 10.1427 3.24867 10.0498 3.28695 9.95703C3.32673 9.86024 3.36585 9.76318 3.40502 9.66614C3.46068 9.52836 3.51652 9.39066 3.5726 9.25305C3.70137 8.93703 3.82683 8.61974 3.95178 8.3022C4.03045 8.1023 4.10936 7.90251 4.18899 7.703C4.21081 7.64811 4.23236 7.59313 4.25388 7.53812C4.26571 7.5085 4.27754 7.47889 4.28973 7.44837C4.29934 7.424 4.30895 7.39963 4.31885 7.37452C4.3778 7.25917 4.47071 7.17326 4.59285 7.12897C4.77564 7.09974 4.91111 7.1331 5.07836 7.20001ZM4.70938 7.47791C4.61817 7.57002 4.58013 7.6933 4.53432 7.81208C4.52545 7.83466 4.51657 7.85724 4.50743 7.88051C4.47801 7.95552 4.44882 8.03062 4.41962 8.10571C4.39892 8.15857 4.37821 8.21142 4.35747 8.26427C4.31351 8.37633 4.26963 8.48842 4.22579 8.60052C4.1236 8.86162 4.02029 9.12227 3.91701 9.38294C3.88342 9.46777 3.84988 9.55264 3.81636 9.6375C3.72477 9.86926 3.63305 10.1009 3.53871 10.3316C3.52547 10.3641 3.51224 10.3966 3.4986 10.4301C3.47548 10.4866 3.45217 10.5431 3.4286 10.5994C3.41401 10.6351 3.41401 10.6351 3.39911 10.6716C3.39089 10.6913 3.38267 10.7111 3.37419 10.7314C3.3531 10.8033 3.34466 10.853 3.35718 10.9274C3.47206 11.0226 3.63175 11.0685 3.76961 11.123C3.79626 11.1337 3.82291 11.1443 3.85036 11.1553C3.9067 11.1778 3.96307 11.2002 4.01945 11.2226C4.10489 11.2565 4.19025 11.2906 4.27561 11.3247C4.33058 11.3466 4.38555 11.3685 4.44053 11.3904C4.4657 11.4004 4.49086 11.4104 4.51679 11.4208C4.69023 11.4895 4.86488 11.5544 5.04053 11.6173C5.1227 11.5423 5.16964 11.4803 5.20954 11.3766C5.22485 11.3375 5.22485 11.3375 5.24047 11.2975C5.25126 11.2691 5.26204 11.2407 5.27315 11.2114C5.28483 11.1814 5.29652 11.1513 5.30855 11.1204C5.3471 11.0211 5.38525 10.9216 5.42342 10.8222C5.45016 10.7531 5.47693 10.6841 5.50376 10.615C5.51053 10.5976 5.5173 10.5802 5.52427 10.5623C5.5381 10.5267 5.55193 10.4911 5.56577 10.4555C5.5869 10.4011 5.60799 10.3467 5.62907 10.2923C5.72789 10.0376 5.82843 9.78367 5.93017 9.53013C5.93712 9.51279 5.94408 9.49546 5.95125 9.47759C6.01206 9.32604 6.07301 9.17453 6.13404 9.02306C6.17128 8.93063 6.20843 8.83817 6.24558 8.7457C6.25651 8.71868 6.26743 8.69167 6.27869 8.66384C6.30806 8.59068 6.33681 8.51733 6.36513 8.44376C6.37427 8.42034 6.38342 8.39692 6.39285 8.37279C6.40096 8.35071 6.40908 8.32863 6.41744 8.30588C6.42469 8.28652 6.43193 8.26715 6.4394 8.2472C6.45546 8.18632 6.45546 8.18632 6.39272 8.11261C6.33255 8.08019 6.33255 8.08019 6.26033 8.05386C6.23278 8.04309 6.20523 8.03231 6.17685 8.02121C6.132 8.00413 6.132 8.00413 6.08626 7.98671C6.05556 7.97477 6.02485 7.96283 5.99322 7.95053C5.89479 7.91232 5.79623 7.87448 5.69765 7.83665C5.5996 7.79875 5.50158 7.76077 5.40356 7.72277C5.34253 7.69915 5.28147 7.67559 5.22038 7.6521C5.10379 7.6072 4.9877 7.56244 4.87362 7.51143C4.79409 7.47266 4.79409 7.47266 4.70938 7.47791ZM15.1367 7.55369C15.1073 7.56555 15.1073 7.56555 15.0772 7.57765C15.0132 7.60348 14.9493 7.62951 14.8853 7.65556C14.7976 7.69115 14.7098 7.72667 14.622 7.76217C14.6002 7.77098 14.5785 7.77979 14.5561 7.78887C14.4262 7.8413 14.2959 7.89211 14.1647 7.94132C14.1354 7.95239 14.1061 7.96345 14.0759 7.97486C14.0223 7.99494 13.9686 8.01473 13.9148 8.03418C13.8912 8.04306 13.8677 8.05194 13.8435 8.06109C13.8233 8.06845 13.8032 8.07582 13.7824 8.08341C13.7154 8.1232 13.6976 8.14706 13.678 8.223C13.6964 8.29208 13.7171 8.35125 13.7447 8.4166C13.7526 8.4361 13.7604 8.4556 13.7685 8.47569C13.7949 8.5411 13.8218 8.60625 13.8488 8.67143C13.8676 8.71792 13.8864 8.76442 13.9052 8.81095C13.9457 8.91137 13.9865 9.01171 14.0273 9.112C14.1276 9.35881 14.2248 9.60679 14.3225 9.85462C14.3668 9.9669 14.4114 10.0791 14.4559 10.1913C14.5393 10.4012 14.6223 10.6111 14.7039 10.8217C14.7393 10.9129 14.7749 11.004 14.8106 11.095C14.8269 11.137 14.8431 11.1789 14.8592 11.221C14.881 11.2781 14.9033 11.3351 14.9258 11.392C14.938 11.4237 14.9503 11.4555 14.9629 11.4882C15.0077 11.5715 15.0244 11.5893 15.113 11.6173C15.1898 11.6014 15.1898 11.6014 15.2716 11.5662C15.3194 11.5474 15.3194 11.5474 15.3681 11.5282C15.4027 11.5141 15.4374 11.4999 15.472 11.4858C15.5075 11.4716 15.5431 11.4574 15.5788 11.4432C15.6533 11.4135 15.7278 11.3835 15.8021 11.3533C15.8975 11.3146 15.9931 11.2763 16.0887 11.2382C16.1622 11.209 16.2356 11.1795 16.309 11.15C16.3442 11.1359 16.3794 11.1217 16.4147 11.1076C16.4639 11.0879 16.513 11.068 16.5621 11.048C16.5901 11.0367 16.6181 11.0253 16.6469 11.0137C16.7167 10.9857 16.7167 10.9857 16.7688 10.9274C16.7605 10.763 16.7037 10.6221 16.643 10.4705C16.6275 10.4314 16.6275 10.4314 16.6118 10.3914C16.5775 10.3044 16.5429 10.2175 16.5083 10.1306C16.4841 10.0693 16.4598 10.008 16.4356 9.94677C16.3758 9.79551 16.3157 9.64434 16.2555 9.4932C16.2014 9.35747 16.1475 9.22168 16.0937 9.08586C16.0119 8.87953 15.9299 8.67326 15.8478 8.46705C15.8156 8.38594 15.7833 8.30481 15.7511 8.22366C15.7129 8.12748 15.6746 8.03135 15.6362 7.93527C15.622 7.89963 15.6078 7.86396 15.5937 7.82827C15.5743 7.77936 15.5547 7.73052 15.5351 7.68169C15.5242 7.65419 15.5132 7.62669 15.5019 7.59836C15.4748 7.52976 15.4748 7.52976 15.4166 7.47791C15.312 7.47791 15.2319 7.51467 15.1367 7.55369ZM6.64109 8.66453C6.62941 8.69398 6.62941 8.69398 6.61749 8.72403C6.51845 8.97384 6.41937 9.22364 6.32028 9.47343C6.31242 9.49325 6.30456 9.51308 6.29646 9.5335C6.05359 10.1457 5.81021 10.7577 5.56485 11.3689C5.61933 11.4274 5.65424 11.4548 5.7287 11.4897C5.82853 11.5426 5.86585 11.5749 5.92359 11.6725C5.95683 11.7817 5.98286 11.8919 6.00638 12.0036C6.02477 11.9957 6.04316 11.9877 6.06211 11.9795C6.31276 11.8785 6.54541 11.8483 6.80299 11.9452C6.91157 12.0021 6.99622 12.0834 7.08262 12.1692C7.10538 12.1914 7.12815 12.2136 7.15161 12.2365C7.16527 12.2507 7.17893 12.2649 7.193 12.2796C7.20471 12.2686 7.21641 12.2576 7.22847 12.2463C7.41469 12.0781 7.60264 11.9979 7.8553 12.0036C8.08875 12.037 8.2735 12.0971 8.42608 12.2801C8.56347 12.4788 8.58217 12.6788 8.60039 12.9143C8.62109 12.9147 8.6418 12.9151 8.66313 12.9155C8.91635 12.9273 9.1263 12.9809 9.30236 13.173C9.4505 13.3684 9.47209 13.5586 9.48346 13.7974C9.51874 13.7956 9.55403 13.7939 9.59039 13.7922C9.85063 13.7942 10.0356 13.8916 10.2516 14.029C10.4045 14.1256 10.5602 14.2172 10.7166 14.3079C10.7458 14.3254 10.775 14.343 10.805 14.3611C10.9827 14.4631 11.1259 14.5241 11.3324 14.4872C11.4464 14.45 11.527 14.3874 11.5928 14.2872C11.6489 14.1744 11.6498 14.0877 11.6359 13.9629C11.5409 13.6936 11.2606 13.581 11.0271 13.449C10.9944 13.4304 10.9618 13.4117 10.9292 13.3931C10.8691 13.3589 10.8091 13.3247 10.749 13.2906C10.7229 13.2757 10.6969 13.2608 10.6701 13.2454C10.6445 13.2318 10.6189 13.2182 10.5925 13.2042C10.5321 13.1626 10.5321 13.1626 10.5045 13.0661C10.5045 12.9695 10.5045 12.9695 10.5321 12.9143C10.6181 12.8713 10.6914 12.8885 10.7805 12.9143C10.8853 12.9633 10.9843 13.0212 11.084 13.0799C11.1259 13.104 11.1259 13.104 11.1687 13.1287C11.3493 13.2332 11.5291 13.3394 11.7069 13.4488C11.8602 13.5428 11.9825 13.5697 12.1603 13.549C12.2751 13.5118 12.3539 13.451 12.4207 13.3506C12.4781 13.2349 12.486 13.1236 12.4638 12.9971C12.3265 12.7052 11.9584 12.5632 11.6884 12.4143C11.637 12.386 11.5859 12.3573 11.5347 12.3286C11.5045 12.3119 11.4742 12.2952 11.4431 12.278C11.3558 12.2217 11.2892 12.1655 11.222 12.0864C11.2275 11.9429 11.2275 11.9429 11.2772 11.8932C11.4828 11.8593 11.6293 11.9696 11.8015 12.0709C11.832 12.0884 11.8626 12.1059 11.894 12.124C12.0823 12.2325 12.2698 12.3426 12.4548 12.4568C12.5918 12.5411 12.6883 12.5665 12.8501 12.5555C13.0068 12.4992 13.1068 12.4011 13.1813 12.252C13.1958 12.1198 13.1958 12.0088 13.1416 11.8863C12.9657 11.6976 12.7152 11.5801 12.4931 11.4534C12.4459 11.4264 12.3986 11.3993 12.3514 11.3722C12.3189 11.3536 12.2863 11.3349 12.2537 11.3163C12.138 11.25 12.0226 11.183 11.9074 11.1158C11.8751 11.0971 11.8429 11.0783 11.8107 11.0595C11.7498 11.0241 11.6889 10.9885 11.6281 10.9529C11.3104 10.7684 11.1038 10.6492 10.7356 10.7436C10.6339 10.771 10.533 10.8008 10.4321 10.8308C10.3888 10.8434 10.3456 10.856 10.3023 10.8685C10.0057 10.9555 9.7127 11.051 9.42212 11.1567C9.19671 11.2372 8.99529 11.3014 8.75389 11.2982C8.73111 11.298 8.70833 11.2977 8.68486 11.2975C8.30156 11.2869 8.04812 11.1075 7.78825 10.8379C7.58341 10.6086 7.58341 10.6086 7.57934 10.4583C7.61762 10.3413 7.68915 10.3102 7.79494 10.2547C8.456 9.8947 9.04032 9.41893 9.59384 8.91289C9.27372 8.69948 8.76175 8.79066 8.40474 8.86136C8.31337 8.88074 8.22438 8.90567 8.13471 8.93186C7.67748 9.0501 7.27093 8.94225 6.85096 8.75691C6.83069 8.748 6.81042 8.73909 6.78953 8.72991C6.74003 8.70815 6.69056 8.68634 6.64109 8.66453ZM9.57821 9.40024C9.44382 9.53371 9.29364 9.64611 9.14313 9.76057C9.09974 9.79394 9.05706 9.82823 9.01443 9.86258C8.79944 10.0342 8.57261 10.1808 8.33861 10.3252C8.3134 10.3409 8.2882 10.3565 8.26223 10.3727C8.22837 10.3934 8.22837 10.3934 8.19383 10.4146C8.12835 10.4603 8.07555 10.5107 8.02088 10.5686C8.18057 10.7788 8.36116 10.9138 8.62281 10.9705C8.88243 11.0026 9.10919 10.9182 9.34806 10.8244C9.62062 10.7201 9.89991 10.6405 10.1803 10.56C10.2318 10.5451 10.2834 10.5301 10.3349 10.5151C10.4286 10.488 10.5222 10.4609 10.6159 10.434C10.6344 10.4286 10.6529 10.4233 10.672 10.4178C10.7849 10.3865 10.8851 10.3696 11.003 10.3668C11.0317 10.3658 11.0605 10.3648 11.0902 10.3637C11.3747 10.3958 11.6158 10.545 11.8584 10.6876C11.892 10.7072 11.9257 10.7267 11.9593 10.7462C12.0286 10.7864 12.0979 10.8267 12.167 10.8671C12.2677 10.9258 12.3687 10.9838 12.4698 11.0417C12.5019 11.06 12.534 11.0784 12.5661 11.0968C12.6259 11.1311 12.6857 11.1653 12.7455 11.1996C12.883 11.2787 13.0195 11.3593 13.1543 11.4429C13.1784 11.4578 13.2025 11.4727 13.2273 11.488C13.3853 11.602 13.4537 11.7396 13.5124 11.9208C13.6229 11.8749 13.7332 11.8289 13.8436 11.7829C13.8738 11.7703 13.904 11.7577 13.9352 11.7448C14.0261 11.7068 14.1168 11.6681 14.2075 11.6294C14.2387 11.6164 14.2699 11.6035 14.302 11.5902C14.3315 11.5775 14.3611 11.5647 14.3915 11.5516C14.4182 11.5404 14.4448 11.5291 14.4723 11.5175C14.5355 11.4849 14.5355 11.4849 14.5602 11.4309C14.5615 11.3394 14.5306 11.273 14.4958 11.1886C14.4884 11.1705 14.4811 11.1524 14.4735 11.1338C14.4489 11.0735 14.4239 11.0134 14.399 10.9533C14.3726 10.8887 14.3463 10.8242 14.32 10.7596C14.3013 10.7138 14.2826 10.668 14.2639 10.6221C14.1482 10.3392 14.0366 10.0546 13.9247 9.77009C13.75 9.32611 13.75 9.32611 13.5676 8.8853C13.425 8.93123 13.2858 8.98115 13.1468 9.03707C12.7735 9.17992 12.318 9.29161 11.9326 9.12848C11.8796 9.1028 11.8267 9.07692 11.7739 9.05087C11.0027 8.73447 10.1783 8.80299 9.57821 9.40024ZM6.12409 12.3855C6.0067 12.5257 5.92315 12.6856 5.83563 12.8453C5.81015 12.8909 5.81015 12.8909 5.78416 12.9375C5.59793 13.2371 5.59793 13.2371 5.59449 13.5707C5.65127 13.7065 5.73492 13.7985 5.86495 13.8663C6.02499 13.8919 6.15713 13.8795 6.29333 13.7841C6.3916 13.6908 6.45137 13.5662 6.5169 13.449C6.54708 13.3963 6.57726 13.3436 6.60745 13.2909C6.62207 13.2651 6.63669 13.2393 6.65176 13.2126C6.70906 13.1128 6.7689 13.0146 6.82924 12.9165C6.90051 12.791 6.90681 12.6687 6.88945 12.5279C6.81489 12.3816 6.71573 12.2769 6.5583 12.2244C6.36616 12.2099 6.25832 12.2461 6.12409 12.3855ZM7.55175 12.4176C7.41011 12.5633 7.31835 12.7401 7.21887 12.916C7.1915 12.964 7.16412 13.012 7.13674 13.0599C7.10904 13.1085 7.08141 13.1572 7.0538 13.2058C7.00287 13.2953 6.95158 13.3846 6.90012 13.4737C6.87011 13.5258 6.84011 13.578 6.81011 13.6301C6.78919 13.6663 6.78919 13.6663 6.76785 13.7032C6.74875 13.7365 6.74875 13.7365 6.72926 13.7705C6.71262 13.7994 6.71262 13.7994 6.69564 13.8289C6.63694 13.9404 6.63072 14.0317 6.64109 14.1561C6.69253 14.29 6.76961 14.3798 6.88945 14.4597C7.02217 14.5039 7.14294 14.504 7.27406 14.4545C7.42291 14.3704 7.48938 14.2296 7.57007 14.0841C7.61459 14.0044 7.66032 13.9255 7.70611 13.8466C7.79443 13.6944 7.88224 13.5418 7.96979 13.3891C8.03776 13.2714 8.10694 13.1544 8.17631 13.0375C8.24373 12.916 8.2595 12.8027 8.24164 12.6659C8.18987 12.5192 8.1049 12.4333 7.96568 12.3624C7.81408 12.3203 7.68443 12.3325 7.55175 12.4176ZM8.49001 13.3006C8.39417 13.3874 8.32343 13.4746 8.25717 13.5852C8.23867 13.6161 8.22017 13.6469 8.20111 13.6787C8.17781 13.7182 8.15452 13.7578 8.13126 13.7974C8.11564 13.8238 8.10003 13.8502 8.08394 13.8774C8.03115 13.9668 7.97855 14.0562 7.92602 14.1458C7.90869 14.1752 7.89137 14.2047 7.87353 14.235C7.8573 14.2628 7.84108 14.2907 7.82436 14.3193C7.80973 14.3443 7.79509 14.3694 7.78001 14.3952C7.70885 14.526 7.70034 14.645 7.71732 14.7908C7.75448 14.9056 7.81532 14.9845 7.91567 15.0512C8.03144 15.1086 8.14274 15.1166 8.26924 15.0944C8.54604 14.9641 8.683 14.6271 8.82633 14.3717C8.85583 14.3195 8.88537 14.2673 8.91492 14.2151C8.94156 14.1679 8.96809 14.1208 8.99462 14.0736C9.02478 14.0206 9.05583 13.9681 9.08798 13.9163C9.14666 13.8144 9.16402 13.7191 9.1412 13.6028C9.0961 13.4611 9.03132 13.3823 8.90394 13.3006C8.75499 13.2374 8.6414 13.2349 8.49001 13.3006ZM9.27749 14.2889C9.16866 14.4589 9.06473 14.6312 8.96431 14.8063C8.94818 14.8336 8.93204 14.8609 8.91542 14.8891C8.827 15.0435 8.76816 15.1634 8.76596 15.3427C8.80966 15.4859 8.86716 15.5829 8.98673 15.6739C9.10999 15.7255 9.22169 15.743 9.35065 15.7032C9.57411 15.5959 9.69066 15.3502 9.80926 15.1441C9.83706 15.096 9.86545 15.0483 9.89389 15.0006C9.98869 14.837 10.0641 14.7062 10.063 14.5148C10.0119 14.3474 9.9307 14.2313 9.77494 14.1475C9.58772 14.0972 9.40333 14.1331 9.27749 14.2889ZM10.4217 14.5424C10.4186 14.5612 10.4155 14.58 10.4123 14.5994C10.3575 14.869 10.2313 15.0826 10.0906 15.3151C10.2138 15.4419 10.3241 15.5022 10.5045 15.5083C10.6309 15.4835 10.7103 15.4395 10.8046 15.3513C10.8817 15.2312 10.934 15.1257 10.908 14.9808C10.8446 14.7885 10.7289 14.6927 10.5511 14.6028C10.5081 14.5824 10.465 14.5622 10.4217 14.5424Z" fill="#0D152C" stroke="#0D152C" stroke-width="0.300877"/>
<path d="M7.50518 5.84473C7.73374 5.91833 7.84865 6.25697 7.95879 6.45701C8.0744 6.66536 8.19086 6.87294 8.31236 7.07792C8.32346 7.09674 8.33456 7.11557 8.346 7.13497C8.391 7.21122 8.43625 7.28724 8.48235 7.36282C8.55023 7.47721 8.59896 7.56145 8.57279 7.69882C8.54347 7.75056 8.54347 7.75056 8.49001 7.78161C8.39859 7.80231 8.39859 7.80231 8.29684 7.78161C8.25741 7.73684 8.25741 7.73684 8.21965 7.67672C8.20538 7.6541 8.1911 7.63148 8.17639 7.60818C8.09579 7.47436 8.01719 7.33953 7.93981 7.20382C7.90365 7.14042 7.86748 7.07704 7.83126 7.01367C7.82203 6.9975 7.8128 6.98133 7.80329 6.96467C7.74577 6.86428 7.68705 6.76471 7.62725 6.66567C7.59773 6.61676 7.56843 6.56773 7.53918 6.51866C7.50225 6.45685 7.46491 6.39527 7.42714 6.33397C7.28926 6.10138 7.28926 6.10138 7.3008 5.98475C7.34373 5.87145 7.38579 5.85148 7.50518 5.84473Z" fill="#0D152C" stroke="#0D152C" stroke-width="0.300877"/>
<path d="M12.7949 5.68437C12.8467 5.73093 12.8467 5.73093 12.8777 5.79475C12.8668 5.91719 12.8337 6.00303 12.7714 6.10822C12.755 6.1364 12.7385 6.16458 12.7215 6.19362C12.7036 6.22363 12.6857 6.25365 12.6673 6.28458C12.6393 6.33231 12.6112 6.38004 12.5832 6.42779C12.5639 6.46081 12.5444 6.4938 12.525 6.52677C12.4563 6.64326 12.3886 6.76032 12.3215 6.87778C12.303 6.91022 12.2844 6.94265 12.2658 6.97509C12.2307 7.03656 12.1956 7.09806 12.1606 7.15958C11.9249 7.57021 11.9249 7.57021 11.8153 7.61952C11.7211 7.61482 11.6782 7.59715 11.6083 7.53329C11.5727 7.33365 11.6787 7.19178 11.7774 7.02449C11.8033 6.97945 11.8033 6.97945 11.8297 6.9335C11.8843 6.83883 11.9394 6.74452 11.9947 6.65022C12.03 6.5893 12.0653 6.52836 12.1005 6.4674C12.1791 6.3318 12.2579 6.19629 12.3378 6.06145C12.3674 6.0111 12.3965 5.96045 12.4251 5.90954C12.4464 5.8723 12.4464 5.8723 12.4681 5.83431C12.4806 5.81209 12.493 5.78988 12.5059 5.76699C12.5862 5.65837 12.6694 5.63931 12.7949 5.68437Z" fill="#0D152C" stroke="#0D152C" stroke-width="0.300877"/>
<path d="M10.1251 5.07039C10.201 5.10489 10.201 5.10489 10.2285 5.13248C10.2314 5.19567 10.2324 5.25894 10.2326 5.3222C10.2327 5.35195 10.2327 5.35195 10.2328 5.3823C10.2331 5.44818 10.2332 5.51406 10.2332 5.57994C10.2333 5.62556 10.2334 5.67117 10.2335 5.71678C10.2336 5.81252 10.2337 5.90827 10.2337 6.00401C10.2337 6.12691 10.234 6.2498 10.2345 6.3727C10.2348 6.46695 10.2349 6.56119 10.2349 6.65543C10.2349 6.70075 10.235 6.74607 10.2352 6.79139C10.2355 6.8547 10.2354 6.91799 10.2352 6.98129C10.2353 7.01736 10.2353 7.05343 10.2354 7.0906C10.2285 7.17457 10.2285 7.17457 10.1734 7.22976C10.1216 7.2371 10.1216 7.2371 10.063 7.23666C10.0436 7.23681 10.0243 7.23695 10.0043 7.2371C9.95259 7.22976 9.95259 7.22976 9.8974 7.17457C9.88983 7.09097 9.88983 7.09097 9.88894 6.98216C9.88871 6.96237 9.88848 6.94258 9.88824 6.92219C9.88758 6.85658 9.88734 6.79099 9.88716 6.72539C9.88691 6.67988 9.88666 6.63437 9.8864 6.58887C9.88595 6.4934 9.88573 6.39794 9.88565 6.30248C9.8855 6.18004 9.88446 6.05762 9.8832 5.93519C9.88238 5.84118 9.88218 5.74718 9.88216 5.65317C9.88204 5.60802 9.8817 5.56288 9.88112 5.51774C9.88038 5.45463 9.88051 5.39157 9.88086 5.32846C9.88072 5.29254 9.88058 5.25661 9.88043 5.21959C9.8974 5.13248 9.8974 5.13248 9.96181 5.07755C10.0354 5.04969 10.0354 5.04969 10.1251 5.07039Z" fill="#0D152C" stroke="#0D152C" stroke-width="0.300877"/>
</g>
</g>
<defs>
<clipPath id="clip0_10389_446">
<rect x="0.158813" y="0.785156" width="19.8178" height="19.573" rx="5.68307" fill="white"/>
</clipPath>
<clipPath id="clip1_10389_446">
<rect width="15.2846" height="19.5771" fill="white" transform="translate(2.42543 0.783203)"/>
</clipPath>
</defs>
</svg>
