<svg width="20" height="21" viewBox="0 0 20 21" fill="none" xmlns="http://www.w3.org/2000/svg">
<g clip-path="url(#clip0_10389_212)">
<rect x="0.158813" y="0.49707" width="19.8178" height="19.573" rx="5.68307" fill="white"/>
<path d="M9.62171 4.27842C9.58144 4.28338 9.48915 4.29453 9.41481 4.30134C8.84802 4.35709 8.25397 4.51071 7.70948 4.74239C7.16375 4.97406 6.61183 5.31723 6.14414 5.71801C5.97008 5.86792 5.60337 6.23835 5.4609 6.40869C5.15613 6.7754 4.92508 7.12229 4.71137 7.53546C4.43943 8.06447 4.27033 8.55631 4.16068 9.13115C4.11546 9.37088 4.10246 9.45884 4.08511 9.63042C4.07768 9.70352 4.06715 9.80573 4.06095 9.8559C4.04485 9.97422 4.04485 10.5906 4.06095 10.7089C4.06715 10.7591 4.0783 10.8637 4.08511 10.9405C4.09378 11.0174 4.10431 11.1109 4.10927 11.1474C4.22882 11.8895 4.40041 12.4241 4.71137 13.0299C5.00623 13.6023 5.34754 14.0681 5.81398 14.5358C6.28662 15.0072 6.7543 15.3485 7.33162 15.6434C7.78258 15.8726 8.12699 16.0014 8.61077 16.1234C8.86784 16.1879 9.14102 16.2356 9.41481 16.2647C9.48915 16.2721 9.59259 16.2826 9.64648 16.2901C9.77347 16.3049 10.3762 16.3049 10.4933 16.2888C10.5434 16.2826 10.6456 16.2715 10.7187 16.2634C11.804 16.1513 12.8298 15.7431 13.7094 15.0735C13.9399 14.8982 14.0848 14.77 14.3134 14.5414C14.5438 14.3109 14.6838 14.153 14.8566 13.9263C15.5256 13.0479 15.9351 12.0209 16.0478 10.9356C16.0553 10.8613 16.0658 10.7578 16.0732 10.7039C16.0881 10.5782 16.0881 9.98289 16.0732 9.86705C16.0658 9.81811 16.0553 9.71467 16.0478 9.63786C16.0138 9.28725 15.8892 8.68515 15.8174 8.52286C15.7846 8.44728 15.7251 8.38782 15.6433 8.34631C15.4544 8.25278 15.2252 8.33269 15.1379 8.5241C15.0914 8.62507 15.0902 8.68887 15.1279 8.82762C15.2667 9.33557 15.3293 9.77785 15.3293 10.2734C15.3293 10.7659 15.2549 11.3172 15.1341 11.7087C15.1292 11.726 15.118 11.7638 15.11 11.7941C15.0493 12.0072 14.9161 12.3461 14.8003 12.5808C14.542 13.1086 14.2409 13.5348 13.8308 13.9548C12.8267 14.983 11.4955 15.5455 10.0665 15.5455C9.60127 15.5455 9.08341 15.4774 8.67767 15.3615C8.65475 15.3541 8.61573 15.3436 8.59219 15.3374C8.56927 15.3299 8.53396 15.32 8.5129 15.3144C8.39459 15.2816 8.03655 15.1441 7.8916 15.0766C6.79023 14.5699 5.90194 13.7144 5.35993 12.6403C4.99074 11.9069 4.80305 11.1165 4.80305 10.2827C4.80305 9.45326 4.98826 8.66471 5.35373 7.93748C5.60709 7.43325 5.90442 7.01637 6.30148 6.61063C7.08136 5.81279 8.05699 5.29369 9.13978 5.09857C9.85462 4.97034 10.7026 5.00131 11.3654 5.17786C11.4144 5.19148 11.4968 5.21316 11.5494 5.22803C11.6628 5.25838 11.7359 5.25343 11.8294 5.20759C11.9669 5.14069 12.0388 5.02485 12.0388 4.86875C12.0388 4.79442 12.0326 4.76778 12.0022 4.70522C11.9607 4.62345 11.9013 4.56399 11.8257 4.53116C11.6659 4.46054 11.0731 4.33727 10.7169 4.30072C10.6438 4.29329 10.5391 4.28276 10.4852 4.27533C10.3706 4.26232 9.72639 4.26356 9.62171 4.27842Z" fill="#0D152C"/>
<path d="M13.7943 4.27592C13.7844 4.28088 13.7515 4.2976 13.7199 4.31247C13.6369 4.35273 12.2457 5.74772 12.2116 5.82577C12.185 5.88524 12.1713 5.96824 12.1496 6.1962C12.1422 6.27673 12.1317 6.39132 12.1255 6.45203C12.1193 6.5115 12.1081 6.61742 12.1013 6.68618C12.0951 6.75556 12.0834 6.86768 12.0772 6.93582C12.0697 7.00519 12.0592 7.11607 12.0518 7.18297C12.0456 7.24987 12.0344 7.35332 12.0289 7.41465C12.0227 7.47411 12.0115 7.59243 12.0035 7.67667L11.9886 7.82906L10.8655 8.95582C9.61674 10.2083 9.69603 10.1179 9.69603 10.2901C9.69603 10.4945 9.85585 10.6543 10.0615 10.6556C10.2331 10.6556 10.1433 10.7361 11.3958 9.48607L12.5226 8.36302L12.6749 8.34815C12.7592 8.33948 12.8769 8.32895 12.937 8.32275C12.9977 8.31656 13.1017 8.30541 13.1686 8.29983C13.2355 8.2924 13.3464 8.28187 13.4158 8.27444C13.4839 8.26824 13.5961 8.25647 13.6654 8.25028C13.7336 8.24284 13.8395 8.23231 13.8996 8.22612C13.9603 8.21992 14.0749 8.20877 14.1554 8.20196C14.3834 8.18028 14.4664 8.16665 14.5258 8.14002C14.6039 8.10595 15.9989 6.71467 16.0391 6.63167C16.054 6.60008 16.0707 6.56601 16.0769 6.55486C16.0906 6.52698 16.0893 6.37956 16.0757 6.35292C16.0695 6.34177 16.0552 6.31142 16.0429 6.28478C16.0113 6.22036 15.9431 6.15346 15.875 6.12001C15.8155 6.09089 15.748 6.08098 15.4593 6.05806C15.3658 6.05063 15.2227 6.03948 15.1428 6.03267C14.926 6.01532 14.685 5.99736 14.5314 5.98621C14.4558 5.98125 14.3902 5.97382 14.3852 5.96886C14.3815 5.96391 14.3728 5.90072 14.3679 5.82887C14.3629 5.75701 14.353 5.62693 14.3462 5.54021C14.3388 5.45225 14.322 5.23296 14.3084 5.0527C14.2731 4.59927 14.2669 4.54476 14.2366 4.48158C14.2037 4.41468 14.1319 4.34158 14.0699 4.31123C14.0433 4.29884 14.0129 4.28459 14.0018 4.2784C13.9721 4.26229 13.8197 4.26229 13.7943 4.27592ZM13.6041 5.73286C13.614 5.86108 13.6283 6.04382 13.6357 6.14107C13.6574 6.4384 13.676 6.49911 13.772 6.59079C13.8612 6.67751 13.9157 6.69176 14.2068 6.71406C14.5686 6.74069 14.8473 6.76423 14.8523 6.76981C14.8622 6.77972 14.2031 7.43385 14.1771 7.43881C14.1554 7.44376 13.6047 7.50075 13.2876 7.53048C13.1451 7.54411 12.9537 7.56331 12.8465 7.57446C12.7573 7.58437 12.761 7.59305 12.7809 7.4258C12.7957 7.30996 12.8063 7.20527 12.8614 6.63539C12.8843 6.39442 12.9066 6.18567 12.9103 6.17266C12.9153 6.14726 13.5694 5.48817 13.5793 5.49747C13.583 5.49871 13.5942 5.60587 13.6041 5.73286Z" fill="#0D152C"/>
<path d="M9.65206 6.15417C9.5387 6.16656 9.39871 6.187 9.31075 6.20435C9.2073 6.22355 9.02828 6.26381 8.99421 6.27496C8.97687 6.27992 8.93908 6.29107 8.90873 6.29912C8.72971 6.3493 8.48007 6.44531 8.25212 6.55248C7.98761 6.67575 7.59674 6.93529 7.34958 7.15086C7.05968 7.40297 6.76855 7.73933 6.57342 8.0472C6.35662 8.38727 6.18131 8.77566 6.0822 9.12565C6.07353 9.156 6.063 9.19379 6.05804 9.21113C6.05185 9.22848 6.0376 9.29042 6.02397 9.35113C5.94468 9.70917 5.923 9.91296 5.923 10.2834C5.923 10.6538 5.94468 10.857 6.02397 11.2157C6.0376 11.2751 6.05185 11.3389 6.05804 11.3556C6.063 11.373 6.07415 11.4102 6.0822 11.4411C6.20547 11.8847 6.44643 12.3672 6.74377 12.763C7.44436 13.6971 8.46025 14.2763 9.62604 14.4077C9.81745 14.4293 10.261 14.4318 10.4592 14.4138C10.6772 14.3922 11.0111 14.3333 11.1375 14.2918C11.1548 14.2869 11.1926 14.2757 11.223 14.2677C12.2135 13.9901 13.1197 13.2796 13.6512 12.3672C13.8191 12.0785 13.9702 11.7267 14.0495 11.4411C14.0582 11.4108 14.0687 11.373 14.0737 11.3556C14.0953 11.2875 14.1492 11.0292 14.1697 10.8867C14.2378 10.437 14.2174 9.82314 14.1195 9.40068C14.0476 9.0891 14.0061 9.01601 13.8538 8.94167C13.7769 8.90389 13.627 8.90513 13.5477 8.94291C13.4759 8.97698 13.4028 9.04884 13.3662 9.12317C13.3223 9.21113 13.3198 9.30343 13.3601 9.46201C13.4319 9.74819 13.4548 9.94703 13.4548 10.2784C13.4561 10.6538 13.427 10.8669 13.3247 11.2349C13.238 11.5514 13.0578 11.9255 12.8472 12.2278C12.3857 12.8931 11.6498 13.3986 10.881 13.5813C10.5595 13.6569 10.3973 13.6748 10.0646 13.6748C9.8125 13.6748 9.6917 13.6662 9.49782 13.6321C8.07495 13.3874 6.96119 12.2737 6.71527 10.8508C6.68244 10.6619 6.67377 10.538 6.67377 10.284C6.67377 9.88447 6.71651 9.60572 6.83235 9.2421C7.16251 8.21383 7.99443 7.38315 9.02518 7.05051C9.38694 6.93467 9.66817 6.89193 10.0702 6.89317C10.3991 6.89317 10.611 6.91857 10.8854 6.98795C11.0743 7.03564 11.1598 7.02821 11.27 6.95264C11.3382 6.90742 11.3592 6.88202 11.4001 6.80521C11.4454 6.71973 11.4466 6.57725 11.4038 6.48867C11.3357 6.34992 11.2385 6.29107 10.9832 6.2378C10.9504 6.23037 10.8978 6.21983 10.8674 6.2124C10.7832 6.19506 10.681 6.17957 10.5143 6.15975C10.3514 6.13993 9.81188 6.13621 9.65206 6.15417Z" fill="#0D152C"/>
<path d="M9.75797 8.04783C9.36586 8.1073 9.02083 8.24977 8.71731 8.47649C8.236 8.83577 7.91451 9.3815 7.83026 9.97864C7.69894 10.9289 8.19697 11.8692 9.06296 12.304C9.53188 12.5382 10.1166 12.6001 10.6246 12.4688C11.3382 12.2824 11.9211 11.7595 12.1769 11.0738C12.3082 10.7232 12.3596 10.2698 12.2853 10.1248C12.2314 10.0239 12.1515 9.95448 12.0456 9.92165C11.8814 9.87024 11.6925 9.95572 11.6144 10.1168C11.5816 10.1837 11.5754 10.2116 11.5643 10.3639C11.5302 10.8341 11.3276 11.2144 10.9671 11.482C10.767 11.6307 10.5577 11.723 10.3241 11.7633C10.1903 11.7862 9.93947 11.7862 9.80257 11.7633C9.4563 11.7026 9.12986 11.5111 8.90686 11.238C8.76314 11.0614 8.66465 10.8688 8.60704 10.6495C8.5643 10.486 8.55439 10.1917 8.58536 10.0183C8.69748 9.39079 9.21906 8.88408 9.8416 8.79736C9.89425 8.78869 10.0392 8.78125 10.1631 8.78002C10.3836 8.77754 10.3898 8.7763 10.4443 8.74471C10.5744 8.6679 10.6574 8.52295 10.6463 8.39286C10.6376 8.29189 10.5961 8.20765 10.5205 8.13951C10.422 8.04783 10.3805 8.03854 10.1011 8.03358C9.94814 8.03173 9.82735 8.03668 9.75797 8.04783Z" fill="#0D152C"/>
</g>
<defs>
<clipPath id="clip0_10389_212">
<rect x="0.158813" y="0.49707" width="19.8178" height="19.573" rx="5.68307" fill="white"/>
</clipPath>
</defs>
</svg>
