<svg width="21" height="21" viewBox="0 0 21 21" fill="none" xmlns="http://www.w3.org/2000/svg">
<g clip-path="url(#clip0_10389_82)">
<rect x="0.641281" y="0.49707" width="19.8178" height="19.573" rx="5.68307" fill="white"/>
<path d="M10.3277 5.00787C10.3667 5.00781 10.3667 5.00781 10.4065 5.00774C10.4611 5.00779 10.5157 5.00811 10.5703 5.0087C10.6533 5.00952 10.7364 5.00928 10.8194 5.00892C10.8728 5.00909 10.9261 5.00933 10.9795 5.00963C11.0163 5.00951 11.0163 5.00951 11.0539 5.00938C11.2315 5.01209 11.3918 5.02949 11.5319 5.14742C11.644 5.26689 11.6911 5.3892 11.7331 5.54517C11.7471 5.59131 11.7612 5.63743 11.7754 5.68352C11.7969 5.7552 11.8179 5.82688 11.8374 5.89912C11.9031 6.17139 11.9031 6.17139 12.0697 6.38442C12.1973 6.45067 12.3308 6.48187 12.4697 6.51573C12.5428 6.55086 12.5428 6.55086 12.6001 6.58444C12.7124 6.63642 12.7464 6.62986 12.8643 6.60029C12.9305 6.57065 12.9932 6.54018 13.0569 6.50605C13.0937 6.48699 13.1306 6.46794 13.1674 6.4489C13.2246 6.41899 13.2817 6.38894 13.3388 6.35871C13.5806 6.2311 13.7785 6.12912 14.0605 6.15988C14.3188 6.27769 14.5242 6.5341 14.7243 6.7326C14.7518 6.75972 14.7793 6.78671 14.807 6.81358C15.1577 7.15387 15.1577 7.15387 15.1615 7.3948C15.1507 7.62747 15.029 7.8286 14.9198 8.02855C14.8966 8.0716 14.8966 8.0716 14.8729 8.11552C14.8413 8.17357 14.8092 8.23132 14.7765 8.28874C14.689 8.439 14.689 8.439 14.6804 8.60616C14.695 8.63253 14.7096 8.65891 14.7246 8.68609C14.7409 8.7244 14.7568 8.76288 14.7723 8.80148C14.7987 8.86385 14.8252 8.92614 14.8521 8.98832C14.9007 9.10381 14.9356 9.20869 14.9501 9.33438C14.984 9.34114 15.0179 9.3479 15.0529 9.35486C15.2357 9.39558 15.412 9.45498 15.5896 9.51407C15.6402 9.53042 15.6402 9.53042 15.6918 9.5471C15.9254 9.62457 16.1022 9.68942 16.2467 9.89811C16.2733 9.97804 16.279 10.0299 16.2803 10.1129C16.281 10.1524 16.281 10.1524 16.2817 10.1927C16.283 10.3134 16.2841 10.434 16.2848 10.5547C16.2852 10.6182 16.286 10.6817 16.2871 10.7452C16.2886 10.837 16.2892 10.9288 16.2896 11.0206C16.2903 11.0488 16.2909 11.0769 16.2916 11.106C16.291 11.2908 16.2624 11.4231 16.134 11.5611C16.0117 11.6581 15.8628 11.7051 15.7159 11.7527C15.6957 11.7594 15.6754 11.7661 15.6546 11.7731C15.6122 11.7871 15.5699 11.801 15.5275 11.8148C15.4624 11.8361 15.3974 11.8576 15.3325 11.8792C15.2912 11.8928 15.2498 11.9064 15.2085 11.92C15.1891 11.9265 15.1697 11.9329 15.1496 11.9395C15.0131 11.9839 15.0131 11.9839 14.9501 11.9839C14.9475 12.0067 14.945 12.0294 14.9423 12.0528C14.917 12.1774 14.8714 12.2867 14.8215 12.4032C14.8076 12.4363 14.8076 12.4363 14.7934 12.4701C14.7706 12.5242 14.7477 12.5782 14.7246 12.6322C14.7692 12.6147 14.7692 12.6147 14.8146 12.5969C14.9255 12.5534 15.0364 12.51 15.1473 12.4667C15.1952 12.448 15.2431 12.4292 15.2909 12.4104C15.36 12.3833 15.429 12.3564 15.4981 12.3294C15.5193 12.3211 15.5405 12.3127 15.5623 12.3041C15.8319 12.1993 16.1073 12.1193 16.3947 12.2112C16.6049 12.3055 16.7479 12.461 16.8411 12.6696C16.9202 12.9016 16.909 13.1133 16.8104 13.3369C16.7344 13.4789 16.6267 13.5787 16.5039 13.6809C16.4658 13.7131 16.4287 13.7464 16.3929 13.7811C16.1871 13.979 15.9423 14.1228 15.7024 14.2751C15.5809 14.3525 15.4602 14.4314 15.3394 14.5101C15.1073 14.6611 14.8748 14.8116 14.6422 14.962C14.5629 15.0133 14.4835 15.0647 14.4042 15.116C14.3642 15.1419 14.3241 15.1678 14.2841 15.1937C14.1849 15.2579 14.0858 15.3221 13.9867 15.3864C13.8664 15.4645 13.7459 15.5423 13.6254 15.62C13.6039 15.6338 13.5825 15.6477 13.5604 15.6619C13.2412 15.8678 12.918 16.0619 12.5825 16.2401C12.5631 16.2504 12.5437 16.2607 12.5238 16.2713C12.0396 16.5273 11.5023 16.7518 10.9476 16.7756C10.9106 16.7778 10.9106 16.7778 10.8729 16.78C10.4055 16.7944 9.94506 16.6896 9.49076 16.5924C8.67023 16.4169 7.8504 16.3795 7.01388 16.3651C6.9468 16.3639 6.87973 16.3627 6.81266 16.3614C6.65013 16.3585 6.4876 16.3556 6.32507 16.3528C6.32576 16.3737 6.32646 16.3947 6.32718 16.4162C6.32772 16.4439 6.32826 16.4715 6.32881 16.5C6.32951 16.5273 6.3302 16.5547 6.33092 16.5828C6.32164 16.7098 6.26822 16.7953 6.18414 16.8883C6.05214 16.9934 5.9478 17.032 5.78179 17.0343C5.75826 17.0346 5.73473 17.035 5.71049 17.0354C5.67266 17.0357 5.67266 17.0357 5.63406 17.036C5.60785 17.0362 5.58165 17.0365 5.55464 17.0367C5.4992 17.0371 5.44376 17.0374 5.38832 17.0376C5.33185 17.0379 5.27537 17.0385 5.2189 17.0393C5.13708 17.0405 5.05528 17.041 4.97344 17.0413C4.94845 17.0418 4.92345 17.0423 4.8977 17.0428C4.71273 17.0421 4.56316 17.003 4.42173 16.8787C4.2463 16.6873 4.25917 16.4594 4.25972 16.2156C4.25957 16.1824 4.25943 16.1492 4.25928 16.115C4.25896 16.0244 4.25889 15.9338 4.25896 15.8431C4.25899 15.7673 4.25885 15.6914 4.25872 15.6156C4.2584 15.4365 4.25839 15.2575 4.25856 15.0784C4.25873 14.8941 4.25838 14.7099 4.25778 14.5256C4.25729 14.367 4.25712 14.2083 4.25721 14.0497C4.25726 13.9551 4.25715 13.8606 4.25679 13.766C4.25645 13.6605 4.25664 13.555 4.25696 13.4495C4.25675 13.4185 4.25653 13.3874 4.25631 13.3555C4.25776 13.1432 4.27796 12.9759 4.4172 12.8066C4.59376 12.6629 4.73636 12.6478 4.95626 12.6492C4.9844 12.6491 5.01254 12.649 5.04153 12.6489C5.10085 12.6488 5.16017 12.649 5.21949 12.6494C5.31006 12.6498 5.40058 12.6494 5.49115 12.6488C5.54891 12.6489 5.60668 12.649 5.66445 12.6492C5.69141 12.649 5.71836 12.6488 5.74614 12.6486C5.9198 12.6505 6.04758 12.671 6.18028 12.7934C6.19376 12.81 6.20724 12.8265 6.22113 12.8436C6.23498 12.8602 6.24882 12.8767 6.26308 12.8938C6.29688 12.9422 6.29688 12.9422 6.32507 13.0268C6.42002 13.0284 6.42002 13.0284 6.52237 12.9986C6.57857 12.9401 6.61413 12.8797 6.63512 12.8013C6.62068 12.7055 6.59464 12.6229 6.55585 12.5344C6.54589 12.5114 6.53593 12.4883 6.52568 12.4645C6.51529 12.4408 6.50489 12.4171 6.49419 12.3926C6.47351 12.3454 6.45295 12.2981 6.43253 12.2508C6.42341 12.23 6.41429 12.2092 6.40489 12.1878C6.37977 12.1203 6.36558 12.0547 6.35326 11.9839C6.33521 11.9792 6.31716 11.9745 6.29856 11.9697C6.08626 11.9133 5.87783 11.8481 5.66973 11.7778C5.62188 11.7623 5.62188 11.7623 5.57306 11.7466C5.22039 11.627 5.22039 11.627 5.11305 11.4765C5.03361 11.3044 5.01564 11.161 5.01627 10.9728C5.01612 10.9468 5.01598 10.9209 5.01582 10.8941C5.01564 10.8394 5.01568 10.7848 5.01592 10.7302C5.01616 10.6471 5.01535 10.5642 5.01445 10.4812C5.01441 10.4278 5.01443 10.3744 5.01451 10.321C5.01403 10.2843 5.01403 10.2843 5.01355 10.2468C5.01575 10.0515 5.05862 9.87721 5.19201 9.72892C5.37697 9.6132 5.57551 9.54668 5.78273 9.48306C5.84297 9.46456 5.90302 9.44549 5.96305 9.42632C6.25448 9.33438 6.25448 9.33438 6.35326 9.33438C6.35707 9.3169 6.36089 9.29943 6.36482 9.28142C6.41132 9.09013 6.4807 8.92222 6.57171 8.74857C6.62814 8.63628 6.64192 8.58021 6.60693 8.4606C6.57721 8.39684 6.54556 8.33397 6.51269 8.27177C6.49362 8.23499 6.47457 8.19819 6.45554 8.16139C6.42567 8.10409 6.39567 8.04687 6.36535 7.9898C6.10855 7.50481 6.10855 7.50481 6.17885 7.2204C6.23767 7.08595 6.34579 6.99384 6.4507 6.89438C6.51101 6.83666 6.56549 6.77847 6.61927 6.7148C7.06019 6.20299 7.06019 6.20299 7.34683 6.14931C7.66581 6.1313 7.97806 6.35695 8.24522 6.50621C8.27506 6.52232 8.30491 6.53844 8.33567 6.55504C8.36233 6.56982 8.38899 6.5846 8.41646 6.59983C8.55268 6.64925 8.66539 6.60567 8.79326 6.54921C8.81624 6.53925 8.83922 6.52929 8.8629 6.51904C8.88639 6.50865 8.90988 6.49825 8.93408 6.48755C8.98104 6.46687 9.02805 6.44631 9.07512 6.42589C9.09574 6.41677 9.11636 6.40765 9.13761 6.39825C9.20486 6.37301 9.27035 6.35891 9.34102 6.34662C9.35121 6.29571 9.35121 6.29571 9.36161 6.24378C9.40219 6.06173 9.46051 5.88586 9.51895 5.7089C9.52961 5.6754 9.54027 5.6419 9.55126 5.60738C9.68604 5.19872 9.68604 5.19872 9.84521 5.10241C10.0099 5.02549 10.147 5.00553 10.3277 5.00787ZM10.0739 5.44465C10.001 5.60185 9.93804 5.75799 9.88724 5.9236C9.87414 5.96478 9.86102 6.00596 9.84788 6.04713C9.82768 6.1109 9.80764 6.1747 9.78798 6.23863C9.76868 6.30113 9.74874 6.3634 9.72869 6.42567C9.72299 6.44478 9.71729 6.4639 9.71142 6.48359C9.68222 6.57268 9.65908 6.6223 9.58409 6.68015C9.51541 6.71069 9.44743 6.73995 9.3768 6.76567C9.33933 6.77957 9.33933 6.77957 9.30111 6.79375C9.24959 6.81255 9.19806 6.83134 9.14652 6.85012C8.99193 6.90749 8.84775 6.97199 8.70382 7.05272C8.60177 7.09317 8.51934 7.09966 8.41531 7.05933C8.35571 7.03051 8.29784 6.99948 8.23988 6.96749C8.19611 6.94424 8.15234 6.92099 8.10858 6.89774C8.04018 6.86085 7.97185 6.82382 7.90355 6.78675C7.83731 6.75095 7.77084 6.71563 7.70433 6.68034C7.68401 6.6691 7.66369 6.65785 7.64275 6.64627C7.56362 6.60438 7.49788 6.57278 7.4076 6.56923C7.30726 6.61519 7.23567 6.68664 7.15855 6.76358C7.14179 6.78003 7.12503 6.79648 7.10777 6.81343C7.07252 6.84823 7.03741 6.88319 7.00245 6.91828C6.94882 6.97188 6.89441 7.0246 6.83991 7.07732C6.80573 7.11127 6.7716 7.14527 6.73752 7.17933C6.72117 7.19501 6.70482 7.2107 6.68797 7.22686C6.61569 7.30084 6.57893 7.34117 6.57798 7.44671C6.60853 7.53505 6.64337 7.61606 6.68588 7.69934C6.70978 7.7466 6.70978 7.7466 6.73416 7.7948C6.75089 7.82732 6.76762 7.85984 6.78486 7.89335C6.80127 7.92565 6.81767 7.95795 6.83457 7.99123C6.85863 8.03859 6.85863 8.03859 6.88318 8.08691C6.89865 8.11746 6.91411 8.148 6.93005 8.17948C6.95618 8.23005 6.98305 8.28027 7.01127 8.32971C7.08528 8.46181 7.09899 8.54004 7.05792 8.68609C7.02665 8.76342 6.99011 8.83731 6.95222 8.91158C6.85643 9.10525 6.78495 9.29663 6.72541 9.50416C6.6862 9.60114 6.66675 9.619 6.57875 9.67262C6.50132 9.70364 6.42224 9.72827 6.34258 9.75288C6.31979 9.76014 6.297 9.76739 6.27352 9.77486C6.20092 9.79795 6.12824 9.82075 6.05554 9.8435C5.98274 9.86638 5.90997 9.88933 5.83725 9.91243C5.79206 9.92678 5.74682 9.941 5.70154 9.95507C5.60819 9.98463 5.5333 10.0126 5.45129 10.0672C5.41717 10.1696 5.41799 10.2643 5.41738 10.3709C5.41722 10.3923 5.41706 10.4138 5.41689 10.4359C5.41662 10.4812 5.41644 10.5266 5.41633 10.5719C5.41606 10.6411 5.41518 10.7102 5.41429 10.7794C5.41411 10.8235 5.41396 10.8676 5.41385 10.9117C5.41351 10.9323 5.41316 10.9529 5.4128 10.9741C5.41335 11.0999 5.42208 11.1846 5.50766 11.2792C5.58413 11.3144 5.65316 11.3407 5.73293 11.365C5.76604 11.3758 5.76604 11.3758 5.79981 11.3868C5.87023 11.4095 5.94084 11.4316 6.0115 11.4536C6.08189 11.4762 6.15223 11.4988 6.22258 11.5214C6.2663 11.5355 6.31006 11.5494 6.35387 11.5631C6.41017 11.5809 6.46627 11.5991 6.52237 11.6175C6.54927 11.6258 6.57617 11.6342 6.60388 11.6428C6.68033 11.6827 6.69188 11.7133 6.71946 11.794C6.72818 11.8184 6.7369 11.8427 6.74588 11.8679C6.75468 11.8939 6.76347 11.92 6.77253 11.9469C6.7917 12.0008 6.811 12.0547 6.83044 12.1085C6.84006 12.1352 6.84968 12.1618 6.85959 12.1893C6.91372 12.331 6.98204 12.4653 7.05087 12.6004C7.08801 12.6933 7.09328 12.7586 7.0861 12.8577C7.28077 12.7999 7.4572 12.7196 7.6375 12.6269C7.66324 12.6138 7.68899 12.6008 7.71551 12.5873C7.77826 12.5555 7.84092 12.5234 7.90351 12.4913C7.86563 12.3898 7.81935 12.295 7.76915 12.1991C7.37084 11.4335 7.25662 10.5347 7.5089 9.7008C7.67228 9.19193 7.92034 8.75509 8.29812 8.37604C8.32177 8.3522 8.34543 8.32837 8.3698 8.30381C9.00684 7.67184 9.83919 7.3781 10.7278 7.38098C11.6127 7.39654 12.425 7.76062 13.0474 8.38768C13.654 9.02731 13.9556 9.9025 13.9348 10.777C13.8943 11.7089 13.4815 12.5271 12.7995 13.1543C12.6143 13.315 12.4036 13.4469 12.1879 13.5623C12.2882 13.5981 12.3432 13.5829 12.4412 13.5447C12.4692 13.5339 12.4972 13.5232 12.526 13.5121C12.5712 13.4942 12.5712 13.4942 12.6174 13.4759C12.6644 13.4577 12.6644 13.4577 12.7124 13.4391C12.8131 13.4 12.9136 13.3605 13.0141 13.321C13.0806 13.2951 13.1471 13.2693 13.2136 13.2434C13.3412 13.1939 13.4686 13.1439 13.5959 13.0936C13.6991 13.0529 13.8025 13.013 13.9066 12.9746C13.9267 12.9671 13.9468 12.9595 13.9675 12.9517C14.0183 12.9326 14.0693 12.914 14.1203 12.8953C14.1932 12.8649 14.1932 12.8649 14.2123 12.8003C14.2148 12.7729 14.2148 12.7729 14.2173 12.7449C14.2865 12.553 14.3717 12.367 14.4548 12.1808C14.5154 12.0438 14.5659 11.9059 14.6086 11.7623C14.6836 11.6188 14.869 11.5839 15.0138 11.5382C15.0592 11.5235 15.1046 11.5087 15.15 11.4939C15.2211 11.471 15.2923 11.4482 15.3635 11.4255C15.4326 11.4034 15.5015 11.381 15.5704 11.3585C15.5918 11.3518 15.6131 11.3451 15.635 11.3382C15.7808 11.2971 15.7808 11.2971 15.8803 11.1947C15.889 11.1131 15.8928 11.0377 15.8925 10.9561C15.8926 10.9327 15.8928 10.9093 15.8929 10.8852C15.8931 10.8358 15.8931 10.7863 15.8928 10.7369C15.8926 10.6613 15.8934 10.5857 15.8943 10.5101C15.8944 10.4621 15.8943 10.414 15.8943 10.3659C15.8947 10.3321 15.8947 10.3321 15.8952 10.2975C15.8941 10.204 15.889 10.1374 15.8386 10.0574C15.7378 9.99136 15.634 9.95983 15.519 9.92563C15.4697 9.91009 15.4203 9.89453 15.371 9.87895C15.2934 9.85491 15.2158 9.83107 15.1381 9.80755C15.0629 9.78463 14.988 9.76094 14.913 9.73714C14.8898 9.73035 14.8665 9.72356 14.8425 9.71657C14.7279 9.67969 14.6805 9.66321 14.6126 9.55939C14.6031 9.53164 14.5935 9.5039 14.5837 9.47531C14.5734 9.44726 14.5631 9.41921 14.5525 9.39031C14.5425 9.36023 14.5324 9.33014 14.522 9.29915C14.4808 9.17888 14.4366 9.0652 14.3806 8.95111C14.3699 8.92905 14.3592 8.90698 14.3483 8.88425C14.3272 8.84116 14.3054 8.7984 14.2829 8.75603C14.228 8.64296 14.2068 8.57058 14.2449 8.44849C14.2628 8.40507 14.2818 8.36212 14.3018 8.31967C14.3121 8.29743 14.3223 8.2752 14.3329 8.25229C14.3666 8.18189 14.4018 8.11247 14.4375 8.04309C14.4498 8.01852 14.4622 7.99396 14.4749 7.96865C14.5291 7.86114 14.584 7.75428 14.6427 7.64914C14.6587 7.61985 14.6747 7.59057 14.6912 7.56039C14.7053 7.53572 14.7194 7.51105 14.734 7.48563C14.7612 7.41679 14.7612 7.41679 14.7215 7.35354C14.6591 7.26361 14.5881 7.18587 14.5118 7.10787C14.4967 7.09236 14.4816 7.07685 14.466 7.06088C14.4341 7.02834 14.4021 6.9959 14.3701 6.96352C14.3212 6.91386 14.273 6.86357 14.2248 6.81323C14.1937 6.78163 14.1625 6.75006 14.1313 6.71854C14.117 6.70343 14.1027 6.68831 14.088 6.67274C14.0192 6.60469 13.9807 6.57248 13.8823 6.57032C13.7739 6.60733 13.6755 6.65439 13.5743 6.70786C13.5319 6.72962 13.4896 6.75136 13.4472 6.7731C13.3811 6.80738 13.315 6.84178 13.2491 6.87629C13.185 6.9097 13.1207 6.94268 13.0563 6.97564C13.027 6.99123 13.027 6.99123 12.9971 7.00713C12.8826 7.06554 12.7986 7.0956 12.667 7.07946C12.6058 7.05886 12.6058 7.05886 12.5492 7.02992C12.5279 7.01935 12.5066 7.00879 12.4846 6.9979C12.4622 6.98645 12.4399 6.975 12.4169 6.96319C12.2142 6.86112 12.2142 6.86112 12.0011 6.78417C11.9708 6.77485 11.9708 6.77485 11.9398 6.76535C11.8849 6.7493 11.8295 6.73486 11.7741 6.72053C11.6715 6.6712 11.6465 6.59668 11.6057 6.4936C11.5828 6.42609 11.5608 6.35828 11.5396 6.29024C11.5284 6.25627 11.5173 6.22229 11.5058 6.18728C11.4607 6.04811 11.4174 5.9084 11.3741 5.76863C11.3635 5.73486 11.3529 5.70108 11.3419 5.66629C11.3325 5.63585 11.3231 5.60541 11.3133 5.57405C11.2904 5.49778 11.2904 5.49778 11.2295 5.44465C11.1425 5.4397 11.0581 5.43813 10.9712 5.43914C10.9456 5.43922 10.9201 5.4393 10.8937 5.43939C10.8119 5.4397 10.73 5.44041 10.6482 5.44113C10.5927 5.44141 10.5373 5.44167 10.4819 5.4419C10.3459 5.44252 10.2099 5.44349 10.0739 5.44465ZM8.80548 8.43241C8.78524 8.44811 8.765 8.46381 8.74415 8.47998C8.19119 8.93117 7.85088 9.66139 7.76786 10.3614C7.76544 10.4043 7.76368 10.4471 7.76258 10.49C7.76045 10.5262 7.76045 10.5262 7.75828 10.5631C7.73744 11.17 7.91541 11.8432 8.29812 12.3221C8.31796 12.3181 8.3378 12.314 8.35824 12.3098C8.66134 12.2528 8.94073 12.237 9.24154 12.3147C9.26102 12.3197 9.28051 12.3247 9.30058 12.3299C9.51017 12.3846 9.71771 12.4461 9.92501 12.5089C9.96553 12.5211 10.0061 12.5333 10.0466 12.5455C10.1305 12.5708 10.2145 12.5962 10.2984 12.6217C10.4053 12.6541 10.5124 12.6863 10.6194 12.7183C10.7028 12.7433 10.786 12.7685 10.8693 12.7938C10.9087 12.8057 10.9482 12.8176 10.9877 12.8294C11.55 12.9976 11.55 12.9976 11.751 13.2488C11.7926 13.2873 11.7926 13.2873 11.8539 13.2752C11.9564 13.246 12.0427 13.1978 12.1332 13.1431C12.1518 13.1319 12.1703 13.1208 12.1893 13.1093C12.3798 12.9905 12.5362 12.8457 12.6952 12.6886C12.7157 12.6701 12.7362 12.6517 12.7573 12.6326C13.2498 12.1789 13.5138 11.4467 13.548 10.7908C13.5758 9.98115 13.2873 9.23623 12.7365 8.64493C12.5301 8.4281 12.3075 8.26911 12.0469 8.12236C12.02 8.10696 11.993 8.09155 11.9652 8.07568C10.9341 7.522 9.70289 7.7306 8.80548 8.43241ZM15.6558 12.7013C15.6295 12.7117 15.6033 12.7221 15.5763 12.7327C15.4901 12.7669 15.4042 12.8017 15.3183 12.8365C15.2575 12.8607 15.1967 12.8849 15.1359 12.9089C15.008 12.9596 14.8803 13.0104 14.7525 13.0614C14.46 13.1778 14.1661 13.2904 13.8722 13.4031C13.7816 13.4379 13.691 13.4728 13.6004 13.5077C13.4303 13.5731 13.2601 13.6383 13.0898 13.7033C13.0595 13.7149 13.0291 13.7265 12.9979 13.7385C12.9062 13.7735 12.8145 13.8083 12.7227 13.8431C12.695 13.8537 12.6673 13.8643 12.6388 13.8753C12.4032 13.9642 12.1698 14.0305 11.9173 14.0489C11.7991 14.0746 11.7705 14.1106 11.6981 14.2054C11.556 14.3751 11.396 14.4696 11.1731 14.4925C10.9975 14.4994 10.8441 14.4761 10.6732 14.437C10.6198 14.4254 10.5665 14.4139 10.5131 14.4023C10.4305 14.3842 10.3479 14.3659 10.2653 14.3472C9.68247 14.2161 9.17227 14.1873 8.60113 14.3829C8.50462 14.4141 8.42708 14.4174 8.32631 14.4079C8.2717 14.3762 8.2717 14.3762 8.24175 14.3234C8.22371 14.1791 8.22371 14.1791 8.27313 14.1111C8.5929 13.8622 9.23529 13.8081 9.62288 13.8442C9.98909 13.8911 10.3509 13.9622 10.7086 14.0535C10.9055 14.1018 11.1094 14.1438 11.2965 14.0503C11.4294 13.9405 11.4294 13.9405 11.494 13.7857C11.5019 13.6297 11.4738 13.5118 11.3704 13.3932C11.1615 13.2683 10.9271 13.2093 10.6953 13.141C10.6516 13.128 10.608 13.1149 10.5644 13.1019C10.4501 13.0677 10.3358 13.0338 10.2214 13C10.128 12.9723 10.0346 12.9444 9.94124 12.9166C9.74829 12.859 9.55531 12.8015 9.36224 12.7443C9.32812 12.7342 9.294 12.7241 9.25885 12.7137C9.11905 12.6733 8.99968 12.6536 8.85304 12.6498C8.81711 12.6484 8.78117 12.647 8.74415 12.6456C8.42295 12.6633 8.10939 12.8311 7.8259 12.971C7.47477 13.1433 7.12853 13.2729 6.74787 13.365C6.60834 13.4022 6.46882 13.4395 6.32507 13.4778C6.32507 14.2963 6.32507 15.1149 6.32507 15.9582C6.59481 15.9582 6.86456 15.9582 7.14248 15.9582C8.0942 15.9706 9.00691 16.0653 9.93845 16.2588C10.7311 16.4229 11.3704 16.3564 12.1033 16.0146C12.1225 16.0057 12.1418 15.9968 12.1616 15.9877C12.7009 15.7369 13.196 15.4035 13.6915 15.0772C13.7977 15.0074 13.9044 14.9384 14.0112 14.8695C14.1834 14.7582 14.3554 14.6466 14.5273 14.5348C14.7028 14.4207 14.8783 14.3067 15.0541 14.193C15.0734 14.1805 15.0927 14.168 15.1126 14.1551C15.2128 14.0902 15.3132 14.0256 15.4138 13.9613C15.5322 13.8854 15.6501 13.8088 15.7675 13.7315C15.7959 13.7128 15.8244 13.694 15.8536 13.6748C16.062 13.5307 16.3564 13.3149 16.4722 13.0832C16.4865 12.911 16.4744 12.8258 16.3594 12.6886C16.2485 12.5884 16.1637 12.5908 16.0191 12.5951C15.8885 12.6092 15.7765 12.6513 15.6558 12.7013ZM4.72653 13.0893C4.67854 13.1558 4.67969 13.1971 4.67971 13.2788C4.67951 13.3076 4.67931 13.3363 4.67911 13.3659C4.67932 13.3974 4.67954 13.4289 4.67976 13.4613C4.67966 13.4945 4.67956 13.5277 4.67945 13.5619C4.67926 13.6529 4.67945 13.7439 4.67983 13.835C4.68014 13.9301 4.68003 14.0253 4.67997 14.1205C4.67995 14.2803 4.68026 14.4402 4.68078 14.6C4.68138 14.7849 4.68147 14.9698 4.6813 15.1547C4.68114 15.3325 4.6813 15.5102 4.68161 15.688C4.68175 15.7637 4.68177 15.8394 4.68171 15.9151C4.6817 16.0207 4.68205 16.1264 4.68251 16.232C4.68244 16.2635 4.68237 16.2951 4.6823 16.3276C4.6825 16.3562 4.6827 16.3849 4.68291 16.4144C4.68297 16.4394 4.68302 16.4644 4.68308 16.4901C4.68472 16.5562 4.68472 16.5562 4.74663 16.6065C4.83089 16.6125 4.91248 16.6151 4.99678 16.615C5.02159 16.6151 5.04641 16.6152 5.07197 16.6153C5.12448 16.6155 5.17698 16.6155 5.22949 16.6154C5.31004 16.6153 5.39056 16.616 5.47111 16.6167C5.52205 16.6167 5.57299 16.6168 5.62393 16.6167C5.66022 16.6171 5.66022 16.6171 5.69725 16.6175C5.77208 16.6179 5.77208 16.6179 5.87409 16.6065C5.93514 16.5149 5.93756 16.4897 5.93781 16.3839C5.93811 16.3412 5.93811 16.3412 5.93841 16.2977C5.93834 16.2665 5.93827 16.2353 5.9382 16.2032C5.93834 16.1703 5.93849 16.1374 5.93864 16.1036C5.93903 15.9946 5.939 15.8857 5.93894 15.7767C5.93902 15.7203 5.9391 15.6639 5.9392 15.6074C5.93951 15.43 5.93953 15.2525 5.93936 15.0751C5.93919 14.8919 5.93953 14.7088 5.94013 14.5256C5.94063 14.3684 5.9408 14.2112 5.94071 14.054C5.94066 13.9601 5.94077 13.8662 5.94112 13.7723C5.94147 13.6676 5.94128 13.563 5.94095 13.4583C5.94117 13.4271 5.94138 13.3959 5.94161 13.3638C5.94131 13.3211 5.94131 13.3211 5.94101 13.2776C5.94101 13.2404 5.94101 13.2404 5.94102 13.2025C5.93498 13.138 5.93499 13.138 5.89418 13.0893C5.80931 13.029 5.70676 13.043 5.60631 13.0438C5.57113 13.0436 5.57113 13.0436 5.53524 13.0435C5.48568 13.0435 5.43611 13.0436 5.38655 13.044C5.31064 13.0444 5.23477 13.044 5.15886 13.0434C5.1107 13.0435 5.06255 13.0436 5.0144 13.0438C4.99167 13.0436 4.96895 13.0434 4.94553 13.0432C4.8293 13.0422 4.8293 13.0422 4.72653 13.0893Z" fill="#0D152C" stroke="#0D152C" stroke-width="0.300877"/>
<path d="M11.9419 9.10418C11.9622 9.10409 11.9825 9.10399 12.0034 9.1039C12.0464 9.10375 12.0894 9.10369 12.1323 9.10369C12.198 9.10363 12.2636 9.10312 12.3292 9.10259C12.371 9.1025 12.4128 9.10245 12.4545 9.10242C12.4741 9.10222 12.4937 9.10202 12.5139 9.10181C12.616 9.10229 12.6946 9.10585 12.7798 9.16529C12.8248 9.25541 12.8131 9.35331 12.8137 9.45233C12.8138 9.4752 12.814 9.49806 12.8142 9.52163C12.8144 9.57003 12.8146 9.61844 12.8147 9.66684C12.815 9.74096 12.8159 9.81505 12.8168 9.88916C12.8169 9.93616 12.8171 9.98316 12.8172 10.0302C12.8176 10.0523 12.8179 10.0745 12.8183 10.0974C12.8176 10.2498 12.8176 10.2498 12.7712 10.3207C12.6882 10.37 12.6196 10.3606 12.5261 10.3491C12.4403 10.2858 12.4161 10.251 12.3962 10.1452C12.3949 10.1125 12.3936 10.0798 12.3922 10.0461C12.3906 10.0131 12.389 9.98013 12.3874 9.94614C12.3863 9.90843 12.3863 9.90843 12.3852 9.86995C12.3634 9.89178 12.3416 9.91361 12.3192 9.93611C12.1144 10.1415 11.9095 10.3468 11.7045 10.5521C11.5991 10.6576 11.4938 10.7631 11.3885 10.8687C11.2869 10.9706 11.1853 11.0724 11.0836 11.1741C11.0448 11.213 11.006 11.2519 10.9672 11.2909C10.913 11.3453 10.8587 11.3996 10.8044 11.4539C10.7883 11.4701 10.7721 11.4864 10.7555 11.5031C10.6163 11.642 10.6163 11.642 10.4883 11.6556C10.3583 11.6433 10.3244 11.6094 10.2352 11.5162C10.2223 11.5031 10.2095 11.4899 10.1962 11.4764C10.1555 11.4346 10.1156 11.3922 10.0756 11.3497C10.0481 11.3212 10.0204 11.2927 9.99278 11.2642C9.92539 11.1945 9.8585 11.1243 9.792 11.0538C9.70775 11.0915 9.65032 11.1326 9.58634 11.1989C9.56009 11.2258 9.56009 11.2258 9.5333 11.2533C9.50538 11.2824 9.50538 11.2824 9.47689 11.312C9.43693 11.3528 9.39696 11.3936 9.35698 11.4344C9.29424 11.4987 9.23162 11.5631 9.16922 11.6277C9.10884 11.6902 9.04803 11.7521 8.98715 11.814C8.95939 11.8432 8.95939 11.8432 8.93108 11.8729C8.84931 11.9555 8.79752 12.006 8.68468 12.0402C8.58311 12.0403 8.54057 12.0269 8.46724 11.9557C8.44792 11.8607 8.44179 11.8201 8.46724 11.7303C8.50449 11.6772 8.50449 11.6772 8.55303 11.6243C8.57094 11.6048 8.58885 11.5852 8.60731 11.565C8.70073 11.4667 8.79543 11.3699 8.89147 11.2741C8.91233 11.2532 8.93318 11.2323 8.95468 11.2108C8.99834 11.1671 9.04204 11.1235 9.08578 11.0799C9.15293 11.0129 9.21992 10.9457 9.2869 10.8786C9.32949 10.836 9.37208 10.7934 9.41468 10.7509C9.43473 10.7308 9.45478 10.7107 9.47544 10.6899C9.50326 10.6623 9.50326 10.6623 9.53164 10.634C9.54795 10.6177 9.56425 10.6015 9.58105 10.5847C9.63809 10.5325 9.67685 10.5187 9.75325 10.5041C9.90077 10.526 9.97035 10.6125 10.0739 10.7155C10.0899 10.7314 10.106 10.7473 10.1225 10.7636C10.2386 10.8784 10.3538 10.994 10.4685 11.1102C10.5771 11.0658 10.6502 10.9924 10.7312 10.9102C10.753 10.8884 10.753 10.8884 10.7754 10.8661C10.8234 10.818 10.8712 10.7698 10.919 10.7215C10.9523 10.6881 10.9857 10.6547 11.019 10.6213C11.1066 10.5334 11.1941 10.4454 11.2815 10.3574C11.3707 10.2676 11.4602 10.1779 11.5496 10.0882C11.7249 9.91224 11.9001 9.73613 12.0751 9.5599C12.05 9.55917 12.0248 9.55845 11.9989 9.5577C11.9494 9.5553 11.9494 9.5553 11.8989 9.55285C11.8662 9.55155 11.8335 9.55024 11.7998 9.54889C11.6941 9.52896 11.6592 9.50474 11.5959 9.41897C11.5752 9.24996 11.5752 9.24996 11.6347 9.16881C11.7351 9.09932 11.8236 9.10437 11.9419 9.10418Z" fill="#0D152C" stroke="#0D152C" stroke-width="0.300877"/>
</g>
<defs>
<clipPath id="clip0_10389_82">
<rect x="0.641281" y="0.49707" width="19.8178" height="19.573" rx="5.68307" fill="white"/>
</clipPath>
</defs>
</svg>
